<?xml version="1.0" encoding="UTF-8" standalone="no"?>
<!DOCTYPE svg PUBLIC "-//W3C//DTD SVG 1.1//EN"
 "http://www.w3.org/Graphics/SVG/1.1/DTD/svg11.dtd">
<!-- Generated by graphviz version 2.40.1 (0)
 -->
<!-- Title: %3 Pages: 1 -->
<svg width="777pt" height="260pt"
 viewBox="0.00 0.00 777.00 260.00" xmlns="http://www.w3.org/2000/svg" xmlns:xlink="http://www.w3.org/1999/xlink">
<g id="graph0" class="graph" transform="scale(1 1) rotate(0) translate(4 256)">
<title>%3</title>
<polygon fill="#ffffff" stroke="transparent" points="-4,4 -4,-256 772.9954,-256 772.9954,4 -4,4"/>
<!-- Constant -->
<g id="node1" class="node">
<title>Constant</title>
<g id="a_node1"><a xlink:href="http://emmo.info/emmo/middle/math#EMMO_ae15fb4f_8e4d_41de_a0f9_3997f89ba6a2" xlink:title="Constant">
<ellipse fill="#ffffcc" stroke="#000000" cx="554.9954" cy="-90" rx="53.0913" ry="18"/>
<text text-anchor="middle" x="554.9954" y="-86.3" font-family="Times,serif" font-size="14.00" fill="#000000">Constant</text>
</a>
</g>
</g>
<!-- Variable -->
<g id="node4" class="node">
<title>Variable</title>
<g id="a_node4"><a xlink:href="http://emmo.info/emmo/middle/math#EMMO_1eed0732_e3f1_4b2c_a9c4_b4e75eeb5895" xlink:title="Variable">
<ellipse fill="#ffffcc" stroke="#000000" cx="356.9954" cy="-162" rx="48.9926" ry="18"/>
<text text-anchor="middle" x="356.9954" y="-158.3" font-family="Times,serif" font-size="14.00" fill="#000000">Variable</text>
</a>
</g>
</g>
<!-- Constant&#45;&gt;Variable -->
<g id="edge2" class="edge">
<title>Constant&#45;&gt;Variable</title>
<path fill="none" stroke="#000000" d="M518.6791,-103.2059C485.6155,-115.229 436.7055,-133.0145 401.3436,-145.8734"/>
<polygon fill="none" stroke="#000000" points="399.9553,-142.6539 391.7535,-149.3607 402.3475,-149.2325 399.9553,-142.6539"/>
</g>
<!-- MaterialLaw -->
<g id="node2" class="node">
<title>MaterialLaw</title>
<g id="a_node2"><a xlink:href="http://emmo.info/emmo/middle/models#EMMO_f19ff3b4_6bfe_4c41_a2b2_9affd39c140b" xlink:title="MaterialLaw">
<ellipse fill="#ffffcc" stroke="#000000" cx="72.9954" cy="-18" rx="69.5877" ry="18"/>
<text text-anchor="middle" x="72.9954" y="-14.3" font-family="Times,serif" font-size="14.00" fill="#000000">MaterialLaw</text>
</a>
</g>
</g>
<!-- NaturalLaw -->
<g id="node9" class="node">
<title>NaturalLaw</title>
<g id="a_node9"><a xlink:href="http://emmo.info/emmo/middle/models#EMMO_db9a009e_f097_43f5_9520_6cbc07e7610b" xlink:title="NaturalLaw">
<ellipse fill="#ffffcc" stroke="#000000" cx="150.9954" cy="-90" rx="66.0889" ry="18"/>
<text text-anchor="middle" x="150.9954" y="-86.3" font-family="Times,serif" font-size="14.00" fill="#000000">NaturalLaw</text>
</a>
</g>
</g>
<!-- MaterialLaw&#45;&gt;NaturalLaw -->
<g id="edge6" class="edge">
<title>MaterialLaw&#45;&gt;NaturalLaw</title>
<path fill="none" stroke="#000000" d="M91.877,-35.4292C101.7453,-44.5384 113.9802,-55.8321 124.7548,-65.7779"/>
<polygon fill="none" stroke="#000000" points="122.5656,-68.5203 132.2876,-72.7313 127.3136,-63.3767 122.5656,-68.5203"/>
</g>
<!-- Unknown -->
<g id="node3" class="node">
<title>Unknown</title>
<g id="a_node3"><a xlink:href="http://emmo.info/emmo/middle/math#EMMO_fe7e56ce_118b_4243_9aad_20eb9f4f31f6" xlink:title="Unknown">
<ellipse fill="#ffffcc" stroke="#000000" cx="290.9954" cy="-90" rx="55.4913" ry="18"/>
<text text-anchor="middle" x="290.9954" y="-86.3" font-family="Times,serif" font-size="14.00" fill="#000000">Unknown</text>
</a>
</g>
</g>
<!-- Unknown&#45;&gt;Variable -->
<g id="edge8" class="edge">
<title>Unknown&#45;&gt;Variable</title>
<path fill="none" stroke="#000000" d="M306.9721,-107.4292C315.1601,-116.3615 325.2735,-127.3944 334.2594,-137.1971"/>
<polygon fill="none" stroke="#000000" points="331.8284,-139.7248 341.1658,-144.7313 336.9885,-134.9947 331.8284,-139.7248"/>
</g>
<!-- Conventional -->
<g id="node6" class="node">
<title>Conventional</title>
<g id="a_node6"><a xlink:href="http://emmo.info/emmo/top/semiotics#EMMO_35d2e130_6e01_41ed_94f7_00b333d46cf9" xlink:title="Conventional">
<ellipse fill="#ffffcc" stroke="#000000" stroke-width="2" cx="165.9954" cy="-234" rx="72.2875" ry="18"/>
<text text-anchor="middle" x="165.9954" y="-230.3" font-family="Times,serif" font-size="14.00" fill="#000000">Conventional</text>
</a>
</g>
</g>
<!-- Variable&#45;&gt;Conventional -->
<g id="edge9" class="edge">
<title>Variable&#45;&gt;Conventional</title>
<path fill="none" stroke="#000000" d="M322.8484,-174.8722C293.0618,-186.1006 249.4659,-202.5347 215.7911,-215.2288"/>
<polygon fill="none" stroke="#000000" points="214.2543,-212.0677 206.1316,-218.8701 216.7235,-218.6177 214.2543,-212.0677"/>
</g>
<!-- Parameter -->
<g id="node5" class="node">
<title>Parameter</title>
<g id="a_node5"><a xlink:href="http://emmo.info/emmo/middle/math#EMMO_d1d436e7_72fc_49cd_863b_7bfb4ba5276a" xlink:title="Parameter">
<ellipse fill="#ffffcc" stroke="#000000" cx="423.9954" cy="-90" rx="59.5901" ry="18"/>
<text text-anchor="middle" x="423.9954" y="-86.3" font-family="Times,serif" font-size="14.00" fill="#000000">Parameter</text>
</a>
</g>
</g>
<!-- Parameter&#45;&gt;Variable -->
<g id="edge1" class="edge">
<title>Parameter&#45;&gt;Variable</title>
<path fill="none" stroke="#000000" d="M407.7766,-107.4292C399.4645,-116.3615 389.1979,-127.3944 380.0759,-137.1971"/>
<polygon fill="none" stroke="#000000" points="377.3149,-135.0263 373.0649,-144.7313 382.4394,-139.7949 377.3149,-135.0263"/>
</g>
<!-- Property -->
<g id="node7" class="node">
<title>Property</title>
<g id="a_node7"><a xlink:href="http://emmo.info/emmo/middle/properties#EMMO_b7bcff25_ffc3_474e_9ab5_01b1664bd4ba" xlink:title="Property">
<ellipse fill="#ffffcc" stroke="#000000" stroke-width="2" cx="51.9954" cy="-162" rx="51.9908" ry="18"/>
<text text-anchor="middle" x="51.9954" y="-158.3" font-family="Times,serif" font-size="14.00" fill="#000000">Property</text>
</a>
</g>
</g>
<!-- Property&#45;&gt;Conventional -->
<g id="edge3" class="edge">
<title>Property&#45;&gt;Conventional</title>
<path fill="none" stroke="#000000" d="M77.0132,-177.8007C92.7526,-187.7414 113.3023,-200.7202 130.6877,-211.7004"/>
<polygon fill="none" stroke="#000000" points="129.1245,-214.8527 139.4484,-217.2335 132.8625,-208.9343 129.1245,-214.8527"/>
</g>
<!-- PhysicalLaw -->
<g id="node8" class="node">
<title>PhysicalLaw</title>
<g id="a_node8"><a xlink:href="http://emmo.info/emmo/middle/models#EMMO_9c32fd69_f480_4130_83b3_fb25d9face14" xlink:title="PhysicalLaw">
<ellipse fill="#ffffcc" stroke="#000000" cx="229.9954" cy="-18" rx="69.5877" ry="18"/>
<text text-anchor="middle" x="229.9954" y="-14.3" font-family="Times,serif" font-size="14.00" fill="#000000">PhysicalLaw</text>
</a>
</g>
</g>
<!-- PhysicalLaw&#45;&gt;NaturalLaw -->
<g id="edge7" class="edge">
<title>PhysicalLaw&#45;&gt;NaturalLaw</title>
<path fill="none" stroke="#000000" d="M210.8717,-35.4292C200.8769,-44.5384 188.4851,-55.8321 177.5724,-65.7779"/>
<polygon fill="none" stroke="#000000" points="174.9763,-63.4084 169.943,-72.7313 179.6915,-68.5821 174.9763,-63.4084"/>
</g>
<!-- Theory -->
<g id="node11" class="node">
<title>Theory</title>
<g id="a_node11"><a xlink:href="http://emmo.info/emmo/middle/models#EMMO_8d2d9374_ef3a_47e6_8595_6bc208e07519" xlink:title="Theory">
<ellipse fill="#ffffcc" stroke="#000000" cx="165.9954" cy="-162" rx="43.5923" ry="18"/>
<text text-anchor="middle" x="165.9954" y="-158.3" font-family="Times,serif" font-size="14.00" fill="#000000">Theory</text>
</a>
</g>
</g>
<!-- NaturalLaw&#45;&gt;Theory -->
<g id="edge5" class="edge">
<title>NaturalLaw&#45;&gt;Theory</title>
<path fill="none" stroke="#000000" d="M154.7805,-108.1686C156.3848,-115.869 158.2924,-125.0257 160.0753,-133.5834"/>
<polygon fill="none" stroke="#000000" points="156.6932,-134.5108 162.1593,-143.5867 163.5461,-133.0831 156.6932,-134.5108"/>
</g>
<!-- MetricPrefix -->
<g id="node10" class="node">
<title>MetricPrefix</title>
<g id="a_node10"><a xlink:href="http://emmo.info/emmo/middle/metrology#EMMO_7d2afa66_ae9e_4095_a9bf_421d0be401b6" xlink:title="MetricPrefix">
<ellipse fill="#ffffcc" stroke="#000000" stroke-width="2" cx="554.9954" cy="-18" rx="69.5877" ry="18"/>
<text text-anchor="middle" x="554.9954" y="-14.3" font-family="Times,serif" font-size="14.00" fill="#000000">MetricPrefix</text>
</a>
</g>
</g>
<!-- MetricPrefix&#45;&gt;Constant -->
<g id="edge4" class="edge">
<title>MetricPrefix&#45;&gt;Constant</title>
<path fill="none" stroke="#000000" d="M554.9954,-36.1686C554.9954,-43.869 554.9954,-53.0257 554.9954,-61.5834"/>
<polygon fill="none" stroke="#000000" points="551.4955,-61.5867 554.9954,-71.5867 558.4955,-61.5868 551.4955,-61.5867"/>
</g>
<!-- Theory&#45;&gt;Conventional -->
<g id="edge10" class="edge">
<title>Theory&#45;&gt;Conventional</title>
<path fill="none" stroke="#000000" d="M165.9954,-180.1686C165.9954,-187.869 165.9954,-197.0257 165.9954,-205.5834"/>
<polygon fill="none" stroke="#000000" points="162.4955,-205.5867 165.9954,-215.5867 169.4955,-205.5868 162.4955,-205.5867"/>
</g>
<!-- key1 -->
<g id="node12" class="node">
<title>key1</title>
<text text-anchor="start" x="658.9954" y="-13.8" font-family="Times,serif" font-size="14.00" fill="#000000">isA</text>
</g>
<!-- key2 -->
<g id="node13" class="node">
<title>key2</title>
<text text-anchor="start" x="739.9954" y="-13.8" font-family="Times,serif" font-size="14.00" fill="#000000"> </text>
</g>
<!-- key1&#45;&gt;key2 -->
<g id="edge11" class="edge">
<title>key1:e&#45;&gt;key2:w</title>
<path fill="none" stroke="#000000" d="M683.9954,-19C704.2454,-19 711.6809,-19 727.9264,-19"/>
<polygon fill="none" stroke="#000000" points="727.9954,-22.5001 737.9954,-19 727.9954,-15.5001 727.9954,-22.5001"/>
</g>
</g>
</svg>
