<?xml version="1.0" encoding="UTF-8" standalone="no"?>
<!DOCTYPE svg PUBLIC "-//W3C//DTD SVG 1.1//EN"
 "http://www.w3.org/Graphics/SVG/1.1/DTD/svg11.dtd">
<!-- Generated by graphviz version 2.40.1 (0)
 -->
<!-- Title: %3 Pages: 1 -->
<svg width="1084pt" height="1232pt"
 viewBox="0.00 0.00 1084.41 1232.00" xmlns="http://www.w3.org/2000/svg" xmlns:xlink="http://www.w3.org/1999/xlink">
<g id="graph0" class="graph" transform="scale(1 1) rotate(0) translate(4 1228)">
<title>%3</title>
<polygon fill="#ffffff" stroke="transparent" points="-4,4 -4,-1228 1080.4141,-1228 1080.4141,4 -4,4"/>
<!-- SolidAngle -->
<g id="node1" class="node">
<title>SolidAngle</title>
<g id="a_node1"><a xlink:href="http://emmo.info/emmo/middle/isq#EMMO_e7c9f7fd_e534_4441_88fe_1fec6cb20f26" xlink:title="SolidAngle">
<ellipse fill="#ffffcc" stroke="#000000" cx="572.4556" cy="-1152" rx="61.1893" ry="18"/>
<text text-anchor="middle" x="572.4556" y="-1148.3" font-family="Times,serif" font-size="14.00" fill="#000000">SolidAngle</text>
</a>
</g>
</g>
<!-- ISQDerivedQuantity -->
<g id="node3" class="node">
<title>ISQDerivedQuantity</title>
<g id="a_node3"><a xlink:href="http://emmo.info/emmo/middle/isq#EMMO_2946d40b_24a1_47fa_8176_e3f79bb45064" xlink:title="ISQDerivedQuantity">
<ellipse fill="#ffffcc" stroke="#000000" cx="319.3749" cy="-585" rx="106.6812" ry="18"/>
<text text-anchor="middle" x="319.3749" y="-581.3" font-family="Times,serif" font-size="14.00" fill="#000000">ISQDerivedQuantity</text>
</a>
</g>
</g>
<!-- SolidAngle&#45;&gt;ISQDerivedQuantity -->
<g id="edge10" class="edge">
<title>SolidAngle&#45;&gt;ISQDerivedQuantity</title>
<path fill="none" stroke="#000000" d="M512.2041,-1148.9885C494.0194,-1145.2479 475.3524,-1138.1417 461.9654,-1125 386.7748,-1051.1874 336.4831,-713.5149 323.0055,-613.1879"/>
<polygon fill="none" stroke="#000000" points="326.464,-612.6435 321.6794,-603.1905 319.5248,-613.5639 326.464,-612.6435"/>
</g>
<!-- ElectricConductance -->
<g id="node2" class="node">
<title>ElectricConductance</title>
<g id="a_node2"><a xlink:href="http://emmo.info/emmo/middle/isq#EMMO_ffb73b1e_5786_43e4_a964_cb32ac7affb7" xlink:title="ElectricConductance">
<ellipse fill="#ffffcc" stroke="#000000" cx="572.4556" cy="-1098" rx="109.381" ry="18"/>
<text text-anchor="middle" x="572.4556" y="-1094.3" font-family="Times,serif" font-size="14.00" fill="#000000">ElectricConductance</text>
</a>
</g>
</g>
<!-- ElectricConductance&#45;&gt;ISQDerivedQuantity -->
<g id="edge11" class="edge">
<title>ElectricConductance&#45;&gt;ISQDerivedQuantity</title>
<path fill="none" stroke="#000000" d="M486.5574,-1086.8178C477.4989,-1082.9022 469.0333,-1077.7519 461.9654,-1071 393.5493,-1005.6424 339.3937,-706.7189 323.8714,-613.1108"/>
<polygon fill="none" stroke="#000000" points="327.3229,-612.5295 322.2503,-603.228 320.4152,-613.6627 327.3229,-612.5295"/>
</g>
<!-- DerivedQuantity -->
<g id="node6" class="node">
<title>DerivedQuantity</title>
<g id="a_node6"><a xlink:href="http://emmo.info/emmo/middle/metrology#EMMO_71f6ab56_342c_484b_bbe0_de86b7367cb3" xlink:title="DerivedQuantity">
<ellipse fill="#ffffcc" stroke="#000000" stroke-width="2" cx="88.3922" cy="-585" rx="88.2844" ry="18"/>
<text text-anchor="middle" x="88.3922" y="-581.3" font-family="Times,serif" font-size="14.00" fill="#000000">DerivedQuantity</text>
</a>
</g>
</g>
<!-- ISQDerivedQuantity&#45;&gt;DerivedQuantity -->
<g id="edge20" class="edge">
<title>ISQDerivedQuantity&#45;&gt;DerivedQuantity</title>
<path fill="none" stroke="#000000" d="M212.6731,-585C204.1854,-585 195.6339,-585 187.2036,-585"/>
<polygon fill="none" stroke="#000000" points="186.993,-581.5001 176.993,-585 186.9929,-588.5001 186.993,-581.5001"/>
</g>
<!-- ElementaryCharge -->
<g id="node4" class="node">
<title>ElementaryCharge</title>
<g id="a_node4"><a xlink:href="http://emmo.info/emmo/middle/siunits#EMMO_58a650f0_a638_4743_8439_535a325e5c4c" xlink:title="ElementaryCharge">
<ellipse fill="#ffffcc" stroke="#000000" cx="897.6799" cy="-234" rx="98.5829" ry="18"/>
<text text-anchor="middle" x="897.6799" y="-230.3" font-family="Times,serif" font-size="14.00" fill="#000000">ElementaryCharge</text>
</a>
</g>
</g>
<!-- ElectricCharge -->
<g id="node22" class="node">
<title>ElectricCharge</title>
<g id="a_node22"><a xlink:href="http://emmo.info/emmo/middle/isq#EMMO_1604f495_328a_4f28_9962_f4cc210739dd" xlink:title="ElectricCharge">
<ellipse fill="#ffffcc" stroke="#000000" cx="572.4556" cy="-234" rx="81.7856" ry="18"/>
<text text-anchor="middle" x="572.4556" y="-230.3" font-family="Times,serif" font-size="14.00" fill="#000000">ElectricCharge</text>
</a>
</g>
</g>
<!-- ElementaryCharge&#45;&gt;ElectricCharge -->
<g id="edge17" class="edge">
<title>ElementaryCharge&#45;&gt;ElectricCharge</title>
<path fill="none" stroke="#000000" d="M798.7773,-234C756.1339,-234 706.5473,-234 664.6764,-234"/>
<polygon fill="none" stroke="#000000" points="664.4849,-230.5001 654.4849,-234 664.4848,-237.5001 664.4849,-230.5001"/>
</g>
<!-- DoseEquivalent -->
<g id="node5" class="node">
<title>DoseEquivalent</title>
<g id="a_node5"><a xlink:href="http://emmo.info/emmo/middle/isq#EMMO_3df10765_f6ff_4c9e_be3d_10b1809d78bd" xlink:title="DoseEquivalent">
<ellipse fill="#ffffcc" stroke="#000000" cx="572.4556" cy="-1044" rx="83.6854" ry="18"/>
<text text-anchor="middle" x="572.4556" y="-1040.3" font-family="Times,serif" font-size="14.00" fill="#000000">DoseEquivalent</text>
</a>
</g>
</g>
<!-- DoseEquivalent&#45;&gt;ISQDerivedQuantity -->
<g id="edge14" class="edge">
<title>DoseEquivalent&#45;&gt;ISQDerivedQuantity</title>
<path fill="none" stroke="#000000" d="M496.5993,-1036.2605C483.8829,-1032.1057 471.6834,-1025.9778 461.9654,-1017 400.2886,-960.021 342.6976,-699.6656 324.9548,-613.0879"/>
<polygon fill="none" stroke="#000000" points="328.3649,-612.2927 322.9453,-603.1889 321.5048,-613.6854 328.3649,-612.2927"/>
</g>
<!-- Capacitance -->
<g id="node7" class="node">
<title>Capacitance</title>
<g id="a_node7"><a xlink:href="http://emmo.info/emmo/middle/isq#EMMO_99dba333_0dbd_4f75_8841_8c0f97fd58e2" xlink:title="Capacitance">
<ellipse fill="#ffffcc" stroke="#000000" cx="572.4556" cy="-990" rx="68.7879" ry="18"/>
<text text-anchor="middle" x="572.4556" y="-986.3" font-family="Times,serif" font-size="14.00" fill="#000000">Capacitance</text>
</a>
</g>
</g>
<!-- Capacitance&#45;&gt;ISQDerivedQuantity -->
<g id="edge13" class="edge">
<title>Capacitance&#45;&gt;ISQDerivedQuantity</title>
<path fill="none" stroke="#000000" d="M506.3746,-984.6352C490.3544,-980.6058 474.3084,-973.9326 461.9654,-963 354.8125,-868.0918 327.884,-684.2776 321.3687,-613.6244"/>
<polygon fill="none" stroke="#000000" points="324.8245,-612.9548 320.4891,-603.2876 317.8497,-613.5483 324.8245,-612.9548"/>
</g>
<!-- LuminousFlux -->
<g id="node8" class="node">
<title>LuminousFlux</title>
<g id="a_node8"><a xlink:href="http://emmo.info/emmo/middle/isq#EMMO_e2ee1c98_497a_4f66_b4ed_5711496a848e" xlink:title="LuminousFlux">
<ellipse fill="#ffffcc" stroke="#000000" cx="572.4556" cy="-936" rx="77.1866" ry="18"/>
<text text-anchor="middle" x="572.4556" y="-932.3" font-family="Times,serif" font-size="14.00" fill="#000000">LuminousFlux</text>
</a>
</g>
</g>
<!-- LuminousFlux&#45;&gt;ISQDerivedQuantity -->
<g id="edge18" class="edge">
<title>LuminousFlux&#45;&gt;ISQDerivedQuantity</title>
<path fill="none" stroke="#000000" d="M501.5883,-928.7856C487.3052,-924.6922 473.2367,-918.4541 461.9654,-909 367.6023,-829.8508 333.5967,-676.0653 323.2774,-613.0049"/>
<polygon fill="none" stroke="#000000" points="326.7168,-612.3445 321.7172,-603.0035 319.8004,-613.4235 326.7168,-612.3445"/>
</g>
<!-- MagneticFlux -->
<g id="node9" class="node">
<title>MagneticFlux</title>
<g id="a_node9"><a xlink:href="http://emmo.info/emmo/middle/isq#EMMO_3b931698_937e_49be_ab1b_36fa52d91181" xlink:title="MagneticFlux">
<ellipse fill="#ffffcc" stroke="#000000" cx="572.4556" cy="-882" rx="75.2868" ry="18"/>
<text text-anchor="middle" x="572.4556" y="-878.3" font-family="Times,serif" font-size="14.00" fill="#000000">MagneticFlux</text>
</a>
</g>
</g>
<!-- MagneticFlux&#45;&gt;ISQDerivedQuantity -->
<g id="edge21" class="edge">
<title>MagneticFlux&#45;&gt;ISQDerivedQuantity</title>
<path fill="none" stroke="#000000" d="M503.5268,-874.5723C488.7293,-870.518 473.9558,-864.3499 461.9654,-855 380.4758,-791.4559 340.4107,-668.1296 325.9338,-612.9111"/>
<polygon fill="none" stroke="#000000" points="329.3009,-611.95 323.4493,-603.1177 322.5158,-613.6713 329.3009,-611.95"/>
</g>
<!-- MagneticFluxDensity -->
<g id="node10" class="node">
<title>MagneticFluxDensity</title>
<g id="a_node10"><a xlink:href="http://emmo.info/emmo/middle/isq#EMMO_961d1aba_f75e_4411_aaa4_457f7516ed6b" xlink:title="MagneticFluxDensity">
<ellipse fill="#ffffcc" stroke="#000000" cx="572.4556" cy="-828" rx="110.4804" ry="18"/>
<text text-anchor="middle" x="572.4556" y="-824.3" font-family="Times,serif" font-size="14.00" fill="#000000">MagneticFluxDensity</text>
</a>
</g>
</g>
<!-- MagneticFluxDensity&#45;&gt;ISQDerivedQuantity -->
<g id="edge1" class="edge">
<title>MagneticFluxDensity&#45;&gt;ISQDerivedQuantity</title>
<path fill="none" stroke="#000000" d="M491.2111,-815.6661C480.8253,-811.9776 470.7648,-807.196 461.9654,-801 392.9952,-752.4355 348.5014,-658.9456 329.6744,-612.5329"/>
<polygon fill="none" stroke="#000000" points="332.8804,-611.1225 325.9451,-603.113 326.3719,-613.6992 332.8804,-611.1225"/>
</g>
<!-- Angle -->
<g id="node11" class="node">
<title>Angle</title>
<g id="a_node11"><a xlink:href="http://emmo.info/emmo/middle/isq#EMMO_f3dd74c0_f480_49e8_9764_33b78638c235" xlink:title="Angle">
<ellipse fill="#ffffcc" stroke="#000000" cx="572.4556" cy="-774" rx="37.8943" ry="18"/>
<text text-anchor="middle" x="572.4556" y="-770.3" font-family="Times,serif" font-size="14.00" fill="#000000">Angle</text>
</a>
</g>
</g>
<!-- Angle&#45;&gt;ISQDerivedQuantity -->
<g id="edge23" class="edge">
<title>Angle&#45;&gt;ISQDerivedQuantity</title>
<path fill="none" stroke="#000000" d="M535.2375,-770.5951C512.7256,-767.2038 484.1792,-760.4474 461.9654,-747 405.085,-712.5668 358.5445,-648.0255 335.3416,-611.6647"/>
<polygon fill="none" stroke="#000000" points="338.2281,-609.6796 329.9533,-603.0631 332.2959,-613.3957 338.2281,-609.6796"/>
</g>
<!-- HyperfineTransitionFrequencyOfCs -->
<g id="node12" class="node">
<title>HyperfineTransitionFrequencyOfCs</title>
<g id="a_node12"><a xlink:href="http://emmo.info/emmo/middle/siunits#EMMO_f96feb3f_4438_4e43_aa44_7458c4d87fc2" xlink:title="HyperfineTransitionFrequencyOfCs">
<ellipse fill="#ffffcc" stroke="#000000" cx="897.6799" cy="-558" rx="178.9686" ry="18"/>
<text text-anchor="middle" x="897.6799" y="-554.3" font-family="Times,serif" font-size="14.00" fill="#000000">HyperfineTransitionFrequencyOfCs</text>
</a>
</g>
</g>
<!-- Frequency -->
<g id="node16" class="node">
<title>Frequency</title>
<g id="a_node16"><a xlink:href="http://emmo.info/emmo/middle/isq#EMMO_852b4ab8_fc29_4749_a8c7_b92d4fca7d5a" xlink:title="Frequency">
<ellipse fill="#ffffcc" stroke="#000000" cx="572.4556" cy="-558" rx="60.3893" ry="18"/>
<text text-anchor="middle" x="572.4556" y="-554.3" font-family="Times,serif" font-size="14.00" fill="#000000">Frequency</text>
</a>
</g>
</g>
<!-- HyperfineTransitionFrequencyOfCs&#45;&gt;Frequency -->
<g id="edge4" class="edge">
<title>HyperfineTransitionFrequencyOfCs&#45;&gt;Frequency</title>
<path fill="none" stroke="#000000" d="M718.8939,-558C692.1422,-558 665.9802,-558 643.3426,-558"/>
<polygon fill="none" stroke="#000000" points="643.2002,-554.5001 633.2001,-558 643.2001,-561.5001 643.2002,-554.5001"/>
</g>
<!-- AbsorbedDose -->
<g id="node13" class="node">
<title>AbsorbedDose</title>
<g id="a_node13"><a xlink:href="http://emmo.info/emmo/middle/isq#EMMO_8e5dd473_808b_4a8a_b7cd_63068c12ff57" xlink:title="AbsorbedDose">
<ellipse fill="#ffffcc" stroke="#000000" cx="572.4556" cy="-720" rx="77.9862" ry="18"/>
<text text-anchor="middle" x="572.4556" y="-716.3" font-family="Times,serif" font-size="14.00" fill="#000000">AbsorbedDose</text>
</a>
</g>
</g>
<!-- AbsorbedDose&#45;&gt;ISQDerivedQuantity -->
<g id="edge6" class="edge">
<title>AbsorbedDose&#45;&gt;ISQDerivedQuantity</title>
<path fill="none" stroke="#000000" d="M509.5556,-709.3187C493.5844,-705.3526 476.7664,-700.0396 461.9654,-693 416.7868,-671.5124 372.0026,-634.3003 345.0073,-609.6632"/>
<polygon fill="none" stroke="#000000" points="347.2665,-606.9852 337.5497,-602.7621 342.5121,-612.1229 347.2665,-606.9852"/>
</g>
<!-- CelsiusTemperature -->
<g id="node14" class="node">
<title>CelsiusTemperature</title>
<g id="a_node14"><a xlink:href="http://emmo.info/emmo/middle/isq#EMMO_66bc9029_f473_45ff_bab9_c3509ff37a22" xlink:title="CelsiusTemperature">
<ellipse fill="#ffffcc" stroke="#000000" cx="572.4556" cy="-666" rx="105.0817" ry="18"/>
<text text-anchor="middle" x="572.4556" y="-662.3" font-family="Times,serif" font-size="14.00" fill="#000000">CelsiusTemperature</text>
</a>
</g>
</g>
<!-- CelsiusTemperature&#45;&gt;ISQDerivedQuantity -->
<g id="edge22" class="edge">
<title>CelsiusTemperature&#45;&gt;ISQDerivedQuantity</title>
<path fill="none" stroke="#000000" d="M508.1139,-651.6841C492.885,-647.9085 476.7704,-643.5934 461.9654,-639 430.5296,-629.2467 395.9926,-616.2289 368.7829,-605.4185"/>
<polygon fill="none" stroke="#000000" points="370.0657,-602.1621 359.4811,-601.6958 367.4647,-608.6609 370.0657,-602.1621"/>
</g>
<!-- Radioactivity -->
<g id="node15" class="node">
<title>Radioactivity</title>
<g id="a_node15"><a xlink:href="http://emmo.info/emmo/middle/isq#EMMO_8d3da9ac_2265_4382_bee5_db72046722f8" xlink:title="Radioactivity">
<ellipse fill="#ffffcc" stroke="#000000" cx="572.4556" cy="-612" rx="72.2875" ry="18"/>
<text text-anchor="middle" x="572.4556" y="-608.3" font-family="Times,serif" font-size="14.00" fill="#000000">Radioactivity</text>
</a>
</g>
</g>
<!-- Radioactivity&#45;&gt;ISQDerivedQuantity -->
<g id="edge5" class="edge">
<title>Radioactivity&#45;&gt;ISQDerivedQuantity</title>
<path fill="none" stroke="#000000" d="M505.9616,-604.9061C479.6294,-602.0968 448.7812,-598.8058 419.836,-595.7177"/>
<polygon fill="none" stroke="#000000" points="420.0026,-592.2157 409.6877,-594.6351 419.26,-599.1762 420.0026,-592.2157"/>
</g>
<!-- Frequency&#45;&gt;ISQDerivedQuantity -->
<g id="edge19" class="edge">
<title>Frequency&#45;&gt;ISQDerivedQuantity</title>
<path fill="none" stroke="#000000" d="M515.3438,-564.093C487.07,-567.1094 452.0984,-570.8403 419.5597,-574.3117"/>
<polygon fill="none" stroke="#000000" points="419.122,-570.8385 409.5497,-575.3797 419.8646,-577.799 419.122,-570.8385"/>
</g>
<!-- Energy -->
<g id="node17" class="node">
<title>Energy</title>
<g id="a_node17"><a xlink:href="http://emmo.info/emmo/middle/isq#EMMO_31ec09ba_1713_42cb_83c7_b38bf6f9ced2" xlink:title="Energy">
<ellipse fill="#ffffcc" stroke="#000000" cx="572.4556" cy="-504" rx="44.393" ry="18"/>
<text text-anchor="middle" x="572.4556" y="-500.3" font-family="Times,serif" font-size="14.00" fill="#000000">Energy</text>
</a>
</g>
</g>
<!-- Energy&#45;&gt;ISQDerivedQuantity -->
<g id="edge9" class="edge">
<title>Energy&#45;&gt;ISQDerivedQuantity</title>
<path fill="none" stroke="#000000" d="M533.2748,-512.3453C512.0056,-517.1827 485.3516,-523.7442 461.9654,-531 430.5296,-540.7533 395.9926,-553.7711 368.7829,-564.5815"/>
<polygon fill="none" stroke="#000000" points="367.4647,-561.3391 359.4811,-568.3042 370.0657,-567.8379 367.4647,-561.3391"/>
</g>
<!-- ElectricResistance -->
<g id="node18" class="node">
<title>ElectricResistance</title>
<g id="a_node18"><a xlink:href="http://emmo.info/emmo/middle/isq#EMMO_e88f75d6_9a17_4cfc_bdf7_43d7cea5a9a1" xlink:title="ElectricResistance">
<ellipse fill="#ffffcc" stroke="#000000" cx="572.4556" cy="-450" rx="98.5829" ry="18"/>
<text text-anchor="middle" x="572.4556" y="-446.3" font-family="Times,serif" font-size="14.00" fill="#000000">ElectricResistance</text>
</a>
</g>
</g>
<!-- ElectricResistance&#45;&gt;ISQDerivedQuantity -->
<g id="edge25" class="edge">
<title>ElectricResistance&#45;&gt;ISQDerivedQuantity</title>
<path fill="none" stroke="#000000" d="M501.9997,-462.6455C488.3656,-466.3541 474.4482,-471.063 461.9654,-477 416.7868,-498.4876 372.0026,-535.6997 345.0073,-560.3368"/>
<polygon fill="none" stroke="#000000" points="342.5121,-557.8771 337.5497,-567.2379 347.2665,-563.0148 342.5121,-557.8771"/>
</g>
<!-- Force -->
<g id="node19" class="node">
<title>Force</title>
<g id="a_node19"><a xlink:href="http://emmo.info/emmo/middle/isq#EMMO_1f087811_06cb_42d5_90fb_25d0e7e068ef" xlink:title="Force">
<ellipse fill="#ffffcc" stroke="#000000" cx="572.4556" cy="-396" rx="37.0935" ry="18"/>
<text text-anchor="middle" x="572.4556" y="-392.3" font-family="Times,serif" font-size="14.00" fill="#000000">Force</text>
</a>
</g>
</g>
<!-- Force&#45;&gt;ISQDerivedQuantity -->
<g id="edge16" class="edge">
<title>Force&#45;&gt;ISQDerivedQuantity</title>
<path fill="none" stroke="#000000" d="M536.0055,-399.2902C513.3777,-402.6429 484.4326,-409.3992 461.9654,-423 405.085,-457.4332 358.5445,-521.9745 335.3416,-558.3353"/>
<polygon fill="none" stroke="#000000" points="332.2959,-556.6043 329.9533,-566.9369 338.2281,-560.3204 332.2959,-556.6043"/>
</g>
<!-- Pressure -->
<g id="node20" class="node">
<title>Pressure</title>
<g id="a_node20"><a xlink:href="http://emmo.info/emmo/middle/isq#EMMO_50a44256_9dc5_434b_bad4_74a4d9a29989" xlink:title="Pressure">
<ellipse fill="#ffffcc" stroke="#000000" cx="572.4556" cy="-342" rx="51.9908" ry="18"/>
<text text-anchor="middle" x="572.4556" y="-338.3" font-family="Times,serif" font-size="14.00" fill="#000000">Pressure</text>
</a>
</g>
</g>
<!-- Pressure&#45;&gt;ISQDerivedQuantity -->
<g id="edge24" class="edge">
<title>Pressure&#45;&gt;ISQDerivedQuantity</title>
<path fill="none" stroke="#000000" d="M521.852,-346.327C501.7923,-349.9978 479.4028,-356.7217 461.9654,-369 392.9952,-417.5645 348.5014,-511.0544 329.6744,-557.4671"/>
<polygon fill="none" stroke="#000000" points="326.3719,-556.3008 325.9451,-566.887 332.8804,-558.8775 326.3719,-556.3008"/>
</g>
<!-- CatalyticActivity -->
<g id="node21" class="node">
<title>CatalyticActivity</title>
<g id="a_node21"><a xlink:href="http://emmo.info/emmo/middle/isq#EMMO_bd67d149_24c2_4bc9_833a_c2bc26f98fd3" xlink:title="CatalyticActivity">
<ellipse fill="#ffffcc" stroke="#000000" cx="572.4556" cy="-288" rx="89.8845" ry="18"/>
<text text-anchor="middle" x="572.4556" y="-284.3" font-family="Times,serif" font-size="14.00" fill="#000000">CatalyticActivity</text>
</a>
</g>
</g>
<!-- CatalyticActivity&#45;&gt;ISQDerivedQuantity -->
<g id="edge8" class="edge">
<title>CatalyticActivity&#45;&gt;ISQDerivedQuantity</title>
<path fill="none" stroke="#000000" d="M496.3339,-297.5739C484.006,-301.5685 472.0093,-307.1679 461.9654,-315 380.4758,-378.5441 340.4107,-501.8704 325.9338,-557.0889"/>
<polygon fill="none" stroke="#000000" points="322.5158,-556.3287 323.4493,-566.8823 329.3009,-558.05 322.5158,-556.3287"/>
</g>
<!-- ElectricCharge&#45;&gt;ISQDerivedQuantity -->
<g id="edge12" class="edge">
<title>ElectricCharge&#45;&gt;ISQDerivedQuantity</title>
<path fill="none" stroke="#000000" d="M499.003,-241.9799C485.6159,-246.0731 472.5559,-252.117 461.9654,-261 367.6023,-340.1492 333.5967,-493.9347 323.2774,-556.9951"/>
<polygon fill="none" stroke="#000000" points="319.8004,-556.5765 321.7172,-566.9965 326.7168,-557.6555 319.8004,-556.5765"/>
</g>
<!-- Illuminance -->
<g id="node23" class="node">
<title>Illuminance</title>
<g id="a_node23"><a xlink:href="http://emmo.info/emmo/middle/isq#EMMO_b51fbd00_a857_4132_9711_0ef70e7bdd20" xlink:title="Illuminance">
<ellipse fill="#ffffcc" stroke="#000000" cx="572.4556" cy="-180" rx="65.7887" ry="18"/>
<text text-anchor="middle" x="572.4556" y="-176.3" font-family="Times,serif" font-size="14.00" fill="#000000">Illuminance</text>
</a>
</g>
</g>
<!-- Illuminance&#45;&gt;ISQDerivedQuantity -->
<g id="edge7" class="edge">
<title>Illuminance&#45;&gt;ISQDerivedQuantity</title>
<path fill="none" stroke="#000000" d="M508.9639,-184.7361C492.0947,-188.6873 474.9736,-195.4783 461.9654,-207 354.8125,-301.9082 327.884,-485.7224 321.3687,-556.3756"/>
<polygon fill="none" stroke="#000000" points="317.8497,-556.4517 320.4891,-566.7124 324.8245,-557.0452 317.8497,-556.4517"/>
</g>
<!-- ElectricPotential -->
<g id="node24" class="node">
<title>ElectricPotential</title>
<g id="a_node24"><a xlink:href="http://emmo.info/emmo/middle/isq#EMMO_4f2d3939_91b1_4001_b8ab_7d19074bf845" xlink:title="ElectricPotential">
<ellipse fill="#ffffcc" stroke="#000000" cx="572.4556" cy="-126" rx="89.0842" ry="18"/>
<text text-anchor="middle" x="572.4556" y="-122.3" font-family="Times,serif" font-size="14.00" fill="#000000">ElectricPotential</text>
</a>
</g>
</g>
<!-- ElectricPotential&#45;&gt;ISQDerivedQuantity -->
<g id="edge2" class="edge">
<title>ElectricPotential&#45;&gt;ISQDerivedQuantity</title>
<path fill="none" stroke="#000000" d="M494.0446,-134.6036C482.2554,-138.7303 471.0307,-144.6252 461.9654,-153 400.2886,-209.979 342.6976,-470.3344 324.9548,-556.9121"/>
<polygon fill="none" stroke="#000000" points="321.5048,-556.3146 322.9453,-566.8111 328.3649,-557.7073 321.5048,-556.3146"/>
</g>
<!-- Power -->
<g id="node25" class="node">
<title>Power</title>
<g id="a_node25"><a xlink:href="http://emmo.info/emmo/middle/isq#EMMO_09b9021b_f97b_43eb_b83d_0a764b472bc2" xlink:title="Power">
<ellipse fill="#ffffcc" stroke="#000000" cx="572.4556" cy="-72" rx="39.7935" ry="18"/>
<text text-anchor="middle" x="572.4556" y="-68.3" font-family="Times,serif" font-size="14.00" fill="#000000">Power</text>
</a>
</g>
</g>
<!-- Power&#45;&gt;ISQDerivedQuantity -->
<g id="edge3" class="edge">
<title>Power&#45;&gt;ISQDerivedQuantity</title>
<path fill="none" stroke="#000000" d="M532.7985,-72.2194C509.3821,-74.4293 480.7417,-81.0631 461.9654,-99 393.5493,-164.3576 339.3937,-463.2811 323.8714,-556.8892"/>
<polygon fill="none" stroke="#000000" points="320.4152,-556.3373 322.2503,-566.772 327.3229,-557.4705 320.4152,-556.3373"/>
</g>
<!-- Inductance -->
<g id="node26" class="node">
<title>Inductance</title>
<g id="a_node26"><a xlink:href="http://emmo.info/emmo/middle/isq#EMMO_04cc9451_5306_45d0_8554_22cee4d6e785" xlink:title="Inductance">
<ellipse fill="#ffffcc" stroke="#000000" cx="572.4556" cy="-18" rx="63.8893" ry="18"/>
<text text-anchor="middle" x="572.4556" y="-14.3" font-family="Times,serif" font-size="14.00" fill="#000000">Inductance</text>
</a>
</g>
</g>
<!-- Inductance&#45;&gt;ISQDerivedQuantity -->
<g id="edge15" class="edge">
<title>Inductance&#45;&gt;ISQDerivedQuantity</title>
<path fill="none" stroke="#000000" d="M509.905,-21.5021C492.4568,-25.3612 474.7887,-32.4117 461.9654,-45 386.7748,-118.8126 336.4831,-456.4851 323.0055,-556.8121"/>
<polygon fill="none" stroke="#000000" points="319.5248,-556.4361 321.6794,-566.8095 326.464,-557.3565 319.5248,-556.4361"/>
</g>
<!-- key1 -->
<g id="node27" class="node">
<title>key1</title>
<text text-anchor="start" x="561.4556" y="-1201.8" font-family="Times,serif" font-size="14.00" fill="#000000">isA</text>
</g>
<!-- key2 -->
<g id="node28" class="node">
<title>key2</title>
<text text-anchor="start" x="895.6799" y="-1201.8" font-family="Times,serif" font-size="14.00" fill="#000000"> </text>
</g>
<!-- key2&#45;&gt;key1 -->
<g id="edge26" class="edge">
<title>key2:w&#45;&gt;key1:e</title>
<path fill="none" stroke="#000000" d="M893.6799,-1205C760.6027,-1205 724.7992,-1205 596.6617,-1205"/>
<polygon fill="none" stroke="#000000" points="596.4556,-1201.5001 586.4556,-1205 596.4556,-1208.5001 596.4556,-1201.5001"/>
</g>
</g>
</svg>
