<?xml version="1.0" encoding="UTF-8" standalone="no"?>
<!DOCTYPE svg PUBLIC "-//W3C//DTD SVG 1.1//EN"
 "http://www.w3.org/Graphics/SVG/1.1/DTD/svg11.dtd">
<!-- Generated by graphviz version 2.40.1 (0)
 -->
<!-- Title: %3 Pages: 1 -->
<svg width="443pt" height="126pt"
 viewBox="0.00 0.00 442.74 126.00" xmlns="http://www.w3.org/2000/svg" xmlns:xlink="http://www.w3.org/1999/xlink">
<g id="graph0" class="graph" transform="scale(1 1) rotate(0) translate(4 122)">
<title>%3</title>
<polygon fill="#ffffff" stroke="transparent" points="-4,4 -4,-122 438.7411,-122 438.7411,4 -4,4"/>
<!-- Elementary -->
<g id="node1" class="node">
<title>Elementary</title>
<g id="a_node1"><a xlink:href="http://emmo.info/emmo/top/physical#EMMO_0f795e3e_c602_4577_9a43_d5a231aa1360" xlink:title="Elementary">
<ellipse fill="#ffffcc" stroke="#000000" stroke-width="2" cx="100.7411" cy="-100" rx="64.9885" ry="18"/>
<text text-anchor="middle" x="100.7411" y="-96.3" font-family="Times,serif" font-size="14.00" fill="#000000">Elementary</text>
</a>
</g>
</g>
<!-- Elementary&#45;&gt;Elementary -->
<g id="edge2" class="edge">
<title>Elementary&#45;&gt;Elementary</title>
<path fill="none" stroke="#ff00ff" d="M143.017,-86.2101C164.4853,-84.1963 183.7353,-88.793 183.7353,-100 183.7353,-109.3684 170.2836,-114.1175 153.3291,-114.2473"/>
<polygon fill="#ff00ff" stroke="#ff00ff" points="153.1623,-110.7365 143.017,-113.7899 152.8521,-117.7296 153.1623,-110.7365"/>
</g>
<!-- ElementaryParticle -->
<g id="node2" class="node">
<title>ElementaryParticle</title>
<g id="a_node2"><a xlink:href="http://emmo.info/emmo/middle/physicalistic#EMMO_c26a0340_d619_4928_b1a1_1a04e88bb89d" xlink:title="ElementaryParticle">
<ellipse fill="#ffffcc" stroke="#000000" stroke-width="2" cx="100.7411" cy="-23" rx="100.9827" ry="18"/>
<text text-anchor="middle" x="100.7411" y="-19.3" font-family="Times,serif" font-size="14.00" fill="#000000">ElementaryParticle</text>
</a>
</g>
</g>
<!-- ElementaryParticle&#45;&gt;Elementary -->
<g id="edge1" class="edge">
<title>ElementaryParticle&#45;&gt;Elementary</title>
<path fill="none" stroke="#000000" d="M100.7411,-41.2479C100.7411,-50.3578 100.7411,-61.5826 100.7411,-71.7718"/>
<polygon fill="none" stroke="#000000" points="97.2412,-71.883 100.7411,-81.8831 104.2412,-71.8831 97.2412,-71.883"/>
</g>
<!-- key1 -->
<g id="node3" class="node">
<title>key1</title>
<text text-anchor="start" x="329.7411" y="-28.8" font-family="Times,serif" font-size="14.00" fill="#000000">isA</text>
<text text-anchor="start" x="229.7411" y="-9.8" font-family="Times,serif" font-size="14.00" fill="#000000">hasTemporalPart</text>
</g>
<!-- key2 -->
<g id="node4" class="node">
<title>key2</title>
<text text-anchor="start" x="405.7411" y="-28.8" font-family="Times,serif" font-size="14.00" fill="#000000"> </text>
<text text-anchor="start" x="405.7411" y="-9.8" font-family="Times,serif" font-size="14.00" fill="#000000"> </text>
</g>
<!-- key1&#45;&gt;key2 -->
<g id="edge3" class="edge">
<title>key1:e&#45;&gt;key2:w</title>
<path fill="none" stroke="#ff00ff" d="M354.7411,-13C372.6056,-13 379.4793,-13 393.394,-13"/>
<polygon fill="#ff00ff" stroke="#ff00ff" points="393.7411,-16.5001 403.7411,-13 393.741,-9.5001 393.7411,-16.5001"/>
</g>
<!-- key1&#45;&gt;key2 -->
<g id="edge4" class="edge">
<title>key1:e&#45;&gt;key2:w</title>
<path fill="none" stroke="#000000" d="M354.7411,-33C372.6056,-33 379.4793,-33 393.394,-33"/>
<polygon fill="none" stroke="#000000" points="393.7411,-36.5001 403.7411,-33 393.741,-29.5001 393.7411,-36.5001"/>
</g>
</g>
</svg>
