<?xml version="1.0" encoding="UTF-8" standalone="no"?>
<!DOCTYPE svg PUBLIC "-//W3C//DTD SVG 1.1//EN"
 "http://www.w3.org/Graphics/SVG/1.1/DTD/svg11.dtd">
<!-- Generated by graphviz version 2.40.1 (0)
 -->
<!-- Title: %3 Pages: 1 -->
<svg width="1347pt" height="620pt"
 viewBox="0.00 0.00 1346.50 620.00" xmlns="http://www.w3.org/2000/svg" xmlns:xlink="http://www.w3.org/1999/xlink">
<g id="graph0" class="graph" transform="scale(1 1) rotate(0) translate(4 616)">
<title>%3</title>
<polygon fill="#ffffff" stroke="transparent" points="-4,4 -4,-616 1342.5,-616 1342.5,4 -4,4"/>
<!-- hasQuantityValue -->
<g id="node1" class="node">
<title>hasQuantityValue</title>
<g id="a_node1"><a xlink:href="http://emmo.info/emmo/middle/metrology#EMMO_8ef3cd6d_ae58_4a8d_9fc0_ad8f49015cd0" xlink:title="hasQuantityValue">
<polygon fill="#0079ba" stroke="#000000" points="143,-36 0,-36 0,0 143,0 143,-36"/>
<text text-anchor="middle" x="71.5" y="-14.3" font-family="Times,serif" font-size="14.00" fill="#ffffff">hasQuantityValue</text>
</a>
</g>
</g>
<!-- hasSpatialDirectPart -->
<g id="node9" class="node">
<title>hasSpatialDirectPart</title>
<g id="a_node9"><a xlink:href="http://emmo.info/emmo/middle/reductionistic#EMMO_b2282816_b7a3_44c6_b2cb_3feff1ceb7fe" xlink:title="hasSpatialDirectPart">
<polygon fill="#0079ba" stroke="#000000" points="236,-108 69,-108 69,-72 236,-72 236,-108"/>
<text text-anchor="middle" x="152.5" y="-86.3" font-family="Times,serif" font-size="14.00" fill="#ffffff">hasSpatialDirectPart</text>
</a>
</g>
</g>
<!-- hasQuantityValue&#45;&gt;hasSpatialDirectPart -->
<g id="edge11" class="edge">
<title>hasQuantityValue&#45;&gt;hasSpatialDirectPart</title>
<path fill="none" stroke="#000000" d="M91.9397,-36.1686C101.8205,-44.9515 113.8324,-55.6288 124.545,-65.1511"/>
<polygon fill="none" stroke="#000000" points="122.2674,-67.8094 132.0668,-71.8372 126.918,-62.5776 122.2674,-67.8094"/>
</g>
<!-- hasProperPart -->
<g id="node2" class="node">
<title>hasProperPart</title>
<g id="a_node2"><a xlink:href="http://emmo.info/emmo/top/mereotopology#EMMO_9380ab64_0363_4804_b13f_3a8a94119a76" xlink:title="hasProperPart">
<polygon fill="#0079ba" stroke="#000000" points="527.5,-252 407.5,-252 407.5,-216 527.5,-216 527.5,-252"/>
<text text-anchor="middle" x="467.5" y="-230.3" font-family="Times,serif" font-size="14.00" fill="#ffffff">hasProperPart</text>
</a>
</g>
</g>
<!-- hasPart -->
<g id="node30" class="node">
<title>hasPart</title>
<g id="a_node30"><a xlink:href="http://emmo.info/emmo/top/mereotopology#EMMO_17e27c22_37e1_468c_9dd7_95e137f73e7f" xlink:title="hasPart">
<polygon fill="#0079ba" stroke="#000000" points="561,-324 490,-324 490,-288 561,-288 561,-324"/>
<text text-anchor="middle" x="525.5" y="-302.3" font-family="Times,serif" font-size="14.00" fill="#ffffff">hasPart</text>
</a>
</g>
</g>
<!-- hasProperPart&#45;&gt;hasPart -->
<g id="edge31" class="edge">
<title>hasProperPart&#45;&gt;hasPart</title>
<path fill="none" stroke="#000000" d="M482.1358,-252.1686C488.8161,-260.4614 496.8568,-270.443 504.1904,-279.5467"/>
<polygon fill="none" stroke="#000000" points="501.6681,-281.9948 510.6671,-287.5867 507.1194,-277.6035 501.6681,-281.9948"/>
</g>
<!-- hasConvention -->
<g id="node3" class="node">
<title>hasConvention</title>
<g id="a_node3"><a xlink:href="http://emmo.info/emmo/top/semiotics#EMMO_eb3518bf_f799_4f9e_8c3e_ce59af11453b" xlink:title="hasConvention">
<polygon fill="#0079ba" stroke="#000000" points="998,-396 875,-396 875,-360 998,-360 998,-396"/>
<text text-anchor="middle" x="936.5" y="-374.3" font-family="Times,serif" font-size="14.00" fill="#ffffff">hasConvention</text>
</a>
</g>
</g>
<!-- hasSign -->
<g id="node20" class="node">
<title>hasSign</title>
<g id="a_node20"><a xlink:href="http://emmo.info/emmo/top/semiotics#EMMO_60577dea_9019_4537_ac41_80b0fb563d41" xlink:title="hasSign">
<polygon fill="#0079ba" stroke="#000000" points="1118.5,-468 1044.5,-468 1044.5,-432 1118.5,-432 1118.5,-468"/>
<text text-anchor="middle" x="1081.5" y="-446.3" font-family="Times,serif" font-size="14.00" fill="#ffffff">hasSign</text>
</a>
</g>
</g>
<!-- hasConvention&#45;&gt;hasSign -->
<g id="edge23" class="edge">
<title>hasConvention&#45;&gt;hasSign</title>
<path fill="none" stroke="#000000" d="M973.0896,-396.1686C992.2239,-405.6698 1015.8229,-417.3879 1036.1122,-427.4626"/>
<polygon fill="none" stroke="#000000" points="1034.6603,-430.6494 1045.1735,-431.962 1037.7735,-424.3797 1034.6603,-430.6494"/>
</g>
<!-- hasInterpretant -->
<g id="node4" class="node">
<title>hasInterpretant</title>
<g id="a_node4"><a xlink:href="http://emmo.info/emmo/top/semiotics#EMMO_7fb7fe7e_bdf9_4eeb_adad_e384dd5285c6" xlink:title="hasInterpretant">
<polygon fill="#0079ba" stroke="#000000" points="1147,-396 1016,-396 1016,-360 1147,-360 1147,-396"/>
<text text-anchor="middle" x="1081.5" y="-374.3" font-family="Times,serif" font-size="14.00" fill="#ffffff">hasInterpretant</text>
</a>
</g>
</g>
<!-- hasInterpretant&#45;&gt;hasSign -->
<g id="edge7" class="edge">
<title>hasInterpretant&#45;&gt;hasSign</title>
<path fill="none" stroke="#000000" d="M1081.5,-396.1686C1081.5,-403.869 1081.5,-413.0257 1081.5,-421.5834"/>
<polygon fill="none" stroke="#000000" points="1078.0001,-421.5867 1081.5,-431.5867 1085.0001,-421.5868 1078.0001,-421.5867"/>
</g>
<!-- encloses -->
<g id="node5" class="node">
<title>encloses</title>
<g id="a_node5"><a xlink:href="http://emmo.info/emmo/top/mereotopology#EMMO_8c898653_1118_4682_9bbf_6cc334d16a99" xlink:title="encloses">
<polygon fill="#0079ba" stroke="#000000" points="554.5,-396 476.5,-396 476.5,-360 554.5,-360 554.5,-396"/>
<text text-anchor="middle" x="515.5" y="-374.3" font-family="Times,serif" font-size="14.00" fill="#ffffff">encloses</text>
</a>
</g>
</g>
<!-- connected -->
<g id="node8" class="node">
<title>connected</title>
<g id="a_node8"><a xlink:href="http://emmo.info/emmo/top/mereotopology#EMMO_6703954e_34c4_4a15_a9e7_f313760ae1a8" xlink:title="connected">
<polygon fill="#0079ba" stroke="#000000" points="761,-468 670,-468 670,-432 761,-432 761,-468"/>
<text text-anchor="middle" x="715.5" y="-446.3" font-family="Times,serif" font-size="14.00" fill="#ffffff">connected</text>
</a>
</g>
</g>
<!-- encloses&#45;&gt;connected -->
<g id="edge32" class="edge">
<title>encloses&#45;&gt;connected</title>
<path fill="none" stroke="#000000" d="M554.5117,-392.6941C557.5507,-393.819 560.5739,-394.9317 563.5,-396 595.5248,-407.6923 631.4645,-420.4757 660.3536,-430.6685"/>
<polygon fill="none" stroke="#000000" points="659.2699,-433.9975 669.8647,-434.0205 661.5967,-427.3955 659.2699,-433.9975"/>
</g>
<!-- mereotopological -->
<g id="node6" class="node">
<title>mereotopological</title>
<g id="a_node6"><a xlink:href="http://emmo.info/emmo/top/mereotopology#EMMO_03212fd7_abfd_4828_9c8e_62c293052d4b" xlink:title="mereotopological">
<polygon fill="#0079ba" stroke="#000000" points="914.5,-540 774.5,-540 774.5,-504 914.5,-504 914.5,-540"/>
<text text-anchor="middle" x="844.5" y="-518.3" font-family="Times,serif" font-size="14.00" fill="#ffffff">mereotopological</text>
</a>
</g>
</g>
<!-- EMMORelation -->
<g id="node25" class="node">
<title>EMMORelation</title>
<g id="a_node25"><a xlink:href="http://emmo.info/emmo/top/mereotopology#EMMO_ec2472ae_cf4a_46a5_8555_1556f5a6c3c5" xlink:title="EMMORelation">
<polygon fill="#0079ba" stroke="#000000" stroke-width="2" points="974,-612 847,-612 847,-576 974,-576 974,-612"/>
<text text-anchor="middle" x="910.5" y="-590.3" font-family="Times,serif" font-size="14.00" fill="#ffffff">EMMORelation</text>
</a>
</g>
</g>
<!-- mereotopological&#45;&gt;EMMORelation -->
<g id="edge3" class="edge">
<title>mereotopological&#45;&gt;EMMORelation</title>
<path fill="none" stroke="#000000" d="M861.1546,-540.1686C868.9114,-548.6306 878.2802,-558.8511 886.761,-568.1029"/>
<polygon fill="none" stroke="#000000" points="884.2838,-570.5802 893.6212,-575.5867 889.4439,-565.8501 884.2838,-570.5802"/>
</g>
<!-- hasIcon -->
<g id="node7" class="node">
<title>hasIcon</title>
<g id="a_node7"><a xlink:href="http://emmo.info/emmo/top/semiotics#EMMO_39c3815d_8cae_4c8f_b2ff_eeba24bec455" xlink:title="hasIcon">
<polygon fill="#0079ba" stroke="#000000" points="1238,-396 1165,-396 1165,-360 1238,-360 1238,-396"/>
<text text-anchor="middle" x="1201.5" y="-374.3" font-family="Times,serif" font-size="14.00" fill="#ffffff">hasIcon</text>
</a>
</g>
</g>
<!-- hasIcon&#45;&gt;hasSign -->
<g id="edge8" class="edge">
<title>hasIcon&#45;&gt;hasSign</title>
<path fill="none" stroke="#000000" d="M1171.2189,-396.1686C1155.8702,-405.3779 1137.0502,-416.6699 1120.6177,-426.5294"/>
<polygon fill="none" stroke="#000000" points="1118.5456,-423.6909 1111.7714,-431.8372 1122.1471,-429.6934 1118.5456,-423.6909"/>
</g>
<!-- connected&#45;&gt;mereotopological -->
<g id="edge12" class="edge">
<title>connected&#45;&gt;mereotopological</title>
<path fill="none" stroke="#000000" d="M748.0521,-468.1686C764.7048,-477.4632 785.1585,-488.8792 802.9385,-498.8029"/>
<polygon fill="none" stroke="#000000" points="801.5205,-502.0197 811.9583,-503.8372 804.9321,-495.9073 801.5205,-502.0197"/>
</g>
<!-- hasSpatialPart -->
<g id="node18" class="node">
<title>hasSpatialPart</title>
<g id="a_node18"><a xlink:href="http://emmo.info/emmo/top/physical#EMMO_f68030be_94b8_4c61_a161_886468558054" xlink:title="hasSpatialPart">
<polygon fill="#0079ba" stroke="#000000" points="213.5,-180 91.5,-180 91.5,-144 213.5,-144 213.5,-180"/>
<text text-anchor="middle" x="152.5" y="-158.3" font-family="Times,serif" font-size="14.00" fill="#ffffff">hasSpatialPart</text>
</a>
</g>
</g>
<!-- hasSpatialDirectPart&#45;&gt;hasSpatialPart -->
<g id="edge21" class="edge">
<title>hasSpatialDirectPart&#45;&gt;hasSpatialPart</title>
<path fill="none" stroke="#000000" d="M152.5,-108.1686C152.5,-115.869 152.5,-125.0257 152.5,-133.5834"/>
<polygon fill="none" stroke="#000000" points="149.0001,-133.5867 152.5,-143.5867 156.0001,-133.5868 149.0001,-133.5867"/>
</g>
<!-- hasSpatioTemporalDirectPart -->
<g id="node10" class="node">
<title>hasSpatioTemporalDirectPart</title>
<g id="a_node10"><a xlink:href="http://emmo.info/emmo/middle/reductionistic#EMMO_663859e5_add3_4c9e_96fb_c99399de278d" xlink:title="hasSpatioTemporalDirectPart">
<polygon fill="#0079ba" stroke="#000000" points="535.5,-108 305.5,-108 305.5,-72 535.5,-72 535.5,-108"/>
<text text-anchor="middle" x="420.5" y="-86.3" font-family="Times,serif" font-size="14.00" fill="#ffffff">hasSpatioTemporalDirectPart</text>
</a>
</g>
</g>
<!-- hasSpatioTemporalPart -->
<g id="node24" class="node">
<title>hasSpatioTemporalPart</title>
<g id="a_node24"><a xlink:href="http://emmo.info/emmo/top/physical#EMMO_6e046dd0_9634_4013_b2b1_9cc468087c83" xlink:title="hasSpatioTemporalPart">
<polygon fill="#0079ba" stroke="#000000" points="536,-180 351,-180 351,-144 536,-144 536,-180"/>
<text text-anchor="middle" x="443.5" y="-158.3" font-family="Times,serif" font-size="14.00" fill="#ffffff">hasSpatioTemporalPart</text>
</a>
</g>
</g>
<!-- hasSpatioTemporalDirectPart&#45;&gt;hasSpatioTemporalPart -->
<g id="edge15" class="edge">
<title>hasSpatioTemporalDirectPart&#45;&gt;hasSpatioTemporalPart</title>
<path fill="none" stroke="#000000" d="M426.3039,-108.1686C428.7908,-115.9537 431.7531,-125.2271 434.5125,-133.8653"/>
<polygon fill="none" stroke="#000000" points="431.2409,-135.126 437.618,-143.5867 437.909,-132.9959 431.2409,-135.126"/>
</g>
<!-- hasReferenceUnit -->
<g id="node11" class="node">
<title>hasReferenceUnit</title>
<g id="a_node11"><a xlink:href="http://emmo.info/emmo/middle/metrology#EMMO_67fc0a36_8dcb_4ffa_9a43_31074efa3296" xlink:title="hasReferenceUnit">
<polygon fill="#0079ba" stroke="#000000" points="307.5,-36 161.5,-36 161.5,0 307.5,0 307.5,-36"/>
<text text-anchor="middle" x="234.5" y="-14.3" font-family="Times,serif" font-size="14.00" fill="#ffffff">hasReferenceUnit</text>
</a>
</g>
</g>
<!-- hasReferenceUnit&#45;&gt;hasSpatialDirectPart -->
<g id="edge14" class="edge">
<title>hasReferenceUnit&#45;&gt;hasSpatialDirectPart</title>
<path fill="none" stroke="#000000" d="M213.8079,-36.1686C203.8052,-44.9515 191.645,-55.6288 180.8001,-65.1511"/>
<polygon fill="none" stroke="#000000" points="178.3906,-62.6091 173.1854,-71.8372 183.0092,-67.8692 178.3906,-62.6091"/>
</g>
<!-- hasVariable -->
<g id="node12" class="node">
<title>hasVariable</title>
<g id="a_node12"><a xlink:href="http://emmo.info/emmo/middle/math#EMMO_3446e167_c576_49d6_846c_215bb8878a55" xlink:title="hasVariable">
<polygon fill="#0079ba" stroke="#000000" points="919.5,-324 819.5,-324 819.5,-288 919.5,-288 919.5,-324"/>
<text text-anchor="middle" x="869.5" y="-302.3" font-family="Times,serif" font-size="14.00" fill="#ffffff">hasVariable</text>
</a>
</g>
</g>
<!-- hasVariable&#45;&gt;hasConvention -->
<g id="edge9" class="edge">
<title>hasVariable&#45;&gt;hasConvention</title>
<path fill="none" stroke="#000000" d="M886.4069,-324.1686C894.2813,-332.6306 903.792,-342.8511 912.4013,-352.1029"/>
<polygon fill="none" stroke="#000000" points="909.9908,-354.6503 919.3654,-359.5867 915.1153,-349.8817 909.9908,-354.6503"/>
</g>
<!-- semiotical -->
<g id="node13" class="node">
<title>semiotical</title>
<g id="a_node13"><a xlink:href="http://emmo.info/emmo/top/semiotics#EMMO_2337e25c_3c60_43fc_a8f9_b11a3f974291" xlink:title="semiotical">
<polygon fill="#0079ba" stroke="#000000" points="1041.5,-540 951.5,-540 951.5,-504 1041.5,-504 1041.5,-540"/>
<text text-anchor="middle" x="996.5" y="-518.3" font-family="Times,serif" font-size="14.00" fill="#ffffff">semiotical</text>
</a>
</g>
</g>
<!-- semiotical&#45;&gt;EMMORelation -->
<g id="edge29" class="edge">
<title>semiotical&#45;&gt;EMMORelation</title>
<path fill="none" stroke="#000000" d="M974.7986,-540.1686C964.3079,-548.9515 951.5545,-559.6288 940.1806,-569.1511"/>
<polygon fill="none" stroke="#000000" points="937.6153,-566.7341 932.1945,-575.8372 942.1089,-572.1014 937.6153,-566.7341"/>
</g>
<!-- hasMember -->
<g id="node14" class="node">
<title>hasMember</title>
<g id="a_node14"><a xlink:href="http://emmo.info/emmo/top/mereotopology#EMMO_6b7276a4_4b9d_440a_b577_0277539c0fc4" xlink:title="hasMember">
<polygon fill="#0079ba" stroke="#000000" points="333,-180 232,-180 232,-144 333,-144 333,-180"/>
<text text-anchor="middle" x="282.5" y="-158.3" font-family="Times,serif" font-size="14.00" fill="#ffffff">hasMember</text>
</a>
</g>
</g>
<!-- hasMember&#45;&gt;hasProperPart -->
<g id="edge27" class="edge">
<title>hasMember&#45;&gt;hasProperPart</title>
<path fill="none" stroke="#000000" d="M329.1833,-180.1686C354.2559,-189.9266 385.3367,-202.023 411.6809,-212.2758"/>
<polygon fill="none" stroke="#000000" points="410.5638,-215.5967 421.1524,-215.962 413.1027,-209.0734 410.5638,-215.5967"/>
</g>
<!-- hasProperty -->
<g id="node15" class="node">
<title>hasProperty</title>
<g id="a_node15"><a xlink:href="http://emmo.info/emmo/middle/properties#EMMO_e1097637_70d2_4895_973f_2396f04fa204" xlink:title="hasProperty">
<polygon fill="#0079ba" stroke="#000000" points="1041.5,-324 937.5,-324 937.5,-288 1041.5,-288 1041.5,-324"/>
<text text-anchor="middle" x="989.5" y="-302.3" font-family="Times,serif" font-size="14.00" fill="#ffffff">hasProperty</text>
</a>
</g>
</g>
<!-- hasProperty&#45;&gt;hasConvention -->
<g id="edge16" class="edge">
<title>hasProperty&#45;&gt;hasConvention</title>
<path fill="none" stroke="#000000" d="M976.1259,-324.1686C970.0838,-332.3768 962.8237,-342.2394 956.1779,-351.2677"/>
<polygon fill="none" stroke="#000000" points="953.1637,-349.4585 950.0542,-359.5867 958.8011,-353.6082 953.1637,-349.4585"/>
</g>
<!-- hasParticipant -->
<g id="node16" class="node">
<title>hasParticipant</title>
<g id="a_node16"><a xlink:href="http://emmo.info/emmo/middle/holistic#EMMO_ae2d1a96_bfa1_409a_a7d2_03d69e8a125a" xlink:title="hasParticipant">
<polygon fill="#0079ba" stroke="#000000" points="803,-252 682,-252 682,-216 803,-216 803,-252"/>
<text text-anchor="middle" x="742.5" y="-230.3" font-family="Times,serif" font-size="14.00" fill="#ffffff">hasParticipant</text>
</a>
</g>
</g>
<!-- hasParticipant&#45;&gt;hasPart -->
<g id="edge1" class="edge">
<title>hasParticipant&#45;&gt;hasPart</title>
<path fill="none" stroke="#000000" d="M687.7865,-252.0981C656.1429,-262.5721 615.5697,-276.0137 579.5,-288 576.6383,-288.951 573.6915,-289.931 570.7207,-290.9196"/>
<polygon fill="none" stroke="#000000" points="569.6067,-287.6015 561.2246,-294.0815 571.8182,-294.2431 569.6067,-287.6015"/>
</g>
<!-- hasModel -->
<g id="node17" class="node">
<title>hasModel</title>
<g id="a_node17"><a xlink:href="http://emmo.info/emmo/middle/models#EMMO_24c71baf_6db6_48b9_86c8_8c70cf36db0c" xlink:title="hasModel">
<polygon fill="#0079ba" stroke="#000000" points="1244.5,-324 1158.5,-324 1158.5,-288 1244.5,-288 1244.5,-324"/>
<text text-anchor="middle" x="1201.5" y="-302.3" font-family="Times,serif" font-size="14.00" fill="#ffffff">hasModel</text>
</a>
</g>
</g>
<!-- hasModel&#45;&gt;hasIcon -->
<g id="edge25" class="edge">
<title>hasModel&#45;&gt;hasIcon</title>
<path fill="none" stroke="#000000" d="M1201.5,-324.1686C1201.5,-331.869 1201.5,-341.0257 1201.5,-349.5834"/>
<polygon fill="none" stroke="#000000" points="1198.0001,-349.5867 1201.5,-359.5867 1205.0001,-349.5868 1198.0001,-349.5867"/>
</g>
<!-- hasSpatialPart&#45;&gt;hasProperPart -->
<g id="edge30" class="edge">
<title>hasSpatialPart&#45;&gt;hasProperPart</title>
<path fill="none" stroke="#000000" d="M213.5524,-177.8323C216.5755,-178.5745 219.5707,-179.3008 222.5,-180 281.3577,-194.0493 348.488,-208.7535 397.5777,-219.264"/>
<polygon fill="none" stroke="#000000" points="396.9475,-222.7083 407.4581,-221.375 398.4101,-215.8628 396.9475,-222.7083"/>
</g>
<!-- hasContactWith -->
<g id="node19" class="node">
<title>hasContactWith</title>
<g id="a_node19"><a xlink:href="http://emmo.info/emmo/top/mereotopology#EMMO_4d6504f1_c470_4ce9_b941_bbbebc9ab05d" xlink:title="hasContactWith">
<polygon fill="#0079ba" stroke="#000000" points="857,-396 724,-396 724,-360 857,-360 857,-396"/>
<text text-anchor="middle" x="790.5" y="-374.3" font-family="Times,serif" font-size="14.00" fill="#ffffff">hasContactWith</text>
</a>
</g>
</g>
<!-- hasContactWith&#45;&gt;connected -->
<g id="edge6" class="edge">
<title>hasContactWith&#45;&gt;connected</title>
<path fill="none" stroke="#000000" d="M771.5743,-396.1686C762.5143,-404.8663 751.5191,-415.4217 741.6735,-424.8735"/>
<polygon fill="none" stroke="#000000" points="739.2096,-422.387 734.4196,-431.8372 744.0574,-427.4367 739.2096,-422.387"/>
</g>
<!-- hasSign&#45;&gt;semiotical -->
<g id="edge22" class="edge">
<title>hasSign&#45;&gt;semiotical</title>
<path fill="none" stroke="#000000" d="M1060.0509,-468.1686C1049.6822,-476.9515 1037.0771,-487.6288 1025.8354,-497.1511"/>
<polygon fill="none" stroke="#000000" points="1023.3105,-494.703 1017.9422,-503.8372 1027.8349,-500.0444 1023.3105,-494.703"/>
</g>
<!-- hasPhysicsDimension -->
<g id="node21" class="node">
<title>hasPhysicsDimension</title>
<g id="a_node21"><a xlink:href="http://emmo.info/emmo/middle/metrology#EMMO_bed1d005_b04e_4a90_94cf_02bc678a8569" xlink:title="hasPhysicsDimension">
<polygon fill="#0079ba" stroke="#000000" points="1075.5,-252 903.5,-252 903.5,-216 1075.5,-216 1075.5,-252"/>
<text text-anchor="middle" x="989.5" y="-230.3" font-family="Times,serif" font-size="14.00" fill="#ffffff">hasPhysicsDimension</text>
</a>
</g>
</g>
<!-- hasPhysicsDimension&#45;&gt;hasProperty -->
<g id="edge10" class="edge">
<title>hasPhysicsDimension&#45;&gt;hasProperty</title>
<path fill="none" stroke="#000000" d="M989.5,-252.1686C989.5,-259.869 989.5,-269.0257 989.5,-277.5834"/>
<polygon fill="none" stroke="#000000" points="986.0001,-277.5867 989.5,-287.5867 993.0001,-277.5868 986.0001,-277.5867"/>
</g>
<!-- disconnected -->
<g id="node22" class="node">
<title>disconnected</title>
<g id="a_node22"><a xlink:href="http://emmo.info/emmo/top/mereotopology#EMMO_517dfaf9_4970_41ac_81ee_d031627d2c7c" xlink:title="disconnected">
<polygon fill="#0079ba" stroke="#000000" points="900.5,-468 788.5,-468 788.5,-432 900.5,-432 900.5,-468"/>
<text text-anchor="middle" x="844.5" y="-446.3" font-family="Times,serif" font-size="14.00" fill="#ffffff">disconnected</text>
</a>
</g>
</g>
<!-- disconnected&#45;&gt;mereotopological -->
<g id="edge2" class="edge">
<title>disconnected&#45;&gt;mereotopological</title>
<path fill="none" stroke="#000000" d="M844.5,-468.1686C844.5,-475.869 844.5,-485.0257 844.5,-493.5834"/>
<polygon fill="none" stroke="#000000" points="841.0001,-493.5867 844.5,-503.5867 848.0001,-493.5868 841.0001,-493.5867"/>
</g>
<!-- hasIndex -->
<g id="node23" class="node">
<title>hasIndex</title>
<g id="a_node23"><a xlink:href="http://emmo.info/emmo/top/semiotics#EMMO_297999d6_c9e4_4262_9536_bd524d1c6e21" xlink:title="hasIndex">
<polygon fill="#0079ba" stroke="#000000" points="1338.5,-396 1256.5,-396 1256.5,-360 1338.5,-360 1338.5,-396"/>
<text text-anchor="middle" x="1297.5" y="-374.3" font-family="Times,serif" font-size="14.00" fill="#ffffff">hasIndex</text>
</a>
</g>
</g>
<!-- hasIndex&#45;&gt;hasSign -->
<g id="edge28" class="edge">
<title>hasIndex&#45;&gt;hasSign</title>
<path fill="none" stroke="#000000" d="M1256.335,-392.9338C1253.3488,-393.982 1250.3802,-395.0133 1247.5,-396 1207.4868,-409.7068 1161.7651,-424.5178 1128.4512,-435.1553"/>
<polygon fill="none" stroke="#000000" points="1126.9959,-431.9455 1118.5308,-438.3167 1129.1215,-438.615 1126.9959,-431.9455"/>
</g>
<!-- hasSpatioTemporalPart&#45;&gt;hasProperPart -->
<g id="edge24" class="edge">
<title>hasSpatioTemporalPart&#45;&gt;hasProperPart</title>
<path fill="none" stroke="#000000" d="M449.5562,-180.1686C452.1512,-187.9537 455.2424,-197.2271 458.1218,-205.8653"/>
<polygon fill="none" stroke="#000000" points="454.8795,-207.2067 461.3622,-215.5867 461.5203,-204.9931 454.8795,-207.2067"/>
</g>
<!-- hasOverlapWith -->
<g id="node26" class="node">
<title>hasOverlapWith</title>
<g id="a_node26"><a xlink:href="http://emmo.info/emmo/top/mereotopology#EMMO_d893d373_b579_4867_841e_1c2b31a8d2c6" xlink:title="hasOverlapWith">
<polygon fill="#0079ba" stroke="#000000" points="706,-396 573,-396 573,-360 706,-360 706,-396"/>
<text text-anchor="middle" x="639.5" y="-374.3" font-family="Times,serif" font-size="14.00" fill="#ffffff">hasOverlapWith</text>
</a>
</g>
</g>
<!-- hasOverlapWith&#45;&gt;connected -->
<g id="edge18" class="edge">
<title>hasOverlapWith&#45;&gt;connected</title>
<path fill="none" stroke="#000000" d="M658.678,-396.1686C667.8588,-404.8663 679.0006,-415.4217 688.9776,-424.8735"/>
<polygon fill="none" stroke="#000000" points="686.6615,-427.5005 696.3281,-431.8372 691.4757,-422.4189 686.6615,-427.5005"/>
</g>
<!-- hasTemporalDirectPart -->
<g id="node27" class="node">
<title>hasTemporalDirectPart</title>
<g id="a_node27"><a xlink:href="http://emmo.info/emmo/middle/reductionistic#EMMO_65a2c5b8_e4d8_4a51_b2f8_e55effc0547d" xlink:title="hasTemporalDirectPart">
<polygon fill="#0079ba" stroke="#000000" points="737.5,-108 553.5,-108 553.5,-72 737.5,-72 737.5,-108"/>
<text text-anchor="middle" x="645.5" y="-86.3" font-family="Times,serif" font-size="14.00" fill="#ffffff">hasTemporalDirectPart</text>
</a>
</g>
</g>
<!-- hasTemporalPart -->
<g id="node28" class="node">
<title>hasTemporalPart</title>
<g id="a_node28"><a xlink:href="http://emmo.info/emmo/top/physical#EMMO_7afbed84_7593_4a23_bd88_9d9c6b04e8f6" xlink:title="hasTemporalPart">
<polygon fill="#0079ba" stroke="#000000" points="693,-180 554,-180 554,-144 693,-144 693,-180"/>
<text text-anchor="middle" x="623.5" y="-158.3" font-family="Times,serif" font-size="14.00" fill="#ffffff">hasTemporalPart</text>
</a>
</g>
</g>
<!-- hasTemporalDirectPart&#45;&gt;hasTemporalPart -->
<g id="edge17" class="edge">
<title>hasTemporalDirectPart&#45;&gt;hasTemporalPart</title>
<path fill="none" stroke="#000000" d="M639.9485,-108.1686C637.5697,-115.9537 634.7362,-125.2271 632.0967,-133.8653"/>
<polygon fill="none" stroke="#000000" points="628.7013,-133.0004 629.1263,-143.5867 635.3958,-135.046 628.7013,-133.0004"/>
</g>
<!-- hasTemporalPart&#45;&gt;hasProperPart -->
<g id="edge13" class="edge">
<title>hasTemporalPart&#45;&gt;hasProperPart</title>
<path fill="none" stroke="#000000" d="M584.1346,-180.1686C563.3633,-189.7554 537.7017,-201.5992 515.7419,-211.7345"/>
<polygon fill="none" stroke="#000000" points="514.1952,-208.5935 506.5823,-215.962 517.1286,-214.9492 514.1952,-208.5935"/>
</g>
<!-- overcrosses -->
<g id="node29" class="node">
<title>overcrosses</title>
<g id="a_node29"><a xlink:href="http://emmo.info/emmo/top/mereotopology#EMMO_9cb984ca_48ad_4864_b09e_50d3fff19420" xlink:title="overcrosses">
<polygon fill="#0079ba" stroke="#000000" points="690.5,-324 588.5,-324 588.5,-288 690.5,-288 690.5,-324"/>
<text text-anchor="middle" x="639.5" y="-302.3" font-family="Times,serif" font-size="14.00" fill="#ffffff">overcrosses</text>
</a>
</g>
</g>
<!-- overcrosses&#45;&gt;hasOverlapWith -->
<g id="edge26" class="edge">
<title>overcrosses&#45;&gt;hasOverlapWith</title>
<path fill="none" stroke="#000000" d="M639.5,-324.1686C639.5,-331.869 639.5,-341.0257 639.5,-349.5834"/>
<polygon fill="none" stroke="#000000" points="636.0001,-349.5867 639.5,-359.5867 643.0001,-349.5868 636.0001,-349.5867"/>
</g>
<!-- hasPart&#45;&gt;encloses -->
<g id="edge4" class="edge">
<title>hasPart&#45;&gt;encloses</title>
<path fill="none" stroke="#000000" d="M522.9766,-324.1686C521.9071,-331.869 520.6353,-341.0257 519.4468,-349.5834"/>
<polygon fill="none" stroke="#000000" points="515.9664,-349.2003 518.0574,-359.5867 522.8999,-350.1633 515.9664,-349.2003"/>
</g>
<!-- hasPart&#45;&gt;hasOverlapWith -->
<g id="edge5" class="edge">
<title>hasPart&#45;&gt;hasOverlapWith</title>
<path fill="none" stroke="#000000" d="M554.267,-324.1686C568.7133,-333.2926 586.3965,-344.461 601.904,-354.2551"/>
<polygon fill="none" stroke="#000000" points="600.4183,-357.4564 610.7422,-359.8372 604.1563,-351.538 600.4183,-357.4564"/>
</g>
<!-- hasProperParticipant -->
<g id="node31" class="node">
<title>hasProperParticipant</title>
<g id="a_node31"><a xlink:href="http://emmo.info/emmo/middle/holistic#EMMO_c5aae418_1622_4d02_93c5_21159e28e6c1" xlink:title="hasProperParticipant">
<polygon fill="#0079ba" stroke="#000000" points="881.5,-180 711.5,-180 711.5,-144 881.5,-144 881.5,-180"/>
<text text-anchor="middle" x="796.5" y="-158.3" font-family="Times,serif" font-size="14.00" fill="#ffffff">hasProperParticipant</text>
</a>
</g>
</g>
<!-- hasProperParticipant&#45;&gt;hasProperPart -->
<g id="edge20" class="edge">
<title>hasProperParticipant&#45;&gt;hasProperPart</title>
<path fill="none" stroke="#000000" d="M713.9041,-180.0757C659.5668,-191.9671 589.2223,-207.3617 537.6123,-218.6563"/>
<polygon fill="none" stroke="#000000" points="536.5709,-215.3013 527.5503,-220.8583 538.0674,-222.1394 536.5709,-215.3013"/>
</g>
<!-- hasProperParticipant&#45;&gt;hasParticipant -->
<g id="edge19" class="edge">
<title>hasProperParticipant&#45;&gt;hasParticipant</title>
<path fill="none" stroke="#000000" d="M782.8735,-180.1686C776.654,-188.4614 769.1678,-198.443 762.34,-207.5467"/>
<polygon fill="none" stroke="#000000" points="759.51,-205.4867 756.31,-215.5867 765.11,-209.6867 759.51,-205.4867"/>
</g>
<!-- key1 -->
<g id="node32" class="node">
<title>key1</title>
<text text-anchor="start" x="341.5" y="-13.8" font-family="Times,serif" font-size="14.00" fill="#000000">isA</text>
</g>
<!-- key2 -->
<g id="node33" class="node">
<title>key2</title>
<text text-anchor="start" x="422.5" y="-13.8" font-family="Times,serif" font-size="14.00" fill="#000000"> </text>
</g>
<!-- key1&#45;&gt;key2 -->
<g id="edge33" class="edge">
<title>key1:e&#45;&gt;key2:w</title>
<path fill="none" stroke="#000000" d="M366.5,-19C386.75,-19 394.1855,-19 410.431,-19"/>
<polygon fill="none" stroke="#000000" points="410.5,-22.5001 420.5,-19 410.5,-15.5001 410.5,-22.5001"/>
</g>
</g>
</svg>
