<?xml version="1.0" encoding="UTF-8" standalone="no"?>
<!DOCTYPE svg PUBLIC "-//W3C//DTD SVG 1.1//EN"
 "http://www.w3.org/Graphics/SVG/1.1/DTD/svg11.dtd">
<!-- Generated by graphviz version 2.40.1 (0)
 -->
<!-- Title: %3 Pages: 1 -->
<svg width="518pt" height="188pt"
 viewBox="0.00 0.00 517.74 188.00" xmlns="http://www.w3.org/2000/svg" xmlns:xlink="http://www.w3.org/1999/xlink">
<g id="graph0" class="graph" transform="scale(1 1) rotate(0) translate(4 184)">
<title>%3</title>
<polygon fill="#ffffff" stroke="transparent" points="-4,4 -4,-184 513.7445,-184 513.7445,4 -4,4"/>
<!-- AlgebricExpression -->
<g id="node1" class="node">
<title>AlgebricExpression</title>
<g id="a_node1"><a xlink:href="http://emmo.info/emmo/top/math#EMMO_1aed91a3_d00c_48af_8f43_a0c958b2512a" xlink:title="AlgebricExpression">
<ellipse fill="#ffffcc" stroke="#000000" cx="157.7445" cy="-90" rx="102.0819" ry="18"/>
<text text-anchor="middle" x="157.7445" y="-86.3" font-family="Times,serif" font-size="14.00" fill="#000000">AlgebricExpression</text>
</a>
</g>
</g>
<!-- Expression -->
<g id="node4" class="node">
<title>Expression</title>
<g id="a_node4"><a xlink:href="http://emmo.info/emmo/middle/math#EMMO_f9bc8b52_85e9_4b53_b969_dd7724d5b8e4" xlink:title="Expression">
<ellipse fill="#ffffcc" stroke="#000000" stroke-width="2" cx="157.7445" cy="-162" rx="62.2891" ry="18"/>
<text text-anchor="middle" x="157.7445" y="-158.3" font-family="Times,serif" font-size="14.00" fill="#000000">Expression</text>
</a>
</g>
</g>
<!-- AlgebricExpression&#45;&gt;Expression -->
<g id="edge2" class="edge">
<title>AlgebricExpression&#45;&gt;Expression</title>
<path fill="none" stroke="#000000" d="M157.7445,-108.1686C157.7445,-115.869 157.7445,-125.0257 157.7445,-133.5834"/>
<polygon fill="none" stroke="#000000" points="154.2446,-133.5867 157.7445,-143.5867 161.2446,-133.5868 154.2446,-133.5867"/>
</g>
<!-- Polynomial -->
<g id="node2" class="node">
<title>Polynomial</title>
<g id="a_node2"><a xlink:href="http://emmo.info/emmo/top/math#EMMO_91447ec0_fb55_49f2_85a5_3172dff6482c" xlink:title="Polynomial">
<ellipse fill="#ffffcc" stroke="#000000" cx="61.7445" cy="-18" rx="61.99" ry="18"/>
<text text-anchor="middle" x="61.7445" y="-14.3" font-family="Times,serif" font-size="14.00" fill="#000000">Polynomial</text>
</a>
</g>
</g>
<!-- Polynomial&#45;&gt;AlgebricExpression -->
<g id="edge3" class="edge">
<title>Polynomial&#45;&gt;AlgebricExpression</title>
<path fill="none" stroke="#000000" d="M84.4952,-35.063C96.8926,-44.3611 112.4316,-56.0153 126.0038,-66.1945"/>
<polygon fill="none" stroke="#000000" points="124.0546,-69.1075 134.1546,-72.3076 128.2546,-63.5075 124.0546,-69.1075"/>
</g>
<!-- ArithmeticExpression -->
<g id="node3" class="node">
<title>ArithmeticExpression</title>
<g id="a_node3"><a xlink:href="http://emmo.info/emmo/middle/math#EMMO_89083bab_f69c_4d06_bf6d_62973b56cdc7" xlink:title="ArithmeticExpression">
<ellipse fill="#ffffcc" stroke="#000000" cx="253.7445" cy="-18" rx="112.3801" ry="18"/>
<text text-anchor="middle" x="253.7445" y="-14.3" font-family="Times,serif" font-size="14.00" fill="#000000">ArithmeticExpression</text>
</a>
</g>
</g>
<!-- ArithmeticExpression&#45;&gt;AlgebricExpression -->
<g id="edge1" class="edge">
<title>ArithmeticExpression&#45;&gt;AlgebricExpression</title>
<path fill="none" stroke="#000000" d="M230.0142,-35.7978C217.8075,-44.9527 202.7592,-56.239 189.5601,-66.1383"/>
<polygon fill="none" stroke="#000000" points="187.1019,-63.6069 181.2019,-72.407 191.3019,-69.2069 187.1019,-63.6069"/>
</g>
<!-- key1 -->
<g id="node5" class="node">
<title>key1</title>
<text text-anchor="start" x="399.7445" y="-13.8" font-family="Times,serif" font-size="14.00" fill="#000000">isA</text>
</g>
<!-- key2 -->
<g id="node6" class="node">
<title>key2</title>
<text text-anchor="start" x="480.7445" y="-13.8" font-family="Times,serif" font-size="14.00" fill="#000000"> </text>
</g>
<!-- key1&#45;&gt;key2 -->
<g id="edge4" class="edge">
<title>key1:e&#45;&gt;key2:w</title>
<path fill="none" stroke="#000000" d="M424.7445,-19C444.9945,-19 452.4301,-19 468.6756,-19"/>
<polygon fill="none" stroke="#000000" points="468.7446,-22.5001 478.7445,-19 468.7445,-15.5001 468.7446,-22.5001"/>
</g>
</g>
</svg>
