<?xml version="1.0" encoding="UTF-8" standalone="no"?>
<!DOCTYPE svg PUBLIC "-//W3C//DTD SVG 1.1//EN"
 "http://www.w3.org/Graphics/SVG/1.1/DTD/svg11.dtd">
<!-- Generated by graphviz version 2.40.1 (0)
 -->
<!-- Title: %3 Pages: 1 -->
<svg width="923pt" height="332pt"
 viewBox="0.00 0.00 922.50 332.00" xmlns="http://www.w3.org/2000/svg" xmlns:xlink="http://www.w3.org/1999/xlink">
<g id="graph0" class="graph" transform="scale(1 1) rotate(0) translate(4 328)">
<title>%3</title>
<polygon fill="#ffffff" stroke="transparent" points="-4,4 -4,-328 918.5,-328 918.5,4 -4,4"/>
<!-- hasQuantityValue -->
<g id="node1" class="node">
<title>hasQuantityValue</title>
<g id="a_node1"><a xlink:href="http://emmo.info/emmo/middle/metrology#EMMO_8ef3cd6d_ae58_4a8d_9fc0_ad8f49015cd0" xlink:title="hasQuantityValue">
<polygon fill="#0079ba" stroke="#000000" points="143,-36 0,-36 0,0 143,0 143,-36"/>
<text text-anchor="middle" x="71.5" y="-14.3" font-family="Times,serif" font-size="14.00" fill="#ffffff">hasQuantityValue</text>
</a>
</g>
</g>
<!-- hasSpatialDirectPart -->
<g id="node6" class="node">
<title>hasSpatialDirectPart</title>
<g id="a_node6"><a xlink:href="http://emmo.info/emmo/middle/reductionistic#EMMO_b2282816_b7a3_44c6_b2cb_3feff1ceb7fe" xlink:title="hasSpatialDirectPart">
<polygon fill="#0079ba" stroke="#000000" points="236,-108 69,-108 69,-72 236,-72 236,-108"/>
<text text-anchor="middle" x="152.5" y="-86.3" font-family="Times,serif" font-size="14.00" fill="#ffffff">hasSpatialDirectPart</text>
</a>
</g>
</g>
<!-- hasQuantityValue&#45;&gt;hasSpatialDirectPart -->
<g id="edge8" class="edge">
<title>hasQuantityValue&#45;&gt;hasSpatialDirectPart</title>
<path fill="none" stroke="#000000" d="M91.9397,-36.1686C101.8205,-44.9515 113.8324,-55.6288 124.545,-65.1511"/>
<polygon fill="none" stroke="#000000" points="122.2674,-67.8094 132.0668,-71.8372 126.918,-62.5776 122.2674,-67.8094"/>
</g>
<!-- hasSpatialPart -->
<g id="node2" class="node">
<title>hasSpatialPart</title>
<g id="a_node2"><a xlink:href="http://emmo.info/emmo/top/physical#EMMO_f68030be_94b8_4c61_a161_886468558054" xlink:title="hasSpatialPart">
<polygon fill="#0079ba" stroke="#000000" points="235.5,-180 113.5,-180 113.5,-144 235.5,-144 235.5,-180"/>
<text text-anchor="middle" x="174.5" y="-158.3" font-family="Times,serif" font-size="14.00" fill="#ffffff">hasSpatialPart</text>
</a>
</g>
</g>
<!-- hasProperPart -->
<g id="node3" class="node">
<title>hasProperPart</title>
<g id="a_node3"><a xlink:href="http://emmo.info/emmo/top/mereotopology#EMMO_9380ab64_0363_4804_b13f_3a8a94119a76" xlink:title="hasProperPart">
<polygon fill="#0079ba" stroke="#000000" points="647.5,-252 527.5,-252 527.5,-216 647.5,-216 647.5,-252"/>
<text text-anchor="middle" x="587.5" y="-230.3" font-family="Times,serif" font-size="14.00" fill="#ffffff">hasProperPart</text>
</a>
</g>
</g>
<!-- hasSpatialPart&#45;&gt;hasProperPart -->
<g id="edge11" class="edge">
<title>hasSpatialPart&#45;&gt;hasProperPart</title>
<path fill="none" stroke="#000000" d="M235.8977,-176.0325C242.5034,-177.4262 249.1341,-178.776 255.5,-180 345.5007,-197.3046 449.9295,-213.6872 517.2697,-223.7744"/>
<polygon fill="none" stroke="#000000" points="516.933,-227.2629 527.3402,-225.2774 517.9664,-220.3396 516.933,-227.2629"/>
</g>
<!-- hasPart -->
<g id="node4" class="node">
<title>hasPart</title>
<g id="a_node4"><a xlink:href="http://emmo.info/emmo/top/mereotopology#EMMO_17e27c22_37e1_468c_9dd7_95e137f73e7f" xlink:title="hasPart">
<polygon fill="#0079ba" stroke="#000000" stroke-width="2" points="692,-324 621,-324 621,-288 692,-288 692,-324"/>
<text text-anchor="middle" x="656.5" y="-302.3" font-family="Times,serif" font-size="14.00" fill="#ffffff">hasPart</text>
</a>
</g>
</g>
<!-- hasProperPart&#45;&gt;hasPart -->
<g id="edge12" class="edge">
<title>hasProperPart&#45;&gt;hasPart</title>
<path fill="none" stroke="#000000" d="M604.9116,-252.1686C613.021,-260.6306 622.8156,-270.8511 631.682,-280.1029"/>
<polygon fill="none" stroke="#000000" points="629.4079,-282.7885 638.854,-287.5867 634.4618,-277.9451 629.4079,-282.7885"/>
</g>
<!-- hasSpatioTemporalPart -->
<g id="node5" class="node">
<title>hasSpatioTemporalPart</title>
<g id="a_node5"><a xlink:href="http://emmo.info/emmo/top/physical#EMMO_6e046dd0_9634_4013_b2b1_9cc468087c83" xlink:title="hasSpatioTemporalPart">
<polygon fill="#0079ba" stroke="#000000" points="450,-180 265,-180 265,-144 450,-144 450,-180"/>
<text text-anchor="middle" x="357.5" y="-158.3" font-family="Times,serif" font-size="14.00" fill="#ffffff">hasSpatioTemporalPart</text>
</a>
</g>
</g>
<!-- hasSpatioTemporalPart&#45;&gt;hasProperPart -->
<g id="edge6" class="edge">
<title>hasSpatioTemporalPart&#45;&gt;hasProperPart</title>
<path fill="none" stroke="#000000" d="M415.2418,-180.0757C447.0943,-190.0469 486.8149,-202.4812 520.0844,-212.896"/>
<polygon fill="none" stroke="#000000" points="519.1454,-216.2695 529.7344,-215.9169 521.2367,-209.5891 519.1454,-216.2695"/>
</g>
<!-- hasSpatialDirectPart&#45;&gt;hasSpatialPart -->
<g id="edge4" class="edge">
<title>hasSpatialDirectPart&#45;&gt;hasSpatialPart</title>
<path fill="none" stroke="#000000" d="M158.0515,-108.1686C160.4303,-115.9537 163.2638,-125.2271 165.9033,-133.8653"/>
<polygon fill="none" stroke="#000000" points="162.6042,-135.046 168.8737,-143.5867 169.2987,-133.0004 162.6042,-135.046"/>
</g>
<!-- hasSpatioTemporalDirectPart -->
<g id="node7" class="node">
<title>hasSpatioTemporalDirectPart</title>
<g id="a_node7"><a xlink:href="http://emmo.info/emmo/middle/reductionistic#EMMO_663859e5_add3_4c9e_96fb_c99399de278d" xlink:title="hasSpatioTemporalDirectPart">
<polygon fill="#0079ba" stroke="#000000" points="484.5,-108 254.5,-108 254.5,-72 484.5,-72 484.5,-108"/>
<text text-anchor="middle" x="369.5" y="-86.3" font-family="Times,serif" font-size="14.00" fill="#ffffff">hasSpatioTemporalDirectPart</text>
</a>
</g>
</g>
<!-- hasSpatioTemporalDirectPart&#45;&gt;hasSpatioTemporalPart -->
<g id="edge10" class="edge">
<title>hasSpatioTemporalDirectPart&#45;&gt;hasSpatioTemporalPart</title>
<path fill="none" stroke="#000000" d="M366.4719,-108.1686C365.1885,-115.869 363.6624,-125.0257 362.2361,-133.5834"/>
<polygon fill="none" stroke="#000000" points="358.7606,-133.1474 360.5689,-143.5867 365.6653,-134.2982 358.7606,-133.1474"/>
</g>
<!-- hasReferenceUnit -->
<g id="node8" class="node">
<title>hasReferenceUnit</title>
<g id="a_node8"><a xlink:href="http://emmo.info/emmo/middle/metrology#EMMO_67fc0a36_8dcb_4ffa_9a43_31074efa3296" xlink:title="hasReferenceUnit">
<polygon fill="#0079ba" stroke="#000000" points="307.5,-36 161.5,-36 161.5,0 307.5,0 307.5,-36"/>
<text text-anchor="middle" x="234.5" y="-14.3" font-family="Times,serif" font-size="14.00" fill="#ffffff">hasReferenceUnit</text>
</a>
</g>
</g>
<!-- hasReferenceUnit&#45;&gt;hasSpatialDirectPart -->
<g id="edge5" class="edge">
<title>hasReferenceUnit&#45;&gt;hasSpatialDirectPart</title>
<path fill="none" stroke="#000000" d="M213.8079,-36.1686C203.8052,-44.9515 191.645,-55.6288 180.8001,-65.1511"/>
<polygon fill="none" stroke="#000000" points="178.3906,-62.6091 173.1854,-71.8372 183.0092,-67.8692 178.3906,-62.6091"/>
</g>
<!-- hasTemporalDirectPart -->
<g id="node9" class="node">
<title>hasTemporalDirectPart</title>
<g id="a_node9"><a xlink:href="http://emmo.info/emmo/middle/reductionistic#EMMO_65a2c5b8_e4d8_4a51_b2f8_e55effc0547d" xlink:title="hasTemporalDirectPart">
<polygon fill="#0079ba" stroke="#000000" points="748.5,-108 564.5,-108 564.5,-72 748.5,-72 748.5,-108"/>
<text text-anchor="middle" x="656.5" y="-86.3" font-family="Times,serif" font-size="14.00" fill="#ffffff">hasTemporalDirectPart</text>
</a>
</g>
</g>
<!-- hasTemporalPart -->
<g id="node11" class="node">
<title>hasTemporalPart</title>
<g id="a_node11"><a xlink:href="http://emmo.info/emmo/top/physical#EMMO_7afbed84_7593_4a23_bd88_9d9c6b04e8f6" xlink:title="hasTemporalPart">
<polygon fill="#0079ba" stroke="#000000" points="726,-180 587,-180 587,-144 726,-144 726,-180"/>
<text text-anchor="middle" x="656.5" y="-158.3" font-family="Times,serif" font-size="14.00" fill="#ffffff">hasTemporalPart</text>
</a>
</g>
</g>
<!-- hasTemporalDirectPart&#45;&gt;hasTemporalPart -->
<g id="edge13" class="edge">
<title>hasTemporalDirectPart&#45;&gt;hasTemporalPart</title>
<path fill="none" stroke="#000000" d="M656.5,-108.1686C656.5,-115.869 656.5,-125.0257 656.5,-133.5834"/>
<polygon fill="none" stroke="#000000" points="653.0001,-133.5867 656.5,-143.5867 660.0001,-133.5868 653.0001,-133.5867"/>
</g>
<!-- hasMember -->
<g id="node10" class="node">
<title>hasMember</title>
<g id="a_node10"><a xlink:href="http://emmo.info/emmo/top/mereotopology#EMMO_6b7276a4_4b9d_440a_b577_0277539c0fc4" xlink:title="hasMember">
<polygon fill="#0079ba" stroke="#000000" points="569,-180 468,-180 468,-144 569,-144 569,-180"/>
<text text-anchor="middle" x="518.5" y="-158.3" font-family="Times,serif" font-size="14.00" fill="#ffffff">hasMember</text>
</a>
</g>
</g>
<!-- hasMember&#45;&gt;hasProperPart -->
<g id="edge7" class="edge">
<title>hasMember&#45;&gt;hasProperPart</title>
<path fill="none" stroke="#000000" d="M535.9116,-180.1686C544.021,-188.6306 553.8156,-198.8511 562.682,-208.1029"/>
<polygon fill="none" stroke="#000000" points="560.4079,-210.7885 569.854,-215.5867 565.4618,-205.9451 560.4079,-210.7885"/>
</g>
<!-- hasTemporalPart&#45;&gt;hasProperPart -->
<g id="edge9" class="edge">
<title>hasTemporalPart&#45;&gt;hasProperPart</title>
<path fill="none" stroke="#000000" d="M639.0884,-180.1686C630.979,-188.6306 621.1844,-198.8511 612.318,-208.1029"/>
<polygon fill="none" stroke="#000000" points="609.5382,-205.9451 605.146,-215.5867 614.5921,-210.7885 609.5382,-205.9451"/>
</g>
<!-- hasParticipant -->
<g id="node12" class="node">
<title>hasParticipant</title>
<g id="a_node12"><a xlink:href="http://emmo.info/emmo/middle/holistic#EMMO_ae2d1a96_bfa1_409a_a7d2_03d69e8a125a" xlink:title="hasParticipant">
<polygon fill="#0079ba" stroke="#000000" points="838,-252 717,-252 717,-216 838,-216 838,-252"/>
<text text-anchor="middle" x="777.5" y="-230.3" font-family="Times,serif" font-size="14.00" fill="#ffffff">hasParticipant</text>
</a>
</g>
</g>
<!-- hasParticipant&#45;&gt;hasPart -->
<g id="edge1" class="edge">
<title>hasParticipant&#45;&gt;hasPart</title>
<path fill="none" stroke="#000000" d="M746.9666,-252.1686C731.4899,-261.3779 712.5131,-272.6699 695.9437,-282.5294"/>
<polygon fill="none" stroke="#000000" points="693.8276,-279.7157 687.0236,-287.8372 697.4071,-285.7313 693.8276,-279.7157"/>
</g>
<!-- hasProperParticipant -->
<g id="node13" class="node">
<title>hasProperParticipant</title>
<g id="a_node13"><a xlink:href="http://emmo.info/emmo/middle/holistic#EMMO_c5aae418_1622_4d02_93c5_21159e28e6c1" xlink:title="hasProperParticipant">
<polygon fill="#0079ba" stroke="#000000" points="914.5,-180 744.5,-180 744.5,-144 914.5,-144 914.5,-180"/>
<text text-anchor="middle" x="829.5" y="-158.3" font-family="Times,serif" font-size="14.00" fill="#ffffff">hasProperParticipant</text>
</a>
</g>
</g>
<!-- hasProperParticipant&#45;&gt;hasProperPart -->
<g id="edge3" class="edge">
<title>hasProperParticipant&#45;&gt;hasProperPart</title>
<path fill="none" stroke="#000000" d="M768.7455,-180.0757C734.9594,-190.1278 692.7598,-202.683 657.5825,-213.149"/>
<polygon fill="none" stroke="#000000" points="656.4465,-209.8353 647.8598,-216.0417 658.4427,-216.5446 656.4465,-209.8353"/>
</g>
<!-- hasProperParticipant&#45;&gt;hasParticipant -->
<g id="edge2" class="edge">
<title>hasProperParticipant&#45;&gt;hasParticipant</title>
<path fill="none" stroke="#000000" d="M816.3782,-180.1686C810.4501,-188.3768 803.3271,-198.2394 796.8067,-207.2677"/>
<polygon fill="none" stroke="#000000" points="793.816,-205.4307 790.7985,-215.5867 799.4908,-209.5292 793.816,-205.4307"/>
</g>
<!-- key1 -->
<g id="node14" class="node">
<title>key1</title>
<text text-anchor="start" x="341.5" y="-13.8" font-family="Times,serif" font-size="14.00" fill="#000000">isA</text>
</g>
<!-- key2 -->
<g id="node15" class="node">
<title>key2</title>
<text text-anchor="start" x="422.5" y="-13.8" font-family="Times,serif" font-size="14.00" fill="#000000"> </text>
</g>
<!-- key1&#45;&gt;key2 -->
<g id="edge14" class="edge">
<title>key1:e&#45;&gt;key2:w</title>
<path fill="none" stroke="#000000" d="M366.5,-19C386.75,-19 394.1855,-19 410.431,-19"/>
<polygon fill="none" stroke="#000000" points="410.5,-22.5001 420.5,-19 410.5,-15.5001 410.5,-22.5001"/>
</g>
</g>
</svg>
