<?xml version="1.0" encoding="UTF-8" standalone="no"?>
<!DOCTYPE svg PUBLIC "-//W3C//DTD SVG 1.1//EN"
 "http://www.w3.org/Graphics/SVG/1.1/DTD/svg11.dtd">
<!-- Generated by graphviz version 2.40.1 (0)
 -->
<!-- Title: %3 Pages: 1 -->
<svg width="461pt" height="289pt"
 viewBox="0.00 0.00 461.34 289.00" xmlns="http://www.w3.org/2000/svg" xmlns:xlink="http://www.w3.org/1999/xlink">
<g id="graph0" class="graph" transform="scale(1 1) rotate(0) translate(4 285)">
<title>%3</title>
<polygon fill="#ffffff" stroke="transparent" points="-4,4 -4,-285 457.3443,-285 457.3443,4 -4,4"/>
<!-- Participant -->
<g id="node1" class="node">
<title>Participant</title>
<g id="a_node1"><a xlink:href="http://emmo.info/emmo/middle/holistic#EMMO_49804605_c0fe_4538_abda_f70ba1dc8a5d" xlink:title="Participant">
<ellipse fill="#ffffcc" stroke="#000000" cx="195.3443" cy="-191" rx="62.2891" ry="18"/>
<text text-anchor="middle" x="195.3443" y="-187.3" font-family="Times,serif" font-size="14.00" fill="#000000">Participant</text>
</a>
</g>
</g>
<!-- Process -->
<g id="node2" class="node">
<title>Process</title>
<g id="a_node2"><a xlink:href="http://emmo.info/emmo/middle/holistic#EMMO_43e9a05d_98af_41b4_92f6_00f79a09bfce" xlink:title="Process">
<ellipse fill="#ffffcc" stroke="#000000" stroke-width="2" cx="67.3443" cy="-191" rx="47.3916" ry="18"/>
<text text-anchor="middle" x="67.3443" y="-187.3" font-family="Times,serif" font-size="14.00" fill="#000000">Process</text>
</a>
</g>
</g>
<!-- Participant&#45;&gt;Process -->
<g id="edge6" class="edge">
<title>Participant&#45;&gt;Process</title>
<path fill="none" stroke="#ff0000" d="M149.7408,-178.6154C138.1659,-177.2118 126.591,-177.1329 115.0162,-178.3787"/>
<polygon fill="#ff0000" stroke="#ff0000" points="104.3551,-176.3489 114.7461,-178.4167 105.3335,-183.2802 104.3551,-176.3489"/>
</g>
<!-- Holistic -->
<g id="node5" class="node">
<title>Holistic</title>
<g id="a_node5"><a xlink:href="http://emmo.info/emmo/middle/holistic#EMMO_0277f24a_ea7f_4917_81b7_fb0406c8fc62" xlink:title="Holistic">
<ellipse fill="#ffc880" stroke="#000000" stroke-width="2" cx="131.3443" cy="-263" rx="47.3916" ry="18"/>
<text text-anchor="middle" x="131.3443" y="-259.3" font-family="Times,serif" font-size="14.00" fill="#000000">Holistic</text>
</a>
</g>
</g>
<!-- Participant&#45;&gt;Holistic -->
<g id="edge5" class="edge">
<title>Participant&#45;&gt;Holistic</title>
<path fill="none" stroke="#000000" d="M179.5241,-208.7978C171.6581,-217.6469 162.0222,-228.4873 153.4405,-238.1417"/>
<polygon fill="none" stroke="#000000" points="150.5696,-236.1034 146.5418,-245.9028 155.8014,-240.7539 150.5696,-236.1034"/>
</g>
<!-- Process&#45;&gt;Participant -->
<g id="edge4" class="edge">
<title>Process&#45;&gt;Participant</title>
<path fill="none" stroke="#ff0000" d="M104.8443,-202.1855C116.4192,-204.2074 127.994,-204.9046 139.5689,-204.2771"/>
<polygon fill="#ff0000" stroke="#ff0000" points="140.085,-207.7453 149.7408,-203.3846 139.4731,-200.7721 140.085,-207.7453"/>
</g>
<!-- Process&#45;&gt;Holistic -->
<g id="edge3" class="edge">
<title>Process&#45;&gt;Holistic</title>
<path fill="none" stroke="#000000" d="M82.5114,-208.063C90.4448,-216.9881 100.308,-228.0841 109.0889,-237.9627"/>
<polygon fill="none" stroke="#000000" points="106.5819,-240.4105 115.8415,-245.5593 111.8137,-235.7599 106.5819,-240.4105"/>
</g>
<!-- Component -->
<g id="node3" class="node">
<title>Component</title>
<g id="a_node3"><a xlink:href="http://emmo.info/emmo/middle/manufacturing#EMMO_494b372c_cfdf_47d3_a4de_5e037c540de8" xlink:title="Component">
<ellipse fill="#ffffcc" stroke="#000000" cx="64.3443" cy="-32.5" rx="64.189" ry="18"/>
<text text-anchor="middle" x="64.3443" y="-28.8" font-family="Times,serif" font-size="14.00" fill="#000000">Component</text>
</a>
</g>
</g>
<!-- Engineered -->
<g id="node4" class="node">
<title>Engineered</title>
<g id="a_node4"><a xlink:href="http://emmo.info/emmo/middle/manufacturing#EMMO_86ca9b93_1183_4b65_81b8_c0fcd3bba5ad" xlink:title="Engineered">
<ellipse fill="#ffffcc" stroke="#000000" cx="128.3443" cy="-119" rx="64.189" ry="18"/>
<text text-anchor="middle" x="128.3443" y="-115.3" font-family="Times,serif" font-size="14.00" fill="#000000">Engineered</text>
</a>
</g>
</g>
<!-- Component&#45;&gt;Engineered -->
<g id="edge7" class="edge">
<title>Component&#45;&gt;Engineered</title>
<path fill="none" stroke="#000000" d="M77.6051,-50.4229C86.7012,-62.7168 98.9164,-79.2263 109.082,-92.9658"/>
<polygon fill="none" stroke="#000000" points="106.339,-95.143 115.1004,-101.1001 111.9662,-90.9795 106.339,-95.143"/>
</g>
<!-- Engineered&#45;&gt;Participant -->
<g id="edge1" class="edge">
<title>Engineered&#45;&gt;Participant</title>
<path fill="none" stroke="#000000" d="M144.5631,-136.4292C152.814,-145.2959 162.9909,-156.2322 172.0624,-165.9806"/>
<polygon fill="none" stroke="#000000" points="169.668,-168.5454 179.0426,-173.4818 174.7925,-163.7767 169.668,-168.5454"/>
</g>
<!-- System -->
<g id="node6" class="node">
<title>System</title>
<g id="a_node6"><a xlink:href="http://emmo.info/emmo/middle/manufacturing#EMMO_e775e341_5687_4d45_b50c_379b098a8c26" xlink:title="System">
<ellipse fill="#ffc880" stroke="#000000" cx="192.3443" cy="-32.5" rx="45.4919" ry="18"/>
<text text-anchor="middle" x="192.3443" y="-28.8" font-family="Times,serif" font-size="14.00" fill="#000000">System</text>
</a>
</g>
</g>
<!-- System&#45;&gt;Engineered -->
<g id="edge2" class="edge">
<title>System&#45;&gt;Engineered</title>
<path fill="none" stroke="#000000" d="M179.3929,-50.0046C170.2582,-62.3508 157.8673,-79.0977 147.5809,-93.0005"/>
<polygon fill="none" stroke="#000000" points="144.6303,-91.1039 141.496,-101.2246 150.2575,-95.2674 144.6303,-91.1039"/>
</g>
<!-- Semiotic -->
<g id="node7" class="node">
<title>Semiotic</title>
<g id="a_node7"><a xlink:href="http://emmo.info/emmo/top/semiotics#EMMO_b803f122_4acb_4064_9d71_c1e5fd091fc9" xlink:title="Semiotic">
<ellipse fill="#ffc880" stroke="#000000" stroke-width="2" cx="262.3443" cy="-119" rx="51.9908" ry="18"/>
<text text-anchor="middle" x="262.3443" y="-115.3" font-family="Times,serif" font-size="14.00" fill="#000000">Semiotic</text>
</a>
</g>
</g>
<!-- Semiotic&#45;&gt;Participant -->
<g id="edge8" class="edge">
<title>Semiotic&#45;&gt;Participant</title>
<path fill="none" stroke="#000000" d="M246.1255,-136.4292C237.8745,-145.2959 227.6976,-156.2322 218.6262,-165.9806"/>
<polygon fill="none" stroke="#000000" points="215.8961,-163.7767 211.646,-173.4818 221.0206,-168.5454 215.8961,-163.7767"/>
</g>
<!-- key1 -->
<g id="node8" class="node">
<title>key1</title>
<text text-anchor="start" x="348.3443" y="-47.3" font-family="Times,serif" font-size="14.00" fill="#000000">isA</text>
<text text-anchor="start" x="266.3443" y="-28.3" font-family="Times,serif" font-size="14.00" fill="#000000">hasParticipant</text>
<text text-anchor="start" x="318.3443" y="-9.3" font-family="Times,serif" font-size="14.00" fill="#000000">inverse</text>
</g>
<!-- key2 -->
<g id="node9" class="node">
<title>key2</title>
<text text-anchor="start" x="424.3443" y="-47.3" font-family="Times,serif" font-size="14.00" fill="#000000"> </text>
<text text-anchor="start" x="424.3443" y="-28.3" font-family="Times,serif" font-size="14.00" fill="#000000"> </text>
<text text-anchor="start" x="424.3443" y="-9.3" font-family="Times,serif" font-size="14.00" fill="#000000"> </text>
</g>
<!-- key1&#45;&gt;key2 -->
<g id="edge9" class="edge">
<title>key1:e&#45;&gt;key2:w</title>
<path fill="none" stroke="#000000" d="M373.3443,-13.5C391.2089,-13.5 398.0826,-13.5 411.9973,-13.5"/>
<polygon fill="#000000" stroke="#000000" points="422.3443,-17 412.3443,-13.5001 422.3443,-10 422.3443,-17"/>
</g>
<!-- key1&#45;&gt;key2 -->
<g id="edge10" class="edge">
<title>key1:e&#45;&gt;key2:w</title>
<path fill="none" stroke="#ff0000" d="M373.3443,-33.5C391.2089,-33.5 398.0826,-33.5 411.9973,-33.5"/>
<polygon fill="#ff0000" stroke="#ff0000" points="412.3443,-37.0001 422.3443,-33.5 412.3443,-30.0001 412.3443,-37.0001"/>
</g>
<!-- key1&#45;&gt;key2 -->
<g id="edge11" class="edge">
<title>key1:e&#45;&gt;key2:w</title>
<path fill="none" stroke="#000000" d="M373.3443,-52.5C391.2089,-52.5 398.0826,-52.5 411.9973,-52.5"/>
<polygon fill="none" stroke="#000000" points="412.3443,-56.0001 422.3443,-52.5 412.3443,-49.0001 412.3443,-56.0001"/>
</g>
</g>
</svg>
