<?xml version="1.0" encoding="UTF-8" standalone="no"?>
<!DOCTYPE svg PUBLIC "-//W3C//DTD SVG 1.1//EN"
 "http://www.w3.org/Graphics/SVG/1.1/DTD/svg11.dtd">
<!-- Generated by graphviz version 2.40.1 (0)
 -->
<!-- Title: %3 Pages: 1 -->
<svg width="360pt" height="188pt"
 viewBox="0.00 0.00 359.99 188.00" xmlns="http://www.w3.org/2000/svg" xmlns:xlink="http://www.w3.org/1999/xlink">
<g id="graph0" class="graph" transform="scale(1 1) rotate(0) translate(4 184)">
<title>%3</title>
<polygon fill="#ffffff" stroke="transparent" points="-4,4 -4,-184 355.9908,-184 355.9908,4 -4,4"/>
<!-- MathematicalModel -->
<g id="node1" class="node">
<title>MathematicalModel</title>
<g id="a_node1"><a xlink:href="http://emmo.info/emmo/middle/models#EMMO_f7ed665b_c2e1_42bc_889b_6b42ed3a36f0" xlink:title="MathematicalModel">
<ellipse fill="#ffc880" stroke="#000000" stroke-width="2" cx="103.9908" cy="-18" rx="103.9815" ry="18"/>
<text text-anchor="middle" x="103.9908" y="-14.3" font-family="Times,serif" font-size="14.00" fill="#000000">MathematicalModel</text>
</a>
</g>
</g>
<!-- Model -->
<g id="node3" class="node">
<title>Model</title>
<g id="a_node3"><a xlink:href="http://emmo.info/emmo/middle/models#EMMO_939483b1_0148_43d1_8b35_851d2cd5d939" xlink:title="Model">
<ellipse fill="#ffc880" stroke="#000000" cx="103.9908" cy="-90" rx="39.7935" ry="18"/>
<text text-anchor="middle" x="103.9908" y="-86.3" font-family="Times,serif" font-size="14.00" fill="#000000">Model</text>
</a>
</g>
</g>
<!-- MathematicalModel&#45;&gt;Model -->
<g id="edge2" class="edge">
<title>MathematicalModel&#45;&gt;Model</title>
<path fill="none" stroke="#000000" d="M103.9908,-36.1686C103.9908,-43.869 103.9908,-53.0257 103.9908,-61.5834"/>
<polygon fill="none" stroke="#000000" points="100.4909,-61.5867 103.9908,-71.5867 107.4909,-61.5868 100.4909,-61.5867"/>
</g>
<!-- Icon -->
<g id="node2" class="node">
<title>Icon</title>
<g id="a_node2"><a xlink:href="http://emmo.info/emmo/top/semiotics#EMMO_d7788d1a_020d_4c78_85a1_13563fcec168" xlink:title="Icon">
<ellipse fill="#ffffcc" stroke="#000000" stroke-width="2" cx="103.9908" cy="-162" rx="31.3957" ry="18"/>
<text text-anchor="middle" x="103.9908" y="-158.3" font-family="Times,serif" font-size="14.00" fill="#000000">Icon</text>
</a>
</g>
</g>
<!-- Model&#45;&gt;Icon -->
<g id="edge1" class="edge">
<title>Model&#45;&gt;Icon</title>
<path fill="none" stroke="#000000" d="M103.9908,-108.1686C103.9908,-115.869 103.9908,-125.0257 103.9908,-133.5834"/>
<polygon fill="none" stroke="#000000" points="100.4909,-133.5867 103.9908,-143.5867 107.4909,-133.5868 100.4909,-133.5867"/>
</g>
<!-- key1 -->
<g id="node4" class="node">
<title>key1</title>
<text text-anchor="start" x="241.9908" y="-13.8" font-family="Times,serif" font-size="14.00" fill="#000000">isA</text>
</g>
<!-- key2 -->
<g id="node5" class="node">
<title>key2</title>
<text text-anchor="start" x="322.9908" y="-13.8" font-family="Times,serif" font-size="14.00" fill="#000000"> </text>
</g>
<!-- key1&#45;&gt;key2 -->
<g id="edge3" class="edge">
<title>key1:e&#45;&gt;key2:w</title>
<path fill="none" stroke="#000000" d="M266.9908,-19C287.2408,-19 294.6763,-19 310.9218,-19"/>
<polygon fill="none" stroke="#000000" points="310.9908,-22.5001 320.9908,-19 310.9907,-15.5001 310.9908,-22.5001"/>
</g>
</g>
</svg>
