<?xml version="1.0" encoding="UTF-8" standalone="no"?>
<!DOCTYPE svg PUBLIC "-//W3C//DTD SVG 1.1//EN"
 "http://www.w3.org/Graphics/SVG/1.1/DTD/svg11.dtd">
<!-- Generated by graphviz version 2.40.1 (0)
 -->
<!-- Title: %3 Pages: 1 -->
<svg width="408pt" height="188pt"
 viewBox="0.00 0.00 408.04 188.00" xmlns="http://www.w3.org/2000/svg" xmlns:xlink="http://www.w3.org/1999/xlink">
<g id="graph0" class="graph" transform="scale(1 1) rotate(0) translate(4 184)">
<title>%3</title>
<polygon fill="#ffffff" stroke="transparent" points="-4,4 -4,-184 404.0386,-184 404.0386,4 -4,4"/>
<!-- Interpreter -->
<g id="node1" class="node">
<title>Interpreter</title>
<g id="a_node1"><a xlink:href="http://emmo.info/emmo/top/semiotics#EMMO_0527413c_b286_4e9c_b2d0_03fb2a038dee" xlink:title="Interpreter">
<ellipse fill="#ffffcc" stroke="#000000" stroke-width="2" cx="128.0386" cy="-162" rx="63.8893" ry="18"/>
<text text-anchor="middle" x="128.0386" y="-158.3" font-family="Times,serif" font-size="14.00" fill="#000000">Interpreter</text>
</a>
</g>
</g>
<!-- MeasurementInstrument -->
<g id="node2" class="node">
<title>MeasurementInstrument</title>
<g id="a_node2"><a xlink:href="http://emmo.info/emmo/middle/properties#EMMO_f2d5d3ad_2e00_417f_8849_686f3988d929" xlink:title="MeasurementInstrument">
<ellipse fill="#ffffcc" stroke="#000000" cx="128.0386" cy="-18" rx="128.0773" ry="18"/>
<text text-anchor="middle" x="128.0386" y="-14.3" font-family="Times,serif" font-size="14.00" fill="#000000">MeasurementInstrument</text>
</a>
</g>
</g>
<!-- Observer -->
<g id="node3" class="node">
<title>Observer</title>
<g id="a_node3"><a xlink:href="http://emmo.info/emmo/middle/properties#EMMO_1b52ee70_121e_4d8d_8419_3f97cd0bd89c" xlink:title="Observer">
<ellipse fill="#ffffcc" stroke="#000000" cx="128.0386" cy="-90" rx="53.8905" ry="18"/>
<text text-anchor="middle" x="128.0386" y="-86.3" font-family="Times,serif" font-size="14.00" fill="#000000">Observer</text>
</a>
</g>
</g>
<!-- MeasurementInstrument&#45;&gt;Observer -->
<g id="edge2" class="edge">
<title>MeasurementInstrument&#45;&gt;Observer</title>
<path fill="none" stroke="#000000" d="M128.0386,-36.1686C128.0386,-43.869 128.0386,-53.0257 128.0386,-61.5834"/>
<polygon fill="none" stroke="#000000" points="124.5387,-61.5867 128.0386,-71.5867 131.5387,-61.5868 124.5387,-61.5867"/>
</g>
<!-- Observer&#45;&gt;Interpreter -->
<g id="edge1" class="edge">
<title>Observer&#45;&gt;Interpreter</title>
<path fill="none" stroke="#000000" d="M128.0386,-108.1686C128.0386,-115.869 128.0386,-125.0257 128.0386,-133.5834"/>
<polygon fill="none" stroke="#000000" points="124.5387,-133.5867 128.0386,-143.5867 131.5387,-133.5868 124.5387,-133.5867"/>
</g>
<!-- key1 -->
<g id="node4" class="node">
<title>key1</title>
<text text-anchor="start" x="290.0386" y="-13.8" font-family="Times,serif" font-size="14.00" fill="#000000">isA</text>
</g>
<!-- key2 -->
<g id="node5" class="node">
<title>key2</title>
<text text-anchor="start" x="371.0386" y="-13.8" font-family="Times,serif" font-size="14.00" fill="#000000"> </text>
</g>
<!-- key1&#45;&gt;key2 -->
<g id="edge3" class="edge">
<title>key1:e&#45;&gt;key2:w</title>
<path fill="none" stroke="#000000" d="M315.0386,-19C335.2886,-19 342.7242,-19 358.9697,-19"/>
<polygon fill="none" stroke="#000000" points="359.0387,-22.5001 369.0386,-19 359.0386,-15.5001 359.0387,-22.5001"/>
</g>
</g>
</svg>
