<?xml version="1.0" encoding="UTF-8" standalone="no"?>
<!DOCTYPE svg PUBLIC "-//W3C//DTD SVG 1.1//EN"
 "http://www.w3.org/Graphics/SVG/1.1/DTD/svg11.dtd">
<!-- Generated by graphviz version 2.40.1 (0)
 -->
<!-- Title: %3 Pages: 1 -->
<svg width="764pt" height="116pt"
 viewBox="0.00 0.00 764.40 116.00" xmlns="http://www.w3.org/2000/svg" xmlns:xlink="http://www.w3.org/1999/xlink">
<g id="graph0" class="graph" transform="scale(1 1) rotate(0) translate(4 112)">
<title>%3</title>
<polygon fill="#ffffff" stroke="transparent" points="-4,4 -4,-112 760.3956,-112 760.3956,4 -4,4"/>
<!-- MathematicalSymbol -->
<g id="node1" class="node">
<title>MathematicalSymbol</title>
<g id="a_node1"><a xlink:href="http://emmo.info/emmo/middle/math#EMMO_5be83f9c_a4ba_4b9a_be1a_5bfc6e891231" xlink:title="MathematicalSymbol">
<ellipse fill="#ffc880" stroke="#000000" stroke-width="2" cx="323.3956" cy="-90" rx="109.6807" ry="18"/>
<text text-anchor="middle" x="323.3956" y="-86.3" font-family="Times,serif" font-size="14.00" fill="#000000">MathematicalSymbol</text>
</a>
</g>
</g>
<!-- Number -->
<g id="node2" class="node">
<title>Number</title>
<g id="a_node2"><a xlink:href="http://emmo.info/emmo/middle/math#EMMO_21f56795_ee72_4858_b571_11cfaa59c1a8" xlink:title="Number">
<ellipse fill="#ffffcc" stroke="#000000" stroke-width="2" cx="49.3956" cy="-18" rx="49.2915" ry="18"/>
<text text-anchor="middle" x="49.3956" y="-14.3" font-family="Times,serif" font-size="14.00" fill="#000000">Number</text>
</a>
</g>
</g>
<!-- Number&#45;&gt;MathematicalSymbol -->
<g id="edge4" class="edge">
<title>Number&#45;&gt;MathematicalSymbol</title>
<path fill="none" stroke="#000000" d="M86.7447,-29.9278C93.5938,-32.0192 100.6947,-34.1242 107.3956,-36 154.7788,-49.2643 208.4465,-62.689 250.4332,-72.835"/>
<polygon fill="none" stroke="#000000" points="249.7553,-76.2717 260.2968,-75.2102 251.3941,-69.4663 249.7553,-76.2717"/>
</g>
<!-- MathematicalOperator -->
<g id="node3" class="node">
<title>MathematicalOperator</title>
<g id="a_node3"><a xlink:href="http://emmo.info/emmo/top/math#EMMO_f6d0c26a_98b6_4cf8_8632_aa259131faaa" xlink:title="MathematicalOperator">
<ellipse fill="#ffffcc" stroke="#000000" stroke-width="2" cx="234.3956" cy="-18" rx="117.7793" ry="18"/>
<text text-anchor="middle" x="234.3956" y="-14.3" font-family="Times,serif" font-size="14.00" fill="#000000">MathematicalOperator</text>
</a>
</g>
</g>
<!-- MathematicalOperator&#45;&gt;MathematicalSymbol -->
<g id="edge3" class="edge">
<title>MathematicalOperator&#45;&gt;MathematicalSymbol</title>
<path fill="none" stroke="#000000" d="M256.3956,-35.7978C267.5208,-44.7979 281.192,-55.8577 293.2775,-65.6348"/>
<polygon fill="none" stroke="#000000" points="291.3644,-68.589 301.3402,-72.1575 295.7671,-63.1469 291.3644,-68.589"/>
</g>
<!-- Equals -->
<g id="node4" class="node">
<title>Equals</title>
<g id="a_node4"><a xlink:href="http://emmo.info/emmo/top/math#EMMO_535d75a4_1972_40bc_88c6_ca566386934f" xlink:title="Equals">
<ellipse fill="#ffc880" stroke="#000000" cx="412.3956" cy="-18" rx="42.4939" ry="18"/>
<text text-anchor="middle" x="412.3956" y="-14.3" font-family="Times,serif" font-size="14.00" fill="#000000">Equals</text>
</a>
</g>
</g>
<!-- Equals&#45;&gt;MathematicalSymbol -->
<g id="edge1" class="edge">
<title>Equals&#45;&gt;MathematicalSymbol</title>
<path fill="none" stroke="#000000" d="M392.6436,-33.9791C381.0235,-43.3797 366.1022,-55.4508 353.088,-65.9792"/>
<polygon fill="none" stroke="#000000" points="350.8511,-63.2869 345.2779,-72.2975 355.2537,-68.7291 350.8511,-63.2869"/>
</g>
<!-- MetricPrefix -->
<g id="node5" class="node">
<title>MetricPrefix</title>
<g id="a_node5"><a xlink:href="http://emmo.info/emmo/middle/metrology#EMMO_7d2afa66_ae9e_4095_a9bf_421d0be401b6" xlink:title="MetricPrefix">
<ellipse fill="#ffffcc" stroke="#000000" stroke-width="2" cx="542.3956" cy="-18" rx="69.5877" ry="18"/>
<text text-anchor="middle" x="542.3956" y="-14.3" font-family="Times,serif" font-size="14.00" fill="#000000">MetricPrefix</text>
</a>
</g>
</g>
<!-- MetricPrefix&#45;&gt;MathematicalSymbol -->
<g id="edge2" class="edge">
<title>MetricPrefix&#45;&gt;MathematicalSymbol</title>
<path fill="none" stroke="#000000" d="M499.1283,-32.2249C465.7149,-43.2101 419.122,-58.5283 382.3073,-70.6318"/>
<polygon fill="none" stroke="#000000" points="381.0951,-67.3459 372.6885,-73.7941 383.2814,-73.9958 381.0951,-67.3459"/>
</g>
<!-- key1 -->
<g id="node6" class="node">
<title>key1</title>
<text text-anchor="start" x="646.3956" y="-13.8" font-family="Times,serif" font-size="14.00" fill="#000000">isA</text>
</g>
<!-- key2 -->
<g id="node7" class="node">
<title>key2</title>
<text text-anchor="start" x="727.3956" y="-13.8" font-family="Times,serif" font-size="14.00" fill="#000000"> </text>
</g>
<!-- key1&#45;&gt;key2 -->
<g id="edge5" class="edge">
<title>key1:e&#45;&gt;key2:w</title>
<path fill="none" stroke="#000000" d="M671.3956,-19C691.6456,-19 699.0812,-19 715.3266,-19"/>
<polygon fill="none" stroke="#000000" points="715.3957,-22.5001 725.3956,-19 715.3956,-15.5001 715.3957,-22.5001"/>
</g>
</g>
</svg>
