<?xml version="1.0" encoding="UTF-8" standalone="no"?>
<!DOCTYPE svg PUBLIC "-//W3C//DTD SVG 1.1//EN"
 "http://www.w3.org/Graphics/SVG/1.1/DTD/svg11.dtd">
<!-- Generated by graphviz version 2.40.1 (0)
 -->
<!-- Title: %3 Pages: 1 -->
<svg width="1390pt" height="217pt"
 viewBox="0.00 0.00 1389.69 217.00" xmlns="http://www.w3.org/2000/svg" xmlns:xlink="http://www.w3.org/1999/xlink">
<g id="graph0" class="graph" transform="scale(1 1) rotate(0) translate(4 213)">
<title>%3</title>
<polygon fill="#ffffff" stroke="transparent" points="-4,4 -4,-213 1385.6897,-213 1385.6897,4 -4,4"/>
<!-- Constant -->
<g id="node1" class="node">
<title>Constant</title>
<g id="a_node1"><a xlink:href="http://emmo.info/emmo/middle/math#EMMO_ae15fb4f_8e4d_41de_a0f9_3997f89ba6a2" xlink:title="Constant">
<ellipse fill="#ffffcc" stroke="#000000" cx="53.2953" cy="-32.5" rx="53.0913" ry="18"/>
<text text-anchor="middle" x="53.2953" y="-28.8" font-family="Times,serif" font-size="14.00" fill="#000000">Constant</text>
</a>
</g>
</g>
<!-- Variable -->
<g id="node7" class="node">
<title>Variable</title>
<g id="a_node7"><a xlink:href="http://emmo.info/emmo/middle/math#EMMO_1eed0732_e3f1_4b2c_a9c4_b4e75eeb5895" xlink:title="Variable">
<ellipse fill="#ffffcc" stroke="#000000" cx="180.2953" cy="-119" rx="48.9926" ry="18"/>
<text text-anchor="middle" x="180.2953" y="-115.3" font-family="Times,serif" font-size="14.00" fill="#000000">Variable</text>
</a>
</g>
</g>
<!-- Constant&#45;&gt;Variable -->
<g id="edge3" class="edge">
<title>Constant&#45;&gt;Variable</title>
<path fill="none" stroke="#000000" d="M77.183,-48.77C97.3546,-62.5089 126.4057,-82.2957 148.5343,-97.3676"/>
<polygon fill="none" stroke="#000000" points="146.7084,-100.3586 156.9437,-103.0952 150.649,-94.5731 146.7084,-100.3586"/>
</g>
<!-- Numerical -->
<g id="node10" class="node">
<title>Numerical</title>
<g id="a_node10"><a xlink:href="http://emmo.info/emmo/middle/math#EMMO_4ce76d7f_03f8_45b6_9003_90052a79bfaa" xlink:title="Numerical">
<ellipse fill="#ffffcc" stroke="#000000" cx="307.2953" cy="-119" rx="59.5901" ry="18"/>
<text text-anchor="middle" x="307.2953" y="-115.3" font-family="Times,serif" font-size="14.00" fill="#000000">Numerical</text>
</a>
</g>
</g>
<!-- Constant&#45;&gt;Numerical -->
<g id="edge4" class="edge">
<title>Constant&#45;&gt;Numerical</title>
<path fill="none" stroke="#ffa500" stroke-dasharray="5,2" d="M80.6481,-48.1313C91.5168,-53.9362 104.2751,-60.2561 116.2953,-65 129.1685,-70.0806 201.0987,-90.0493 252.897,-104.2202"/>
<polygon fill="#ffa500" stroke="#ffa500" points="261.7175,-110.2585 252.9936,-104.2465 263.5626,-103.506 261.7175,-110.2585"/>
</g>
<!-- Formula -->
<g id="node2" class="node">
<title>Formula</title>
<g id="a_node2"><a xlink:href="http://emmo.info/emmo/middle/math#EMMO_88470739_03d3_4c47_a03e_b30a1288d50c" xlink:title="Formula">
<ellipse fill="#ffffcc" stroke="#000000" stroke-width="2" cx="434.2953" cy="-119" rx="49.2915" ry="18"/>
<text text-anchor="middle" x="434.2953" y="-115.3" font-family="Times,serif" font-size="14.00" fill="#000000">Formula</text>
</a>
</g>
</g>
<!-- Mathematical -->
<g id="node14" class="node">
<title>Mathematical</title>
<g id="a_node14"><a xlink:href="http://emmo.info/emmo/middle/math#EMMO_54ee6b5e_5261_44a8_86eb_5717e7fdb9d0" xlink:title="Mathematical">
<ellipse fill="#ffffcc" stroke="#000000" stroke-width="2" cx="727.2953" cy="-191" rx="75.2868" ry="18"/>
<text text-anchor="middle" x="727.2953" y="-187.3" font-family="Times,serif" font-size="14.00" fill="#000000">Mathematical</text>
</a>
</g>
</g>
<!-- Formula&#45;&gt;Mathematical -->
<g id="edge12" class="edge">
<title>Formula&#45;&gt;Mathematical</title>
<path fill="none" stroke="#000000" d="M471.3039,-130.9392C478.2518,-133.0514 485.4749,-135.1608 492.2953,-137 548.5191,-152.1612 613.0278,-166.79 660.2168,-176.9884"/>
<polygon fill="none" stroke="#000000" points="659.5019,-180.4146 670.0144,-179.096 660.9741,-173.5712 659.5019,-180.4146"/>
</g>
<!-- MathematicalSymbol -->
<g id="node3" class="node">
<title>MathematicalSymbol</title>
<g id="a_node3"><a xlink:href="http://emmo.info/emmo/middle/math#EMMO_5be83f9c_a4ba_4b9a_be1a_5bfc6e891231" xlink:title="MathematicalSymbol">
<ellipse fill="#ffc880" stroke="#000000" stroke-width="2" cx="611.2953" cy="-119" rx="109.6807" ry="18"/>
<text text-anchor="middle" x="611.2953" y="-115.3" font-family="Times,serif" font-size="14.00" fill="#000000">MathematicalSymbol</text>
</a>
</g>
</g>
<!-- MathematicalSymbol&#45;&gt;Mathematical -->
<g id="edge5" class="edge">
<title>MathematicalSymbol&#45;&gt;Mathematical</title>
<path fill="none" stroke="#000000" d="M639.3756,-136.4292C654.8772,-146.0508 674.3053,-158.1097 690.9534,-168.443"/>
<polygon fill="none" stroke="#000000" points="689.5316,-171.6798 699.8738,-173.9798 693.2231,-165.7323 689.5316,-171.6798"/>
</g>
<!-- Vector -->
<g id="node4" class="node">
<title>Vector</title>
<g id="a_node4"><a xlink:href="http://emmo.info/emmo/middle/math#EMMO_06658d8d_dcde_4fc9_aae1_17f71c0bcdec" xlink:title="Vector">
<ellipse fill="#ffffcc" stroke="#000000" cx="951.2953" cy="-32.5" rx="40.8928" ry="18"/>
<text text-anchor="middle" x="951.2953" y="-28.8" font-family="Times,serif" font-size="14.00" fill="#000000">Vector</text>
</a>
</g>
</g>
<!-- Array -->
<g id="node8" class="node">
<title>Array</title>
<g id="a_node8"><a xlink:href="http://emmo.info/emmo/top/math#EMMO_28fbea28_2204_4613_87ff_6d877b855fcd" xlink:title="Array">
<ellipse fill="#ffffcc" stroke="#000000" cx="1002.2953" cy="-119" rx="37.0935" ry="18"/>
<text text-anchor="middle" x="1002.2953" y="-115.3" font-family="Times,serif" font-size="14.00" fill="#000000">Array</text>
</a>
</g>
</g>
<!-- Vector&#45;&gt;Array -->
<g id="edge10" class="edge">
<title>Vector&#45;&gt;Array</title>
<path fill="none" stroke="#000000" d="M961.6159,-50.0046C968.8742,-62.3153 978.7124,-79.0015 986.8954,-92.8805"/>
<polygon fill="none" stroke="#000000" points="983.8961,-94.6849 991.99,-101.5215 989.926,-91.1296 983.8961,-94.6849"/>
</g>
<!-- MathematicalModel -->
<g id="node5" class="node">
<title>MathematicalModel</title>
<g id="a_node5"><a xlink:href="http://emmo.info/emmo/middle/models#EMMO_f7ed665b_c2e1_42bc_889b_6b42ed3a36f0" xlink:title="MathematicalModel">
<ellipse fill="#ffc880" stroke="#000000" stroke-width="2" cx="843.2953" cy="-119" rx="103.9815" ry="18"/>
<text text-anchor="middle" x="843.2953" y="-115.3" font-family="Times,serif" font-size="14.00" fill="#000000">MathematicalModel</text>
</a>
</g>
</g>
<!-- MathematicalModel&#45;&gt;Mathematical -->
<g id="edge15" class="edge">
<title>MathematicalModel&#45;&gt;Mathematical</title>
<path fill="none" stroke="#000000" d="M815.2149,-136.4292C799.7134,-146.0508 780.2853,-158.1097 763.6371,-168.443"/>
<polygon fill="none" stroke="#000000" points="761.3674,-165.7323 754.7168,-173.9798 765.059,-171.6798 761.3674,-165.7323"/>
</g>
<!-- Unknown -->
<g id="node6" class="node">
<title>Unknown</title>
<g id="a_node6"><a xlink:href="http://emmo.info/emmo/middle/math#EMMO_fe7e56ce_118b_4243_9aad_20eb9f4f31f6" xlink:title="Unknown">
<ellipse fill="#ffffcc" stroke="#000000" cx="180.2953" cy="-32.5" rx="55.4913" ry="18"/>
<text text-anchor="middle" x="180.2953" y="-28.8" font-family="Times,serif" font-size="14.00" fill="#000000">Unknown</text>
</a>
</g>
</g>
<!-- Unknown&#45;&gt;Variable -->
<g id="edge11" class="edge">
<title>Unknown&#45;&gt;Variable</title>
<path fill="none" stroke="#000000" d="M180.2953,-50.8444C180.2953,-62.3901 180.2953,-77.528 180.2953,-90.6039"/>
<polygon fill="none" stroke="#000000" points="176.7954,-90.9786 180.2953,-100.9786 183.7954,-90.9787 176.7954,-90.9786"/>
</g>
<!-- Variable&#45;&gt;Mathematical -->
<g id="edge13" class="edge">
<title>Variable&#45;&gt;Mathematical</title>
<path fill="none" stroke="#000000" d="M212.0046,-132.6766C217.7037,-134.3115 223.6185,-135.817 229.2953,-137 372.5829,-166.8601 543.1538,-180.9406 642.9756,-186.9871"/>
<polygon fill="none" stroke="#000000" points="642.8162,-190.4837 653.0059,-187.582 643.2307,-183.496 642.8162,-190.4837"/>
</g>
<!-- Variable&#45;&gt;Mathematical -->
<g id="edge14" class="edge">
<title>Variable&#45;&gt;Mathematical</title>
<path fill="none" stroke="#ffa500" stroke-dasharray="5,2" d="M219.6589,-129.7298C228.7406,-132.4504 238.3156,-135.1287 247.2953,-137 384.6461,-165.6229 547.0662,-179.7467 643.4552,-186.1936"/>
<polygon fill="#ffa500" stroke="#ffa500" points="653.4948,-190.3606 643.7457,-186.2126 653.9536,-183.3756 653.4948,-190.3606"/>
</g>
<!-- Array&#45;&gt;Mathematical -->
<g id="edge9" class="edge">
<title>Array&#45;&gt;Mathematical</title>
<path fill="none" stroke="#000000" d="M973.8082,-130.8683C968.0622,-133.0573 962.0261,-135.2129 956.2953,-137 903.0724,-153.597 841.5086,-167.8459 795.6261,-177.5329"/>
<polygon fill="none" stroke="#000000" points="794.8604,-174.1173 785.789,-179.5908 796.2938,-180.969 794.8604,-174.1173"/>
</g>
<!-- Parameter -->
<g id="node9" class="node">
<title>Parameter</title>
<g id="a_node9"><a xlink:href="http://emmo.info/emmo/middle/math#EMMO_d1d436e7_72fc_49cd_863b_7bfb4ba5276a" xlink:title="Parameter">
<ellipse fill="#ffffcc" stroke="#000000" cx="313.2953" cy="-32.5" rx="59.5901" ry="18"/>
<text text-anchor="middle" x="313.2953" y="-28.8" font-family="Times,serif" font-size="14.00" fill="#000000">Parameter</text>
</a>
</g>
</g>
<!-- Parameter&#45;&gt;Variable -->
<g id="edge2" class="edge">
<title>Parameter&#45;&gt;Variable</title>
<path fill="none" stroke="#000000" d="M287.9659,-48.9736C266.7137,-62.7955 236.2127,-82.6327 213.0961,-97.6671"/>
<polygon fill="none" stroke="#000000" points="211.1075,-94.7853 204.6327,-103.1715 214.924,-100.6534 211.1075,-94.7853"/>
</g>
<!-- Numerical&#45;&gt;Mathematical -->
<g id="edge6" class="edge">
<title>Numerical&#45;&gt;Mathematical</title>
<path fill="none" stroke="#000000" d="M351.3082,-131.1999C359.5752,-133.2869 368.1725,-135.3203 376.2953,-137 469.665,-156.3079 578.3136,-171.9941 649.7098,-181.3884"/>
<polygon fill="none" stroke="#000000" points="649.598,-184.9035 659.9672,-182.7285 650.5049,-177.9625 649.598,-184.9035"/>
</g>
<!-- PhysicalQuantity -->
<g id="node11" class="node">
<title>PhysicalQuantity</title>
<g id="a_node11"><a xlink:href="http://emmo.info/emmo/middle/metrology#EMMO_02c0621e_a527_4790_8a0f_2bb51973c819" xlink:title="PhysicalQuantity">
<ellipse fill="#ffffcc" stroke="#000000" stroke-width="2" cx="1148.2953" cy="-119" rx="90.9839" ry="18"/>
<text text-anchor="middle" x="1148.2953" y="-115.3" font-family="Times,serif" font-size="14.00" fill="#000000">PhysicalQuantity</text>
</a>
</g>
</g>
<!-- PhysicalQuantity&#45;&gt;Mathematical -->
<g id="edge7" class="edge">
<title>PhysicalQuantity&#45;&gt;Mathematical</title>
<path fill="none" stroke="#000000" d="M1081.0754,-131.2083C1070.123,-133.1662 1058.8963,-135.1543 1048.2953,-137 962.9466,-151.8597 864.7083,-168.2866 799.6227,-179.0752"/>
<polygon fill="none" stroke="#000000" points="798.7621,-175.6699 789.4685,-180.7572 799.9061,-182.5758 798.7621,-175.6699"/>
</g>
<!-- Matrix -->
<g id="node12" class="node">
<title>Matrix</title>
<g id="a_node12"><a xlink:href="http://emmo.info/emmo/top/math#EMMO_1cba0b27_15d0_4326_933f_379d0b3565b6" xlink:title="Matrix">
<ellipse fill="#ffffcc" stroke="#000000" cx="1052.2953" cy="-32.5" rx="42.4939" ry="18"/>
<text text-anchor="middle" x="1052.2953" y="-28.8" font-family="Times,serif" font-size="14.00" fill="#000000">Matrix</text>
</a>
</g>
</g>
<!-- Matrix&#45;&gt;Array -->
<g id="edge8" class="edge">
<title>Matrix&#45;&gt;Array</title>
<path fill="none" stroke="#000000" d="M1042.177,-50.0046C1035.1288,-62.198 1025.5993,-78.6841 1017.6229,-92.4832"/>
<polygon fill="none" stroke="#000000" points="1014.3728,-91.1122 1012.3985,-101.5215 1020.4332,-94.6153 1014.3728,-91.1122"/>
</g>
<!-- Expression -->
<g id="node13" class="node">
<title>Expression</title>
<g id="a_node13"><a xlink:href="http://emmo.info/emmo/middle/math#EMMO_f9bc8b52_85e9_4b53_b969_dd7724d5b8e4" xlink:title="Expression">
<ellipse fill="#ffffcc" stroke="#000000" stroke-width="2" cx="1319.2953" cy="-119" rx="62.2891" ry="18"/>
<text text-anchor="middle" x="1319.2953" y="-115.3" font-family="Times,serif" font-size="14.00" fill="#000000">Expression</text>
</a>
</g>
</g>
<!-- Expression&#45;&gt;Mathematical -->
<g id="edge1" class="edge">
<title>Expression&#45;&gt;Mathematical</title>
<path fill="none" stroke="#000000" d="M1274.0564,-131.5102C1265.5449,-133.567 1256.6839,-135.51 1248.2953,-137 1095.1428,-164.2025 914.0494,-179.1618 810.7311,-186.0942"/>
<polygon fill="none" stroke="#000000" points="810.4193,-182.6071 800.6724,-186.7602 810.8818,-189.5918 810.4193,-182.6071"/>
</g>
<!-- key1 -->
<g id="node15" class="node">
<title>key1</title>
<text text-anchor="start" x="1183.2953" y="-47.3" font-family="Times,serif" font-size="14.00" fill="#000000">isA</text>
<text text-anchor="start" x="1122.2953" y="-28.3" font-family="Times,serif" font-size="14.00" fill="#000000">hasVariable</text>
<text text-anchor="start" x="1153.2953" y="-9.3" font-family="Times,serif" font-size="14.00" fill="#000000">inverse</text>
</g>
<!-- key2 -->
<g id="node16" class="node">
<title>key2</title>
<text text-anchor="start" x="1259.2953" y="-47.3" font-family="Times,serif" font-size="14.00" fill="#000000"> </text>
<text text-anchor="start" x="1259.2953" y="-28.3" font-family="Times,serif" font-size="14.00" fill="#000000"> </text>
<text text-anchor="start" x="1259.2953" y="-9.3" font-family="Times,serif" font-size="14.00" fill="#000000"> </text>
</g>
<!-- key1&#45;&gt;key2 -->
<g id="edge16" class="edge">
<title>key1:e&#45;&gt;key2:w</title>
<path fill="none" stroke="#000000" d="M1208.2953,-13.5C1226.1599,-13.5 1233.0335,-13.5 1246.9483,-13.5"/>
<polygon fill="#000000" stroke="#000000" points="1257.2953,-17 1247.2953,-13.5001 1257.2952,-10 1257.2953,-17"/>
</g>
<!-- key1&#45;&gt;key2 -->
<g id="edge17" class="edge">
<title>key1:e&#45;&gt;key2:w</title>
<path fill="none" stroke="#ffa500" stroke-dasharray="5,2" d="M1208.2953,-33.5C1226.1599,-33.5 1233.0335,-33.5 1246.9483,-33.5"/>
<polygon fill="#ffa500" stroke="#ffa500" points="1247.2953,-37.0001 1257.2953,-33.5 1247.2952,-30.0001 1247.2953,-37.0001"/>
</g>
<!-- key1&#45;&gt;key2 -->
<g id="edge18" class="edge">
<title>key1:e&#45;&gt;key2:w</title>
<path fill="none" stroke="#000000" d="M1208.2953,-52.5C1226.1599,-52.5 1233.0335,-52.5 1246.9483,-52.5"/>
<polygon fill="none" stroke="#000000" points="1247.2953,-56.0001 1257.2953,-52.5 1247.2952,-49.0001 1247.2953,-56.0001"/>
</g>
</g>
</svg>
