<?xml version="1.0" encoding="UTF-8" standalone="no"?>
<!DOCTYPE svg PUBLIC "-//W3C//DTD SVG 1.1//EN"
 "http://www.w3.org/Graphics/SVG/1.1/DTD/svg11.dtd">
<!-- Generated by graphviz version 2.40.1 (0)
 -->
<!-- Title: %3 Pages: 1 -->
<svg width="630pt" height="260pt"
 viewBox="0.00 0.00 629.54 260.00" xmlns="http://www.w3.org/2000/svg" xmlns:xlink="http://www.w3.org/1999/xlink">
<g id="graph0" class="graph" transform="scale(1 1) rotate(0) translate(4 256)">
<title>%3</title>
<polygon fill="#ffffff" stroke="transparent" points="-4,4 -4,-256 625.5415,-256 625.5415,4 -4,4"/>
<!-- Exponent -->
<g id="node1" class="node">
<title>Exponent</title>
<g id="a_node1"><a xlink:href="http://emmo.info/emmo/top/math#EMMO_223d9523_4169_4ecd_b8af_acad1215e1ff" xlink:title="Exponent">
<ellipse fill="#ffffcc" stroke="#000000" cx="67.6465" cy="-90" rx="55.4913" ry="18"/>
<text text-anchor="middle" x="67.6465" y="-86.3" font-family="Times,serif" font-size="14.00" fill="#000000">Exponent</text>
</a>
</g>
</g>
<!-- AlgebricOperator -->
<g id="node9" class="node">
<title>AlgebricOperator</title>
<g id="a_node9"><a xlink:href="http://emmo.info/emmo/top/math#EMMO_3c424d37_cf62_41b1_ac9d_a316f8d113d6" xlink:title="AlgebricOperator">
<ellipse fill="#ffffcc" stroke="#000000" cx="232.6465" cy="-162" rx="92.8835" ry="18"/>
<text text-anchor="middle" x="232.6465" y="-158.3" font-family="Times,serif" font-size="14.00" fill="#000000">AlgebricOperator</text>
</a>
</g>
</g>
<!-- Exponent&#45;&gt;AlgebricOperator -->
<g id="edge5" class="edge">
<title>Exponent&#45;&gt;AlgebricOperator</title>
<path fill="none" stroke="#000000" d="M101.0367,-104.5703C125.2965,-115.1564 158.4639,-129.6294 185.4327,-141.3976"/>
<polygon fill="none" stroke="#000000" points="184.1234,-144.6449 194.6886,-145.4366 186.923,-138.2292 184.1234,-144.6449"/>
</g>
<!-- DifferentialOperator -->
<g id="node2" class="node">
<title>DifferentialOperator</title>
<g id="a_node2"><a xlink:href="http://emmo.info/emmo/top/math#EMMO_f8a2fe9f_458b_4771_9aba_a50e76afc52d" xlink:title="DifferentialOperator">
<ellipse fill="#ffffcc" stroke="#000000" cx="450.6465" cy="-162" rx="106.6812" ry="18"/>
<text text-anchor="middle" x="450.6465" y="-158.3" font-family="Times,serif" font-size="14.00" fill="#000000">DifferentialOperator</text>
</a>
</g>
</g>
<!-- MathematicalOperator -->
<g id="node4" class="node">
<title>MathematicalOperator</title>
<g id="a_node4"><a xlink:href="http://emmo.info/emmo/top/math#EMMO_f6d0c26a_98b6_4cf8_8632_aa259131faaa" xlink:title="MathematicalOperator">
<ellipse fill="#ffffcc" stroke="#000000" stroke-width="2" cx="341.6465" cy="-234" rx="117.7793" ry="18"/>
<text text-anchor="middle" x="341.6465" y="-230.3" font-family="Times,serif" font-size="14.00" fill="#000000">MathematicalOperator</text>
</a>
</g>
</g>
<!-- DifferentialOperator&#45;&gt;MathematicalOperator -->
<g id="edge6" class="edge">
<title>DifferentialOperator&#45;&gt;MathematicalOperator</title>
<path fill="none" stroke="#000000" d="M423.9821,-179.6132C409.8623,-188.94 392.3351,-200.5176 377.0858,-210.5906"/>
<polygon fill="none" stroke="#000000" points="374.8283,-207.887 368.4134,-216.3191 378.6865,-213.7278 374.8283,-207.887"/>
</g>
<!-- Minus -->
<g id="node3" class="node">
<title>Minus</title>
<g id="a_node3"><a xlink:href="http://emmo.info/emmo/top/math#EMMO_46d5643b_9706_4b67_8bea_ed77d6026539" xlink:title="Minus">
<ellipse fill="#ffc880" stroke="#000000" cx="39.6465" cy="-18" rx="39.7935" ry="18"/>
<text text-anchor="middle" x="39.6465" y="-14.3" font-family="Times,serif" font-size="14.00" fill="#000000">Minus</text>
</a>
</g>
</g>
<!-- ArithmeticOperator -->
<g id="node8" class="node">
<title>ArithmeticOperator</title>
<g id="a_node8"><a xlink:href="http://emmo.info/emmo/middle/math#EMMO_707f0cd1_941c_4b57_9f20_d0ba30cd6ff3" xlink:title="ArithmeticOperator">
<ellipse fill="#ffffcc" stroke="#000000" cx="244.6465" cy="-90" rx="103.1819" ry="18"/>
<text text-anchor="middle" x="244.6465" y="-86.3" font-family="Times,serif" font-size="14.00" fill="#000000">ArithmeticOperator</text>
</a>
</g>
</g>
<!-- Minus&#45;&gt;ArithmeticOperator -->
<g id="edge3" class="edge">
<title>Minus&#45;&gt;ArithmeticOperator</title>
<path fill="none" stroke="#000000" d="M70.4581,-29.4188C76.4821,-31.623 82.7567,-33.899 88.6465,-36 121.3873,-47.6791 158.1216,-60.413 187.7158,-70.5805"/>
<polygon fill="none" stroke="#000000" points="186.8677,-73.9897 197.4623,-73.925 189.1397,-67.3687 186.8677,-73.9897"/>
</g>
<!-- Multiplication -->
<g id="node5" class="node">
<title>Multiplication</title>
<g id="a_node5"><a xlink:href="http://emmo.info/emmo/top/math#EMMO_2b1303e8_d4c3_453b_9918_76f1d009543f" xlink:title="Multiplication">
<ellipse fill="#ffc880" stroke="#000000" cx="173.6465" cy="-18" rx="76.0865" ry="18"/>
<text text-anchor="middle" x="173.6465" y="-14.3" font-family="Times,serif" font-size="14.00" fill="#000000">Multiplication</text>
</a>
</g>
</g>
<!-- Multiplication&#45;&gt;ArithmeticOperator -->
<g id="edge7" class="edge">
<title>Multiplication&#45;&gt;ArithmeticOperator</title>
<path fill="none" stroke="#000000" d="M191.197,-35.7978C199.8161,-44.5383 210.3509,-55.2214 219.7822,-64.7856"/>
<polygon fill="none" stroke="#000000" points="217.5381,-67.4946 227.0517,-72.1575 222.5224,-62.5796 217.5381,-67.4946"/>
</g>
<!-- Division -->
<g id="node6" class="node">
<title>Division</title>
<g id="a_node6"><a xlink:href="http://emmo.info/emmo/top/math#EMMO_a365b3c1_7bde_41d7_a15b_2820762e85f4" xlink:title="Division">
<ellipse fill="#ffc880" stroke="#000000" cx="315.6465" cy="-18" rx="48.1917" ry="18"/>
<text text-anchor="middle" x="315.6465" y="-14.3" font-family="Times,serif" font-size="14.00" fill="#000000">Division</text>
</a>
</g>
</g>
<!-- Division&#45;&gt;ArithmeticOperator -->
<g id="edge8" class="edge">
<title>Division&#45;&gt;ArithmeticOperator</title>
<path fill="none" stroke="#000000" d="M298.8205,-35.063C290.0629,-43.9439 279.1857,-54.9743 269.4808,-64.8159"/>
<polygon fill="none" stroke="#000000" points="266.8718,-62.4769 262.3425,-72.0547 271.8561,-67.3919 266.8718,-62.4769"/>
</g>
<!-- Gradient -->
<g id="node7" class="node">
<title>Gradient</title>
<g id="a_node7"><a xlink:href="http://emmo.info/emmo/top/math#EMMO_b5c58790_fb2d_42eb_b184_2a3f6ca60acb" xlink:title="Gradient">
<ellipse fill="#ffc880" stroke="#000000" cx="439.6465" cy="-90" rx="51.9908" ry="18"/>
<text text-anchor="middle" x="439.6465" y="-86.3" font-family="Times,serif" font-size="14.00" fill="#000000">Gradient</text>
</a>
</g>
</g>
<!-- Gradient&#45;&gt;DifferentialOperator -->
<g id="edge1" class="edge">
<title>Gradient&#45;&gt;DifferentialOperator</title>
<path fill="none" stroke="#000000" d="M442.4222,-108.1686C443.5987,-115.869 444.9976,-125.0257 446.3051,-133.5834"/>
<polygon fill="none" stroke="#000000" points="442.8632,-134.2301 447.8333,-143.5867 449.7829,-133.1728 442.8632,-134.2301"/>
</g>
<!-- ArithmeticOperator&#45;&gt;AlgebricOperator -->
<g id="edge10" class="edge">
<title>ArithmeticOperator&#45;&gt;AlgebricOperator</title>
<path fill="none" stroke="#000000" d="M241.6184,-108.1686C240.335,-115.869 238.8089,-125.0257 237.3826,-133.5834"/>
<polygon fill="none" stroke="#000000" points="233.9071,-133.1474 235.7154,-143.5867 240.8118,-134.2982 233.9071,-133.1474"/>
</g>
<!-- AlgebricOperator&#45;&gt;MathematicalOperator -->
<g id="edge9" class="edge">
<title>AlgebricOperator&#45;&gt;MathematicalOperator</title>
<path fill="none" stroke="#000000" d="M259.0323,-179.4292C273.1476,-188.753 290.7275,-200.3655 306.0376,-210.4786"/>
<polygon fill="none" stroke="#000000" points="304.4733,-213.6399 314.7464,-216.2311 308.3315,-207.7991 304.4733,-213.6399"/>
</g>
<!-- Plus -->
<g id="node10" class="node">
<title>Plus</title>
<g id="a_node10"><a xlink:href="http://emmo.info/emmo/top/math#EMMO_8de14a59_660b_454f_aff8_76a07ce185f4" xlink:title="Plus">
<ellipse fill="#ffc880" stroke="#000000" cx="412.6465" cy="-18" rx="30.5947" ry="18"/>
<text text-anchor="middle" x="412.6465" y="-14.3" font-family="Times,serif" font-size="14.00" fill="#000000">Plus</text>
</a>
</g>
</g>
<!-- Plus&#45;&gt;ArithmeticOperator -->
<g id="edge4" class="edge">
<title>Plus&#45;&gt;ArithmeticOperator</title>
<path fill="none" stroke="#000000" d="M388.1486,-29.1342C383.0358,-31.427 377.6727,-33.8092 372.6465,-36 346.8984,-47.2227 318.0882,-59.4095 294.33,-69.3609"/>
<polygon fill="none" stroke="#000000" points="292.6942,-66.2511 284.8189,-73.3384 295.395,-72.7092 292.6942,-66.2511"/>
</g>
<!-- Laplacian -->
<g id="node11" class="node">
<title>Laplacian</title>
<g id="a_node11"><a xlink:href="http://emmo.info/emmo/top/math#EMMO_048a14e3_65fb_457d_8695_948965c89492" xlink:title="Laplacian">
<ellipse fill="#ffc880" stroke="#000000" cx="565.6465" cy="-90" rx="55.7903" ry="18"/>
<text text-anchor="middle" x="565.6465" y="-86.3" font-family="Times,serif" font-size="14.00" fill="#000000">Laplacian</text>
</a>
</g>
</g>
<!-- Laplacian&#45;&gt;DifferentialOperator -->
<g id="edge2" class="edge">
<title>Laplacian&#45;&gt;DifferentialOperator</title>
<path fill="none" stroke="#000000" d="M539.8382,-106.1582C524.3867,-115.8322 504.495,-128.2862 487.419,-138.9772"/>
<polygon fill="none" stroke="#000000" points="485.4029,-136.11 478.7844,-144.3832 489.1176,-142.0431 485.4029,-136.11"/>
</g>
<!-- key1 -->
<g id="node12" class="node">
<title>key1</title>
<text text-anchor="start" x="477.6465" y="-13.8" font-family="Times,serif" font-size="14.00" fill="#000000">isA</text>
</g>
<!-- key2 -->
<g id="node13" class="node">
<title>key2</title>
<text text-anchor="start" x="558.6465" y="-13.8" font-family="Times,serif" font-size="14.00" fill="#000000"> </text>
</g>
<!-- key1&#45;&gt;key2 -->
<g id="edge11" class="edge">
<title>key1:e&#45;&gt;key2:w</title>
<path fill="none" stroke="#000000" d="M502.6465,-19C522.8965,-19 530.332,-19 546.5775,-19"/>
<polygon fill="none" stroke="#000000" points="546.6465,-22.5001 556.6465,-19 546.6464,-15.5001 546.6465,-22.5001"/>
</g>
</g>
</svg>
