<?xml version="1.0" encoding="UTF-8" standalone="no"?>
<!DOCTYPE svg PUBLIC "-//W3C//DTD SVG 1.1//EN"
 "http://www.w3.org/Graphics/SVG/1.1/DTD/svg11.dtd">
<!-- Generated by graphviz version 2.40.1 (0)
 -->
<!-- Title: %3 Pages: 1 -->
<svg width="374pt" height="116pt"
 viewBox="0.00 0.00 373.50 116.00" xmlns="http://www.w3.org/2000/svg" xmlns:xlink="http://www.w3.org/1999/xlink">
<g id="graph0" class="graph" transform="scale(1 1) rotate(0) translate(4 112)">
<title>%3</title>
<polygon fill="#ffffff" stroke="transparent" points="-4,4 -4,-112 369.5,-112 369.5,4 -4,4"/>
<!-- connected -->
<g id="node1" class="node">
<title>connected</title>
<g id="a_node1"><a xlink:href="http://emmo.info/emmo/top/mereotopology#EMMO_6703954e_34c4_4a15_a9e7_f313760ae1a8" xlink:title="connected">
<polygon fill="#0079ba" stroke="#000000" stroke-width="2" points="91,-36 0,-36 0,0 91,0 91,-36"/>
<text text-anchor="middle" x="45.5" y="-14.3" font-family="Times,serif" font-size="14.00" fill="#ffffff">connected</text>
</a>
</g>
</g>
<!-- mereotopological -->
<g id="node2" class="node">
<title>mereotopological</title>
<g id="a_node2"><a xlink:href="http://emmo.info/emmo/top/mereotopology#EMMO_03212fd7_abfd_4828_9c8e_62c293052d4b" xlink:title="mereotopological">
<polygon fill="#0079ba" stroke="#000000" stroke-width="2" points="175.5,-108 35.5,-108 35.5,-72 175.5,-72 175.5,-108"/>
<text text-anchor="middle" x="105.5" y="-86.3" font-family="Times,serif" font-size="14.00" fill="#ffffff">mereotopological</text>
</a>
</g>
</g>
<!-- connected&#45;&gt;mereotopological -->
<g id="edge1" class="edge">
<title>connected&#45;&gt;mereotopological</title>
<path fill="none" stroke="#000000" d="M60.6405,-36.1686C67.6217,-44.546 76.0391,-54.6469 83.6876,-63.8251"/>
<polygon fill="none" stroke="#000000" points="81.0649,-66.1452 90.1556,-71.5867 86.4425,-61.6638 81.0649,-66.1452"/>
</g>
<!-- disconnected -->
<g id="node3" class="node">
<title>disconnected</title>
<g id="a_node3"><a xlink:href="http://emmo.info/emmo/top/mereotopology#EMMO_517dfaf9_4970_41ac_81ee_d031627d2c7c" xlink:title="disconnected">
<polygon fill="#0079ba" stroke="#000000" points="221.5,-36 109.5,-36 109.5,0 221.5,0 221.5,-36"/>
<text text-anchor="middle" x="165.5" y="-14.3" font-family="Times,serif" font-size="14.00" fill="#ffffff">disconnected</text>
</a>
</g>
</g>
<!-- disconnected&#45;&gt;mereotopological -->
<g id="edge2" class="edge">
<title>disconnected&#45;&gt;mereotopological</title>
<path fill="none" stroke="#000000" d="M150.3595,-36.1686C143.3783,-44.546 134.9609,-54.6469 127.3124,-63.8251"/>
<polygon fill="none" stroke="#000000" points="124.5575,-61.6638 120.8444,-71.5867 129.9351,-66.1452 124.5575,-61.6638"/>
</g>
<!-- key1 -->
<g id="node4" class="node">
<title>key1</title>
<text text-anchor="start" x="255.5" y="-13.8" font-family="Times,serif" font-size="14.00" fill="#000000">isA</text>
</g>
<!-- key2 -->
<g id="node5" class="node">
<title>key2</title>
<text text-anchor="start" x="336.5" y="-13.8" font-family="Times,serif" font-size="14.00" fill="#000000"> </text>
</g>
<!-- key1&#45;&gt;key2 -->
<g id="edge3" class="edge">
<title>key1:e&#45;&gt;key2:w</title>
<path fill="none" stroke="#000000" d="M280.5,-19C300.75,-19 308.1855,-19 324.431,-19"/>
<polygon fill="none" stroke="#000000" points="324.5,-22.5001 334.5,-19 324.5,-15.5001 324.5,-22.5001"/>
</g>
</g>
</svg>
