<?xml version="1.0" encoding="UTF-8" standalone="no"?>
<!DOCTYPE svg PUBLIC "-//W3C//DTD SVG 1.1//EN"
 "http://www.w3.org/Graphics/SVG/1.1/DTD/svg11.dtd">
<!-- Generated by graphviz version 2.40.1 (0)
 -->
<!-- Title: %3 Pages: 1 -->
<svg width="437pt" height="116pt"
 viewBox="0.00 0.00 437.20 116.00" xmlns="http://www.w3.org/2000/svg" xmlns:xlink="http://www.w3.org/1999/xlink">
<g id="graph0" class="graph" transform="scale(1 1) rotate(0) translate(4 112)">
<title>%3</title>
<polygon fill="#ffffff" stroke="transparent" points="-4,4 -4,-112 433.1972,-112 433.1972,4 -4,4"/>
<!-- Number -->
<g id="node1" class="node">
<title>Number</title>
<g id="a_node1"><a xlink:href="http://emmo.info/emmo/middle/math#EMMO_21f56795_ee72_4858_b571_11cfaa59c1a8" xlink:title="Number">
<ellipse fill="#ffffcc" stroke="#000000" stroke-width="2" cx="128.1972" cy="-90" rx="49.2915" ry="18"/>
<text text-anchor="middle" x="128.1972" y="-86.3" font-family="Times,serif" font-size="14.00" fill="#000000">Number</text>
</a>
</g>
</g>
<!-- Real -->
<g id="node2" class="node">
<title>Real</title>
<g id="a_node2"><a xlink:href="http://emmo.info/emmo/middle/math#EMMO_18d180e4_5e3e_42f7_820c_e08951223486" xlink:title="Real">
<ellipse fill="#ffc880" stroke="#000000" cx="31.1972" cy="-18" rx="31.3957" ry="18"/>
<text text-anchor="middle" x="31.1972" y="-14.3" font-family="Times,serif" font-size="14.00" fill="#000000">Real</text>
</a>
</g>
</g>
<!-- Real&#45;&gt;Number -->
<g id="edge3" class="edge">
<title>Real&#45;&gt;Number</title>
<path fill="none" stroke="#000000" d="M50.3613,-32.2249C63.9643,-42.3219 82.499,-56.0796 98.0693,-67.637"/>
<polygon fill="none" stroke="#000000" points="96.2485,-70.6443 106.3643,-73.7941 100.4207,-65.0235 96.2485,-70.6443"/>
</g>
<!-- Boolean -->
<g id="node3" class="node">
<title>Boolean</title>
<g id="a_node3"><a xlink:href="http://emmo.info/emmo/middle/math#EMMO_54dc83cb_06e1_4739_9e45_bc09cead7f48" xlink:title="Boolean">
<ellipse fill="#ffc880" stroke="#000000" cx="128.1972" cy="-18" rx="48.1917" ry="18"/>
<text text-anchor="middle" x="128.1972" y="-14.3" font-family="Times,serif" font-size="14.00" fill="#000000">Boolean</text>
</a>
</g>
</g>
<!-- Boolean&#45;&gt;Number -->
<g id="edge1" class="edge">
<title>Boolean&#45;&gt;Number</title>
<path fill="none" stroke="#000000" d="M128.1972,-36.1686C128.1972,-43.869 128.1972,-53.0257 128.1972,-61.5834"/>
<polygon fill="none" stroke="#000000" points="124.6973,-61.5867 128.1972,-71.5867 131.6973,-61.5868 124.6973,-61.5867"/>
</g>
<!-- Integer -->
<g id="node4" class="node">
<title>Integer</title>
<g id="a_node4"><a xlink:href="http://emmo.info/emmo/middle/math#EMMO_f8bd64d5_5d3e_4ad4_a46e_c30714fecb7f" xlink:title="Integer">
<ellipse fill="#ffc880" stroke="#000000" cx="240.1972" cy="-18" rx="45.4919" ry="18"/>
<text text-anchor="middle" x="240.1972" y="-14.3" font-family="Times,serif" font-size="14.00" fill="#000000">Integer</text>
</a>
</g>
</g>
<!-- Integer&#45;&gt;Number -->
<g id="edge2" class="edge">
<title>Integer&#45;&gt;Number</title>
<path fill="none" stroke="#000000" d="M216.1704,-33.4458C200.1878,-43.7203 178.9797,-57.3541 161.3915,-68.6608"/>
<polygon fill="none" stroke="#000000" points="159.0899,-65.9796 152.5708,-74.3313 162.8752,-71.8678 159.0899,-65.9796"/>
</g>
<!-- key1 -->
<g id="node5" class="node">
<title>key1</title>
<text text-anchor="start" x="319.1972" y="-13.8" font-family="Times,serif" font-size="14.00" fill="#000000">isA</text>
</g>
<!-- key2 -->
<g id="node6" class="node">
<title>key2</title>
<text text-anchor="start" x="400.1972" y="-13.8" font-family="Times,serif" font-size="14.00" fill="#000000"> </text>
</g>
<!-- key1&#45;&gt;key2 -->
<g id="edge4" class="edge">
<title>key1:e&#45;&gt;key2:w</title>
<path fill="none" stroke="#000000" d="M344.1972,-19C364.4472,-19 371.8828,-19 388.1283,-19"/>
<polygon fill="none" stroke="#000000" points="388.1973,-22.5001 398.1972,-19 388.1972,-15.5001 388.1973,-22.5001"/>
</g>
</g>
</svg>
