<?xml version="1.0" encoding="UTF-8" standalone="no"?>
<!DOCTYPE svg PUBLIC "-//W3C//DTD SVG 1.1//EN"
 "http://www.w3.org/Graphics/SVG/1.1/DTD/svg11.dtd">
<!-- Generated by graphviz version 2.40.1 (0)
 -->
<!-- Title: %3 Pages: 1 -->
<svg width="432pt" height="188pt"
 viewBox="0.00 0.00 432.00 188.00" xmlns="http://www.w3.org/2000/svg" xmlns:xlink="http://www.w3.org/1999/xlink">
<g id="graph0" class="graph" transform="scale(1 1) rotate(0) translate(4 184)">
<title>%3</title>
<polygon fill="#ffffff" stroke="transparent" points="-4,4 -4,-184 427.9965,-184 427.9965,4 -4,4"/>
<!-- Perceptual -->
<g id="node1" class="node">
<title>Perceptual</title>
<g id="a_node1"><a xlink:href="http://emmo.info/emmo/middle/perceptual#EMMO_649bf97b_4397_4005_90d9_219755d92e34" xlink:title="Perceptual">
<ellipse fill="#ffffcc" stroke="#000000" stroke-width="2" cx="200.9965" cy="-162" rx="61.1893" ry="18"/>
<text text-anchor="middle" x="200.9965" y="-158.3" font-family="Times,serif" font-size="14.00" fill="#000000">Perceptual</text>
</a>
</g>
</g>
<!-- Music -->
<g id="node2" class="node">
<title>Music</title>
<g id="a_node2"><a xlink:href="http://emmo.info/emmo/middle/perceptual#EMMO_0d69f94a_f4fa_49d9_bf90_ace770eeab02" xlink:title="Music">
<ellipse fill="#ffffcc" stroke="#000000" cx="38.9965" cy="-18" rx="38.9931" ry="18"/>
<text text-anchor="middle" x="38.9965" y="-14.3" font-family="Times,serif" font-size="14.00" fill="#000000">Music</text>
</a>
</g>
</g>
<!-- Acoustical -->
<g id="node4" class="node">
<title>Acoustical</title>
<g id="a_node4"><a xlink:href="http://emmo.info/emmo/middle/perceptual#EMMO_4b3afb22_27cf_4ce3_88bc_492bfccb546b" xlink:title="Acoustical">
<ellipse fill="#ffffcc" stroke="#000000" cx="133.9965" cy="-90" rx="59.5901" ry="18"/>
<text text-anchor="middle" x="133.9965" y="-86.3" font-family="Times,serif" font-size="14.00" fill="#000000">Acoustical</text>
</a>
</g>
</g>
<!-- Music&#45;&gt;Acoustical -->
<g id="edge3" class="edge">
<title>Music&#45;&gt;Acoustical</title>
<path fill="none" stroke="#000000" d="M59.6101,-33.6229C72.4743,-43.3727 89.2615,-56.0956 103.6323,-66.9871"/>
<polygon fill="none" stroke="#000000" points="101.6826,-69.901 111.7664,-73.1519 105.9107,-64.3222 101.6826,-69.901"/>
</g>
<!-- Noise -->
<g id="node3" class="node">
<title>Noise</title>
<g id="a_node3"><a xlink:href="http://emmo.info/emmo/middle/perceptual#EMMO_91756568_8655_4060_8937_a1a906dad8c1" xlink:title="Noise">
<ellipse fill="#ffffcc" stroke="#000000" cx="133.9965" cy="-18" rx="37.8943" ry="18"/>
<text text-anchor="middle" x="133.9965" y="-14.3" font-family="Times,serif" font-size="14.00" fill="#000000">Noise</text>
</a>
</g>
</g>
<!-- Noise&#45;&gt;Acoustical -->
<g id="edge4" class="edge">
<title>Noise&#45;&gt;Acoustical</title>
<path fill="none" stroke="#000000" d="M133.9965,-36.1686C133.9965,-43.869 133.9965,-53.0257 133.9965,-61.5834"/>
<polygon fill="none" stroke="#000000" points="130.4966,-61.5867 133.9965,-71.5867 137.4966,-61.5868 130.4966,-61.5867"/>
</g>
<!-- Acoustical&#45;&gt;Perceptual -->
<g id="edge2" class="edge">
<title>Acoustical&#45;&gt;Perceptual</title>
<path fill="none" stroke="#000000" d="M150.2154,-107.4292C158.4663,-116.2959 168.6432,-127.2322 177.7146,-136.9806"/>
<polygon fill="none" stroke="#000000" points="175.3203,-139.5454 184.6948,-144.4818 180.4448,-134.7767 175.3203,-139.5454"/>
</g>
<!-- Speech -->
<g id="node5" class="node">
<title>Speech</title>
<g id="a_node5"><a xlink:href="http://emmo.info/emmo/middle/perceptual#EMMO_660ef3b0_6692_4c51_8f69_763c7817b2e1" xlink:title="Speech">
<ellipse fill="#ffffcc" stroke="#000000" cx="234.9965" cy="-18" rx="44.6926" ry="18"/>
<text text-anchor="middle" x="234.9965" y="-14.3" font-family="Times,serif" font-size="14.00" fill="#000000">Speech</text>
</a>
</g>
</g>
<!-- Speech&#45;&gt;Acoustical -->
<g id="edge1" class="edge">
<title>Speech&#45;&gt;Acoustical</title>
<path fill="none" stroke="#000000" d="M212.5814,-33.9791C198.7534,-43.8367 180.8061,-56.6308 165.5545,-67.5033"/>
<polygon fill="none" stroke="#000000" points="163.5131,-64.6602 157.402,-73.3149 167.5764,-70.3601 163.5131,-64.6602"/>
</g>
<!-- Graphical -->
<g id="node6" class="node">
<title>Graphical</title>
<g id="a_node6"><a xlink:href="http://emmo.info/emmo/middle/perceptual#EMMO_c74da218_9147_4f03_92d1_8894abca55f3" xlink:title="Graphical">
<ellipse fill="#ffffcc" stroke="#000000" stroke-width="2" cx="267.9965" cy="-90" rx="55.7903" ry="18"/>
<text text-anchor="middle" x="267.9965" y="-86.3" font-family="Times,serif" font-size="14.00" fill="#000000">Graphical</text>
</a>
</g>
</g>
<!-- Graphical&#45;&gt;Perceptual -->
<g id="edge5" class="edge">
<title>Graphical&#45;&gt;Perceptual</title>
<path fill="none" stroke="#000000" d="M251.7777,-107.4292C243.5268,-116.2959 233.3499,-127.2322 224.2784,-136.9806"/>
<polygon fill="none" stroke="#000000" points="221.5483,-134.7767 217.2982,-144.4818 226.6728,-139.5454 221.5483,-134.7767"/>
</g>
<!-- key1 -->
<g id="node7" class="node">
<title>key1</title>
<text text-anchor="start" x="313.9965" y="-13.8" font-family="Times,serif" font-size="14.00" fill="#000000">isA</text>
</g>
<!-- key2 -->
<g id="node8" class="node">
<title>key2</title>
<text text-anchor="start" x="394.9965" y="-13.8" font-family="Times,serif" font-size="14.00" fill="#000000"> </text>
</g>
<!-- key1&#45;&gt;key2 -->
<g id="edge6" class="edge">
<title>key1:e&#45;&gt;key2:w</title>
<path fill="none" stroke="#000000" d="M338.9965,-19C359.2465,-19 366.6821,-19 382.9276,-19"/>
<polygon fill="none" stroke="#000000" points="382.9966,-22.5001 392.9965,-19 382.9965,-15.5001 382.9966,-22.5001"/>
</g>
</g>
</svg>
