<?xml version="1.0" encoding="UTF-8" standalone="no"?>
<!DOCTYPE svg PUBLIC "-//W3C//DTD SVG 1.1//EN"
 "http://www.w3.org/Graphics/SVG/1.1/DTD/svg11.dtd">
<!-- Generated by graphviz version 2.40.1 (0)
 -->
<!-- Title: %3 Pages: 1 -->
<svg width="1819pt" height="260pt"
 viewBox="0.00 0.00 1818.79 260.00" xmlns="http://www.w3.org/2000/svg" xmlns:xlink="http://www.w3.org/1999/xlink">
<g id="graph0" class="graph" transform="scale(1 1) rotate(0) translate(4 256)">
<title>%3</title>
<polygon fill="#ffffff" stroke="transparent" points="-4,4 -4,-256 1814.7912,-256 1814.7912,4 -4,4"/>
<!-- MeasuredConstant -->
<g id="node1" class="node">
<title>MeasuredConstant</title>
<g id="a_node1"><a xlink:href="http://emmo.info/emmo/middle/metrology#EMMO_3f15d200_c97b_42c8_8ac0_d81d150361e2" xlink:title="MeasuredConstant">
<ellipse fill="#ffffcc" stroke="#000000" cx="541.7912" cy="-162" rx="99.3824" ry="18"/>
<text text-anchor="middle" x="541.7912" y="-158.3" font-family="Times,serif" font-size="14.00" fill="#000000">MeasuredConstant</text>
</a>
</g>
</g>
<!-- PhysicalConstant -->
<g id="node3" class="node">
<title>PhysicalConstant</title>
<g id="a_node3"><a xlink:href="http://emmo.info/emmo/middle/metrology#EMMO_b953f2b1_c8d1_4dd9_b630_d3ef6580c2bb" xlink:title="PhysicalConstant">
<ellipse fill="#ffffcc" stroke="#000000" stroke-width="2" cx="639.7912" cy="-234" rx="92.0841" ry="18"/>
<text text-anchor="middle" x="639.7912" y="-230.3" font-family="Times,serif" font-size="14.00" fill="#000000">PhysicalConstant</text>
</a>
</g>
</g>
<!-- MeasuredConstant&#45;&gt;PhysicalConstant -->
<g id="edge10" class="edge">
<title>MeasuredConstant&#45;&gt;PhysicalConstant</title>
<path fill="none" stroke="#000000" d="M565.7647,-179.6132C578.4348,-188.9218 594.1564,-200.4724 607.848,-210.5315"/>
<polygon fill="none" stroke="#000000" points="605.9341,-213.4684 616.0652,-216.5687 610.0787,-207.8273 605.9341,-213.4684"/>
</g>
<!-- ElementaryCharge -->
<g id="node2" class="node">
<title>ElementaryCharge</title>
<g id="a_node2"><a xlink:href="http://emmo.info/emmo/middle/siunits#EMMO_58a650f0_a638_4743_8439_535a325e5c4c" xlink:title="ElementaryCharge">
<ellipse fill="#ffffcc" stroke="#000000" cx="98.7912" cy="-18" rx="98.5829" ry="18"/>
<text text-anchor="middle" x="98.7912" y="-14.3" font-family="Times,serif" font-size="14.00" fill="#000000">ElementaryCharge</text>
</a>
</g>
</g>
<!-- SIExactConstant -->
<g id="node6" class="node">
<title>SIExactConstant</title>
<g id="a_node6"><a xlink:href="http://emmo.info/emmo/middle/siunits#EMMO_f2ca6dd0_0e5f_4392_a92d_cafdae6cfc95" xlink:title="SIExactConstant">
<ellipse fill="#ffffcc" stroke="#000000" cx="738.7912" cy="-90" rx="90.1842" ry="18"/>
<text text-anchor="middle" x="738.7912" y="-86.3" font-family="Times,serif" font-size="14.00" fill="#000000">SIExactConstant</text>
</a>
</g>
</g>
<!-- ElementaryCharge&#45;&gt;SIExactConstant -->
<g id="edge2" class="edge">
<title>ElementaryCharge&#45;&gt;SIExactConstant</title>
<path fill="none" stroke="#000000" d="M169.859,-30.5087C182.1541,-32.4825 194.8276,-34.3975 206.7912,-36 359.6638,-56.4766 538.1816,-73.119 644.6704,-82.2795"/>
<polygon fill="none" stroke="#000000" points="644.4854,-85.7764 654.7476,-83.1426 645.0828,-78.802 644.4854,-85.7764"/>
</g>
<!-- AvogadroConstant -->
<g id="node4" class="node">
<title>AvogadroConstant</title>
<g id="a_node4"><a xlink:href="http://emmo.info/emmo/middle/siunits#EMMO_176cae33_b83e_4cd2_a6bc_281f42f0ccc8" xlink:title="AvogadroConstant">
<ellipse fill="#ffffcc" stroke="#000000" cx="312.7912" cy="-18" rx="96.6831" ry="18"/>
<text text-anchor="middle" x="312.7912" y="-14.3" font-family="Times,serif" font-size="14.00" fill="#000000">AvogadroConstant</text>
</a>
</g>
</g>
<!-- AvogadroConstant&#45;&gt;SIExactConstant -->
<g id="edge8" class="edge">
<title>AvogadroConstant&#45;&gt;SIExactConstant</title>
<path fill="none" stroke="#000000" d="M384.3478,-30.1615C395.8646,-32.1158 407.6566,-34.1151 418.7912,-36 500.786,-49.8801 594.6092,-65.7061 659.3624,-76.6198"/>
<polygon fill="none" stroke="#000000" points="659.0564,-80.1175 669.4991,-78.3281 660.2198,-73.2148 659.0564,-80.1175"/>
</g>
<!-- LuminousEfficacy -->
<g id="node5" class="node">
<title>LuminousEfficacy</title>
<g id="a_node5"><a xlink:href="http://emmo.info/emmo/middle/siunits#EMMO_506f7823_52bc_40cb_be07_b3b1e10cce13" xlink:title="LuminousEfficacy">
<ellipse fill="#ffffcc" stroke="#000000" cx="522.7912" cy="-18" rx="94.7833" ry="18"/>
<text text-anchor="middle" x="522.7912" y="-14.3" font-family="Times,serif" font-size="14.00" fill="#000000">LuminousEfficacy</text>
</a>
</g>
</g>
<!-- LuminousEfficacy&#45;&gt;SIExactConstant -->
<g id="edge4" class="edge">
<title>LuminousEfficacy&#45;&gt;SIExactConstant</title>
<path fill="none" stroke="#000000" d="M569.9264,-33.7117C603.0581,-44.7556 647.5365,-59.5817 682.5277,-71.2455"/>
<polygon fill="none" stroke="#000000" points="681.5345,-74.6037 692.1282,-74.4456 683.7482,-67.9629 681.5345,-74.6037"/>
</g>
<!-- ExactConstant -->
<g id="node7" class="node">
<title>ExactConstant</title>
<g id="a_node7"><a xlink:href="http://emmo.info/emmo/middle/metrology#EMMO_89762966_8076_4f7c_b745_f718d653e8e2" xlink:title="ExactConstant">
<ellipse fill="#ffffcc" stroke="#000000" cx="738.7912" cy="-162" rx="79.8859" ry="18"/>
<text text-anchor="middle" x="738.7912" y="-158.3" font-family="Times,serif" font-size="14.00" fill="#000000">ExactConstant</text>
</a>
</g>
</g>
<!-- SIExactConstant&#45;&gt;ExactConstant -->
<g id="edge3" class="edge">
<title>SIExactConstant&#45;&gt;ExactConstant</title>
<path fill="none" stroke="#000000" d="M738.7912,-108.1686C738.7912,-115.869 738.7912,-125.0257 738.7912,-133.5834"/>
<polygon fill="none" stroke="#000000" points="735.2913,-133.5867 738.7912,-143.5867 742.2913,-133.5868 735.2913,-133.5867"/>
</g>
<!-- ExactConstant&#45;&gt;PhysicalConstant -->
<g id="edge1" class="edge">
<title>ExactConstant&#45;&gt;PhysicalConstant</title>
<path fill="none" stroke="#000000" d="M715.0783,-179.2458C702.2879,-188.5479 686.3106,-200.1677 672.3692,-210.3069"/>
<polygon fill="none" stroke="#000000" points="670.0272,-207.6824 663.9985,-216.3947 674.1445,-213.3436 670.0272,-207.6824"/>
</g>
<!-- BoltzmannConstant -->
<g id="node8" class="node">
<title>BoltzmannConstant</title>
<g id="a_node8"><a xlink:href="http://emmo.info/emmo/middle/siunits#EMMO_ffc7735f_c177_46a4_98e9_a54440d29209" xlink:title="BoltzmannConstant">
<ellipse fill="#ffffcc" stroke="#000000" cx="738.7912" cy="-18" rx="102.8821" ry="18"/>
<text text-anchor="middle" x="738.7912" y="-14.3" font-family="Times,serif" font-size="14.00" fill="#000000">BoltzmannConstant</text>
</a>
</g>
</g>
<!-- BoltzmannConstant&#45;&gt;SIExactConstant -->
<g id="edge6" class="edge">
<title>BoltzmannConstant&#45;&gt;SIExactConstant</title>
<path fill="none" stroke="#000000" d="M738.7912,-36.1686C738.7912,-43.869 738.7912,-53.0257 738.7912,-61.5834"/>
<polygon fill="none" stroke="#000000" points="735.2913,-61.5867 738.7912,-71.5867 742.2913,-61.5868 735.2913,-61.5867"/>
</g>
<!-- HyperfineTransitionFrequencyOfCs -->
<g id="node9" class="node">
<title>HyperfineTransitionFrequencyOfCs</title>
<g id="a_node9"><a xlink:href="http://emmo.info/emmo/middle/siunits#EMMO_f96feb3f_4438_4e43_aa44_7458c4d87fc2" xlink:title="HyperfineTransitionFrequencyOfCs">
<ellipse fill="#ffffcc" stroke="#000000" cx="1037.7912" cy="-18" rx="178.9686" ry="18"/>
<text text-anchor="middle" x="1037.7912" y="-14.3" font-family="Times,serif" font-size="14.00" fill="#000000">HyperfineTransitionFrequencyOfCs</text>
</a>
</g>
</g>
<!-- HyperfineTransitionFrequencyOfCs&#45;&gt;SIExactConstant -->
<g id="edge5" class="edge">
<title>HyperfineTransitionFrequencyOfCs&#45;&gt;SIExactConstant</title>
<path fill="none" stroke="#000000" d="M968.8192,-34.6087C920.0918,-46.3423 855.0962,-61.9935 806.6249,-73.6655"/>
<polygon fill="none" stroke="#000000" points="805.7555,-70.2747 796.8528,-76.0186 807.3943,-77.0802 805.7555,-70.2747"/>
</g>
<!-- PlanckConstant -->
<g id="node10" class="node">
<title>PlanckConstant</title>
<g id="a_node10"><a xlink:href="http://emmo.info/emmo/middle/siunits#EMMO_76cc4efc_231e_42b4_be83_2547681caed6" xlink:title="PlanckConstant">
<ellipse fill="#ffffcc" stroke="#000000" cx="1319.7912" cy="-18" rx="85.2851" ry="18"/>
<text text-anchor="middle" x="1319.7912" y="-14.3" font-family="Times,serif" font-size="14.00" fill="#000000">PlanckConstant</text>
</a>
</g>
</g>
<!-- PlanckConstant&#45;&gt;SIExactConstant -->
<g id="edge9" class="edge">
<title>PlanckConstant&#45;&gt;SIExactConstant</title>
<path fill="none" stroke="#000000" d="M1258.223,-30.5091C1247.4389,-32.4942 1236.3063,-34.4128 1225.7912,-36 1089.3098,-56.6014 930.1964,-72.7809 831.9685,-81.8678"/>
<polygon fill="none" stroke="#000000" points="831.4096,-78.4043 821.7723,-82.8057 832.0509,-85.3749 831.4096,-78.4043"/>
</g>
<!-- SpeedOfLightInVacuum -->
<g id="node11" class="node">
<title>SpeedOfLightInVacuum</title>
<g id="a_node11"><a xlink:href="http://emmo.info/emmo/middle/siunits#EMMO_99296e55_53f7_4333_9e06_760ad175a1b9" xlink:title="SpeedOfLightInVacuum">
<ellipse fill="#ffffcc" stroke="#000000" cx="1544.7912" cy="-18" rx="122.3786" ry="18"/>
<text text-anchor="middle" x="1544.7912" y="-14.3" font-family="Times,serif" font-size="14.00" fill="#000000">SpeedOfLightInVacuum</text>
</a>
</g>
</g>
<!-- SpeedOfLightInVacuum&#45;&gt;SIExactConstant -->
<g id="edge7" class="edge">
<title>SpeedOfLightInVacuum&#45;&gt;SIExactConstant</title>
<path fill="none" stroke="#000000" d="M1457.8515,-30.6498C1443.1627,-32.585 1428.0553,-34.4507 1413.7912,-36 1208.1891,-58.3312 966.4144,-75.4709 835.2685,-84.0089"/>
<polygon fill="none" stroke="#000000" points="834.9991,-80.519 825.2465,-84.6587 835.452,-87.5043 834.9991,-80.519"/>
</g>
<!-- key1 -->
<g id="node12" class="node">
<title>key1</title>
<text text-anchor="start" x="1700.7912" y="-13.8" font-family="Times,serif" font-size="14.00" fill="#000000">isA</text>
</g>
<!-- key2 -->
<g id="node13" class="node">
<title>key2</title>
<text text-anchor="start" x="1781.7912" y="-13.8" font-family="Times,serif" font-size="14.00" fill="#000000"> </text>
</g>
<!-- key1&#45;&gt;key2 -->
<g id="edge11" class="edge">
<title>key1:e&#45;&gt;key2:w</title>
<path fill="none" stroke="#000000" d="M1725.7912,-19C1746.0412,-19 1753.4768,-19 1769.7223,-19"/>
<polygon fill="none" stroke="#000000" points="1769.7913,-22.5001 1779.7912,-19 1769.7912,-15.5001 1769.7913,-22.5001"/>
</g>
</g>
</svg>
