<?xml version="1.0" encoding="UTF-8" standalone="no"?>
<!DOCTYPE svg PUBLIC "-//W3C//DTD SVG 1.1//EN"
 "http://www.w3.org/Graphics/SVG/1.1/DTD/svg11.dtd">
<!-- Generated by graphviz version 2.40.1 (0)
 -->
<!-- Title: %3 Pages: 1 -->
<svg width="827pt" height="1613pt"
 viewBox="0.00 0.00 826.53 1613.33" xmlns="http://www.w3.org/2000/svg" xmlns:xlink="http://www.w3.org/1999/xlink">
<g id="graph0" class="graph" transform="scale(1 1) rotate(0) translate(4 1609.3269)">
<title>%3</title>
<polygon fill="#ffffff" stroke="transparent" points="-4,4 -4,-1609.3269 822.5306,-1609.3269 822.5306,4 -4,4"/>
<!-- MassSquareLengthPerTemperatureSquareTimeDimension -->
<g id="node1" class="node">
<title>MassSquareLengthPerTemperatureSquareTimeDimension</title>
<g id="a_node1"><a xlink:href="http://emmo.info/emmo/middle/isq#EMMO_3ecff38b_b3cf_4a78_b49f_8580abf8715b" xlink:title="MassSquareLengthPerTemperatureSquareTimeDimension">
<ellipse fill="#ffc880" stroke="#000000" cx="522.8068" cy="-1533.3269" rx="283.2498" ry="18"/>
<text text-anchor="middle" x="522.8068" y="-1529.6269" font-family="Times,serif" font-size="14.00" fill="#000000">MassSquareLengthPerTemperatureSquareTimeDimension</text>
</a>
</g>
</g>
<!-- PhysicsDimension -->
<g id="node7" class="node">
<title>PhysicsDimension</title>
<g id="a_node7"><a xlink:href="http://emmo.info/emmo/middle/metrology#EMMO_9895a1b4_f0a5_4167_ac5e_97db40b8bfcc" xlink:title="PhysicsDimension">
<ellipse fill="#ffffcc" stroke="#000000" stroke-width="2" cx="95.5415" cy="-777.3269" rx="95.5831" ry="18"/>
<text text-anchor="middle" x="95.5415" y="-773.6269" font-family="Times,serif" font-size="14.00" fill="#000000">PhysicsDimension</text>
</a>
</g>
</g>
<!-- MassSquareLengthPerTemperatureSquareTimeDimension&#45;&gt;PhysicsDimension -->
<g id="edge25" class="edge">
<title>MassSquareLengthPerTemperatureSquareTimeDimension&#45;&gt;PhysicsDimension</title>
<path fill="none" stroke="#000000" d="M439.0227,-1550.5276C373.0876,-1558.8363 283.248,-1557.782 227.083,-1506.3269 121.3414,-1409.4524 100.0059,-928.103 96.2636,-805.6846"/>
<polygon fill="none" stroke="#000000" points="99.7597,-805.496 95.971,-795.6017 92.7627,-805.6991 99.7597,-805.496"/>
</g>
<!-- LuminousIntensityPerSquareLengthDimension -->
<g id="node2" class="node">
<title>LuminousIntensityPerSquareLengthDimension</title>
<g id="a_node2"><a xlink:href="http://emmo.info/emmo/middle/isq#EMMO_668e6ead_1530_40cc_ad5e_24b880edff50" xlink:title="LuminousIntensityPerSquareLengthDimension">
<ellipse fill="#ffc880" stroke="#000000" cx="522.8068" cy="-1479.3269" rx="229.3593" ry="18"/>
<text text-anchor="middle" x="522.8068" y="-1475.6269" font-family="Times,serif" font-size="14.00" fill="#000000">LuminousIntensityPerSquareLengthDimension</text>
</a>
</g>
</g>
<!-- LuminousIntensityPerSquareLengthDimension&#45;&gt;PhysicsDimension -->
<g id="edge5" class="edge">
<title>LuminousIntensityPerSquareLengthDimension&#45;&gt;PhysicsDimension</title>
<path fill="none" stroke="#000000" d="M440.5477,-1496.1494C374.6067,-1504.5169 283.9879,-1503.7348 227.083,-1452.3269 128.9209,-1363.6471 102.1368,-922.7061 96.7113,-805.8097"/>
<polygon fill="none" stroke="#000000" points="100.195,-805.3649 96.2512,-795.5315 93.202,-805.678 100.195,-805.3649"/>
</g>
<!-- TemperatureDimension -->
<g id="node3" class="node">
<title>TemperatureDimension</title>
<g id="a_node3"><a xlink:href="http://emmo.info/emmo/middle/isq#EMMO_a77a0a4b_6bd2_42b2_be27_4b63cebbb59e" xlink:title="TemperatureDimension">
<ellipse fill="#ffc880" stroke="#000000" cx="522.8068" cy="-1425.3269" rx="120.4791" ry="18"/>
<text text-anchor="middle" x="522.8068" y="-1421.6269" font-family="Times,serif" font-size="14.00" fill="#000000">TemperatureDimension</text>
</a>
</g>
</g>
<!-- TemperatureDimension&#45;&gt;PhysicsDimension -->
<g id="edge23" class="edge">
<title>TemperatureDimension&#45;&gt;PhysicsDimension</title>
<path fill="none" stroke="#000000" d="M454.0002,-1440.089C387.5927,-1450.0079 288.3542,-1452.7804 227.083,-1398.3269 136.4018,-1317.7356 104.4027,-916.4397 97.2216,-805.6823"/>
<polygon fill="none" stroke="#000000" points="100.7087,-805.3663 96.5855,-795.6068 93.7226,-805.8074 100.7087,-805.3663"/>
</g>
<!-- AmountDimension -->
<g id="node4" class="node">
<title>AmountDimension</title>
<g id="a_node4"><a xlink:href="http://emmo.info/emmo/middle/isq#EMMO_e501069c_34d3_4dc7_ac87_c90c7342192b" xlink:title="AmountDimension">
<ellipse fill="#ffc880" stroke="#000000" cx="522.8068" cy="-1371.3269" rx="96.6831" ry="18"/>
<text text-anchor="middle" x="522.8068" y="-1367.6269" font-family="Times,serif" font-size="14.00" fill="#000000">AmountDimension</text>
</a>
</g>
</g>
<!-- AmountDimension&#45;&gt;PhysicsDimension -->
<g id="edge29" class="edge">
<title>AmountDimension&#45;&gt;PhysicsDimension</title>
<path fill="none" stroke="#000000" d="M459.7678,-1384.9925C393.6273,-1395.3656 290.6236,-1399.7133 227.083,-1344.3269 143.8557,-1271.78 106.8697,-909.9655 97.823,-805.5681"/>
<polygon fill="none" stroke="#000000" points="101.2997,-805.1441 96.9667,-795.4758 94.3248,-805.736 101.2997,-805.1441"/>
</g>
<!-- MassSquareLengthPerSquareTimeDimension -->
<g id="node5" class="node">
<title>MassSquareLengthPerSquareTimeDimension</title>
<g id="a_node5"><a xlink:href="http://emmo.info/emmo/middle/isq#EMMO_f6070071_d054_4b17_9d2d_f446f7147d0f" xlink:title="MassSquareLengthPerSquareTimeDimension">
<ellipse fill="#ffc880" stroke="#000000" cx="522.8068" cy="-1317.3269" rx="222.8605" ry="18"/>
<text text-anchor="middle" x="522.8068" y="-1313.6269" font-family="Times,serif" font-size="14.00" fill="#000000">MassSquareLengthPerSquareTimeDimension</text>
</a>
</g>
</g>
<!-- MassSquareLengthPerSquareTimeDimension&#45;&gt;PhysicsDimension -->
<g id="edge24" class="edge">
<title>MassSquareLengthPerSquareTimeDimension&#45;&gt;PhysicsDimension</title>
<path fill="none" stroke="#000000" d="M435.6549,-1333.9103C370.7086,-1341.0029 283.8,-1338.6267 227.083,-1290.3269 151.2623,-1225.7584 109.5691,-903.124 98.5383,-805.4138"/>
<polygon fill="none" stroke="#000000" points="102.0086,-804.9517 97.4268,-795.3988 95.0513,-805.7239 102.0086,-804.9517"/>
</g>
<!-- LuminousIntensityCubicTimePerMassLengthDimension -->
<g id="node6" class="node">
<title>LuminousIntensityCubicTimePerMassLengthDimension</title>
<g id="a_node6"><a xlink:href="http://emmo.info/emmo/middle/isq#EMMO_5c003f53_20a2_4bd7_8445_58187e582578" xlink:title="LuminousIntensityCubicTimePerMassLengthDimension">
<ellipse fill="#ffc880" stroke="#000000" cx="522.8068" cy="-1263.3269" rx="271.8519" ry="18"/>
<text text-anchor="middle" x="522.8068" y="-1259.6269" font-family="Times,serif" font-size="14.00" fill="#000000">LuminousIntensityCubicTimePerMassLengthDimension</text>
</a>
</g>
</g>
<!-- LuminousIntensityCubicTimePerMassLengthDimension&#45;&gt;PhysicsDimension -->
<g id="edge6" class="edge">
<title>LuminousIntensityCubicTimePerMassLengthDimension&#45;&gt;PhysicsDimension</title>
<path fill="none" stroke="#000000" d="M428.2073,-1280.2254C364.4316,-1286.0362 282.1892,-1281.9351 227.083,-1236.3269 158.737,-1179.7606 112.721,-896.896 99.4749,-805.7079"/>
<polygon fill="none" stroke="#000000" points="102.9049,-804.9686 98.0227,-795.5657 95.9755,-805.9609 102.9049,-804.9686"/>
</g>
<!-- ElectricCurrentDimension -->
<g id="node8" class="node">
<title>ElectricCurrentDimension</title>
<g id="a_node8"><a xlink:href="http://emmo.info/emmo/middle/isq#EMMO_d5f3e0e5_fc7d_4e64_86ad_555e74aaff84" xlink:title="ElectricCurrentDimension">
<ellipse fill="#ffc880" stroke="#000000" cx="522.8068" cy="-1209.3269" rx="133.7763" ry="18"/>
<text text-anchor="middle" x="522.8068" y="-1205.6269" font-family="Times,serif" font-size="14.00" fill="#000000">ElectricCurrentDimension</text>
</a>
</g>
</g>
<!-- ElectricCurrentDimension&#45;&gt;PhysicsDimension -->
<g id="edge3" class="edge">
<title>ElectricCurrentDimension&#45;&gt;PhysicsDimension</title>
<path fill="none" stroke="#000000" d="M444.745,-1223.9816C379.5647,-1231.5687 287.8117,-1230.8261 227.083,-1182.3269 166.0693,-1133.5999 116.1827,-889.5285 100.6034,-805.6707"/>
<polygon fill="none" stroke="#000000" points="104.0022,-804.8008 98.7544,-795.5969 97.1173,-806.0645 104.0022,-804.8008"/>
</g>
<!-- DimensionOne -->
<g id="node9" class="node">
<title>DimensionOne</title>
<g id="a_node9"><a xlink:href="http://emmo.info/emmo/middle/isq#EMMO_3227b821_26a5_4c7c_9c01_5c24483e0bd0" xlink:title="DimensionOne">
<ellipse fill="#ffc880" stroke="#000000" cx="522.8068" cy="-1155.3269" rx="79.0865" ry="18"/>
<text text-anchor="middle" x="522.8068" y="-1151.6269" font-family="Times,serif" font-size="14.00" fill="#000000">DimensionOne</text>
</a>
</g>
</g>
<!-- DimensionOne&#45;&gt;PhysicsDimension -->
<g id="edge11" class="edge">
<title>DimensionOne&#45;&gt;PhysicsDimension</title>
<path fill="none" stroke="#000000" d="M462.6144,-1167.1158C397.7035,-1176.2324 294.6147,-1179.8399 227.083,-1128.3269 173.2184,-1087.2391 119.96,-880.809 101.9516,-805.1637"/>
<polygon fill="none" stroke="#000000" points="105.3486,-804.3192 99.6481,-795.3887 98.5352,-805.9249 105.3486,-804.3192"/>
</g>
<!-- CubicTimeSquareCurrentPerMassSquareLengthDimension -->
<g id="node10" class="node">
<title>CubicTimeSquareCurrentPerMassSquareLengthDimension</title>
<g id="a_node10"><a xlink:href="http://emmo.info/emmo/middle/isq#EMMO_321af35f_f0cc_4a5c_b4fe_8c2c0303fb0c" xlink:title="CubicTimeSquareCurrentPerMassSquareLengthDimension">
<ellipse fill="#ffc880" stroke="#000000" cx="522.8068" cy="-1101.3269" rx="287.0492" ry="18"/>
<text text-anchor="middle" x="522.8068" y="-1097.6269" font-family="Times,serif" font-size="14.00" fill="#000000">CubicTimeSquareCurrentPerMassSquareLengthDimension</text>
</a>
</g>
</g>
<!-- CubicTimeSquareCurrentPerMassSquareLengthDimension&#45;&gt;PhysicsDimension -->
<g id="edge4" class="edge">
<title>CubicTimeSquareCurrentPerMassSquareLengthDimension&#45;&gt;PhysicsDimension</title>
<path fill="none" stroke="#000000" d="M261.2779,-1093.7187C249.251,-1088.3973 237.7638,-1081.9916 227.083,-1074.3269 136.1013,-1009.0363 107.1189,-866.3321 98.6946,-805.5978"/>
<polygon fill="none" stroke="#000000" points="102.1521,-805.0436 97.3905,-795.5791 95.2106,-805.9472 102.1521,-805.0436"/>
</g>
<!-- TimeDimension -->
<g id="node11" class="node">
<title>TimeDimension</title>
<g id="a_node11"><a xlink:href="http://emmo.info/emmo/middle/isq#EMMO_02e894c3_b793_4197_b120_3442e08f58d1" xlink:title="TimeDimension">
<ellipse fill="#ffc880" stroke="#000000" cx="522.8068" cy="-1047.3269" rx="83.3857" ry="18"/>
<text text-anchor="middle" x="522.8068" y="-1043.6269" font-family="Times,serif" font-size="14.00" fill="#000000">TimeDimension</text>
</a>
</g>
</g>
<!-- TimeDimension&#45;&gt;PhysicsDimension -->
<g id="edge27" class="edge">
<title>TimeDimension&#45;&gt;PhysicsDimension</title>
<path fill="none" stroke="#000000" d="M456.1784,-1058.1644C392.1048,-1064.9365 295.1984,-1065.2313 227.083,-1020.3269 150.0813,-969.5642 114.5468,-857.9959 101.6247,-805.5814"/>
<polygon fill="none" stroke="#000000" points="104.9786,-804.5551 99.2697,-795.6299 98.1667,-806.1671 104.9786,-804.5551"/>
</g>
<!-- MassPerSquareTimeCurrentDimension -->
<g id="node12" class="node">
<title>MassPerSquareTimeCurrentDimension</title>
<g id="a_node12"><a xlink:href="http://emmo.info/emmo/middle/isq#EMMO_ec903946_ddc9_464a_903c_7373e0d1eeb5" xlink:title="MassPerSquareTimeCurrentDimension">
<ellipse fill="#ffc880" stroke="#000000" cx="522.8068" cy="-993.3269" rx="193.8658" ry="18"/>
<text text-anchor="middle" x="522.8068" y="-989.6269" font-family="Times,serif" font-size="14.00" fill="#000000">MassPerSquareTimeCurrentDimension</text>
</a>
</g>
</g>
<!-- MassPerSquareTimeCurrentDimension&#45;&gt;PhysicsDimension -->
<g id="edge14" class="edge">
<title>MassPerSquareTimeCurrentDimension&#45;&gt;PhysicsDimension</title>
<path fill="none" stroke="#000000" d="M363.1562,-1003.5377C316.7233,-1000.1496 267.6344,-989.9185 227.083,-966.3269 163.4221,-929.2907 123.2635,-847.6782 105.7501,-804.8291"/>
<polygon fill="none" stroke="#000000" points="108.9159,-803.3178 101.9742,-795.3139 102.4095,-805.8998 108.9159,-803.3178"/>
</g>
<!-- QuarticTimeSquareCurrentPerMassSquareLengthDimension -->
<g id="node13" class="node">
<title>QuarticTimeSquareCurrentPerMassSquareLengthDimension</title>
<g id="a_node13"><a xlink:href="http://emmo.info/emmo/middle/isq#EMMO_b14d9be5_f81e_469b_abca_379c2e83feab" xlink:title="QuarticTimeSquareCurrentPerMassSquareLengthDimension">
<ellipse fill="#ffc880" stroke="#000000" cx="522.8068" cy="-939.3269" rx="295.9477" ry="18"/>
<text text-anchor="middle" x="522.8068" y="-935.6269" font-family="Times,serif" font-size="14.00" fill="#000000">QuarticTimeSquareCurrentPerMassSquareLengthDimension</text>
</a>
</g>
</g>
<!-- QuarticTimeSquareCurrentPerMassSquareLengthDimension&#45;&gt;PhysicsDimension -->
<g id="edge16" class="edge">
<title>QuarticTimeSquareCurrentPerMassSquareLengthDimension&#45;&gt;PhysicsDimension</title>
<path fill="none" stroke="#000000" d="M273.2364,-929.5709C257.2729,-924.9889 241.7432,-919.3131 227.083,-912.3269 176.3188,-888.1352 134.4349,-835.5911 112.3834,-803.6592"/>
<polygon fill="none" stroke="#000000" points="115.1954,-801.5691 106.6988,-795.24 109.394,-805.4863 115.1954,-801.5691"/>
</g>
<!-- MassSquareLengthPerCubicTimeCurrentDimension -->
<g id="node14" class="node">
<title>MassSquareLengthPerCubicTimeCurrentDimension</title>
<g id="a_node14"><a xlink:href="http://emmo.info/emmo/middle/isq#EMMO_2e7e5796_4a80_4d73_bb84_f31138446c0c" xlink:title="MassSquareLengthPerCubicTimeCurrentDimension">
<ellipse fill="#ffc880" stroke="#000000" cx="522.8068" cy="-885.3269" rx="254.255" ry="18"/>
<text text-anchor="middle" x="522.8068" y="-881.6269" font-family="Times,serif" font-size="14.00" fill="#000000">MassSquareLengthPerCubicTimeCurrentDimension</text>
</a>
</g>
</g>
<!-- MassSquareLengthPerCubicTimeCurrentDimension&#45;&gt;PhysicsDimension -->
<g id="edge26" class="edge">
<title>MassSquareLengthPerCubicTimeCurrentDimension&#45;&gt;PhysicsDimension</title>
<path fill="none" stroke="#000000" d="M301.6607,-876.4392C276.1542,-872.1039 250.8059,-866.2277 227.083,-858.3269 189.1336,-845.6879 150.7562,-820.2839 125.3295,-801.2779"/>
<polygon fill="none" stroke="#000000" points="127.2989,-798.3784 117.2223,-795.1054 123.0585,-803.9479 127.2989,-798.3784"/>
</g>
<!-- MassSquareLengthPerSquareTimeSquareCurrentDimension -->
<g id="node15" class="node">
<title>MassSquareLengthPerSquareTimeSquareCurrentDimension</title>
<g id="a_node15"><a xlink:href="http://emmo.info/emmo/middle/isq#EMMO_585e0ff0_9429_4d3c_b578_58abb1ba21d1" xlink:title="MassSquareLengthPerSquareTimeSquareCurrentDimension">
<ellipse fill="#ffc880" stroke="#000000" cx="522.8068" cy="-831.3269" rx="293.248" ry="18"/>
<text text-anchor="middle" x="522.8068" y="-827.6269" font-family="Times,serif" font-size="14.00" fill="#000000">MassSquareLengthPerSquareTimeSquareCurrentDimension</text>
</a>
</g>
</g>
<!-- MassSquareLengthPerSquareTimeSquareCurrentDimension&#45;&gt;PhysicsDimension -->
<g id="edge18" class="edge">
<title>MassSquareLengthPerSquareTimeSquareCurrentDimension&#45;&gt;PhysicsDimension</title>
<path fill="none" stroke="#000000" d="M335.8888,-817.4411C299.7041,-813.8558 262.1458,-809.5095 227.083,-804.3269 207.1564,-801.3815 185.6964,-797.3487 166.008,-793.2979"/>
<polygon fill="none" stroke="#000000" points="166.701,-789.8672 156.1965,-791.2485 165.2696,-796.7193 166.701,-789.8672"/>
</g>
<!-- SquareLengthPerSquareTimeDimension -->
<g id="node16" class="node">
<title>SquareLengthPerSquareTimeDimension</title>
<g id="a_node16"><a xlink:href="http://emmo.info/emmo/middle/isq#EMMO_847f1d9f_205e_46c1_8cb6_a9e479421f88" xlink:title="SquareLengthPerSquareTimeDimension">
<ellipse fill="#ffc880" stroke="#000000" cx="522.8068" cy="-777.3269" rx="198.4651" ry="18"/>
<text text-anchor="middle" x="522.8068" y="-773.6269" font-family="Times,serif" font-size="14.00" fill="#000000">SquareLengthPerSquareTimeDimension</text>
</a>
</g>
</g>
<!-- SquareLengthPerSquareTimeDimension&#45;&gt;PhysicsDimension -->
<g id="edge2" class="edge">
<title>SquareLengthPerSquareTimeDimension&#45;&gt;PhysicsDimension</title>
<path fill="none" stroke="#000000" d="M324.4964,-777.3269C282.1315,-777.3269 238.9588,-777.3269 201.6886,-777.3269"/>
<polygon fill="none" stroke="#000000" points="201.3386,-773.8269 191.3385,-777.3269 201.3385,-780.8269 201.3386,-773.8269"/>
</g>
<!-- MassLengthPerSquareTimeDimension -->
<g id="node17" class="node">
<title>MassLengthPerSquareTimeDimension</title>
<g id="a_node17"><a xlink:href="http://emmo.info/emmo/middle/isq#EMMO_53e825d9_1a09_483c_baa7_37501ebfbe1c" xlink:title="MassLengthPerSquareTimeDimension">
<ellipse fill="#ffc880" stroke="#000000" cx="522.8068" cy="-723.3269" rx="189.5666" ry="18"/>
<text text-anchor="middle" x="522.8068" y="-719.6269" font-family="Times,serif" font-size="14.00" fill="#000000">MassLengthPerSquareTimeDimension</text>
</a>
</g>
</g>
<!-- MassLengthPerSquareTimeDimension&#45;&gt;PhysicsDimension -->
<g id="edge20" class="edge">
<title>MassLengthPerSquareTimeDimension&#45;&gt;PhysicsDimension</title>
<path fill="none" stroke="#000000" d="M369.6964,-734.0358C323.718,-738.1316 273.2384,-743.5046 227.083,-750.3269 207.1564,-753.2722 185.6964,-757.305 166.008,-761.3558"/>
<polygon fill="none" stroke="#000000" points="165.2696,-757.9344 156.1965,-763.4052 166.701,-764.7865 165.2696,-757.9344"/>
</g>
<!-- AmountPerTimeDimension -->
<g id="node18" class="node">
<title>AmountPerTimeDimension</title>
<g id="a_node18"><a xlink:href="http://emmo.info/emmo/middle/isq#EMMO_ce7d4720_aa20_4a8c_93e8_df41a35b6723" xlink:title="AmountPerTimeDimension">
<ellipse fill="#ffc880" stroke="#000000" cx="522.8068" cy="-669.3269" rx="135.6761" ry="18"/>
<text text-anchor="middle" x="522.8068" y="-665.6269" font-family="Times,serif" font-size="14.00" fill="#000000">AmountPerTimeDimension</text>
</a>
</g>
</g>
<!-- AmountPerTimeDimension&#45;&gt;PhysicsDimension -->
<g id="edge21" class="edge">
<title>AmountPerTimeDimension&#45;&gt;PhysicsDimension</title>
<path fill="none" stroke="#000000" d="M386.9055,-668.706C335.7358,-671.8258 277.7081,-679.4663 227.083,-696.3269 189.1336,-708.9658 150.7562,-734.3698 125.3295,-753.3758"/>
<polygon fill="none" stroke="#000000" points="123.0585,-750.7058 117.2223,-759.5483 127.2989,-756.2753 123.0585,-750.7058"/>
</g>
<!-- TimeCurrentDimension -->
<g id="node19" class="node">
<title>TimeCurrentDimension</title>
<g id="a_node19"><a xlink:href="http://emmo.info/emmo/middle/isq#EMMO_ab79e92b_5377_454d_be06_d61b50db295a" xlink:title="TimeCurrentDimension">
<ellipse fill="#ffc880" stroke="#000000" cx="522.8068" cy="-615.3269" rx="120.4791" ry="18"/>
<text text-anchor="middle" x="522.8068" y="-611.6269" font-family="Times,serif" font-size="14.00" fill="#000000">TimeCurrentDimension</text>
</a>
</g>
</g>
<!-- TimeCurrentDimension&#45;&gt;PhysicsDimension -->
<g id="edge12" class="edge">
<title>TimeCurrentDimension&#45;&gt;PhysicsDimension</title>
<path fill="none" stroke="#000000" d="M414.3968,-607.5235C356.2657,-607.6024 284.909,-614.77 227.083,-642.3269 176.3188,-666.5185 134.4349,-719.0626 112.3834,-750.9946"/>
<polygon fill="none" stroke="#000000" points="109.394,-749.1674 106.6988,-759.4137 115.1954,-753.0846 109.394,-749.1674"/>
</g>
<!-- MassPerLengthSquareTimeDimension -->
<g id="node20" class="node">
<title>MassPerLengthSquareTimeDimension</title>
<g id="a_node20"><a xlink:href="http://emmo.info/emmo/middle/isq#EMMO_53bd0c90_41c3_46e2_8779_cd2a80f7e18b" xlink:title="MassPerLengthSquareTimeDimension">
<ellipse fill="#ffc880" stroke="#000000" cx="522.8068" cy="-561.3269" rx="189.5666" ry="18"/>
<text text-anchor="middle" x="522.8068" y="-557.6269" font-family="Times,serif" font-size="14.00" fill="#000000">MassPerLengthSquareTimeDimension</text>
</a>
</g>
</g>
<!-- MassPerLengthSquareTimeDimension&#45;&gt;PhysicsDimension -->
<g id="edge7" class="edge">
<title>MassPerLengthSquareTimeDimension&#45;&gt;PhysicsDimension</title>
<path fill="none" stroke="#000000" d="M369.6434,-550.6854C321.3272,-553.5776 269.5283,-563.6334 227.083,-588.3269 163.4221,-625.363 123.2635,-706.9755 105.7501,-749.8246"/>
<polygon fill="none" stroke="#000000" points="102.4095,-748.7539 101.9742,-759.3398 108.9159,-751.3359 102.4095,-748.7539"/>
</g>
<!-- MassSquareLengthPerCubicTimeDimension -->
<g id="node21" class="node">
<title>MassSquareLengthPerCubicTimeDimension</title>
<g id="a_node21"><a xlink:href="http://emmo.info/emmo/middle/isq#EMMO_c8d084ad_f88e_4596_8e4d_982c6655ce6f" xlink:title="MassSquareLengthPerCubicTimeDimension">
<ellipse fill="#ffc880" stroke="#000000" cx="522.8068" cy="-507.3269" rx="217.1615" ry="18"/>
<text text-anchor="middle" x="522.8068" y="-503.6269" font-family="Times,serif" font-size="14.00" fill="#000000">MassSquareLengthPerCubicTimeDimension</text>
</a>
</g>
</g>
<!-- MassSquareLengthPerCubicTimeDimension&#45;&gt;PhysicsDimension -->
<g id="edge19" class="edge">
<title>MassSquareLengthPerCubicTimeDimension&#45;&gt;PhysicsDimension</title>
<path fill="none" stroke="#000000" d="M387.5559,-493.2314C333.7427,-494.0431 273.6769,-503.6102 227.083,-534.3269 150.0813,-585.0895 114.5468,-696.6578 101.6247,-749.0723"/>
<polygon fill="none" stroke="#000000" points="98.1667,-748.4866 99.2697,-759.0238 104.9786,-750.0986 98.1667,-748.4866"/>
</g>
<!-- MassSquareLengthPerTimeDimension -->
<g id="node22" class="node">
<title>MassSquareLengthPerTimeDimension</title>
<g id="a_node22"><a xlink:href="http://emmo.info/emmo/middle/isq#EMMO_501f9b3a_c469_48f7_9281_2e6a8d805d7a" xlink:title="MassSquareLengthPerTimeDimension">
<ellipse fill="#ffc880" stroke="#000000" cx="522.8068" cy="-453.3269" rx="189.5666" ry="18"/>
<text text-anchor="middle" x="522.8068" y="-449.6269" font-family="Times,serif" font-size="14.00" fill="#000000">MassSquareLengthPerTimeDimension</text>
</a>
</g>
</g>
<!-- MassSquareLengthPerTimeDimension&#45;&gt;PhysicsDimension -->
<g id="edge9" class="edge">
<title>MassSquareLengthPerTimeDimension&#45;&gt;PhysicsDimension</title>
<path fill="none" stroke="#000000" d="M419.7389,-438.208C358.3947,-434.7804 282.0576,-440.8759 227.083,-480.3269 136.1013,-545.6174 107.1189,-688.3216 98.6946,-749.0559"/>
<polygon fill="none" stroke="#000000" points="95.2106,-748.7065 97.3905,-759.0746 102.1521,-749.6101 95.2106,-748.7065"/>
</g>
<!-- PerTimeDimension -->
<g id="node23" class="node">
<title>PerTimeDimension</title>
<g id="a_node23"><a xlink:href="http://emmo.info/emmo/middle/isq#EMMO_515b5579_d526_4842_9e6f_ecc34db6f368" xlink:title="PerTimeDimension">
<ellipse fill="#ffc880" stroke="#000000" cx="522.8068" cy="-399.3269" rx="98.5829" ry="18"/>
<text text-anchor="middle" x="522.8068" y="-395.6269" font-family="Times,serif" font-size="14.00" fill="#000000">PerTimeDimension</text>
</a>
</g>
</g>
<!-- PerTimeDimension&#45;&gt;PhysicsDimension -->
<g id="edge1" class="edge">
<title>PerTimeDimension&#45;&gt;PhysicsDimension</title>
<path fill="none" stroke="#000000" d="M453.8294,-386.3706C388.6993,-378.2105 291.6429,-377.0807 227.083,-426.3269 173.2184,-467.4147 119.96,-673.8447 101.9516,-749.49"/>
<polygon fill="none" stroke="#000000" points="98.5352,-748.7288 99.6481,-759.265 105.3486,-750.3345 98.5352,-748.7288"/>
</g>
<!-- LengthPerTimeDimension -->
<g id="node24" class="node">
<title>LengthPerTimeDimension</title>
<g id="a_node24"><a xlink:href="http://emmo.info/emmo/middle/isq#EMMO_4f5c7c54_1c63_4d17_b12b_ea0792c2b187" xlink:title="LengthPerTimeDimension">
<ellipse fill="#ffc880" stroke="#000000" cx="522.8068" cy="-345.3269" rx="131.8766" ry="18"/>
<text text-anchor="middle" x="522.8068" y="-341.6269" font-family="Times,serif" font-size="14.00" fill="#000000">LengthPerTimeDimension</text>
</a>
</g>
</g>
<!-- LengthPerTimeDimension&#45;&gt;PhysicsDimension -->
<g id="edge10" class="edge">
<title>LengthPerTimeDimension&#45;&gt;PhysicsDimension</title>
<path fill="none" stroke="#000000" d="M445.3927,-330.7479C380.1736,-323.0806 288.0131,-323.6668 227.083,-372.3269 166.0693,-421.0538 116.1827,-665.1252 100.6034,-748.983"/>
<polygon fill="none" stroke="#000000" points="97.1173,-748.5892 98.7544,-759.0568 104.0022,-749.8529 97.1173,-748.5892"/>
</g>
<!-- LuminousIntensityDimension -->
<g id="node25" class="node">
<title>LuminousIntensityDimension</title>
<g id="a_node25"><a xlink:href="http://emmo.info/emmo/middle/isq#EMMO_14ff4393_0f28_4fb4_abc7_c2cc00bc761d" xlink:title="LuminousIntensityDimension">
<ellipse fill="#ffc880" stroke="#000000" cx="522.8068" cy="-291.3269" rx="147.5738" ry="18"/>
<text text-anchor="middle" x="522.8068" y="-287.6269" font-family="Times,serif" font-size="14.00" fill="#000000">LuminousIntensityDimension</text>
</a>
</g>
</g>
<!-- LuminousIntensityDimension&#45;&gt;PhysicsDimension -->
<g id="edge22" class="edge">
<title>LuminousIntensityDimension&#45;&gt;PhysicsDimension</title>
<path fill="none" stroke="#000000" d="M443.9848,-276.0985C378.5556,-268.2206 286.8558,-268.8562 227.083,-318.3269 158.737,-374.8931 112.721,-657.7577 99.4749,-748.9458"/>
<polygon fill="none" stroke="#000000" points="95.9755,-748.6928 98.0227,-759.088 102.9049,-749.6851 95.9755,-748.6928"/>
</g>
<!-- MassDimension -->
<g id="node26" class="node">
<title>MassDimension</title>
<g id="a_node26"><a xlink:href="http://emmo.info/emmo/middle/isq#EMMO_77e9dc31_5b19_463e_b000_44c6e79f98aa" xlink:title="MassDimension">
<ellipse fill="#ffc880" stroke="#000000" cx="522.8068" cy="-237.3269" rx="84.485" ry="18"/>
<text text-anchor="middle" x="522.8068" y="-233.6269" font-family="Times,serif" font-size="14.00" fill="#000000">MassDimension</text>
</a>
</g>
</g>
<!-- MassDimension&#45;&gt;PhysicsDimension -->
<g id="edge15" class="edge">
<title>MassDimension&#45;&gt;PhysicsDimension</title>
<path fill="none" stroke="#000000" d="M463.3112,-224.4654C397.5554,-213.9759 292.337,-208.757 227.083,-264.3269 151.2623,-328.8953 109.5691,-651.5297 98.5383,-749.2399"/>
<polygon fill="none" stroke="#000000" points="95.0513,-748.9298 97.4268,-759.2549 102.0086,-749.702 95.0513,-748.9298"/>
</g>
<!-- PerAmountDimension -->
<g id="node27" class="node">
<title>PerAmountDimension</title>
<g id="a_node27"><a xlink:href="http://emmo.info/emmo/middle/isq#EMMO_af24ae20_8ef2_435a_86a1_2ea44488b318" xlink:title="PerAmountDimension">
<ellipse fill="#ffc880" stroke="#000000" cx="522.8068" cy="-183.3269" rx="112.3801" ry="18"/>
<text text-anchor="middle" x="522.8068" y="-179.6269" font-family="Times,serif" font-size="14.00" fill="#000000">PerAmountDimension</text>
</a>
</g>
</g>
<!-- PerAmountDimension&#45;&gt;PhysicsDimension -->
<g id="edge13" class="edge">
<title>PerAmountDimension&#45;&gt;PhysicsDimension</title>
<path fill="none" stroke="#000000" d="M454.8484,-168.9115C388.611,-159.1111 289.0691,-156.2954 227.083,-210.3269 143.8557,-282.8737 106.8697,-644.6882 97.823,-749.0856"/>
<polygon fill="none" stroke="#000000" points="94.3248,-748.9177 96.9667,-759.1779 101.2997,-749.5096 94.3248,-748.9177"/>
</g>
<!-- MassSquareLengthPerCubicTimeSquareCurrentDimension -->
<g id="node28" class="node">
<title>MassSquareLengthPerCubicTimeSquareCurrentDimension</title>
<g id="a_node28"><a xlink:href="http://emmo.info/emmo/middle/isq#EMMO_7610efb8_c7c6_4684_abc1_774783c62472" xlink:title="MassSquareLengthPerCubicTimeSquareCurrentDimension">
<ellipse fill="#ffc880" stroke="#000000" cx="522.8068" cy="-129.3269" rx="287.0492" ry="18"/>
<text text-anchor="middle" x="522.8068" y="-125.6269" font-family="Times,serif" font-size="14.00" fill="#000000">MassSquareLengthPerCubicTimeSquareCurrentDimension</text>
</a>
</g>
</g>
<!-- MassSquareLengthPerCubicTimeSquareCurrentDimension&#45;&gt;PhysicsDimension -->
<g id="edge8" class="edge">
<title>MassSquareLengthPerCubicTimeSquareCurrentDimension&#45;&gt;PhysicsDimension</title>
<path fill="none" stroke="#000000" d="M435.7434,-112.145C370.4111,-104.6012 282.9592,-106.6679 227.083,-156.3269 136.4018,-236.9181 104.4027,-638.214 97.2216,-748.9714"/>
<polygon fill="none" stroke="#000000" points="93.7226,-748.8463 96.5855,-759.0469 100.7087,-749.2874 93.7226,-748.8463"/>
</g>
<!-- LengthDimension -->
<g id="node29" class="node">
<title>LengthDimension</title>
<g id="a_node29"><a xlink:href="http://emmo.info/emmo/middle/isq#EMMO_b3600e73_3e05_479d_9714_c041c3acf5cc" xlink:title="LengthDimension">
<ellipse fill="#ffc880" stroke="#000000" cx="522.8068" cy="-75.3269" rx="92.8835" ry="18"/>
<text text-anchor="middle" x="522.8068" y="-71.6269" font-family="Times,serif" font-size="14.00" fill="#000000">LengthDimension</text>
</a>
</g>
</g>
<!-- LengthDimension&#45;&gt;PhysicsDimension -->
<g id="edge28" class="edge">
<title>LengthDimension&#45;&gt;PhysicsDimension</title>
<path fill="none" stroke="#000000" d="M462.1019,-61.6698C395.7599,-50.6192 290.4914,-45.0438 227.083,-102.3269 128.9209,-191.0066 102.1368,-631.9476 96.7113,-748.844"/>
<polygon fill="none" stroke="#000000" points="93.202,-748.9757 96.2512,-759.1222 100.195,-749.2888 93.202,-748.9757"/>
</g>
<!-- MassSquareLengthPerSquareTimeCurrentDimension -->
<g id="node30" class="node">
<title>MassSquareLengthPerSquareTimeCurrentDimension</title>
<g id="a_node30"><a xlink:href="http://emmo.info/emmo/middle/isq#EMMO_4c49ab58_a6f6_409e_b849_f873ae1dcbee" xlink:title="MassSquareLengthPerSquareTimeCurrentDimension">
<ellipse fill="#ffc880" stroke="#000000" cx="522.8068" cy="-21.3269" rx="259.9539" ry="18"/>
<text text-anchor="middle" x="522.8068" y="-17.6269" font-family="Times,serif" font-size="14.00" fill="#000000">MassSquareLengthPerSquareTimeCurrentDimension</text>
</a>
</g>
</g>
<!-- MassSquareLengthPerSquareTimeCurrentDimension&#45;&gt;PhysicsDimension -->
<g id="edge17" class="edge">
<title>MassSquareLengthPerSquareTimeCurrentDimension&#45;&gt;PhysicsDimension</title>
<path fill="none" stroke="#000000" d="M440.025,-4.2533C374.0006,4.192 283.5331,3.3895 227.083,-48.3269 121.3414,-145.2013 100.0059,-626.5507 96.2636,-748.9691"/>
<polygon fill="none" stroke="#000000" points="92.7627,-748.9546 95.971,-759.052 99.7597,-749.1578 92.7627,-748.9546"/>
</g>
<!-- key1 -->
<g id="node31" class="node">
<title>key1</title>
<text text-anchor="start" x="84.5415" y="-1583.1269" font-family="Times,serif" font-size="14.00" fill="#000000">isA</text>
</g>
<!-- key2 -->
<g id="node32" class="node">
<title>key2</title>
<text text-anchor="start" x="520.8068" y="-1583.1269" font-family="Times,serif" font-size="14.00" fill="#000000"> </text>
</g>
<!-- key2&#45;&gt;key1 -->
<g id="edge30" class="edge">
<title>key2:w&#45;&gt;key1:e</title>
<path fill="none" stroke="#000000" d="M518.8068,-1586.3269C340.375,-1586.3269 293.2186,-1586.3269 119.7865,-1586.3269"/>
<polygon fill="none" stroke="#000000" points="119.5416,-1582.8269 109.5415,-1586.3269 119.5415,-1589.8269 119.5416,-1582.8269"/>
</g>
</g>
</svg>
