<?xml version="1.0" encoding="UTF-8" standalone="no"?>
<!DOCTYPE svg PUBLIC "-//W3C//DTD SVG 1.1//EN"
 "http://www.w3.org/Graphics/SVG/1.1/DTD/svg11.dtd">
<!-- Generated by graphviz version 2.40.1 (0)
 -->
<!-- Title: %3 Pages: 1 -->
<svg width="686pt" height="270pt"
 viewBox="0.00 0.00 685.74 270.00" xmlns="http://www.w3.org/2000/svg" xmlns:xlink="http://www.w3.org/1999/xlink">
<g id="graph0" class="graph" transform="scale(1 1) rotate(0) translate(4 266)">
<title>%3</title>
<polygon fill="#ffffff" stroke="transparent" points="-4,4 -4,-266 681.7411,-266 681.7411,4 -4,4"/>
<!-- Matter -->
<g id="node1" class="node">
<title>Matter</title>
<g id="a_node1"><a xlink:href="http://emmo.info/emmo/middle/physicalistic#EMMO_5b2222df_4da6_442f_8244_96e9e45887d1" xlink:title="Matter">
<ellipse fill="#ffffcc" stroke="#000000" cx="367.7411" cy="-172" rx="42.7926" ry="18"/>
<text text-anchor="middle" x="367.7411" y="-168.3" font-family="Times,serif" font-size="14.00" fill="#000000">Matter</text>
</a>
</g>
</g>
<!-- Matter&#45;&gt;Matter -->
<g id="edge2" class="edge">
<title>Matter&#45;&gt;Matter</title>
<path fill="none" stroke="#ff00ff" d="M397.8199,-159.057C413.9459,-156.8575 428.6373,-161.1719 428.6373,-172 428.6373,-180.4595 419.6704,-184.9432 408.0579,-185.4513"/>
<polygon fill="#ff00ff" stroke="#ff00ff" points="407.9812,-181.9433 397.8199,-184.943 407.6341,-188.9347 407.9812,-181.9433"/>
</g>
<!-- Physicalistic -->
<g id="node5" class="node">
<title>Physicalistic</title>
<g id="a_node5"><a xlink:href="http://emmo.info/emmo/middle/physicalistic#EMMO_98ada9d8_f1c8_4f13_99b5_d890f5354152" xlink:title="Physicalistic">
<ellipse fill="#ffc880" stroke="#000000" stroke-width="2" cx="253.7411" cy="-244" rx="69.5877" ry="18"/>
<text text-anchor="middle" x="253.7411" y="-240.3" font-family="Times,serif" font-size="14.00" fill="#000000">Physicalistic</text>
</a>
</g>
</g>
<!-- Matter&#45;&gt;Physicalistic -->
<g id="edge1" class="edge">
<title>Matter&#45;&gt;Physicalistic</title>
<path fill="none" stroke="#000000" d="M343.8429,-187.0936C328.053,-197.0662 307.0767,-210.3143 289.3366,-221.5186"/>
<polygon fill="none" stroke="#000000" points="286.9852,-218.864 280.3993,-227.1632 290.7232,-224.7825 286.9852,-218.864"/>
</g>
<!-- Material -->
<g id="node2" class="node">
<title>Material</title>
<g id="a_node2"><a xlink:href="http://emmo.info/emmo/middle/physicalistic#EMMO_4207e895_8b83_4318_996a_72cfb32acd94" xlink:title="Material">
<ellipse fill="#ffffcc" stroke="#000000" cx="368.7411" cy="-100" rx="50.0912" ry="18"/>
<text text-anchor="middle" x="368.7411" y="-96.3" font-family="Times,serif" font-size="14.00" fill="#000000">Material</text>
</a>
</g>
</g>
<!-- Material&#45;&gt;Matter -->
<g id="edge3" class="edge">
<title>Material&#45;&gt;Matter</title>
<path fill="none" stroke="#000000" d="M368.4887,-118.1686C368.3818,-125.869 368.2546,-135.0257 368.1357,-143.5834"/>
<polygon fill="none" stroke="#000000" points="364.6361,-143.5391 367.9968,-153.5867 371.6354,-143.6363 364.6361,-143.5391"/>
</g>
<!-- Vacuum -->
<g id="node3" class="node">
<title>Vacuum</title>
<g id="a_node3"><a xlink:href="http://emmo.info/emmo/middle/physicalistic#EMMO_3c218fbe_60c9_4597_8bcf_41eb1773af1f" xlink:title="Vacuum">
<ellipse fill="#ffc880" stroke="#000000" cx="252.7411" cy="-100" rx="48.1917" ry="18"/>
<text text-anchor="middle" x="252.7411" y="-96.3" font-family="Times,serif" font-size="14.00" fill="#000000">Vacuum</text>
</a>
</g>
</g>
<!-- Field -->
<g id="node7" class="node">
<title>Field</title>
<g id="a_node7"><a xlink:href="http://emmo.info/emmo/middle/physicalistic#EMMO_70dac51e_bddd_48c2_8a98_7d8395e91fc2" xlink:title="Field">
<ellipse fill="#ffffcc" stroke="#000000" cx="253.7411" cy="-172" rx="34.394" ry="18"/>
<text text-anchor="middle" x="253.7411" y="-168.3" font-family="Times,serif" font-size="14.00" fill="#000000">Field</text>
</a>
</g>
</g>
<!-- Vacuum&#45;&gt;Field -->
<g id="edge6" class="edge">
<title>Vacuum&#45;&gt;Field</title>
<path fill="none" stroke="#000000" d="M252.9934,-118.1686C253.1004,-125.869 253.2275,-135.0257 253.3464,-143.5834"/>
<polygon fill="none" stroke="#000000" points="249.8467,-143.6363 253.4853,-153.5867 256.846,-143.5391 249.8467,-143.6363"/>
</g>
<!-- ElementaryParticle -->
<g id="node4" class="node">
<title>ElementaryParticle</title>
<g id="a_node4"><a xlink:href="http://emmo.info/emmo/middle/physicalistic#EMMO_c26a0340_d619_4928_b1a1_1a04e88bb89d" xlink:title="ElementaryParticle">
<ellipse fill="#ffffcc" stroke="#000000" stroke-width="2" cx="100.7411" cy="-172" rx="100.9827" ry="18"/>
<text text-anchor="middle" x="100.7411" y="-168.3" font-family="Times,serif" font-size="14.00" fill="#000000">ElementaryParticle</text>
</a>
</g>
</g>
<!-- ElementaryParticle&#45;&gt;Physicalistic -->
<g id="edge7" class="edge">
<title>ElementaryParticle&#45;&gt;Physicalistic</title>
<path fill="none" stroke="#000000" d="M136.6128,-188.8808C158.8147,-199.3288 187.4483,-212.8034 210.8469,-223.8145"/>
<polygon fill="none" stroke="#000000" points="209.6512,-227.12 220.1897,-228.2111 212.6318,-220.7862 209.6512,-227.12"/>
</g>
<!-- MaterialState -->
<g id="node6" class="node">
<title>MaterialState</title>
<g id="a_node6"><a xlink:href="http://emmo.info/emmo/middle/materials#EMMO_20fff605_465f_4034_8696_e53e90ec83f4" xlink:title="MaterialState">
<ellipse fill="#ffc880" stroke="#000000" stroke-width="2" cx="368.7411" cy="-23" rx="75.2868" ry="18"/>
<text text-anchor="middle" x="368.7411" y="-19.3" font-family="Times,serif" font-size="14.00" fill="#000000">MaterialState</text>
</a>
</g>
</g>
<!-- MaterialState&#45;&gt;Material -->
<g id="edge8" class="edge">
<title>MaterialState&#45;&gt;Material</title>
<path fill="none" stroke="#000000" d="M368.7411,-41.2479C368.7411,-50.3578 368.7411,-61.5826 368.7411,-71.7718"/>
<polygon fill="none" stroke="#000000" points="365.2412,-71.883 368.7411,-81.8831 372.2412,-71.8831 365.2412,-71.883"/>
</g>
<!-- Field&#45;&gt;Physicalistic -->
<g id="edge4" class="edge">
<title>Field&#45;&gt;Physicalistic</title>
<path fill="none" stroke="#000000" d="M253.7411,-190.1686C253.7411,-197.869 253.7411,-207.0257 253.7411,-215.5834"/>
<polygon fill="none" stroke="#000000" points="250.2412,-215.5867 253.7411,-225.5867 257.2412,-215.5868 250.2412,-215.5867"/>
</g>
<!-- Field&#45;&gt;Field -->
<g id="edge5" class="edge">
<title>Field&#45;&gt;Field</title>
<path fill="none" stroke="#ff00ff" d="M278.2903,-159.2918C292.7001,-156.5843 306.188,-160.8203 306.188,-172 306.188,-180.4721 298.4422,-184.9566 288.4192,-185.4536"/>
<polygon fill="#ff00ff" stroke="#ff00ff" points="288.5202,-181.9516 278.2903,-184.7082 288.0064,-188.9327 288.5202,-181.9516"/>
</g>
<!-- key1 -->
<g id="node8" class="node">
<title>key1</title>
<text text-anchor="start" x="572.7411" y="-28.8" font-family="Times,serif" font-size="14.00" fill="#000000">isA</text>
<text text-anchor="start" x="472.7411" y="-9.8" font-family="Times,serif" font-size="14.00" fill="#000000">hasTemporalPart</text>
</g>
<!-- key2 -->
<g id="node9" class="node">
<title>key2</title>
<text text-anchor="start" x="648.7411" y="-28.8" font-family="Times,serif" font-size="14.00" fill="#000000"> </text>
<text text-anchor="start" x="648.7411" y="-9.8" font-family="Times,serif" font-size="14.00" fill="#000000"> </text>
</g>
<!-- key1&#45;&gt;key2 -->
<g id="edge9" class="edge">
<title>key1:e&#45;&gt;key2:w</title>
<path fill="none" stroke="#ff00ff" d="M597.7411,-13C615.6056,-13 622.4793,-13 636.394,-13"/>
<polygon fill="#ff00ff" stroke="#ff00ff" points="636.7411,-16.5001 646.7411,-13 636.741,-9.5001 636.7411,-16.5001"/>
</g>
<!-- key1&#45;&gt;key2 -->
<g id="edge10" class="edge">
<title>key1:e&#45;&gt;key2:w</title>
<path fill="none" stroke="#000000" d="M597.7411,-33C615.6056,-33 622.4793,-33 636.394,-33"/>
<polygon fill="none" stroke="#000000" points="636.7411,-36.5001 646.7411,-33 636.741,-29.5001 636.7411,-36.5001"/>
</g>
</g>
</svg>
