<?xml version="1.0" encoding="UTF-8" standalone="no"?>
<!DOCTYPE svg PUBLIC "-//W3C//DTD SVG 1.1//EN"
 "http://www.w3.org/Graphics/SVG/1.1/DTD/svg11.dtd">
<!-- Generated by graphviz version 2.40.1 (0)
 -->
<!-- Title: %3 Pages: 1 -->
<svg width="514pt" height="332pt"
 viewBox="0.00 0.00 514.00 332.00" xmlns="http://www.w3.org/2000/svg" xmlns:xlink="http://www.w3.org/1999/xlink">
<g id="graph0" class="graph" transform="scale(1 1) rotate(0) translate(4 328)">
<title>%3</title>
<polygon fill="#ffffff" stroke="transparent" points="-4,4 -4,-328 510,-328 510,4 -4,4"/>
<!-- hasModel -->
<g id="node1" class="node">
<title>hasModel</title>
<g id="a_node1"><a xlink:href="http://emmo.info/emmo/middle/models#EMMO_24c71baf_6db6_48b9_86c8_8c70cf36db0c" xlink:title="hasModel">
<polygon fill="#0079ba" stroke="#000000" points="86,-108 0,-108 0,-72 86,-72 86,-108"/>
<text text-anchor="middle" x="43" y="-86.3" font-family="Times,serif" font-size="14.00" fill="#ffffff">hasModel</text>
</a>
</g>
</g>
<!-- hasIcon -->
<g id="node6" class="node">
<title>hasIcon</title>
<g id="a_node6"><a xlink:href="http://emmo.info/emmo/top/semiotics#EMMO_39c3815d_8cae_4c8f_b2ff_eeba24bec455" xlink:title="hasIcon">
<polygon fill="#0079ba" stroke="#000000" points="79.5,-180 6.5,-180 6.5,-144 79.5,-144 79.5,-180"/>
<text text-anchor="middle" x="43" y="-158.3" font-family="Times,serif" font-size="14.00" fill="#ffffff">hasIcon</text>
</a>
</g>
</g>
<!-- hasModel&#45;&gt;hasIcon -->
<g id="edge4" class="edge">
<title>hasModel&#45;&gt;hasIcon</title>
<path fill="none" stroke="#000000" d="M43,-108.1686C43,-115.869 43,-125.0257 43,-133.5834"/>
<polygon fill="none" stroke="#000000" points="39.5001,-133.5867 43,-143.5867 46.5001,-133.5868 39.5001,-133.5867"/>
</g>
<!-- hasSign -->
<g id="node2" class="node">
<title>hasSign</title>
<g id="a_node2"><a xlink:href="http://emmo.info/emmo/top/semiotics#EMMO_60577dea_9019_4537_ac41_80b0fb563d41" xlink:title="hasSign">
<polygon fill="#0079ba" stroke="#000000" points="268,-252 194,-252 194,-216 268,-216 268,-252"/>
<text text-anchor="middle" x="231" y="-230.3" font-family="Times,serif" font-size="14.00" fill="#ffffff">hasSign</text>
</a>
</g>
</g>
<!-- semiotical -->
<g id="node9" class="node">
<title>semiotical</title>
<g id="a_node9"><a xlink:href="http://emmo.info/emmo/top/semiotics#EMMO_2337e25c_3c60_43fc_a8f9_b11a3f974291" xlink:title="semiotical">
<polygon fill="#0079ba" stroke="#000000" stroke-width="2" points="276,-324 186,-324 186,-288 276,-288 276,-324"/>
<text text-anchor="middle" x="231" y="-302.3" font-family="Times,serif" font-size="14.00" fill="#ffffff">semiotical</text>
</a>
</g>
</g>
<!-- hasSign&#45;&gt;semiotical -->
<g id="edge1" class="edge">
<title>hasSign&#45;&gt;semiotical</title>
<path fill="none" stroke="#000000" d="M231,-252.1686C231,-259.869 231,-269.0257 231,-277.5834"/>
<polygon fill="none" stroke="#000000" points="227.5001,-277.5867 231,-287.5867 234.5001,-277.5868 227.5001,-277.5867"/>
</g>
<!-- hasConvention -->
<g id="node3" class="node">
<title>hasConvention</title>
<g id="a_node3"><a xlink:href="http://emmo.info/emmo/top/semiotics#EMMO_eb3518bf_f799_4f9e_8c3e_ce59af11453b" xlink:title="hasConvention">
<polygon fill="#0079ba" stroke="#000000" points="220.5,-180 97.5,-180 97.5,-144 220.5,-144 220.5,-180"/>
<text text-anchor="middle" x="159" y="-158.3" font-family="Times,serif" font-size="14.00" fill="#ffffff">hasConvention</text>
</a>
</g>
</g>
<!-- hasConvention&#45;&gt;hasSign -->
<g id="edge2" class="edge">
<title>hasConvention&#45;&gt;hasSign</title>
<path fill="none" stroke="#000000" d="M177.1686,-180.1686C185.7152,-188.7152 196.0557,-199.0557 205.3802,-208.3802"/>
<polygon fill="none" stroke="#000000" points="203.0408,-210.9905 212.5867,-215.5867 207.9905,-206.0408 203.0408,-210.9905"/>
</g>
<!-- hasInterpretant -->
<g id="node4" class="node">
<title>hasInterpretant</title>
<g id="a_node4"><a xlink:href="http://emmo.info/emmo/top/semiotics#EMMO_7fb7fe7e_bdf9_4eeb_adad_e384dd5285c6" xlink:title="hasInterpretant">
<polygon fill="#0079ba" stroke="#000000" points="369.5,-180 238.5,-180 238.5,-144 369.5,-144 369.5,-180"/>
<text text-anchor="middle" x="304" y="-158.3" font-family="Times,serif" font-size="14.00" fill="#ffffff">hasInterpretant</text>
</a>
</g>
</g>
<!-- hasInterpretant&#45;&gt;hasSign -->
<g id="edge3" class="edge">
<title>hasInterpretant&#45;&gt;hasSign</title>
<path fill="none" stroke="#000000" d="M285.579,-180.1686C276.8471,-188.781 266.2683,-199.2149 256.7577,-208.5952"/>
<polygon fill="none" stroke="#000000" points="254.077,-206.3231 249.4151,-215.8372 258.9925,-211.3069 254.077,-206.3231"/>
</g>
<!-- hasPhysicsDimension -->
<g id="node5" class="node">
<title>hasPhysicsDimension</title>
<g id="a_node5"><a xlink:href="http://emmo.info/emmo/middle/metrology#EMMO_bed1d005_b04e_4a90_94cf_02bc678a8569" xlink:title="hasPhysicsDimension">
<polygon fill="#0079ba" stroke="#000000" points="362,-36 190,-36 190,0 362,0 362,-36"/>
<text text-anchor="middle" x="276" y="-14.3" font-family="Times,serif" font-size="14.00" fill="#ffffff">hasPhysicsDimension</text>
</a>
</g>
</g>
<!-- hasProperty -->
<g id="node10" class="node">
<title>hasProperty</title>
<g id="a_node10"><a xlink:href="http://emmo.info/emmo/middle/properties#EMMO_e1097637_70d2_4895_973f_2396f04fa204" xlink:title="hasProperty">
<polygon fill="#0079ba" stroke="#000000" points="328,-108 224,-108 224,-72 328,-72 328,-108"/>
<text text-anchor="middle" x="276" y="-86.3" font-family="Times,serif" font-size="14.00" fill="#ffffff">hasProperty</text>
</a>
</g>
</g>
<!-- hasPhysicsDimension&#45;&gt;hasProperty -->
<g id="edge5" class="edge">
<title>hasPhysicsDimension&#45;&gt;hasProperty</title>
<path fill="none" stroke="#000000" d="M276,-36.1686C276,-43.869 276,-53.0257 276,-61.5834"/>
<polygon fill="none" stroke="#000000" points="272.5001,-61.5867 276,-71.5867 279.5001,-61.5868 272.5001,-61.5867"/>
</g>
<!-- hasIcon&#45;&gt;hasSign -->
<g id="edge6" class="edge">
<title>hasIcon&#45;&gt;hasSign</title>
<path fill="none" stroke="#000000" d="M79.8139,-176.7931C82.5816,-177.8846 85.3335,-178.9634 88,-180 120.0819,-192.4724 156.3639,-206.1686 184.3541,-216.6466"/>
<polygon fill="none" stroke="#000000" points="183.2958,-219.9875 193.8883,-220.2113 185.7473,-213.4308 183.2958,-219.9875"/>
</g>
<!-- hasIndex -->
<g id="node7" class="node">
<title>hasIndex</title>
<g id="a_node7"><a xlink:href="http://emmo.info/emmo/top/semiotics#EMMO_297999d6_c9e4_4262_9536_bd524d1c6e21" xlink:title="hasIndex">
<polygon fill="#0079ba" stroke="#000000" points="470,-180 388,-180 388,-144 470,-144 470,-180"/>
<text text-anchor="middle" x="429" y="-158.3" font-family="Times,serif" font-size="14.00" fill="#ffffff">hasIndex</text>
</a>
</g>
</g>
<!-- hasIndex&#45;&gt;hasSign -->
<g id="edge8" class="edge">
<title>hasIndex&#45;&gt;hasSign</title>
<path fill="none" stroke="#000000" d="M387.9743,-176.9184C355.9116,-188.5776 311.3226,-204.7918 277.8574,-216.961"/>
<polygon fill="none" stroke="#000000" points="276.4968,-213.7314 268.295,-220.4382 278.889,-220.31 276.4968,-213.7314"/>
</g>
<!-- hasVariable -->
<g id="node8" class="node">
<title>hasVariable</title>
<g id="a_node8"><a xlink:href="http://emmo.info/emmo/middle/math#EMMO_3446e167_c576_49d6_846c_215bb8878a55" xlink:title="hasVariable">
<polygon fill="#0079ba" stroke="#000000" points="206,-108 106,-108 106,-72 206,-72 206,-108"/>
<text text-anchor="middle" x="156" y="-86.3" font-family="Times,serif" font-size="14.00" fill="#ffffff">hasVariable</text>
</a>
</g>
</g>
<!-- hasVariable&#45;&gt;hasConvention -->
<g id="edge7" class="edge">
<title>hasVariable&#45;&gt;hasConvention</title>
<path fill="none" stroke="#000000" d="M156.757,-108.1686C157.0779,-115.869 157.4594,-125.0257 157.816,-133.5834"/>
<polygon fill="none" stroke="#000000" points="154.3194,-133.7411 158.2328,-143.5867 161.3133,-133.4497 154.3194,-133.7411"/>
</g>
<!-- hasProperty&#45;&gt;hasConvention -->
<g id="edge9" class="edge">
<title>hasProperty&#45;&gt;hasConvention</title>
<path fill="none" stroke="#000000" d="M246.476,-108.1686C231.5109,-117.3779 213.1614,-128.6699 197.1397,-138.5294"/>
<polygon fill="none" stroke="#000000" points="195.1968,-135.6153 188.5146,-143.8372 198.8655,-141.577 195.1968,-135.6153"/>
</g>
<!-- key1 -->
<g id="node11" class="node">
<title>key1</title>
<text text-anchor="start" x="396" y="-13.8" font-family="Times,serif" font-size="14.00" fill="#000000">isA</text>
</g>
<!-- key2 -->
<g id="node12" class="node">
<title>key2</title>
<text text-anchor="start" x="477" y="-13.8" font-family="Times,serif" font-size="14.00" fill="#000000"> </text>
</g>
<!-- key1&#45;&gt;key2 -->
<g id="edge10" class="edge">
<title>key1:e&#45;&gt;key2:w</title>
<path fill="none" stroke="#000000" d="M421,-19C441.25,-19 448.6855,-19 464.931,-19"/>
<polygon fill="none" stroke="#000000" points="465,-22.5001 475,-19 465,-15.5001 465,-22.5001"/>
</g>
</g>
</svg>
