<?xml version="1.0" encoding="UTF-8" standalone="no"?>
<!DOCTYPE svg PUBLIC "-//W3C//DTD SVG 1.1//EN"
 "http://www.w3.org/Graphics/SVG/1.1/DTD/svg11.dtd">
<!-- Generated by graphviz version 2.40.1 (0)
 -->
<!-- Title: %3 Pages: 1 -->
<svg width="703pt" height="188pt"
 viewBox="0.00 0.00 703.05 188.00" xmlns="http://www.w3.org/2000/svg" xmlns:xlink="http://www.w3.org/1999/xlink">
<g id="graph0" class="graph" transform="scale(1 1) rotate(0) translate(4 184)">
<title>%3</title>
<polygon fill="#ffffff" stroke="transparent" points="-4,4 -4,-184 699.0467,-184 699.0467,4 -4,4"/>
<!-- Index -->
<g id="node1" class="node">
<title>Index</title>
<g id="a_node1"><a xlink:href="http://emmo.info/emmo/top/semiotics#EMMO_0cd58641_824c_4851_907f_f4c3be76630c" xlink:title="Index">
<ellipse fill="#ffffcc" stroke="#000000" cx="37.0467" cy="-90" rx="37.0935" ry="18"/>
<text text-anchor="middle" x="37.0467" y="-86.3" font-family="Times,serif" font-size="14.00" fill="#000000">Index</text>
</a>
</g>
</g>
<!-- Sign -->
<g id="node5" class="node">
<title>Sign</title>
<g id="a_node5"><a xlink:href="http://emmo.info/emmo/top/semiotics#EMMO_b21a56ed_f969_4612_a6ec_cb7766f7f31d" xlink:title="Sign">
<ellipse fill="#ffc880" stroke="#000000" stroke-width="2" cx="323.0467" cy="-162" rx="31.6951" ry="18"/>
<text text-anchor="middle" x="323.0467" y="-158.3" font-family="Times,serif" font-size="14.00" fill="#000000">Sign</text>
</a>
</g>
</g>
<!-- Index&#45;&gt;Sign -->
<g id="edge3" class="edge">
<title>Index&#45;&gt;Sign</title>
<path fill="none" stroke="#000000" d="M65.5194,-101.9149C71.2665,-104.1001 77.3068,-106.2423 83.0467,-108 151.9083,-129.0866 234.184,-145.8235 282.3241,-154.7919"/>
<polygon fill="none" stroke="#000000" points="281.8822,-158.2693 292.3509,-156.6392 283.1506,-151.3851 281.8822,-158.2693"/>
</g>
<!-- Conventional -->
<g id="node2" class="node">
<title>Conventional</title>
<g id="a_node2"><a xlink:href="http://emmo.info/emmo/top/semiotics#EMMO_35d2e130_6e01_41ed_94f7_00b333d46cf9" xlink:title="Conventional">
<ellipse fill="#ffffcc" stroke="#000000" stroke-width="2" cx="164.0467" cy="-90" rx="72.2875" ry="18"/>
<text text-anchor="middle" x="164.0467" y="-86.3" font-family="Times,serif" font-size="14.00" fill="#000000">Conventional</text>
</a>
</g>
</g>
<!-- Conventional&#45;&gt;Sign -->
<g id="edge2" class="edge">
<title>Conventional&#45;&gt;Sign</title>
<path fill="none" stroke="#000000" d="M198.9399,-105.8007C225.6444,-117.8933 262.2771,-134.4817 288.8156,-146.4991"/>
<polygon fill="none" stroke="#000000" points="287.5458,-149.7662 298.0992,-150.703 290.4334,-143.3895 287.5458,-149.7662"/>
</g>
<!-- SISpecialUnit -->
<g id="node3" class="node">
<title>SISpecialUnit</title>
<g id="a_node3"><a xlink:href="http://emmo.info/emmo/middle/siunits#EMMO_e9ffc696_5228_4ff9_8a60_0f5e05e9931b" xlink:title="SISpecialUnit">
<ellipse fill="#ffffcc" stroke="#000000" stroke-width="2" cx="476.0467" cy="-18" rx="75.2868" ry="18"/>
<text text-anchor="middle" x="476.0467" y="-14.3" font-family="Times,serif" font-size="14.00" fill="#000000">SISpecialUnit</text>
</a>
</g>
</g>
<!-- SpecialUnit -->
<g id="node6" class="node">
<title>SpecialUnit</title>
<g id="a_node6"><a xlink:href="http://emmo.info/emmo/middle/metrology#EMMO_3ee80521_3c23_4dd1_935d_9d522614a3e2" xlink:title="SpecialUnit">
<ellipse fill="#ffffcc" stroke="#000000" cx="476.0467" cy="-90" rx="65.7887" ry="18"/>
<text text-anchor="middle" x="476.0467" y="-86.3" font-family="Times,serif" font-size="14.00" fill="#000000">SpecialUnit</text>
</a>
</g>
</g>
<!-- SISpecialUnit&#45;&gt;SpecialUnit -->
<g id="edge4" class="edge">
<title>SISpecialUnit&#45;&gt;SpecialUnit</title>
<path fill="none" stroke="#000000" d="M476.0467,-36.1686C476.0467,-43.869 476.0467,-53.0257 476.0467,-61.5834"/>
<polygon fill="none" stroke="#000000" points="472.5468,-61.5867 476.0467,-71.5867 479.5468,-61.5868 472.5468,-61.5867"/>
</g>
<!-- Interpretant -->
<g id="node4" class="node">
<title>Interpretant</title>
<g id="a_node4"><a xlink:href="http://emmo.info/emmo/top/semiotics#EMMO_054af807_85cd_4a13_8eba_119dfdaaf38b" xlink:title="Interpretant">
<ellipse fill="#ffffcc" stroke="#000000" cx="323.0467" cy="-90" rx="68.7879" ry="18"/>
<text text-anchor="middle" x="323.0467" y="-86.3" font-family="Times,serif" font-size="14.00" fill="#000000">Interpretant</text>
</a>
</g>
</g>
<!-- Interpretant&#45;&gt;Sign -->
<g id="edge5" class="edge">
<title>Interpretant&#45;&gt;Sign</title>
<path fill="none" stroke="#000000" d="M323.0467,-108.1686C323.0467,-115.869 323.0467,-125.0257 323.0467,-133.5834"/>
<polygon fill="none" stroke="#000000" points="319.5468,-133.5867 323.0467,-143.5867 326.5468,-133.5868 319.5468,-133.5867"/>
</g>
<!-- SpecialUnit&#45;&gt;Sign -->
<g id="edge6" class="edge">
<title>SpecialUnit&#45;&gt;Sign</title>
<path fill="none" stroke="#000000" d="M442.848,-105.6229C417.4423,-117.5786 382.536,-134.005 356.9555,-146.0429"/>
<polygon fill="none" stroke="#000000" points="355.2053,-142.9983 347.6474,-150.4232 358.1859,-149.3321 355.2053,-142.9983"/>
</g>
<!-- Icon -->
<g id="node7" class="node">
<title>Icon</title>
<g id="a_node7"><a xlink:href="http://emmo.info/emmo/top/semiotics#EMMO_d7788d1a_020d_4c78_85a1_13563fcec168" xlink:title="Icon">
<ellipse fill="#ffffcc" stroke="#000000" stroke-width="2" cx="591.0467" cy="-90" rx="31.3957" ry="18"/>
<text text-anchor="middle" x="591.0467" y="-86.3" font-family="Times,serif" font-size="14.00" fill="#000000">Icon</text>
</a>
</g>
</g>
<!-- Icon&#45;&gt;Sign -->
<g id="edge1" class="edge">
<title>Icon&#45;&gt;Sign</title>
<path fill="none" stroke="#000000" d="M566.8044,-101.7943C561.673,-104.0393 556.2379,-106.2352 551.0467,-108 486.9546,-129.7889 409.843,-146.0687 363.7222,-154.7945"/>
<polygon fill="none" stroke="#000000" points="362.9972,-151.3692 353.8086,-156.6438 364.2809,-158.2505 362.9972,-151.3692"/>
</g>
<!-- key1 -->
<g id="node8" class="node">
<title>key1</title>
<text text-anchor="start" x="585.0467" y="-13.8" font-family="Times,serif" font-size="14.00" fill="#000000">isA</text>
</g>
<!-- key2 -->
<g id="node9" class="node">
<title>key2</title>
<text text-anchor="start" x="666.0467" y="-13.8" font-family="Times,serif" font-size="14.00" fill="#000000"> </text>
</g>
<!-- key1&#45;&gt;key2 -->
<g id="edge7" class="edge">
<title>key1:e&#45;&gt;key2:w</title>
<path fill="none" stroke="#000000" d="M610.0467,-19C630.2967,-19 637.7323,-19 653.9777,-19"/>
<polygon fill="none" stroke="#000000" points="654.0467,-22.5001 664.0467,-19 654.0467,-15.5001 654.0467,-22.5001"/>
</g>
</g>
</svg>
