<?xml version="1.0" encoding="UTF-8" standalone="no"?>
<!DOCTYPE svg PUBLIC "-//W3C//DTD SVG 1.1//EN"
 "http://www.w3.org/Graphics/SVG/1.1/DTD/svg11.dtd">
<!-- Generated by graphviz version 2.40.1 (0)
 -->
<!-- Title: %3 Pages: 1 -->
<svg width="472pt" height="198pt"
 viewBox="0.00 0.00 472.05 198.00" xmlns="http://www.w3.org/2000/svg" xmlns:xlink="http://www.w3.org/1999/xlink">
<g id="graph0" class="graph" transform="scale(1 1) rotate(0) translate(4 194)">
<title>%3</title>
<polygon fill="#ffffff" stroke="transparent" points="-4,4 -4,-194 468.0456,-194 468.0456,4 -4,4"/>
<!-- Neutron -->
<g id="node1" class="node">
<title>Neutron</title>
<g id="a_node1"><a xlink:href="http://emmo.info/emmo/middle/materials#EMMO_df808271_df91_4f27_ba59_fa423c51896c" xlink:title="Neutron">
<ellipse fill="#ffffcc" stroke="#000000" cx="50.0456" cy="-23" rx="50.0912" ry="18"/>
<text text-anchor="middle" x="50.0456" y="-19.3" font-family="Times,serif" font-size="14.00" fill="#000000">Neutron</text>
</a>
</g>
</g>
<!-- Nucleon -->
<g id="node6" class="node">
<title>Nucleon</title>
<g id="a_node6"><a xlink:href="http://emmo.info/emmo/middle/materials#EMMO_50781fd9_a9e4_46ad_b7be_4500371d188d" xlink:title="Nucleon">
<ellipse fill="#ffffcc" stroke="#000000" cx="105.0456" cy="-100" rx="50.0912" ry="18"/>
<text text-anchor="middle" x="105.0456" y="-96.3" font-family="Times,serif" font-size="14.00" fill="#000000">Nucleon</text>
</a>
</g>
</g>
<!-- Neutron&#45;&gt;Nucleon -->
<g id="edge3" class="edge">
<title>Neutron&#45;&gt;Nucleon</title>
<path fill="none" stroke="#000000" d="M62.5259,-40.4725C69.5783,-50.3459 78.5318,-62.8807 86.4019,-73.8988"/>
<polygon fill="none" stroke="#000000" points="83.7637,-76.2271 92.4242,-82.3301 89.4599,-72.1584 83.7637,-76.2271"/>
</g>
<!-- ElectronCloud -->
<g id="node2" class="node">
<title>ElectronCloud</title>
<g id="a_node2"><a xlink:href="http://emmo.info/emmo/middle/materials#EMMO_1067b97a_84f8_4d22_8ace_b842b8ce355c" xlink:title="ElectronCloud">
<ellipse fill="#ffffcc" stroke="#000000" cx="251.0456" cy="-100" rx="77.9862" ry="18"/>
<text text-anchor="middle" x="251.0456" y="-96.3" font-family="Times,serif" font-size="14.00" fill="#000000">ElectronCloud</text>
</a>
</g>
</g>
<!-- Subatomic -->
<g id="node5" class="node">
<title>Subatomic</title>
<g id="a_node5"><a xlink:href="http://emmo.info/emmo/middle/materials#EMMO_7d66bde4_b68d_41cc_b5fc_6fd98c5e2ff0" xlink:title="Subatomic">
<ellipse fill="#ffffcc" stroke="#000000" stroke-width="2" cx="251.0456" cy="-172" rx="60.3893" ry="18"/>
<text text-anchor="middle" x="251.0456" y="-168.3" font-family="Times,serif" font-size="14.00" fill="#000000">Subatomic</text>
</a>
</g>
</g>
<!-- ElectronCloud&#45;&gt;Subatomic -->
<g id="edge1" class="edge">
<title>ElectronCloud&#45;&gt;Subatomic</title>
<path fill="none" stroke="#000000" d="M251.0456,-118.1686C251.0456,-125.869 251.0456,-135.0257 251.0456,-143.5834"/>
<polygon fill="none" stroke="#000000" points="247.5457,-143.5867 251.0456,-153.5867 254.5457,-143.5868 247.5457,-143.5867"/>
</g>
<!-- Proton -->
<g id="node3" class="node">
<title>Proton</title>
<g id="a_node3"><a xlink:href="http://emmo.info/emmo/middle/materials#EMMO_8f87e700_99a8_4427_8ffb_e493de05c217" xlink:title="Proton">
<ellipse fill="#ffffcc" stroke="#000000" cx="160.0456" cy="-23" rx="42.4939" ry="18"/>
<text text-anchor="middle" x="160.0456" y="-19.3" font-family="Times,serif" font-size="14.00" fill="#000000">Proton</text>
</a>
</g>
</g>
<!-- Proton&#45;&gt;Nucleon -->
<g id="edge2" class="edge">
<title>Proton&#45;&gt;Nucleon</title>
<path fill="none" stroke="#000000" d="M147.5652,-40.4725C140.5128,-50.3459 131.5593,-62.8807 123.6893,-73.8988"/>
<polygon fill="none" stroke="#000000" points="120.6313,-72.1584 117.6669,-82.3301 126.3274,-76.2271 120.6313,-72.1584"/>
</g>
<!-- Nucleus -->
<g id="node4" class="node">
<title>Nucleus</title>
<g id="a_node4"><a xlink:href="http://emmo.info/emmo/middle/materials#EMMO_f835f4d4_c665_403d_ab25_dca5cc74be52" xlink:title="Nucleus">
<ellipse fill="#ffffcc" stroke="#000000" cx="396.0456" cy="-100" rx="49.2915" ry="18"/>
<text text-anchor="middle" x="396.0456" y="-96.3" font-family="Times,serif" font-size="14.00" fill="#000000">Nucleus</text>
</a>
</g>
</g>
<!-- Nucleus&#45;&gt;Subatomic -->
<g id="edge5" class="edge">
<title>Nucleus&#45;&gt;Subatomic</title>
<path fill="none" stroke="#000000" d="M366.7026,-114.5703C345.0783,-125.3079 315.4003,-140.0446 291.5222,-151.9013"/>
<polygon fill="none" stroke="#000000" points="289.7522,-148.8724 282.3522,-156.4546 292.8654,-155.142 289.7522,-148.8724"/>
</g>
<!-- Nucleus&#45;&gt;Nucleon -->
<g id="edge6" class="edge">
<title>Nucleus&#45;&gt;Nucleon</title>
<path fill="none" stroke="#006400" d="M373.0331,-83.9667C360.6171,-76.2917 344.6683,-67.9314 329.0456,-64 261.8084,-47.0802 240.3344,-47.2871 173.0456,-64 160.6892,-67.069 148.1078,-72.843 137.1816,-78.8823"/>
<polygon fill="#006400" stroke="#006400" points="135.3227,-75.9144 128.4342,-83.9642 138.8392,-81.9671 135.3227,-75.9144"/>
</g>
<!-- Nucleon&#45;&gt;Subatomic -->
<g id="edge4" class="edge">
<title>Nucleon&#45;&gt;Subatomic</title>
<path fill="none" stroke="#000000" d="M134.5908,-114.5703C156.4379,-125.3442 186.449,-140.1442 210.5333,-152.0213"/>
<polygon fill="none" stroke="#000000" points="209.2613,-155.2965 219.7781,-156.5804 212.3574,-149.0184 209.2613,-155.2965"/>
</g>
<!-- key1 -->
<g id="node7" class="node">
<title>key1</title>
<text text-anchor="start" x="359.0456" y="-28.8" font-family="Times,serif" font-size="14.00" fill="#000000">isA</text>
<text text-anchor="start" x="231.0456" y="-9.8" font-family="Times,serif" font-size="14.00" fill="#000000">hasSpatialDirectPart</text>
</g>
<!-- key2 -->
<g id="node8" class="node">
<title>key2</title>
<text text-anchor="start" x="435.0456" y="-28.8" font-family="Times,serif" font-size="14.00" fill="#000000"> </text>
<text text-anchor="start" x="435.0456" y="-9.8" font-family="Times,serif" font-size="14.00" fill="#000000"> </text>
</g>
<!-- key1&#45;&gt;key2 -->
<g id="edge7" class="edge">
<title>key1:e&#45;&gt;key2:w</title>
<path fill="none" stroke="#006400" d="M384.0456,-13C401.9101,-13 408.7838,-13 422.6985,-13"/>
<polygon fill="#006400" stroke="#006400" points="423.0456,-16.5001 433.0456,-13 423.0455,-9.5001 423.0456,-16.5001"/>
</g>
<!-- key1&#45;&gt;key2 -->
<g id="edge8" class="edge">
<title>key1:e&#45;&gt;key2:w</title>
<path fill="none" stroke="#000000" d="M384.0456,-33C401.9101,-33 408.7838,-33 422.6985,-33"/>
<polygon fill="none" stroke="#000000" points="423.0456,-36.5001 433.0456,-33 423.0455,-29.5001 423.0456,-36.5001"/>
</g>
</g>
</svg>
