<?xml version="1.0" encoding="UTF-8" standalone="no"?>
<!DOCTYPE svg PUBLIC "-//W3C//DTD SVG 1.1//EN"
 "http://www.w3.org/Graphics/SVG/1.1/DTD/svg11.dtd">
<!-- Generated by graphviz version 2.40.1 (0)
 -->
<!-- Title: %3 Pages: 1 -->
<svg width="1363pt" height="188pt"
 viewBox="0.00 0.00 1363.24 188.00" xmlns="http://www.w3.org/2000/svg" xmlns:xlink="http://www.w3.org/1999/xlink">
<g id="graph0" class="graph" transform="scale(1 1) rotate(0) translate(4 184)">
<title>%3</title>
<polygon fill="#ffffff" stroke="transparent" points="-4,4 -4,-184 1359.2405,-184 1359.2405,4 -4,4"/>
<!-- AmountOfSubstance -->
<g id="node1" class="node">
<title>AmountOfSubstance</title>
<g id="a_node1"><a xlink:href="http://emmo.info/emmo/middle/isq#EMMO_8159c26a_494b_4fa0_9959_10888f152298" xlink:title="AmountOfSubstance">
<ellipse fill="#ffffcc" stroke="#000000" cx="107.2405" cy="-18" rx="107.4815" ry="18"/>
<text text-anchor="middle" x="107.2405" y="-14.3" font-family="Times,serif" font-size="14.00" fill="#000000">AmountOfSubstance</text>
</a>
</g>
</g>
<!-- ISQBaseQuantity -->
<g id="node3" class="node">
<title>ISQBaseQuantity</title>
<g id="a_node3"><a xlink:href="http://emmo.info/emmo/middle/isq#EMMO_1a4c1a97_88a7_4d8e_b2f9_2ca58e92dde4" xlink:title="ISQBaseQuantity">
<ellipse fill="#ffffcc" stroke="#000000" cx="671.2405" cy="-90" rx="92.0841" ry="18"/>
<text text-anchor="middle" x="671.2405" y="-86.3" font-family="Times,serif" font-size="14.00" fill="#000000">ISQBaseQuantity</text>
</a>
</g>
</g>
<!-- AmountOfSubstance&#45;&gt;ISQBaseQuantity -->
<g id="edge5" class="edge">
<title>AmountOfSubstance&#45;&gt;ISQBaseQuantity</title>
<path fill="none" stroke="#000000" d="M184.8714,-30.4194C197.6789,-32.3611 210.8242,-34.2889 223.2405,-36 346.8526,-53.0354 490.0723,-69.7766 580.6487,-79.9951"/>
<polygon fill="none" stroke="#000000" points="580.2805,-83.4756 590.6093,-81.1164 581.0637,-76.5196 580.2805,-83.4756"/>
</g>
<!-- ElectricCurrent -->
<g id="node2" class="node">
<title>ElectricCurrent</title>
<g id="a_node2"><a xlink:href="http://emmo.info/emmo/middle/isq#EMMO_c995ae70_3b84_4ebb_bcfc_69e6a281bb88" xlink:title="ElectricCurrent">
<ellipse fill="#ffffcc" stroke="#000000" cx="317.2405" cy="-18" rx="85.2851" ry="18"/>
<text text-anchor="middle" x="317.2405" y="-14.3" font-family="Times,serif" font-size="14.00" fill="#000000">ElectricCurrent</text>
</a>
</g>
</g>
<!-- ElectricCurrent&#45;&gt;ISQBaseQuantity -->
<g id="edge4" class="edge">
<title>ElectricCurrent&#45;&gt;ISQBaseQuantity</title>
<path fill="none" stroke="#000000" d="M378.9026,-30.5414C439.6373,-42.8943 532.4626,-61.774 597.1664,-74.9341"/>
<polygon fill="none" stroke="#000000" points="596.8034,-78.4318 607.3003,-76.9952 598.1986,-71.5723 596.8034,-78.4318"/>
</g>
<!-- BaseQuantity -->
<g id="node4" class="node">
<title>BaseQuantity</title>
<g id="a_node4"><a xlink:href="http://emmo.info/emmo/middle/metrology#EMMO_acaaa124_3dde_48b6_86e6_6ec6f364f408" xlink:title="BaseQuantity">
<ellipse fill="#ffffcc" stroke="#000000" stroke-width="2" cx="671.2405" cy="-162" rx="74.187" ry="18"/>
<text text-anchor="middle" x="671.2405" y="-158.3" font-family="Times,serif" font-size="14.00" fill="#000000">BaseQuantity</text>
</a>
</g>
</g>
<!-- ISQBaseQuantity&#45;&gt;BaseQuantity -->
<g id="edge1" class="edge">
<title>ISQBaseQuantity&#45;&gt;BaseQuantity</title>
<path fill="none" stroke="#000000" d="M671.2405,-108.1686C671.2405,-115.869 671.2405,-125.0257 671.2405,-133.5834"/>
<polygon fill="none" stroke="#000000" points="667.7406,-133.5867 671.2405,-143.5867 674.7406,-133.5868 667.7406,-133.5867"/>
</g>
<!-- LuminousIntensity -->
<g id="node5" class="node">
<title>LuminousIntensity</title>
<g id="a_node5"><a xlink:href="http://emmo.info/emmo/middle/isq#EMMO_50bf79a6_a48b_424d_9d2c_813bd631231a" xlink:title="LuminousIntensity">
<ellipse fill="#ffffcc" stroke="#000000" cx="519.2405" cy="-18" rx="98.5829" ry="18"/>
<text text-anchor="middle" x="519.2405" y="-14.3" font-family="Times,serif" font-size="14.00" fill="#000000">LuminousIntensity</text>
</a>
</g>
</g>
<!-- LuminousIntensity&#45;&gt;ISQBaseQuantity -->
<g id="edge3" class="edge">
<title>LuminousIntensity&#45;&gt;ISQBaseQuantity</title>
<path fill="none" stroke="#000000" d="M554.8777,-34.8808C576.3947,-45.073 603.9923,-58.1456 626.9107,-69.0017"/>
<polygon fill="none" stroke="#000000" points="625.5532,-72.2314 636.0889,-73.3493 628.5499,-65.9053 625.5532,-72.2314"/>
</g>
<!-- Mass -->
<g id="node6" class="node">
<title>Mass</title>
<g id="a_node6"><a xlink:href="http://emmo.info/emmo/middle/isq#EMMO_ed4af7ae_63a2_497e_bb88_2309619ea405" xlink:title="Mass">
<ellipse fill="#ffffcc" stroke="#000000" cx="671.2405" cy="-18" rx="35.194" ry="18"/>
<text text-anchor="middle" x="671.2405" y="-14.3" font-family="Times,serif" font-size="14.00" fill="#000000">Mass</text>
</a>
</g>
</g>
<!-- Mass&#45;&gt;ISQBaseQuantity -->
<g id="edge2" class="edge">
<title>Mass&#45;&gt;ISQBaseQuantity</title>
<path fill="none" stroke="#000000" d="M671.2405,-36.1686C671.2405,-43.869 671.2405,-53.0257 671.2405,-61.5834"/>
<polygon fill="none" stroke="#000000" points="667.7406,-61.5867 671.2405,-71.5867 674.7406,-61.5868 667.7406,-61.5867"/>
</g>
<!-- Length -->
<g id="node7" class="node">
<title>Length</title>
<g id="a_node7"><a xlink:href="http://emmo.info/emmo/middle/isq#EMMO_cd2cd0de_e0cc_4ef1_b27e_2e88db027bac" xlink:title="Length">
<ellipse fill="#ffffcc" stroke="#000000" cx="768.2405" cy="-18" rx="44.393" ry="18"/>
<text text-anchor="middle" x="768.2405" y="-14.3" font-family="Times,serif" font-size="14.00" fill="#000000">Length</text>
</a>
</g>
</g>
<!-- Length&#45;&gt;ISQBaseQuantity -->
<g id="edge8" class="edge">
<title>Length&#45;&gt;ISQBaseQuantity</title>
<path fill="none" stroke="#000000" d="M746.713,-33.9791C733.8356,-43.5376 717.2384,-55.8572 702.8887,-66.5085"/>
<polygon fill="none" stroke="#000000" points="700.6883,-63.783 694.7447,-72.5536 704.8605,-69.4038 700.6883,-63.783"/>
</g>
<!-- Time -->
<g id="node8" class="node">
<title>Time</title>
<g id="a_node8"><a xlink:href="http://emmo.info/emmo/middle/isq#EMMO_d4f7d378_5e3b_468a_baa1_a7e98358cda7" xlink:title="Time">
<ellipse fill="#ffffcc" stroke="#000000" cx="865.2405" cy="-18" rx="34.394" ry="18"/>
<text text-anchor="middle" x="865.2405" y="-14.3" font-family="Times,serif" font-size="14.00" fill="#000000">Time</text>
</a>
</g>
</g>
<!-- Time&#45;&gt;ISQBaseQuantity -->
<g id="edge7" class="edge">
<title>Time&#45;&gt;ISQBaseQuantity</title>
<path fill="none" stroke="#000000" d="M837.8512,-29.4161C832.3666,-31.6423 826.6333,-33.9273 821.2405,-36 790.0414,-47.9912 754.8983,-60.6856 726.4749,-70.7515"/>
<polygon fill="none" stroke="#000000" points="724.9827,-67.5666 716.7189,-74.1968 727.3137,-74.1671 724.9827,-67.5666"/>
</g>
<!-- ThermodynamicTemperature -->
<g id="node9" class="node">
<title>ThermodynamicTemperature</title>
<g id="a_node9"><a xlink:href="http://emmo.info/emmo/middle/isq#EMMO_affe07e4_e9bc_4852_86c6_69e26182a17f" xlink:title="ThermodynamicTemperature">
<ellipse fill="#ffffcc" stroke="#000000" cx="1064.2405" cy="-18" rx="146.774" ry="18"/>
<text text-anchor="middle" x="1064.2405" y="-14.3" font-family="Times,serif" font-size="14.00" fill="#000000">ThermodynamicTemperature</text>
</a>
</g>
</g>
<!-- ThermodynamicTemperature&#45;&gt;ISQBaseQuantity -->
<g id="edge6" class="edge">
<title>ThermodynamicTemperature&#45;&gt;ISQBaseQuantity</title>
<path fill="none" stroke="#000000" d="M982.3332,-33.0059C913.6485,-45.5894 816.2514,-63.4331 748.8124,-75.7884"/>
<polygon fill="none" stroke="#000000" points="747.8768,-72.4014 738.6713,-77.6463 749.1383,-79.2868 747.8768,-72.4014"/>
</g>
<!-- key1 -->
<g id="node10" class="node">
<title>key1</title>
<text text-anchor="start" x="1245.2405" y="-13.8" font-family="Times,serif" font-size="14.00" fill="#000000">isA</text>
</g>
<!-- key2 -->
<g id="node11" class="node">
<title>key2</title>
<text text-anchor="start" x="1326.2405" y="-13.8" font-family="Times,serif" font-size="14.00" fill="#000000"> </text>
</g>
<!-- key1&#45;&gt;key2 -->
<g id="edge9" class="edge">
<title>key1:e&#45;&gt;key2:w</title>
<path fill="none" stroke="#000000" d="M1270.2405,-19C1290.4905,-19 1297.926,-19 1314.1715,-19"/>
<polygon fill="none" stroke="#000000" points="1314.2405,-22.5001 1324.2405,-19 1314.2404,-15.5001 1314.2405,-22.5001"/>
</g>
</g>
</svg>
