<?xml version="1.0" encoding="UTF-8" standalone="no"?>
<!DOCTYPE svg PUBLIC "-//W3C//DTD SVG 1.1//EN"
 "http://www.w3.org/Graphics/SVG/1.1/DTD/svg11.dtd">
<!-- Generated by graphviz version 2.40.1 (0)
 -->
<!-- Title: %3 Pages: 1 -->
<svg width="520pt" height="188pt"
 viewBox="0.00 0.00 519.50 188.00" xmlns="http://www.w3.org/2000/svg" xmlns:xlink="http://www.w3.org/1999/xlink">
<g id="graph0" class="graph" transform="scale(1 1) rotate(0) translate(4 184)">
<title>%3</title>
<polygon fill="#ffffff" stroke="transparent" points="-4,4 -4,-184 515.5,-184 515.5,4 -4,4"/>
<!-- connected -->
<g id="node1" class="node">
<title>connected</title>
<g id="a_node1"><a xlink:href="http://emmo.info/emmo/top/mereotopology#EMMO_6703954e_34c4_4a15_a9e7_f313760ae1a8" xlink:title="connected">
<polygon fill="#0079ba" stroke="#000000" stroke-width="2" points="263,-180 172,-180 172,-144 263,-144 263,-180"/>
<text text-anchor="middle" x="217.5" y="-158.3" font-family="Times,serif" font-size="14.00" fill="#ffffff">connected</text>
</a>
</g>
</g>
<!-- overcrosses -->
<g id="node2" class="node">
<title>overcrosses</title>
<g id="a_node2"><a xlink:href="http://emmo.info/emmo/top/mereotopology#EMMO_9cb984ca_48ad_4864_b09e_50d3fff19420" xlink:title="overcrosses">
<polygon fill="#0079ba" stroke="#000000" points="268.5,-36 166.5,-36 166.5,0 268.5,0 268.5,-36"/>
<text text-anchor="middle" x="217.5" y="-14.3" font-family="Times,serif" font-size="14.00" fill="#ffffff">overcrosses</text>
</a>
</g>
</g>
<!-- hasOverlapWith -->
<g id="node4" class="node">
<title>hasOverlapWith</title>
<g id="a_node4"><a xlink:href="http://emmo.info/emmo/top/mereotopology#EMMO_d893d373_b579_4867_841e_1c2b31a8d2c6" xlink:title="hasOverlapWith">
<polygon fill="#0079ba" stroke="#000000" points="284,-108 151,-108 151,-72 284,-72 284,-108"/>
<text text-anchor="middle" x="217.5" y="-86.3" font-family="Times,serif" font-size="14.00" fill="#ffffff">hasOverlapWith</text>
</a>
</g>
</g>
<!-- overcrosses&#45;&gt;hasOverlapWith -->
<g id="edge1" class="edge">
<title>overcrosses&#45;&gt;hasOverlapWith</title>
<path fill="none" stroke="#000000" d="M217.5,-36.1686C217.5,-43.869 217.5,-53.0257 217.5,-61.5834"/>
<polygon fill="none" stroke="#000000" points="214.0001,-61.5867 217.5,-71.5867 221.0001,-61.5868 214.0001,-61.5867"/>
</g>
<!-- hasContactWith -->
<g id="node3" class="node">
<title>hasContactWith</title>
<g id="a_node3"><a xlink:href="http://emmo.info/emmo/top/mereotopology#EMMO_4d6504f1_c470_4ce9_b941_bbbebc9ab05d" xlink:title="hasContactWith">
<polygon fill="#0079ba" stroke="#000000" points="133,-108 0,-108 0,-72 133,-72 133,-108"/>
<text text-anchor="middle" x="66.5" y="-86.3" font-family="Times,serif" font-size="14.00" fill="#ffffff">hasContactWith</text>
</a>
</g>
</g>
<!-- hasContactWith&#45;&gt;connected -->
<g id="edge5" class="edge">
<title>hasContactWith&#45;&gt;connected</title>
<path fill="none" stroke="#000000" d="M104.6037,-108.1686C124.6195,-117.7126 149.3267,-129.4935 170.5194,-139.5987"/>
<polygon fill="none" stroke="#000000" points="169.1375,-142.8172 179.6703,-143.962 172.1503,-136.4987 169.1375,-142.8172"/>
</g>
<!-- hasOverlapWith&#45;&gt;connected -->
<g id="edge2" class="edge">
<title>hasOverlapWith&#45;&gt;connected</title>
<path fill="none" stroke="#000000" d="M217.5,-108.1686C217.5,-115.869 217.5,-125.0257 217.5,-133.5834"/>
<polygon fill="none" stroke="#000000" points="214.0001,-133.5867 217.5,-143.5867 221.0001,-133.5868 214.0001,-133.5867"/>
</g>
<!-- encloses -->
<g id="node5" class="node">
<title>encloses</title>
<g id="a_node5"><a xlink:href="http://emmo.info/emmo/top/mereotopology#EMMO_8c898653_1118_4682_9bbf_6cc334d16a99" xlink:title="encloses">
<polygon fill="#0079ba" stroke="#000000" points="380.5,-108 302.5,-108 302.5,-72 380.5,-72 380.5,-108"/>
<text text-anchor="middle" x="341.5" y="-86.3" font-family="Times,serif" font-size="14.00" fill="#ffffff">encloses</text>
</a>
</g>
</g>
<!-- encloses&#45;&gt;connected -->
<g id="edge6" class="edge">
<title>encloses&#45;&gt;connected</title>
<path fill="none" stroke="#000000" d="M310.2096,-108.1686C294.2023,-117.4632 274.5414,-128.8792 257.4506,-138.8029"/>
<polygon fill="none" stroke="#000000" points="255.6708,-135.789 248.7804,-143.8372 259.1858,-141.8425 255.6708,-135.789"/>
</g>
<!-- hasPart -->
<g id="node6" class="node">
<title>hasPart</title>
<g id="a_node6"><a xlink:href="http://emmo.info/emmo/top/mereotopology#EMMO_17e27c22_37e1_468c_9dd7_95e137f73e7f" xlink:title="hasPart">
<polygon fill="#0079ba" stroke="#000000" stroke-width="2" points="367,-36 296,-36 296,0 367,0 367,-36"/>
<text text-anchor="middle" x="331.5" y="-14.3" font-family="Times,serif" font-size="14.00" fill="#ffffff">hasPart</text>
</a>
</g>
</g>
<!-- hasPart&#45;&gt;hasOverlapWith -->
<g id="edge4" class="edge">
<title>hasPart&#45;&gt;hasOverlapWith</title>
<path fill="none" stroke="#000000" d="M302.733,-36.1686C288.2867,-45.2926 270.6035,-56.461 255.096,-66.2551"/>
<polygon fill="none" stroke="#000000" points="252.8437,-63.538 246.2578,-71.8372 256.5817,-69.4564 252.8437,-63.538"/>
</g>
<!-- hasPart&#45;&gt;encloses -->
<g id="edge3" class="edge">
<title>hasPart&#45;&gt;encloses</title>
<path fill="none" stroke="#000000" d="M334.0234,-36.1686C335.0929,-43.869 336.3647,-53.0257 337.5532,-61.5834"/>
<polygon fill="none" stroke="#000000" points="334.1001,-62.1633 338.9426,-71.5867 341.0336,-61.2003 334.1001,-62.1633"/>
</g>
<!-- key1 -->
<g id="node7" class="node">
<title>key1</title>
<text text-anchor="start" x="401.5" y="-13.8" font-family="Times,serif" font-size="14.00" fill="#000000">isA</text>
</g>
<!-- key2 -->
<g id="node8" class="node">
<title>key2</title>
<text text-anchor="start" x="482.5" y="-13.8" font-family="Times,serif" font-size="14.00" fill="#000000"> </text>
</g>
<!-- key1&#45;&gt;key2 -->
<g id="edge7" class="edge">
<title>key1:e&#45;&gt;key2:w</title>
<path fill="none" stroke="#000000" d="M426.5,-19C446.75,-19 454.1855,-19 470.431,-19"/>
<polygon fill="none" stroke="#000000" points="470.5,-22.5001 480.5,-19 470.5,-15.5001 470.5,-22.5001"/>
</g>
</g>
</svg>
