<?xml version="1.0" encoding="UTF-8" standalone="no"?>
<!DOCTYPE svg PUBLIC "-//W3C//DTD SVG 1.1//EN"
 "http://www.w3.org/Graphics/SVG/1.1/DTD/svg11.dtd">
<!-- Generated by graphviz version 2.40.1 (0)
 -->
<!-- Title: %3 Pages: 1 -->
<svg width="673pt" height="188pt"
 viewBox="0.00 0.00 672.55 188.00" xmlns="http://www.w3.org/2000/svg" xmlns:xlink="http://www.w3.org/1999/xlink">
<g id="graph0" class="graph" transform="scale(1 1) rotate(0) translate(4 184)">
<title>%3</title>
<polygon fill="#ffffff" stroke="transparent" points="-4,4 -4,-184 668.5461,-184 668.5461,4 -4,4"/>
<!-- Photon -->
<g id="node1" class="node">
<title>Photon</title>
<g id="a_node1"><a xlink:href="http://emmo.info/emmo/middle/physicalistic#EMMO_25f8b804_9a0b_4387_a3e7_b35bce5365ee" xlink:title="Photon">
<ellipse fill="#ffffcc" stroke="#000000" cx="43.5461" cy="-18" rx="43.5923" ry="18"/>
<text text-anchor="middle" x="43.5461" y="-14.3" font-family="Times,serif" font-size="14.00" fill="#000000">Photon</text>
</a>
</g>
</g>
<!-- Massless -->
<g id="node2" class="node">
<title>Massless</title>
<g id="a_node2"><a xlink:href="http://emmo.info/emmo/middle/physicalistic#EMMO_e5488299_8dab_4ebb_900a_26d2abed8396" xlink:title="Massless">
<ellipse fill="#ffc880" stroke="#000000" cx="204.5461" cy="-90" rx="53.0913" ry="18"/>
<text text-anchor="middle" x="204.5461" y="-86.3" font-family="Times,serif" font-size="14.00" fill="#000000">Massless</text>
</a>
</g>
</g>
<!-- Photon&#45;&gt;Massless -->
<g id="edge6" class="edge">
<title>Photon&#45;&gt;Massless</title>
<path fill="none" stroke="#000000" d="M73.4517,-31.3739C98.6975,-42.664 135.1079,-58.9469 163.1533,-71.4889"/>
<polygon fill="none" stroke="#000000" points="161.7578,-74.6988 172.3154,-75.5862 164.6155,-68.3087 161.7578,-74.6988"/>
</g>
<!-- ElementaryParticle -->
<g id="node4" class="node">
<title>ElementaryParticle</title>
<g id="a_node4"><a xlink:href="http://emmo.info/emmo/middle/physicalistic#EMMO_c26a0340_d619_4928_b1a1_1a04e88bb89d" xlink:title="ElementaryParticle">
<ellipse fill="#ffffcc" stroke="#000000" stroke-width="2" cx="264.5461" cy="-162" rx="100.9827" ry="18"/>
<text text-anchor="middle" x="264.5461" y="-158.3" font-family="Times,serif" font-size="14.00" fill="#000000">ElementaryParticle</text>
</a>
</g>
</g>
<!-- Massless&#45;&gt;ElementaryParticle -->
<g id="edge5" class="edge">
<title>Massless&#45;&gt;ElementaryParticle</title>
<path fill="none" stroke="#000000" d="M219.0705,-107.4292C226.2778,-116.078 235.1262,-126.6961 243.0961,-136.26"/>
<polygon fill="none" stroke="#000000" points="240.4383,-138.5378 249.529,-143.9794 245.8159,-134.0565 240.4383,-138.5378"/>
</g>
<!-- Graviton -->
<g id="node3" class="node">
<title>Graviton</title>
<g id="a_node3"><a xlink:href="http://emmo.info/emmo/middle/physicalistic#EMMO_eb3c61f0_3983_4346_a0c6_e7f6b90a67a8" xlink:title="Graviton">
<ellipse fill="#ffffcc" stroke="#000000" cx="156.5461" cy="-18" rx="51.1914" ry="18"/>
<text text-anchor="middle" x="156.5461" y="-14.3" font-family="Times,serif" font-size="14.00" fill="#000000">Graviton</text>
</a>
</g>
</g>
<!-- Graviton&#45;&gt;Massless -->
<g id="edge2" class="edge">
<title>Graviton&#45;&gt;Massless</title>
<path fill="none" stroke="#000000" d="M168.4113,-35.7978C174.0496,-44.2552 180.9005,-54.5315 187.1148,-63.853"/>
<polygon fill="none" stroke="#000000" points="184.3582,-66.0279 192.8175,-72.407 190.1826,-62.145 184.3582,-66.0279"/>
</g>
<!-- Electron -->
<g id="node5" class="node">
<title>Electron</title>
<g id="a_node5"><a xlink:href="http://emmo.info/emmo/middle/physicalistic#EMMO_8043d3c6_a4c1_4089_ba34_9744e28e5b3d" xlink:title="Electron">
<ellipse fill="#ffffcc" stroke="#000000" cx="371.5461" cy="-18" rx="50.8918" ry="18"/>
<text text-anchor="middle" x="371.5461" y="-14.3" font-family="Times,serif" font-size="14.00" fill="#000000">Electron</text>
</a>
</g>
</g>
<!-- Massive -->
<g id="node8" class="node">
<title>Massive</title>
<g id="a_node8"><a xlink:href="http://emmo.info/emmo/middle/physicalistic#EMMO_385b8f6e_43ac_4596_ad76_ac322c68b7ca" xlink:title="Massive">
<ellipse fill="#ffc880" stroke="#000000" cx="371.5461" cy="-90" rx="48.9926" ry="18"/>
<text text-anchor="middle" x="371.5461" y="-86.3" font-family="Times,serif" font-size="14.00" fill="#000000">Massive</text>
</a>
</g>
</g>
<!-- Electron&#45;&gt;Massive -->
<g id="edge1" class="edge">
<title>Electron&#45;&gt;Massive</title>
<path fill="none" stroke="#000000" d="M371.5461,-36.1686C371.5461,-43.869 371.5461,-53.0257 371.5461,-61.5834"/>
<polygon fill="none" stroke="#000000" points="368.0462,-61.5867 371.5461,-71.5867 375.0462,-61.5868 368.0462,-61.5867"/>
</g>
<!-- Gluon -->
<g id="node6" class="node">
<title>Gluon</title>
<g id="a_node6"><a xlink:href="http://emmo.info/emmo/middle/physicalistic#EMMO_7db59e56_f68b_48b7_ae99_891c35ae5c3b" xlink:title="Gluon">
<ellipse fill="#ffffcc" stroke="#000000" cx="264.5461" cy="-18" rx="38.1938" ry="18"/>
<text text-anchor="middle" x="264.5461" y="-14.3" font-family="Times,serif" font-size="14.00" fill="#000000">Gluon</text>
</a>
</g>
</g>
<!-- Gluon&#45;&gt;Massless -->
<g id="edge4" class="edge">
<title>Gluon&#45;&gt;Massless</title>
<path fill="none" stroke="#000000" d="M250.327,-35.063C242.963,-43.8997 233.8256,-54.8646 225.6554,-64.6689"/>
<polygon fill="none" stroke="#000000" points="222.7931,-62.6364 219.08,-72.5593 228.1707,-67.1177 222.7931,-62.6364"/>
</g>
<!-- Quark -->
<g id="node7" class="node">
<title>Quark</title>
<g id="a_node7"><a xlink:href="http://emmo.info/emmo/middle/physicalistic#EMMO_72d53756_7fb1_46ed_980f_83f47efbe105" xlink:title="Quark">
<ellipse fill="#ffffcc" stroke="#000000" cx="480.5461" cy="-18" rx="40.0939" ry="18"/>
<text text-anchor="middle" x="480.5461" y="-14.3" font-family="Times,serif" font-size="14.00" fill="#000000">Quark</text>
</a>
</g>
</g>
<!-- Quark&#45;&gt;Massive -->
<g id="edge7" class="edge">
<title>Quark&#45;&gt;Massive</title>
<path fill="none" stroke="#000000" d="M457.9613,-32.9184C442.4558,-43.1606 421.6289,-56.9178 404.3065,-68.3601"/>
<polygon fill="none" stroke="#000000" points="402.0292,-65.6697 395.6142,-74.1018 405.8873,-71.5105 402.0292,-65.6697"/>
</g>
<!-- Massive&#45;&gt;ElementaryParticle -->
<g id="edge3" class="edge">
<title>Massive&#45;&gt;ElementaryParticle</title>
<path fill="none" stroke="#000000" d="M348.0645,-105.8007C333.7385,-115.4406 315.1667,-127.9376 299.1749,-138.6984"/>
<polygon fill="none" stroke="#000000" points="296.942,-135.9822 290.5994,-144.4688 300.85,-141.7898 296.942,-135.9822"/>
</g>
<!-- key1 -->
<g id="node9" class="node">
<title>key1</title>
<text text-anchor="start" x="554.5461" y="-13.8" font-family="Times,serif" font-size="14.00" fill="#000000">isA</text>
</g>
<!-- key2 -->
<g id="node10" class="node">
<title>key2</title>
<text text-anchor="start" x="635.5461" y="-13.8" font-family="Times,serif" font-size="14.00" fill="#000000"> </text>
</g>
<!-- key1&#45;&gt;key2 -->
<g id="edge8" class="edge">
<title>key1:e&#45;&gt;key2:w</title>
<path fill="none" stroke="#000000" d="M579.5461,-19C599.7961,-19 607.2317,-19 623.4772,-19"/>
<polygon fill="none" stroke="#000000" points="623.5462,-22.5001 633.5461,-19 623.5461,-15.5001 623.5462,-22.5001"/>
</g>
</g>
</svg>
