<?xml version="1.0" encoding="UTF-8" standalone="no"?>
<!DOCTYPE svg PUBLIC "-//W3C//DTD SVG 1.1//EN"
 "http://www.w3.org/Graphics/SVG/1.1/DTD/svg11.dtd">
<!-- Generated by graphviz version 2.40.1 (0)
 -->
<!-- Title: %3 Pages: 1 -->
<svg width="567pt" height="308pt"
 viewBox="0.00 0.00 566.95 308.00" xmlns="http://www.w3.org/2000/svg" xmlns:xlink="http://www.w3.org/1999/xlink">
<g id="graph0" class="graph" transform="scale(1 1) rotate(0) translate(4 304)">
<title>%3</title>
<polygon fill="#ffffff" stroke="transparent" points="-4,4 -4,-304 562.9452,-304 562.9452,4 -4,4"/>
<!-- Item -->
<g id="node1" class="node">
<title>Item</title>
<g id="a_node1"><a xlink:href="http://emmo.info/emmo/top/mereotopology#EMMO_eb3a768e_d53e_4be9_a23b_0714833c36de" xlink:title="Item">
<ellipse fill="#ffffcc" stroke="#000000" cx="175.9452" cy="-210" rx="32.4942" ry="18"/>
<text text-anchor="middle" x="175.9452" y="-206.3" font-family="Times,serif" font-size="14.00" fill="#000000">Item</text>
</a>
</g>
</g>
<!-- EMMO -->
<g id="node3" class="node">
<title>EMMO</title>
<g id="a_node3"><a xlink:href="http://emmo.info/emmo/top/mereotopology#EMMO_802d3e92_8770_4f98_a289_ccaaab7fdddf" xlink:title="EMMO">
<ellipse fill="#ffc880" stroke="#000000" stroke-width="2" cx="205.9452" cy="-282" rx="44.393" ry="18"/>
<text text-anchor="middle" x="205.9452" y="-278.3" font-family="Times,serif" font-size="14.00" fill="#000000">EMMO</text>
</a>
</g>
</g>
<!-- Item&#45;&gt;EMMO -->
<g id="edge11" class="edge">
<title>Item&#45;&gt;EMMO</title>
<path fill="none" stroke="#000000" d="M183.3609,-227.7978C186.7504,-235.9325 190.841,-245.7499 194.6043,-254.7819"/>
<polygon fill="none" stroke="#000000" points="191.4338,-256.2729 198.5108,-264.1575 197.8954,-253.5805 191.4338,-256.2729"/>
</g>
<!-- Quantum -->
<g id="node2" class="node">
<title>Quantum</title>
<g id="a_node2"><a xlink:href="http://emmo.info/emmo/top/mereotopology#EMMO_3f9ae00e_810c_4518_aec2_7200e424cf68" xlink:title="Quantum">
<ellipse fill="#ffffcc" stroke="#000000" cx="53.9452" cy="-138" rx="53.8905" ry="18"/>
<text text-anchor="middle" x="53.9452" y="-134.3" font-family="Times,serif" font-size="14.00" fill="#000000">Quantum</text>
</a>
</g>
</g>
<!-- Quantum&#45;&gt;Item -->
<g id="edge13" class="edge">
<title>Quantum&#45;&gt;Item</title>
<path fill="none" stroke="#000000" d="M80.7186,-153.8007C99.5748,-164.9289 124.8822,-179.8645 144.6681,-191.5414"/>
<polygon fill="none" stroke="#000000" points="142.9363,-194.5834 153.3273,-196.6517 146.4941,-188.5549 142.9363,-194.5834"/>
</g>
<!-- EMMO&#45;&gt;Quantum -->
<g id="edge10" class="edge">
<title>EMMO&#45;&gt;Quantum</title>
<path fill="none" stroke="#0000ff" d="M214.7404,-264.3052C223.0766,-244.7375 232.2435,-213.1841 216.9452,-192 213.4522,-187.163 150.5679,-167.2534 103.9496,-153.0171"/>
<polygon fill="#0000ff" stroke="#0000ff" points="104.8617,-149.6362 94.2758,-150.0728 102.8234,-156.3329 104.8617,-149.6362"/>
</g>
<!-- Physical -->
<g id="node4" class="node">
<title>Physical</title>
<g id="a_node4"><a xlink:href="http://emmo.info/emmo/top/physical#EMMO_c5ddfdba_c074_4aa4_ad6b_1ac4942d300d" xlink:title="Physical">
<ellipse fill="#ffffcc" stroke="#000000" cx="175.9452" cy="-138" rx="50.0912" ry="18"/>
<text text-anchor="middle" x="175.9452" y="-134.3" font-family="Times,serif" font-size="14.00" fill="#000000">Physical</text>
</a>
</g>
</g>
<!-- Physical&#45;&gt;Item -->
<g id="edge3" class="edge">
<title>Physical&#45;&gt;Item</title>
<path fill="none" stroke="#000000" d="M175.9452,-156.1686C175.9452,-163.869 175.9452,-173.0257 175.9452,-181.5834"/>
<polygon fill="none" stroke="#000000" points="172.4453,-181.5867 175.9452,-191.5867 179.4453,-181.5868 172.4453,-181.5867"/>
</g>
<!-- Physical&#45;&gt;Physical -->
<g id="edge5" class="edge">
<title>Physical&#45;&gt;Physical</title>
<path fill="none" stroke="#ff00ff" d="M210.6066,-124.9359C228.208,-123.0281 243.9908,-127.3828 243.9908,-138 243.9908,-146.5435 233.7711,-151.0319 220.6078,-151.4653"/>
<polygon fill="#ff00ff" stroke="#ff00ff" points="220.7388,-147.9678 210.6066,-151.0641 220.4582,-154.9622 220.7388,-147.9678"/>
</g>
<!-- Elementary -->
<g id="node6" class="node">
<title>Elementary</title>
<g id="a_node6"><a xlink:href="http://emmo.info/emmo/top/physical#EMMO_0f795e3e_c602_4577_9a43_d5a231aa1360" xlink:title="Elementary">
<ellipse fill="#ffffcc" stroke="#000000" stroke-width="2" cx="92.9452" cy="-42" rx="64.9885" ry="18"/>
<text text-anchor="middle" x="92.9452" y="-38.3" font-family="Times,serif" font-size="14.00" fill="#000000">Elementary</text>
</a>
</g>
</g>
<!-- Physical&#45;&gt;Elementary -->
<g id="edge4" class="edge">
<title>Physical&#45;&gt;Elementary</title>
<path fill="none" stroke="#0000ff" d="M166.0434,-120.3362C154.5833,-105.2177 135.8301,-83.2955 120.0853,-66.4844"/>
<polygon fill="#0000ff" stroke="#0000ff" points="122.5352,-63.982 113.0998,-59.1629 117.4706,-68.8142 122.5352,-63.982"/>
</g>
<!-- Void -->
<g id="node5" class="node">
<title>Void</title>
<g id="a_node5"><a xlink:href="http://emmo.info/emmo/top/physical#EMMO_29072ec4_ffcb_42fb_bdc7_26f05a2e9873" xlink:title="Void">
<ellipse fill="#ffffcc" stroke="#000000" cx="292.9452" cy="-138" rx="30.5947" ry="18"/>
<text text-anchor="middle" x="292.9452" y="-134.3" font-family="Times,serif" font-size="14.00" fill="#000000">Void</text>
</a>
</g>
</g>
<!-- Void&#45;&gt;Item -->
<g id="edge1" class="edge">
<title>Void&#45;&gt;Item</title>
<path fill="none" stroke="#000000" d="M271.7574,-151.0387C253.5159,-162.2642 226.9672,-178.6018 206.4398,-191.2341"/>
<polygon fill="none" stroke="#000000" points="204.451,-188.3483 197.7687,-196.5701 208.1197,-194.3099 204.451,-188.3483"/>
</g>
<!-- Void&#45;&gt;Void -->
<g id="edge2" class="edge">
<title>Void&#45;&gt;Void</title>
<path fill="none" stroke="#0000ff" d="M314.9132,-125.4525C328.5319,-122.4269 341.4925,-126.6094 341.4925,-138 341.4925,-146.454 334.3533,-150.9374 325.1044,-151.4503"/>
<polygon fill="#0000ff" stroke="#0000ff" points="325.1831,-147.9437 314.9132,-150.5475 324.5653,-154.9164 325.1831,-147.9437"/>
</g>
<!-- Elementary&#45;&gt;Physical -->
<g id="edge8" class="edge">
<title>Elementary&#45;&gt;Physical</title>
<path fill="none" stroke="#000000" d="M103.1454,-60.0569C114.7501,-75.3175 133.5829,-97.3012 149.2909,-114.0336"/>
<polygon fill="none" stroke="#000000" points="146.8091,-116.5025 156.251,-121.3089 151.8673,-111.6635 146.8091,-116.5025"/>
</g>
<!-- Elementary&#45;&gt;Elementary -->
<g id="edge9" class="edge">
<title>Elementary&#45;&gt;Elementary</title>
<path fill="none" stroke="#ff00ff" d="M125.317,-26.3247C150.3786,-20.4624 175.9394,-25.6875 175.9394,-42 175.9394,-56.146 156.7173,-61.9541 135.2678,-59.4243"/>
<polygon fill="#ff00ff" stroke="#ff00ff" points="135.7719,-55.9594 125.317,-57.6753 134.5601,-62.8537 135.7719,-55.9594"/>
</g>
<!-- Perspective -->
<g id="node7" class="node">
<title>Perspective</title>
<g id="a_node7"><a xlink:href="http://emmo.info/emmo/top#EMMO_49267eba_5548_4163_8f36_518d65b583f9" xlink:title="Perspective">
<ellipse fill="#ffffcc" stroke="#000000" stroke-width="2" cx="259.9452" cy="-42" rx="65.7887" ry="18"/>
<text text-anchor="middle" x="259.9452" y="-38.3" font-family="Times,serif" font-size="14.00" fill="#000000">Perspective</text>
</a>
</g>
</g>
<!-- Perspective&#45;&gt;Physical -->
<g id="edge12" class="edge">
<title>Perspective&#45;&gt;Physical</title>
<path fill="none" stroke="#000000" d="M244.5383,-59.6079C231.432,-74.5866 212.4564,-96.2729 197.7842,-113.0411"/>
<polygon fill="none" stroke="#000000" points="194.9229,-110.9962 190.9718,-120.8267 200.1909,-115.6057 194.9229,-110.9962"/>
</g>
<!-- Collection -->
<g id="node8" class="node">
<title>Collection</title>
<g id="a_node8"><a xlink:href="http://emmo.info/emmo/top/mereotopology#EMMO_2d2ecd97_067f_4d0e_950c_d746b7700a31" xlink:title="Collection">
<ellipse fill="#ffffcc" stroke="#000000" cx="321.9452" cy="-210" rx="57.6901" ry="18"/>
<text text-anchor="middle" x="321.9452" y="-206.3" font-family="Times,serif" font-size="14.00" fill="#000000">Collection</text>
</a>
</g>
</g>
<!-- Collection&#45;&gt;Item -->
<g id="edge7" class="edge">
<title>Collection&#45;&gt;Item</title>
<path fill="none" stroke="#0000ff" stroke-dasharray="5,2" d="M263.8691,-210C248.8606,-210 233.8521,-210 218.8435,-210"/>
<polygon fill="#0000ff" stroke="#0000ff" points="218.4531,-206.5001 208.453,-210 218.453,-213.5001 218.4531,-206.5001"/>
</g>
<!-- Collection&#45;&gt;EMMO -->
<g id="edge6" class="edge">
<title>Collection&#45;&gt;EMMO</title>
<path fill="none" stroke="#000000" d="M295.9125,-226.1582C279.0356,-236.6336 256.907,-250.3685 238.8196,-261.5952"/>
<polygon fill="none" stroke="#000000" points="236.9563,-258.6323 230.3057,-266.8797 240.6479,-264.5798 236.9563,-258.6323"/>
</g>
<!-- key1 -->
<g id="node9" class="node">
<title>key1</title>
<text text-anchor="start" x="453.9452" y="-66.8" font-family="Times,serif" font-size="14.00" fill="#000000">isA</text>
<text text-anchor="start" x="391.9452" y="-47.8" font-family="Times,serif" font-size="14.00" fill="#000000">hasMember</text>
<text text-anchor="start" x="421.9452" y="-28.8" font-family="Times,serif" font-size="14.00" fill="#000000">hasPart</text>
<text text-anchor="start" x="353.9452" y="-9.8" font-family="Times,serif" font-size="14.00" fill="#000000">hasTemporalPart</text>
</g>
<!-- key2 -->
<g id="node10" class="node">
<title>key2</title>
<text text-anchor="start" x="529.9452" y="-66.8" font-family="Times,serif" font-size="14.00" fill="#000000"> </text>
<text text-anchor="start" x="529.9452" y="-47.8" font-family="Times,serif" font-size="14.00" fill="#000000"> </text>
<text text-anchor="start" x="529.9452" y="-28.8" font-family="Times,serif" font-size="14.00" fill="#000000"> </text>
<text text-anchor="start" x="529.9452" y="-9.8" font-family="Times,serif" font-size="14.00" fill="#000000"> </text>
</g>
<!-- key1&#45;&gt;key2 -->
<g id="edge14" class="edge">
<title>key1:e&#45;&gt;key2:w</title>
<path fill="none" stroke="#ff00ff" d="M478.9452,-13C496.8098,-13 503.6835,-13 517.5982,-13"/>
<polygon fill="#ff00ff" stroke="#ff00ff" points="517.9452,-16.5001 527.9452,-13 517.9452,-9.5001 517.9452,-16.5001"/>
</g>
<!-- key1&#45;&gt;key2 -->
<g id="edge15" class="edge">
<title>key1:e&#45;&gt;key2:w</title>
<path fill="none" stroke="#0000ff" d="M478.9452,-32C496.8098,-32 503.6835,-32 517.5982,-32"/>
<polygon fill="#0000ff" stroke="#0000ff" points="517.9452,-35.5001 527.9452,-32 517.9452,-28.5001 517.9452,-35.5001"/>
</g>
<!-- key1&#45;&gt;key2 -->
<g id="edge16" class="edge">
<title>key1:e&#45;&gt;key2:w</title>
<path fill="none" stroke="#0000ff" stroke-dasharray="5,2" d="M478.9452,-52C496.8098,-52 503.6835,-52 517.5982,-52"/>
<polygon fill="#0000ff" stroke="#0000ff" points="517.9452,-55.5001 527.9452,-52 517.9452,-48.5001 517.9452,-55.5001"/>
</g>
<!-- key1&#45;&gt;key2 -->
<g id="edge17" class="edge">
<title>key1:e&#45;&gt;key2:w</title>
<path fill="none" stroke="#000000" d="M478.9452,-71C496.8098,-71 503.6835,-71 517.5982,-71"/>
<polygon fill="none" stroke="#000000" points="517.9452,-74.5001 527.9452,-71 517.9452,-67.5001 517.9452,-74.5001"/>
</g>
</g>
</svg>
