<?xml version="1.0" encoding="UTF-8" standalone="no"?>
<!DOCTYPE svg PUBLIC "-//W3C//DTD SVG 1.1//EN"
 "http://www.w3.org/Graphics/SVG/1.1/DTD/svg11.dtd">
<!-- Generated by graphviz version 2.40.1 (0)
 -->
<!-- Title: %3 Pages: 1 -->
<svg width="1015pt" height="260pt"
 viewBox="0.00 0.00 1014.83 260.00" xmlns="http://www.w3.org/2000/svg" xmlns:xlink="http://www.w3.org/1999/xlink">
<g id="graph0" class="graph" transform="scale(1 1) rotate(0) translate(4 256)">
<title>%3</title>
<polygon fill="#ffffff" stroke="transparent" points="-4,4 -4,-256 1010.8322,-256 1010.8322,4 -4,4"/>
<!-- FunctionDefinition -->
<g id="node1" class="node">
<title>FunctionDefinition</title>
<g id="a_node1"><a xlink:href="http://emmo.info/emmo/top/math#EMMO_4bc29b0f_8fcc_4026_a291_f9774a66d9b8" xlink:title="FunctionDefinition">
<ellipse fill="#ffffcc" stroke="#000000" cx="98.1413" cy="-18" rx="98.2828" ry="18"/>
<text text-anchor="middle" x="98.1413" y="-14.3" font-family="Times,serif" font-size="14.00" fill="#000000">FunctionDefinition</text>
</a>
</g>
</g>
<!-- DefiningEquation -->
<g id="node8" class="node">
<title>DefiningEquation</title>
<g id="a_node8"><a xlink:href="http://emmo.info/emmo/top/math#EMMO_29afdf54_90ae_4c98_8845_fa9ea3f143a8" xlink:title="DefiningEquation">
<ellipse fill="#ffffcc" stroke="#000000" cx="98.1413" cy="-90" rx="92.0841" ry="18"/>
<text text-anchor="middle" x="98.1413" y="-86.3" font-family="Times,serif" font-size="14.00" fill="#000000">DefiningEquation</text>
</a>
</g>
</g>
<!-- FunctionDefinition&#45;&gt;DefiningEquation -->
<g id="edge1" class="edge">
<title>FunctionDefinition&#45;&gt;DefiningEquation</title>
<path fill="none" stroke="#000000" d="M98.1413,-36.1686C98.1413,-43.869 98.1413,-53.0257 98.1413,-61.5834"/>
<polygon fill="none" stroke="#000000" points="94.6414,-61.5867 98.1413,-71.5867 101.6414,-61.5868 94.6414,-61.5867"/>
</g>
<!-- Formula -->
<g id="node2" class="node">
<title>Formula</title>
<g id="a_node2"><a xlink:href="http://emmo.info/emmo/middle/math#EMMO_88470739_03d3_4c47_a03e_b30a1288d50c" xlink:title="Formula">
<ellipse fill="#ffffcc" stroke="#000000" stroke-width="2" cx="556.1413" cy="-234" rx="49.2915" ry="18"/>
<text text-anchor="middle" x="556.1413" y="-230.3" font-family="Times,serif" font-size="14.00" fill="#000000">Formula</text>
</a>
</g>
</g>
<!-- PhysicsEquation -->
<g id="node3" class="node">
<title>PhysicsEquation</title>
<g id="a_node3"><a xlink:href="http://emmo.info/emmo/middle/models#EMMO_27c5d8c6_8af7_4d63_beb1_ec37cd8b3fa3" xlink:title="PhysicsEquation">
<ellipse fill="#ffffcc" stroke="#000000" cx="297.1413" cy="-90" rx="88.2844" ry="18"/>
<text text-anchor="middle" x="297.1413" y="-86.3" font-family="Times,serif" font-size="14.00" fill="#000000">PhysicsEquation</text>
</a>
</g>
</g>
<!-- Equation -->
<g id="node9" class="node">
<title>Equation</title>
<g id="a_node9"><a xlink:href="http://emmo.info/emmo/middle/math#EMMO_e56ee3eb_7609_4ae1_8bed_51974f0960a6" xlink:title="Equation">
<ellipse fill="#ffffcc" stroke="#000000" cx="492.1413" cy="-162" rx="52.7911" ry="18"/>
<text text-anchor="middle" x="492.1413" y="-158.3" font-family="Times,serif" font-size="14.00" fill="#000000">Equation</text>
</a>
</g>
</g>
<!-- PhysicsEquation&#45;&gt;Equation -->
<g id="edge5" class="edge">
<title>PhysicsEquation&#45;&gt;Equation</title>
<path fill="none" stroke="#000000" d="M339.9349,-105.8007C371.533,-117.4677 414.4653,-133.3196 446.6784,-145.2137"/>
<polygon fill="none" stroke="#000000" points="445.7137,-148.5884 456.307,-148.7689 448.1383,-142.0217 445.7137,-148.5884"/>
</g>
<!-- Inequality -->
<g id="node4" class="node">
<title>Inequality</title>
<g id="a_node4"><a xlink:href="http://emmo.info/emmo/middle/math#EMMO_0b6ebe5a_0026_4bef_a1c1_5be00df9f98e" xlink:title="Inequality">
<ellipse fill="#ffffcc" stroke="#000000" cx="620.1413" cy="-162" rx="57.6901" ry="18"/>
<text text-anchor="middle" x="620.1413" y="-158.3" font-family="Times,serif" font-size="14.00" fill="#000000">Inequality</text>
</a>
</g>
</g>
<!-- Inequality&#45;&gt;Formula -->
<g id="edge6" class="edge">
<title>Inequality&#45;&gt;Formula</title>
<path fill="none" stroke="#000000" d="M604.6487,-179.4292C596.7088,-188.3615 586.9019,-199.3944 578.1883,-209.1971"/>
<polygon fill="none" stroke="#000000" points="575.519,-206.9319 571.4912,-216.7313 580.7508,-211.5825 575.519,-206.9319"/>
</g>
<!-- MaterialRelation -->
<g id="node5" class="node">
<title>MaterialRelation</title>
<g id="a_node5"><a xlink:href="http://emmo.info/emmo/middle/models#EMMO_e5438930_04e7_4d42_ade5_3700d4a52ab7" xlink:title="MaterialRelation">
<ellipse fill="#ffffcc" stroke="#000000" cx="492.1413" cy="-90" rx="89.0842" ry="18"/>
<text text-anchor="middle" x="492.1413" y="-86.3" font-family="Times,serif" font-size="14.00" fill="#000000">MaterialRelation</text>
</a>
</g>
</g>
<!-- MaterialRelation&#45;&gt;Equation -->
<g id="edge8" class="edge">
<title>MaterialRelation&#45;&gt;Equation</title>
<path fill="none" stroke="#000000" d="M492.1413,-108.1686C492.1413,-115.869 492.1413,-125.0257 492.1413,-133.5834"/>
<polygon fill="none" stroke="#000000" points="488.6414,-133.5867 492.1413,-143.5867 495.6414,-133.5868 488.6414,-133.5867"/>
</g>
<!-- AlgebricEquation -->
<g id="node6" class="node">
<title>AlgebricEquation</title>
<g id="a_node6"><a xlink:href="http://emmo.info/emmo/top/math#EMMO_98d65021_4574_4890_b2fb_46430841077f" xlink:title="AlgebricEquation">
<ellipse fill="#ffffcc" stroke="#000000" cx="691.1413" cy="-90" rx="92.0841" ry="18"/>
<text text-anchor="middle" x="691.1413" y="-86.3" font-family="Times,serif" font-size="14.00" fill="#000000">AlgebricEquation</text>
</a>
</g>
</g>
<!-- AlgebricEquation&#45;&gt;Equation -->
<g id="edge2" class="edge">
<title>AlgebricEquation&#45;&gt;Equation</title>
<path fill="none" stroke="#000000" d="M646.9767,-105.9791C614.704,-117.6557 571.0431,-133.4526 538.3114,-145.2952"/>
<polygon fill="none" stroke="#000000" points="536.7415,-142.1411 528.5288,-148.8347 539.1231,-148.7236 536.7415,-142.1411"/>
</g>
<!-- ArithmeticEquation -->
<g id="node7" class="node">
<title>ArithmeticEquation</title>
<g id="a_node7"><a xlink:href="http://emmo.info/emmo/top/math#EMMO_a6138ba7_e365_4f2d_b6b4_fe5a5918d403" xlink:title="ArithmeticEquation">
<ellipse fill="#ffffcc" stroke="#000000" cx="904.1413" cy="-90" rx="102.8821" ry="18"/>
<text text-anchor="middle" x="904.1413" y="-86.3" font-family="Times,serif" font-size="14.00" fill="#000000">ArithmeticEquation</text>
</a>
</g>
</g>
<!-- ArithmeticEquation&#45;&gt;Equation -->
<g id="edge3" class="edge">
<title>ArithmeticEquation&#45;&gt;Equation</title>
<path fill="none" stroke="#000000" d="M828.5486,-102.2528C816.3781,-104.1956 803.9143,-106.1673 792.1413,-108 685.9991,-124.5228 658.0142,-120.7442 553.1413,-144 549.0786,-144.9009 544.8901,-145.9267 540.7009,-147.021"/>
<polygon fill="none" stroke="#000000" points="539.7094,-143.6635 530.9834,-149.6724 541.5521,-150.4166 539.7094,-143.6635"/>
</g>
<!-- DefiningEquation&#45;&gt;Equation -->
<g id="edge7" class="edge">
<title>DefiningEquation&#45;&gt;Equation</title>
<path fill="none" stroke="#000000" d="M165.8723,-102.3772C241.9959,-116.2882 364.2255,-138.6245 435.4878,-151.6471"/>
<polygon fill="none" stroke="#000000" points="435.1542,-155.144 445.6205,-153.4987 436.4126,-148.258 435.1542,-155.144"/>
</g>
<!-- Equation&#45;&gt;Formula -->
<g id="edge4" class="edge">
<title>Equation&#45;&gt;Formula</title>
<path fill="none" stroke="#000000" d="M507.6339,-179.4292C515.5738,-188.3615 525.3807,-199.3944 534.0943,-209.1971"/>
<polygon fill="none" stroke="#000000" points="531.5317,-211.5825 540.7913,-216.7313 536.7636,-206.9319 531.5317,-211.5825"/>
</g>
<!-- key1 -->
<g id="node10" class="node">
<title>key1</title>
<text text-anchor="start" x="230.1413" y="-13.8" font-family="Times,serif" font-size="14.00" fill="#000000">isA</text>
</g>
<!-- key2 -->
<g id="node11" class="node">
<title>key2</title>
<text text-anchor="start" x="311.1413" y="-13.8" font-family="Times,serif" font-size="14.00" fill="#000000"> </text>
</g>
<!-- key1&#45;&gt;key2 -->
<g id="edge9" class="edge">
<title>key1:e&#45;&gt;key2:w</title>
<path fill="none" stroke="#000000" d="M255.1413,-19C275.3913,-19 282.8268,-19 299.0723,-19"/>
<polygon fill="none" stroke="#000000" points="299.1413,-22.5001 309.1413,-19 299.1413,-15.5001 299.1413,-22.5001"/>
</g>
</g>
</svg>
