<?xml version="1.0" encoding="UTF-8" standalone="no"?>
<!DOCTYPE svg PUBLIC "-//W3C//DTD SVG 1.1//EN"
 "http://www.w3.org/Graphics/SVG/1.1/DTD/svg11.dtd">
<!-- Generated by graphviz version 2.40.1 (0)
 -->
<!-- Title: %3 Pages: 1 -->
<svg width="969pt" height="188pt"
 viewBox="0.00 0.00 969.45 188.00" xmlns="http://www.w3.org/2000/svg" xmlns:xlink="http://www.w3.org/1999/xlink">
<g id="graph0" class="graph" transform="scale(1 1) rotate(0) translate(4 184)">
<title>%3</title>
<polygon fill="#ffffff" stroke="transparent" points="-4,4 -4,-184 965.4469,-184 965.4469,4 -4,4"/>
<!-- Point -->
<g id="node1" class="node">
<title>Point</title>
<g id="a_node1"><a xlink:href="http://emmo.info/emmo/middle/perceptual#EMMO_39362460_2a97_4367_8f93_0418c2ac9a08" xlink:title="Point">
<ellipse fill="#ffffcc" stroke="#000000" cx="34.4469" cy="-18" rx="34.394" ry="18"/>
<text text-anchor="middle" x="34.4469" y="-14.3" font-family="Times,serif" font-size="14.00" fill="#000000">Point</text>
</a>
</g>
</g>
<!-- 0&#45;manifold -->
<g id="node13" class="node">
<title>0&#45;manifold</title>
<g id="a_node13"><a xlink:href="http://emmo.info/emmo/middle/perceptual#EMMO_0ab0485c_9e5b_4257_a679_90a2dfba5c7c" xlink:title="0&#45;manifold">
<ellipse fill="#ffffcc" stroke="#000000" cx="82.4469" cy="-90" rx="59.5901" ry="18"/>
<text text-anchor="middle" x="82.4469" y="-86.3" font-family="Times,serif" font-size="14.00" fill="#000000">0&#45;manifold</text>
</a>
</g>
</g>
<!-- Point&#45;&gt;0&#45;manifold -->
<g id="edge4" class="edge">
<title>Point&#45;&gt;0&#45;manifold</title>
<path fill="none" stroke="#000000" d="M45.8223,-35.063C51.5532,-43.6593 58.6267,-54.2696 65.0244,-63.8662"/>
<polygon fill="none" stroke="#000000" points="62.1928,-65.9285 70.652,-72.3076 68.0171,-62.0456 62.1928,-65.9285"/>
</g>
<!-- Geometrical -->
<g id="node2" class="node">
<title>Geometrical</title>
<g id="a_node2"><a xlink:href="http://emmo.info/emmo/middle/perceptual#EMMO_b5957cef_a287_442d_a3ce_fd39f20ba1cd" xlink:title="Geometrical">
<ellipse fill="#ffffcc" stroke="#000000" stroke-width="2" cx="337.4469" cy="-162" rx="67.6881" ry="18"/>
<text text-anchor="middle" x="337.4469" y="-158.3" font-family="Times,serif" font-size="14.00" fill="#000000">Geometrical</text>
</a>
</g>
</g>
<!-- Torus -->
<g id="node3" class="node">
<title>Torus</title>
<g id="a_node3"><a xlink:href="http://emmo.info/emmo/middle/perceptual#EMMO_86060335_31c2_4820_b433_27c64aea0366" xlink:title="Torus">
<ellipse fill="#ffffcc" stroke="#000000" cx="123.4469" cy="-18" rx="37.0935" ry="18"/>
<text text-anchor="middle" x="123.4469" y="-14.3" font-family="Times,serif" font-size="14.00" fill="#000000">Torus</text>
</a>
</g>
</g>
<!-- 2&#45;manifold -->
<g id="node6" class="node">
<title>2&#45;manifold</title>
<g id="a_node6"><a xlink:href="http://emmo.info/emmo/middle/perceptual#EMMO_9268958f_7f54_48ab_a693_febe2645892b" xlink:title="2&#45;manifold">
<ellipse fill="#ffffcc" stroke="#000000" cx="241.4469" cy="-90" rx="59.5901" ry="18"/>
<text text-anchor="middle" x="241.4469" y="-86.3" font-family="Times,serif" font-size="14.00" fill="#000000">2&#45;manifold</text>
</a>
</g>
</g>
<!-- Torus&#45;&gt;2&#45;manifold -->
<g id="edge8" class="edge">
<title>Torus&#45;&gt;2&#45;manifold</title>
<path fill="none" stroke="#000000" d="M146.7599,-32.2249C163.6909,-42.5557 186.9023,-56.7185 206.1059,-68.436"/>
<polygon fill="none" stroke="#000000" points="204.5279,-71.5732 214.8873,-73.7941 208.1739,-65.5977 204.5279,-71.5732"/>
</g>
<!-- Plane -->
<g id="node4" class="node">
<title>Plane</title>
<g id="a_node4"><a xlink:href="http://emmo.info/emmo/middle/perceptual#EMMO_25f5ca8e_8f7f_44d8_a392_bd3fe8894458" xlink:title="Plane">
<ellipse fill="#ffffcc" stroke="#000000" cx="214.4469" cy="-18" rx="36.2938" ry="18"/>
<text text-anchor="middle" x="214.4469" y="-14.3" font-family="Times,serif" font-size="14.00" fill="#000000">Plane</text>
</a>
</g>
</g>
<!-- Plane&#45;&gt;2&#45;manifold -->
<g id="edge7" class="edge">
<title>Plane&#45;&gt;2&#45;manifold</title>
<path fill="none" stroke="#000000" d="M221.1211,-35.7978C224.1165,-43.7854 227.7203,-53.3955 231.0562,-62.2913"/>
<polygon fill="none" stroke="#000000" points="227.8736,-63.7725 234.662,-71.9069 234.4279,-61.3146 227.8736,-63.7725"/>
</g>
<!-- EuclideanSpace -->
<g id="node5" class="node">
<title>EuclideanSpace</title>
<g id="a_node5"><a xlink:href="http://emmo.info/emmo/middle/perceptual#EMMO_5f278af9_8593_4e27_a717_ccc9e07a0ddf" xlink:title="EuclideanSpace">
<ellipse fill="#ffffcc" stroke="#000000" cx="460.4469" cy="-18" rx="85.2851" ry="18"/>
<text text-anchor="middle" x="460.4469" y="-14.3" font-family="Times,serif" font-size="14.00" fill="#000000">EuclideanSpace</text>
</a>
</g>
</g>
<!-- 3&#45;manifold -->
<g id="node9" class="node">
<title>3&#45;manifold</title>
<g id="a_node9"><a xlink:href="http://emmo.info/emmo/middle/perceptual#EMMO_46f0f8df_4dc6_418f_8036_10427a3a288e" xlink:title="3&#45;manifold">
<ellipse fill="#ffffcc" stroke="#000000" cx="406.4469" cy="-90" rx="59.5901" ry="18"/>
<text text-anchor="middle" x="406.4469" y="-86.3" font-family="Times,serif" font-size="14.00" fill="#000000">3&#45;manifold</text>
</a>
</g>
</g>
<!-- EuclideanSpace&#45;&gt;3&#45;manifold -->
<g id="edge5" class="edge">
<title>EuclideanSpace&#45;&gt;3&#45;manifold</title>
<path fill="none" stroke="#000000" d="M447.0986,-35.7978C440.6901,-44.3424 432.8892,-54.7436 425.8412,-64.141"/>
<polygon fill="none" stroke="#000000" points="422.8417,-62.3069 419.6417,-72.407 428.4418,-66.507 422.8417,-62.3069"/>
</g>
<!-- 2&#45;manifold&#45;&gt;Geometrical -->
<g id="edge6" class="edge">
<title>2&#45;manifold&#45;&gt;Geometrical</title>
<path fill="none" stroke="#000000" d="M264.1976,-107.063C276.7787,-116.4988 292.5951,-128.3611 306.3081,-138.6459"/>
<polygon fill="none" stroke="#000000" points="304.4269,-141.6099 314.5269,-144.81 308.6269,-136.0099 304.4269,-141.6099"/>
</g>
<!-- Curve -->
<g id="node7" class="node">
<title>Curve</title>
<g id="a_node7"><a xlink:href="http://emmo.info/emmo/middle/perceptual#EMMO_0ef4ff4a_5458_4f2a_b51f_4689d472a3f2" xlink:title="Curve">
<ellipse fill="#ffffcc" stroke="#000000" cx="602.4469" cy="-18" rx="38.9931" ry="18"/>
<text text-anchor="middle" x="602.4469" y="-14.3" font-family="Times,serif" font-size="14.00" fill="#000000">Curve</text>
</a>
</g>
</g>
<!-- 1&#45;manifold -->
<g id="node10" class="node">
<title>1&#45;manifold</title>
<g id="a_node10"><a xlink:href="http://emmo.info/emmo/middle/perceptual#EMMO_0c576e13_4ee7_4f3d_bfe9_1614243df018" xlink:title="1&#45;manifold">
<ellipse fill="#ffffcc" stroke="#000000" cx="650.4469" cy="-90" rx="59.5901" ry="18"/>
<text text-anchor="middle" x="650.4469" y="-86.3" font-family="Times,serif" font-size="14.00" fill="#000000">1&#45;manifold</text>
</a>
</g>
</g>
<!-- Curve&#45;&gt;1&#45;manifold -->
<g id="edge11" class="edge">
<title>Curve&#45;&gt;1&#45;manifold</title>
<path fill="none" stroke="#000000" d="M614.0664,-35.4292C619.7594,-43.9688 626.7324,-54.4281 633.045,-63.8971"/>
<polygon fill="none" stroke="#000000" points="630.1418,-65.8521 638.601,-72.2311 635.9662,-61.9691 630.1418,-65.8521"/>
</g>
<!-- Sphere -->
<g id="node8" class="node">
<title>Sphere</title>
<g id="a_node8"><a xlink:href="http://emmo.info/emmo/middle/perceptual#EMMO_d7bf784a_db94_4dd9_861c_54f262846fbf" xlink:title="Sphere">
<ellipse fill="#ffffcc" stroke="#000000" cx="313.4469" cy="-18" rx="44.393" ry="18"/>
<text text-anchor="middle" x="313.4469" y="-14.3" font-family="Times,serif" font-size="14.00" fill="#000000">Sphere</text>
</a>
</g>
</g>
<!-- Sphere&#45;&gt;2&#45;manifold -->
<g id="edge2" class="edge">
<title>Sphere&#45;&gt;2&#45;manifold</title>
<path fill="none" stroke="#000000" d="M296.7477,-34.6992C287.7435,-43.7035 276.4521,-54.9948 266.4238,-65.0231"/>
<polygon fill="none" stroke="#000000" points="263.6563,-62.8408 259.0601,-72.3868 268.6061,-67.7906 263.6563,-62.8408"/>
</g>
<!-- 3&#45;manifold&#45;&gt;Geometrical -->
<g id="edge1" class="edge">
<title>3&#45;manifold&#45;&gt;Geometrical</title>
<path fill="none" stroke="#000000" d="M389.744,-107.4292C381.2468,-116.2959 370.7661,-127.2322 361.4238,-136.9806"/>
<polygon fill="none" stroke="#000000" points="358.6274,-134.8402 354.2353,-144.4818 363.6813,-139.6835 358.6274,-134.8402"/>
</g>
<!-- 1&#45;manifold&#45;&gt;Geometrical -->
<g id="edge3" class="edge">
<title>1&#45;manifold&#45;&gt;Geometrical</title>
<path fill="none" stroke="#000000" d="M602.909,-100.9353C548.3472,-113.4862 458.7069,-134.1063 398.891,-147.8659"/>
<polygon fill="none" stroke="#000000" points="397.7825,-144.5294 388.8217,-150.1822 399.3518,-151.3512 397.7825,-144.5294"/>
</g>
<!-- Circle -->
<g id="node11" class="node">
<title>Circle</title>
<g id="a_node11"><a xlink:href="http://emmo.info/emmo/middle/perceptual#EMMO_b2a234a8_579a_422c_9305_b8f7e72c76cd" xlink:title="Circle">
<ellipse fill="#ffffcc" stroke="#000000" cx="698.4469" cy="-18" rx="38.9931" ry="18"/>
<text text-anchor="middle" x="698.4469" y="-14.3" font-family="Times,serif" font-size="14.00" fill="#000000">Circle</text>
</a>
</g>
</g>
<!-- Circle&#45;&gt;1&#45;manifold -->
<g id="edge9" class="edge">
<title>Circle&#45;&gt;1&#45;manifold</title>
<path fill="none" stroke="#000000" d="M686.8275,-35.4292C681.1344,-43.9688 674.1615,-54.4281 667.8489,-63.8971"/>
<polygon fill="none" stroke="#000000" points="664.9277,-61.9691 662.2929,-72.2311 670.7521,-65.8521 664.9277,-61.9691"/>
</g>
<!-- Line -->
<g id="node12" class="node">
<title>Line</title>
<g id="a_node12"><a xlink:href="http://emmo.info/emmo/middle/perceptual#EMMO_3e309118_e8b7_4021_80f4_642d2df65d94" xlink:title="Line">
<ellipse fill="#ffffcc" stroke="#000000" cx="786.4469" cy="-18" rx="31.3957" ry="18"/>
<text text-anchor="middle" x="786.4469" y="-14.3" font-family="Times,serif" font-size="14.00" fill="#000000">Line</text>
</a>
</g>
</g>
<!-- Line&#45;&gt;1&#45;manifold -->
<g id="edge10" class="edge">
<title>Line&#45;&gt;1&#45;manifold</title>
<path fill="none" stroke="#000000" d="M763.3764,-30.2138C743.0823,-40.9578 713.1243,-56.8178 689.163,-69.5033"/>
<polygon fill="none" stroke="#000000" points="687.5061,-66.4201 680.3059,-74.1923 690.7814,-72.6067 687.5061,-66.4201"/>
</g>
<!-- 0&#45;manifold&#45;&gt;Geometrical -->
<g id="edge12" class="edge">
<title>0&#45;manifold&#45;&gt;Geometrical</title>
<path fill="none" stroke="#000000" d="M126.283,-102.3772C169.0906,-114.4641 234.4258,-132.9117 281.0774,-146.0839"/>
<polygon fill="none" stroke="#000000" points="280.1592,-149.4614 290.734,-148.8105 282.0613,-142.7248 280.1592,-149.4614"/>
</g>
<!-- key1 -->
<g id="node14" class="node">
<title>key1</title>
<text text-anchor="start" x="851.4469" y="-13.8" font-family="Times,serif" font-size="14.00" fill="#000000">isA</text>
</g>
<!-- key2 -->
<g id="node15" class="node">
<title>key2</title>
<text text-anchor="start" x="932.4469" y="-13.8" font-family="Times,serif" font-size="14.00" fill="#000000"> </text>
</g>
<!-- key1&#45;&gt;key2 -->
<g id="edge13" class="edge">
<title>key1:e&#45;&gt;key2:w</title>
<path fill="none" stroke="#000000" d="M876.4469,-19C896.6969,-19 904.1325,-19 920.378,-19"/>
<polygon fill="none" stroke="#000000" points="920.447,-22.5001 930.4469,-19 920.4469,-15.5001 920.447,-22.5001"/>
</g>
</g>
</svg>
