<?xml version="1.0" encoding="UTF-8" standalone="no"?>
<!DOCTYPE svg PUBLIC "-//W3C//DTD SVG 1.1//EN"
 "http://www.w3.org/Graphics/SVG/1.1/DTD/svg11.dtd">
<!-- Generated by graphviz version 2.40.1 (0)
 -->
<!-- Title: %3 Pages: 1 -->
<svg width="1027pt" height="270pt"
 viewBox="0.00 0.00 1026.59 270.00" xmlns="http://www.w3.org/2000/svg" xmlns:xlink="http://www.w3.org/1999/xlink">
<g id="graph0" class="graph" transform="scale(1 1) rotate(0) translate(4 266)">
<title>%3</title>
<polygon fill="#ffffff" stroke="transparent" points="-4,4 -4,-266 1022.594,-266 1022.594,4 -4,4"/>
<!-- Language -->
<g id="node1" class="node">
<title>Language</title>
<g id="a_node1"><a xlink:href="http://emmo.info/emmo/middle/perceptual#EMMO_d8d2144e_5c8d_455d_a643_5caf4d8d9df8" xlink:title="Language">
<ellipse fill="#ffffcc" stroke="#000000" cx="600.594" cy="-100" rx="56.59" ry="18"/>
<text text-anchor="middle" x="600.594" y="-96.3" font-family="Times,serif" font-size="14.00" fill="#000000">Language</text>
</a>
</g>
</g>
<!-- Symbolic -->
<g id="node5" class="node">
<title>Symbolic</title>
<g id="a_node5"><a xlink:href="http://emmo.info/emmo/middle/perceptual#EMMO_057e7d57_aff0_49de_911a_8861d85cef40" xlink:title="Symbolic">
<ellipse fill="#ffffcc" stroke="#000000" cx="325.594" cy="-172" rx="53.8905" ry="18"/>
<text text-anchor="middle" x="325.594" y="-168.3" font-family="Times,serif" font-size="14.00" fill="#000000">Symbolic</text>
</a>
</g>
</g>
<!-- Language&#45;&gt;Symbolic -->
<g id="edge9" class="edge">
<title>Language&#45;&gt;Symbolic</title>
<path fill="none" stroke="#000000" d="M557.6583,-111.7993C549.9827,-113.8831 542.0554,-116.0187 534.594,-118 481.6122,-132.0686 420.9425,-147.6899 378.6676,-158.4964"/>
<polygon fill="none" stroke="#000000" points="377.6911,-155.1334 368.8684,-160.9993 379.4235,-161.9156 377.6911,-155.1334"/>
</g>
<!-- Geometrical -->
<g id="node2" class="node">
<title>Geometrical</title>
<g id="a_node2"><a xlink:href="http://emmo.info/emmo/middle/perceptual#EMMO_b5957cef_a287_442d_a3ce_fd39f20ba1cd" xlink:title="Geometrical">
<ellipse fill="#ffffcc" stroke="#000000" stroke-width="2" cx="67.594" cy="-172" rx="67.6881" ry="18"/>
<text text-anchor="middle" x="67.594" y="-168.3" font-family="Times,serif" font-size="14.00" fill="#000000">Geometrical</text>
</a>
</g>
</g>
<!-- Graphical -->
<g id="node6" class="node">
<title>Graphical</title>
<g id="a_node6"><a xlink:href="http://emmo.info/emmo/middle/perceptual#EMMO_c74da218_9147_4f03_92d1_8894abca55f3" xlink:title="Graphical">
<ellipse fill="#ffffcc" stroke="#000000" stroke-width="2" cx="203.594" cy="-244" rx="55.7903" ry="18"/>
<text text-anchor="middle" x="203.594" y="-240.3" font-family="Times,serif" font-size="14.00" fill="#000000">Graphical</text>
</a>
</g>
</g>
<!-- Geometrical&#45;&gt;Graphical -->
<g id="edge1" class="edge">
<title>Geometrical&#45;&gt;Graphical</title>
<path fill="none" stroke="#000000" d="M98.1151,-188.1582C117.8988,-198.6319 143.8377,-212.3643 165.0418,-223.59"/>
<polygon fill="none" stroke="#000000" points="163.6334,-226.8046 174.1089,-228.3902 166.9086,-220.618 163.6334,-226.8046"/>
</g>
<!-- String -->
<g id="node3" class="node">
<title>String</title>
<g id="a_node3"><a xlink:href="http://emmo.info/emmo/middle/perceptual#EMMO_50ea1ec5_f157_41b0_b46b_a9032f17ca10" xlink:title="String">
<ellipse fill="#ffffcc" stroke="#000000" cx="133.594" cy="-100" rx="40.0939" ry="18"/>
<text text-anchor="middle" x="133.594" y="-96.3" font-family="Times,serif" font-size="14.00" fill="#000000">String</text>
</a>
</g>
</g>
<!-- String&#45;&gt;Symbolic -->
<g id="edge4" class="edge">
<title>String&#45;&gt;Symbolic</title>
<path fill="none" stroke="#000000" d="M164.8694,-111.7283C196.0478,-123.4202 244.2754,-141.5055 279.7718,-154.8167"/>
<polygon fill="none" stroke="#000000" points="278.829,-158.2011 289.4212,-158.4352 281.2869,-151.6468 278.829,-158.2011"/>
</g>
<!-- Symbol -->
<g id="node9" class="node">
<title>Symbol</title>
<g id="a_node9"><a xlink:href="http://emmo.info/emmo/middle/perceptual#EMMO_a1083d0a_c1fb_471f_8e20_a98f881ad527" xlink:title="Symbol">
<ellipse fill="#ffffcc" stroke="#000000" stroke-width="2" cx="237.594" cy="-100" rx="45.4919" ry="18"/>
<text text-anchor="middle" x="237.594" y="-96.3" font-family="Times,serif" font-size="14.00" fill="#000000">Symbol</text>
</a>
</g>
</g>
<!-- String&#45;&gt;Symbol -->
<g id="edge5" class="edge">
<title>String&#45;&gt;Symbol</title>
<path fill="none" stroke="#006400" d="M164.8753,-111.3568C174.2625,-113.2989 183.6497,-113.9211 193.0369,-113.2234"/>
<polygon fill="#006400" stroke="#006400" points="193.7352,-116.6634 203.223,-111.9484 192.8657,-109.7176 193.7352,-116.6634"/>
</g>
<!-- String&#45;&gt;Symbol -->
<g id="edge6" class="edge">
<title>String&#45;&gt;Symbol</title>
<path fill="none" stroke="#006400" d="M164.8753,-88.6432C174.2625,-86.7011 183.6497,-86.0789 193.0369,-86.7766"/>
<polygon fill="#006400" stroke="#006400" points="192.8657,-90.2824 203.223,-88.0516 193.7352,-83.3366 192.8657,-90.2824"/>
</g>
<!-- Metrological -->
<g id="node4" class="node">
<title>Metrological</title>
<g id="a_node4"><a xlink:href="http://emmo.info/emmo/middle/metrology#EMMO_985bec21_989f_4b9e_a4b3_735d88099c3c" xlink:title="Metrological">
<ellipse fill="#ffffcc" stroke="#000000" stroke-width="2" cx="518.594" cy="-23" rx="69.5877" ry="18"/>
<text text-anchor="middle" x="518.594" y="-19.3" font-family="Times,serif" font-size="14.00" fill="#000000">Metrological</text>
</a>
</g>
</g>
<!-- Metrological&#45;&gt;Language -->
<g id="edge12" class="edge">
<title>Metrological&#45;&gt;Language</title>
<path fill="none" stroke="#000000" d="M537.2011,-40.4725C548.3926,-50.9816 562.7952,-64.506 575.0433,-76.0072"/>
<polygon fill="none" stroke="#000000" points="572.6573,-78.568 582.343,-82.8619 577.4491,-73.4651 572.6573,-78.568"/>
</g>
<!-- Symbolic&#45;&gt;Graphical -->
<g id="edge2" class="edge">
<title>Symbolic&#45;&gt;Graphical</title>
<path fill="none" stroke="#000000" d="M298.8206,-187.8007C281.3815,-198.0926 258.4244,-211.6411 239.4205,-222.8565"/>
<polygon fill="none" stroke="#000000" points="237.5598,-219.8905 230.7266,-227.9873 241.1176,-225.919 237.5598,-219.8905"/>
</g>
<!-- SymbolicComposition -->
<g id="node7" class="node">
<title>SymbolicComposition</title>
<g id="a_node7"><a xlink:href="http://emmo.info/emmo/middle/perceptual#EMMO_89a0c87c_0804_4013_937a_6fe234d9499c" xlink:title="SymbolicComposition">
<ellipse fill="#ffffcc" stroke="#000000" cx="413.594" cy="-100" rx="112.3801" ry="18"/>
<text text-anchor="middle" x="413.594" y="-96.3" font-family="Times,serif" font-size="14.00" fill="#000000">SymbolicComposition</text>
</a>
</g>
</g>
<!-- SymbolicComposition&#45;&gt;Symbolic -->
<g id="edge10" class="edge">
<title>SymbolicComposition&#45;&gt;Symbolic</title>
<path fill="none" stroke="#000000" d="M385.9255,-117.7978C373.9599,-126.8454 360.1904,-137.9745 348.7672,-147.7895"/>
<polygon fill="none" stroke="#000000" points="346.1427,-145.4353 340.9235,-154.6554 350.7533,-150.7025 346.1427,-145.4353"/>
</g>
<!-- SymbolicComposition&#45;&gt;Symbolic -->
<g id="edge11" class="edge">
<title>SymbolicComposition&#45;&gt;Symbolic</title>
<path fill="none" stroke="#006400" d="M397.3403,-118.1686C386.4754,-127.8283 371.9765,-139.7795 358.8018,-149.9654"/>
<polygon fill="#006400" stroke="#006400" points="356.653,-147.2024 350.8142,-156.0432 360.8918,-152.7732 356.653,-147.2024"/>
</g>
<!-- Pictorial -->
<g id="node8" class="node">
<title>Pictorial</title>
<g id="a_node8"><a xlink:href="http://emmo.info/emmo/middle/perceptual#EMMO_1da53c06_9577_4008_8652_272fa3b62be7" xlink:title="Pictorial">
<ellipse fill="#ffffcc" stroke="#000000" cx="203.594" cy="-172" rx="50.0912" ry="18"/>
<text text-anchor="middle" x="203.594" y="-168.3" font-family="Times,serif" font-size="14.00" fill="#000000">Pictorial</text>
</a>
</g>
</g>
<!-- Pictorial&#45;&gt;Graphical -->
<g id="edge7" class="edge">
<title>Pictorial&#45;&gt;Graphical</title>
<path fill="none" stroke="#000000" d="M203.594,-190.1686C203.594,-197.869 203.594,-207.0257 203.594,-215.5834"/>
<polygon fill="none" stroke="#000000" points="200.0941,-215.5867 203.594,-225.5867 207.0941,-215.5868 200.0941,-215.5867"/>
</g>
<!-- Symbol&#45;&gt;Symbolic -->
<g id="edge8" class="edge">
<title>Symbol&#45;&gt;Symbolic</title>
<path fill="none" stroke="#000000" d="M257.5626,-116.3379C269.321,-125.9585 284.3824,-138.2814 297.3435,-148.8859"/>
<polygon fill="none" stroke="#000000" points="295.1378,-151.6035 305.0938,-155.2271 299.5705,-146.1858 295.1378,-151.6035"/>
</g>
<!-- Mathematical -->
<g id="node10" class="node">
<title>Mathematical</title>
<g id="a_node10"><a xlink:href="http://emmo.info/emmo/middle/math#EMMO_54ee6b5e_5261_44a8_86eb_5717e7fdb9d0" xlink:title="Mathematical">
<ellipse fill="#ffffcc" stroke="#000000" stroke-width="2" cx="681.594" cy="-23" rx="75.2868" ry="18"/>
<text text-anchor="middle" x="681.594" y="-19.3" font-family="Times,serif" font-size="14.00" fill="#000000">Mathematical</text>
</a>
</g>
</g>
<!-- Mathematical&#45;&gt;Language -->
<g id="edge3" class="edge">
<title>Mathematical&#45;&gt;Language</title>
<path fill="none" stroke="#000000" d="M663.2138,-40.4725C652.2631,-50.8825 638.2,-64.2511 626.1761,-75.6812"/>
<polygon fill="none" stroke="#000000" points="623.4587,-73.4353 618.6224,-82.8619 628.2816,-78.5087 623.4587,-73.4353"/>
</g>
<!-- key1 -->
<g id="node11" class="node">
<title>key1</title>
<text text-anchor="start" x="913.594" y="-28.8" font-family="Times,serif" font-size="14.00" fill="#000000">isA</text>
<text text-anchor="start" x="785.594" y="-9.8" font-family="Times,serif" font-size="14.00" fill="#000000">hasSpatialDirectPart</text>
</g>
<!-- key2 -->
<g id="node12" class="node">
<title>key2</title>
<text text-anchor="start" x="989.594" y="-28.8" font-family="Times,serif" font-size="14.00" fill="#000000"> </text>
<text text-anchor="start" x="989.594" y="-9.8" font-family="Times,serif" font-size="14.00" fill="#000000"> </text>
</g>
<!-- key1&#45;&gt;key2 -->
<g id="edge13" class="edge">
<title>key1:e&#45;&gt;key2:w</title>
<path fill="none" stroke="#006400" d="M938.594,-13C956.4586,-13 963.3323,-13 977.247,-13"/>
<polygon fill="#006400" stroke="#006400" points="977.594,-16.5001 987.594,-13 977.594,-9.5001 977.594,-16.5001"/>
</g>
<!-- key1&#45;&gt;key2 -->
<g id="edge14" class="edge">
<title>key1:e&#45;&gt;key2:w</title>
<path fill="none" stroke="#000000" d="M938.594,-33C956.4586,-33 963.3323,-33 977.247,-33"/>
<polygon fill="none" stroke="#000000" points="977.594,-36.5001 987.594,-33 977.594,-29.5001 977.594,-36.5001"/>
</g>
</g>
</svg>
