<?xml version="1.0" encoding="UTF-8" standalone="no"?>
<!DOCTYPE svg PUBLIC "-//W3C//DTD SVG 1.1//EN"
 "http://www.w3.org/Graphics/SVG/1.1/DTD/svg11.dtd">
<!-- Generated by graphviz version 2.40.1 (0)
 -->
<!-- Title: %3 Pages: 1 -->
<svg width="759pt" height="260pt"
 viewBox="0.00 0.00 759.44 260.00" xmlns="http://www.w3.org/2000/svg" xmlns:xlink="http://www.w3.org/1999/xlink">
<g id="graph0" class="graph" transform="scale(1 1) rotate(0) translate(4 256)">
<title>%3</title>
<polygon fill="#ffffff" stroke="transparent" points="-4,4 -4,-256 755.4446,-256 755.4446,4 -4,4"/>
<!-- Subatomic -->
<g id="node1" class="node">
<title>Subatomic</title>
<g id="a_node1"><a xlink:href="http://emmo.info/emmo/middle/materials#EMMO_7d66bde4_b68d_41cc_b5fc_6fd98c5e2ff0" xlink:title="Subatomic">
<ellipse fill="#ffffcc" stroke="#000000" stroke-width="2" cx="60.4446" cy="-162" rx="60.3893" ry="18"/>
<text text-anchor="middle" x="60.4446" y="-158.3" font-family="Times,serif" font-size="14.00" fill="#000000">Subatomic</text>
</a>
</g>
</g>
<!-- MaterialState -->
<g id="node4" class="node">
<title>MaterialState</title>
<g id="a_node4"><a xlink:href="http://emmo.info/emmo/middle/materials#EMMO_20fff605_465f_4034_8696_e53e90ec83f4" xlink:title="MaterialState">
<ellipse fill="#ffc880" stroke="#000000" stroke-width="2" cx="259.4446" cy="-234" rx="75.2868" ry="18"/>
<text text-anchor="middle" x="259.4446" y="-230.3" font-family="Times,serif" font-size="14.00" fill="#000000">MaterialState</text>
</a>
</g>
</g>
<!-- Subatomic&#45;&gt;MaterialState -->
<g id="edge2" class="edge">
<title>Subatomic&#45;&gt;MaterialState</title>
<path fill="none" stroke="#000000" d="M99.2862,-176.0532C130.2737,-187.2648 173.9538,-203.0687 207.8718,-215.3405"/>
<polygon fill="none" stroke="#000000" points="207.015,-218.7525 217.6093,-218.8636 209.3966,-212.1701 207.015,-218.7525"/>
</g>
<!-- Molecule -->
<g id="node2" class="node">
<title>Molecule</title>
<g id="a_node2"><a xlink:href="http://emmo.info/emmo/middle/materials#EMMO_3397f270_dfc1_4500_8f6f_4d0d85ac5f71" xlink:title="Molecule">
<ellipse fill="#ffffcc" stroke="#000000" cx="192.4446" cy="-162" rx="53.0913" ry="18"/>
<text text-anchor="middle" x="192.4446" y="-158.3" font-family="Times,serif" font-size="14.00" fill="#000000">Molecule</text>
</a>
</g>
</g>
<!-- Molecule&#45;&gt;MaterialState -->
<g id="edge8" class="edge">
<title>Molecule&#45;&gt;MaterialState</title>
<path fill="none" stroke="#000000" d="M208.6635,-179.4292C216.8533,-188.2302 226.9406,-199.0703 235.961,-208.7638"/>
<polygon fill="none" stroke="#000000" points="233.5351,-211.2947 242.9097,-216.2311 238.6596,-206.5261 233.5351,-211.2947"/>
</g>
<!-- Solid -->
<g id="node3" class="node">
<title>Solid</title>
<g id="a_node3"><a xlink:href="http://emmo.info/emmo/middle/materials#EMMO_a2b006f2_bbfd_4dba_bcaa_3fca20cd6be1" xlink:title="Solid">
<ellipse fill="#ffffcc" stroke="#000000" cx="239.4446" cy="-90" rx="34.394" ry="18"/>
<text text-anchor="middle" x="239.4446" y="-86.3" font-family="Times,serif" font-size="14.00" fill="#000000">Solid</text>
</a>
</g>
</g>
<!-- Continuum -->
<g id="node8" class="node">
<title>Continuum</title>
<g id="a_node8"><a xlink:href="http://emmo.info/emmo/middle/materials#EMMO_8b0923ab_b500_477b_9ce9_8b3a3e4dc4f2" xlink:title="Continuum">
<ellipse fill="#ffffcc" stroke="#000000" cx="326.4446" cy="-162" rx="62.2891" ry="18"/>
<text text-anchor="middle" x="326.4446" y="-158.3" font-family="Times,serif" font-size="14.00" fill="#000000">Continuum</text>
</a>
</g>
</g>
<!-- Solid&#45;&gt;Continuum -->
<g id="edge4" class="edge">
<title>Solid&#45;&gt;Continuum</title>
<path fill="none" stroke="#000000" d="M257.8951,-105.2693C269.5434,-114.9093 284.8269,-127.5578 298.0061,-138.4647"/>
<polygon fill="none" stroke="#000000" points="295.9534,-141.309 305.8888,-144.9883 300.4164,-135.9162 295.9534,-141.309"/>
</g>
<!-- IonAtom -->
<g id="node5" class="node">
<title>IonAtom</title>
<g id="a_node5"><a xlink:href="http://emmo.info/emmo/middle/materials#EMMO_db03061b_db31_4132_a47a_6a634846578b" xlink:title="IonAtom">
<ellipse fill="#ffffcc" stroke="#000000" cx="396.4446" cy="-18" rx="50.8918" ry="18"/>
<text text-anchor="middle" x="396.4446" y="-14.3" font-family="Times,serif" font-size="14.00" fill="#000000">IonAtom</text>
</a>
</g>
</g>
<!-- StandaloneAtom -->
<g id="node9" class="node">
<title>StandaloneAtom</title>
<g id="a_node9"><a xlink:href="http://emmo.info/emmo/middle/materials#EMMO_2fd3f574_5e93_47fe_afca_ed80b0a21ab4" xlink:title="StandaloneAtom">
<ellipse fill="#ffffcc" stroke="#000000" cx="466.4446" cy="-90" rx="87.9851" ry="18"/>
<text text-anchor="middle" x="466.4446" y="-86.3" font-family="Times,serif" font-size="14.00" fill="#000000">StandaloneAtom</text>
</a>
</g>
</g>
<!-- IonAtom&#45;&gt;StandaloneAtom -->
<g id="edge5" class="edge">
<title>IonAtom&#45;&gt;StandaloneAtom</title>
<path fill="none" stroke="#000000" d="M413.0337,-35.063C421.7323,-44.0102 432.5521,-55.1391 442.1741,-65.036"/>
<polygon fill="none" stroke="#000000" points="439.7634,-67.5774 449.2437,-72.3076 444.7824,-62.6978 439.7634,-67.5774"/>
</g>
<!-- Fluid -->
<g id="node6" class="node">
<title>Fluid</title>
<g id="a_node6"><a xlink:href="http://emmo.info/emmo/middle/materials#EMMO_87ac88ff_8379_4f5a_8c7b_424a8fff1ee8" xlink:title="Fluid">
<ellipse fill="#ffffcc" stroke="#000000" cx="326.4446" cy="-90" rx="34.394" ry="18"/>
<text text-anchor="middle" x="326.4446" y="-86.3" font-family="Times,serif" font-size="14.00" fill="#000000">Fluid</text>
</a>
</g>
</g>
<!-- Fluid&#45;&gt;Continuum -->
<g id="edge1" class="edge">
<title>Fluid&#45;&gt;Continuum</title>
<path fill="none" stroke="#000000" d="M326.4446,-108.1686C326.4446,-115.869 326.4446,-125.0257 326.4446,-133.5834"/>
<polygon fill="none" stroke="#000000" points="322.9447,-133.5867 326.4446,-143.5867 329.9447,-133.5868 322.9447,-133.5867"/>
</g>
<!-- NeutralAtom -->
<g id="node7" class="node">
<title>NeutralAtom</title>
<g id="a_node7"><a xlink:href="http://emmo.info/emmo/middle/materials#EMMO_4588526f_8553_4f4d_aa73_a483e88d599b" xlink:title="NeutralAtom">
<ellipse fill="#ffffcc" stroke="#000000" cx="536.4446" cy="-18" rx="71.4873" ry="18"/>
<text text-anchor="middle" x="536.4446" y="-14.3" font-family="Times,serif" font-size="14.00" fill="#000000">NeutralAtom</text>
</a>
</g>
</g>
<!-- NeutralAtom&#45;&gt;StandaloneAtom -->
<g id="edge6" class="edge">
<title>NeutralAtom&#45;&gt;StandaloneAtom</title>
<path fill="none" stroke="#000000" d="M519.1413,-35.7978C510.6436,-44.5383 500.2572,-55.2214 490.9587,-64.7856"/>
<polygon fill="none" stroke="#000000" points="488.2529,-62.5477 483.7916,-72.1575 493.2719,-67.4273 488.2529,-62.5477"/>
</g>
<!-- Continuum&#45;&gt;MaterialState -->
<g id="edge9" class="edge">
<title>Continuum&#45;&gt;MaterialState</title>
<path fill="none" stroke="#000000" d="M310.2258,-179.4292C302.036,-188.2302 291.9486,-199.0703 282.9283,-208.7638"/>
<polygon fill="none" stroke="#000000" points="280.2297,-206.5261 275.9796,-216.2311 285.3542,-211.2947 280.2297,-206.5261"/>
</g>
<!-- Atom -->
<g id="node11" class="node">
<title>Atom</title>
<g id="a_node11"><a xlink:href="http://emmo.info/emmo/middle/materials#EMMO_eb77076b_a104_42ac_a065_798b2d2809ad" xlink:title="Atom">
<ellipse fill="#ffffcc" stroke="#000000" cx="466.4446" cy="-162" rx="35.9954" ry="18"/>
<text text-anchor="middle" x="466.4446" y="-158.3" font-family="Times,serif" font-size="14.00" fill="#000000">Atom</text>
</a>
</g>
</g>
<!-- StandaloneAtom&#45;&gt;Atom -->
<g id="edge7" class="edge">
<title>StandaloneAtom&#45;&gt;Atom</title>
<path fill="none" stroke="#000000" d="M466.4446,-108.1686C466.4446,-115.869 466.4446,-125.0257 466.4446,-133.5834"/>
<polygon fill="none" stroke="#000000" points="462.9447,-133.5867 466.4446,-143.5867 469.9447,-133.5868 462.9447,-133.5867"/>
</g>
<!-- BondedAtom -->
<g id="node10" class="node">
<title>BondedAtom</title>
<g id="a_node10"><a xlink:href="http://emmo.info/emmo/middle/materials#EMMO_8303a247_f9d9_4616_bdcd_f5cbd7b298e3" xlink:title="BondedAtom">
<ellipse fill="#ffffcc" stroke="#000000" cx="643.4446" cy="-90" rx="70.6878" ry="18"/>
<text text-anchor="middle" x="643.4446" y="-86.3" font-family="Times,serif" font-size="14.00" fill="#000000">BondedAtom</text>
</a>
</g>
</g>
<!-- BondedAtom&#45;&gt;Atom -->
<g id="edge3" class="edge">
<title>BondedAtom&#45;&gt;Atom</title>
<path fill="none" stroke="#000000" d="M605.9075,-105.2693C575.7816,-117.5239 533.7041,-134.6402 503.6629,-146.8604"/>
<polygon fill="none" stroke="#000000" points="502.3068,-143.6334 494.3626,-150.6435 504.9444,-150.1175 502.3068,-143.6334"/>
</g>
<!-- Atom&#45;&gt;MaterialState -->
<g id="edge10" class="edge">
<title>Atom&#45;&gt;MaterialState</title>
<path fill="none" stroke="#000000" d="M436.7866,-172.3158C404.2545,-183.6313 351.4135,-202.0108 311.8589,-215.7689"/>
<polygon fill="none" stroke="#000000" points="310.6597,-212.4803 302.3646,-219.0713 312.9594,-219.0918 310.6597,-212.4803"/>
</g>
<!-- key1 -->
<g id="node12" class="node">
<title>key1</title>
<text text-anchor="start" x="641.4446" y="-13.8" font-family="Times,serif" font-size="14.00" fill="#000000">isA</text>
</g>
<!-- key2 -->
<g id="node13" class="node">
<title>key2</title>
<text text-anchor="start" x="722.4446" y="-13.8" font-family="Times,serif" font-size="14.00" fill="#000000"> </text>
</g>
<!-- key1&#45;&gt;key2 -->
<g id="edge11" class="edge">
<title>key1:e&#45;&gt;key2:w</title>
<path fill="none" stroke="#000000" d="M666.4446,-19C686.6946,-19 694.1302,-19 710.3757,-19"/>
<polygon fill="none" stroke="#000000" points="710.4447,-22.5001 720.4446,-19 710.4446,-15.5001 710.4447,-22.5001"/>
</g>
</g>
</svg>
