<?xml version="1.0" encoding="UTF-8" standalone="no"?>
<!DOCTYPE svg PUBLIC "-//W3C//DTD SVG 1.1//EN"
 "http://www.w3.org/Graphics/SVG/1.1/DTD/svg11.dtd">
<!-- Generated by graphviz version 2.40.1 (0)
 -->
<!-- Title: %3 Pages: 1 -->
<svg width="992pt" height="198pt"
 viewBox="0.00 0.00 991.74 198.00" xmlns="http://www.w3.org/2000/svg" xmlns:xlink="http://www.w3.org/1999/xlink">
<g id="graph0" class="graph" transform="scale(1 1) rotate(0) translate(4 194)">
<title>%3</title>
<polygon fill="#ffffff" stroke="transparent" points="-4,4 -4,-194 987.7422,-194 987.7422,4 -4,4"/>
<!-- ElectronicModel -->
<g id="node1" class="node">
<title>ElectronicModel</title>
<g id="a_node1"><a xlink:href="http://emmo.info/emmo/middle/models#EMMO_6eca09be_17e9_445e_abc9_000aa61b7a11" xlink:title="ElectronicModel">
<ellipse fill="#ffffcc" stroke="#000000" cx="87.7422" cy="-23" rx="87.9851" ry="18"/>
<text text-anchor="middle" x="87.7422" y="-19.3" font-family="Times,serif" font-size="14.00" fill="#000000">ElectronicModel</text>
</a>
</g>
</g>
<!-- PhysicsBasedModel -->
<g id="node8" class="node">
<title>PhysicsBasedModel</title>
<g id="a_node8"><a xlink:href="http://emmo.info/emmo/middle/models#EMMO_b29fd350_39aa_4af7_9459_3faa0544cba6" xlink:title="PhysicsBasedModel">
<ellipse fill="#ffffcc" stroke="#000000" cx="388.7422" cy="-100" rx="103.1819" ry="18"/>
<text text-anchor="middle" x="388.7422" y="-96.3" font-family="Times,serif" font-size="14.00" fill="#000000">PhysicsBasedModel</text>
</a>
</g>
</g>
<!-- ElectronicModel&#45;&gt;PhysicsBasedModel -->
<g id="edge1" class="edge">
<title>ElectronicModel&#45;&gt;PhysicsBasedModel</title>
<path fill="none" stroke="#000000" d="M142.9503,-37.123C193.0396,-49.9365 267.0521,-68.87 320.7648,-82.6104"/>
<polygon fill="none" stroke="#000000" points="319.9921,-86.0254 330.5475,-85.113 321.727,-79.2438 319.9921,-86.0254"/>
</g>
<!-- PhysicsEquation -->
<g id="node2" class="node">
<title>PhysicsEquation</title>
<g id="a_node2"><a xlink:href="http://emmo.info/emmo/middle/models#EMMO_27c5d8c6_8af7_4d63_beb1_ec37cd8b3fa3" xlink:title="PhysicsEquation">
<ellipse fill="#ffffcc" stroke="#000000" cx="598.7422" cy="-100" rx="88.2844" ry="18"/>
<text text-anchor="middle" x="598.7422" y="-96.3" font-family="Times,serif" font-size="14.00" fill="#000000">PhysicsEquation</text>
</a>
</g>
</g>
<!-- MathematicalModel -->
<g id="node4" class="node">
<title>MathematicalModel</title>
<g id="a_node4"><a xlink:href="http://emmo.info/emmo/middle/models#EMMO_f7ed665b_c2e1_42bc_889b_6b42ed3a36f0" xlink:title="MathematicalModel">
<ellipse fill="#ffc880" stroke="#000000" stroke-width="2" cx="598.7422" cy="-172" rx="103.9815" ry="18"/>
<text text-anchor="middle" x="598.7422" y="-168.3" font-family="Times,serif" font-size="14.00" fill="#000000">MathematicalModel</text>
</a>
</g>
</g>
<!-- PhysicsEquation&#45;&gt;MathematicalModel -->
<g id="edge7" class="edge">
<title>PhysicsEquation&#45;&gt;MathematicalModel</title>
<path fill="none" stroke="#000000" d="M598.7422,-118.1686C598.7422,-125.869 598.7422,-135.0257 598.7422,-143.5834"/>
<polygon fill="none" stroke="#000000" points="595.2423,-143.5867 598.7422,-153.5867 602.2423,-143.5868 595.2423,-143.5867"/>
</g>
<!-- MesoscopicModel -->
<g id="node3" class="node">
<title>MesoscopicModel</title>
<g id="a_node3"><a xlink:href="http://emmo.info/emmo/middle/models#EMMO_53935db0_af45_4426_b9e9_244a0d77db00" xlink:title="MesoscopicModel">
<ellipse fill="#ffffcc" stroke="#000000" cx="287.7422" cy="-23" rx="94.4839" ry="18"/>
<text text-anchor="middle" x="287.7422" y="-19.3" font-family="Times,serif" font-size="14.00" fill="#000000">MesoscopicModel</text>
</a>
</g>
</g>
<!-- MesoscopicModel&#45;&gt;PhysicsBasedModel -->
<g id="edge6" class="edge">
<title>MesoscopicModel&#45;&gt;PhysicsBasedModel</title>
<path fill="none" stroke="#000000" d="M310.6607,-40.4725C324.509,-51.0301 342.3491,-64.631 357.48,-76.1665"/>
<polygon fill="none" stroke="#000000" points="355.4903,-79.0507 365.5648,-82.3301 359.7343,-73.4839 355.4903,-79.0507"/>
</g>
<!-- ContinuumModel -->
<g id="node5" class="node">
<title>ContinuumModel</title>
<g id="a_node5"><a xlink:href="http://emmo.info/emmo/middle/models#EMMO_4456a5d2_16a6_4ee1_9a8e_5c75956b28ea" xlink:title="ContinuumModel">
<ellipse fill="#ffffcc" stroke="#000000" cx="490.7422" cy="-23" rx="90.9839" ry="18"/>
<text text-anchor="middle" x="490.7422" y="-19.3" font-family="Times,serif" font-size="14.00" fill="#000000">ContinuumModel</text>
</a>
</g>
</g>
<!-- ContinuumModel&#45;&gt;PhysicsBasedModel -->
<g id="edge2" class="edge">
<title>ContinuumModel&#45;&gt;PhysicsBasedModel</title>
<path fill="none" stroke="#000000" d="M467.5968,-40.4725C453.6114,-51.0301 435.5947,-64.631 420.3139,-76.1665"/>
<polygon fill="none" stroke="#000000" points="418.0215,-73.5116 412.1491,-82.3301 422.239,-79.0985 418.0215,-73.5116"/>
</g>
<!-- AtomisticModel -->
<g id="node6" class="node">
<title>AtomisticModel</title>
<g id="a_node6"><a xlink:href="http://emmo.info/emmo/middle/models#EMMO_84cadc45_6758_46f2_ba2a_5ead65c70213" xlink:title="AtomisticModel">
<ellipse fill="#ffffcc" stroke="#000000" cx="683.7422" cy="-23" rx="84.485" ry="18"/>
<text text-anchor="middle" x="683.7422" y="-19.3" font-family="Times,serif" font-size="14.00" fill="#000000">AtomisticModel</text>
</a>
</g>
</g>
<!-- AtomisticModel&#45;&gt;PhysicsBasedModel -->
<g id="edge8" class="edge">
<title>AtomisticModel&#45;&gt;PhysicsBasedModel</title>
<path fill="none" stroke="#000000" d="M629.9777,-37.0335C581.1104,-49.7886 508.8051,-68.6615 456.1017,-82.418"/>
<polygon fill="none" stroke="#000000" points="454.9592,-79.0989 446.1674,-85.0111 456.7272,-85.872 454.9592,-79.0989"/>
</g>
<!-- DataBasedModel -->
<g id="node7" class="node">
<title>DataBasedModel</title>
<g id="a_node7"><a xlink:href="http://emmo.info/emmo/middle/models#EMMO_a4b14b83_9392_4a5f_a2e8_b2b58793f59b" xlink:title="DataBasedModel">
<ellipse fill="#ffffcc" stroke="#000000" cx="794.7422" cy="-100" rx="89.8845" ry="18"/>
<text text-anchor="middle" x="794.7422" y="-96.3" font-family="Times,serif" font-size="14.00" fill="#000000">DataBasedModel</text>
</a>
</g>
</g>
<!-- DataBasedModel&#45;&gt;MathematicalModel -->
<g id="edge3" class="edge">
<title>DataBasedModel&#45;&gt;MathematicalModel</title>
<path fill="none" stroke="#000000" d="M751.7292,-115.8007C722.6242,-126.4923 683.9521,-140.6984 652.7718,-152.1524"/>
<polygon fill="none" stroke="#000000" points="651.5344,-148.8782 643.3546,-155.6118 653.9482,-155.4489 651.5344,-148.8782"/>
</g>
<!-- PhysicsBasedModel&#45;&gt;PhysicsEquation -->
<g id="edge5" class="edge">
<title>PhysicsBasedModel&#45;&gt;PhysicsEquation</title>
<path fill="none" stroke="#0000ff" stroke-dasharray="5,2" d="M492.1016,-100C494.7138,-100 497.326,-100 499.9382,-100"/>
<polygon fill="#0000ff" stroke="#0000ff" points="500.0139,-103.5001 510.0139,-100 500.0138,-96.5001 500.0139,-103.5001"/>
</g>
<!-- PhysicsBasedModel&#45;&gt;MathematicalModel -->
<g id="edge4" class="edge">
<title>PhysicsBasedModel&#45;&gt;MathematicalModel</title>
<path fill="none" stroke="#000000" d="M435.6089,-116.0686C467.0752,-126.857 508.7125,-141.1327 542.0454,-152.5611"/>
<polygon fill="none" stroke="#000000" points="541.0614,-155.9237 551.656,-155.8562 543.3317,-149.302 541.0614,-155.9237"/>
</g>
<!-- key1 -->
<g id="node9" class="node">
<title>key1</title>
<text text-anchor="start" x="878.7422" y="-28.8" font-family="Times,serif" font-size="14.00" fill="#000000">isA</text>
<text text-anchor="start" x="795.7422" y="-9.8" font-family="Times,serif" font-size="14.00" fill="#000000">hasSpatialPart</text>
</g>
<!-- key2 -->
<g id="node10" class="node">
<title>key2</title>
<text text-anchor="start" x="954.7422" y="-28.8" font-family="Times,serif" font-size="14.00" fill="#000000"> </text>
<text text-anchor="start" x="954.7422" y="-9.8" font-family="Times,serif" font-size="14.00" fill="#000000"> </text>
</g>
<!-- key1&#45;&gt;key2 -->
<g id="edge9" class="edge">
<title>key1:e&#45;&gt;key2:w</title>
<path fill="none" stroke="#0000ff" stroke-dasharray="5,2" d="M903.7422,-13C921.6068,-13 928.4805,-13 942.3952,-13"/>
<polygon fill="#0000ff" stroke="#0000ff" points="942.7422,-16.5001 952.7422,-13 942.7422,-9.5001 942.7422,-16.5001"/>
</g>
<!-- key1&#45;&gt;key2 -->
<g id="edge10" class="edge">
<title>key1:e&#45;&gt;key2:w</title>
<path fill="none" stroke="#000000" d="M903.7422,-33C921.6068,-33 928.4805,-33 942.3952,-33"/>
<polygon fill="none" stroke="#000000" points="942.7422,-36.5001 952.7422,-33 942.7422,-29.5001 942.7422,-36.5001"/>
</g>
</g>
</svg>
