<?xml version="1.0" encoding="UTF-8" standalone="no"?>
<!DOCTYPE svg PUBLIC "-//W3C//DTD SVG 1.1//EN"
 "http://www.w3.org/Graphics/SVG/1.1/DTD/svg11.dtd">
<!-- Generated by graphviz version 2.40.1 (0)
 -->
<!-- Title: %3 Pages: 1 -->
<svg width="1262pt" height="380pt"
 viewBox="0.00 0.00 1262.04 380.00" xmlns="http://www.w3.org/2000/svg" xmlns:xlink="http://www.w3.org/1999/xlink">
<g id="graph0" class="graph" transform="scale(1 1) rotate(0) translate(4 376)">
<title>%3</title>
<polygon fill="#ffffff" stroke="transparent" points="-4,4 -4,-376 1258.0375,-376 1258.0375,4 -4,4"/>
<!-- SISpecialUnit -->
<g id="node1" class="node">
<title>SISpecialUnit</title>
<g id="a_node1"><a xlink:href="http://emmo.info/emmo/middle/siunits#EMMO_e9ffc696_5228_4ff9_8a60_0f5e05e9931b" xlink:title="SISpecialUnit">
<ellipse fill="#ffffcc" stroke="#000000" stroke-width="2" cx="917.0375" cy="-42" rx="75.2868" ry="18"/>
<text text-anchor="middle" x="917.0375" y="-38.3" font-family="Times,serif" font-size="14.00" fill="#000000">SISpecialUnit</text>
</a>
</g>
</g>
<!-- SIUnitSymbol -->
<g id="node4" class="node">
<title>SIUnitSymbol</title>
<g id="a_node4"><a xlink:href="http://emmo.info/emmo/middle/siunits#EMMO_32129fb5_df25_48fd_a29c_18a2f22a2dd5" xlink:title="SIUnitSymbol">
<ellipse fill="#ffffcc" stroke="#000000" cx="763.0375" cy="-138" rx="76.0865" ry="18"/>
<text text-anchor="middle" x="763.0375" y="-134.3" font-family="Times,serif" font-size="14.00" fill="#000000">SIUnitSymbol</text>
</a>
</g>
</g>
<!-- SISpecialUnit&#45;&gt;SIUnitSymbol -->
<g id="edge9" class="edge">
<title>SISpecialUnit&#45;&gt;SIUnitSymbol</title>
<path fill="none" stroke="#000000" d="M889.8599,-58.9419C864.5372,-74.7274 826.616,-98.3667 798.8362,-115.6839"/>
<polygon fill="none" stroke="#000000" points="796.8366,-112.806 790.202,-121.0663 800.5397,-118.7463 796.8366,-112.806"/>
</g>
<!-- SpecialUnit -->
<g id="node10" class="node">
<title>SpecialUnit</title>
<g id="a_node10"><a xlink:href="http://emmo.info/emmo/middle/metrology#EMMO_3ee80521_3c23_4dd1_935d_9d522614a3e2" xlink:title="SpecialUnit">
<ellipse fill="#ffffcc" stroke="#000000" cx="923.0375" cy="-138" rx="65.7887" ry="18"/>
<text text-anchor="middle" x="923.0375" y="-134.3" font-family="Times,serif" font-size="14.00" fill="#000000">SpecialUnit</text>
</a>
</g>
</g>
<!-- SISpecialUnit&#45;&gt;SpecialUnit -->
<g id="edge8" class="edge">
<title>SISpecialUnit&#45;&gt;SpecialUnit</title>
<path fill="none" stroke="#000000" d="M918.166,-60.0569C919.0321,-73.9138 920.2446,-93.3139 921.2433,-109.2925"/>
<polygon fill="none" stroke="#000000" points="917.7765,-109.9355 921.8936,-119.6977 924.7629,-109.4988 917.7765,-109.9355"/>
</g>
<!-- OffSystemUnit -->
<g id="node2" class="node">
<title>OffSystemUnit</title>
<g id="a_node2"><a xlink:href="http://emmo.info/emmo/middle/metrology#EMMO_591e02fd_8d37_45a6_9d11_bb21cef391a0" xlink:title="OffSystemUnit">
<ellipse fill="#ffffcc" stroke="#000000" cx="298.0375" cy="-282" rx="80.6858" ry="18"/>
<text text-anchor="middle" x="298.0375" y="-278.3" font-family="Times,serif" font-size="14.00" fill="#000000">OffSystemUnit</text>
</a>
</g>
</g>
<!-- MeasurementUnit -->
<g id="node11" class="node">
<title>MeasurementUnit</title>
<g id="a_node11"><a xlink:href="http://emmo.info/emmo/middle/metrology#EMMO_b081b346_7279_46ef_9a3d_2c088fcd79f4" xlink:title="MeasurementUnit">
<ellipse fill="#ffffcc" stroke="#000000" stroke-width="2" cx="503.0375" cy="-354" rx="95.5831" ry="18"/>
<text text-anchor="middle" x="503.0375" y="-350.3" font-family="Times,serif" font-size="14.00" fill="#000000">MeasurementUnit</text>
</a>
</g>
</g>
<!-- OffSystemUnit&#45;&gt;MeasurementUnit -->
<g id="edge14" class="edge">
<title>OffSystemUnit&#45;&gt;MeasurementUnit</title>
<path fill="none" stroke="#000000" d="M341.5127,-297.2693C372.6415,-308.2024 414.7879,-323.005 448.2233,-334.7482"/>
<polygon fill="none" stroke="#000000" points="447.2563,-338.1181 457.8511,-338.1297 449.576,-331.5136 447.2563,-338.1181"/>
</g>
<!-- SINonCoherentDerivedUnit -->
<g id="node3" class="node">
<title>SINonCoherentDerivedUnit</title>
<g id="a_node3"><a xlink:href="http://emmo.info/emmo/middle/siunits#EMMO_60b78cc3_6011_4134_95ab_956f56d4bdc1" xlink:title="SINonCoherentDerivedUnit">
<ellipse fill="#ffffcc" stroke="#000000" cx="141.0375" cy="-138" rx="141.075" ry="18"/>
<text text-anchor="middle" x="141.0375" y="-134.3" font-family="Times,serif" font-size="14.00" fill="#000000">SINonCoherentDerivedUnit</text>
</a>
</g>
</g>
<!-- SINonCoherentUnit -->
<g id="node17" class="node">
<title>SINonCoherentUnit</title>
<g id="a_node17"><a xlink:href="http://emmo.info/emmo/middle/siunits#EMMO_8246541a_f1f6_4d03_8bd7_fc6b76d17375" xlink:title="SINonCoherentUnit">
<ellipse fill="#ffffcc" stroke="#000000" cx="194.0375" cy="-210" rx="104.7816" ry="18"/>
<text text-anchor="middle" x="194.0375" y="-206.3" font-family="Times,serif" font-size="14.00" fill="#000000">SINonCoherentUnit</text>
</a>
</g>
</g>
<!-- SINonCoherentDerivedUnit&#45;&gt;SINonCoherentUnit -->
<g id="edge18" class="edge">
<title>SINonCoherentDerivedUnit&#45;&gt;SINonCoherentUnit</title>
<path fill="none" stroke="#000000" d="M154.4116,-156.1686C160.6099,-164.589 168.0899,-174.7505 174.8737,-183.9662"/>
<polygon fill="none" stroke="#000000" points="172.1043,-186.1081 180.8512,-192.0866 177.7417,-181.9583 172.1043,-186.1081"/>
</g>
<!-- SICoherentUnit -->
<g id="node5" class="node">
<title>SICoherentUnit</title>
<g id="a_node5"><a xlink:href="http://emmo.info/emmo/middle/siunits#EMMO_707c6032_e272_4a20_98b5_d35c4f67be68" xlink:title="SICoherentUnit">
<ellipse fill="#ffffcc" stroke="#000000" cx="438.0375" cy="-210" rx="85.2851" ry="18"/>
<text text-anchor="middle" x="438.0375" y="-206.3" font-family="Times,serif" font-size="14.00" fill="#000000">SICoherentUnit</text>
</a>
</g>
</g>
<!-- SIUnitSymbol&#45;&gt;SICoherentUnit -->
<g id="edge11" class="edge">
<title>SIUnitSymbol&#45;&gt;SICoherentUnit</title>
<path fill="none" stroke="#000000" d="M707.168,-150.3772C651.7529,-162.6538 566.7177,-181.4924 507.0989,-194.7002"/>
<polygon fill="none" stroke="#000000" points="506.0239,-191.3535 497.0176,-196.9336 507.538,-198.1878 506.0239,-191.3535"/>
</g>
<!-- UnitSymbol -->
<g id="node12" class="node">
<title>UnitSymbol</title>
<g id="a_node12"><a xlink:href="http://emmo.info/emmo/middle/metrology#EMMO_216f448e_cdbc_4aeb_a529_7a5fe7fc38bb" xlink:title="UnitSymbol">
<ellipse fill="#ffc880" stroke="#000000" cx="763.0375" cy="-210" rx="65.7887" ry="18"/>
<text text-anchor="middle" x="763.0375" y="-206.3" font-family="Times,serif" font-size="14.00" fill="#000000">UnitSymbol</text>
</a>
</g>
</g>
<!-- SIUnitSymbol&#45;&gt;UnitSymbol -->
<g id="edge10" class="edge">
<title>SIUnitSymbol&#45;&gt;UnitSymbol</title>
<path fill="none" stroke="#000000" d="M763.0375,-156.1686C763.0375,-163.869 763.0375,-173.0257 763.0375,-181.5834"/>
<polygon fill="none" stroke="#000000" points="759.5376,-181.5867 763.0375,-191.5867 766.5376,-181.5868 759.5376,-181.5867"/>
</g>
<!-- SIUnit -->
<g id="node7" class="node">
<title>SIUnit</title>
<g id="a_node7"><a xlink:href="http://emmo.info/emmo/middle/siunits#EMMO_feb03a8a_bbb6_4918_a891_46713ef557f4" xlink:title="SIUnit">
<ellipse fill="#ffffcc" stroke="#000000" cx="438.0375" cy="-282" rx="41.6928" ry="18"/>
<text text-anchor="middle" x="438.0375" y="-278.3" font-family="Times,serif" font-size="14.00" fill="#000000">SIUnit</text>
</a>
</g>
</g>
<!-- SICoherentUnit&#45;&gt;SIUnit -->
<g id="edge7" class="edge">
<title>SICoherentUnit&#45;&gt;SIUnit</title>
<path fill="none" stroke="#000000" d="M438.0375,-228.1686C438.0375,-235.869 438.0375,-245.0257 438.0375,-253.5834"/>
<polygon fill="none" stroke="#000000" points="434.5376,-253.5867 438.0375,-263.5867 441.5376,-253.5868 434.5376,-253.5867"/>
</g>
<!-- UnitOne -->
<g id="node6" class="node">
<title>UnitOne</title>
<g id="a_node6"><a xlink:href="http://emmo.info/emmo/middle/metrology#EMMO_5ebd5e01_0ed3_49a2_a30d_cd05cbe72978" xlink:title="UnitOne">
<ellipse fill="#ffffcc" stroke="#000000" cx="615.0375" cy="-42" rx="50.0912" ry="18"/>
<text text-anchor="middle" x="615.0375" y="-38.3" font-family="Times,serif" font-size="14.00" fill="#000000">UnitOne</text>
</a>
</g>
</g>
<!-- BaseUnit -->
<g id="node16" class="node">
<title>BaseUnit</title>
<g id="a_node16"><a xlink:href="http://emmo.info/emmo/middle/metrology#EMMO_db716151_6b73_45ff_910c_d182fdcbb4f5" xlink:title="BaseUnit">
<ellipse fill="#ffffcc" stroke="#000000" cx="615.0375" cy="-138" rx="53.8905" ry="18"/>
<text text-anchor="middle" x="615.0375" y="-134.3" font-family="Times,serif" font-size="14.00" fill="#000000">BaseUnit</text>
</a>
</g>
</g>
<!-- UnitOne&#45;&gt;BaseUnit -->
<g id="edge4" class="edge">
<title>UnitOne&#45;&gt;BaseUnit</title>
<path fill="none" stroke="#000000" d="M615.0375,-60.0569C615.0375,-73.9138 615.0375,-93.3139 615.0375,-109.2925"/>
<polygon fill="none" stroke="#000000" points="611.5376,-109.6977 615.0375,-119.6977 618.5376,-109.6977 611.5376,-109.6977"/>
</g>
<!-- SIUnit&#45;&gt;MeasurementUnit -->
<g id="edge12" class="edge">
<title>SIUnit&#45;&gt;MeasurementUnit</title>
<path fill="none" stroke="#000000" d="M453.4416,-299.063C461.3805,-307.8569 471.222,-318.7582 480.0402,-328.5261"/>
<polygon fill="none" stroke="#000000" points="477.5379,-330.9774 486.8369,-336.0547 482.7338,-326.2867 477.5379,-330.9774"/>
</g>
<!-- PrefixedUnit -->
<g id="node8" class="node">
<title>PrefixedUnit</title>
<g id="a_node8"><a xlink:href="http://emmo.info/emmo/middle/metrology#EMMO_c6d4a5e0_7e95_44df_a6db_84ee0a8bbc8e" xlink:title="PrefixedUnit">
<ellipse fill="#ffffcc" stroke="#000000" stroke-width="2" cx="568.0375" cy="-282" rx="70.3881" ry="18"/>
<text text-anchor="middle" x="568.0375" y="-278.3" font-family="Times,serif" font-size="14.00" fill="#000000">PrefixedUnit</text>
</a>
</g>
</g>
<!-- PrefixedUnit&#45;&gt;MeasurementUnit -->
<g id="edge1" class="edge">
<title>PrefixedUnit&#45;&gt;MeasurementUnit</title>
<path fill="none" stroke="#000000" d="M551.9701,-299.7978C544.1575,-308.4517 534.6257,-319.01 526.0573,-328.5012"/>
<polygon fill="none" stroke="#000000" points="523.2485,-326.3894 519.1453,-336.1575 528.4443,-331.0801 523.2485,-326.3894"/>
</g>
<!-- PrefixedUnit&#45;&gt;UnitSymbol -->
<g id="edge2" class="edge">
<title>PrefixedUnit&#45;&gt;UnitSymbol</title>
<path fill="none" stroke="#006400" d="M608.1093,-267.2043C638.8568,-255.8513 681.4441,-240.1268 714.1882,-228.0367"/>
<polygon fill="#006400" stroke="#006400" points="715.4077,-231.3174 723.5763,-224.5703 712.983,-224.7507 715.4077,-231.3174"/>
</g>
<!-- SICoherentDerivedUnit -->
<g id="node9" class="node">
<title>SICoherentDerivedUnit</title>
<g id="a_node9"><a xlink:href="http://emmo.info/emmo/middle/siunits#EMMO_1273eb34_de48_43a9_925f_104110469dd2" xlink:title="SICoherentDerivedUnit">
<ellipse fill="#ffffcc" stroke="#000000" cx="422.0375" cy="-138" rx="121.5784" ry="18"/>
<text text-anchor="middle" x="422.0375" y="-134.3" font-family="Times,serif" font-size="14.00" fill="#000000">SICoherentDerivedUnit</text>
</a>
</g>
</g>
<!-- SICoherentDerivedUnit&#45;&gt;SICoherentUnit -->
<g id="edge21" class="edge">
<title>SICoherentDerivedUnit&#45;&gt;SICoherentUnit</title>
<path fill="none" stroke="#000000" d="M426.075,-156.1686C427.7862,-163.869 429.821,-173.0257 431.7227,-181.5834"/>
<polygon fill="none" stroke="#000000" points="428.3596,-182.5841 433.9456,-191.5867 435.1929,-181.0656 428.3596,-182.5841"/>
</g>
<!-- SpecialUnit&#45;&gt;UnitSymbol -->
<g id="edge16" class="edge">
<title>SpecialUnit&#45;&gt;UnitSymbol</title>
<path fill="none" stroke="#000000" d="M888.7135,-153.4458C864.6702,-164.2653 832.3493,-178.8097 806.5057,-190.4393"/>
<polygon fill="none" stroke="#000000" points="804.9877,-187.2843 797.3047,-194.5797 807.8603,-193.6678 804.9877,-187.2843"/>
</g>
<!-- DerivedUnit -->
<g id="node13" class="node">
<title>DerivedUnit</title>
<g id="a_node13"><a xlink:href="http://emmo.info/emmo/middle/metrology#EMMO_08b308d4_31cd_4779_a784_aa92fc730f39" xlink:title="DerivedUnit">
<ellipse fill="#ffffcc" stroke="#000000" cx="918.0375" cy="-210" rx="67.6881" ry="18"/>
<text text-anchor="middle" x="918.0375" y="-206.3" font-family="Times,serif" font-size="14.00" fill="#000000">DerivedUnit</text>
</a>
</g>
</g>
<!-- SpecialUnit&#45;&gt;DerivedUnit -->
<g id="edge15" class="edge">
<title>SpecialUnit&#45;&gt;DerivedUnit</title>
<path fill="none" stroke="#000000" d="M915.8234,-156.1686C914.5382,-163.869 913.6814,-173.0257 913.3958,-181.5834"/>
<polygon fill="none" stroke="#000000" points="909.8959,-181.5674 913.3402,-191.5867 916.8958,-181.6064 909.8959,-181.5674"/>
</g>
<!-- SpecialUnit&#45;&gt;DerivedUnit -->
<g id="edge17" class="edge">
<title>SpecialUnit&#45;&gt;DerivedUnit</title>
<path fill="none" stroke="#ffa500" d="M927.7282,-156.1686C927.9472,-163.9875 927.5159,-173.3077 926.5839,-181.9779"/>
<polygon fill="#ffa500" stroke="#ffa500" points="921.7407,-191.6148 926.5568,-182.1779 928.6768,-192.5584 921.7407,-191.6148"/>
</g>
<!-- NonPrefixedUnit -->
<g id="node15" class="node">
<title>NonPrefixedUnit</title>
<g id="a_node15"><a xlink:href="http://emmo.info/emmo/middle/metrology#EMMO_868ae137_4d25_493e_b270_21ea3d94849e" xlink:title="NonPrefixedUnit">
<ellipse fill="#ffc880" stroke="#000000" cx="763.0375" cy="-282" rx="89.8845" ry="18"/>
<text text-anchor="middle" x="763.0375" y="-278.3" font-family="Times,serif" font-size="14.00" fill="#000000">NonPrefixedUnit</text>
</a>
</g>
</g>
<!-- UnitSymbol&#45;&gt;NonPrefixedUnit -->
<g id="edge13" class="edge">
<title>UnitSymbol&#45;&gt;NonPrefixedUnit</title>
<path fill="none" stroke="#000000" d="M763.0375,-228.1686C763.0375,-235.869 763.0375,-245.0257 763.0375,-253.5834"/>
<polygon fill="none" stroke="#000000" points="759.5376,-253.5867 763.0375,-263.5867 766.5376,-253.5868 759.5376,-253.5867"/>
</g>
<!-- DerivedUnit&#45;&gt;NonPrefixedUnit -->
<g id="edge5" class="edge">
<title>DerivedUnit&#45;&gt;NonPrefixedUnit</title>
<path fill="none" stroke="#000000" d="M884.4048,-225.6229C861.9829,-236.0383 832.2565,-249.8466 807.8354,-261.1906"/>
<polygon fill="none" stroke="#000000" points="806.3566,-258.0183 798.7618,-265.4055 809.3056,-264.3668 806.3566,-258.0183"/>
</g>
<!-- SIBaseUnit -->
<g id="node14" class="node">
<title>SIBaseUnit</title>
<g id="a_node14"><a xlink:href="http://emmo.info/emmo/middle/siunits#EMMO_3a185e6c_9e19_4776_b583_19c978156aa0" xlink:title="SIBaseUnit">
<ellipse fill="#ffffcc" stroke="#000000" stroke-width="2" cx="755.0375" cy="-42" rx="63.8893" ry="18"/>
<text text-anchor="middle" x="755.0375" y="-38.3" font-family="Times,serif" font-size="14.00" fill="#000000">SIBaseUnit</text>
</a>
</g>
</g>
<!-- SIBaseUnit&#45;&gt;SIUnitSymbol -->
<g id="edge20" class="edge">
<title>SIBaseUnit&#45;&gt;SIUnitSymbol</title>
<path fill="none" stroke="#000000" d="M756.5422,-60.0569C757.697,-73.9138 759.3136,-93.3139 760.6452,-109.2925"/>
<polygon fill="none" stroke="#000000" points="757.1938,-110.0229 761.5123,-119.6977 764.1697,-109.4416 757.1938,-110.0229"/>
</g>
<!-- SIBaseUnit&#45;&gt;BaseUnit -->
<g id="edge19" class="edge">
<title>SIBaseUnit&#45;&gt;BaseUnit</title>
<path fill="none" stroke="#000000" d="M730.6513,-58.7219C707.5253,-74.5798 672.6344,-98.505 647.2322,-115.9236"/>
<polygon fill="none" stroke="#000000" points="644.9456,-113.2477 638.6777,-121.7896 648.9044,-119.0208 644.9456,-113.2477"/>
</g>
<!-- NonPrefixedUnit&#45;&gt;MeasurementUnit -->
<g id="edge22" class="edge">
<title>NonPrefixedUnit&#45;&gt;MeasurementUnit</title>
<path fill="none" stroke="#000000" d="M710.1092,-296.6571C668.5601,-308.163 610.5718,-324.2213 566.5258,-336.4186"/>
<polygon fill="none" stroke="#000000" points="565.4878,-333.0743 556.7846,-339.1162 567.356,-339.8204 565.4878,-333.0743"/>
</g>
<!-- BaseUnit&#45;&gt;UnitSymbol -->
<g id="edge6" class="edge">
<title>BaseUnit&#45;&gt;UnitSymbol</title>
<path fill="none" stroke="#000000" d="M645.7032,-152.9184C667.6038,-163.5728 697.3232,-178.0309 721.3715,-189.73"/>
<polygon fill="none" stroke="#000000" points="720.0934,-193.0004 730.6169,-194.2278 723.1557,-186.7058 720.0934,-193.0004"/>
</g>
<!-- SINonCoherentUnit&#45;&gt;SIUnit -->
<g id="edge3" class="edge">
<title>SINonCoherentUnit&#45;&gt;SIUnit</title>
<path fill="none" stroke="#000000" d="M252.521,-225.0686C291.1966,-235.3301 342.902,-249.6156 388.0375,-264 390.9328,-264.9227 393.9108,-265.906 396.9022,-266.9189"/>
<polygon fill="none" stroke="#000000" points="395.823,-270.2491 406.4178,-270.2174 398.1157,-263.6352 395.823,-270.2491"/>
</g>
<!-- key1 -->
<g id="node18" class="node">
<title>key1</title>
<text text-anchor="start" x="1149.0375" y="-66.8" font-family="Times,serif" font-size="14.00" fill="#000000">isA</text>
<text text-anchor="start" x="1114.0375" y="-47.8" font-family="Times,serif" font-size="14.00" fill="#000000">hasSign</text>
<text text-anchor="start" x="1021.0375" y="-28.8" font-family="Times,serif" font-size="14.00" fill="#000000">hasSpatialDirectPart</text>
<text text-anchor="start" x="1119.0375" y="-9.8" font-family="Times,serif" font-size="14.00" fill="#000000">inverse</text>
</g>
<!-- key2 -->
<g id="node19" class="node">
<title>key2</title>
<text text-anchor="start" x="1225.0375" y="-66.8" font-family="Times,serif" font-size="14.00" fill="#000000"> </text>
<text text-anchor="start" x="1225.0375" y="-47.8" font-family="Times,serif" font-size="14.00" fill="#000000"> </text>
<text text-anchor="start" x="1225.0375" y="-28.8" font-family="Times,serif" font-size="14.00" fill="#000000"> </text>
<text text-anchor="start" x="1225.0375" y="-9.8" font-family="Times,serif" font-size="14.00" fill="#000000"> </text>
</g>
<!-- key1&#45;&gt;key2 -->
<g id="edge23" class="edge">
<title>key1:e&#45;&gt;key2:w</title>
<path fill="none" stroke="#000000" d="M1174.0375,-13C1191.9021,-13 1198.7757,-13 1212.6905,-13"/>
<polygon fill="#000000" stroke="#000000" points="1223.0375,-16.5 1213.0375,-13.0001 1223.0375,-9.5 1223.0375,-16.5"/>
</g>
<!-- key1&#45;&gt;key2 -->
<g id="edge24" class="edge">
<title>key1:e&#45;&gt;key2:w</title>
<path fill="none" stroke="#006400" d="M1174.0375,-32C1191.9021,-32 1198.7757,-32 1212.6905,-32"/>
<polygon fill="#006400" stroke="#006400" points="1213.0375,-35.5001 1223.0375,-32 1213.0375,-28.5001 1213.0375,-35.5001"/>
</g>
<!-- key1&#45;&gt;key2 -->
<g id="edge25" class="edge">
<title>key1:e&#45;&gt;key2:w</title>
<path fill="none" stroke="#ffa500" d="M1174.0375,-52C1191.9021,-52 1198.7757,-52 1212.6905,-52"/>
<polygon fill="#ffa500" stroke="#ffa500" points="1213.0375,-55.5001 1223.0375,-52 1213.0375,-48.5001 1213.0375,-55.5001"/>
</g>
<!-- key1&#45;&gt;key2 -->
<g id="edge26" class="edge">
<title>key1:e&#45;&gt;key2:w</title>
<path fill="none" stroke="#000000" d="M1174.0375,-71C1191.9021,-71 1198.7757,-71 1212.6905,-71"/>
<polygon fill="none" stroke="#000000" points="1213.0375,-74.5001 1223.0375,-71 1213.0375,-67.5001 1213.0375,-74.5001"/>
</g>
</g>
</svg>
