<?xml version="1.0" encoding="UTF-8" standalone="no"?>
<!DOCTYPE svg PUBLIC "-//W3C//DTD SVG 1.1//EN"
 "http://www.w3.org/Graphics/SVG/1.1/DTD/svg11.dtd">
<!-- Generated by graphviz version 2.40.1 (0)
 -->
<!-- Title: %3 Pages: 1 -->
<svg width="460pt" height="1124pt"
 viewBox="0.00 0.00 459.57 1124.00" xmlns="http://www.w3.org/2000/svg" xmlns:xlink="http://www.w3.org/1999/xlink">
<g id="graph0" class="graph" transform="scale(1 1) rotate(0) translate(4 1120)">
<title>%3</title>
<polygon fill="#ffffff" stroke="transparent" points="-4,4 -4,-1120 455.5663,-1120 455.5663,4 -4,4"/>
<!-- Deka -->
<g id="node1" class="node">
<title>Deka</title>
<g id="a_node1"><a xlink:href="http://emmo.info/emmo/middle/siunits#EMMO_1d8b370b_c672_4d0c_964e_eaafcbf2f51f" xlink:title="Deka">
<ellipse fill="#ffffcc" stroke="#000000" cx="411.2699" cy="-1044" rx="34.394" ry="18"/>
<text text-anchor="middle" x="411.2699" y="-1040.3" font-family="Times,serif" font-size="14.00" fill="#000000">Deka</text>
</a>
</g>
</g>
<!-- SIMetricPrefix -->
<g id="node19" class="node">
<title>SIMetricPrefix</title>
<g id="a_node19"><a xlink:href="http://emmo.info/emmo/middle/siunits#EMMO_471cb92b_edca_4cf9_bce8_a75084d876b8" xlink:title="SIMetricPrefix">
<ellipse fill="#ffffcc" stroke="#000000" cx="255.0306" cy="-531" rx="79.8859" ry="18"/>
<text text-anchor="middle" x="255.0306" y="-527.3" font-family="Times,serif" font-size="14.00" fill="#000000">SIMetricPrefix</text>
</a>
</g>
</g>
<!-- Deka&#45;&gt;SIMetricPrefix -->
<g id="edge12" class="edge">
<title>Deka&#45;&gt;SIMetricPrefix</title>
<path fill="none" stroke="#000000" d="M386.1896,-1031.3948C380.4648,-1027.4785 374.9142,-1022.6705 370.9735,-1017 317.881,-940.6022 272.3586,-651.0112 258.9966,-559.1429"/>
<polygon fill="none" stroke="#000000" points="262.4524,-558.5848 257.5622,-549.186 255.5239,-559.5829 262.4524,-558.5848"/>
</g>
<!-- Zetta -->
<g id="node2" class="node">
<title>Zetta</title>
<g id="a_node2"><a xlink:href="http://emmo.info/emmo/middle/siunits#EMMO_daa9ee97_4c5f_42e5_918c_44d7523e8958" xlink:title="Zetta">
<ellipse fill="#ffffcc" stroke="#000000" cx="411.2699" cy="-990" rx="35.9954" ry="18"/>
<text text-anchor="middle" x="411.2699" y="-986.3" font-family="Times,serif" font-size="14.00" fill="#000000">Zetta</text>
</a>
</g>
</g>
<!-- Zetta&#45;&gt;SIMetricPrefix -->
<g id="edge10" class="edge">
<title>Zetta&#45;&gt;SIMetricPrefix</title>
<path fill="none" stroke="#000000" d="M385.8804,-977.0295C380.301,-973.1687 374.8952,-968.4778 370.9735,-963 278.0999,-833.2754 259.6204,-633.5258 255.9437,-559.7027"/>
<polygon fill="none" stroke="#000000" points="259.4246,-559.1914 255.4864,-549.3557 252.4315,-559.5005 259.4246,-559.1914"/>
</g>
<!-- Peta -->
<g id="node3" class="node">
<title>Peta</title>
<g id="a_node3"><a xlink:href="http://emmo.info/emmo/middle/siunits#EMMO_43a6b269_da31_4bb6_a537_c97df4fff32a" xlink:title="Peta">
<ellipse fill="#ffffcc" stroke="#000000" cx="411.2699" cy="-936" rx="31.3957" ry="18"/>
<text text-anchor="middle" x="411.2699" y="-932.3" font-family="Times,serif" font-size="14.00" fill="#000000">Peta</text>
</a>
</g>
</g>
<!-- Peta&#45;&gt;SIMetricPrefix -->
<g id="edge7" class="edge">
<title>Peta&#45;&gt;SIMetricPrefix</title>
<path fill="none" stroke="#000000" d="M387.6951,-924.063C381.5361,-919.9975 375.3933,-914.9482 370.9735,-909 288.1753,-797.5706 263.8382,-626.2881 257.2681,-559.2649"/>
<polygon fill="none" stroke="#000000" points="260.7315,-558.7058 256.329,-549.069 253.761,-559.3479 260.7315,-558.7058"/>
</g>
<!-- Deci -->
<g id="node4" class="node">
<title>Deci</title>
<g id="a_node4"><a xlink:href="http://emmo.info/emmo/middle/siunits#EMMO_1181c938_c8f0_4ad6_bc7a_2bfdc0903d29" xlink:title="Deci">
<ellipse fill="#ffffcc" stroke="#000000" cx="411.2699" cy="-882" rx="31.6951" ry="18"/>
<text text-anchor="middle" x="411.2699" y="-878.3" font-family="Times,serif" font-size="14.00" fill="#000000">Deci</text>
</a>
</g>
</g>
<!-- Deci&#45;&gt;SIMetricPrefix -->
<g id="edge2" class="edge">
<title>Deci&#45;&gt;SIMetricPrefix</title>
<path fill="none" stroke="#000000" d="M387.4507,-869.6507C381.434,-865.6335 375.4255,-860.7121 370.9735,-855 298.3668,-761.8438 268.7564,-619.3443 259.0348,-559.2671"/>
<polygon fill="none" stroke="#000000" points="262.4395,-558.3829 257.4452,-549.0391 255.5225,-559.458 262.4395,-558.3829"/>
</g>
<!-- Atto -->
<g id="node5" class="node">
<title>Atto</title>
<g id="a_node5"><a xlink:href="http://emmo.info/emmo/middle/siunits#EMMO_42955b2d_b465_4666_86cc_ea3c2d685753" xlink:title="Atto">
<ellipse fill="#ffffcc" stroke="#000000" cx="411.2699" cy="-828" rx="30.5947" ry="18"/>
<text text-anchor="middle" x="411.2699" y="-824.3" font-family="Times,serif" font-size="14.00" fill="#000000">Atto</text>
</a>
</g>
</g>
<!-- Atto&#45;&gt;SIMetricPrefix -->
<g id="edge13" class="edge">
<title>Atto&#45;&gt;SIMetricPrefix</title>
<path fill="none" stroke="#000000" d="M388.1015,-815.7436C381.949,-811.673 375.7079,-806.701 370.9735,-801 308.4668,-725.7319 274.5428,-611.7024 261.4571,-559.2336"/>
<polygon fill="none" stroke="#000000" points="264.8059,-558.1915 259.0468,-549.2986 258.0033,-559.842 264.8059,-558.1915"/>
</g>
<!-- Yocto -->
<g id="node6" class="node">
<title>Yocto</title>
<g id="a_node6"><a xlink:href="http://emmo.info/emmo/middle/siunits#EMMO_f5769206_9257_4b08_bf7b_dad7868c6afc" xlink:title="Yocto">
<ellipse fill="#ffffcc" stroke="#000000" cx="411.2699" cy="-774" rx="36.2938" ry="18"/>
<text text-anchor="middle" x="411.2699" y="-770.3" font-family="Times,serif" font-size="14.00" fill="#000000">Yocto</text>
</a>
</g>
</g>
<!-- Yocto&#45;&gt;SIMetricPrefix -->
<g id="edge6" class="edge">
<title>Yocto&#45;&gt;SIMetricPrefix</title>
<path fill="none" stroke="#000000" d="M386.7365,-760.3388C381.1311,-756.4988 375.4989,-751.9906 370.9735,-747 318.1916,-688.792 281.2389,-602.2014 264.7354,-558.4385"/>
<polygon fill="none" stroke="#000000" points="268.0053,-557.1896 261.2532,-549.0251 261.4401,-559.6183 268.0053,-557.1896"/>
</g>
<!-- Kilo -->
<g id="node7" class="node">
<title>Kilo</title>
<g id="a_node7"><a xlink:href="http://emmo.info/emmo/middle/siunits#EMMO_74931b1b_c133_4e59_9a75_1bf0e1626201" xlink:title="Kilo">
<ellipse fill="#ffffcc" stroke="#000000" cx="411.2699" cy="-720" rx="28.6953" ry="18"/>
<text text-anchor="middle" x="411.2699" y="-716.3" font-family="Times,serif" font-size="14.00" fill="#000000">Kilo</text>
</a>
</g>
</g>
<!-- Kilo&#45;&gt;SIMetricPrefix -->
<g id="edge11" class="edge">
<title>Kilo&#45;&gt;SIMetricPrefix</title>
<path fill="none" stroke="#000000" d="M390.11,-707.8675C383.5991,-703.6144 376.6565,-698.5103 370.9735,-693 327.9636,-651.2971 290.076,-591.8622 270.0696,-557.7832"/>
<polygon fill="none" stroke="#000000" points="272.9528,-555.7778 264.9116,-548.8793 266.8958,-559.2867 272.9528,-555.7778"/>
</g>
<!-- Tera -->
<g id="node8" class="node">
<title>Tera</title>
<g id="a_node8"><a xlink:href="http://emmo.info/emmo/middle/siunits#EMMO_3a204900_2b33_47d1_b444_815cc4c8cffa" xlink:title="Tera">
<ellipse fill="#ffffcc" stroke="#000000" cx="411.2699" cy="-666" rx="31.6951" ry="18"/>
<text text-anchor="middle" x="411.2699" y="-662.3" font-family="Times,serif" font-size="14.00" fill="#000000">Tera</text>
</a>
</g>
</g>
<!-- Tera&#45;&gt;SIMetricPrefix -->
<g id="edge21" class="edge">
<title>Tera&#45;&gt;SIMetricPrefix</title>
<path fill="none" stroke="#000000" d="M389.9058,-652.6027C383.6573,-648.4418 376.9134,-643.7073 370.9735,-639 337.657,-612.5974 302.3156,-578.7172 279.5337,-556.0074"/>
<polygon fill="none" stroke="#000000" points="281.8489,-553.3723 272.3102,-548.7609 276.8913,-558.3142 281.8489,-553.3723"/>
</g>
<!-- Yotta -->
<g id="node9" class="node">
<title>Yotta</title>
<g id="a_node9"><a xlink:href="http://emmo.info/emmo/middle/siunits#EMMO_e79c62ff_10ad_4ec0_baba_c19ddd4eaa11" xlink:title="Yotta">
<ellipse fill="#ffffcc" stroke="#000000" cx="411.2699" cy="-612" rx="34.394" ry="18"/>
<text text-anchor="middle" x="411.2699" y="-608.3" font-family="Times,serif" font-size="14.00" fill="#000000">Yotta</text>
</a>
</g>
</g>
<!-- Yotta&#45;&gt;SIMetricPrefix -->
<g id="edge8" class="edge">
<title>Yotta&#45;&gt;SIMetricPrefix</title>
<path fill="none" stroke="#000000" d="M386.5133,-599.1653C362.2112,-586.5662 324.7112,-567.1249 295.9689,-552.2239"/>
<polygon fill="none" stroke="#000000" points="297.4614,-549.0553 286.9726,-547.5599 294.2395,-555.2698 297.4614,-549.0553"/>
</g>
<!-- Milli -->
<g id="node10" class="node">
<title>Milli</title>
<g id="a_node10"><a xlink:href="http://emmo.info/emmo/middle/siunits#EMMO_a3a701ed_6f7d_4a10_9aee_dfa1961fc7b7" xlink:title="Milli">
<ellipse fill="#ffffcc" stroke="#000000" cx="411.2699" cy="-558" rx="31.6951" ry="18"/>
<text text-anchor="middle" x="411.2699" y="-554.3" font-family="Times,serif" font-size="14.00" fill="#000000">Milli</text>
</a>
</g>
</g>
<!-- Milli&#45;&gt;SIMetricPrefix -->
<g id="edge1" class="edge">
<title>Milli&#45;&gt;SIMetricPrefix</title>
<path fill="none" stroke="#000000" d="M380.7745,-552.73C365.7944,-550.1413 347.0363,-546.8997 328.6155,-543.7163"/>
<polygon fill="none" stroke="#000000" points="329.1901,-540.2638 318.7402,-542.0098 327.9981,-547.1616 329.1901,-540.2638"/>
</g>
<!-- Giga -->
<g id="node11" class="node">
<title>Giga</title>
<g id="a_node11"><a xlink:href="http://emmo.info/emmo/middle/siunits#EMMO_a8eb4bbb_1bd3_4ad4_b114_2789bcbd2134" xlink:title="Giga">
<ellipse fill="#ffffcc" stroke="#000000" cx="411.2699" cy="-504" rx="32.4942" ry="18"/>
<text text-anchor="middle" x="411.2699" y="-500.3" font-family="Times,serif" font-size="14.00" fill="#000000">Giga</text>
</a>
</g>
</g>
<!-- Giga&#45;&gt;SIMetricPrefix -->
<g id="edge9" class="edge">
<title>Giga&#45;&gt;SIMetricPrefix</title>
<path fill="none" stroke="#000000" d="M380.028,-509.399C365.1508,-511.9699 346.6741,-515.1629 328.5308,-518.2983"/>
<polygon fill="none" stroke="#000000" points="327.7684,-514.8781 318.5104,-520.0299 328.9604,-521.7758 327.7684,-514.8781"/>
</g>
<!-- Centi -->
<g id="node12" class="node">
<title>Centi</title>
<g id="a_node12"><a xlink:href="http://emmo.info/emmo/middle/siunits#EMMO_b55cd09a_e54d_4eb1_81dd_03c29d1b878e" xlink:title="Centi">
<ellipse fill="#ffffcc" stroke="#000000" cx="411.2699" cy="-450" rx="36.2938" ry="18"/>
<text text-anchor="middle" x="411.2699" y="-446.3" font-family="Times,serif" font-size="14.00" fill="#000000">Centi</text>
</a>
</g>
</g>
<!-- Centi&#45;&gt;SIMetricPrefix -->
<g id="edge3" class="edge">
<title>Centi&#45;&gt;SIMetricPrefix</title>
<path fill="none" stroke="#000000" d="M385.8196,-463.1943C361.4758,-475.815 324.3593,-495.0575 295.877,-509.8238"/>
<polygon fill="none" stroke="#000000" points="294.227,-506.7367 286.96,-514.4466 297.4488,-512.9512 294.227,-506.7367"/>
</g>
<!-- Micro -->
<g id="node13" class="node">
<title>Micro</title>
<g id="a_node13"><a xlink:href="http://emmo.info/emmo/middle/siunits#EMMO_9ff3bf8e_2168_406e_8251_1d158fc948ae" xlink:title="Micro">
<ellipse fill="#ffffcc" stroke="#000000" cx="411.2699" cy="-396" rx="38.1938" ry="18"/>
<text text-anchor="middle" x="411.2699" y="-392.3" font-family="Times,serif" font-size="14.00" fill="#000000">Micro</text>
</a>
</g>
</g>
<!-- Micro&#45;&gt;SIMetricPrefix -->
<g id="edge20" class="edge">
<title>Micro&#45;&gt;SIMetricPrefix</title>
<path fill="none" stroke="#000000" d="M388.2287,-410.52C382.4648,-414.3996 376.3854,-418.7111 370.9735,-423 337.657,-449.4026 302.3156,-483.2828 279.5337,-505.9926"/>
<polygon fill="none" stroke="#000000" points="276.8913,-503.6858 272.3102,-513.2391 281.8489,-508.6277 276.8913,-503.6858"/>
</g>
<!-- Nano -->
<g id="node14" class="node">
<title>Nano</title>
<g id="a_node14"><a xlink:href="http://emmo.info/emmo/middle/siunits#EMMO_e1981c25_7c55_4020_aa7a_d2e14ced86d4" xlink:title="Nano">
<ellipse fill="#ffffcc" stroke="#000000" cx="411.2699" cy="-342" rx="35.9954" ry="18"/>
<text text-anchor="middle" x="411.2699" y="-338.3" font-family="Times,serif" font-size="14.00" fill="#000000">Nano</text>
</a>
</g>
</g>
<!-- Nano&#45;&gt;SIMetricPrefix -->
<g id="edge19" class="edge">
<title>Nano&#45;&gt;SIMetricPrefix</title>
<path fill="none" stroke="#000000" d="M387.5989,-355.802C381.847,-359.6954 375.931,-364.1931 370.9735,-369 327.9636,-410.7029 290.076,-470.1378 270.0696,-504.2168"/>
<polygon fill="none" stroke="#000000" points="266.8958,-502.7133 264.9116,-513.1207 272.9528,-506.2222 266.8958,-502.7133"/>
</g>
<!-- Zepto -->
<g id="node15" class="node">
<title>Zepto</title>
<g id="a_node15"><a xlink:href="http://emmo.info/emmo/middle/siunits#EMMO_254472c6_3dbd_4f02_bc43_571389cd281f" xlink:title="Zepto">
<ellipse fill="#ffffcc" stroke="#000000" cx="411.2699" cy="-288" rx="37.8943" ry="18"/>
<text text-anchor="middle" x="411.2699" y="-284.3" font-family="Times,serif" font-size="14.00" fill="#000000">Zepto</text>
</a>
</g>
</g>
<!-- Zepto&#45;&gt;SIMetricPrefix -->
<g id="edge18" class="edge">
<title>Zepto&#45;&gt;SIMetricPrefix</title>
<path fill="none" stroke="#000000" d="M386.316,-301.9505C380.8502,-305.7269 375.3857,-310.1341 370.9735,-315 318.1916,-373.208 281.2389,-459.7986 264.7354,-503.5615"/>
<polygon fill="none" stroke="#000000" points="261.4401,-502.3817 261.2532,-512.9749 268.0053,-504.8104 261.4401,-502.3817"/>
</g>
<!-- Pico -->
<g id="node16" class="node">
<title>Pico</title>
<g id="a_node16"><a xlink:href="http://emmo.info/emmo/middle/siunits#EMMO_068c4e58_2470_4b1c_8454_010dd4906100" xlink:title="Pico">
<ellipse fill="#ffffcc" stroke="#000000" cx="411.2699" cy="-234" rx="30.5947" ry="18"/>
<text text-anchor="middle" x="411.2699" y="-230.3" font-family="Times,serif" font-size="14.00" fill="#000000">Pico</text>
</a>
</g>
</g>
<!-- Pico&#45;&gt;SIMetricPrefix -->
<g id="edge14" class="edge">
<title>Pico&#45;&gt;SIMetricPrefix</title>
<path fill="none" stroke="#000000" d="M388.1015,-246.2564C381.949,-250.327 375.7079,-255.299 370.9735,-261 308.4668,-336.2681 274.5428,-450.2976 261.4571,-502.7664"/>
<polygon fill="none" stroke="#000000" points="258.0033,-502.158 259.0468,-512.7014 264.8059,-503.8085 258.0033,-502.158"/>
</g>
<!-- Mega -->
<g id="node17" class="node">
<title>Mega</title>
<g id="a_node17"><a xlink:href="http://emmo.info/emmo/middle/siunits#EMMO_5eaecadc_4f0d_4a3a_afc7_1fc0b83cc928" xlink:title="Mega">
<ellipse fill="#ffffcc" stroke="#000000" cx="411.2699" cy="-180" rx="36.2938" ry="18"/>
<text text-anchor="middle" x="411.2699" y="-176.3" font-family="Times,serif" font-size="14.00" fill="#000000">Mega</text>
</a>
</g>
</g>
<!-- Mega&#45;&gt;SIMetricPrefix -->
<g id="edge16" class="edge">
<title>Mega&#45;&gt;SIMetricPrefix</title>
<path fill="none" stroke="#000000" d="M386.192,-193.2033C380.6032,-197.0571 375.1149,-201.6864 370.9735,-207 298.3668,-300.1562 268.7564,-442.6557 259.0348,-502.7329"/>
<polygon fill="none" stroke="#000000" points="255.5225,-502.542 257.4452,-512.9609 262.4395,-503.6171 255.5225,-502.542"/>
</g>
<!-- Femto -->
<g id="node18" class="node">
<title>Femto</title>
<g id="a_node18"><a xlink:href="http://emmo.info/emmo/middle/siunits#EMMO_23bfe79a_cade_48f1_9a8c_fd96e6bac8ba" xlink:title="Femto">
<ellipse fill="#ffffcc" stroke="#000000" cx="411.2699" cy="-126" rx="40.0939" ry="18"/>
<text text-anchor="middle" x="411.2699" y="-122.3" font-family="Times,serif" font-size="14.00" fill="#000000">Femto</text>
</a>
</g>
</g>
<!-- Femto&#45;&gt;SIMetricPrefix -->
<g id="edge5" class="edge">
<title>Femto&#45;&gt;SIMetricPrefix</title>
<path fill="none" stroke="#000000" d="M384.7637,-139.9517C379.6252,-143.6318 374.6902,-147.9981 370.9735,-153 288.1753,-264.4294 263.8382,-435.7119 257.2681,-502.7351"/>
<polygon fill="none" stroke="#000000" points="253.761,-502.6521 256.329,-512.931 260.7315,-503.2942 253.761,-502.6521"/>
</g>
<!-- MetricPrefix -->
<g id="node22" class="node">
<title>MetricPrefix</title>
<g id="a_node22"><a xlink:href="http://emmo.info/emmo/middle/metrology#EMMO_7d2afa66_ae9e_4095_a9bf_421d0be401b6" xlink:title="MetricPrefix">
<ellipse fill="#ffffcc" stroke="#000000" stroke-width="2" cx="69.5438" cy="-531" rx="69.5877" ry="18"/>
<text text-anchor="middle" x="69.5438" y="-527.3" font-family="Times,serif" font-size="14.00" fill="#000000">MetricPrefix</text>
</a>
</g>
</g>
<!-- SIMetricPrefix&#45;&gt;MetricPrefix -->
<g id="edge17" class="edge">
<title>SIMetricPrefix&#45;&gt;MetricPrefix</title>
<path fill="none" stroke="#000000" d="M175.0217,-531C166.587,-531 158.0091,-531 149.5743,-531"/>
<polygon fill="none" stroke="#000000" points="149.3758,-527.5001 139.3757,-531 149.3757,-534.5001 149.3758,-527.5001"/>
</g>
<!-- Exa -->
<g id="node20" class="node">
<title>Exa</title>
<g id="a_node20"><a xlink:href="http://emmo.info/emmo/middle/siunits#EMMO_5cf9f86c_86f5_40c4_846d_60371f670e0a" xlink:title="Exa">
<ellipse fill="#ffffcc" stroke="#000000" cx="411.2699" cy="-72" rx="28.6953" ry="18"/>
<text text-anchor="middle" x="411.2699" y="-68.3" font-family="Times,serif" font-size="14.00" fill="#000000">Exa</text>
</a>
</g>
</g>
<!-- Exa&#45;&gt;SIMetricPrefix -->
<g id="edge15" class="edge">
<title>Exa&#45;&gt;SIMetricPrefix</title>
<path fill="none" stroke="#000000" d="M388.3984,-83.2893C381.9562,-87.4418 375.4834,-92.7006 370.9735,-99 278.0999,-228.7246 259.6204,-428.4742 255.9437,-502.2973"/>
<polygon fill="none" stroke="#000000" points="252.4315,-502.4995 255.4864,-512.6443 259.4246,-502.8086 252.4315,-502.4995"/>
</g>
<!-- Hecto -->
<g id="node21" class="node">
<title>Hecto</title>
<g id="a_node21"><a xlink:href="http://emmo.info/emmo/middle/siunits#EMMO_21aaefc1_3f86_4208_b7db_a755f31f0f8c" xlink:title="Hecto">
<ellipse fill="#ffffcc" stroke="#000000" cx="411.2699" cy="-18" rx="38.9931" ry="18"/>
<text text-anchor="middle" x="411.2699" y="-14.3" font-family="Times,serif" font-size="14.00" fill="#000000">Hecto</text>
</a>
</g>
</g>
<!-- Hecto&#45;&gt;SIMetricPrefix -->
<g id="edge4" class="edge">
<title>Hecto&#45;&gt;SIMetricPrefix</title>
<path fill="none" stroke="#000000" d="M384.9363,-31.4792C379.6611,-35.2297 374.6258,-39.7444 370.9735,-45 317.881,-121.3978 272.3586,-410.9888 258.9966,-502.8571"/>
<polygon fill="none" stroke="#000000" points="255.5239,-502.4171 257.5622,-512.814 262.4524,-503.4152 255.5239,-502.4171"/>
</g>
<!-- key1 -->
<g id="node23" class="node">
<title>key1</title>
<text text-anchor="start" x="244.0306" y="-1093.8" font-family="Times,serif" font-size="14.00" fill="#000000">isA</text>
</g>
<!-- key2 -->
<g id="node24" class="node">
<title>key2</title>
<text text-anchor="start" x="409.2699" y="-1093.8" font-family="Times,serif" font-size="14.00" fill="#000000"> </text>
</g>
<!-- key2&#45;&gt;key1 -->
<g id="edge22" class="edge">
<title>key2:w&#45;&gt;key1:e</title>
<path fill="none" stroke="#000000" d="M407.2699,-1097C349.3102,-1097 332.3581,-1097 279.0438,-1097"/>
<polygon fill="none" stroke="#000000" points="279.0306,-1093.5001 269.0306,-1097 279.0305,-1100.5001 279.0306,-1093.5001"/>
</g>
</g>
</svg>
