<?xml version="1.0" encoding="UTF-8" standalone="no"?>
<!DOCTYPE svg PUBLIC "-//W3C//DTD SVG 1.1//EN"
 "http://www.w3.org/Graphics/SVG/1.1/DTD/svg11.dtd">
<!-- Generated by graphviz version 2.40.1 (0)
 -->
<!-- Title: %3 Pages: 1 -->
<svg width="1148pt" height="198pt"
 viewBox="0.00 0.00 1148.29 198.00" xmlns="http://www.w3.org/2000/svg" xmlns:xlink="http://www.w3.org/1999/xlink">
<g id="graph0" class="graph" transform="scale(1 1) rotate(0) translate(4 194)">
<title>%3</title>
<polygon fill="#ffffff" stroke="transparent" points="-4,4 -4,-194 1144.293,-194 1144.293,4 -4,4"/>
<!-- ProcedureUnit -->
<g id="node1" class="node">
<title>ProcedureUnit</title>
<g id="a_node1"><a xlink:href="http://emmo.info/emmo/middle/metrology#EMMO_c9c8f824_9127_4f93_bc21_69fe78a7f6f2" xlink:title="ProcedureUnit">
<ellipse fill="#ffffcc" stroke="#000000" cx="79.293" cy="-23" rx="79.0865" ry="18"/>
<text text-anchor="middle" x="79.293" y="-19.3" font-family="Times,serif" font-size="14.00" fill="#000000">ProcedureUnit</text>
</a>
</g>
</g>
<!-- ReferenceUnit -->
<g id="node8" class="node">
<title>ReferenceUnit</title>
<g id="a_node8"><a xlink:href="http://emmo.info/emmo/middle/metrology#EMMO_18ce5200_00f5_45bb_8c6f_6fb128cd41ae" xlink:title="ReferenceUnit">
<ellipse fill="#ffffcc" stroke="#000000" cx="344.293" cy="-100" rx="78.7863" ry="18"/>
<text text-anchor="middle" x="344.293" y="-96.3" font-family="Times,serif" font-size="14.00" fill="#000000">ReferenceUnit</text>
</a>
</g>
</g>
<!-- ProcedureUnit&#45;&gt;ReferenceUnit -->
<g id="edge3" class="edge">
<title>ProcedureUnit&#45;&gt;ReferenceUnit</title>
<path fill="none" stroke="#000000" d="M128.2069,-37.2127C172.6061,-50.1136 238.1692,-69.164 285.4243,-82.8948"/>
<polygon fill="none" stroke="#000000" points="284.6365,-86.3105 295.2159,-85.7399 286.5897,-79.5886 284.6365,-86.3105"/>
</g>
<!-- StandardUnit -->
<g id="node2" class="node">
<title>StandardUnit</title>
<g id="a_node2"><a xlink:href="http://emmo.info/emmo/middle/metrology#EMMO_acd1a504_ca32_4f30_86ad_0b62cea5bc02" xlink:title="StandardUnit">
<ellipse fill="#ffffcc" stroke="#000000" cx="250.293" cy="-23" rx="74.187" ry="18"/>
<text text-anchor="middle" x="250.293" y="-19.3" font-family="Times,serif" font-size="14.00" fill="#000000">StandardUnit</text>
</a>
</g>
</g>
<!-- StandardUnit&#45;&gt;ReferenceUnit -->
<g id="edge2" class="edge">
<title>StandardUnit&#45;&gt;ReferenceUnit</title>
<path fill="none" stroke="#000000" d="M271.623,-40.4725C284.4828,-51.0066 301.0411,-64.5703 315.1031,-76.0892"/>
<polygon fill="none" stroke="#000000" points="313.0935,-78.9673 323.0473,-82.5967 317.5293,-73.5522 313.0935,-78.9673"/>
</g>
<!-- PhysicsDimension -->
<g id="node3" class="node">
<title>PhysicsDimension</title>
<g id="a_node3"><a xlink:href="http://emmo.info/emmo/middle/metrology#EMMO_9895a1b4_f0a5_4167_ac5e_97db40b8bfcc" xlink:title="PhysicsDimension">
<ellipse fill="#ffffcc" stroke="#000000" stroke-width="2" cx="647.293" cy="-23" rx="95.5831" ry="18"/>
<text text-anchor="middle" x="647.293" y="-19.3" font-family="Times,serif" font-size="14.00" fill="#000000">PhysicsDimension</text>
</a>
</g>
</g>
<!-- MetrologicalSymbol -->
<g id="node4" class="node">
<title>MetrologicalSymbol</title>
<g id="a_node4"><a xlink:href="http://emmo.info/emmo/middle/metrology#EMMO_50a3552e_859a_4ff7_946d_76d537cabce6" xlink:title="MetrologicalSymbol">
<ellipse fill="#ffc880" stroke="#000000" cx="647.293" cy="-100" rx="104.7816" ry="18"/>
<text text-anchor="middle" x="647.293" y="-96.3" font-family="Times,serif" font-size="14.00" fill="#000000">MetrologicalSymbol</text>
</a>
</g>
</g>
<!-- PhysicsDimension&#45;&gt;MetrologicalSymbol -->
<g id="edge6" class="edge">
<title>PhysicsDimension&#45;&gt;MetrologicalSymbol</title>
<path fill="none" stroke="#000000" d="M647.293,-41.2479C647.293,-50.3578 647.293,-61.5826 647.293,-71.7718"/>
<polygon fill="none" stroke="#000000" points="643.7931,-71.883 647.293,-81.8831 650.7931,-71.8831 643.7931,-71.883"/>
</g>
<!-- Metrological -->
<g id="node6" class="node">
<title>Metrological</title>
<g id="a_node6"><a xlink:href="http://emmo.info/emmo/middle/metrology#EMMO_985bec21_989f_4b9e_a4b3_735d88099c3c" xlink:title="Metrological">
<ellipse fill="#ffffcc" stroke="#000000" stroke-width="2" cx="647.293" cy="-172" rx="69.5877" ry="18"/>
<text text-anchor="middle" x="647.293" y="-168.3" font-family="Times,serif" font-size="14.00" fill="#000000">Metrological</text>
</a>
</g>
</g>
<!-- MetrologicalSymbol&#45;&gt;Metrological -->
<g id="edge1" class="edge">
<title>MetrologicalSymbol&#45;&gt;Metrological</title>
<path fill="none" stroke="#000000" d="M647.293,-118.1686C647.293,-125.869 647.293,-135.0257 647.293,-143.5834"/>
<polygon fill="none" stroke="#000000" points="643.7931,-143.5867 647.293,-153.5867 650.7931,-143.5868 643.7931,-143.5867"/>
</g>
<!-- MeasurementUnit -->
<g id="node5" class="node">
<title>MeasurementUnit</title>
<g id="a_node5"><a xlink:href="http://emmo.info/emmo/middle/metrology#EMMO_b081b346_7279_46ef_9a3d_2c088fcd79f4" xlink:title="MeasurementUnit">
<ellipse fill="#ffffcc" stroke="#000000" stroke-width="2" cx="438.293" cy="-23" rx="95.5831" ry="18"/>
<text text-anchor="middle" x="438.293" y="-19.3" font-family="Times,serif" font-size="14.00" fill="#000000">MeasurementUnit</text>
</a>
</g>
</g>
<!-- MeasurementUnit&#45;&gt;ReferenceUnit -->
<g id="edge5" class="edge">
<title>MeasurementUnit&#45;&gt;ReferenceUnit</title>
<path fill="none" stroke="#000000" d="M416.4912,-40.8589C403.706,-51.3318 387.389,-64.698 373.5026,-76.073"/>
<polygon fill="none" stroke="#000000" points="371.1704,-73.459 365.6524,-82.5034 375.6062,-78.8741 371.1704,-73.459"/>
</g>
<!-- Quantity -->
<g id="node7" class="node">
<title>Quantity</title>
<g id="a_node7"><a xlink:href="http://emmo.info/emmo/middle/metrology#EMMO_f658c301_ce93_46cf_9639_4eace2c5d1d5" xlink:title="Quantity">
<ellipse fill="#ffffcc" stroke="#000000" stroke-width="2" cx="822.293" cy="-100" rx="51.9908" ry="18"/>
<text text-anchor="middle" x="822.293" y="-96.3" font-family="Times,serif" font-size="14.00" fill="#000000">Quantity</text>
</a>
</g>
</g>
<!-- Quantity&#45;&gt;Metrological -->
<g id="edge8" class="edge">
<title>Quantity&#45;&gt;Metrological</title>
<path fill="none" stroke="#000000" d="M788.5512,-113.8823C761.6644,-124.9443 723.721,-140.5553 693.9287,-152.8127"/>
<polygon fill="none" stroke="#000000" points="692.4828,-149.6229 684.5666,-156.6646 695.1462,-156.0964 692.4828,-149.6229"/>
</g>
<!-- Quantity&#45;&gt;ReferenceUnit -->
<g id="edge9" class="edge">
<title>Quantity&#45;&gt;ReferenceUnit</title>
<path fill="none" stroke="#006400" stroke-dasharray="5,2" d="M798.153,-83.9595C785.1545,-76.2825 768.4971,-67.9226 752.293,-64 630.342,-34.4788 482.6673,-62.7571 402.6682,-83.1813"/>
<polygon fill="#006400" stroke="#006400" points="401.5785,-79.8482 392.7822,-85.7537 403.3413,-86.6226 401.5785,-79.8482"/>
</g>
<!-- ReferenceUnit&#45;&gt;Metrological -->
<g id="edge7" class="edge">
<title>ReferenceUnit&#45;&gt;Metrological</title>
<path fill="none" stroke="#000000" d="M399.164,-113.0387C451.8234,-125.5518 531.2146,-144.417 585.9413,-157.4214"/>
<polygon fill="none" stroke="#000000" points="585.3227,-160.8718 595.861,-159.7785 586.9411,-154.0614 585.3227,-160.8718"/>
</g>
<!-- MetricPrefix -->
<g id="node9" class="node">
<title>MetricPrefix</title>
<g id="a_node9"><a xlink:href="http://emmo.info/emmo/middle/metrology#EMMO_7d2afa66_ae9e_4095_a9bf_421d0be401b6" xlink:title="MetricPrefix">
<ellipse fill="#ffffcc" stroke="#000000" stroke-width="2" cx="830.293" cy="-23" rx="69.5877" ry="18"/>
<text text-anchor="middle" x="830.293" y="-19.3" font-family="Times,serif" font-size="14.00" fill="#000000">MetricPrefix</text>
</a>
</g>
</g>
<!-- MetricPrefix&#45;&gt;MetrologicalSymbol -->
<g id="edge4" class="edge">
<title>MetricPrefix&#45;&gt;MetrologicalSymbol</title>
<path fill="none" stroke="#000000" d="M793.7,-38.397C765.7202,-50.1699 726.8706,-66.5165 696.2216,-79.4125"/>
<polygon fill="none" stroke="#000000" points="694.8541,-76.1907 686.9942,-83.2951 697.5689,-82.6428 694.8541,-76.1907"/>
</g>
<!-- key1 -->
<g id="node10" class="node">
<title>key1</title>
<text text-anchor="start" x="1035.293" y="-28.8" font-family="Times,serif" font-size="14.00" fill="#000000">isA</text>
<text text-anchor="start" x="928.293" y="-9.8" font-family="Times,serif" font-size="14.00" fill="#000000">hasReferenceUnit</text>
</g>
<!-- key2 -->
<g id="node11" class="node">
<title>key2</title>
<text text-anchor="start" x="1111.293" y="-28.8" font-family="Times,serif" font-size="14.00" fill="#000000"> </text>
<text text-anchor="start" x="1111.293" y="-9.8" font-family="Times,serif" font-size="14.00" fill="#000000"> </text>
</g>
<!-- key1&#45;&gt;key2 -->
<g id="edge10" class="edge">
<title>key1:e&#45;&gt;key2:w</title>
<path fill="none" stroke="#006400" stroke-dasharray="5,2" d="M1060.293,-13C1078.1575,-13 1085.0312,-13 1098.946,-13"/>
<polygon fill="#006400" stroke="#006400" points="1099.293,-16.5001 1109.293,-13 1099.2929,-9.5001 1099.293,-16.5001"/>
</g>
<!-- key1&#45;&gt;key2 -->
<g id="edge11" class="edge">
<title>key1:e&#45;&gt;key2:w</title>
<path fill="none" stroke="#000000" d="M1060.293,-33C1078.1575,-33 1085.0312,-33 1098.946,-33"/>
<polygon fill="none" stroke="#000000" points="1099.293,-36.5001 1109.293,-33 1099.2929,-29.5001 1099.293,-36.5001"/>
</g>
</g>
</svg>
