<?xml version="1.0" encoding="UTF-8" standalone="no"?>
<!DOCTYPE svg PUBLIC "-//W3C//DTD SVG 1.1//EN"
 "http://www.w3.org/Graphics/SVG/1.1/DTD/svg11.dtd">
<!-- Generated by graphviz version 2.40.1 (0)
 -->
<!-- Title: %3 Pages: 1 -->
<svg width="448pt" height="188pt"
 viewBox="0.00 0.00 447.69 188.00" xmlns="http://www.w3.org/2000/svg" xmlns:xlink="http://www.w3.org/1999/xlink">
<g id="graph0" class="graph" transform="scale(1 1) rotate(0) translate(4 184)">
<title>%3</title>
<polygon fill="#ffffff" stroke="transparent" points="-4,4 -4,-184 443.6943,-184 443.6943,4 -4,4"/>
<!-- SIBaseUnit -->
<g id="node1" class="node">
<title>SIBaseUnit</title>
<g id="a_node1"><a xlink:href="http://emmo.info/emmo/middle/siunits#EMMO_3a185e6c_9e19_4776_b583_19c978156aa0" xlink:title="SIBaseUnit">
<ellipse fill="#ffffcc" stroke="#000000" stroke-width="2" cx="63.6943" cy="-18" rx="63.8893" ry="18"/>
<text text-anchor="middle" x="63.6943" y="-14.3" font-family="Times,serif" font-size="14.00" fill="#000000">SIBaseUnit</text>
</a>
</g>
</g>
<!-- SIUnitSymbol -->
<g id="node2" class="node">
<title>SIUnitSymbol</title>
<g id="a_node2"><a xlink:href="http://emmo.info/emmo/middle/siunits#EMMO_32129fb5_df25_48fd_a29c_18a2f22a2dd5" xlink:title="SIUnitSymbol">
<ellipse fill="#ffffcc" stroke="#000000" cx="141.6943" cy="-90" rx="76.0865" ry="18"/>
<text text-anchor="middle" x="141.6943" y="-86.3" font-family="Times,serif" font-size="14.00" fill="#000000">SIUnitSymbol</text>
</a>
</g>
</g>
<!-- SIBaseUnit&#45;&gt;SIUnitSymbol -->
<g id="edge3" class="edge">
<title>SIBaseUnit&#45;&gt;SIUnitSymbol</title>
<path fill="none" stroke="#000000" d="M82.576,-35.4292C92.3717,-44.4714 104.4994,-55.6662 115.2159,-65.5583"/>
<polygon fill="none" stroke="#000000" points="112.9942,-68.2708 122.7163,-72.4818 117.7422,-63.1271 112.9942,-68.2708"/>
</g>
<!-- Object -->
<g id="node4" class="node">
<title>Object</title>
<g id="a_node4"><a xlink:href="http://emmo.info/emmo/top/semiotics#EMMO_6f5af708_f825_4feb_a0d1_a8d813d3022b" xlink:title="Object">
<ellipse fill="#ffffcc" stroke="#000000" stroke-width="2" cx="141.6943" cy="-162" rx="42.4939" ry="18"/>
<text text-anchor="middle" x="141.6943" y="-158.3" font-family="Times,serif" font-size="14.00" fill="#000000">Object</text>
</a>
</g>
</g>
<!-- SIUnitSymbol&#45;&gt;Object -->
<g id="edge1" class="edge">
<title>SIUnitSymbol&#45;&gt;Object</title>
<path fill="none" stroke="#000000" d="M141.6943,-108.1686C141.6943,-115.869 141.6943,-125.0257 141.6943,-133.5834"/>
<polygon fill="none" stroke="#000000" points="138.1944,-133.5867 141.6943,-143.5867 145.1944,-133.5868 138.1944,-133.5867"/>
</g>
<!-- SISpecialUnit -->
<g id="node3" class="node">
<title>SISpecialUnit</title>
<g id="a_node3"><a xlink:href="http://emmo.info/emmo/middle/siunits#EMMO_e9ffc696_5228_4ff9_8a60_0f5e05e9931b" xlink:title="SISpecialUnit">
<ellipse fill="#ffffcc" stroke="#000000" stroke-width="2" cx="220.6943" cy="-18" rx="75.2868" ry="18"/>
<text text-anchor="middle" x="220.6943" y="-14.3" font-family="Times,serif" font-size="14.00" fill="#000000">SISpecialUnit</text>
</a>
</g>
</g>
<!-- SISpecialUnit&#45;&gt;SIUnitSymbol -->
<g id="edge2" class="edge">
<title>SISpecialUnit&#45;&gt;SIUnitSymbol</title>
<path fill="none" stroke="#000000" d="M201.5707,-35.4292C191.6493,-44.4714 179.3662,-55.6662 168.5123,-65.5583"/>
<polygon fill="none" stroke="#000000" points="165.9491,-63.1589 160.9157,-72.4818 170.6643,-68.3325 165.9491,-63.1589"/>
</g>
<!-- key1 -->
<g id="node5" class="node">
<title>key1</title>
<text text-anchor="start" x="329.6943" y="-13.8" font-family="Times,serif" font-size="14.00" fill="#000000">isA</text>
</g>
<!-- key2 -->
<g id="node6" class="node">
<title>key2</title>
<text text-anchor="start" x="410.6943" y="-13.8" font-family="Times,serif" font-size="14.00" fill="#000000"> </text>
</g>
<!-- key1&#45;&gt;key2 -->
<g id="edge4" class="edge">
<title>key1:e&#45;&gt;key2:w</title>
<path fill="none" stroke="#000000" d="M354.6943,-19C374.9443,-19 382.3799,-19 398.6254,-19"/>
<polygon fill="none" stroke="#000000" points="398.6944,-22.5001 408.6943,-19 398.6943,-15.5001 398.6944,-22.5001"/>
</g>
</g>
</svg>
