<?xml version="1.0" encoding="UTF-8" standalone="no"?>
<!DOCTYPE svg PUBLIC "-//W3C//DTD SVG 1.1//EN"
 "http://www.w3.org/Graphics/SVG/1.1/DTD/svg11.dtd">
<!-- Generated by graphviz version 2.40.1 (0)
 -->
<!-- Title: %3 Pages: 1 -->
<svg width="718pt" height="116pt"
 viewBox="0.00 0.00 718.09 116.00" xmlns="http://www.w3.org/2000/svg" xmlns:xlink="http://www.w3.org/1999/xlink">
<g id="graph0" class="graph" transform="scale(1 1) rotate(0) translate(4 112)">
<title>%3</title>
<polygon fill="#ffffff" stroke="transparent" points="-4,4 -4,-112 714.0946,-112 714.0946,4 -4,4"/>
<!-- Perceptual -->
<g id="node1" class="node">
<title>Perceptual</title>
<g id="a_node1"><a xlink:href="http://emmo.info/emmo/middle/perceptual#EMMO_649bf97b_4397_4005_90d9_219755d92e34" xlink:title="Perceptual">
<ellipse fill="#ffffcc" stroke="#000000" stroke-width="2" cx="61.0946" cy="-18" rx="61.1893" ry="18"/>
<text text-anchor="middle" x="61.0946" y="-14.3" font-family="Times,serif" font-size="14.00" fill="#000000">Perceptual</text>
</a>
</g>
</g>
<!-- Perspective -->
<g id="node5" class="node">
<title>Perspective</title>
<g id="a_node5"><a xlink:href="http://emmo.info/emmo/top#EMMO_49267eba_5548_4163_8f36_518d65b583f9" xlink:title="Perspective">
<ellipse fill="#ffffcc" stroke="#000000" stroke-width="2" cx="289.0946" cy="-90" rx="65.7887" ry="18"/>
<text text-anchor="middle" x="289.0946" y="-86.3" font-family="Times,serif" font-size="14.00" fill="#000000">Perspective</text>
</a>
</g>
</g>
<!-- Perceptual&#45;&gt;Perspective -->
<g id="edge2" class="edge">
<title>Perceptual&#45;&gt;Perspective</title>
<path fill="none" stroke="#000000" d="M102.9133,-31.2059C140.4432,-43.0575 195.7033,-60.508 236.2741,-73.3198"/>
<polygon fill="none" stroke="#000000" points="235.402,-76.7147 245.9918,-76.3886 237.5099,-70.0397 235.402,-76.7147"/>
</g>
<!-- Reductionistic -->
<g id="node2" class="node">
<title>Reductionistic</title>
<g id="a_node2"><a xlink:href="http://emmo.info/emmo/middle/reductionistic#EMMO_15db234d_ecaf_4715_9838_4b4ec424fb13" xlink:title="Reductionistic">
<ellipse fill="#ffc880" stroke="#000000" stroke-width="2" cx="218.0946" cy="-18" rx="77.9862" ry="18"/>
<text text-anchor="middle" x="218.0946" y="-14.3" font-family="Times,serif" font-size="14.00" fill="#000000">Reductionistic</text>
</a>
</g>
</g>
<!-- Reductionistic&#45;&gt;Perspective -->
<g id="edge1" class="edge">
<title>Reductionistic&#45;&gt;Perspective</title>
<path fill="none" stroke="#000000" d="M235.6451,-35.7978C244.415,-44.6912 255.1682,-55.5958 264.7243,-65.2865"/>
<polygon fill="none" stroke="#000000" points="262.2323,-67.7441 271.7459,-72.407 267.2165,-62.8291 262.2323,-67.7441"/>
</g>
<!-- Holistic -->
<g id="node3" class="node">
<title>Holistic</title>
<g id="a_node3"><a xlink:href="http://emmo.info/emmo/middle/holistic#EMMO_0277f24a_ea7f_4917_81b7_fb0406c8fc62" xlink:title="Holistic">
<ellipse fill="#ffc880" stroke="#000000" stroke-width="2" cx="361.0946" cy="-18" rx="47.3916" ry="18"/>
<text text-anchor="middle" x="361.0946" y="-14.3" font-family="Times,serif" font-size="14.00" fill="#000000">Holistic</text>
</a>
</g>
</g>
<!-- Holistic&#45;&gt;Perspective -->
<g id="edge4" class="edge">
<title>Holistic&#45;&gt;Perspective</title>
<path fill="none" stroke="#000000" d="M344.0316,-35.063C335.0181,-44.0765 323.7905,-55.3041 313.8388,-65.2557"/>
<polygon fill="none" stroke="#000000" points="311.1315,-63.0133 306.5353,-72.5593 316.0812,-67.9631 311.1315,-63.0133"/>
</g>
<!-- Physicalistic -->
<g id="node4" class="node">
<title>Physicalistic</title>
<g id="a_node4"><a xlink:href="http://emmo.info/emmo/middle/physicalistic#EMMO_98ada9d8_f1c8_4f13_99b5_d890f5354152" xlink:title="Physicalistic">
<ellipse fill="#ffc880" stroke="#000000" stroke-width="2" cx="496.0946" cy="-18" rx="69.5877" ry="18"/>
<text text-anchor="middle" x="496.0946" y="-14.3" font-family="Times,serif" font-size="14.00" fill="#000000">Physicalistic</text>
</a>
</g>
</g>
<!-- Physicalistic&#45;&gt;Perspective -->
<g id="edge3" class="edge">
<title>Physicalistic&#45;&gt;Perspective</title>
<path fill="none" stroke="#000000" d="M454.205,-32.5703C421.0538,-44.1011 374.6438,-60.2437 339.4671,-72.4791"/>
<polygon fill="none" stroke="#000000" points="338.1588,-69.2284 329.8637,-75.8194 340.4585,-75.8399 338.1588,-69.2284"/>
</g>
<!-- key1 -->
<g id="node6" class="node">
<title>key1</title>
<text text-anchor="start" x="600.0946" y="-13.8" font-family="Times,serif" font-size="14.00" fill="#000000">isA</text>
</g>
<!-- key2 -->
<g id="node7" class="node">
<title>key2</title>
<text text-anchor="start" x="681.0946" y="-13.8" font-family="Times,serif" font-size="14.00" fill="#000000"> </text>
</g>
<!-- key1&#45;&gt;key2 -->
<g id="edge5" class="edge">
<title>key1:e&#45;&gt;key2:w</title>
<path fill="none" stroke="#000000" d="M625.0946,-19C645.3446,-19 652.7801,-19 669.0256,-19"/>
<polygon fill="none" stroke="#000000" points="669.0946,-22.5001 679.0946,-19 669.0945,-15.5001 669.0946,-22.5001"/>
</g>
</g>
</svg>
