<?xml version="1.0" encoding="UTF-8" standalone="no"?>
<!DOCTYPE svg PUBLIC "-//W3C//DTD SVG 1.1//EN"
 "http://www.w3.org/Graphics/SVG/1.1/DTD/svg11.dtd">
<!-- Generated by graphviz version 2.40.1 (0)
 -->
<!-- Title: %3 Pages: 1 -->
<svg width="1033pt" height="116pt"
 viewBox="0.00 0.00 1033.29 116.00" xmlns="http://www.w3.org/2000/svg" xmlns:xlink="http://www.w3.org/1999/xlink">
<g id="graph0" class="graph" transform="scale(1 1) rotate(0) translate(4 112)">
<title>%3</title>
<polygon fill="#ffffff" stroke="transparent" points="-4,4 -4,-112 1029.2918,-112 1029.2918,4 -4,4"/>
<!-- PhysicalConstant -->
<g id="node1" class="node">
<title>PhysicalConstant</title>
<g id="a_node1"><a xlink:href="http://emmo.info/emmo/middle/metrology#EMMO_b953f2b1_c8d1_4dd9_b630_d3ef6580c2bb" xlink:title="PhysicalConstant">
<ellipse fill="#ffffcc" stroke="#000000" stroke-width="2" cx="92.2918" cy="-18" rx="92.0841" ry="18"/>
<text text-anchor="middle" x="92.2918" y="-14.3" font-family="Times,serif" font-size="14.00" fill="#000000">PhysicalConstant</text>
</a>
</g>
</g>
<!-- PhysicalQuantity -->
<g id="node5" class="node">
<title>PhysicalQuantity</title>
<g id="a_node5"><a xlink:href="http://emmo.info/emmo/middle/metrology#EMMO_02c0621e_a527_4790_8a0f_2bb51973c819" xlink:title="PhysicalQuantity">
<ellipse fill="#ffffcc" stroke="#000000" stroke-width="2" cx="423.2918" cy="-90" rx="90.9839" ry="18"/>
<text text-anchor="middle" x="423.2918" y="-86.3" font-family="Times,serif" font-size="14.00" fill="#000000">PhysicalQuantity</text>
</a>
</g>
</g>
<!-- PhysicalConstant&#45;&gt;PhysicalQuantity -->
<g id="edge1" class="edge">
<title>PhysicalConstant&#45;&gt;PhysicalQuantity</title>
<path fill="none" stroke="#000000" d="M154.1621,-31.4582C210.3225,-43.6743 293.1225,-61.6852 352.0309,-74.4991"/>
<polygon fill="none" stroke="#000000" points="351.4896,-77.9632 362.005,-76.6687 352.9775,-71.1231 351.4896,-77.9632"/>
</g>
<!-- DerivedQuantity -->
<g id="node2" class="node">
<title>DerivedQuantity</title>
<g id="a_node2"><a xlink:href="http://emmo.info/emmo/middle/metrology#EMMO_71f6ab56_342c_484b_bbe0_de86b7367cb3" xlink:title="DerivedQuantity">
<ellipse fill="#ffffcc" stroke="#000000" stroke-width="2" cx="291.2918" cy="-18" rx="88.2844" ry="18"/>
<text text-anchor="middle" x="291.2918" y="-14.3" font-family="Times,serif" font-size="14.00" fill="#000000">DerivedQuantity</text>
</a>
</g>
</g>
<!-- DerivedQuantity&#45;&gt;PhysicalQuantity -->
<g id="edge2" class="edge">
<title>DerivedQuantity&#45;&gt;PhysicalQuantity</title>
<path fill="none" stroke="#000000" d="M322.2399,-34.8808C340.3962,-44.7842 363.538,-57.407 383.0932,-68.0735"/>
<polygon fill="none" stroke="#000000" points="381.6252,-71.2596 392.0802,-72.9755 384.9772,-65.1143 381.6252,-71.2596"/>
</g>
<!-- InternationalSystemOfQuantity -->
<g id="node3" class="node">
<title>InternationalSystemOfQuantity</title>
<g id="a_node3"><a xlink:href="http://emmo.info/emmo/middle/isq#EMMO_f35cff4d_dc09_44cf_a729_22fb79e3bfb2" xlink:title="InternationalSystemOfQuantity">
<ellipse fill="#ffffcc" stroke="#000000" cx="556.2918" cy="-18" rx="158.6719" ry="18"/>
<text text-anchor="middle" x="556.2918" y="-14.3" font-family="Times,serif" font-size="14.00" fill="#000000">InternationalSystemOfQuantity</text>
</a>
</g>
</g>
<!-- InternationalSystemOfQuantity&#45;&gt;PhysicalQuantity -->
<g id="edge4" class="edge">
<title>InternationalSystemOfQuantity&#45;&gt;PhysicalQuantity</title>
<path fill="none" stroke="#000000" d="M523.4154,-35.7978C505.3527,-45.5761 482.7987,-57.7858 463.6721,-68.14"/>
<polygon fill="none" stroke="#000000" points="462.002,-65.0641 454.8742,-72.9028 465.3345,-71.22 462.002,-65.0641"/>
</g>
<!-- BaseQuantity -->
<g id="node4" class="node">
<title>BaseQuantity</title>
<g id="a_node4"><a xlink:href="http://emmo.info/emmo/middle/metrology#EMMO_acaaa124_3dde_48b6_86e6_6ec6f364f408" xlink:title="BaseQuantity">
<ellipse fill="#ffffcc" stroke="#000000" stroke-width="2" cx="807.2918" cy="-18" rx="74.187" ry="18"/>
<text text-anchor="middle" x="807.2918" y="-14.3" font-family="Times,serif" font-size="14.00" fill="#000000">BaseQuantity</text>
</a>
</g>
</g>
<!-- BaseQuantity&#45;&gt;PhysicalQuantity -->
<g id="edge3" class="edge">
<title>BaseQuantity&#45;&gt;PhysicalQuantity</title>
<path fill="none" stroke="#000000" d="M752.435,-30.1887C743.0579,-32.1886 733.4039,-34.1952 724.2918,-36 649.3055,-50.8524 563.452,-66.0799 502.6766,-76.5622"/>
<polygon fill="none" stroke="#000000" points="502.0273,-73.1224 492.7658,-78.2678 503.2146,-80.0209 502.0273,-73.1224"/>
</g>
<!-- key1 -->
<g id="node6" class="node">
<title>key1</title>
<text text-anchor="start" x="915.2918" y="-13.8" font-family="Times,serif" font-size="14.00" fill="#000000">isA</text>
</g>
<!-- key2 -->
<g id="node7" class="node">
<title>key2</title>
<text text-anchor="start" x="996.2918" y="-13.8" font-family="Times,serif" font-size="14.00" fill="#000000"> </text>
</g>
<!-- key1&#45;&gt;key2 -->
<g id="edge5" class="edge">
<title>key1:e&#45;&gt;key2:w</title>
<path fill="none" stroke="#000000" d="M940.2918,-19C960.5418,-19 967.9774,-19 984.2228,-19"/>
<polygon fill="none" stroke="#000000" points="984.2918,-22.5001 994.2918,-19 984.2918,-15.5001 984.2918,-22.5001"/>
</g>
</g>
</svg>
