<?xml version="1.0" encoding="UTF-8" standalone="no"?>
<!DOCTYPE svg PUBLIC "-//W3C//DTD SVG 1.1//EN"
 "http://www.w3.org/Graphics/SVG/1.1/DTD/svg11.dtd">
<!-- Generated by graphviz version 2.40.1 (0)
 -->
<!-- Title: %3 Pages: 1 -->
<svg width="667pt" height="116pt"
 viewBox="0.00 0.00 666.59 116.00" xmlns="http://www.w3.org/2000/svg" xmlns:xlink="http://www.w3.org/1999/xlink">
<g id="graph0" class="graph" transform="scale(1 1) rotate(0) translate(4 112)">
<title>%3</title>
<polygon fill="#ffffff" stroke="transparent" points="-4,4 -4,-112 662.5928,-112 662.5928,4 -4,4"/>
<!-- SIPrefixedUnit -->
<g id="node1" class="node">
<title>SIPrefixedUnit</title>
<g id="a_node1"><a xlink:href="http://emmo.info/emmo/middle/siunits#EMMO_d41ce84b_4317_41fb_a5d1_6cd281fca106" xlink:title="SIPrefixedUnit">
<ellipse fill="#ffffcc" stroke="#000000" cx="80.5928" cy="-18" rx="80.6858" ry="18"/>
<text text-anchor="middle" x="80.5928" y="-14.3" font-family="Times,serif" font-size="14.00" fill="#000000">SIPrefixedUnit</text>
</a>
</g>
</g>
<!-- PrefixedUnit -->
<g id="node3" class="node">
<title>PrefixedUnit</title>
<g id="a_node3"><a xlink:href="http://emmo.info/emmo/middle/metrology#EMMO_c6d4a5e0_7e95_44df_a6db_84ee0a8bbc8e" xlink:title="PrefixedUnit">
<ellipse fill="#ffffcc" stroke="#000000" stroke-width="2" cx="249.5928" cy="-90" rx="70.3881" ry="18"/>
<text text-anchor="middle" x="249.5928" y="-86.3" font-family="Times,serif" font-size="14.00" fill="#000000">PrefixedUnit</text>
</a>
</g>
</g>
<!-- SIPrefixedUnit&#45;&gt;PrefixedUnit -->
<g id="edge1" class="edge">
<title>SIPrefixedUnit&#45;&gt;PrefixedUnit</title>
<path fill="none" stroke="#000000" d="M118.0994,-33.9791C143.4998,-44.8006 177.2067,-59.161 204.134,-70.6329"/>
<polygon fill="none" stroke="#000000" points="202.7794,-73.8601 213.3511,-74.5597 205.523,-67.4202 202.7794,-73.8601"/>
</g>
<!-- MultipleUnit -->
<g id="node2" class="node">
<title>MultipleUnit</title>
<g id="a_node2"><a xlink:href="http://emmo.info/emmo/middle/metrology#EMMO_62f0d847_3603_45b4_bfc4_dd4511355ff2" xlink:title="MultipleUnit">
<ellipse fill="#ffffcc" stroke="#000000" cx="249.5928" cy="-18" rx="70.3881" ry="18"/>
<text text-anchor="middle" x="249.5928" y="-14.3" font-family="Times,serif" font-size="14.00" fill="#000000">MultipleUnit</text>
</a>
</g>
</g>
<!-- MultipleUnit&#45;&gt;PrefixedUnit -->
<g id="edge2" class="edge">
<title>MultipleUnit&#45;&gt;PrefixedUnit</title>
<path fill="none" stroke="#000000" d="M249.5928,-36.1686C249.5928,-43.869 249.5928,-53.0257 249.5928,-61.5834"/>
<polygon fill="none" stroke="#000000" points="246.0929,-61.5867 249.5928,-71.5867 253.0929,-61.5868 246.0929,-61.5867"/>
</g>
<!-- SubMultipleUnit -->
<g id="node4" class="node">
<title>SubMultipleUnit</title>
<g id="a_node4"><a xlink:href="http://emmo.info/emmo/middle/metrology#EMMO_a2f94f33_71fa_443c_a1fb_d1685fc537ec" xlink:title="SubMultipleUnit">
<ellipse fill="#ffffcc" stroke="#000000" cx="426.5928" cy="-18" rx="88.2844" ry="18"/>
<text text-anchor="middle" x="426.5928" y="-14.3" font-family="Times,serif" font-size="14.00" fill="#000000">SubMultipleUnit</text>
</a>
</g>
</g>
<!-- SubMultipleUnit&#45;&gt;PrefixedUnit -->
<g id="edge3" class="edge">
<title>SubMultipleUnit&#45;&gt;PrefixedUnit</title>
<path fill="none" stroke="#000000" d="M386.8706,-34.1582C360.1563,-45.025 324.8188,-59.3996 296.6872,-70.843"/>
<polygon fill="none" stroke="#000000" points="295.0074,-67.7477 287.0632,-74.7578 297.645,-74.2318 295.0074,-67.7477"/>
</g>
<!-- key1 -->
<g id="node5" class="node">
<title>key1</title>
<text text-anchor="start" x="548.5928" y="-13.8" font-family="Times,serif" font-size="14.00" fill="#000000">isA</text>
</g>
<!-- key2 -->
<g id="node6" class="node">
<title>key2</title>
<text text-anchor="start" x="629.5928" y="-13.8" font-family="Times,serif" font-size="14.00" fill="#000000"> </text>
</g>
<!-- key1&#45;&gt;key2 -->
<g id="edge4" class="edge">
<title>key1:e&#45;&gt;key2:w</title>
<path fill="none" stroke="#000000" d="M573.5928,-19C593.8428,-19 601.2784,-19 617.5239,-19"/>
<polygon fill="none" stroke="#000000" points="617.5929,-22.5001 627.5928,-19 617.5928,-15.5001 617.5929,-22.5001"/>
</g>
</g>
</svg>
