<?xml version="1.0" encoding="UTF-8" standalone="no"?>
<!DOCTYPE svg PUBLIC "-//W3C//DTD SVG 1.1//EN"
 "http://www.w3.org/Graphics/SVG/1.1/DTD/svg11.dtd">
<!-- Generated by graphviz version 2.40.1 (0)
 -->
<!-- Title: %3 Pages: 1 -->
<svg width="698pt" height="270pt"
 viewBox="0.00 0.00 698.49 270.00" xmlns="http://www.w3.org/2000/svg" xmlns:xlink="http://www.w3.org/1999/xlink">
<g id="graph0" class="graph" transform="scale(1 1) rotate(0) translate(4 266)">
<title>%3</title>
<polygon fill="#ffffff" stroke="transparent" points="-4,4 -4,-266 694.4867,-266 694.4867,4 -4,4"/>
<!-- Theorization -->
<g id="node1" class="node">
<title>Theorization</title>
<g id="a_node1"><a xlink:href="http://emmo.info/emmo/middle/models#EMMO_6c739b1a_a774_4416_bb31_1961486fa9ed" xlink:title="Theorization">
<ellipse fill="#ffffcc" stroke="#000000" cx="69.5438" cy="-23" rx="69.5877" ry="18"/>
<text text-anchor="middle" x="69.5438" y="-19.3" font-family="Times,serif" font-size="14.00" fill="#000000">Theorization</text>
</a>
</g>
</g>
<!-- Observation -->
<g id="node6" class="node">
<title>Observation</title>
<g id="a_node6"><a xlink:href="http://emmo.info/emmo/middle/properties#EMMO_10a5fd39_06aa_4648_9e70_f962a9cb2069" xlink:title="Observation">
<ellipse fill="#ffffcc" stroke="#000000" cx="222.5438" cy="-100" rx="67.6881" ry="18"/>
<text text-anchor="middle" x="222.5438" y="-96.3" font-family="Times,serif" font-size="14.00" fill="#000000">Observation</text>
</a>
</g>
</g>
<!-- Theorization&#45;&gt;Observation -->
<g id="edge2" class="edge">
<title>Theorization&#45;&gt;Observation</title>
<path fill="none" stroke="#000000" d="M101.6176,-39.1417C124.8498,-50.8337 156.4475,-66.7358 181.5171,-79.3526"/>
<polygon fill="none" stroke="#000000" points="180.2686,-82.6425 190.7746,-84.0116 183.4155,-76.3897 180.2686,-82.6425"/>
</g>
<!-- Measurement -->
<g id="node2" class="node">
<title>Measurement</title>
<g id="a_node2"><a xlink:href="http://emmo.info/emmo/middle/properties#EMMO_463bcfda_867b_41d9_a967_211d4d437cfb" xlink:title="Measurement">
<ellipse fill="#ffffcc" stroke="#000000" cx="381.5438" cy="-23" rx="75.2868" ry="18"/>
<text text-anchor="middle" x="381.5438" y="-19.3" font-family="Times,serif" font-size="14.00" fill="#000000">Measurement</text>
</a>
</g>
</g>
<!-- Measurement&#45;&gt;Observation -->
<g id="edge8" class="edge">
<title>Measurement&#45;&gt;Observation</title>
<path fill="none" stroke="#000000" d="M347.824,-39.3297C323.4677,-51.1249 290.4148,-67.1317 264.3748,-79.7422"/>
<polygon fill="none" stroke="#000000" points="262.6022,-76.7118 255.1276,-84.2205 265.6533,-83.0119 262.6022,-76.7118"/>
</g>
<!-- PhysicalPhenomenon -->
<g id="node3" class="node">
<title>PhysicalPhenomenon</title>
<g id="a_node3"><a xlink:href="http://emmo.info/emmo/middle/models#EMMO_314d0bd5_67ed_437e_a609_36d46147cea7" xlink:title="PhysicalPhenomenon">
<ellipse fill="#ffffcc" stroke="#000000" cx="402.5438" cy="-172" rx="109.6807" ry="18"/>
<text text-anchor="middle" x="402.5438" y="-168.3" font-family="Times,serif" font-size="14.00" fill="#000000">PhysicalPhenomenon</text>
</a>
</g>
</g>
<!-- Process -->
<g id="node5" class="node">
<title>Process</title>
<g id="a_node5"><a xlink:href="http://emmo.info/emmo/middle/holistic#EMMO_43e9a05d_98af_41b4_92f6_00f79a09bfce" xlink:title="Process">
<ellipse fill="#ffffcc" stroke="#000000" stroke-width="2" cx="402.5438" cy="-244" rx="47.3916" ry="18"/>
<text text-anchor="middle" x="402.5438" y="-240.3" font-family="Times,serif" font-size="14.00" fill="#000000">Process</text>
</a>
</g>
</g>
<!-- PhysicalPhenomenon&#45;&gt;Process -->
<g id="edge7" class="edge">
<title>PhysicalPhenomenon&#45;&gt;Process</title>
<path fill="none" stroke="#000000" d="M402.5438,-190.1686C402.5438,-197.869 402.5438,-207.0257 402.5438,-215.5834"/>
<polygon fill="none" stroke="#000000" points="399.0439,-215.5867 402.5438,-225.5867 406.0439,-215.5868 399.0439,-215.5867"/>
</g>
<!-- Experiment -->
<g id="node4" class="node">
<title>Experiment</title>
<g id="a_node4"><a xlink:href="http://emmo.info/emmo/middle/models#EMMO_22522299_4091_4d1f_82a2_3890492df6db" xlink:title="Experiment">
<ellipse fill="#ffffcc" stroke="#000000" cx="222.5438" cy="-23" rx="65.7887" ry="18"/>
<text text-anchor="middle" x="222.5438" y="-19.3" font-family="Times,serif" font-size="14.00" fill="#000000">Experiment</text>
</a>
</g>
</g>
<!-- Experiment&#45;&gt;PhysicalPhenomenon -->
<g id="edge4" class="edge">
<title>Experiment&#45;&gt;PhysicalPhenomenon</title>
<path fill="none" stroke="#ff0000" d="M245.4167,-39.92C260.8935,-51.5157 281.6904,-67.3853 299.5438,-82 325.661,-103.3794 354.5275,-128.7617 375.0397,-147.1117"/>
<polygon fill="#ff0000" stroke="#ff0000" points="372.9602,-149.9483 382.7407,-154.0217 377.6352,-144.7382 372.9602,-149.9483"/>
</g>
<!-- Experiment&#45;&gt;Observation -->
<g id="edge3" class="edge">
<title>Experiment&#45;&gt;Observation</title>
<path fill="none" stroke="#000000" d="M222.5438,-41.2479C222.5438,-50.3578 222.5438,-61.5826 222.5438,-71.7718"/>
<polygon fill="none" stroke="#000000" points="219.0439,-71.883 222.5438,-81.8831 226.0439,-71.8831 219.0439,-71.883"/>
</g>
<!-- Semiosis -->
<g id="node7" class="node">
<title>Semiosis</title>
<g id="a_node7"><a xlink:href="http://emmo.info/emmo/top/semiotics#EMMO_008fd3b2_4013_451f_8827_52bceab11841" xlink:title="Semiosis">
<ellipse fill="#ffffcc" stroke="#000000" cx="222.5438" cy="-172" rx="51.9908" ry="18"/>
<text text-anchor="middle" x="222.5438" y="-168.3" font-family="Times,serif" font-size="14.00" fill="#000000">Semiosis</text>
</a>
</g>
</g>
<!-- Observation&#45;&gt;Semiosis -->
<g id="edge6" class="edge">
<title>Observation&#45;&gt;Semiosis</title>
<path fill="none" stroke="#000000" d="M222.5438,-118.1686C222.5438,-125.869 222.5438,-135.0257 222.5438,-143.5834"/>
<polygon fill="none" stroke="#000000" points="219.0439,-143.5867 222.5438,-153.5867 226.0439,-143.5868 219.0439,-143.5867"/>
</g>
<!-- Semiosis&#45;&gt;Process -->
<g id="edge1" class="edge">
<title>Semiosis&#45;&gt;Process</title>
<path fill="none" stroke="#000000" d="M256.8241,-185.7121C286.22,-197.4705 328.6907,-214.4587 360.2043,-227.0642"/>
<polygon fill="none" stroke="#000000" points="359.0213,-230.3606 369.606,-230.8249 361.6211,-223.8612 359.0213,-230.3606"/>
</g>
<!-- Manufacturing -->
<g id="node8" class="node">
<title>Manufacturing</title>
<g id="a_node8"><a xlink:href="http://emmo.info/emmo/middle/manufacturing#EMMO_a4d66059_5dd3_4b90_b4cb_10960559441b" xlink:title="Manufacturing">
<ellipse fill="#ffffcc" stroke="#000000" cx="610.5438" cy="-172" rx="79.8859" ry="18"/>
<text text-anchor="middle" x="610.5438" y="-168.3" font-family="Times,serif" font-size="14.00" fill="#000000">Manufacturing</text>
</a>
</g>
</g>
<!-- Manufacturing&#45;&gt;Process -->
<g id="edge5" class="edge">
<title>Manufacturing&#45;&gt;Process</title>
<path fill="none" stroke="#000000" d="M566.9402,-187.0936C531.8782,-199.2304 482.8007,-216.2188 447.4082,-228.47"/>
<polygon fill="none" stroke="#000000" points="446.1166,-225.2133 437.8116,-231.7919 448.4064,-231.8282 446.1166,-225.2133"/>
</g>
<!-- key1 -->
<g id="node9" class="node">
<title>key1</title>
<text text-anchor="start" x="567.5438" y="-28.8" font-family="Times,serif" font-size="14.00" fill="#000000">isA</text>
<text text-anchor="start" x="485.5438" y="-9.8" font-family="Times,serif" font-size="14.00" fill="#000000">hasParticipant</text>
</g>
<!-- key2 -->
<g id="node10" class="node">
<title>key2</title>
<text text-anchor="start" x="643.5438" y="-28.8" font-family="Times,serif" font-size="14.00" fill="#000000"> </text>
<text text-anchor="start" x="643.5438" y="-9.8" font-family="Times,serif" font-size="14.00" fill="#000000"> </text>
</g>
<!-- key1&#45;&gt;key2 -->
<g id="edge9" class="edge">
<title>key1:e&#45;&gt;key2:w</title>
<path fill="none" stroke="#ff0000" d="M592.5438,-13C610.4084,-13 617.2821,-13 631.1968,-13"/>
<polygon fill="#ff0000" stroke="#ff0000" points="631.5439,-16.5001 641.5438,-13 631.5438,-9.5001 631.5439,-16.5001"/>
</g>
<!-- key1&#45;&gt;key2 -->
<g id="edge10" class="edge">
<title>key1:e&#45;&gt;key2:w</title>
<path fill="none" stroke="#000000" d="M592.5438,-33C610.4084,-33 617.2821,-33 631.1968,-33"/>
<polygon fill="none" stroke="#000000" points="631.5439,-36.5001 641.5438,-33 631.5438,-29.5001 631.5439,-36.5001"/>
</g>
</g>
</svg>
