<?xml version="1.0" encoding="UTF-8" standalone="no"?>
<!DOCTYPE svg PUBLIC "-//W3C//DTD SVG 1.1//EN"
 "http://www.w3.org/Graphics/SVG/1.1/DTD/svg11.dtd">
<!-- Generated by graphviz version 2.40.1 (0)
 -->
<!-- Title: %3 Pages: 1 -->
<svg width="793pt" height="270pt"
 viewBox="0.00 0.00 793.30 270.00" xmlns="http://www.w3.org/2000/svg" xmlns:xlink="http://www.w3.org/1999/xlink">
<g id="graph0" class="graph" transform="scale(1 1) rotate(0) translate(4 266)">
<title>%3</title>
<polygon fill="#ffffff" stroke="transparent" points="-4,4 -4,-266 789.2964,-266 789.2964,4 -4,4"/>
<!-- Existent -->
<g id="node1" class="node">
<title>Existent</title>
<g id="a_node1"><a xlink:href="http://emmo.info/emmo/middle/reductionistic#EMMO_52211e5e_d767_4812_845e_eb6b402c476a" xlink:title="Existent">
<ellipse fill="#ffffcc" stroke="#000000" cx="276.2964" cy="-172" rx="50.0912" ry="18"/>
<text text-anchor="middle" x="276.2964" y="-168.3" font-family="Times,serif" font-size="14.00" fill="#000000">Existent</text>
</a>
</g>
</g>
<!-- Reductionistic -->
<g id="node8" class="node">
<title>Reductionistic</title>
<g id="a_node8"><a xlink:href="http://emmo.info/emmo/middle/reductionistic#EMMO_15db234d_ecaf_4715_9838_4b4ec424fb13" xlink:title="Reductionistic">
<ellipse fill="#ffc880" stroke="#000000" stroke-width="2" cx="328.2964" cy="-244" rx="77.9862" ry="18"/>
<text text-anchor="middle" x="328.2964" y="-240.3" font-family="Times,serif" font-size="14.00" fill="#000000">Reductionistic</text>
</a>
</g>
</g>
<!-- Existent&#45;&gt;Reductionistic -->
<g id="edge3" class="edge">
<title>Existent&#45;&gt;Reductionistic</title>
<path fill="none" stroke="#000000" d="M288.8842,-189.4292C295.0516,-197.9688 302.6056,-208.4281 309.4443,-217.8971"/>
<polygon fill="none" stroke="#000000" points="306.771,-220.1735 315.4633,-226.2311 312.4458,-216.0751 306.771,-220.1735"/>
</g>
<!-- State -->
<g id="node9" class="node">
<title>State</title>
<g id="a_node9"><a xlink:href="http://emmo.info/emmo/middle/reductionistic#EMMO_36c79456_e29c_400d_8bd3_0eedddb82652" xlink:title="State">
<ellipse fill="#ffffcc" stroke="#000000" cx="380.2964" cy="-172" rx="35.9954" ry="18"/>
<text text-anchor="middle" x="380.2964" y="-168.3" font-family="Times,serif" font-size="14.00" fill="#000000">State</text>
</a>
</g>
</g>
<!-- Existent&#45;&gt;State -->
<g id="edge4" class="edge">
<title>Existent&#45;&gt;State</title>
<path fill="none" stroke="#ff00ff" stroke-dasharray="5,2" d="M312.8589,-184.3102C322.4391,-185.7869 332.0192,-185.889 341.5993,-184.6165"/>
<polygon fill="#ff00ff" stroke="#ff00ff" points="342.3746,-188.0329 351.5828,-182.7927 341.1166,-181.1468 342.3746,-188.0329"/>
</g>
<!-- Existent&#45;&gt;State -->
<g id="edge5" class="edge">
<title>Existent&#45;&gt;State</title>
<path fill="none" stroke="#ff00ff" stroke-dasharray="5,2" d="M312.8589,-159.6898C322.4391,-158.2131 332.0192,-158.111 341.5993,-159.3835"/>
<polygon fill="#ff00ff" stroke="#ff00ff" points="341.1166,-162.8532 351.5828,-161.2073 342.3746,-155.9671 341.1166,-162.8532"/>
</g>
<!-- Formula -->
<g id="node2" class="node">
<title>Formula</title>
<g id="a_node2"><a xlink:href="http://emmo.info/emmo/middle/math#EMMO_88470739_03d3_4c47_a03e_b30a1288d50c" xlink:title="Formula">
<ellipse fill="#ffffcc" stroke="#000000" stroke-width="2" cx="315.2964" cy="-23" rx="49.2915" ry="18"/>
<text text-anchor="middle" x="315.2964" y="-19.3" font-family="Times,serif" font-size="14.00" fill="#000000">Formula</text>
</a>
</g>
</g>
<!-- SymbolicComposition -->
<g id="node5" class="node">
<title>SymbolicComposition</title>
<g id="a_node5"><a xlink:href="http://emmo.info/emmo/middle/perceptual#EMMO_89a0c87c_0804_4013_937a_6fe234d9499c" xlink:title="SymbolicComposition">
<ellipse fill="#ffffcc" stroke="#000000" cx="380.2964" cy="-100" rx="112.3801" ry="18"/>
<text text-anchor="middle" x="380.2964" y="-96.3" font-family="Times,serif" font-size="14.00" fill="#000000">SymbolicComposition</text>
</a>
</g>
</g>
<!-- Formula&#45;&gt;SymbolicComposition -->
<g id="edge8" class="edge">
<title>Formula&#45;&gt;SymbolicComposition</title>
<path fill="none" stroke="#000000" d="M330.0459,-40.4725C338.4853,-50.47 349.2283,-63.1962 358.6131,-74.3136"/>
<polygon fill="none" stroke="#000000" points="356.0292,-76.6786 365.1542,-82.0623 361.3781,-72.1632 356.0292,-76.6786"/>
</g>
<!-- String -->
<g id="node3" class="node">
<title>String</title>
<g id="a_node3"><a xlink:href="http://emmo.info/emmo/middle/perceptual#EMMO_50ea1ec5_f157_41b0_b46b_a9032f17ca10" xlink:title="String">
<ellipse fill="#ffffcc" stroke="#000000" cx="40.2964" cy="-100" rx="40.0939" ry="18"/>
<text text-anchor="middle" x="40.2964" y="-96.3" font-family="Times,serif" font-size="14.00" fill="#000000">String</text>
</a>
</g>
</g>
<!-- String&#45;&gt;State -->
<g id="edge6" class="edge">
<title>String&#45;&gt;State</title>
<path fill="none" stroke="#000000" d="M70.6703,-112.0251C77.0794,-114.2533 83.8533,-116.3841 90.2964,-118 197.0485,-144.7727 229.0285,-125.3659 335.2964,-154 337.9471,-154.7142 340.653,-155.5387 343.357,-156.4338"/>
<polygon fill="none" stroke="#000000" points="342.4443,-159.8249 353.0387,-159.9134 344.8118,-153.2375 342.4443,-159.8249"/>
</g>
<!-- MaterialState -->
<g id="node4" class="node">
<title>MaterialState</title>
<g id="a_node4"><a xlink:href="http://emmo.info/emmo/middle/materials#EMMO_20fff605_465f_4034_8696_e53e90ec83f4" xlink:title="MaterialState">
<ellipse fill="#ffc880" stroke="#000000" stroke-width="2" cx="174.2964" cy="-100" rx="75.2868" ry="18"/>
<text text-anchor="middle" x="174.2964" y="-96.3" font-family="Times,serif" font-size="14.00" fill="#000000">MaterialState</text>
</a>
</g>
</g>
<!-- MaterialState&#45;&gt;State -->
<g id="edge7" class="edge">
<title>MaterialState&#45;&gt;State</title>
<path fill="none" stroke="#000000" d="M219.645,-114.4474C252.0351,-124.9517 296.5536,-139.7673 335.2964,-154 337.8016,-154.9203 340.3769,-155.8889 342.9663,-156.8797"/>
<polygon fill="none" stroke="#000000" points="341.7175,-160.1493 352.3059,-160.518 344.2585,-153.6268 341.7175,-160.1493"/>
</g>
<!-- SymbolicComposition&#45;&gt;State -->
<g id="edge10" class="edge">
<title>SymbolicComposition&#45;&gt;State</title>
<path fill="none" stroke="#000000" d="M380.2964,-118.1686C380.2964,-125.869 380.2964,-135.0257 380.2964,-143.5834"/>
<polygon fill="none" stroke="#000000" points="376.7965,-143.5867 380.2964,-153.5867 383.7965,-143.5868 376.7965,-143.5867"/>
</g>
<!-- Quantity -->
<g id="node6" class="node">
<title>Quantity</title>
<g id="a_node6"><a xlink:href="http://emmo.info/emmo/middle/metrology#EMMO_f658c301_ce93_46cf_9639_4eace2c5d1d5" xlink:title="Quantity">
<ellipse fill="#ffffcc" stroke="#000000" stroke-width="2" cx="562.2964" cy="-100" rx="51.9908" ry="18"/>
<text text-anchor="middle" x="562.2964" y="-96.3" font-family="Times,serif" font-size="14.00" fill="#000000">Quantity</text>
</a>
</g>
</g>
<!-- Quantity&#45;&gt;State -->
<g id="edge11" class="edge">
<title>Quantity&#45;&gt;State</title>
<path fill="none" stroke="#000000" d="M527.6352,-113.7121C496.3238,-126.0991 450.341,-144.29 418.0949,-157.0468"/>
<polygon fill="none" stroke="#000000" points="416.5712,-153.8855 408.5599,-160.8188 419.1463,-160.3947 416.5712,-153.8855"/>
</g>
<!-- PrefixedUnit -->
<g id="node7" class="node">
<title>PrefixedUnit</title>
<g id="a_node7"><a xlink:href="http://emmo.info/emmo/middle/metrology#EMMO_c6d4a5e0_7e95_44df_a6db_84ee0a8bbc8e" xlink:title="PrefixedUnit">
<ellipse fill="#ffffcc" stroke="#000000" stroke-width="2" cx="702.2964" cy="-100" rx="70.3881" ry="18"/>
<text text-anchor="middle" x="702.2964" y="-96.3" font-family="Times,serif" font-size="14.00" fill="#000000">PrefixedUnit</text>
</a>
</g>
</g>
<!-- PrefixedUnit&#45;&gt;State -->
<g id="edge1" class="edge">
<title>PrefixedUnit&#45;&gt;State</title>
<path fill="none" stroke="#000000" d="M649.6121,-112.0453C640.826,-114.0422 631.8051,-116.0853 623.2964,-118 553.2313,-133.767 471.7344,-151.8187 423.1716,-162.5449"/>
<polygon fill="none" stroke="#000000" points="422.3348,-159.1453 413.3247,-164.7192 423.8441,-165.9807 422.3348,-159.1453"/>
</g>
<!-- State&#45;&gt;Reductionistic -->
<g id="edge9" class="edge">
<title>State&#45;&gt;Reductionistic</title>
<path fill="none" stroke="#000000" d="M367.9732,-189.063C361.7478,-197.6827 354.06,-208.3273 347.1143,-217.9445"/>
<polygon fill="none" stroke="#000000" points="344.2745,-215.8987 341.2569,-226.0547 349.9492,-219.9972 344.2745,-215.8987"/>
</g>
<!-- Expression -->
<g id="node10" class="node">
<title>Expression</title>
<g id="a_node10"><a xlink:href="http://emmo.info/emmo/middle/math#EMMO_f9bc8b52_85e9_4b53_b969_dd7724d5b8e4" xlink:title="Expression">
<ellipse fill="#ffffcc" stroke="#000000" stroke-width="2" cx="445.2964" cy="-23" rx="62.2891" ry="18"/>
<text text-anchor="middle" x="445.2964" y="-19.3" font-family="Times,serif" font-size="14.00" fill="#000000">Expression</text>
</a>
</g>
</g>
<!-- Expression&#45;&gt;SymbolicComposition -->
<g id="edge2" class="edge">
<title>Expression&#45;&gt;SymbolicComposition</title>
<path fill="none" stroke="#000000" d="M430.2207,-40.8589C421.8311,-50.7973 411.2422,-63.3412 401.9774,-74.3164"/>
<polygon fill="none" stroke="#000000" points="399.2916,-72.0721 395.5155,-81.9712 404.6406,-76.5875 399.2916,-72.0721"/>
</g>
<!-- key1 -->
<g id="node11" class="node">
<title>key1</title>
<text text-anchor="start" x="680.2964" y="-28.8" font-family="Times,serif" font-size="14.00" fill="#000000">isA</text>
<text text-anchor="start" x="535.2964" y="-9.8" font-family="Times,serif" font-size="14.00" fill="#000000">hasTemporalDirectPart</text>
</g>
<!-- key2 -->
<g id="node12" class="node">
<title>key2</title>
<text text-anchor="start" x="756.2964" y="-28.8" font-family="Times,serif" font-size="14.00" fill="#000000"> </text>
<text text-anchor="start" x="756.2964" y="-9.8" font-family="Times,serif" font-size="14.00" fill="#000000"> </text>
</g>
<!-- key1&#45;&gt;key2 -->
<g id="edge12" class="edge">
<title>key1:e&#45;&gt;key2:w</title>
<path fill="none" stroke="#ff00ff" stroke-dasharray="5,2" d="M705.2964,-13C723.161,-13 730.0347,-13 743.9494,-13"/>
<polygon fill="#ff00ff" stroke="#ff00ff" points="744.2965,-16.5001 754.2964,-13 744.2964,-9.5001 744.2965,-16.5001"/>
</g>
<!-- key1&#45;&gt;key2 -->
<g id="edge13" class="edge">
<title>key1:e&#45;&gt;key2:w</title>
<path fill="none" stroke="#000000" d="M705.2964,-33C723.161,-33 730.0347,-33 743.9494,-33"/>
<polygon fill="none" stroke="#000000" points="744.2965,-36.5001 754.2964,-33 744.2964,-29.5001 744.2965,-36.5001"/>
</g>
</g>
</svg>
