<?xml version="1.0" encoding="UTF-8" standalone="no"?>
<!DOCTYPE svg PUBLIC "-//W3C//DTD SVG 1.1//EN"
 "http://www.w3.org/Graphics/SVG/1.1/DTD/svg11.dtd">
<!-- Generated by graphviz version 2.40.1 (0)
 -->
<!-- Title: %3 Pages: 1 -->
<svg width="464pt" height="116pt"
 viewBox="0.00 0.00 463.85 116.00" xmlns="http://www.w3.org/2000/svg" xmlns:xlink="http://www.w3.org/1999/xlink">
<g id="graph0" class="graph" transform="scale(1 1) rotate(0) translate(4 112)">
<title>%3</title>
<polygon fill="#ffffff" stroke="transparent" points="-4,4 -4,-112 459.8472,-112 459.8472,4 -4,4"/>
<!-- Sign -->
<g id="node1" class="node">
<title>Sign</title>
<g id="a_node1"><a xlink:href="http://emmo.info/emmo/top/semiotics#EMMO_b21a56ed_f969_4612_a6ec_cb7766f7f31d" xlink:title="Sign">
<ellipse fill="#ffc880" stroke="#000000" stroke-width="2" cx="31.8472" cy="-18" rx="31.6951" ry="18"/>
<text text-anchor="middle" x="31.8472" y="-14.3" font-family="Times,serif" font-size="14.00" fill="#000000">Sign</text>
</a>
</g>
</g>
<!-- Semiotic -->
<g id="node3" class="node">
<title>Semiotic</title>
<g id="a_node3"><a xlink:href="http://emmo.info/emmo/top/semiotics#EMMO_b803f122_4acb_4064_9d71_c1e5fd091fc9" xlink:title="Semiotic">
<ellipse fill="#ffc880" stroke="#000000" stroke-width="2" cx="145.8472" cy="-90" rx="51.9908" ry="18"/>
<text text-anchor="middle" x="145.8472" y="-86.3" font-family="Times,serif" font-size="14.00" fill="#000000">Semiotic</text>
</a>
</g>
</g>
<!-- Sign&#45;&gt;Semiotic -->
<g id="edge2" class="edge">
<title>Sign&#45;&gt;Semiotic</title>
<path fill="none" stroke="#000000" d="M53.2897,-31.5426C69.771,-41.9519 92.8559,-56.5318 111.8476,-68.5266"/>
<polygon fill="none" stroke="#000000" points="110.1964,-71.6233 120.5203,-74.0041 113.9344,-65.7049 110.1964,-71.6233"/>
</g>
<!-- Interpreter -->
<g id="node2" class="node">
<title>Interpreter</title>
<g id="a_node2"><a xlink:href="http://emmo.info/emmo/top/semiotics#EMMO_0527413c_b286_4e9c_b2d0_03fb2a038dee" xlink:title="Interpreter">
<ellipse fill="#ffffcc" stroke="#000000" stroke-width="2" cx="145.8472" cy="-18" rx="63.8893" ry="18"/>
<text text-anchor="middle" x="145.8472" y="-14.3" font-family="Times,serif" font-size="14.00" fill="#000000">Interpreter</text>
</a>
</g>
</g>
<!-- Interpreter&#45;&gt;Semiotic -->
<g id="edge1" class="edge">
<title>Interpreter&#45;&gt;Semiotic</title>
<path fill="none" stroke="#000000" d="M145.8472,-36.1686C145.8472,-43.869 145.8472,-53.0257 145.8472,-61.5834"/>
<polygon fill="none" stroke="#000000" points="142.3473,-61.5867 145.8472,-71.5867 149.3473,-61.5868 142.3473,-61.5867"/>
</g>
<!-- Object -->
<g id="node4" class="node">
<title>Object</title>
<g id="a_node4"><a xlink:href="http://emmo.info/emmo/top/semiotics#EMMO_6f5af708_f825_4feb_a0d1_a8d813d3022b" xlink:title="Object">
<ellipse fill="#ffffcc" stroke="#000000" stroke-width="2" cx="269.8472" cy="-18" rx="42.4939" ry="18"/>
<text text-anchor="middle" x="269.8472" y="-14.3" font-family="Times,serif" font-size="14.00" fill="#000000">Object</text>
</a>
</g>
</g>
<!-- Object&#45;&gt;Semiotic -->
<g id="edge3" class="edge">
<title>Object&#45;&gt;Semiotic</title>
<path fill="none" stroke="#000000" d="M244.7539,-32.5703C226.5069,-43.1653 201.5541,-57.654 181.2774,-69.4276"/>
<polygon fill="none" stroke="#000000" points="179.5101,-66.4065 172.6197,-74.4546 183.0251,-72.46 179.5101,-66.4065"/>
</g>
<!-- key1 -->
<g id="node5" class="node">
<title>key1</title>
<text text-anchor="start" x="345.8472" y="-13.8" font-family="Times,serif" font-size="14.00" fill="#000000">isA</text>
</g>
<!-- key2 -->
<g id="node6" class="node">
<title>key2</title>
<text text-anchor="start" x="426.8472" y="-13.8" font-family="Times,serif" font-size="14.00" fill="#000000"> </text>
</g>
<!-- key1&#45;&gt;key2 -->
<g id="edge4" class="edge">
<title>key1:e&#45;&gt;key2:w</title>
<path fill="none" stroke="#000000" d="M370.8472,-19C391.0972,-19 398.5327,-19 414.7782,-19"/>
<polygon fill="none" stroke="#000000" points="414.8472,-22.5001 424.8472,-19 414.8471,-15.5001 414.8472,-22.5001"/>
</g>
</g>
</svg>
