<?xml version="1.0" encoding="UTF-8" standalone="no"?>
<!DOCTYPE svg PUBLIC "-//W3C//DTD SVG 1.1//EN"
 "http://www.w3.org/Graphics/SVG/1.1/DTD/svg11.dtd">
<!-- Generated by graphviz version 2.40.1 (0)
 -->
<!-- Title: %3 Pages: 1 -->
<svg width="874pt" height="116pt"
 viewBox="0.00 0.00 874.30 116.00" xmlns="http://www.w3.org/2000/svg" xmlns:xlink="http://www.w3.org/1999/xlink">
<g id="graph0" class="graph" transform="scale(1 1) rotate(0) translate(4 112)">
<title>%3</title>
<polygon fill="#ffffff" stroke="transparent" points="-4,4 -4,-112 870.2953,-112 870.2953,4 -4,4"/>
<!-- Kilogram -->
<g id="node1" class="node">
<title>Kilogram</title>
<g id="a_node1"><a xlink:href="http://emmo.info/emmo/middle/siunits#EMMO_9bfd6f1e_b0ce_459c_beb7_8f1f41708bba" xlink:title="Kilogram">
<ellipse fill="#ffffcc" stroke="#000000" cx="53.2953" cy="-18" rx="53.0913" ry="18"/>
<text text-anchor="middle" x="53.2953" y="-14.3" font-family="Times,serif" font-size="14.00" fill="#000000">Kilogram</text>
</a>
</g>
</g>
<!-- SIBaseUnit -->
<g id="node6" class="node">
<title>SIBaseUnit</title>
<g id="a_node6"><a xlink:href="http://emmo.info/emmo/middle/siunits#EMMO_3a185e6c_9e19_4776_b583_19c978156aa0" xlink:title="SIBaseUnit">
<ellipse fill="#ffffcc" stroke="#000000" stroke-width="2" cx="379.2953" cy="-90" rx="63.8893" ry="18"/>
<text text-anchor="middle" x="379.2953" y="-86.3" font-family="Times,serif" font-size="14.00" fill="#000000">SIBaseUnit</text>
</a>
</g>
</g>
<!-- Kilogram&#45;&gt;SIBaseUnit -->
<g id="edge5" class="edge">
<title>Kilogram&#45;&gt;SIBaseUnit</title>
<path fill="none" stroke="#000000" d="M93.5043,-29.9793C101.0502,-32.0877 108.8931,-34.1854 116.2953,-36 183.9191,-52.5776 262.1681,-68.1943 315.6199,-78.3275"/>
<polygon fill="none" stroke="#000000" points="315.1606,-81.8025 325.6361,-80.2172 316.4584,-74.9238 315.1606,-81.8025"/>
</g>
<!-- Ampere -->
<g id="node2" class="node">
<title>Ampere</title>
<g id="a_node2"><a xlink:href="http://emmo.info/emmo/middle/siunits#EMMO_db5dd38d_ac79_4af6_8782_fee7e7150ae8" xlink:title="Ampere">
<ellipse fill="#ffffcc" stroke="#000000" cx="172.2953" cy="-18" rx="47.3916" ry="18"/>
<text text-anchor="middle" x="172.2953" y="-14.3" font-family="Times,serif" font-size="14.00" fill="#000000">Ampere</text>
</a>
</g>
</g>
<!-- Ampere&#45;&gt;SIBaseUnit -->
<g id="edge3" class="edge">
<title>Ampere&#45;&gt;SIBaseUnit</title>
<path fill="none" stroke="#000000" d="M207.41,-30.2138C240.8698,-41.852 291.589,-59.4935 329.2704,-72.6001"/>
<polygon fill="none" stroke="#000000" points="328.4435,-76.018 339.0383,-75.9976 330.7432,-69.4066 328.4435,-76.018"/>
</g>
<!-- Kelvin -->
<g id="node3" class="node">
<title>Kelvin</title>
<g id="a_node3"><a xlink:href="http://emmo.info/emmo/middle/siunits#EMMO_2e5e45fc_f52c_4294_bdc2_5ed7a06dfce7" xlink:title="Kelvin">
<ellipse fill="#ffffcc" stroke="#000000" cx="277.2953" cy="-18" rx="39.7935" ry="18"/>
<text text-anchor="middle" x="277.2953" y="-14.3" font-family="Times,serif" font-size="14.00" fill="#000000">Kelvin</text>
</a>
</g>
</g>
<!-- Kelvin&#45;&gt;SIBaseUnit -->
<g id="edge6" class="edge">
<title>Kelvin&#45;&gt;SIBaseUnit</title>
<path fill="none" stroke="#000000" d="M298.9268,-33.2693C312.9398,-43.1609 331.4401,-56.2199 347.158,-67.3149"/>
<polygon fill="none" stroke="#000000" points="345.3696,-70.3366 355.5578,-73.2441 349.4065,-64.6178 345.3696,-70.3366"/>
</g>
<!-- Second -->
<g id="node4" class="node">
<title>Second</title>
<g id="a_node4"><a xlink:href="http://emmo.info/emmo/middle/siunits#EMMO_314ba716_2d3d_4462_9a4f_d3419ae1df43" xlink:title="Second">
<ellipse fill="#ffffcc" stroke="#000000" cx="379.2953" cy="-18" rx="44.6926" ry="18"/>
<text text-anchor="middle" x="379.2953" y="-14.3" font-family="Times,serif" font-size="14.00" fill="#000000">Second</text>
</a>
</g>
</g>
<!-- Second&#45;&gt;SIBaseUnit -->
<g id="edge4" class="edge">
<title>Second&#45;&gt;SIBaseUnit</title>
<path fill="none" stroke="#000000" d="M379.2953,-36.1686C379.2953,-43.869 379.2953,-53.0257 379.2953,-61.5834"/>
<polygon fill="none" stroke="#000000" points="375.7954,-61.5867 379.2953,-71.5867 382.7954,-61.5868 375.7954,-61.5867"/>
</g>
<!-- Mole -->
<g id="node5" class="node">
<title>Mole</title>
<g id="a_node5"><a xlink:href="http://emmo.info/emmo/middle/siunits#EMMO_df6eeb01_1b41_4bd8_9257_a04fbd7cf000" xlink:title="Mole">
<ellipse fill="#ffffcc" stroke="#000000" cx="476.2953" cy="-18" rx="33.5952" ry="18"/>
<text text-anchor="middle" x="476.2953" y="-14.3" font-family="Times,serif" font-size="14.00" fill="#000000">Mole</text>
</a>
</g>
</g>
<!-- Mole&#45;&gt;SIBaseUnit -->
<g id="edge1" class="edge">
<title>Mole&#45;&gt;SIBaseUnit</title>
<path fill="none" stroke="#000000" d="M456.1968,-32.9184C442.8995,-42.7886 425.2044,-55.9231 410.1407,-67.1045"/>
<polygon fill="none" stroke="#000000" points="408.0309,-64.3116 402.0873,-73.0822 412.2031,-69.9324 408.0309,-64.3116"/>
</g>
<!-- Candela -->
<g id="node7" class="node">
<title>Candela</title>
<g id="a_node7"><a xlink:href="http://emmo.info/emmo/middle/siunits#EMMO_8d00f093_3f45_4ea3_986c_b3545c3c2f4c" xlink:title="Candela">
<ellipse fill="#ffffcc" stroke="#000000" cx="577.2953" cy="-18" rx="48.9926" ry="18"/>
<text text-anchor="middle" x="577.2953" y="-14.3" font-family="Times,serif" font-size="14.00" fill="#000000">Candela</text>
</a>
</g>
</g>
<!-- Candela&#45;&gt;SIBaseUnit -->
<g id="edge2" class="edge">
<title>Candela&#45;&gt;SIBaseUnit</title>
<path fill="none" stroke="#000000" d="M542.3526,-30.7064C510.6913,-42.2196 463.7115,-59.3032 428.3014,-72.1796"/>
<polygon fill="none" stroke="#000000" points="426.8448,-68.985 418.643,-75.6917 429.2371,-75.5635 426.8448,-68.985"/>
</g>
<!-- Metre -->
<g id="node8" class="node">
<title>Metre</title>
<g id="a_node8"><a xlink:href="http://emmo.info/emmo/middle/siunits#EMMO_7db11dbf_a643_464a_9b56_07eabcc3e9c5" xlink:title="Metre">
<ellipse fill="#ffffcc" stroke="#000000" cx="683.2953" cy="-18" rx="38.9931" ry="18"/>
<text text-anchor="middle" x="683.2953" y="-14.3" font-family="Times,serif" font-size="14.00" fill="#000000">Metre</text>
</a>
</g>
</g>
<!-- Metre&#45;&gt;SIBaseUnit -->
<g id="edge7" class="edge">
<title>Metre&#45;&gt;SIBaseUnit</title>
<path fill="none" stroke="#000000" d="M653.8289,-29.8468C647.7562,-32.0623 641.3623,-34.2335 635.2953,-36 571.3091,-54.6304 496.579,-69.6431 444.4374,-79.0654"/>
<polygon fill="none" stroke="#000000" points="443.5478,-75.6689 434.3201,-80.8747 444.7801,-82.5595 443.5478,-75.6689"/>
</g>
<!-- key1 -->
<g id="node9" class="node">
<title>key1</title>
<text text-anchor="start" x="756.2953" y="-13.8" font-family="Times,serif" font-size="14.00" fill="#000000">isA</text>
</g>
<!-- key2 -->
<g id="node10" class="node">
<title>key2</title>
<text text-anchor="start" x="837.2953" y="-13.8" font-family="Times,serif" font-size="14.00" fill="#000000"> </text>
</g>
<!-- key1&#45;&gt;key2 -->
<g id="edge8" class="edge">
<title>key1:e&#45;&gt;key2:w</title>
<path fill="none" stroke="#000000" d="M781.2953,-19C801.5453,-19 808.9808,-19 825.2263,-19"/>
<polygon fill="none" stroke="#000000" points="825.2953,-22.5001 835.2953,-19 825.2952,-15.5001 825.2953,-22.5001"/>
</g>
</g>
</svg>
