<?xml version="1.0" encoding="UTF-8" standalone="no"?>
<!DOCTYPE svg PUBLIC "-//W3C//DTD SVG 1.1//EN"
 "http://www.w3.org/Graphics/SVG/1.1/DTD/svg11.dtd">
<!-- Generated by graphviz version 2.40.1 (0)
 -->
<!-- Title: %3 Pages: 1 -->
<svg width="352pt" height="1232pt"
 viewBox="0.00 0.00 352.07 1232.00" xmlns="http://www.w3.org/2000/svg" xmlns:xlink="http://www.w3.org/1999/xlink">
<g id="graph0" class="graph" transform="scale(1 1) rotate(0) translate(4 1228)">
<title>%3</title>
<polygon fill="#ffffff" stroke="transparent" points="-4,4 -4,-1228 348.0727,-1228 348.0727,4 -4,4"/>
<!-- Gray -->
<g id="node1" class="node">
<title>Gray</title>
<g id="a_node1"><a xlink:href="http://emmo.info/emmo/middle/siunits#EMMO_00199e76_69dc_45b6_a9c6_98cc90cdc0f5" xlink:title="Gray">
<ellipse fill="#ffffcc" stroke="#000000" cx="265.4296" cy="-1152" rx="33.2948" ry="18"/>
<text text-anchor="middle" x="265.4296" y="-1148.3" font-family="Times,serif" font-size="14.00" fill="#000000">Gray</text>
</a>
</g>
</g>
<!-- SISpecialUnit -->
<g id="node2" class="node">
<title>SISpecialUnit</title>
<g id="a_node2"><a xlink:href="http://emmo.info/emmo/middle/siunits#EMMO_e9ffc696_5228_4ff9_8a60_0f5e05e9931b" xlink:title="SISpecialUnit">
<ellipse fill="#ffffcc" stroke="#000000" stroke-width="2" cx="75.3933" cy="-585" rx="75.2868" ry="18"/>
<text text-anchor="middle" x="75.3933" y="-581.3" font-family="Times,serif" font-size="14.00" fill="#000000">SISpecialUnit</text>
</a>
</g>
</g>
<!-- Gray&#45;&gt;SISpecialUnit -->
<g id="edge3" class="edge">
<title>Gray&#45;&gt;SISpecialUnit</title>
<path fill="none" stroke="#000000" d="M232.9096,-1148.4177C216.8287,-1144.9716 198.4225,-1138.2199 186.7866,-1125 118.1305,-1046.9976 85.8071,-712.9026 77.571,-613.198"/>
<polygon fill="none" stroke="#000000" points="81.041,-612.6841 76.7457,-602.999 74.0638,-613.2488 81.041,-612.6841"/>
</g>
<!-- Steradian -->
<g id="node3" class="node">
<title>Steradian</title>
<g id="a_node3"><a xlink:href="http://emmo.info/emmo/middle/siunits#EMMO_cf3dd6cc_c5d6_4b3d_aef4_82f3b7a361af" xlink:title="Steradian">
<ellipse fill="#ffffcc" stroke="#000000" cx="265.4296" cy="-1098" rx="55.7903" ry="18"/>
<text text-anchor="middle" x="265.4296" y="-1094.3" font-family="Times,serif" font-size="14.00" fill="#000000">Steradian</text>
</a>
</g>
</g>
<!-- Steradian&#45;&gt;SISpecialUnit -->
<g id="edge10" class="edge">
<title>Steradian&#45;&gt;SISpecialUnit</title>
<path fill="none" stroke="#000000" d="M215.9797,-1089.4352C205.0878,-1085.4408 194.5111,-1079.5848 186.7866,-1071 124.5477,-1001.8292 88.2838,-706.082 78.262,-613.0976"/>
<polygon fill="none" stroke="#000000" points="81.7298,-612.6083 77.195,-603.033 74.7688,-613.3463 81.7298,-612.6083"/>
</g>
<!-- Henry -->
<g id="node4" class="node">
<title>Henry</title>
<g id="a_node4"><a xlink:href="http://emmo.info/emmo/middle/siunits#EMMO_fab003c8_f7a6_4346_9988_7161325ed7a3" xlink:title="Henry">
<ellipse fill="#ffffcc" stroke="#000000" cx="265.4296" cy="-1044" rx="40.0939" ry="18"/>
<text text-anchor="middle" x="265.4296" y="-1040.3" font-family="Times,serif" font-size="14.00" fill="#000000">Henry</text>
</a>
</g>
</g>
<!-- Henry&#45;&gt;SISpecialUnit -->
<g id="edge4" class="edge">
<title>Henry&#45;&gt;SISpecialUnit</title>
<path fill="none" stroke="#000000" d="M226.7695,-1038.6259C212.443,-1034.7956 197.1744,-1028.2354 186.7866,-1017 131.0052,-956.6671 91.1692,-699.5913 79.1649,-613.3417"/>
<polygon fill="none" stroke="#000000" points="82.6059,-612.6723 77.7783,-603.2413 75.671,-613.6244 82.6059,-612.6723"/>
</g>
<!-- Becquerel -->
<g id="node5" class="node">
<title>Becquerel</title>
<g id="a_node5"><a xlink:href="http://emmo.info/emmo/middle/siunits#EMMO_b71e4ba5_8f73_4199_8c96_7ea7f94d9e2a" xlink:title="Becquerel">
<ellipse fill="#ffffcc" stroke="#000000" cx="265.4296" cy="-990" rx="57.6901" ry="18"/>
<text text-anchor="middle" x="265.4296" y="-986.3" font-family="Times,serif" font-size="14.00" fill="#000000">Becquerel</text>
</a>
</g>
</g>
<!-- Becquerel&#45;&gt;SISpecialUnit -->
<g id="edge15" class="edge">
<title>Becquerel&#45;&gt;SISpecialUnit</title>
<path fill="none" stroke="#000000" d="M215.5301,-980.7918C204.9123,-976.8201 194.5708,-971.1356 186.7866,-963 137.3223,-911.3029 94.3256,-691.7477 80.248,-613.1384"/>
<polygon fill="none" stroke="#000000" points="83.6453,-612.2507 78.4558,-603.0138 76.7525,-613.4708 83.6453,-612.2507"/>
</g>
<!-- Siemens -->
<g id="node6" class="node">
<title>Siemens</title>
<g id="a_node6"><a xlink:href="http://emmo.info/emmo/middle/siunits#EMMO_f2523820_04a6_44ab_bb67_8237dda2b0c2" xlink:title="Siemens">
<ellipse fill="#ffffcc" stroke="#000000" cx="265.4296" cy="-936" rx="50.0912" ry="18"/>
<text text-anchor="middle" x="265.4296" y="-932.3" font-family="Times,serif" font-size="14.00" fill="#000000">Siemens</text>
</a>
</g>
</g>
<!-- Siemens&#45;&gt;SISpecialUnit -->
<g id="edge5" class="edge">
<title>Siemens&#45;&gt;SISpecialUnit</title>
<path fill="none" stroke="#000000" d="M220.2936,-928.1165C208.147,-924.1134 195.8732,-918.0827 186.7866,-909 103.0489,-825.2984 82.1852,-675.8812 77.0465,-613.5433"/>
<polygon fill="none" stroke="#000000" points="80.5159,-613.0011 76.2808,-603.2895 73.5353,-613.5224 80.5159,-613.0011"/>
</g>
<!-- Newton -->
<g id="node7" class="node">
<title>Newton</title>
<g id="a_node7"><a xlink:href="http://emmo.info/emmo/middle/siunits#EMMO_a979c531_f9fa_4a6e_93c1.0.0-alpha2960241ca6" xlink:title="Newton">
<ellipse fill="#ffffcc" stroke="#000000" cx="265.4296" cy="-882" rx="47.3916" ry="18"/>
<text text-anchor="middle" x="265.4296" y="-878.3" font-family="Times,serif" font-size="14.00" fill="#000000">Newton</text>
</a>
</g>
</g>
<!-- Newton&#45;&gt;SISpecialUnit -->
<g id="edge18" class="edge">
<title>Newton&#45;&gt;SISpecialUnit</title>
<path fill="none" stroke="#000000" d="M222.2721,-874.2916C209.6146,-870.2803 196.5627,-864.2011 186.7866,-855 115.3018,-787.7196 88.231,-667.7907 79.2807,-613.3177"/>
<polygon fill="none" stroke="#000000" points="82.7225,-612.6727 77.7245,-603.3308 75.806,-613.7505 82.7225,-612.6727"/>
</g>
<!-- Farad -->
<g id="node8" class="node">
<title>Farad</title>
<g id="a_node8"><a xlink:href="http://emmo.info/emmo/middle/siunits#EMMO_a9201b2f_e6de_442a_b3a6_d291.0.0-alpha2a582" xlink:title="Farad">
<ellipse fill="#ffffcc" stroke="#000000" cx="265.4296" cy="-828" rx="37.8943" ry="18"/>
<text text-anchor="middle" x="265.4296" y="-824.3" font-family="Times,serif" font-size="14.00" fill="#000000">Farad</text>
</a>
</g>
</g>
<!-- Farad&#45;&gt;SISpecialUnit -->
<g id="edge14" class="edge">
<title>Farad&#45;&gt;SISpecialUnit</title>
<path fill="none" stroke="#000000" d="M229.5916,-821.8024C215.0103,-817.828 198.8009,-811.3829 186.7866,-801 127.4054,-749.682 95.5069,-658.9017 82.5036,-613.0996"/>
<polygon fill="none" stroke="#000000" points="85.8242,-611.9738 79.8048,-603.255 79.0733,-613.8246 85.8242,-611.9738"/>
</g>
<!-- Katal -->
<g id="node9" class="node">
<title>Katal</title>
<g id="a_node9"><a xlink:href="http://emmo.info/emmo/middle/siunits#EMMO_33b67e69_3645_4c73_b100_5ea6759221b4" xlink:title="Katal">
<ellipse fill="#ffffcc" stroke="#000000" cx="265.4296" cy="-774" rx="35.194" ry="18"/>
<text text-anchor="middle" x="265.4296" y="-770.3" font-family="Times,serif" font-size="14.00" fill="#000000">Katal</text>
</a>
</g>
</g>
<!-- Katal&#45;&gt;SISpecialUnit -->
<g id="edge8" class="edge">
<title>Katal&#45;&gt;SISpecialUnit</title>
<path fill="none" stroke="#000000" d="M232.1696,-767.5885C217.2192,-763.5093 200.0066,-757.041 186.7866,-747 139.2082,-710.8627 104.6146,-648.4041 87.4932,-612.5145"/>
<polygon fill="none" stroke="#000000" points="90.5233,-610.7302 83.1311,-603.1403 84.1768,-613.6834 90.5233,-610.7302"/>
</g>
<!-- Lux -->
<g id="node10" class="node">
<title>Lux</title>
<g id="a_node10"><a xlink:href="http://emmo.info/emmo/middle/siunits#EMMO_da1dd4a7_c611_4ad4_bef6_7646f28aa598" xlink:title="Lux">
<ellipse fill="#ffffcc" stroke="#000000" cx="265.4296" cy="-720" rx="28.6953" ry="18"/>
<text text-anchor="middle" x="265.4296" y="-716.3" font-family="Times,serif" font-size="14.00" fill="#000000">Lux</text>
</a>
</g>
</g>
<!-- Lux&#45;&gt;SISpecialUnit -->
<g id="edge6" class="edge">
<title>Lux&#45;&gt;SISpecialUnit</title>
<path fill="none" stroke="#000000" d="M238.288,-713.8484C222.5042,-709.5183 202.6591,-702.7386 186.7866,-693 150.4822,-670.7254 116.5274,-634.7633 95.8705,-610.5208"/>
<polygon fill="none" stroke="#000000" points="98.4953,-608.2037 89.3908,-602.7854 93.1292,-612.6987 98.4953,-608.2037"/>
</g>
<!-- Weber -->
<g id="node11" class="node">
<title>Weber</title>
<g id="a_node11"><a xlink:href="http://emmo.info/emmo/middle/siunits#EMMO_d7f11b34_a121_4519_87c0_aa754f1c4737" xlink:title="Weber">
<ellipse fill="#ffffcc" stroke="#000000" cx="265.4296" cy="-666" rx="40.0939" ry="18"/>
<text text-anchor="middle" x="265.4296" y="-662.3" font-family="Times,serif" font-size="14.00" fill="#000000">Weber</text>
</a>
</g>
</g>
<!-- Weber&#45;&gt;SISpecialUnit -->
<g id="edge1" class="edge">
<title>Weber&#45;&gt;SISpecialUnit</title>
<path fill="none" stroke="#000000" d="M232.1931,-655.577C218.0514,-650.8887 201.467,-645.0525 186.7866,-639 162.7285,-629.0812 136.5088,-616.465 115.5542,-605.9218"/>
<polygon fill="none" stroke="#000000" points="117.1234,-602.7933 106.6215,-601.3929 113.9579,-609.0367 117.1234,-602.7933"/>
</g>
<!-- Joule -->
<g id="node12" class="node">
<title>Joule</title>
<g id="a_node12"><a xlink:href="http://emmo.info/emmo/middle/siunits#EMMO_8a70dea4_d6ab_4260_b931_a3e990982416" xlink:title="Joule">
<ellipse fill="#ffffcc" stroke="#000000" cx="265.4296" cy="-612" rx="34.394" ry="18"/>
<text text-anchor="middle" x="265.4296" y="-608.3" font-family="Times,serif" font-size="14.00" fill="#000000">Joule</text>
</a>
</g>
</g>
<!-- Joule&#45;&gt;SISpecialUnit -->
<g id="edge2" class="edge">
<title>Joule&#45;&gt;SISpecialUnit</title>
<path fill="none" stroke="#000000" d="M231.8924,-607.2351C209.4012,-604.0396 178.8559,-599.6998 150.72,-595.7023"/>
<polygon fill="none" stroke="#000000" points="150.8755,-592.1893 140.4825,-594.2478 149.8907,-599.1197 150.8755,-592.1893"/>
</g>
<!-- Lumen -->
<g id="node13" class="node">
<title>Lumen</title>
<g id="a_node13"><a xlink:href="http://emmo.info/emmo/middle/siunits#EMMO_d7b7fd1e_645a_42cb_8f40_85f0d034d3ae" xlink:title="Lumen">
<ellipse fill="#ffffcc" stroke="#000000" cx="265.4296" cy="-558" rx="42.7926" ry="18"/>
<text text-anchor="middle" x="265.4296" y="-554.3" font-family="Times,serif" font-size="14.00" fill="#000000">Lumen</text>
</a>
</g>
</g>
<!-- Lumen&#45;&gt;SISpecialUnit -->
<g id="edge22" class="edge">
<title>Lumen&#45;&gt;SISpecialUnit</title>
<path fill="none" stroke="#000000" d="M224.6621,-563.7922C202.9991,-566.87 175.6784,-570.7517 150.3502,-574.3503"/>
<polygon fill="none" stroke="#000000" points="149.7953,-570.8939 140.387,-575.7658 150.78,-577.8243 149.7953,-570.8939"/>
</g>
<!-- Hertz -->
<g id="node14" class="node">
<title>Hertz</title>
<g id="a_node14"><a xlink:href="http://emmo.info/emmo/middle/siunits#EMMO_e75f580e_52bf_4dd5_af70_df409cec08fd" xlink:title="Hertz">
<ellipse fill="#ffffcc" stroke="#000000" cx="265.4296" cy="-504" rx="37.8943" ry="18"/>
<text text-anchor="middle" x="265.4296" y="-500.3" font-family="Times,serif" font-size="14.00" fill="#000000">Hertz</text>
</a>
</g>
</g>
<!-- Hertz&#45;&gt;SISpecialUnit -->
<g id="edge12" class="edge">
<title>Hertz&#45;&gt;SISpecialUnit</title>
<path fill="none" stroke="#000000" d="M233.7259,-513.9162C219.2601,-518.6872 202.0008,-524.7274 186.7866,-531 162.7285,-540.9188 136.5088,-553.535 115.5542,-564.0782"/>
<polygon fill="none" stroke="#000000" points="113.9579,-560.9633 106.6215,-568.6071 117.1234,-567.2067 113.9579,-560.9633"/>
</g>
<!-- Radian -->
<g id="node15" class="node">
<title>Radian</title>
<g id="a_node15"><a xlink:href="http://emmo.info/emmo/middle/siunits#EMMO_a121bb1d_5225_4c78_809b_0268c3012208" xlink:title="Radian">
<ellipse fill="#ffffcc" stroke="#000000" cx="265.4296" cy="-450" rx="42.7926" ry="18"/>
<text text-anchor="middle" x="265.4296" y="-446.3" font-family="Times,serif" font-size="14.00" fill="#000000">Radian</text>
</a>
</g>
</g>
<!-- Radian&#45;&gt;SISpecialUnit -->
<g id="edge20" class="edge">
<title>Radian&#45;&gt;SISpecialUnit</title>
<path fill="none" stroke="#000000" d="M228.3151,-459.0725C214.666,-463.3348 199.46,-469.2243 186.7866,-477 150.4822,-499.2746 116.5274,-535.2367 95.8705,-559.4792"/>
<polygon fill="none" stroke="#000000" points="93.1292,-557.3013 89.3908,-567.2146 98.4953,-561.7963 93.1292,-557.3013"/>
</g>
<!-- Pascal -->
<g id="node16" class="node">
<title>Pascal</title>
<g id="a_node16"><a xlink:href="http://emmo.info/emmo/middle/siunits#EMMO_a80dc6f5_b1aa_41a7_a3a8_cd5040da2162" xlink:title="Pascal">
<ellipse fill="#ffffcc" stroke="#000000" cx="265.4296" cy="-396" rx="40.0939" ry="18"/>
<text text-anchor="middle" x="265.4296" y="-392.3" font-family="Times,serif" font-size="14.00" fill="#000000">Pascal</text>
</a>
</g>
</g>
<!-- Pascal&#45;&gt;SISpecialUnit -->
<g id="edge7" class="edge">
<title>Pascal&#45;&gt;SISpecialUnit</title>
<path fill="none" stroke="#000000" d="M228.6209,-403.4137C214.5495,-407.525 198.972,-413.7448 186.7866,-423 139.2082,-459.1373 104.6146,-521.5959 87.4932,-557.4855"/>
<polygon fill="none" stroke="#000000" points="84.1768,-556.3166 83.1311,-566.8597 90.5233,-559.2698 84.1768,-556.3166"/>
</g>
<!-- DegreeCelsius -->
<g id="node17" class="node">
<title>DegreeCelsius</title>
<g id="a_node17"><a xlink:href="http://emmo.info/emmo/middle/siunits#EMMO_b20be325_8bfd_4237_bee7_201ab0fd9c75" xlink:title="DegreeCelsius">
<ellipse fill="#ffffcc" stroke="#000000" cx="265.4296" cy="-342" rx="78.7863" ry="18"/>
<text text-anchor="middle" x="265.4296" y="-338.3" font-family="Times,serif" font-size="14.00" fill="#000000">DegreeCelsius</text>
</a>
</g>
</g>
<!-- DegreeCelsius&#45;&gt;SISpecialUnit -->
<g id="edge9" class="edge">
<title>DegreeCelsius&#45;&gt;SISpecialUnit</title>
<path fill="none" stroke="#000000" d="M210.0572,-354.9337C201.6627,-358.5466 193.5583,-363.1478 186.7866,-369 127.4054,-420.318 95.5069,-511.0983 82.5036,-556.9004"/>
<polygon fill="none" stroke="#000000" points="79.0733,-556.1754 79.8048,-566.745 85.8242,-558.0262 79.0733,-556.1754"/>
</g>
<!-- Volt -->
<g id="node18" class="node">
<title>Volt</title>
<g id="a_node18"><a xlink:href="http://emmo.info/emmo/middle/siunits#EMMO_e2207e91_02b0_4a8a_b13e_61d2a2a839f1" xlink:title="Volt">
<ellipse fill="#ffffcc" stroke="#000000" cx="265.4296" cy="-288" rx="28.6953" ry="18"/>
<text text-anchor="middle" x="265.4296" y="-284.3" font-family="Times,serif" font-size="14.00" fill="#000000">Volt</text>
</a>
</g>
</g>
<!-- Volt&#45;&gt;SISpecialUnit -->
<g id="edge19" class="edge">
<title>Volt&#45;&gt;SISpecialUnit</title>
<path fill="none" stroke="#000000" d="M237.3398,-291.7553C220.8277,-295.2729 200.5572,-302.0393 186.7866,-315 115.3018,-382.2804 88.231,-502.2093 79.2807,-556.6823"/>
<polygon fill="none" stroke="#000000" points="75.806,-556.2495 77.7245,-566.6692 82.7225,-557.3273 75.806,-556.2495"/>
</g>
<!-- Tesla -->
<g id="node19" class="node">
<title>Tesla</title>
<g id="a_node19"><a xlink:href="http://emmo.info/emmo/middle/siunits#EMMO_acb50123_87a2_4753_b36c_f87114ad4de2" xlink:title="Tesla">
<ellipse fill="#ffffcc" stroke="#000000" cx="265.4296" cy="-234" rx="35.194" ry="18"/>
<text text-anchor="middle" x="265.4296" y="-230.3" font-family="Times,serif" font-size="14.00" fill="#000000">Tesla</text>
</a>
</g>
</g>
<!-- Tesla&#45;&gt;SISpecialUnit -->
<g id="edge16" class="edge">
<title>Tesla&#45;&gt;SISpecialUnit</title>
<path fill="none" stroke="#000000" d="M231.2207,-238.7715C215.8873,-242.5084 198.6299,-249.1619 186.7866,-261 103.0489,-344.7016 82.1852,-494.1188 77.0465,-556.4567"/>
<polygon fill="none" stroke="#000000" points="73.5353,-556.4776 76.2808,-566.7105 80.5159,-556.9989 73.5353,-556.4776"/>
</g>
<!-- Coulomb -->
<g id="node20" class="node">
<title>Coulomb</title>
<g id="a_node20"><a xlink:href="http://emmo.info/emmo/middle/siunits#EMMO_696ed548_9477_45ea_993c_6a8f5271914a" xlink:title="Coulomb">
<ellipse fill="#ffffcc" stroke="#000000" cx="265.4296" cy="-180" rx="51.9908" ry="18"/>
<text text-anchor="middle" x="265.4296" y="-176.3" font-family="Times,serif" font-size="14.00" fill="#000000">Coulomb</text>
</a>
</g>
</g>
<!-- Coulomb&#45;&gt;SISpecialUnit -->
<g id="edge21" class="edge">
<title>Coulomb&#45;&gt;SISpecialUnit</title>
<path fill="none" stroke="#000000" d="M218.8034,-188.0393C207.0606,-192.0397 195.3692,-198.03 186.7866,-207 137.3223,-258.6971 94.3256,-478.2523 80.248,-556.8616"/>
<polygon fill="none" stroke="#000000" points="76.7525,-556.5292 78.4558,-566.9862 83.6453,-557.7493 76.7525,-556.5292"/>
</g>
<!-- Sievert -->
<g id="node21" class="node">
<title>Sievert</title>
<g id="a_node21"><a xlink:href="http://emmo.info/emmo/middle/siunits#EMMO_dc232f53_8ed8_4ddd_9f41_cc057985eadb" xlink:title="Sievert">
<ellipse fill="#ffffcc" stroke="#000000" cx="265.4296" cy="-126" rx="44.393" ry="18"/>
<text text-anchor="middle" x="265.4296" y="-122.3" font-family="Times,serif" font-size="14.00" fill="#000000">Sievert</text>
</a>
</g>
</g>
<!-- Sievert&#45;&gt;SISpecialUnit -->
<g id="edge17" class="edge">
<title>Sievert&#45;&gt;SISpecialUnit</title>
<path fill="none" stroke="#000000" d="M223.5122,-132.2888C210.1661,-136.2212 196.3905,-142.6125 186.7866,-153 131.0052,-213.3329 91.1692,-470.4087 79.1649,-556.6583"/>
<polygon fill="none" stroke="#000000" points="75.671,-556.3756 77.7783,-566.7587 82.6059,-557.3277 75.671,-556.3756"/>
</g>
<!-- Watt -->
<g id="node22" class="node">
<title>Watt</title>
<g id="a_node22"><a xlink:href="http://emmo.info/emmo/middle/siunits#EMMO_080052a1_f295_44be_a60f_1326ce13f1ba" xlink:title="Watt">
<ellipse fill="#ffffcc" stroke="#000000" cx="265.4296" cy="-72" rx="32.4942" ry="18"/>
<text text-anchor="middle" x="265.4296" y="-68.3" font-family="Times,serif" font-size="14.00" fill="#000000">Watt</text>
</a>
</g>
</g>
<!-- Watt&#45;&gt;SISpecialUnit -->
<g id="edge11" class="edge">
<title>Watt&#45;&gt;SISpecialUnit</title>
<path fill="none" stroke="#000000" d="M233.4221,-75.6028C217.2817,-79.0523 198.663,-85.8009 186.7866,-99 124.5477,-168.1708 88.2838,-463.918 78.262,-556.9024"/>
<polygon fill="none" stroke="#000000" points="74.7688,-556.6537 77.195,-566.967 81.7298,-557.3917 74.7688,-556.6537"/>
</g>
<!-- Ohm -->
<g id="node23" class="node">
<title>Ohm</title>
<g id="a_node23"><a xlink:href="http://emmo.info/emmo/middle/siunits#EMMO_59c10c5c_47bd_4348_ba39_38836607dfa1" xlink:title="Ohm">
<ellipse fill="#ffffcc" stroke="#000000" cx="265.4296" cy="-18" rx="33.2948" ry="18"/>
<text text-anchor="middle" x="265.4296" y="-14.3" font-family="Times,serif" font-size="14.00" fill="#000000">Ohm</text>
</a>
</g>
</g>
<!-- Ohm&#45;&gt;SISpecialUnit -->
<g id="edge13" class="edge">
<title>Ohm&#45;&gt;SISpecialUnit</title>
<path fill="none" stroke="#000000" d="M232.9096,-21.5823C216.8287,-25.0284 198.4225,-31.7801 186.7866,-45 118.1305,-123.0024 85.8071,-457.0974 77.571,-556.802"/>
<polygon fill="none" stroke="#000000" points="74.0638,-556.7512 76.7457,-567.001 81.041,-557.3159 74.0638,-556.7512"/>
</g>
<!-- key1 -->
<g id="node24" class="node">
<title>key1</title>
<text text-anchor="start" x="64.3933" y="-1201.8" font-family="Times,serif" font-size="14.00" fill="#000000">isA</text>
</g>
<!-- key2 -->
<g id="node25" class="node">
<title>key2</title>
<text text-anchor="start" x="263.4296" y="-1201.8" font-family="Times,serif" font-size="14.00" fill="#000000"> </text>
</g>
<!-- key2&#45;&gt;key1 -->
<g id="edge23" class="edge">
<title>key2:w&#45;&gt;key1:e</title>
<path fill="none" stroke="#000000" d="M261.4296,-1205C188.5531,-1205 167.772,-1205 99.7794,-1205"/>
<polygon fill="none" stroke="#000000" points="99.3933,-1201.5001 89.3933,-1205 99.3933,-1208.5001 99.3933,-1201.5001"/>
</g>
</g>
</svg>
