<?xml version="1.0" encoding="UTF-8" standalone="no"?>
<!DOCTYPE svg PUBLIC "-//W3C//DTD SVG 1.1//EN"
 "http://www.w3.org/Graphics/SVG/1.1/DTD/svg11.dtd">
<!-- Generated by graphviz version 2.40.1 (0)
 -->
<!-- Title: %3 Pages: 1 -->
<svg width="757pt" height="332pt"
 viewBox="0.00 0.00 756.69 332.00" xmlns="http://www.w3.org/2000/svg" xmlns:xlink="http://www.w3.org/1999/xlink">
<g id="graph0" class="graph" transform="scale(1 1) rotate(0) translate(4 328)">
<title>%3</title>
<polygon fill="#ffffff" stroke="transparent" points="-4,4 -4,-328 752.6909,-328 752.6909,4 -4,4"/>
<!-- SISpecialUnit -->
<g id="node1" class="node">
<title>SISpecialUnit</title>
<g id="a_node1"><a xlink:href="http://emmo.info/emmo/middle/siunits#EMMO_e9ffc696_5228_4ff9_8a60_0f5e05e9931b" xlink:title="SISpecialUnit">
<ellipse fill="#ffffcc" stroke="#000000" stroke-width="2" cx="75.6442" cy="-18" rx="75.2868" ry="18"/>
<text text-anchor="middle" x="75.6442" y="-14.3" font-family="Times,serif" font-size="14.00" fill="#000000">SISpecialUnit</text>
</a>
</g>
</g>
<!-- SIUnitSymbol -->
<g id="node4" class="node">
<title>SIUnitSymbol</title>
<g id="a_node4"><a xlink:href="http://emmo.info/emmo/middle/siunits#EMMO_32129fb5_df25_48fd_a29c_18a2f22a2dd5" xlink:title="SIUnitSymbol">
<ellipse fill="#ffffcc" stroke="#000000" cx="225.6442" cy="-90" rx="76.0865" ry="18"/>
<text text-anchor="middle" x="225.6442" y="-86.3" font-family="Times,serif" font-size="14.00" fill="#000000">SIUnitSymbol</text>
</a>
</g>
</g>
<!-- SISpecialUnit&#45;&gt;SIUnitSymbol -->
<g id="edge13" class="edge">
<title>SISpecialUnit&#45;&gt;SIUnitSymbol</title>
<path fill="none" stroke="#000000" d="M109.3071,-34.1582C130.9435,-44.5437 159.2547,-58.1331 182.5309,-69.3056"/>
<polygon fill="none" stroke="#000000" points="181.3046,-72.5993 191.8344,-73.7713 184.3338,-66.2886 181.3046,-72.5993"/>
</g>
<!-- SpecialUnit -->
<g id="node11" class="node">
<title>SpecialUnit</title>
<g id="a_node11"><a xlink:href="http://emmo.info/emmo/middle/metrology#EMMO_3ee80521_3c23_4dd1_935d_9d522614a3e2" xlink:title="SpecialUnit">
<ellipse fill="#ffffcc" stroke="#000000" cx="65.6442" cy="-90" rx="65.7887" ry="18"/>
<text text-anchor="middle" x="65.6442" y="-86.3" font-family="Times,serif" font-size="14.00" fill="#000000">SpecialUnit</text>
</a>
</g>
</g>
<!-- SISpecialUnit&#45;&gt;SpecialUnit -->
<g id="edge12" class="edge">
<title>SISpecialUnit&#45;&gt;SpecialUnit</title>
<path fill="none" stroke="#000000" d="M73.1208,-36.1686C72.0513,-43.869 70.7795,-53.0257 69.5909,-61.5834"/>
<polygon fill="none" stroke="#000000" points="66.1106,-61.2003 68.2016,-71.5867 73.0441,-62.1633 66.1106,-61.2003"/>
</g>
<!-- MathematicalSymbol -->
<g id="node2" class="node">
<title>MathematicalSymbol</title>
<g id="a_node2"><a xlink:href="http://emmo.info/emmo/middle/math#EMMO_5be83f9c_a4ba_4b9a_be1a_5bfc6e891231" xlink:title="MathematicalSymbol">
<ellipse fill="#ffc880" stroke="#000000" stroke-width="2" cx="546.6442" cy="-234" rx="109.6807" ry="18"/>
<text text-anchor="middle" x="546.6442" y="-230.3" font-family="Times,serif" font-size="14.00" fill="#000000">MathematicalSymbol</text>
</a>
</g>
</g>
<!-- Symbol -->
<g id="node10" class="node">
<title>Symbol</title>
<g id="a_node10"><a xlink:href="http://emmo.info/emmo/middle/perceptual#EMMO_a1083d0a_c1fb_471f_8e20_a98f881ad527" xlink:title="Symbol">
<ellipse fill="#ffffcc" stroke="#000000" stroke-width="2" cx="546.6442" cy="-306" rx="45.4919" ry="18"/>
<text text-anchor="middle" x="546.6442" y="-302.3" font-family="Times,serif" font-size="14.00" fill="#000000">Symbol</text>
</a>
</g>
</g>
<!-- MathematicalSymbol&#45;&gt;Symbol -->
<g id="edge4" class="edge">
<title>MathematicalSymbol&#45;&gt;Symbol</title>
<path fill="none" stroke="#000000" d="M546.6442,-252.1686C546.6442,-259.869 546.6442,-269.0257 546.6442,-277.5834"/>
<polygon fill="none" stroke="#000000" points="543.1443,-277.5867 546.6442,-287.5867 550.1443,-277.5868 543.1443,-277.5867"/>
</g>
<!-- SIBaseUnit -->
<g id="node3" class="node">
<title>SIBaseUnit</title>
<g id="a_node3"><a xlink:href="http://emmo.info/emmo/middle/siunits#EMMO_3a185e6c_9e19_4776_b583_19c978156aa0" xlink:title="SIBaseUnit">
<ellipse fill="#ffffcc" stroke="#000000" stroke-width="2" cx="233.6442" cy="-18" rx="63.8893" ry="18"/>
<text text-anchor="middle" x="233.6442" y="-14.3" font-family="Times,serif" font-size="14.00" fill="#000000">SIBaseUnit</text>
</a>
</g>
</g>
<!-- SIBaseUnit&#45;&gt;SIUnitSymbol -->
<g id="edge11" class="edge">
<title>SIBaseUnit&#45;&gt;SIUnitSymbol</title>
<path fill="none" stroke="#000000" d="M231.6254,-36.1686C230.7698,-43.869 229.7524,-53.0257 228.8016,-61.5834"/>
<polygon fill="none" stroke="#000000" points="225.3159,-61.2614 227.6901,-71.5867 232.2731,-62.0344 225.3159,-61.2614"/>
</g>
<!-- BaseUnit -->
<g id="node6" class="node">
<title>BaseUnit</title>
<g id="a_node6"><a xlink:href="http://emmo.info/emmo/middle/metrology#EMMO_db716151_6b73_45ff_910c_d182fdcbb4f5" xlink:title="BaseUnit">
<ellipse fill="#ffffcc" stroke="#000000" cx="373.6442" cy="-90" rx="53.8905" ry="18"/>
<text text-anchor="middle" x="373.6442" y="-86.3" font-family="Times,serif" font-size="14.00" fill="#000000">BaseUnit</text>
</a>
</g>
</g>
<!-- SIBaseUnit&#45;&gt;BaseUnit -->
<g id="edge10" class="edge">
<title>SIBaseUnit&#45;&gt;BaseUnit</title>
<path fill="none" stroke="#000000" d="M264.3678,-33.8007C285.074,-44.4496 312.5595,-58.585 334.7846,-70.0151"/>
<polygon fill="none" stroke="#000000" points="333.4588,-73.2689 343.9524,-74.73 336.6603,-67.0439 333.4588,-73.2689"/>
</g>
<!-- UnitSymbol -->
<g id="node12" class="node">
<title>UnitSymbol</title>
<g id="a_node12"><a xlink:href="http://emmo.info/emmo/middle/metrology#EMMO_216f448e_cdbc_4aeb_a529_7a5fe7fc38bb" xlink:title="UnitSymbol">
<ellipse fill="#ffc880" stroke="#000000" cx="225.6442" cy="-162" rx="65.7887" ry="18"/>
<text text-anchor="middle" x="225.6442" y="-158.3" font-family="Times,serif" font-size="14.00" fill="#000000">UnitSymbol</text>
</a>
</g>
</g>
<!-- SIUnitSymbol&#45;&gt;UnitSymbol -->
<g id="edge3" class="edge">
<title>SIUnitSymbol&#45;&gt;UnitSymbol</title>
<path fill="none" stroke="#000000" d="M225.6442,-108.1686C225.6442,-115.869 225.6442,-125.0257 225.6442,-133.5834"/>
<polygon fill="none" stroke="#000000" points="222.1443,-133.5867 225.6442,-143.5867 229.1443,-133.5868 222.1443,-133.5867"/>
</g>
<!-- PhysicsDimension -->
<g id="node5" class="node">
<title>PhysicsDimension</title>
<g id="a_node5"><a xlink:href="http://emmo.info/emmo/middle/metrology#EMMO_9895a1b4_f0a5_4167_ac5e_97db40b8bfcc" xlink:title="PhysicsDimension">
<ellipse fill="#ffffcc" stroke="#000000" stroke-width="2" cx="404.6442" cy="-162" rx="95.5831" ry="18"/>
<text text-anchor="middle" x="404.6442" y="-158.3" font-family="Times,serif" font-size="14.00" fill="#000000">PhysicsDimension</text>
</a>
</g>
</g>
<!-- MetrologicalSymbol -->
<g id="node8" class="node">
<title>MetrologicalSymbol</title>
<g id="a_node8"><a xlink:href="http://emmo.info/emmo/middle/metrology#EMMO_50a3552e_859a_4ff7_946d_76d537cabce6" xlink:title="MetrologicalSymbol">
<ellipse fill="#ffc880" stroke="#000000" cx="314.6442" cy="-234" rx="104.7816" ry="18"/>
<text text-anchor="middle" x="314.6442" y="-230.3" font-family="Times,serif" font-size="14.00" fill="#000000">MetrologicalSymbol</text>
</a>
</g>
</g>
<!-- PhysicsDimension&#45;&gt;MetrologicalSymbol -->
<g id="edge8" class="edge">
<title>PhysicsDimension&#45;&gt;MetrologicalSymbol</title>
<path fill="none" stroke="#000000" d="M382.397,-179.7978C371.1468,-188.7979 357.322,-199.8577 345.1007,-209.6348"/>
<polygon fill="none" stroke="#000000" points="342.5696,-207.1774 336.9474,-216.1575 346.9425,-212.6435 342.5696,-207.1774"/>
</g>
<!-- BaseUnit&#45;&gt;UnitSymbol -->
<g id="edge5" class="edge">
<title>BaseUnit&#45;&gt;UnitSymbol</title>
<path fill="none" stroke="#000000" d="M342.9785,-104.9184C321.0779,-115.5728 291.3585,-130.0309 267.3102,-141.73"/>
<polygon fill="none" stroke="#000000" points="265.526,-138.7058 258.0648,-146.2278 268.5883,-145.0004 265.526,-138.7058"/>
</g>
<!-- UnitOne -->
<g id="node7" class="node">
<title>UnitOne</title>
<g id="a_node7"><a xlink:href="http://emmo.info/emmo/middle/metrology#EMMO_5ebd5e01_0ed3_49a2_a30d_cd05cbe72978" xlink:title="UnitOne">
<ellipse fill="#ffffcc" stroke="#000000" cx="373.6442" cy="-18" rx="50.0912" ry="18"/>
<text text-anchor="middle" x="373.6442" y="-14.3" font-family="Times,serif" font-size="14.00" fill="#000000">UnitOne</text>
</a>
</g>
</g>
<!-- UnitOne&#45;&gt;BaseUnit -->
<g id="edge2" class="edge">
<title>UnitOne&#45;&gt;BaseUnit</title>
<path fill="none" stroke="#000000" d="M373.6442,-36.1686C373.6442,-43.869 373.6442,-53.0257 373.6442,-61.5834"/>
<polygon fill="none" stroke="#000000" points="370.1443,-61.5867 373.6442,-71.5867 377.1443,-61.5868 370.1443,-61.5867"/>
</g>
<!-- MetrologicalSymbol&#45;&gt;Symbol -->
<g id="edge1" class="edge">
<title>MetrologicalSymbol&#45;&gt;Symbol</title>
<path fill="none" stroke="#000000" d="M365.5576,-249.8007C405.8413,-262.3026 461.6087,-279.6097 500.5768,-291.7032"/>
<polygon fill="none" stroke="#000000" points="500.01,-295.1919 510.5981,-294.8133 502.0848,-288.5065 500.01,-295.1919"/>
</g>
<!-- UTF8 -->
<g id="node9" class="node">
<title>UTF8</title>
<g id="a_node9"><a xlink:href="http://emmo.info/emmo/middle/metrology#EMMO_e13b2173_1dec_4b97_9ac1_1dc4b418612a" xlink:title="UTF8">
<ellipse fill="#ffffcc" stroke="#000000" stroke-width="2" cx="711.6442" cy="-234" rx="37.0935" ry="18"/>
<text text-anchor="middle" x="711.6442" y="-230.3" font-family="Times,serif" font-size="14.00" fill="#000000">UTF8</text>
</a>
</g>
</g>
<!-- UTF8&#45;&gt;Symbol -->
<g id="edge9" class="edge">
<title>UTF8&#45;&gt;Symbol</title>
<path fill="none" stroke="#000000" d="M684.0269,-246.0512C657.4538,-257.6467 616.978,-275.3089 586.8344,-288.4624"/>
<polygon fill="none" stroke="#000000" points="585.2069,-285.3539 577.4413,-292.5613 588.0065,-291.7696 585.2069,-285.3539"/>
</g>
<!-- SpecialUnit&#45;&gt;UnitSymbol -->
<g id="edge7" class="edge">
<title>SpecialUnit&#45;&gt;UnitSymbol</title>
<path fill="none" stroke="#000000" d="M99.9682,-105.4458C124.0114,-116.2653 156.3324,-130.8097 182.176,-142.4393"/>
<polygon fill="none" stroke="#000000" points="180.8214,-145.6678 191.3769,-146.5797 183.694,-139.2843 180.8214,-145.6678"/>
</g>
<!-- UnitSymbol&#45;&gt;MetrologicalSymbol -->
<g id="edge6" class="edge">
<title>UnitSymbol&#45;&gt;MetrologicalSymbol</title>
<path fill="none" stroke="#000000" d="M246.7359,-179.063C258.121,-188.2734 272.3637,-199.7956 284.8613,-209.906"/>
<polygon fill="none" stroke="#000000" points="282.7985,-212.7392 292.7744,-216.3076 287.2012,-207.297 282.7985,-212.7392"/>
</g>
<!-- key1 -->
<g id="node13" class="node">
<title>key1</title>
<text text-anchor="start" x="457.6442" y="-13.8" font-family="Times,serif" font-size="14.00" fill="#000000">isA</text>
</g>
<!-- key2 -->
<g id="node14" class="node">
<title>key2</title>
<text text-anchor="start" x="538.6442" y="-13.8" font-family="Times,serif" font-size="14.00" fill="#000000"> </text>
</g>
<!-- key1&#45;&gt;key2 -->
<g id="edge14" class="edge">
<title>key1:e&#45;&gt;key2:w</title>
<path fill="none" stroke="#000000" d="M482.6442,-19C502.8942,-19 510.3297,-19 526.5752,-19"/>
<polygon fill="none" stroke="#000000" points="526.6442,-22.5001 536.6442,-19 526.6441,-15.5001 526.6442,-22.5001"/>
</g>
</g>
</svg>
