<?xml version="1.0" encoding="UTF-8" standalone="no"?>
<!DOCTYPE svg PUBLIC "-//W3C//DTD SVG 1.1//EN"
 "http://www.w3.org/Graphics/SVG/1.1/DTD/svg11.dtd">
<!-- Generated by graphviz version 2.40.1 (0)
 -->
<!-- Title: %3 Pages: 1 -->
<svg width="1194pt" height="188pt"
 viewBox="0.00 0.00 1194.09 188.00" xmlns="http://www.w3.org/2000/svg" xmlns:xlink="http://www.w3.org/1999/xlink">
<g id="graph0" class="graph" transform="scale(1 1) rotate(0) translate(4 184)">
<title>%3</title>
<polygon fill="#ffffff" stroke="transparent" points="-4,4 -4,-184 1190.0911,-184 1190.0911,4 -4,4"/>
<!-- Milli -->
<g id="node1" class="node">
<title>Milli</title>
<g id="a_node1"><a xlink:href="http://emmo.info/emmo/middle/siunits#EMMO_a3a701ed_6f7d_4a10_9aee_dfa1961fc7b7" xlink:title="Milli">
<ellipse fill="#ffffcc" stroke="#000000" cx="52.0911" cy="-18" rx="31.6951" ry="18"/>
<text text-anchor="middle" x="52.0911" y="-14.3" font-family="Times,serif" font-size="14.00" fill="#000000">Milli</text>
</a>
</g>
</g>
<!-- LatinSmallLetterM -->
<g id="node2" class="node">
<title>LatinSmallLetterM</title>
<g id="a_node2"><a xlink:href="http://emmo.info/emmo/middle/metrology#EMMO_aa0d5cde_cbdc_4815_b46d_2f76b00a6bde" xlink:title="LatinSmallLetterM">
<ellipse fill="#ffc880" stroke="#000000" cx="100.0911" cy="-90" rx="100.1823" ry="18"/>
<text text-anchor="middle" x="100.0911" y="-86.3" font-family="Times,serif" font-size="14.00" fill="#000000">LatinSmallLetterM</text>
</a>
</g>
</g>
<!-- Milli&#45;&gt;LatinSmallLetterM -->
<g id="edge1" class="edge">
<title>Milli&#45;&gt;LatinSmallLetterM</title>
<path fill="none" stroke="#000000" d="M63.4664,-35.063C69.1549,-43.5957 76.1661,-54.1125 82.5263,-63.6528"/>
<polygon fill="none" stroke="#000000" points="79.6684,-65.6757 88.1276,-72.0547 85.4928,-61.7928 79.6684,-65.6757"/>
</g>
<!-- UTF8 -->
<g id="node11" class="node">
<title>UTF8</title>
<g id="a_node11"><a xlink:href="http://emmo.info/emmo/middle/metrology#EMMO_e13b2173_1dec_4b97_9ac1_1dc4b418612a" xlink:title="UTF8">
<ellipse fill="#ffffcc" stroke="#000000" stroke-width="2" cx="574.0911" cy="-162" rx="37.0935" ry="18"/>
<text text-anchor="middle" x="574.0911" y="-158.3" font-family="Times,serif" font-size="14.00" fill="#000000">UTF8</text>
</a>
</g>
</g>
<!-- LatinSmallLetterM&#45;&gt;UTF8 -->
<g id="edge8" class="edge">
<title>LatinSmallLetterM&#45;&gt;UTF8</title>
<path fill="none" stroke="#000000" d="M173.7331,-102.2063C185.8749,-104.1741 198.3323,-106.1658 210.0911,-108 324.4684,-125.8412 459.2919,-145.4796 528.3159,-155.4328"/>
<polygon fill="none" stroke="#000000" points="528.0171,-158.9258 538.414,-156.8875 529.0153,-151.9973 528.0171,-158.9258"/>
</g>
<!-- MicroUnit -->
<g id="node3" class="node">
<title>MicroUnit</title>
<g id="a_node3"><a xlink:href="http://emmo.info/emmo/middle/metrology#EMMO_2cfdcca6_6231_48aa_81b5_388b464bfe80" xlink:title="MicroUnit">
<ellipse fill="#ffc880" stroke="#000000" cx="277.0911" cy="-90" rx="58.4896" ry="18"/>
<text text-anchor="middle" x="277.0911" y="-86.3" font-family="Times,serif" font-size="14.00" fill="#000000">MicroUnit</text>
</a>
</g>
</g>
<!-- MicroUnit&#45;&gt;UTF8 -->
<g id="edge3" class="edge">
<title>MicroUnit&#45;&gt;UTF8</title>
<path fill="none" stroke="#000000" d="M321.0077,-102.013C328.6906,-104.0532 336.6158,-106.1188 344.0911,-108 408.6202,-124.2389 483.7296,-141.5821 530.0952,-152.1087"/>
<polygon fill="none" stroke="#000000" points="529.5787,-155.5803 540.1049,-154.3766 531.1255,-148.7533 529.5787,-155.5803"/>
</g>
<!-- Micro -->
<g id="node4" class="node">
<title>Micro</title>
<g id="a_node4"><a xlink:href="http://emmo.info/emmo/middle/siunits#EMMO_9ff3bf8e_2168_406e_8251_1d158fc948ae" xlink:title="Micro">
<ellipse fill="#ffffcc" stroke="#000000" cx="277.0911" cy="-18" rx="38.1938" ry="18"/>
<text text-anchor="middle" x="277.0911" y="-14.3" font-family="Times,serif" font-size="14.00" fill="#000000">Micro</text>
</a>
</g>
</g>
<!-- Micro&#45;&gt;MicroUnit -->
<g id="edge9" class="edge">
<title>Micro&#45;&gt;MicroUnit</title>
<path fill="none" stroke="#000000" d="M277.0911,-36.1686C277.0911,-43.869 277.0911,-53.0257 277.0911,-61.5834"/>
<polygon fill="none" stroke="#000000" points="273.5912,-61.5867 277.0911,-71.5867 280.5912,-61.5868 273.5912,-61.5867"/>
</g>
<!-- Metre -->
<g id="node5" class="node">
<title>Metre</title>
<g id="a_node5"><a xlink:href="http://emmo.info/emmo/middle/siunits#EMMO_7db11dbf_a643_464a_9b56_07eabcc3e9c5" xlink:title="Metre">
<ellipse fill="#ffffcc" stroke="#000000" cx="141.0911" cy="-18" rx="38.9931" ry="18"/>
<text text-anchor="middle" x="141.0911" y="-14.3" font-family="Times,serif" font-size="14.00" fill="#000000">Metre</text>
</a>
</g>
</g>
<!-- Metre&#45;&gt;LatinSmallLetterM -->
<g id="edge11" class="edge">
<title>Metre&#45;&gt;LatinSmallLetterM</title>
<path fill="none" stroke="#000000" d="M131.1662,-35.4292C126.4381,-43.7321 120.6767,-53.8498 115.4049,-63.1075"/>
<polygon fill="none" stroke="#000000" points="112.2598,-61.5576 110.3528,-71.9794 118.3427,-65.0215 112.2598,-61.5576"/>
</g>
<!-- LatinCapitalLetterA -->
<g id="node6" class="node">
<title>LatinCapitalLetterA</title>
<g id="a_node6"><a xlink:href="http://emmo.info/emmo/middle/metrology#EMMO_2125f2d0_5050_49e3_a579_4c74bc9fd02e" xlink:title="LatinCapitalLetterA">
<ellipse fill="#ffc880" stroke="#000000" cx="458.0911" cy="-90" rx="104.7816" ry="18"/>
<text text-anchor="middle" x="458.0911" y="-86.3" font-family="Times,serif" font-size="14.00" fill="#000000">LatinCapitalLetterA</text>
</a>
</g>
</g>
<!-- LatinCapitalLetterA&#45;&gt;UTF8 -->
<g id="edge10" class="edge">
<title>LatinCapitalLetterA&#45;&gt;UTF8</title>
<path fill="none" stroke="#000000" d="M486.1715,-107.4292C503.0727,-117.9196 524.6417,-131.3072 542.186,-142.1968"/>
<polygon fill="none" stroke="#000000" points="540.6055,-145.3352 550.9477,-147.6351 544.2971,-139.3877 540.6055,-145.3352"/>
</g>
<!-- Atto -->
<g id="node7" class="node">
<title>Atto</title>
<g id="a_node7"><a xlink:href="http://emmo.info/emmo/middle/siunits#EMMO_42955b2d_b465_4666_86cc_ea3c2d685753" xlink:title="Atto">
<ellipse fill="#ffffcc" stroke="#000000" cx="1011.0911" cy="-18" rx="30.5947" ry="18"/>
<text text-anchor="middle" x="1011.0911" y="-14.3" font-family="Times,serif" font-size="14.00" fill="#000000">Atto</text>
</a>
</g>
</g>
<!-- LatinSmallLetterA -->
<g id="node10" class="node">
<title>LatinSmallLetterA</title>
<g id="a_node10"><a xlink:href="http://emmo.info/emmo/middle/metrology#EMMO_cfcf0f48_09ac_4770_a06a_684a42b4a14c" xlink:title="LatinSmallLetterA">
<ellipse fill="#ffc880" stroke="#000000" cx="1011.0911" cy="-90" rx="97.4827" ry="18"/>
<text text-anchor="middle" x="1011.0911" y="-86.3" font-family="Times,serif" font-size="14.00" fill="#000000">LatinSmallLetterA</text>
</a>
</g>
</g>
<!-- Atto&#45;&gt;LatinSmallLetterA -->
<g id="edge6" class="edge">
<title>Atto&#45;&gt;LatinSmallLetterA</title>
<path fill="none" stroke="#000000" d="M1011.0911,-36.1686C1011.0911,-43.869 1011.0911,-53.0257 1011.0911,-61.5834"/>
<polygon fill="none" stroke="#000000" points="1007.5912,-61.5867 1011.0911,-71.5867 1014.5912,-61.5868 1007.5912,-61.5867"/>
</g>
<!-- GreekSmallLetterMu -->
<g id="node8" class="node">
<title>GreekSmallLetterMu</title>
<g id="a_node8"><a xlink:href="http://emmo.info/emmo/middle/metrology#EMMO_1e9c2a4b_abb9_4b27_bd9c_e31aac337a04" xlink:title="GreekSmallLetterMu">
<ellipse fill="#ffc880" stroke="#000000" cx="690.0911" cy="-90" rx="109.6807" ry="18"/>
<text text-anchor="middle" x="690.0911" y="-86.3" font-family="Times,serif" font-size="14.00" fill="#000000">GreekSmallLetterMu</text>
</a>
</g>
</g>
<!-- GreekSmallLetterMu&#45;&gt;UTF8 -->
<g id="edge7" class="edge">
<title>GreekSmallLetterMu&#45;&gt;UTF8</title>
<path fill="none" stroke="#000000" d="M662.0108,-107.4292C645.1095,-117.9196 623.5406,-131.3072 605.9962,-142.1968"/>
<polygon fill="none" stroke="#000000" points="603.8851,-139.3877 597.2345,-147.6351 607.5767,-145.3352 603.8851,-139.3877"/>
</g>
<!-- Space -->
<g id="node9" class="node">
<title>Space</title>
<g id="a_node9"><a xlink:href="http://emmo.info/emmo/middle/metrology#EMMO_ea192c80_6029_4410_863c_8eed7ea52037" xlink:title="Space">
<ellipse fill="#ffc880" stroke="#000000" cx="857.0911" cy="-90" rx="38.9931" ry="18"/>
<text text-anchor="middle" x="857.0911" y="-86.3" font-family="Times,serif" font-size="14.00" fill="#000000">Space</text>
</a>
</g>
</g>
<!-- Space&#45;&gt;UTF8 -->
<g id="edge2" class="edge">
<title>Space&#45;&gt;UTF8</title>
<path fill="none" stroke="#000000" d="M827.3428,-101.8553C821.3489,-104.0454 815.0568,-106.2047 809.0911,-108 743.736,-127.6679 666.3106,-144.1864 618.6969,-153.5898"/>
<polygon fill="none" stroke="#000000" points="617.8556,-150.1879 608.7139,-155.5432 619.1999,-157.0577 617.8556,-150.1879"/>
</g>
<!-- LatinSmallLetterA&#45;&gt;UTF8 -->
<g id="edge4" class="edge">
<title>LatinSmallLetterA&#45;&gt;UTF8</title>
<path fill="none" stroke="#000000" d="M939.2578,-102.2629C927.8307,-104.195 916.1388,-106.1608 905.0911,-108 803.0803,-124.9822 683.2905,-144.3932 619.4953,-154.6883"/>
<polygon fill="none" stroke="#000000" points="618.6892,-151.273 609.3742,-156.3209 619.804,-158.1837 618.6892,-151.273"/>
</g>
<!-- Ampere -->
<g id="node12" class="node">
<title>Ampere</title>
<g id="a_node12"><a xlink:href="http://emmo.info/emmo/middle/siunits#EMMO_db5dd38d_ac79_4af6_8782_fee7e7150ae8" xlink:title="Ampere">
<ellipse fill="#ffffcc" stroke="#000000" cx="458.0911" cy="-18" rx="47.3916" ry="18"/>
<text text-anchor="middle" x="458.0911" y="-14.3" font-family="Times,serif" font-size="14.00" fill="#000000">Ampere</text>
</a>
</g>
</g>
<!-- Ampere&#45;&gt;LatinCapitalLetterA -->
<g id="edge5" class="edge">
<title>Ampere&#45;&gt;LatinCapitalLetterA</title>
<path fill="none" stroke="#000000" d="M458.0911,-36.1686C458.0911,-43.869 458.0911,-53.0257 458.0911,-61.5834"/>
<polygon fill="none" stroke="#000000" points="454.5912,-61.5867 458.0911,-71.5867 461.5912,-61.5868 454.5912,-61.5867"/>
</g>
<!-- key1 -->
<g id="node13" class="node">
<title>key1</title>
<text text-anchor="start" x="1076.0911" y="-13.8" font-family="Times,serif" font-size="14.00" fill="#000000">isA</text>
</g>
<!-- key2 -->
<g id="node14" class="node">
<title>key2</title>
<text text-anchor="start" x="1157.0911" y="-13.8" font-family="Times,serif" font-size="14.00" fill="#000000"> </text>
</g>
<!-- key1&#45;&gt;key2 -->
<g id="edge12" class="edge">
<title>key1:e&#45;&gt;key2:w</title>
<path fill="none" stroke="#000000" d="M1101.0911,-19C1121.3411,-19 1128.7767,-19 1145.0221,-19"/>
<polygon fill="none" stroke="#000000" points="1145.0912,-22.5001 1155.0911,-19 1145.0911,-15.5001 1145.0912,-22.5001"/>
</g>
</g>
</svg>
