<?xml version="1.0" standalone="no"?>
<!DOCTYPE svg PUBLIC "-//W3C//DTD SVG 1.1//EN"
	"http://www.w3.org/Graphics/SVG/1.1/DTD/svg11.dtd">
<svg xmlns="http://www.w3.org/2000/svg" version="1.1"
	xmlns:xlink="http://www.w3.org/1999/xlink"
	color="black"
	width="793.80px" height="1122.66px">
<style type="text/css">
.fill {fill: currentColor}
.stroke {stroke: currentColor; fill: none}
text{white-space: pre}
</style>
<title>new.abc page 1</title>
<!-- Creator: abcm2ps-8.14.5 -->
<!-- CreationDate: Mar 19, 2020 18:33 -->
<!-- CommandLine: -k 640 -v -A -O new_page_.svg new.abc -->
<defs>

<path id="white_diamond_head" d="m-3 0l 3 3l 3 -3 l -3 -3 l -3 3"
 class="stroke" style="stroke-width:1.2"/>

<path id="black_diamond_head" d="m-3 0l 3 3l 3 -3 l -3 -3 l -3 3"
 class="fill"/>

<path id="x_head" d="m-4 -4l8 8m0 -8l-8 8"
 class="stroke" style="stroke-width:1.2"/>
<path id="rect1_head" d="m-3 -1.5l0 3l6 0 l0 -3l-3 0" class="fill"/>
<path id="rect2_head" d="m-3 -2l0 4l6 0 l0 -4l-4 0" class="fill"/>
<circle id="spot_head" r="2.5" class="fill"/>
<circle id="donut_head" r="3.5" stroke-width="1.5" class="stroke"/>
<circle id="spot_head_small" r="2.2" class="fill"/>
<circle id="donut_head_small" r="2.6" stroke-width="1.5" class="stroke"/>
</defs>

<g stroke-width="0.70" font-family="FreeSerif" font-size="16.00">
<text x="396.90" y="23.60" text-anchor="middle"> </text>
</g>
<g stroke-width="0.70" font-family="Times" font-size="12.00">
<text x="396.90" y="1107.10" text-anchor="middle">  ; page 1 </text>
<text x="396.90" y="1119.10" text-anchor="middle">&apos;new.abc&apos; Mar 19, 2020 18:33 ;For MEW by Larry Myerscough using abcm2ps-8.14.5</text>
</g>
<g stroke-width="0.70" transform="scale(1.013)" font-family="Times" font-size="12.00">
<!-- subtitle: some notes; hardly what you'd call a tune! -->
</g>
<g stroke-width="0.70" transform="scale(1.013)" font-family="FreeSerif" font-size="16.00">
<text x="396.04" y="85.37" text-anchor="middle">some notes; hardly what you&apos;d call a tune!</text>
</g>
<g stroke-width="0.70" transform="scale(0.709)" font-family="FreeSerif" font-size="16.00">
<defs>
<ellipse id="hd" rx="4.1" ry="2.9"
	transform="rotate(-20)" class="fill"/>
</defs>
<use x="181.34" y="147.81" xlink:href="#hd"/>
<path d="M184.84 147.81v-21.00" class="stroke"/>
</g>
<g stroke-width="0.70" transform="scale(1.013)" font-family="FreeSerif" font-size="15.00" font-weight="bold">
<text x="134.64" y="105.57">= 88</text>
<defs>
<g id="rdots" class="fill">
	<circle cx="0" cy="-9" r="1.2"/>
	<circle cx="0" cy="-15" r="1.2"/>
</g>
</defs>
<use x="125.34" y="143.57" xlink:href="#rdots"/>
<path class="stroke" stroke-width="1"
	d="M121.34 143.57v-24.00"/>
<path class="stroke" stroke-width="3"
	d="M116.84 143.57v-24.00"/>
<abc type="B" row="16" col="0" x="108.34" y="115.57" width="28.00" height="32"/>
<path class="stroke" stroke-width="1"
	d="M260.04 143.57v-24.00"/>
<abc type="B" row="16" col="7" x="250.04" y="115.57" width="20.00" height="32"/>
<path class="stroke" stroke-width="1"
	d="M456.54 143.57v-24.00"/>
<abc type="B" row="16" col="16" x="446.54" y="115.57" width="20.00" height="32"/>
<path class="stroke" stroke-width="1"
	d="M717.04 143.57v-24.00"/>
<abc type="B" row="16" col="26" x="707.04" y="115.57" width="20.00" height="32"/>
<path d="m66.34 143.57
	h650.70
	M66.34 137.57
	h650.70
	M66.34 131.57
	h650.70
	M66.34 125.57
	h650.70
	M66.34 119.57
	h650.70
	" class="stroke"/>
<defs>
<path id="utclef" class="fill" d="m-50 -90
	c-72 -41 -72 -158 52 -188
	150 -10 220 188 90 256
	-114 52 -275 0 -293 -136
	-15 -181 93 -229 220 -334
	88 -87 79 -133 62 -210
	-51 33 -94 105 -89 186
	17 267 36 374 49 574
	6 96 -19 134 -77 135
	-80 1 -126 -93 -61 -133
	85 -41 133 101 31 105
	23 17 92 37 90 -92
	-10 -223 -39 -342 -50 -617
	0 -90 0 -162 96 -232
	56 72 63 230 22 289
	-74 106 -257 168 -255 316
	9 153 148 185 252 133
	86 -65 29 -192 -80 -176
	-71 12 -105 67 -59 124"/>
<use id="tclef" transform="translate(0,6) scale(0.045)"
	xlink:href="#utclef"/>
</defs>
<use x="78.34" y="137.57" xlink:href="#tclef"/>
<abc type="c" row="16" col="0" x="64.34" y="107.57" width="28.00" height="46"/>
<defs>
<path id="csig" class="fill" d="
	m6 -5.3
	c0.9 0 2.3 0.7 2.4 2.2
	-1.2 -2 -3.6 0.1 -1.6 1.7
	2 1 3.8 -3.5 -0.8 -4.7
	-2 -0.4 -6.4 1.3 -5.8 7
	0.4 6.4 7.9 6.8 9.1 0.7
	-2.3 5.6 -6.7 5.1 -6.8 0
	-0.5 -4.4 0.7 -7.5 3.5 -6.9"/>
</defs>
<use x="91.84" y="131.57" xlink:href="#csig"/>
<abc type="M" row="16" col="0" x="88.34" y="115.57" width="24.00" height="32"/>
<defs>
<path id="hl" class="stroke" d="m-6 0h12"/>
</defs>
<use x="143.44" y="149.57" xlink:href="#hl"/>
<defs>
<path id="Hd" class="fill" d="m3 -1.6
	c-1 -1.8 -7 1.4 -6 3.2
	1 1.8 7 -1.4 6 -3.2
	m0.5 -0.3
	c2 3.8 -5 7.6 -7 3.8
	-2 -3.8 5 -7.6 7 -3.8"/>
</defs>
<use x="143.44" y="149.57" xlink:href="#Hd"/>
<path d="M146.94 149.57v-21.00" class="stroke"/>
<abc type="N" row="16" col="3" x="136.44" y="124.57" width="14.00" height="31"/>
<use x="212.04" y="146.57" xlink:href="#Hd"/>
<path d="M215.54 146.57v-21.00" class="stroke"/>
<abc type="N" row="16" col="5" x="205.04" y="121.57" width="14.00" height="31"/>
<use x="277.24" y="143.57" xlink:href="#hd"/>
<path d="M280.74 143.57v-21.00" class="stroke"/>
<abc type="N" row="16" col="8" x="270.74" y="118.57" width="13.00" height="31"/>
<use x="325.64" y="140.57" xlink:href="#hd"/>
<path d="M329.14 140.57v-21.00" class="stroke"/>
<abc type="N" row="16" col="10" x="319.14" y="115.57" width="13.00" height="31"/>
<use x="374.14" y="137.57" xlink:href="#hd"/>
<path d="M377.64 137.57v-21.00" class="stroke"/>
<abc type="N" row="16" col="12" x="367.64" y="112.57" width="13.00" height="31"/>
<use x="422.54" y="134.57" xlink:href="#hd"/>
<path d="M426.04 134.57v-21.00" class="stroke"/>
<abc type="N" row="16" col="14" x="416.04" y="109.57" width="13.00" height="31"/>
<abc type="b" row="16" col="17" x="467.14" y="149.57" width="6.00" height="6"/>
<path class="fill"
	d="M469.84 151.87l93.30 -7.60v-3.20l-93.30 7.60"/>
<use x="473.64" y="131.57" xlink:href="#hd"/>
<path d="M470.14 131.57v19.30" class="stroke"/>
<abc type="N" row="16" col="17" x="467.14" y="125.57" width="13.00" height="30"/>
<use x="504.54" y="128.57" xlink:href="#hd"/>
<path d="M501.04 128.57v19.80" class="stroke"/>
<abc type="N" row="16" col="18" x="498.04" y="122.57" width="13.00" height="31"/>
<use x="535.34" y="125.57" xlink:href="#hd"/>
<path d="M531.84 125.57v20.20" class="stroke"/>
<abc type="N" row="16" col="19" x="528.84" y="119.57" width="13.00" height="31"/>
<use x="566.24" y="122.57" xlink:href="#hd"/>
<path d="M562.74 122.57v20.70" class="stroke"/>
<abc type="N" row="16" col="20" x="559.74" y="116.57" width="13.00" height="32"/>
<abc type="e" row="16" col="20" x="559.74" y="142.57" width="6.00" height="6"/>
<abc type="b" row="16" col="22" x="594.04" y="138.57" width="6.00" height="6"/>
<path class="fill"
	d="M596.64 139.87l93.30 -7.60v-3.20l-93.30 7.60"/>
<use x="600.54" y="119.57" xlink:href="#hd"/>
<path d="M597.04 119.57v19.30" class="stroke"/>
<abc type="N" row="16" col="22" x="594.04" y="113.57" width="13.00" height="31"/>
<use x="631.34" y="116.57" xlink:href="#hd"/>
<path d="M627.84 116.57v19.80" class="stroke"/>
<abc type="N" row="16" col="23" x="624.84" y="110.57" width="13.00" height="32"/>
<use x="662.24" y="113.57" xlink:href="#hl"/>
<use x="662.24" y="113.57" xlink:href="#hd"/>
<path d="M658.74 113.57v20.20" class="stroke"/>
<abc type="N" row="16" col="24" x="655.74" y="107.57" width="13.00" height="32"/>
<use x="693.04" y="113.57" xlink:href="#hl"/>
<use x="693.04" y="110.57" xlink:href="#hd"/>
<path d="M689.54 110.57v20.70" class="stroke"/>
<abc type="N" row="16" col="25" x="685.04" y="104.57" width="14.50" height="33"/>
<abc type="e" row="16" col="25" x="685.04" y="131.57" width="6.00" height="6"/>
</g>
<g stroke-width="0.70" transform="scale(1.013)" font-family="FreeSerif" font-size="15.00" font-weight="bold">
<path class="stroke" stroke-width="3"
	d="M255.04 217.57v-24.00"/>
<path class="stroke" stroke-width="1"
	d="M250.54 217.57v-24.00"/>
<use x="246.54" y="217.57" xlink:href="#rdots"/>
<abc type="B" row="17" col="17" x="238.54" y="189.57" width="25.00" height="32"/>
<path d="m66.34 217.57
	h190.20
	M66.34 211.57
	h190.20
	M66.34 205.57
	h190.20
	M66.34 199.57
	h190.20
	M66.34 193.57
	h190.20
	" class="stroke"/>
<use x="78.34" y="211.57" xlink:href="#tclef"/>
<abc type="c" row="17" col="0" x="64.34" y="181.57" width="28.00" height="46"/>
<abc type="b" row="17" col="0" x="88.34" y="204.57" width="6.00" height="6"/>
<path class="fill"
	d="M99.04 205.77l67.90 0.00v-3.20l-67.90 -0.00"/>
<path class="fill"
	d="M99.34 200.77l67.20 0.00v-3.20l-67.20 -0.00"/>
<use x="102.84" y="187.57" xlink:href="#hl"/>
<use x="102.84" y="181.57" xlink:href="#hl"/>
<use x="102.84" y="181.57" xlink:href="#hd"/>
<path d="M99.34 181.57v23.20" class="stroke"/>
<abc type="N" row="17" col="0" x="88.34" y="175.57" width="21.00" height="35"/>
<use x="125.24" y="187.57" xlink:href="#hl"/>
<use x="125.24" y="181.57" xlink:href="#hl"/>
<use x="125.24" y="178.57" xlink:href="#hd"/>
<path d="M121.74 178.57v26.20" class="stroke"/>
<abc type="N" row="17" col="3" x="117.24" y="172.57" width="14.50" height="38"/>
<use x="147.64" y="187.57" xlink:href="#hl"/>
<use x="147.64" y="181.57" xlink:href="#hl"/>
<use x="147.64" y="175.57" xlink:href="#hl"/>
<use x="147.64" y="175.57" xlink:href="#hd"/>
<path d="M144.14 175.57v29.20" class="stroke"/>
<abc type="N" row="17" col="6" x="139.64" y="169.57" width="14.50" height="41"/>
<use x="170.04" y="187.57" xlink:href="#hl"/>
<use x="170.04" y="181.57" xlink:href="#hl"/>
<use x="170.04" y="175.57" xlink:href="#hl"/>
<use x="170.04" y="172.57" xlink:href="#hd"/>
<path d="M166.54 172.57v32.20" class="stroke"/>
<abc type="N" row="17" col="9" x="162.04" y="166.57" width="14.50" height="44"/>
<abc type="e" row="17" col="9" x="162.04" y="204.57" width="6.00" height="6"/>
<use x="192.44" y="223.57" xlink:href="#hl"/>
<use x="192.44" y="229.57" xlink:href="#hl"/>
<use x="192.44" y="235.57" xlink:href="#hl"/>
<use x="192.44" y="241.57" xlink:href="#hl"/>
<use x="192.44" y="244.57" xlink:href="#Hd"/>
<circle class="fill" cx="201.14" cy="244.57" r="1.2"/>
<path d="M195.94 244.57v-39.00" class="stroke"/>
<abc type="N" row="17" col="13" x="185.44" y="201.57" width="22.00" height="49"/>
</g>
</svg>
