<?xml version="1.0" standalone="no"?>
<!DOCTYPE svg PUBLIC "-//W3C//DTD SVG 1.1//EN"
	"http://www.w3.org/Graphics/SVG/1.1/DTD/svg11.dtd">
<svg xmlns="http://www.w3.org/2000/svg" version="1.1"
	xmlns:xlink="http://www.w3.org/1999/xlink"
	color="black"
	width="816.00px" height="1056.00px">
<style type="text/css">
.fill {fill: currentColor}
.stroke {stroke: currentColor; fill: none}
text{white-space: pre}
</style>
<title>/tera/gill/PycharmProjects/MusicRaft/share/abc/old.abc page 1</title>
<!-- Creator: abcm2ps-8.14.2 -->
<!-- CreationDate: Jun  9, 2019 21:28 -->
<!-- CommandLine: -k 640 -v -A -O /tera/gill/PycharmProjects/MusicRaft/share/abc/old_page_.svg /tera/gill/PycharmProjects/MusicRaft/share/abc/old.abc -->
<g stroke-width="0.70">
<path class="stroke" stroke-width="1"
	d="M316.60 118.80v-24.00"/>
<abc type="B" row="6" col="9" x="306.60" y="90.80" width="17.00" height="32"/>
<path d="m67.20 118.80
	h249.40
	M67.20 112.80
	h249.40
	M67.20 106.80
	h249.40
	M67.20 100.80
	h249.40
	M67.20 94.80
	h249.40
	" class="stroke"/>
<defs>
<path id="utclef" class="fill" d="m-50 -90
	c-72 -41 -72 -158 52 -188
	150 -10 220 188 90 256
	-114 52 -275 0 -293 -136
	-15 -181 93 -229 220 -334
	88 -87 79 -133 62 -210
	-51 33 -94 105 -89 186
	17 267 36 374 49 574
	6 96 -19 134 -77 135
	-80 1 -126 -93 -61 -133
	85 -41 133 101 31 105
	23 17 92 37 90 -92
	-10 -223 -39 -342 -50 -617
	0 -90 0 -162 96 -232
	56 72 63 230 22 289
	-74 106 -257 168 -255 316
	9 153 148 185 252 133
	86 -65 29 -192 -80 -176
	-71 12 -105 67 -59 124"/>
<use id="tclef" transform="translate(0,6) scale(0.045)"
	xlink:href="#utclef"/>
</defs>
<use x="79.20" y="112.80" xlink:href="#tclef"/>
<abc type="c" row="6" col="0" x="65.20" y="82.80" width="28.00" height="46"/>
<defs>
<path id="csig" class="fill" d="
	m6 -5.3
	c0.9 0 2.3 0.7 2.4 2.2
	-1.2 -2 -3.6 0.1 -1.6 1.7
	2 1 3.8 -3.5 -0.8 -4.7
	-2 -0.4 -6.4 1.3 -5.8 7
	0.4 6.4 7.9 6.8 9.1 0.7
	-2.3 5.6 -6.7 5.1 -6.8 0
	-0.5 -4.4 0.7 -7.5 3.5 -6.9"/>
</defs>
<use x="92.70" y="106.80" xlink:href="#csig"/>
<abc type="M" row="6" col="0" x="89.20" y="90.80" width="24.00" height="32"/>
<abc type="b" row="6" col="0" x="109.20" y="115.80" width="6.00" height="6"/>
<path class="fill"
	d="M111.90 117.80l77.10 7.80v-3.20l-77.10 -7.80"/>
<defs>
<path id="hl" class="stroke" d="m-6 0h12"/>
</defs>
<use x="115.70" y="88.80" xlink:href="#hl"/>
<defs>
<ellipse id="hd" rx="4.1" ry="2.9"
	transform="rotate(-20)" class="fill"/>
</defs>
<use x="115.70" y="88.80" xlink:href="#hd"/>
<path d="M112.20 88.80v28.00" class="stroke"/>
<abc type="N" row="6" col="0" x="109.20" y="82.80" width="13.00" height="39"/>
<use x="141.20" y="88.80" xlink:href="#hl"/>
<use x="141.20" y="85.80" xlink:href="#hd"/>
<path d="M137.70 85.80v33.60" class="stroke"/>
<abc type="N" row="6" col="1" x="133.20" y="79.80" width="14.50" height="45"/>
<use x="166.60" y="103.80" xlink:href="#hd"/>
<path d="M163.10 103.80v18.20" class="stroke"/>
<abc type="N" row="6" col="2" x="160.10" y="97.80" width="13.00" height="29"/>
<use x="192.10" y="100.80" xlink:href="#hd"/>
<path d="M188.60 100.80v23.80" class="stroke"/>
<abc type="N" row="6" col="3" x="185.60" y="94.80" width="13.00" height="35"/>
<abc type="e" row="6" col="3" x="185.60" y="123.80" width="6.00" height="6"/>
<abc type="b" row="6" col="5" x="213.90" y="115.80" width="6.00" height="6"/>
<path class="fill"
	d="M216.60 117.80l77.10 7.80v-3.20l-77.10 -7.80"/>
<use x="220.40" y="88.80" xlink:href="#hl"/>
<use x="220.40" y="88.80" xlink:href="#hd"/>
<path d="M216.90 88.80v28.00" class="stroke"/>
<abc type="N" row="6" col="5" x="213.90" y="82.80" width="13.00" height="39"/>
<use x="245.90" y="88.80" xlink:href="#hl"/>
<use x="245.90" y="85.80" xlink:href="#hd"/>
<path d="M242.40 85.80v33.60" class="stroke"/>
<abc type="N" row="6" col="6" x="237.90" y="79.80" width="14.50" height="45"/>
<use x="271.30" y="103.80" xlink:href="#hd"/>
<path d="M267.80 103.80v18.20" class="stroke"/>
<abc type="N" row="6" col="7" x="264.80" y="97.80" width="13.00" height="29"/>
<use x="296.80" y="100.80" xlink:href="#hd"/>
<path d="M293.30 100.80v23.80" class="stroke"/>
<abc type="N" row="6" col="8" x="290.30" y="94.80" width="13.00" height="35"/>
<abc type="e" row="6" col="8" x="290.30" y="123.80" width="6.00" height="6"/>
</g>
</svg>
