<?xml version="1.0" standalone="no"?>
<!DOCTYPE svg PUBLIC "-//W3C//DTD SVG 1.1//EN"
	"http://www.w3.org/Graphics/SVG/1.1/DTD/svg11.dtd">
<svg xmlns="http://www.w3.org/2000/svg" version="1.1"
	xmlns:xlink="http://www.w3.org/1999/xlink"
	color="black"
	width="816.00px" height="1056.00px">
<style type="text/css">
.fill {fill: currentColor}
.stroke {stroke: currentColor; fill: none}
text{white-space: pre}
</style>
<title>sample5.abc page 1</title>
<!-- Creator: abcm2ps-8.14.5 -->
<!-- CreationDate: Mar 17, 2020 11:59 -->
<!-- CommandLine: -k 640 -v -A -O sample5_page_.svg sample5.abc -->
<g stroke-width="0.70">
<!-- title: New features in abcm2ps-5.x.x -->
</g>
<g stroke-width="0.70" font-family="FreeSerif" font-size="20.00">
<text x="408.00" y="87.80" text-anchor="middle">New features in abcm2ps-5.x.x</text>
<!-- subtitle: Subtitle one -->
</g>
<g stroke-width="0.70" font-family="FreeSerif" font-size="16.00">
<text x="408.00" y="109.20" text-anchor="middle">Subtitle one</text>
<!-- subtitle: Subtitle two -->
<text x="408.00" y="129.80" text-anchor="middle">Subtitle two</text>
</g>
<g stroke-width="0.70" font-family="FreeSerif" font-size="15.00" font-weight="bold">
<text x="67.20" y="109.20">Tempo in the tune header</text>
</g>
<g stroke-width="0.70" font-family="FreeSerif" font-size="14.00" font-style="italic">
<text x="748.80" y="109.20" text-anchor="end">This is the composer field</text>
<text x="748.80" y="124.60" text-anchor="end">This is the Area/Author field</text>
</g>
<g stroke-width="0.70" font-family="FreeSerif" font-size="15.00" font-weight="bold">
<text x="123.70" y="152.80">Tempo in the tune body</text>
<path class="stroke" stroke-width="1"
	d="M377.30 200.80v-24.00"/>
<abc type="B" row="21" col="51" x="367.30" y="172.80" width="20.00" height="32"/>
<path class="stroke" stroke-width="1"
	d="M748.80 200.80v-24.00"/>
<abc type="B" row="23" col="71" x="738.80" y="172.80" width="20.00" height="32"/>
<path d="m67.20 200.80
	h681.60
	M67.20 194.80
	h681.60
	M67.20 188.80
	h681.60
	M67.20 182.80
	h681.60
	M67.20 176.80
	h681.60
	" class="stroke"/>
</g>
<g stroke-width="0.70" font-family="sans" font-size="12.00">
<text x="125.20" y="168.40">C</text>
<text x="200.50" y="168.40">Dm<tspan dx="38.51">G</tspan></text>
<text x="317.90" y="168.40">C</text>
<text x="369.30" y="164.40">&lt;- guitar chords between symbols</text>
<defs>
<path id="utclef" class="fill" d="m-50 -90
	c-72 -41 -72 -158 52 -188
	150 -10 220 188 90 256
	-114 52 -275 0 -293 -136
	-15 -181 93 -229 220 -334
	88 -87 79 -133 62 -210
	-51 33 -94 105 -89 186
	17 267 36 374 49 574
	6 96 -19 134 -77 135
	-80 1 -126 -93 -61 -133
	85 -41 133 101 31 105
	23 17 92 37 90 -92
	-10 -223 -39 -342 -50 -617
	0 -90 0 -162 96 -232
	56 72 63 230 22 289
	-74 106 -257 168 -255 316
	9 153 148 185 252 133
	86 -65 29 -192 -80 -176
	-71 12 -105 67 -59 124"/>
<use id="tclef" transform="translate(0,6) scale(0.045)"
	xlink:href="#utclef"/>
</defs>
<use x="79.20" y="194.80" xlink:href="#tclef"/>
<abc type="c" row="21" col="3" x="65.20" y="164.80" width="28.00" height="46"/>
<defs>
<path id="imsig" class="stroke" stroke-width=".8"
	d="M3 -8a5 5 0 1 1 0 -8"/>
<g id="iMsig">
	<use xlink:href="#imsig"/>
	<path class="fill" d="M0 -10a2 2 0 0 1 0 -4a2 2 0 0 1 0 4"/>
</g>
</defs>
<use x="97.70" y="200.80" xlink:href="#iMsig"/>
<defs>
<path id="csig" class="fill" d="
	m6 -5.3
	c0.9 0 2.3 0.7 2.4 2.2
	-1.2 -2 -3.6 0.1 -1.6 1.7
	2 1 3.8 -3.5 -0.8 -4.7
	-2 -0.4 -6.4 1.3 -5.8 7
	0.4 6.4 7.9 6.8 9.1 0.7
	-2.3 5.6 -6.7 5.1 -6.8 0
	-0.5 -4.4 0.7 -7.5 3.5 -6.9"/>
</defs>
<use x="105.70" y="188.80" xlink:href="#csig"/>
<abc type="M" row="21" col="3" x="89.20" y="172.80" width="37.00" height="32"/>
<defs>
<path id="hl" class="stroke" d="m-6 0h12"/>
</defs>
<use x="128.70" y="206.80" xlink:href="#hl"/>
<defs>
<ellipse id="hd" rx="4.1" ry="2.9"
	transform="rotate(-20)" class="fill"/>
</defs>
<use x="128.70" y="206.80" xlink:href="#hd"/>
<path d="M132.20 206.80v-21.00" class="stroke"/>
<abc type="N" row="21" col="3" x="122.20" y="181.80" width="15.80" height="31"/>
<defs>
<path id="Hd" class="fill" d="m3 -1.6
	c-1 -1.8 -7 1.4 -6 3.2
	1 1.8 7 -1.4 6 -3.2
	m0.5 -0.3
	c2 3.8 -5 7.6 -7 3.8
	-2 -3.8 5 -7.6 7 -3.8"/>
</defs>
<use x="208.50" y="203.80" xlink:href="#Hd"/>
<path d="M212.00 203.80v-21.00" class="stroke"/>
<abc type="N" row="21" col="10" x="198.50" y="178.80" width="41.90" height="31"/>
<use x="321.50" y="206.80" xlink:href="#hl"/>
<use x="321.50" y="206.80" xlink:href="#hd"/>
<path d="M325.00 206.80v-21.00" class="stroke"/>
<abc type="N" row="21" col="15" x="315.00" y="181.80" width="15.80" height="31"/>
<abc type="b" row="22" col="1" x="399.10" y="206.80" width="6.00" height="6"/>
<path class="fill"
	d="M408.70 175.30l108.40 -4.00v3.20l-108.40 4.00"/>
<path class="fill"
	d="M409.10 180.30l107.80 -4.00v3.20l-107.80 4.00"/>
<use x="405.60" y="206.80" xlink:href="#hl"/>
<use x="405.60" y="206.80" xlink:href="#hd"/>
<path d="M409.10 206.80v-30.50" class="stroke"/>
<abc type="N" row="22" col="1" x="399.10" y="170.80" width="13.00" height="42"/>
<use x="441.50" y="200.80" xlink:href="#hd"/>
<path d="M445.00 200.80v-25.90" class="stroke"/>
<abc type="N" row="22" col="4" x="435.00" y="169.80" width="13.00" height="37"/>
<use x="477.40" y="194.80" xlink:href="#hd"/>
<path d="M480.90 194.80v-21.20" class="stroke"/>
<abc type="N" row="22" col="7" x="470.90" y="168.80" width="13.00" height="32"/>
<use x="513.30" y="200.80" xlink:href="#hd"/>
<path d="M516.80 200.80v-28.50" class="stroke"/>
<abc type="N" row="22" col="10" x="506.80" y="166.80" width="13.00" height="40"/>
<abc type="e" row="22" col="10" x="506.80" y="200.80" width="6.00" height="6"/>
<defs>
<path id="srep" class="fill" d="M-1 6l11 -12h3l-11 12h-3"/>
</defs>
<use x="549.30" y="188.80" xlink:href="#srep"/>
<abc type="R" row="23" col="15" x="539.30" y="174.80" width="20.00" height="28"/>
<use x="621.10" y="188.80" xlink:href="#srep"/>
<abc type="R" row="23" col="46" x="611.10" y="174.80" width="20.00" height="28"/>
<use x="692.90" y="188.80" xlink:href="#srep"/>
<abc type="R" row="23" col="59" x="682.90" y="174.80" width="20.00" height="28"/>
</g>
<g stroke-width="0.70" font-family="sans" font-size="12.00">
<path class="stroke" stroke-width="1"
	d="M234.20 272.40v-24.00"/>
<abc type="B" row="24" col="21" x="224.20" y="244.40" width="20.00" height="32"/>
<path class="stroke" stroke-width="1"
	d="M296.20 272.40v-24.00"/>
<abc type="B" row="24" col="40" x="286.20" y="244.40" width="20.00" height="32"/>
<path class="stroke" stroke-width="1"
	d="M358.10 272.40v-24.00"/>
<abc type="B" row="24" col="45" x="348.10" y="244.40" width="20.00" height="32"/>
<path class="stroke" stroke-width="1"
	d="M456.00 272.40v-24.00"/>
<abc type="B" row="25" col="5" x="446.00" y="244.40" width="20.00" height="32"/>
<path class="stroke" stroke-width="1"
	d="M553.70 272.40v-24.00"/>
<abc type="B" row="25" col="10" x="543.70" y="244.40" width="20.00" height="32"/>
<defs>
<g id="mrep2" class="fill">
	<path d="M-5.5 -7.5a1.5 1.5 0 0 1 0 3a1.5 1.5 0 0 1 0 -3
		M5 4.5a1.5 1.5 0 0 1 0 3a1.5 1.5 0 0 1 0 -3"/>
	<path d="M-7 8l14 -10m-14 4l14 -10" class="stroke" stroke-width="1.8"/>
</g>
</defs>
<use x="616.10" y="260.40" xlink:href="#mrep2"/>
<text x="616.10" y="244.40" text-anchor="middle">2</text>
<path class="stroke" stroke-width="1"
	d="M616.10 272.40v-24.00"/>
<abc type="B" row="25" col="27" x="606.10" y="244.40" width="20.00" height="32"/>
<path class="stroke" stroke-width="1"
	d="M678.40 272.40v-24.00"/>
<abc type="B" row="25" col="32" x="668.40" y="244.40" width="20.00" height="32"/>
<path class="stroke" stroke-width="1"
	d="M748.80 272.40v-24.00"/>
<path class="stroke" stroke-width="1"
	d="M745.80 272.40v-24.00"/>
<abc type="B" row="25" col="35" x="738.80" y="244.40" width="20.00" height="32"/>
<path d="m67.20 272.40
	h681.60
	M67.20 266.40
	h681.60
	M67.20 260.40
	h681.60
	M67.20 254.40
	h681.60
	M67.20 248.40
	h681.60
	" class="stroke"/>
<text x="95.70" y="233.00">measure repeat</text>
<use x="79.20" y="266.40" xlink:href="#tclef"/>
<abc type="c" row="24" col="17" x="65.20" y="236.40" width="28.00" height="46"/>
<use x="103.70" y="266.40" xlink:href="#hd"/>
<path d="M107.20 266.40v-21.00" class="stroke"/>
<abc type="N" row="24" col="17" x="89.20" y="241.40" width="21.00" height="31"/>
<use x="138.90" y="263.40" xlink:href="#hd"/>
<path d="M142.40 263.40v-21.00" class="stroke"/>
<abc type="N" row="24" col="18" x="132.40" y="238.40" width="13.00" height="31"/>
<use x="174.20" y="260.40" xlink:href="#hd"/>
<path d="M177.70 260.40v-21.00" class="stroke"/>
<abc type="N" row="24" col="19" x="167.70" y="235.40" width="13.00" height="31"/>
<use x="209.50" y="257.40" xlink:href="#hd"/>
<path d="M206.00 257.40v21.00" class="stroke"/>
<abc type="N" row="24" col="20" x="200.50" y="251.40" width="15.50" height="31"/>
<defs>
<path id="mrep" class="fill"
    d="M-5 -4.5a1.5 1.5 0 0 1 0 3a1.5 1.5 0 0 1 0 -3
	M4.5 2a1.5 1.5 0 0 1 0 3a1.5 1.5 0 0 1 0 -3
	M-7 6l11 -12h3l-11 12h-3"/>
</defs>
<use x="265.20" y="260.40" xlink:href="#mrep"/>
<abc type="R" row="24" col="36" x="258.70" y="246.40" width="13.00" height="28"/>
<use x="327.20" y="260.40" xlink:href="#mrep"/>
<text x="327.20" y="244.40" text-anchor="middle">3<abc type="R" row="24" col="41" x="320.70" y="246.40" width="13.00" height="28"/>
</text>
<use x="371.10" y="266.40" xlink:href="#Hd"/>
<path d="M374.60 266.40v-21.00" class="stroke"/>
<abc type="N" row="25" col="1" x="364.10" y="241.40" width="14.00" height="31"/>
<use x="421.00" y="254.40" xlink:href="#Hd"/>
<path d="M417.50 254.40v21.00" class="stroke"/>
<abc type="N" row="25" col="3" x="412.00" y="248.40" width="16.00" height="31"/>
<use x="469.00" y="260.40" xlink:href="#Hd"/>
<path d="M465.50 260.40v21.00" class="stroke"/>
<abc type="N" row="25" col="6" x="462.00" y="254.40" width="14.00" height="31"/>
<use x="518.80" y="254.40" xlink:href="#Hd"/>
<path d="M515.30 254.40v21.00" class="stroke"/>
<abc type="N" row="25" col="8" x="511.80" y="248.40" width="14.00" height="31"/>
<abc type="R" row="25" col="23" x="577.90" y="246.40" width="14.00" height="28"/>
<abc type="R" row="25" col="28" x="640.30" y="246.40" width="14.00" height="28"/>
<defs>
<path id="HD" class="fill" d="m-2.7 -1.4
	c1.5 -2.8 6.9 0 5.3 2.7
	-1.5 2.8 -6.9 0 -5.3 -2.7
	m8.3 1.4
	c0 -1.5 -2.2 -3 -5.6 -3
	-3.4 0 -5.6 1.5 -5.6 3
	0 1.5 2.2 3 5.6 3
	3.4 0 5.6 -1.5 5.6 -3"/>
</defs>
<use x="693.40" y="257.40" xlink:href="#HD"/>
<abc type="N" row="25" col="33" x="684.40" y="251.40" width="16.00" height="12"/>
</g>
<g stroke-width="0.70" font-family="sans" font-size="12.00">
<path class="stroke" stroke-width="1"
	d="M305.20 348.00v-24.00"/>
<abc type="B" row="27" col="40" x="295.20" y="320.00" width="20.00" height="32"/>
<path class="stroke" stroke-width="1"
	d="M418.60 348.00v-24.00"/>
<abc type="B" row="27" col="54" x="408.60" y="320.00" width="20.00" height="32"/>
<path class="stroke" stroke-width="1"
	d="M635.40 348.00v-24.00"/>
<abc type="B" row="28" col="40" x="625.40" y="320.00" width="20.00" height="32"/>
<path class="stroke" stroke-width="1"
	d="M748.80 348.00v-24.00"/>
<abc type="B" row="28" col="54" x="738.80" y="320.00" width="20.00" height="32"/>
<path d="m67.20 348.00
	h681.60
	M67.20 342.00
	h681.60
	M67.20 336.00
	h681.60
	M67.20 330.00
	h681.60
	M67.20 324.00
	h681.60
	" class="stroke"/>
<text x="95.70" y="304.60">tremolo 2 notes</text>
<use x="79.20" y="342.00" xlink:href="#tclef"/>
<abc type="c" row="27" col="1" x="65.20" y="312.00" width="28.00" height="46"/>
<defs>
<path id="r8e" class="fill" d="m 0 0
	c-1.5 1.5 -2.4 2 -3.6 2
	2.4 -2.8 -2.8 -4 -2.8 -1.2
	c0 2.7 4.3 2.4 5.9 0.6"/>
<g id="r8">
	<path d="m3.3 -4l-3.4 9.6" class="stroke"/>
	<use x="3.4" y="-4" xlink:href="#r8e"/>
</g>
</defs>
<use x="103.70" y="336.00" xlink:href="#r8"/>
<abc type="R" row="27" col="1" x="89.20" y="322.00" width="21.00" height="28"/>
<abc type="b" row="27" col="4" x="124.80" y="354.00" width="6.00" height="6"/>
<path class="fill"
	d="M134.40 318.70l25.40 -8.00v3.20l-25.40 8.00"/>
<path class="fill"
	d="M139.80 322.00l13.70 -4.30v3.20l-13.70 4.30"/>
<use x="131.30" y="354.00" xlink:href="#hl"/>
<use x="131.30" y="354.00" xlink:href="#hd"/>
<path d="M134.80 354.00v-34.40" class="stroke"/>
<abc type="N" row="27" col="4" x="124.80" y="315.00" width="13.00" height="45"/>
<use x="156.00" y="333.00" xlink:href="#hd"/>
<path d="M159.50 333.00v-21.20" class="stroke"/>
<abc type="N" row="27" col="14" x="134.00" y="307.00" width="28.50" height="32"/>
<abc type="e" row="27" col="14" x="134.00" y="333.00" width="6.00" height="6"/>
<abc type="b" row="27" col="18" x="171.10" y="354.00" width="6.00" height="6"/>
<path class="fill"
	d="M185.80 320.70l17.30 -5.20v3.20l-17.30 5.20"/>
<use x="177.60" y="354.00" xlink:href="#hl"/>
<use x="177.60" y="354.00" xlink:href="#hd"/>
<path d="M181.10 354.00v-30.90" class="stroke"/>
<abc type="N" row="27" col="18" x="171.10" y="318.00" width="13.00" height="42"/>
<use x="205.20" y="333.00" xlink:href="#hd"/>
<path d="M208.70 333.00v-18.20" class="stroke"/>
<abc type="N" row="27" col="27" x="183.20" y="310.00" width="28.50" height="29"/>
<abc type="e" row="27" col="27" x="183.20" y="333.00" width="6.00" height="6"/>
<abc type="b" row="27" col="30" x="228.90" y="354.00" width="6.00" height="6"/>
<path class="fill"
	d="M239.50 324.00l39.70 -10.30v3.20l-39.70 10.30"/>
<use x="235.90" y="354.00" xlink:href="#hl"/>
<use x="235.90" y="354.00" xlink:href="#Hd"/>
<path d="M239.40 354.00v-29.10" class="stroke"/>
<abc type="N" row="27" col="30" x="228.90" y="320.00" width="14.00" height="40"/>
<use x="274.90" y="333.00" xlink:href="#Hd"/>
<path d="M278.40 333.00v-18.20" class="stroke"/>
<abc type="N" row="27" col="38" x="252.90" y="310.00" width="29.00" height="29"/>
<abc type="e" row="27" col="38" x="252.90" y="333.00" width="6.00" height="6"/>
<abc type="b" row="27" col="42" x="312.50" y="354.00" width="6.00" height="6"/>
<path class="fill"
	d="M326.50 325.50l43.20 -9.30v3.20l-43.20 9.30"/>
<defs>
<path id="hl1" class="stroke" d="m-7 0h14"/>
</defs>
<use x="321.50" y="354.00" xlink:href="#hl1"/>
<use x="321.50" y="354.00" xlink:href="#HD"/>
<abc type="N" row="27" col="42" x="312.50" y="322.00" width="16.00" height="38"/>
<use x="376.70" y="333.00" xlink:href="#HD"/>
<abc type="N" row="27" col="51" x="353.70" y="310.00" width="30.00" height="29"/>
<abc type="e" row="27" col="51" x="353.70" y="333.00" width="6.00" height="6"/>
<use x="433.90" y="336.00" xlink:href="#r8"/>
<abc type="R" row="28" col="1" x="427.40" y="322.00" width="13.00" height="28"/>
<abc type="b" row="28" col="4" x="455.00" y="354.00" width="6.00" height="6"/>
<path class="fill"
	d="M464.70 315.70l25.40 -8.00v3.20l-25.40 8.00"/>
<path class="fill"
	d="M470.00 319.00l13.70 -4.30v3.20l-13.70 4.30"/>
<path class="fill"
	d="M470.00 324.00l13.70 -4.30v3.20l-13.70 4.30"/>
<use x="461.50" y="354.00" xlink:href="#hl"/>
<use x="461.50" y="354.00" xlink:href="#hd"/>
<path d="M465.00 354.00v-37.40" class="stroke"/>
<abc type="N" row="28" col="4" x="455.00" y="312.00" width="13.00" height="48"/>
<use x="486.20" y="333.00" xlink:href="#hd"/>
<path d="M489.70 333.00v-24.20" class="stroke"/>
<abc type="N" row="28" col="14" x="464.20" y="304.00" width="28.50" height="35"/>
<abc type="e" row="28" col="14" x="464.20" y="333.00" width="6.00" height="6"/>
<abc type="b" row="28" col="18" x="501.30" y="354.00" width="6.00" height="6"/>
<path class="fill"
	d="M516.00 317.70l17.30 -5.20v3.20l-17.30 5.20"/>
<path class="fill"
	d="M516.30 322.60l16.60 -5.00v3.20l-16.60 5.00"/>
<use x="507.80" y="354.00" xlink:href="#hl"/>
<use x="507.80" y="354.00" xlink:href="#hd"/>
<path d="M511.30 354.00v-33.90" class="stroke"/>
<abc type="N" row="28" col="18" x="501.30" y="315.00" width="13.00" height="45"/>
<use x="535.40" y="333.00" xlink:href="#hd"/>
<path d="M538.90 333.00v-21.20" class="stroke"/>
<abc type="N" row="28" col="27" x="513.40" y="307.00" width="28.50" height="32"/>
<abc type="e" row="28" col="27" x="513.40" y="333.00" width="6.00" height="6"/>
<abc type="b" row="28" col="30" x="559.10" y="354.00" width="6.00" height="6"/>
<path class="fill"
	d="M569.70 321.00l39.70 -10.30v3.20l-39.70 10.30"/>
<path class="fill"
	d="M570.10 325.90l39.00 -10.10v3.20l-39.00 10.10"/>
<use x="566.10" y="354.00" xlink:href="#hl"/>
<use x="566.10" y="354.00" xlink:href="#Hd"/>
<path d="M569.60 354.00v-32.10" class="stroke"/>
<abc type="N" row="28" col="30" x="559.10" y="317.00" width="14.00" height="43"/>
<use x="605.10" y="333.00" xlink:href="#Hd"/>
<path d="M608.60 333.00v-21.20" class="stroke"/>
<abc type="N" row="28" col="38" x="583.10" y="307.00" width="29.00" height="32"/>
<abc type="e" row="28" col="38" x="583.10" y="333.00" width="6.00" height="6"/>
<abc type="b" row="28" col="42" x="642.70" y="354.00" width="6.00" height="6"/>
<path class="fill"
	d="M656.70 322.50l43.20 -9.30v3.20l-43.20 9.30"/>
<path class="fill"
	d="M656.70 327.50l43.20 -9.30v3.20l-43.20 9.30"/>
<use x="651.70" y="354.00" xlink:href="#hl1"/>
<use x="651.70" y="354.00" xlink:href="#HD"/>
<abc type="N" row="28" col="42" x="642.70" y="319.00" width="16.00" height="41"/>
<use x="706.90" y="333.00" xlink:href="#HD"/>
<abc type="N" row="28" col="51" x="683.90" y="307.00" width="30.00" height="32"/>
<abc type="e" row="28" col="51" x="683.90" y="333.00" width="6.00" height="6"/>
</g>
<g stroke-width="0.70" font-family="sans" font-size="12.00">
<path class="stroke" stroke-width="1"
	d="M415.80 418.60v-24.00"/>
<abc type="B" row="30" col="39" x="405.80" y="390.60" width="20.00" height="32"/>
<path class="stroke" stroke-width="1"
	d="M748.80 418.60v-24.00"/>
<abc type="B" row="31" col="43" x="738.80" y="390.60" width="20.00" height="32"/>
<path d="m67.20 418.60
	h681.60
	M67.20 412.60
	h681.60
	M67.20 406.60
	h681.60
	M67.20 400.60
	h681.60
	M67.20 394.60
	h681.60
	" class="stroke"/>
<text x="95.70" y="380.20">tremolo 1 note</text>
<use x="79.20" y="412.60" xlink:href="#tclef"/>
<abc type="c" row="30" col="1" x="65.20" y="382.60" width="28.00" height="46"/>
<defs>
<path id="r4" class="fill" d="m-1 -8.5
	l3.6 5.1 -2.1 5.2 2.2 4.3
	c-2.6 -2.3 -5.1 0 -2.4 2.6
	-4.8 -3 -1.5 -6.9 1.4 -4.1
	l-3.1 -4.5 1.9 -5.1 -1.5 -3.5"/>
</defs>
<use x="103.70" y="406.60" xlink:href="#r4"/>
<abc type="R" row="30" col="1" x="89.20" y="392.60" width="21.00" height="28"/>
<abc type="b" row="30" col="3" x="150.40" y="424.60" width="6.00" height="6"/>
<path class="fill"
	d="M160.10 386.90l27.30 -8.60v3.20l-27.30 8.60"/>
<path class="fill"
	d="M160.40 391.80l26.60 -8.40v3.20l-26.60 8.40"/>
<path class="fill"
	d="M182.10 392.50l10.00 -3.20v3.20l-10.00 3.20"/>
<use x="156.90" y="424.60" xlink:href="#hl"/>
<use x="156.90" y="424.60" xlink:href="#hd"/>
<path d="M160.40 424.60v-36.80" class="stroke"/>
<abc type="N" row="30" col="3" x="150.40" y="382.60" width="13.00" height="48"/>
<use x="183.60" y="403.60" xlink:href="#hd"/>
<path d="M187.10 403.60v-24.20" class="stroke"/>
<abc type="N" row="30" col="9" x="177.10" y="374.60" width="13.00" height="35"/>
<abc type="e" row="30" col="9" x="177.10" y="403.60" width="6.00" height="6"/>
<abc type="b" row="30" col="13" x="206.60" y="403.60" width="6.00" height="6"/>
<path class="fill"
	d="M216.30 381.30l27.30 8.00v3.20l-27.30 -8.00"/>
<path class="fill"
	d="M216.60 386.40l26.60 7.80v3.20l-26.60 -7.80"/>
<path class="fill"
	d="M238.20 400.30l10.00 2.90v3.20l-10.00 -2.90"/>
<use x="213.10" y="403.60" xlink:href="#hd"/>
<path d="M216.60 403.60v-21.20" class="stroke"/>
<abc type="N" row="30" col="13" x="206.60" y="377.60" width="13.00" height="32"/>
<use x="239.70" y="424.60" xlink:href="#hl"/>
<use x="239.70" y="424.60" xlink:href="#hd"/>
<path d="M243.20 424.60v-34.40" class="stroke"/>
<abc type="N" row="30" col="19" x="233.20" y="385.60" width="13.00" height="45"/>
<abc type="e" row="30" col="19" x="233.20" y="424.60" width="6.00" height="6"/>
<abc type="b" row="30" col="23" x="261.30" y="424.60" width="6.00" height="6"/>
<path class="fill"
	d="M272.50 391.80l38.30 -10.50v3.20l-38.30 10.50"/>
<path class="fill"
	d="M305.50 390.30l10.00 -2.70v3.20l-10.00 2.70"/>
<use x="269.30" y="424.60" xlink:href="#hl"/>
<use x="269.30" y="424.60" xlink:href="#hd"/>
<path d="M272.80 424.60v-31.80" class="stroke"/>
<abc type="N" row="30" col="23" x="261.30" y="387.60" width="14.50" height="43"/>
<use x="307.00" y="403.60" xlink:href="#hd"/>
<path d="M310.50 403.60v-21.20" class="stroke"/>
<abc type="N" row="30" col="28" x="300.50" y="377.60" width="13.00" height="32"/>
<abc type="e" row="30" col="28" x="300.50" y="403.60" width="6.00" height="6"/>
<abc type="b" row="30" col="31" x="342.30" y="403.60" width="6.00" height="6"/>
<path class="fill"
	d="M352.00 384.30l38.30 9.60v3.20l-38.30 -9.60"/>
<path class="fill"
	d="M385.00 400.10l10.00 2.50v3.20l-10.00 -2.50"/>
<use x="348.80" y="403.60" xlink:href="#hd"/>
<path d="M352.30 403.60v-18.20" class="stroke"/>
<abc type="N" row="30" col="31" x="342.30" y="380.60" width="13.00" height="29"/>
<use x="386.50" y="424.60" xlink:href="#hl"/>
<use x="386.50" y="424.60" xlink:href="#hd"/>
<path d="M390.00 424.60v-29.70" class="stroke"/>
<abc type="N" row="30" col="36" x="380.00" y="389.60" width="13.00" height="41"/>
<abc type="e" row="30" col="36" x="380.00" y="424.60" width="6.00" height="6"/>
<use x="436.70" y="406.60" xlink:href="#r4"/>
<abc type="R" row="31" col="1" x="430.20" y="392.60" width="13.00" height="28"/>
<abc type="b" row="31" col="3" x="483.40" y="424.60" width="6.00" height="6"/>
<path class="fill"
	d="M493.10 384.20l27.30 -8.90v3.20l-27.30 8.90"/>
<path class="fill"
	d="M493.40 389.10l26.60 -8.70v3.20l-26.60 8.70"/>
<path class="fill"
	d="M515.10 389.50l10.00 -3.30v3.20l-10.00 3.30"/>
<path class="fill"
	d="M515.10 394.50l10.00 -3.30v3.20l-10.00 3.30"/>
<use x="489.90" y="424.60" xlink:href="#hl"/>
<use x="489.90" y="424.60" xlink:href="#hd"/>
<path d="M493.40 424.60v-39.50" class="stroke"/>
<abc type="N" row="31" col="3" x="483.40" y="379.60" width="13.00" height="51"/>
<use x="516.60" y="403.60" xlink:href="#hd"/>
<path d="M520.10 403.60v-27.20" class="stroke"/>
<abc type="N" row="31" col="10" x="510.10" y="371.60" width="13.00" height="38"/>
<abc type="e" row="31" col="10" x="510.10" y="403.60" width="6.00" height="6"/>
<abc type="b" row="31" col="14" x="539.60" y="403.60" width="6.00" height="6"/>
<path class="fill"
	d="M549.30 378.30l27.30 7.70v3.20l-27.30 -7.70"/>
<path class="fill"
	d="M549.60 383.40l26.60 7.50v3.20l-26.60 -7.50"/>
<path class="fill"
	d="M571.30 396.90l10.00 2.80v3.20l-10.00 -2.80"/>
<path class="fill"
	d="M571.30 401.90l10.00 2.80v3.20l-10.00 -2.80"/>
<use x="546.10" y="403.60" xlink:href="#hd"/>
<path d="M549.60 403.60v-24.20" class="stroke"/>
<abc type="N" row="31" col="14" x="539.60" y="374.60" width="13.00" height="35"/>
<use x="572.80" y="424.60" xlink:href="#hl"/>
<use x="572.80" y="424.60" xlink:href="#hd"/>
<path d="M576.30 424.60v-37.80" class="stroke"/>
<abc type="N" row="31" col="21" x="566.30" y="381.60" width="13.00" height="49"/>
<abc type="e" row="31" col="21" x="566.30" y="424.60" width="6.00" height="6"/>
<abc type="b" row="31" col="25" x="594.30" y="424.60" width="6.00" height="6"/>
<path class="fill"
	d="M605.50 389.20l38.30 -10.90v3.20l-38.30 10.90"/>
<path class="fill"
	d="M638.50 387.30l10.00 -2.90v3.20l-10.00 2.90"/>
<path class="fill"
	d="M638.50 392.30l10.00 -2.90v3.20l-10.00 2.90"/>
<use x="602.30" y="424.60" xlink:href="#hl"/>
<use x="602.30" y="424.60" xlink:href="#hd"/>
<path d="M605.80 424.60v-34.50" class="stroke"/>
<abc type="N" row="31" col="25" x="594.30" y="385.60" width="14.50" height="45"/>
<use x="640.00" y="403.60" xlink:href="#hd"/>
<path d="M643.50 403.60v-24.20" class="stroke"/>
<abc type="N" row="31" col="31" x="633.50" y="374.60" width="13.00" height="35"/>
<abc type="e" row="31" col="31" x="633.50" y="403.60" width="6.00" height="6"/>
<abc type="b" row="31" col="34" x="675.30" y="403.60" width="6.00" height="6"/>
<path class="fill"
	d="M685.00 382.60l38.30 9.10v3.20l-38.30 -9.10"/>
<path class="fill"
	d="M718.00 397.90l10.00 2.40v3.20l-10.00 -2.40"/>
<path class="fill"
	d="M718.00 402.90l10.00 2.40v3.20l-10.00 -2.40"/>
<use x="681.80" y="403.60" xlink:href="#hd"/>
<path d="M685.30 403.60v-20.00" class="stroke"/>
<abc type="N" row="31" col="34" x="675.30" y="378.60" width="13.00" height="31"/>
<use x="719.50" y="424.60" xlink:href="#hl"/>
<use x="719.50" y="424.60" xlink:href="#hd"/>
<path d="M723.00 424.60v-32.00" class="stroke"/>
<abc type="N" row="31" col="40" x="713.00" y="387.60" width="13.00" height="43"/>
<abc type="e" row="31" col="40" x="713.00" y="424.60" width="6.00" height="6"/>
</g>
<g stroke-width="0.70" font-family="sans" font-size="12.00">
<path class="stroke" stroke-width="1"
	d="M286.70 488.60v-24.00"/>
<abc type="B" row="32" col="25" x="276.70" y="460.60" width="20.00" height="32"/>
<path class="stroke" stroke-width="1"
	d="M414.80 488.60v-24.00"/>
<abc type="B" row="32" col="39" x="404.80" y="460.60" width="20.00" height="32"/>
<path class="stroke" stroke-width="1"
	d="M614.20 488.60v-24.00"/>
<abc type="B" row="33" col="29" x="604.20" y="460.60" width="20.00" height="32"/>
<path class="stroke" stroke-width="1"
	d="M748.80 488.60v-24.00"/>
<path class="stroke" stroke-width="1"
	d="M745.80 488.60v-24.00"/>
<abc type="B" row="33" col="45" x="738.80" y="460.60" width="20.00" height="32"/>
<path d="m67.20 488.60
	h681.60
	M67.20 482.60
	h681.60
	M67.20 476.60
	h681.60
	M67.20 470.60
	h681.60
	M67.20 464.60
	h681.60
	" class="stroke"/>
<use x="79.20" y="482.60" xlink:href="#tclef"/>
<abc type="c" row="32" col="1" x="65.20" y="452.60" width="28.00" height="46"/>
<use x="103.70" y="476.60" xlink:href="#r4"/>
<abc type="R" row="32" col="1" x="89.20" y="462.60" width="21.00" height="28"/>
<use x="145.50" y="494.60" xlink:href="#hl"/>
<use x="145.50" y="494.60" xlink:href="#hd"/>
<path d="M149.00 494.60v-24.00" class="stroke"/>
<path class="fill"
	d="M149.00 470.60c0.6 5.6 9.6 9 5.6 18.4
	1.6 -6 -1.3 -11.6 -5.6 -12.8
"/>
<path class="fill" d="m144.50 483.20
	l9 -3v3l-9 3z"/><abc type="N" row="32" col="6" x="139.00" y="466.60" width="17.50" height="34"/>
<use x="178.30" y="473.60" xlink:href="#hd"/>
<path d="M174.80 473.60v25.00" class="stroke"/>
<path class="fill"
	d="M174.80 498.60c0.6 -5.6 9.6 -9 5.6 -18.4
	1.6 6 -1.3 11.6 -5.6 12.8
"/>
<path class="fill" d="m170.30 485.00
	l9 -3v3l-9 3z"/><abc type="N" row="32" col="12" x="169.30" y="467.60" width="15.50" height="35"/>
<use x="207.80" y="494.60" xlink:href="#hl"/>
<use x="207.80" y="494.60" xlink:href="#hd"/>
<path d="M211.30 494.60v-22.00" class="stroke"/>
<path class="fill" d="m206.80 483.20
	l9 -3v3l-9 3z"/><abc type="N" row="32" col="18" x="201.30" y="467.60" width="17.50" height="33"/>
<use x="254.20" y="473.60" xlink:href="#hd"/>
<path d="M250.70 473.60v22.00" class="stroke"/>
<path class="fill" d="m246.20 485.00
	l9 -3v3l-9 3z"/><abc type="N" row="32" col="23" x="245.20" y="467.60" width="15.50" height="33"/>
<use x="303.10" y="494.60" xlink:href="#hl"/>
<use x="303.10" y="494.60" xlink:href="#Hd"/>
<path d="M306.60 494.60v-22.00" class="stroke"/>
<path class="fill" d="m302.10 483.20
	l9 -3v3l-9 3z"/><abc type="N" row="32" col="30" x="296.10" y="467.60" width="18.00" height="33"/>
<use x="368.80" y="473.60" xlink:href="#Hd"/>
<path d="M365.30 473.60v22.00" class="stroke"/>
<path class="fill" d="m360.80 485.00
	l9 -3v3l-9 3z"/><abc type="N" row="32" col="36" x="359.80" y="467.60" width="16.00" height="33"/>
<use x="431.20" y="476.60" xlink:href="#r4"/>
<abc type="R" row="33" col="1" x="424.70" y="462.60" width="13.00" height="28"/>
<use x="472.90" y="494.60" xlink:href="#hl"/>
<use x="472.90" y="494.60" xlink:href="#hd"/>
<path d="M476.40 494.60v-29.00" class="stroke"/>
<path class="fill"
	d="M476.40 465.60c0.6 5.6 9.6 9 5.6 18.4
	1.6 -6 -1.3 -11.6 -5.6 -12.8
"/>
<path class="fill" d="m471.90 477.80
	l9 -3v3l-9 3zm0 5.4l9 -3v3l-9 3z"/><abc type="N" row="33" col="7" x="466.40" y="461.60" width="17.50" height="39"/>
<use x="505.80" y="473.60" xlink:href="#hd"/>
<path d="M502.30 473.60v30.00" class="stroke"/>
<path class="fill"
	d="M502.30 503.60c0.6 -5.6 9.6 -9 5.6 -18.4
	1.6 6 -1.3 11.6 -5.6 12.8
"/>
<path class="fill" d="m497.80 485.00
	l9 -3v3l-9 3zm0 5.4l9 -3v3l-9 3z"/><abc type="N" row="33" col="14" x="496.80" y="467.60" width="15.50" height="40"/>
<use x="535.30" y="494.60" xlink:href="#hl"/>
<use x="535.30" y="494.60" xlink:href="#hd"/>
<path d="M538.80 494.60v-25.00" class="stroke"/>
<path class="fill" d="m534.30 477.80
	l9 -3v3l-9 3zm0 5.4l9 -3v3l-9 3z"/><abc type="N" row="33" col="21" x="528.80" y="464.60" width="17.50" height="36"/>
<use x="581.70" y="473.60" xlink:href="#hd"/>
<path d="M578.20 473.60v26.00" class="stroke"/>
<path class="fill" d="m573.70 485.00
	l9 -3v3l-9 3zm0 5.4l9 -3v3l-9 3z"/><abc type="N" row="33" col="27" x="572.70" y="467.60" width="15.50" height="37"/>
<use x="630.60" y="494.60" xlink:href="#hl"/>
<use x="630.60" y="494.60" xlink:href="#Hd"/>
<path d="M634.10 494.60v-25.00" class="stroke"/>
<path class="fill" d="m629.60 477.80
	l9 -3v3l-9 3zm0 5.4l9 -3v3l-9 3z"/><abc type="N" row="33" col="35" x="623.60" y="464.60" width="18.00" height="36"/>
<use x="696.30" y="473.60" xlink:href="#Hd"/>
<path d="M692.80 473.60v26.00" class="stroke"/>
<path class="fill" d="m688.30 485.00
	l9 -3v3l-9 3zm0 5.4l9 -3v3l-9 3z"/><abc type="N" row="33" col="42" x="687.30" y="467.60" width="16.00" height="37"/>
</g>
<g stroke-width="0.70" font-family="sans" font-size="12.00">
<path class="stroke" stroke-width="1"
	d="M170.80 558.60v-24.00"/>
<abc type="B" row="34" col="7" x="160.80" y="530.60" width="20.00" height="32"/>
<path class="stroke" stroke-width="1"
	d="M253.00 558.60v-24.00"/>
<abc type="B" row="34" col="15" x="243.00" y="530.60" width="20.00" height="32"/>
<path class="stroke" stroke-width="1"
	d="M335.20 558.60v-24.00"/>
<abc type="B" row="34" col="24" x="325.20" y="530.60" width="20.00" height="32"/>
<path class="stroke" stroke-width="1"
	d="M417.40 558.60v-24.00"/>
<abc type="B" row="34" col="33" x="407.40" y="530.60" width="17.00" height="32"/>
<path d="m67.20 558.60
	h350.20
	M67.20 552.60
	h350.20
	M67.20 546.60
	h350.20
	M67.20 540.60
	h350.20
	M67.20 534.60
	h350.20
	" class="stroke"/>
<use x="79.20" y="552.60" xlink:href="#tclef"/>
<abc type="c" row="34" col="4" x="65.20" y="522.60" width="28.00" height="46"/>
<use x="106.20" y="564.60" xlink:href="#hl1"/>
<use x="106.20" y="564.60" xlink:href="#HD"/>
<path class="fill" d="m101.70 554.20
	l9 -3v3l-9 3z"/><abc type="N" row="34" col="4" x="89.20" y="558.60" width="27.00" height="12"/>
<use x="188.40" y="543.60" xlink:href="#HD"/>
<path class="fill" d="m183.90 554.00
	l9 -3v3l-9 3z"/><abc type="N" row="34" col="12" x="179.40" y="537.60" width="16.00" height="12"/>
<use x="270.60" y="564.60" xlink:href="#hl1"/>
<use x="270.60" y="564.60" xlink:href="#HD"/>
<path class="fill" d="m266.10 548.80
	l9 -3v3l-9 3zm0 5.4l9 -3v3l-9 3z"/><abc type="N" row="34" col="21" x="261.60" y="558.60" width="19.00" height="12"/>
<use x="352.80" y="543.60" xlink:href="#HD"/>
<path class="fill" d="m348.30 554.00
	l9 -3v3l-9 3zm0 5.4l9 -3v3l-9 3z"/><abc type="N" row="34" col="30" x="343.80" y="537.60" width="16.00" height="12"/>
</g>
<g stroke-width="0.70" font-family="FreeSerif" font-size="16.00">
<text x="67.20" y="595.60">Notes: Here are some notes (N:)</text>
</g>
<g stroke-width="0.70" font-family="FreeSerif" font-size="16.00">
<text x="112.98" y="613.20">on two lines</text>
</g>
<g stroke-width="0.70" font-family="FreeSerif" font-size="16.00">
<text x="67.20" y="634.32">This file is part of the abcm2ps sources at http://moinejf.free.fr/</text>
</g>
<g stroke-width="0.70" font-family="FreeSerif" font-size="16.00">
<!-- title: Romance sans paroles -->
</g>
<g stroke-width="0.70" font-family="FreeSerif" font-size="20.00">
<text x="408.00" y="699.44" text-anchor="middle">Romance sans paroles</text>
</g>
<g stroke-width="0.70" font-family="FreeSerif" font-size="14.00" font-style="italic">
<text x="748.80" y="723.44" text-anchor="end">F.B. Mendelssohn</text>
</g>
<g stroke-width="0.70" font-family="FreeSerif" font-size="14.00" font-style="italic">
<path class="stroke" stroke-width="1"
	d="M67.20 833.64v-81.20"/>
<defs>
<path id="brace" class="fill" d="m-2.5 101
	c-4.5 -4.6 -7.5 -12.2 -4.4 -26.8
	3.5 -14.3 3.2 -21.7 -2.1 -24.2
	7.4 2.4 7.3 14.2 3.5 29.5
	-2.7 9.5 -1.5 16.2 3 21.5
	M-2.5 1c-4.5 4.6 -7.5 12.2 -4.4 26.8
	c3.5 14.3 3.2 21.7 -2.1 24.2
	7.4 -2.4 7.3 -14.2 3.5 -29.5
	-2.7 -9.5 -1.5 -16.2 3 -21.5"/>
</defs>
<g transform="translate(67.20,752.44) scale(1,0.81)">
	<use xlink:href="#brace"/>
</g>
</g>
<g stroke-width="0.70" transform="scale(0.800)" font-family="FreeSerif" font-size="14.00" font-style="italic">
<path d="m84.00 1042.05
	h360.50
	M84.00 1036.05
	h360.50
	M84.00 1030.05
	h360.50
	M84.00 1024.05
	h360.50
	M84.00 1018.05
	h360.50
	" class="stroke"/>
</g>
<g stroke-width="0.70" font-family="FreeSerif" font-size="14.00" font-style="italic">
<path class="stroke" stroke-width="1"
	d="M355.60 776.44v-24.00"/>
<abc type="B" row="45" col="8" x="345.60" y="737.44" width="20.00" height="43"/>
<path class="stroke" stroke-width="1"
	d="M355.60 833.64v-57.20"/>
<abc type="B" row="51" col="16" x="345.60" y="805.64" width="17.00" height="32"/>
<path class="stroke" stroke-width="1"
	d="M505.60 776.44v-24.00"/>
<abc type="B" row="54" col="11" x="495.60" y="748.44" width="20.00" height="32"/>
<path class="stroke" stroke-width="1"
	d="M627.30 776.44v-24.00"/>
<abc type="B" row="54" col="22" x="617.30" y="733.44" width="20.00" height="47"/>
<path class="stroke" stroke-width="1"
	d="M748.80 776.44v-24.00"/>
<abc type="B" row="54" col="32" x="738.80" y="748.44" width="17.00" height="32"/>
<path d="m67.20 776.44
	h681.60
	M67.20 770.44
	h681.60
	M67.20 764.44
	h681.60
	M67.20 758.44
	h681.60
	M67.20 752.44
	h681.60
	" class="stroke"/>
<path class="fill"
	d="M314.90 747.44c15.80 -10.00 125.14 -6.74 140.93 4.20
	v-0.34c-20.02 -12.60 -120.91 -15.86 -140.93 -3.86"/>
<path class="fill"
	d="M523.10 761.44c3.39 -4.55 18.11 -7.43 21.49 -4.20
	v-0.22c-4.03 -5.01 -17.46 -2.13 -21.49 4.42"/>
<path class="fill"
	d="M587.90 744.94c15.69 -10.63 123.08 -12.26 138.77 -2.10
	v-0.34c-19.85 -11.82 -118.92 -10.19 -138.77 2.44"/>
<path class="fill"
	d="M172.90 809.24c1.61 3.30 8.64 1.38 10.25 -2.80
	v0.21c-1.92 5.97 -8.33 7.89 -10.25 2.59"/>
<path class="fill"
	d="M223.30 809.24c1.61 3.30 8.64 1.38 10.25 -2.80
	v0.21c-1.92 5.97 -8.33 7.89 -10.25 2.59"/>
<path class="fill"
	d="M275.40 809.24c1.61 3.30 8.64 1.38 10.25 -2.80
	v0.21c-1.92 5.97 -8.33 7.89 -10.25 2.59"/>
<path class="fill"
	d="M326.90 809.24c1.61 3.30 8.64 1.38 10.25 -2.80
	v0.21c-1.92 5.97 -8.33 7.89 -10.25 2.59"/>
</g>
<g stroke-width="0.70" transform="scale(0.800)" font-family="FreeSerif" font-size="14.00" font-style="italic">
</g>
<g stroke-width="0.70" font-family="FreeSerif" font-size="14.00" font-style="italic">
<use x="79.20" y="770.44" xlink:href="#tclef"/>
<abc type="c" row="45" col="0" x="65.20" y="740.44" width="28.00" height="46"/>
<defs>
<path id="uflat" class="fill" d="
	m100 -746
	h32
	v734
	l-32 4
	m32 -332
	c46 -72 152 -90 208 -20
	100 110 -120 326 -208 348
	m0 -28
	c54 0 200 -206 130 -290
	-50 -60 -130 -4 -130 34"/>
<use id="ft0" transform="translate(-3.5,3.5) scale(0.018)"
	xlink:href="#uflat"/>
</defs>
<use x="94.20" y="764.44" xlink:href="#ft0"/>
<use x="99.70" y="755.44" xlink:href="#ft0"/>
<use x="105.20" y="767.44" xlink:href="#ft0"/>
<abc type="K" row="45" col="0" x="89.20" y="748.44" width="27.50" height="32"/>
<g font-family="FreeSerif" font-size="16" font-weight="bold" font-style="normal"
	transform="translate(127.70,775.94) scale(1.2,1)">
	<text text-anchor="middle">8</text>
	<text y="-12" text-anchor="middle">12</text>
</g>
<abc type="M" row="45" col="0" x="112.70" y="748.44" width="37.00" height="32"/>
<abc type="R" row="45" col="0" x="145.70" y="756.44" width="23.00" height="14"/>
<use x="256.50" y="764.44" xlink:href="#r4"/>
<abc type="R" row="45" col="2" x="250.00" y="752.44" width="13.00" height="24"/>
<use x="290.60" y="764.44" xlink:href="#r8"/>
<abc type="R" row="45" col="4" x="284.10" y="756.44" width="13.00" height="18"/>
<use x="306.90" y="764.44" xlink:href="#hd"/>
<circle class="fill" cx="314.60" cy="761.44" r="1.2"/>
<path d="M310.40 764.44v-21.00" class="stroke"/>
<abc type="N" row="45" col="6" x="300.40" y="736.44" width="20.50" height="34"/>
<use x="368.10" y="767.44" xlink:href="#hd"/>
<path d="M371.60 767.44v-21.00" class="stroke"/>
<abc type="N" row="54" col="0" x="361.60" y="738.44" width="13.00" height="35"/>
<use x="392.90" y="770.44" xlink:href="#hd"/>
<path d="M396.40 770.44v-21.00" class="stroke"/>
<path class="fill"
	d="M396.40 749.44c0.6 5.6 9.6 9 5.6 18.4
	1.6 -6 -1.3 -11.6 -5.6 -12.8
"/>
<abc type="N" row="54" col="2" x="386.40" y="739.44" width="17.50" height="37"/>
<use x="411.50" y="773.44" xlink:href="#hd"/>
<path d="M415.00 773.44v-21.00" class="stroke"/>
<abc type="N" row="54" col="3" x="405.00" y="739.44" width="13.00" height="40"/>
<use x="436.20" y="776.44" xlink:href="#hd"/>
<path d="M439.70 776.44v-21.00" class="stroke"/>
<path class="fill"
	d="M439.70 755.44c0.6 5.6 9.6 9 5.6 18.4
	1.6 -6 -1.3 -11.6 -5.6 -12.8
"/>
<abc type="N" row="54" col="5" x="429.70" y="740.44" width="17.50" height="42"/>
<use x="454.80" y="776.44" xlink:href="#hd"/>
<circle class="fill" cx="462.50" cy="773.44" r="1.2"/>
<path d="M458.30 776.44v-21.00" class="stroke"/>
<abc type="N" row="54" col="6" x="448.30" y="751.44" width="20.50" height="31"/>
<use x="483.90" y="776.44" xlink:href="#hd"/>
<circle class="fill" cx="491.60" cy="773.44" r="1.2"/>
<path d="M487.40 776.44v-21.00" class="stroke"/>
<abc type="N" row="54" col="9" x="477.40" y="751.44" width="20.50" height="31"/>
<use x="518.10" y="776.44" xlink:href="#hd"/>
<circle class="fill" cx="525.80" cy="773.44" r="1.2"/>
<path d="M521.60 776.44v-21.00" class="stroke"/>
<abc type="N" row="54" col="13" x="511.60" y="751.44" width="20.50" height="31"/>
<use x="547.60" y="761.44" xlink:href="#Hd"/>
<circle class="fill" cx="556.30" cy="761.44" r="1.2"/>
<path d="M544.10 761.44v21.00" class="stroke"/>
<abc type="N" row="54" col="15" x="538.60" y="755.44" width="24.00" height="31"/>
<use x="587.90" y="764.44" xlink:href="#hd"/>
<path d="M584.40 764.44v21.00" class="stroke"/>
<abc type="N" row="54" col="19" x="581.40" y="734.44" width="13.00" height="55"/>
<use x="610.30" y="767.44" xlink:href="#hd"/>
<path d="M613.80 767.44v-21.00" class="stroke"/>
<path class="fill"
	d="M613.80 746.44c0.6 5.6 9.6 9 5.6 18.4
	1.6 -6 -1.3 -11.6 -5.6 -12.8
"/>
<abc type="N" row="54" col="21" x="603.80" y="733.44" width="17.50" height="40"/>
<use x="639.80" y="770.44" xlink:href="#hd"/>
<circle class="fill" cx="647.50" cy="767.44" r="1.2"/>
<path d="M643.30 770.44v-21.00" class="stroke"/>
<abc type="N" row="54" col="23" x="633.30" y="733.44" width="20.50" height="43"/>
<use x="668.90" y="773.44" xlink:href="#hd"/>
<circle class="fill" cx="676.60" cy="773.44" r="1.2"/>
<path d="M672.40 773.44v-21.00" class="stroke"/>
<abc type="N" row="54" col="25" x="662.40" y="733.44" width="20.50" height="46"/>
<use x="698.00" y="764.44" xlink:href="#hd"/>
<circle class="fill" cx="705.70" cy="761.44" r="1.2"/>
<path d="M701.50 764.44v-21.00" class="stroke"/>
<abc type="N" row="54" col="27" x="691.50" y="732.44" width="20.50" height="38"/>
<use x="727.20" y="773.44" xlink:href="#hd"/>
<circle class="fill" cx="734.90" cy="773.44" r="1.2"/>
<path d="M730.70 773.44v-21.00" class="stroke"/>
<abc type="N" row="54" col="29" x="720.70" y="748.44" width="20.50" height="31"/>
</g>
<g stroke-width="0.70" transform="scale(0.800)" font-family="FreeSerif" font-size="14.00" font-style="italic">
<use x="190.90" y="955.60" xlink:href="#r8"/>
<abc type="R" row="48" col="0" x="182.80" y="945.00" width="13.00" height="28"/>
<abc type="b" row="48" col="2" x="206.70" y="1012.00" width="6.00" height="6"/>
<path class="fill"
	d="M210.90 1008.40l21.20 -5.30v-3.20l-21.20 5.30"/>
<use x="214.90" y="978.00" xlink:href="#hl"/>
<use x="214.90" y="985.60" xlink:href="#hl"/>
<use x="214.90" y="989.30" xlink:href="#hd"/>
<path d="M211.40 989.30v18.00" class="stroke"/>
<abc type="N" row="48" col="2" x="206.70" y="989.00" width="13.00" height="29"/>
<use x="235.20" y="978.00" xlink:href="#hl"/>
<use x="235.20" y="970.60" xlink:href="#hd"/>
<path d="M231.70 970.60v31.70" class="stroke"/>
<use x="235.20" y="981.80" xlink:href="#hd"/>
<abc type="N" row="48" col="4" x="227.00" y="972.00" width="13.00" height="36"/>
<abc type="e" row="48" col="4" x="227.00" y="1002.00" width="6.00" height="6"/>
<use x="255.50" y="955.60" xlink:href="#r8"/>
<abc type="R" row="48" col="11" x="247.40" y="945.00" width="13.00" height="28"/>
<abc type="b" row="48" col="13" x="269.70" y="1012.00" width="6.00" height="6"/>
<path class="fill"
	d="M273.90 1008.40l21.20 -5.30v-3.20l-21.20 5.30"/>
<use x="277.90" y="978.00" xlink:href="#hl"/>
<use x="277.90" y="985.60" xlink:href="#hl"/>
<use x="277.90" y="989.30" xlink:href="#hd"/>
<path d="M274.40 989.30v18.00" class="stroke"/>
<abc type="N" row="48" col="13" x="269.70" y="989.00" width="13.00" height="29"/>
<use x="298.20" y="978.00" xlink:href="#hl"/>
<use x="298.20" y="970.60" xlink:href="#hd"/>
<path d="M294.70 970.60v31.70" class="stroke"/>
<use x="298.20" y="981.80" xlink:href="#hd"/>
<abc type="N" row="48" col="15" x="290.10" y="972.00" width="13.00" height="36"/>
<abc type="e" row="48" col="15" x="290.10" y="1002.00" width="6.00" height="6"/>
<use x="320.60" y="985.60" xlink:href="#r8"/>
<abc type="R" row="48" col="22" x="312.50" y="980.00" width="13.00" height="18"/>
<abc type="b" row="48" col="24" x="334.80" y="1012.00" width="6.00" height="6"/>
<path class="fill"
	d="M339.00 1008.40l21.20 -5.30v-3.20l-21.20 5.30"/>
<use x="343.00" y="978.00" xlink:href="#hl"/>
<use x="343.00" y="985.60" xlink:href="#hl"/>
<use x="343.00" y="989.30" xlink:href="#hd"/>
<path d="M339.50 989.30v18.00" class="stroke"/>
<abc type="N" row="48" col="24" x="334.80" y="989.00" width="13.00" height="29"/>
<use x="363.30" y="978.00" xlink:href="#hl"/>
<use x="363.30" y="970.60" xlink:href="#hd"/>
<path d="M359.80 970.60v31.70" class="stroke"/>
<use x="363.30" y="981.80" xlink:href="#hd"/>
<abc type="N" row="48" col="26" x="355.20" y="972.00" width="13.00" height="36"/>
<abc type="e" row="48" col="26" x="355.20" y="1002.00" width="6.00" height="6"/>
<use x="383.60" y="985.60" xlink:href="#r8"/>
<abc type="R" row="48" col="33" x="375.50" y="980.00" width="13.00" height="18"/>
<abc type="b" row="48" col="35" x="399.30" y="1012.00" width="6.00" height="6"/>
<path class="fill"
	d="M403.50 1008.40l21.20 -5.30v-3.20l-21.20 5.30"/>
<use x="407.40" y="978.00" xlink:href="#hl"/>
<use x="407.40" y="985.60" xlink:href="#hl"/>
<use x="407.40" y="989.30" xlink:href="#hd"/>
<path d="M403.90 989.30v18.00" class="stroke"/>
<abc type="N" row="48" col="35" x="399.30" y="989.00" width="13.00" height="29"/>
<use x="427.70" y="978.00" xlink:href="#hl"/>
<use x="427.70" y="970.60" xlink:href="#hd"/>
<path d="M424.20 970.60v31.70" class="stroke"/>
<use x="427.70" y="981.80" xlink:href="#hd"/>
<abc type="N" row="48" col="37" x="419.60" y="972.00" width="13.00" height="36"/>
<abc type="e" row="48" col="37" x="419.60" y="1002.00" width="6.00" height="6"/>
</g>
<g stroke-width="0.70" transform="scale(0.800)" font-family="FreeSerif" font-size="14.00" font-style="italic">
<defs>
<path id="ubclef" class="fill" d="m-200 -87
	c124 -35 222 -78 254 -236
	43 -228 -167 -246 -192 -103
	59 -80 157 22 92 78
	-62 47 -115 -22 -106 -88
	21 -141 270 -136 274 52
	-1 175 -106 264 -322 297
	m357 -250
	c0 -36 51 -34 51 0
	0 37 -51 36 -51 0
	m-2 -129
	c0 -36 51 -34 51 0
	0 38 -51 37 -51 0"/>
<use id="bclef" transform="translate(0,18) scale(0.045)"
	xlink:href="#ubclef"/>
</defs>
<use x="99.00" y="1024.05" xlink:href="#bclef"/>
<abc type="c" row="51" col="0" x="81.50" y="1014.05" width="28.00" height="31"/>
<use x="117.80" y="1036.05" xlink:href="#ft0"/>
<use x="124.60" y="1027.05" xlink:href="#ft0"/>
<use x="131.50" y="1039.05" xlink:href="#ft0"/>
<abc type="K" row="45" col="0" x="111.50" y="1014.05" width="27.50" height="32"/>
<g font-family="FreeSerif" font-size="16" font-weight="bold" font-style="normal"
	transform="translate(159.60,1041.55) scale(1.2,1)">
	<text text-anchor="middle">8</text>
	<text y="-12" text-anchor="middle">12</text>
</g>
<abc type="M" row="45" col="0" x="140.90" y="1014.05" width="37.00" height="32"/>
<use x="190.90" y="1048.05" xlink:href="#hl"/>
<use x="190.90" y="1048.05" xlink:href="#hd"/>
<circle class="fill" cx="198.60" cy="1045.05" r="1.2"/>
<path d="M194.40 1048.05v-21.00" class="stroke"/>
<abc type="N" row="51" col="0" x="182.80" y="1023.05" width="20.50" height="31"/>
<use x="255.50" y="1042.05" xlink:href="#hd"/>
<circle class="fill" cx="263.20" cy="1039.05" r="1.2"/>
<path d="M259.00 1042.05v-21.00" class="stroke"/>
<abc type="N" row="51" col="4" x="247.40" y="1017.05" width="20.50" height="31"/>
<use x="320.60" y="1036.05" xlink:href="#hd"/>
<circle class="fill" cx="328.30" cy="1033.05" r="1.2"/>
<path d="M324.10 1036.05v-21.00" class="stroke"/>
<abc type="N" row="51" col="8" x="312.50" y="1011.05" width="20.50" height="31"/>
<use x="383.60" y="1042.05" xlink:href="#hd"/>
<circle class="fill" cx="391.30" cy="1039.05" r="1.2"/>
<path d="M387.10 1042.05v-21.00" class="stroke"/>
<abc type="N" row="51" col="12" x="375.50" y="1017.05" width="20.50" height="31"/>
</g>
</svg>
