<?xml version="1.0" standalone="no"?>
<!DOCTYPE svg PUBLIC "-//W3C//DTD SVG 1.1//EN"
	"http://www.w3.org/Graphics/SVG/1.1/DTD/svg11.dtd">
<svg xmlns="http://www.w3.org/2000/svg" version="1.1"
	xmlns:xlink="http://www.w3.org/1999/xlink"
	color="black"
	width="816.00px" height="1056.00px">
<style type="text/css">
.fill {fill: currentColor}
.stroke {stroke: currentColor; fill: none}
text{white-space: pre}
</style>
<title>/tera/gill/PycharmProjects/MusicRaft/share/abc/sample.abc page 3</title>
<!-- Creator: abcm2ps-8.14.2 -->
<!-- CreationDate: Jun  9, 2019 21:57 -->
<!-- CommandLine: -k 640 -v -A -O /tera/gill/PycharmProjects/MusicRaft/share/abc/sample_page_.svg /tera/gill/PycharmProjects/MusicRaft/share/abc/sample.abc -->
<g stroke-width="0.70">
<!-- title: Gracenotes -->
</g>
<g stroke-width="0.70" font-family="FreeSerif" font-size="20.00">
<text x="408.00" y="81.80" text-anchor="middle">Gracenotes</text>
</g>
<g stroke-width="0.70" font-family="FreeSerif" font-size="20.00">
<path class="stroke" stroke-width="1"
	d="M418.00 144.80v-24.00"/>
<abc type="B" row="117" col="33" x="408.00" y="116.80" width="20.00" height="32"/>
<path class="stroke" stroke-width="1"
	d="M581.00 144.80v-24.00"/>
<abc type="B" row="117" col="64" x="571.00" y="116.80" width="20.00" height="32"/>
<path class="stroke" stroke-width="1"
	d="M748.80 144.80v-24.00"/>
<abc type="B" row="118" col="31" x="738.80" y="116.80" width="20.00" height="32"/>
<path d="m67.20 144.80
	h681.60
	M67.20 138.80
	h681.60
	M67.20 132.80
	h681.60
	M67.20 126.80
	h681.60
	M67.20 120.80
	h681.60
	" class="stroke"/>
<defs>
<path id="utclef" class="fill" d="m-50 -90
	c-72 -41 -72 -158 52 -188
	150 -10 220 188 90 256
	-114 52 -275 0 -293 -136
	-15 -181 93 -229 220 -334
	88 -87 79 -133 62 -210
	-51 33 -94 105 -89 186
	17 267 36 374 49 574
	6 96 -19 134 -77 135
	-80 1 -126 -93 -61 -133
	85 -41 133 101 31 105
	23 17 92 37 90 -92
	-10 -223 -39 -342 -50 -617
	0 -90 0 -162 96 -232
	56 72 63 230 22 289
	-74 106 -257 168 -255 316
	9 153 148 185 252 133
	86 -65 29 -192 -80 -176
	-71 12 -105 67 -59 124"/>
<use id="tclef" transform="translate(0,6) scale(0.045)"
	xlink:href="#utclef"/>
</defs>
<use x="79.20" y="138.80" xlink:href="#tclef"/>
<abc type="c" row="117" col="0" x="65.20" y="108.80" width="28.00" height="46"/>
<defs>
<path id="usharp" class="fill" d="
	m136 -702
	v890
	h32
	v-890
	m128 840
	h32
	v-888
	h-32
	m-232 286
	v116
	l338 -96
	v-116
	m-338 442
	v116
	l338 -98
	v-114"/>
<use id="sh0" transform="translate(-4,5) scale(0.018)"
	xlink:href="#usharp"/>
</defs>
<use x="94.20" y="120.80" xlink:href="#sh0"/>
<use x="99.70" y="129.80" xlink:href="#sh0"/>
<abc type="K" row="117" col="0" x="89.20" y="112.80" width="22.00" height="36"/>
<defs>
<path id="csig" class="fill" d="
	m6 -5.3
	c0.9 0 2.3 0.7 2.4 2.2
	-1.2 -2 -3.6 0.1 -1.6 1.7
	2 1 3.8 -3.5 -0.8 -4.7
	-2 -0.4 -6.4 1.3 -5.8 7
	0.4 6.4 7.9 6.8 9.1 0.7
	-2.3 5.6 -6.7 5.1 -6.8 0
	-0.5 -4.4 0.7 -7.5 3.5 -6.9"/>
</defs>
<use x="110.70" y="132.80" xlink:href="#csig"/>
<abc type="M" row="117" col="0" x="107.20" y="116.80" width="24.00" height="32"/>
<abc type="b" row="117" col="0" x="127.20" y="141.80" width="6.00" height="6"/>
<path class="fill"
	d="M136.90 107.60l58.10 0.00v3.20l-58.10 -0.00"/>
<defs>
<ellipse id="hd" rx="4.1" ry="2.9"
	transform="rotate(-20)" class="fill"/>
</defs>
<use x="133.70" y="141.80" xlink:href="#hd"/>
<path d="M137.20 141.80v-33.20" class="stroke"/>
<abc type="N" row="117" col="0" x="127.20" y="103.80" width="13.00" height="44"/>
<use x="151.20" y="135.80" xlink:href="#hd"/>
<path d="M154.70 135.80v-27.20" class="stroke"/>
<abc type="N" row="117" col="1" x="144.70" y="103.80" width="13.00" height="38"/>
<defs>
<path id="ghd" class="fill" d="m2.2 -1.5
	c-1.32 -2.31 -5.94 0.33 -4.62 2.64
	1.32 2.31 5.94 -0.33 4.62 -2.64"/>
</defs>
<use x="162.50" y="129.80" xlink:href="#ghd"/>
<path d="M164.80 129.80v-15.00" class="stroke"/>
<path class="fill"
	d="M164.80 114.80c0.6 3.4 5.6 3.8 3 10
	1.2 -4.4 -1.4 -7 -3 -7
"/>
<abc type="g" row="117" col="3" x="154.00" y="110.80" width="21.50" height="24"/>
<path class="stroke"
	d="M162.50 134.80c2.00 4.20 8.00 7.80 10.00 6.00"/>
<use x="173.50" y="135.80" xlink:href="#hd"/>
<path d="M177.00 135.80v-27.20" class="stroke"/>
<abc type="N" row="117" col="5" x="171.50" y="103.80" width="8.50" height="38"/>
<use x="191.10" y="141.80" xlink:href="#hd"/>
<path d="M194.60 141.80v-33.20" class="stroke"/>
<abc type="N" row="117" col="6" x="184.60" y="103.80" width="13.00" height="44"/>
<abc type="e" row="117" col="6" x="184.60" y="141.80" width="6.00" height="6"/>
<abc type="b" row="117" col="8" x="203.80" y="147.80" width="6.00" height="6"/>
<path class="fill"
	d="M213.50 106.90l55.20 -5.60v3.20l-55.20 5.60"/>
<use x="210.30" y="147.80" xlink:href="#hd"/>
<path d="M213.80 147.80v-40.00" class="stroke"/>
<abc type="N" row="117" col="8" x="203.80" y="102.80" width="13.00" height="51"/>
<use x="227.90" y="141.80" xlink:href="#hd"/>
<path d="M231.40 141.80v-35.70" class="stroke"/>
<abc type="N" row="117" col="9" x="221.40" y="100.80" width="13.00" height="47"/>
<abc type="b" row="117" col="11" x="243.90" y="124.80" width="6.00" height="6"/>
<path class="fill"
	d="M247.90 110.50l8.60 3.20v1.80l-8.60 -3.20"/>
<path class="fill"
	d="M248.20 114.10l8.00 3.00v1.80l-8.00 -3.00"/>
<use x="245.90" y="126.80" xlink:href="#ghd"/>
</g>
<g stroke-width="0.70" transform="scale(0.800)" font-family="FreeSerif" font-size="20.00">
<use x="298.62" y="158.50" xlink:href="#sh0"/>
</g>
<g stroke-width="0.70" font-family="FreeSerif" font-size="20.00">
<path d="M248.20 126.80v-15.20" class="stroke"/>
<abc type="g" row="117" col="13" x="230.40" y="106.80" width="36.50" height="28"/>
<use x="253.90" y="129.80" xlink:href="#ghd"/>
<path d="M256.20 129.80v-15.20" class="stroke"/>
<abc type="g" row="117" col="13" x="230.40" y="106.80" width="36.50" height="28"/>
<abc type="e" row="117" col="13" x="251.90" y="127.80" width="6.00" height="6"/>
<path class="stroke"
	d="M249.90 133.80c2.80 4.40 11.20 8.60 14.00 7.00"/>
<use x="264.90" y="135.80" xlink:href="#hd"/>
<path d="M268.40 135.80v-33.50" class="stroke"/>
<abc type="N" row="117" col="15" x="262.90" y="97.80" width="8.50" height="44"/>
<abc type="e" row="117" col="15" x="262.90" y="135.80" width="6.00" height="6"/>
<abc type="b" row="117" col="17" x="275.70" y="142.80" width="6.00" height="6"/>
<path class="fill"
	d="M280.90 145.00l43.20 0.00v-3.20l-43.20 -0.00"/>
<use x="284.70" y="120.80" xlink:href="#hd"/>
<path d="M281.20 120.80v23.20" class="stroke"/>
<abc type="N" row="117" col="17" x="275.70" y="114.80" width="15.50" height="34"/>
<use x="295.70" y="135.80" xlink:href="#ghd"/>
<path d="M298.00 135.80v-15.00" class="stroke"/>
<path class="fill"
	d="M298.00 120.80c0.6 3.4 5.6 3.8 3 10
	1.2 -4.4 -1.4 -7 -3 -7
"/>
<abc type="g" row="117" col="19" x="287.20" y="130.80" width="24.50" height="9"/>
<path class="stroke"
	d="M297.70 139.80c1.40 2.40 5.60 0.60 7.00 -3.00"/>
<use x="309.70" y="126.80" xlink:href="#hd"/>
<path d="M306.20 126.80v17.20" class="stroke"/>
<abc type="N" row="117" col="21" x="307.70" y="120.80" width="8.50" height="28"/>
<use x="327.30" y="120.80" xlink:href="#hd"/>
<path d="M323.80 120.80v23.20" class="stroke"/>
<abc type="N" row="117" col="22" x="320.80" y="114.80" width="13.00" height="34"/>
<abc type="e" row="117" col="22" x="320.80" y="142.80" width="6.00" height="6"/>
<abc type="b" row="117" col="24" x="340.00" y="142.80" width="6.00" height="6"/>
<path class="fill"
	d="M342.70 145.00l57.20 0.00v-3.20l-57.20 -0.00"/>
<use x="346.50" y="120.80" xlink:href="#hd"/>
<path d="M343.00 120.80v23.20" class="stroke"/>
<abc type="N" row="117" col="24" x="340.00" y="114.80" width="13.00" height="34"/>
<abc type="b" row="117" col="26" x="355.50" y="133.80" width="6.00" height="6"/>
<path class="fill"
	d="M359.50 120.60l16.60 0.00v1.80l-16.60 -0.00"/>
<path class="fill"
	d="M359.80 124.00l16.00 0.00v1.80l-16.00 -0.00"/>
<use x="357.50" y="135.80" xlink:href="#ghd"/>
<path d="M359.80 135.80v-14.20" class="stroke"/>
<abc type="g" row="117" col="28" x="349.00" y="115.80" width="38.50" height="27"/>
<use x="365.50" y="138.80" xlink:href="#ghd"/>
<path d="M367.80 138.80v-17.20" class="stroke"/>
<abc type="g" row="117" col="28" x="349.00" y="115.80" width="38.50" height="27"/>
<use x="373.50" y="135.80" xlink:href="#ghd"/>
<path d="M375.80 135.80v-14.20" class="stroke"/>
<abc type="g" row="117" col="28" x="349.00" y="115.80" width="38.50" height="27"/>
<abc type="e" row="117" col="28" x="371.50" y="133.80" width="6.00" height="6"/>
<path class="stroke"
	d="M367.50 142.80c2.60 2.20 10.40 -0.20 13.00 -4.00"/>
<use x="385.50" y="126.80" xlink:href="#hd"/>
<path d="M382.00 126.80v17.20" class="stroke"/>
<abc type="N" row="117" col="30" x="383.50" y="120.80" width="8.50" height="28"/>
<use x="403.10" y="120.80" xlink:href="#hd"/>
<path d="M399.60 120.80v23.20" class="stroke"/>
<abc type="N" row="117" col="31" x="396.60" y="114.80" width="13.00" height="34"/>
<abc type="e" row="117" col="31" x="396.60" y="142.80" width="6.00" height="6"/>
<use x="432.50" y="132.80" xlink:href="#ghd"/>
<path d="M434.80 132.80v-15.00" class="stroke"/>
<path class="fill"
	d="M434.80 117.80c0.6 3.4 5.6 3.8 3 10
	1.2 -4.4 -1.4 -7 -3 -7
"/>
<abc type="g" row="117" col="35" x="424.00" y="130.80" width="21.50" height="6"/>
<path class="stroke"
	d="M431.50 137.30c0.00 7.20 5.20 9.00 6.50 9.00"/>
<use x="443.50" y="147.80" xlink:href="#hd"/>
<path d="M447.00 147.80v-21.00" class="stroke"/>
<abc type="N" row="117" col="37" x="441.50" y="122.80" width="8.50" height="31"/>
<use x="461.90" y="135.80" xlink:href="#ghd"/>
<path d="M464.20 135.80v-15.00" class="stroke"/>
<path class="fill"
	d="M464.20 120.80c0.6 3.4 5.6 3.8 3 10
	1.2 -4.4 -1.4 -7 -3 -7
"/>
<abc type="g" row="117" col="41" x="453.40" y="130.80" width="21.50" height="9"/>
<path class="stroke"
	d="M460.90 140.30c0.00 4.80 5.20 6.00 6.50 6.00"/>
<use x="472.90" y="147.80" xlink:href="#hd"/>
<path d="M476.40 147.80v-21.00" class="stroke"/>
<abc type="N" row="117" col="43" x="470.90" y="122.80" width="8.50" height="31"/>
<use x="491.30" y="138.80" xlink:href="#ghd"/>
<path d="M493.60 138.80v-15.00" class="stroke"/>
<path class="fill"
	d="M493.60 123.80c0.6 3.4 5.6 3.8 3 10
	1.2 -4.4 -1.4 -7 -3 -7
"/>
<abc type="g" row="117" col="47" x="482.80" y="130.80" width="21.50" height="12"/>
<path class="stroke"
	d="M490.30 143.30c0.00 2.40 5.20 3.00 6.50 3.00"/>
<use x="502.30" y="147.80" xlink:href="#hd"/>
<path d="M505.80 147.80v-21.00" class="stroke"/>
<abc type="N" row="117" col="49" x="500.30" y="122.80" width="8.50" height="31"/>
<use x="520.70" y="141.80" xlink:href="#ghd"/>
<path d="M523.00 141.80v-15.00" class="stroke"/>
<path class="fill"
	d="M523.00 126.80c0.6 3.4 5.6 3.8 3 10
	1.2 -4.4 -1.4 -7 -3 -7
"/>
<abc type="g" row="117" col="53" x="512.20" y="130.80" width="21.50" height="15"/>
<path class="stroke"
	d="M520.70 146.80c2.00 4.20 8.00 7.80 10.00 6.00"/>
<use x="531.70" y="147.80" xlink:href="#hd"/>
<path d="M535.20 147.80v-21.00" class="stroke"/>
<abc type="N" row="117" col="55" x="529.70" y="122.80" width="8.50" height="31"/>
<use x="550.10" y="144.80" xlink:href="#ghd"/>
<path d="M552.40 144.80v-15.00" class="stroke"/>
<path class="fill"
	d="M552.40 129.80c0.6 3.4 5.6 3.8 3 10
	1.2 -4.4 -1.4 -7 -3 -7
"/>
<abc type="g" row="117" col="59" x="541.60" y="130.80" width="21.50" height="18"/>
<path class="stroke"
	d="M550.10 149.80c2.00 3.60 8.00 5.40 10.00 3.00"/>
<use x="561.10" y="147.80" xlink:href="#hd"/>
<path d="M564.60 147.80v-21.00" class="stroke"/>
<abc type="N" row="117" col="61" x="559.10" y="122.80" width="8.50" height="31"/>
<use x="595.50" y="144.80" xlink:href="#ghd"/>
<path d="M597.80 144.80v-15.00" class="stroke"/>
<path class="fill"
	d="M597.80 129.80c0.6 3.4 5.6 3.8 3 10
	1.2 -4.4 -1.4 -7 -3 -7
"/>
<abc type="g" row="118" col="2" x="587.00" y="130.80" width="24.50" height="18"/>
<path class="stroke"
	d="M597.50 148.80c1.40 2.40 5.60 0.60 7.00 -3.00"/>
<use x="609.50" y="129.80" xlink:href="#hd"/>
<path d="M606.00 129.80v21.00" class="stroke"/>
<abc type="N" row="118" col="4" x="607.50" y="123.80" width="8.50" height="31"/>
<use x="625.60" y="141.80" xlink:href="#ghd"/>
<path d="M627.90 141.80v-15.00" class="stroke"/>
<path class="fill"
	d="M627.90 126.80c0.6 3.4 5.6 3.8 3 10
	1.2 -4.4 -1.4 -7 -3 -7
"/>
<abc type="g" row="118" col="8" x="617.10" y="130.80" width="24.50" height="15"/>
<path class="stroke"
	d="M627.60 145.80c1.40 2.40 5.60 0.60 7.00 -3.00"/>
<use x="639.60" y="129.80" xlink:href="#hd"/>
<path d="M636.10 129.80v21.00" class="stroke"/>
<abc type="N" row="118" col="10" x="637.60" y="123.80" width="8.50" height="31"/>
<use x="655.70" y="138.80" xlink:href="#ghd"/>
<path d="M658.00 138.80v-15.00" class="stroke"/>
<path class="fill"
	d="M658.00 123.80c0.6 3.4 5.6 3.8 3 10
	1.2 -4.4 -1.4 -7 -3 -7
"/>
<abc type="g" row="118" col="14" x="647.20" y="130.80" width="24.50" height="12"/>
<path class="stroke"
	d="M657.70 142.80c1.40 2.40 5.60 0.60 7.00 -3.00"/>
<use x="669.70" y="129.80" xlink:href="#hd"/>
<path d="M666.20 129.80v21.00" class="stroke"/>
<abc type="N" row="118" col="16" x="667.70" y="123.80" width="8.50" height="31"/>
<use x="687.30" y="135.80" xlink:href="#ghd"/>
<path d="M689.60 135.80v-15.00" class="stroke"/>
<path class="fill"
	d="M689.60 120.80c0.6 3.4 5.6 3.8 3 10
	1.2 -4.4 -1.4 -7 -3 -7
"/>
<abc type="g" row="118" col="20" x="678.80" y="130.80" width="22.50" height="9"/>
<path class="stroke"
	d="M689.30 139.80c1.00 2.20 4.00 0.40 5.00 -3.00"/>
<use x="699.30" y="129.80" xlink:href="#hd"/>
<path d="M695.80 129.80v21.00" class="stroke"/>
<abc type="N" row="118" col="22" x="697.30" y="123.80" width="8.50" height="31"/>
<use x="716.90" y="132.80" xlink:href="#ghd"/>
<path d="M719.20 132.80v-15.00" class="stroke"/>
<path class="fill"
	d="M719.20 117.80c0.6 3.4 5.6 3.8 3 10
	1.2 -4.4 -1.4 -7 -3 -7
"/>
<abc type="g" row="118" col="26" x="708.40" y="130.80" width="22.50" height="6"/>
<path class="stroke"
	d="M716.90 137.80c1.40 2.20 5.60 0.40 7.00 -3.00"/>
<use x="728.90" y="129.80" xlink:href="#hd"/>
<path d="M725.40 129.80v21.00" class="stroke"/>
<abc type="N" row="118" col="28" x="726.90" y="123.80" width="8.50" height="31"/>
</g>
<g stroke-width="0.70" font-family="FreeSerif" font-size="20.00">
<path class="stroke" stroke-width="1"
	d="M443.20 229.80v-24.00"/>
<abc type="B" row="119" col="60" x="433.20" y="201.80" width="20.00" height="32"/>
<path class="stroke" stroke-width="1"
	d="M748.80 229.80v-24.00"/>
<abc type="B" row="120" col="60" x="738.80" y="201.80" width="17.00" height="32"/>
<path d="m67.20 229.80
	h681.60
	M67.20 223.80
	h681.60
	M67.20 217.80
	h681.60
	M67.20 211.80
	h681.60
	M67.20 205.80
	h681.60
	" class="stroke"/>
<use x="79.20" y="223.80" xlink:href="#tclef"/>
<abc type="c" row="119" col="4" x="65.20" y="193.80" width="28.00" height="46"/>
<use x="94.20" y="205.80" xlink:href="#sh0"/>
<use x="99.70" y="214.80" xlink:href="#sh0"/>
<abc type="K" row="119" col="4" x="89.20" y="197.80" width="22.00" height="36"/>
<use x="115.70" y="220.80" xlink:href="#ghd"/>
<path d="M118.00 220.80v-15.00" class="stroke"/>
<path class="fill"
	d="M118.00 205.80c0.6 3.4 5.6 3.8 3 10
	1.2 -4.4 -1.4 -7 -3 -7
"/>
<abc type="g" row="119" col="4" x="107.20" y="215.80" width="22.50" height="9"/>
<path class="stroke"
	d="M117.70 224.80c2.80 2.40 11.20 0.60 14.00 -3.00"/>
<use x="136.70" y="214.80" xlink:href="#hd"/>
<use x="127.70" y="214.80" xlink:href="#sh0"/>
<path d="M133.20 214.80v21.00" class="stroke"/>
<abc type="N" row="119" col="6" x="125.70" y="204.80" width="17.50" height="35"/>
<abc type="b" row="119" col="11" x="146.00" y="200.80" width="6.00" height="6"/>
<path class="fill"
	d="M150.00 186.70l15.10 7.50v1.80l-15.10 -7.50"/>
<path class="fill"
	d="M150.30 190.30l14.50 7.20v1.80l-14.50 -7.20"/>
<use x="148.00" y="202.80" xlink:href="#ghd"/>
<path d="M150.30 202.80v-15.00" class="stroke"/>
<abc type="g" row="119" col="13" x="139.50" y="182.80" width="36.00" height="37"/>
<use x="154.50" y="214.80" xlink:href="#ghd"/>
<path d="M156.80 214.80v-23.80" class="stroke"/>
<abc type="g" row="119" col="13" x="139.50" y="182.80" width="36.00" height="37"/>
<use x="162.50" y="211.80" xlink:href="#ghd"/>
<path d="M164.80 211.80v-16.80" class="stroke"/>
<abc type="g" row="119" col="13" x="139.50" y="182.80" width="36.00" height="37"/>
<abc type="e" row="119" col="13" x="160.50" y="209.80" width="6.00" height="6"/>
<path class="stroke"
	d="M150.50 218.80c3.60 3.20 14.40 3.80 18.00 1.00"/>
<use x="173.50" y="214.80" xlink:href="#hd"/>
<path d="M170.00 214.80v21.00" class="stroke"/>
<abc type="N" row="119" col="15" x="171.50" y="208.80" width="8.50" height="31"/>
<abc type="b" row="119" col="19" x="182.50" y="200.80" width="6.00" height="6"/>
<path class="fill"
	d="M186.50 186.70l31.10 15.50v1.80l-31.10 -15.50"/>
<path class="fill"
	d="M186.80 190.30l30.50 15.20v1.80l-30.50 -15.20"/>
<use x="184.50" y="202.80" xlink:href="#ghd"/>
<path d="M186.80 202.80v-15.00" class="stroke"/>
<abc type="g" row="119" col="23" x="176.00" y="182.80" width="53.00" height="45"/>
<use x="191.00" y="220.80" xlink:href="#ghd"/>
<path d="M193.30 220.80v-29.80" class="stroke"/>
<abc type="g" row="119" col="23" x="176.00" y="182.80" width="53.00" height="45"/>
<use x="199.00" y="223.80" xlink:href="#ghd"/>
<path d="M201.30 223.80v-28.80" class="stroke"/>
<abc type="g" row="119" col="23" x="176.00" y="182.80" width="53.00" height="45"/>
<use x="207.00" y="220.80" xlink:href="#ghd"/>
<path d="M209.30 220.80v-21.80" class="stroke"/>
<abc type="g" row="119" col="23" x="176.00" y="182.80" width="53.00" height="45"/>
<use x="215.00" y="223.80" xlink:href="#ghd"/>
<path d="M217.30 223.80v-20.80" class="stroke"/>
<abc type="g" row="119" col="23" x="176.00" y="182.80" width="53.00" height="45"/>
<abc type="e" row="119" col="23" x="213.00" y="221.80" width="6.00" height="6"/>
<path class="stroke"
	d="M195.00 227.80c6.20 2.60 24.80 1.40 31.00 -2.00"/>
<use x="227.00" y="220.80" xlink:href="#hd"/>
<path d="M230.50 220.80v-21.00" class="stroke"/>
<abc type="N" row="119" col="25" x="225.00" y="195.80" width="8.50" height="31"/>
<use x="246.70" y="202.80" xlink:href="#ghd"/>
<path d="M249.00 202.80v-15.00" class="stroke"/>
<path class="fill"
	d="M249.00 187.80c0.6 3.4 5.6 3.8 3 10
	1.2 -4.4 -1.4 -7 -3 -7
"/>
<abc type="g" row="119" col="28" x="238.20" y="183.80" width="21.50" height="36"/>
<path class="stroke"
	d="M245.70 207.30c0.00 4.80 5.20 6.00 6.50 6.00"/>
<abc type="b" row="119" col="30" x="255.70" y="237.80" width="6.00" height="6"/>
<path class="fill"
	d="M253.90 239.60l38.20 -4.60v-3.20l-38.20 4.60"/>
<path class="fill"
	d="M261.20 233.70l-7.00 0.80v-3.20l7.00 -0.80"/>
<use x="257.70" y="214.80" xlink:href="#hd"/>
<path d="M254.20 214.80v23.70" class="stroke"/>
<abc type="N" row="119" col="30" x="255.70" y="208.80" width="8.50" height="35"/>
<abc type="b" row="119" col="33" x="266.70" y="221.80" width="6.00" height="6"/>
<path class="fill"
	d="M270.70 195.80l15.10 0.00v1.80l-15.10 -0.00"/>
<path class="fill"
	d="M271.00 199.30l14.50 0.00v1.80l-14.50 -0.00"/>
<use x="268.70" y="223.80" xlink:href="#ghd"/>
<path d="M271.00 223.80v-27.00" class="stroke"/>
<abc type="g" row="119" col="35" x="260.20" y="191.80" width="37.00" height="36"/>
<use x="276.70" y="211.80" xlink:href="#ghd"/>
<path d="M279.00 211.80v-15.00" class="stroke"/>
<abc type="g" row="119" col="35" x="260.20" y="191.80" width="37.00" height="36"/>
<use x="283.20" y="223.80" xlink:href="#ghd"/>
<path d="M285.50 223.80v-27.00" class="stroke"/>
<abc type="g" row="119" col="35" x="260.20" y="191.80" width="37.00" height="36"/>
<abc type="e" row="119" col="35" x="281.20" y="221.80" width="6.00" height="6"/>
<path class="stroke"
	d="M270.70 227.80c3.90 2.40 15.60 0.60 19.50 -3.00"/>
<use x="295.20" y="208.80" xlink:href="#hd"/>
<circle class="fill" cx="302.90" cy="208.80" r="1.2"/>
<path d="M291.70 208.80v25.20" class="stroke"/>
<abc type="N" row="119" col="37" x="293.20" y="202.80" width="16.00" height="36"/>
<abc type="e" row="119" col="37" x="293.20" y="232.80" width="6.00" height="6"/>
<abc type="b" row="119" col="40" x="311.70" y="221.80" width="6.00" height="6"/>
<path class="fill"
	d="M315.70 199.90l16.60 -8.30v1.80l-16.60 8.30"/>
<path class="fill"
	d="M316.00 203.30l16.00 -8.00v1.80l-16.00 8.00"/>
<use x="313.70" y="223.80" xlink:href="#ghd"/>
<path d="M316.00 223.80v-23.00" class="stroke"/>
<abc type="g" row="119" col="42" x="305.20" y="191.80" width="38.50" height="36"/>
<use x="321.70" y="211.80" xlink:href="#ghd"/>
<path d="M324.00 211.80v-15.00" class="stroke"/>
<abc type="g" row="119" col="42" x="305.20" y="191.80" width="38.50" height="36"/>
<use x="329.70" y="214.80" xlink:href="#ghd"/>
<path d="M332.00 214.80v-22.00" class="stroke"/>
<abc type="g" row="119" col="42" x="305.20" y="191.80" width="38.50" height="36"/>
<abc type="e" row="119" col="42" x="327.70" y="212.80" width="6.00" height="6"/>
<path class="stroke"
	d="M315.70 227.80c4.20 2.40 16.80 0.60 21.00 -3.00"/>
<abc type="b" row="119" col="44" x="339.70" y="232.80" width="6.00" height="6"/>
<path class="fill"
	d="M337.90 235.10l23.10 2.40v-3.20l-23.10 -2.40"/>
<path class="fill"
	d="M353.70 231.70l7.00 0.70v-3.20l-7.00 -0.70"/>
<use x="341.70" y="211.80" xlink:href="#hd"/>
<circle class="fill" cx="349.40" cy="208.80" r="1.2"/>
<path d="M338.20 211.80v22.30" class="stroke"/>
<abc type="N" row="119" col="44" x="339.70" y="205.80" width="16.00" height="33"/>
<use x="364.20" y="214.80" xlink:href="#hd"/>
<path d="M360.70 214.80v21.70" class="stroke"/>
<abc type="N" row="119" col="46" x="357.70" y="208.80" width="13.00" height="33"/>
<abc type="e" row="119" col="46" x="357.70" y="235.80" width="6.00" height="6"/>
<abc type="b" row="119" col="49" x="373.20" y="200.80" width="6.00" height="6"/>
<path class="fill"
	d="M377.20 186.70l15.10 7.50v1.80l-15.10 -7.50"/>
<path class="fill"
	d="M377.50 190.30l14.50 7.20v1.80l-14.50 -7.20"/>
<use x="375.20" y="202.80" xlink:href="#ghd"/>
<path d="M377.50 202.80v-15.00" class="stroke"/>
<abc type="g" row="119" col="51" x="366.70" y="182.80" width="36.00" height="39"/>
<use x="381.70" y="217.80" xlink:href="#ghd"/>
<path d="M384.00 217.80v-26.80" class="stroke"/>
<abc type="g" row="119" col="51" x="366.70" y="182.80" width="36.00" height="39"/>
<use x="389.70" y="211.80" xlink:href="#ghd"/>
<path d="M392.00 211.80v-16.80" class="stroke"/>
<abc type="g" row="119" col="51" x="366.70" y="182.80" width="36.00" height="39"/>
<abc type="e" row="119" col="51" x="387.70" y="209.80" width="6.00" height="6"/>
<path class="stroke"
	d="M377.70 221.80c4.40 3.20 17.60 3.80 22.00 1.00"/>
<abc type="b" row="119" col="53" x="398.70" y="217.80" width="6.00" height="6"/>
<path class="fill"
	d="M403.80 180.20l22.70 4.00v3.20l-22.70 -4.00"/>
<path class="fill"
	d="M411.20 186.50l-7.00 -1.20v3.20l7.00 1.20"/>
<use x="400.70" y="217.80" xlink:href="#hd"/>
<path d="M404.20 217.80v-36.50" class="stroke"/>
<abc type="N" row="119" col="53" x="398.70" y="175.80" width="8.50" height="48"/>
<use x="411.70" y="208.80" xlink:href="#ghd"/>
<path d="M414.00 208.80v-15.00" class="stroke"/>
<path class="fill"
	d="M414.00 193.80c0.6 3.4 5.6 3.8 3 10
	1.2 -4.4 -1.4 -7 -3 -7
"/>
<abc type="g" row="119" col="56" x="403.20" y="189.80" width="21.50" height="30"/>
<path class="stroke"
	d="M410.70 213.30c0.00 7.20 5.20 9.00 6.50 9.00"/>
<use x="422.70" y="223.80" xlink:href="#hd"/>
<circle class="fill" cx="430.40" cy="220.80" r="1.2"/>
<path d="M426.20 223.80v-38.60" class="stroke"/>
<abc type="N" row="119" col="58" x="420.70" y="179.80" width="16.00" height="50"/>
<abc type="e" row="119" col="58" x="420.70" y="223.80" width="6.00" height="6"/>
<use x="457.70" y="223.80" xlink:href="#ghd"/>
<path d="M460.00 223.80v-15.00" class="stroke"/>
<path class="fill"
	d="M460.00 208.80c0.6 3.4 5.6 3.8 3 10
	1.2 -4.4 -1.4 -7 -3 -7
"/>
<abc type="g" row="120" col="3" x="449.20" y="215.80" width="22.50" height="12"/>
<path class="stroke"
	d="M457.70 228.80c1.50 3.00 6.00 3.00 7.50 -0.00"/>
<defs>
<path id="Hd" class="fill" d="m3 -1.6
	c-1 -1.8 -7 1.4 -6 3.2
	1 1.8 7 -1.4 6 -3.2
	m0.5 -0.3
	c2 3.8 -5 7.6 -7 3.8
	-2 -3.8 5 -7.6 7 -3.8"/>
</defs>
<use x="470.20" y="208.80" xlink:href="#Hd"/>
<path d="M466.70 208.80v34.00" class="stroke"/>
<use x="470.20" y="223.80" xlink:href="#Hd"/>
<abc type="N" row="120" col="5" x="467.70" y="202.80" width="9.50" height="44"/>
<abc type="b" row="120" col="13" x="482.50" y="224.80" width="6.00" height="6"/>
<path class="fill"
	d="M486.50 210.70l24.60 -9.20v1.80l-24.60 9.20"/>
<path class="fill"
	d="M486.80 214.10l24.00 -9.00v1.80l-24.00 9.00"/>
<use x="484.50" y="226.80" xlink:href="#ghd"/>
<path d="M486.80 226.80v-15.20" class="stroke"/>
<abc type="g" row="120" col="16" x="476.00" y="197.80" width="46.50" height="33"/>
<use x="492.50" y="223.80" xlink:href="#ghd"/>
<path d="M494.80 223.80v-15.20" class="stroke"/>
<abc type="g" row="120" col="16" x="476.00" y="197.80" width="46.50" height="33"/>
<use x="500.50" y="220.80" xlink:href="#ghd"/>
<path d="M502.80 220.80v-15.20" class="stroke"/>
<abc type="g" row="120" col="16" x="476.00" y="197.80" width="46.50" height="33"/>
<use x="508.50" y="217.80" xlink:href="#ghd"/>
<path d="M510.80 217.80v-15.20" class="stroke"/>
<abc type="g" row="120" col="16" x="476.00" y="197.80" width="46.50" height="33"/>
<abc type="e" row="120" col="16" x="506.50" y="215.80" width="6.00" height="6"/>
<path class="stroke"
	d="M486.50 230.80c7.80 2.40 31.20 0.60 39.00 -3.00"/>
<use x="530.50" y="214.80" xlink:href="#Hd"/>
<use x="520.50" y="214.80" xlink:href="#sh0"/>
<path d="M527.00 214.80v25.00" class="stroke"/>
<use x="530.50" y="220.80" xlink:href="#Hd"/>
<abc type="N" row="120" col="18" x="518.50" y="204.80" width="19.00" height="39"/>
<abc type="b" row="120" col="27" x="552.70" y="206.80" width="6.00" height="6"/>
<path class="fill"
	d="M556.70 192.70l8.60 -3.20v1.80l-8.60 3.20"/>
<path class="fill"
	d="M557.00 196.10l8.00 -3.00v1.80l-8.00 3.00"/>
<use x="554.70" y="208.80" xlink:href="#ghd"/>
<path d="M557.00 208.80v-15.20" class="stroke"/>
<abc type="g" row="120" col="28" x="546.20" y="185.80" width="29.50" height="34"/>
<use x="562.70" y="205.80" xlink:href="#ghd"/>
<path d="M565.00 205.80v-15.20" class="stroke"/>
<abc type="g" row="120" col="28" x="546.20" y="185.80" width="29.50" height="34"/>
<abc type="e" row="120" col="28" x="560.70" y="203.80" width="6.00" height="6"/>
<path class="stroke"
	d="M554.70 213.80c2.90 4.20 11.60 7.80 14.50 6.00"/>
<use x="574.20" y="208.80" xlink:href="#Hd"/>
<path d="M570.70 208.80v25.00" class="stroke"/>
<use x="574.20" y="214.80" xlink:href="#Hd"/>
<abc type="N" row="120" col="30" x="571.70" y="202.80" width="9.50" height="35"/>
<abc type="b" row="120" col="38" x="583.70" y="188.80" width="6.00" height="6"/>
<path class="fill"
	d="M587.70 170.30l124.60 37.30v1.80l-124.60 -37.30"/>
<path class="fill"
	d="M588.00 173.90l124.00 37.10v1.80l-124.00 -37.10"/>
<defs>
<path id="ghl" class="stroke" d="m-3.5 0h7"/>
</defs>
<use x="585.70" y="199.80" xlink:href="#ghl"/>
<use x="585.70" y="193.80" xlink:href="#ghl"/>
<use x="585.70" y="190.80" xlink:href="#ghd"/>
<path d="M588.00 190.80v-19.40" class="stroke"/>
<abc type="g" row="120" col="56" x="577.20" y="170.80" width="146.50" height="69"/>
<use x="593.70" y="199.80" xlink:href="#ghl"/>
<use x="593.70" y="193.80" xlink:href="#ghl"/>
<use x="593.70" y="193.80" xlink:href="#ghd"/>
<path d="M596.00 193.80v-20.00" class="stroke"/>
<abc type="g" row="120" col="56" x="577.20" y="170.80" width="146.50" height="69"/>
<use x="601.70" y="199.80" xlink:href="#ghl"/>
<use x="601.70" y="196.80" xlink:href="#ghd"/>
<path d="M604.00 196.80v-20.60" class="stroke"/>
<abc type="g" row="120" col="56" x="577.20" y="170.80" width="146.50" height="69"/>
<use x="609.70" y="199.80" xlink:href="#ghl"/>
<use x="609.70" y="199.80" xlink:href="#ghd"/>
<path d="M612.00 199.80v-21.30" class="stroke"/>
<abc type="g" row="120" col="56" x="577.20" y="170.80" width="146.50" height="69"/>
<use x="617.70" y="202.80" xlink:href="#ghd"/>
<path d="M620.00 202.80v-21.90" class="stroke"/>
<abc type="g" row="120" col="56" x="577.20" y="170.80" width="146.50" height="69"/>
<use x="625.70" y="205.80" xlink:href="#ghd"/>
<path d="M628.00 205.80v-22.50" class="stroke"/>
<abc type="g" row="120" col="56" x="577.20" y="170.80" width="146.50" height="69"/>
<use x="633.70" y="208.80" xlink:href="#ghd"/>
<path d="M636.00 208.80v-23.10" class="stroke"/>
<abc type="g" row="120" col="56" x="577.20" y="170.80" width="146.50" height="69"/>
<use x="641.70" y="211.80" xlink:href="#ghd"/>
<path d="M644.00 211.80v-23.70" class="stroke"/>
<abc type="g" row="120" col="56" x="577.20" y="170.80" width="146.50" height="69"/>
<use x="649.70" y="214.80" xlink:href="#ghd"/>
<path d="M652.00 214.80v-24.30" class="stroke"/>
<abc type="g" row="120" col="56" x="577.20" y="170.80" width="146.50" height="69"/>
<use x="657.70" y="217.80" xlink:href="#ghd"/>
<path d="M660.00 217.80v-24.90" class="stroke"/>
<abc type="g" row="120" col="56" x="577.20" y="170.80" width="146.50" height="69"/>
<use x="672.70" y="220.80" xlink:href="#ghd"/>
</g>
<g stroke-width="0.70" transform="scale(0.800)" font-family="FreeSerif" font-size="20.00">
<defs>
<path id="uflat" class="fill" d="
	m100 -746
	h32
	v734
	l-32 4
	m32 -332
	c46 -72 152 -90 208 -20
	100 110 -120 326 -208 348
	m0 -28
	c54 0 200 -206 130 -290
	-50 -60 -130 -4 -130 34"/>
<use id="ft0" transform="translate(-3.5,3.5) scale(0.018)"
	xlink:href="#uflat"/>
</defs>
<use x="832.12" y="276.00" xlink:href="#ft0"/>
</g>
<g stroke-width="0.70" font-family="FreeSerif" font-size="20.00">
<path d="M675.00 220.80v-23.40" class="stroke"/>
<abc type="g" row="120" col="56" x="577.20" y="170.80" width="146.50" height="69"/>
<use x="680.70" y="214.80" xlink:href="#ghd"/>
<path d="M683.00 214.80v-15.00" class="stroke"/>
<abc type="g" row="120" col="56" x="577.20" y="170.80" width="146.50" height="69"/>
<use x="688.70" y="217.80" xlink:href="#ghd"/>
<path d="M691.00 217.80v-15.60" class="stroke"/>
<abc type="g" row="120" col="56" x="577.20" y="170.80" width="146.50" height="69"/>
<use x="695.20" y="226.80" xlink:href="#ghd"/>
<path d="M697.50 226.80v-22.70" class="stroke"/>
<abc type="g" row="120" col="56" x="577.20" y="170.80" width="146.50" height="69"/>
<use x="703.20" y="223.80" xlink:href="#ghd"/>
<path d="M705.50 223.80v-17.30" class="stroke"/>
<abc type="g" row="120" col="56" x="577.20" y="170.80" width="146.50" height="69"/>
<use x="709.70" y="235.80" xlink:href="#ghl"/>
<use x="709.70" y="235.80" xlink:href="#ghd"/>
<path d="M712.00 235.80v-27.30" class="stroke"/>
<abc type="g" row="120" col="56" x="577.20" y="170.80" width="146.50" height="69"/>
<abc type="e" row="120" col="56" x="707.70" y="233.80" width="6.00" height="6"/>
<path class="stroke"
	d="M705.70 239.80c3.10 2.60 12.40 1.40 15.50 -2.00"/>
<use x="722.20" y="232.80" xlink:href="#Hd"/>
<path d="M725.70 232.80v-21.00" class="stroke"/>
<abc type="N" row="120" col="58" x="719.70" y="207.80" width="9.50" height="31"/>
</g>
<g stroke-width="0.70" font-family="FreeSerif" font-size="20.00">
<!-- title: Vocals -->
<text x="408.00" y="296.80" text-anchor="middle">Vocals</text>
</g>
<g stroke-width="0.70" font-family="FreeSerif" font-size="20.00">
<defs>
<g id="rdots" class="fill">
	<circle cx="0" cy="-9" r="1.2"/>
	<circle cx="0" cy="-15" r="1.2"/>
</g>
</defs>
<use x="203.80" y="360.80" xlink:href="#rdots"/>
<path class="stroke" stroke-width="1"
	d="M199.80 360.80v-24.00"/>
<path class="stroke" stroke-width="3"
	d="M195.30 360.80v-24.00"/>
<abc type="B" row="127" col="3" x="186.80" y="332.80" width="28.00" height="32"/>
<path class="stroke" stroke-width="1"
	d="M341.30 360.80v-24.00"/>
<abc type="B" row="127" col="14" x="331.30" y="332.80" width="20.00" height="32"/>
<path class="stroke" stroke-width="1"
	d="M476.70 360.80v-24.00"/>
<abc type="B" row="127" col="23" x="466.70" y="332.80" width="20.00" height="32"/>
<path class="stroke" stroke-width="1"
	d="M615.30 360.80v-24.00"/>
<abc type="B" row="127" col="31" x="605.30" y="332.80" width="20.00" height="32"/>
<path class="stroke" stroke-width="1"
	d="M748.80 360.80v-24.00"/>
<abc type="B" row="127" col="40" x="738.80" y="332.80" width="20.00" height="32"/>
<path d="m67.20 360.80
	h681.60
	M67.20 354.80
	h681.60
	M67.20 348.80
	h681.60
	M67.20 342.80
	h681.60
	M67.20 336.80
	h681.60
	" class="stroke"/>
</g>
<g stroke-width="0.70" font-family="sans" font-size="12.00">
<text x="217.30" y="324.40">Gm</text>
<text x="354.30" y="324.40">C7</text>
<text x="496.10" y="324.40">F</text>
<text x="628.10" y="324.40">Dm</text>
</g>
<g stroke-width="0.70" font-family="FreeSerif" font-size="13.00" font-weight="bold">
<text x="123.70" y="385.90">Close</text>
<text x="161.60" y="385.90">your</text>
<text x="212.80" y="385.90">eyes</text>
<text x="267.10" y="385.90">and</text>
<text x="305.70" y="385.90">I&apos;ll</text>
<text x="349.30" y="385.90">kiss</text>
<text x="385.80" y="385.90">you,</text>
<text x="440.90" y="385.90">to</text>
<path class="stroke" stroke-width="1.2"
	stroke-dasharray="5,23"
	d="M469.00 382.00h5"/>
<text x="484.70" y="385.90">mor</text>
<path class="stroke" stroke-width="1.2"
	stroke-dasharray="5,23"
	d="M524.55 382.00h5"/>
<text x="540.50" y="385.90">row</text>
<text x="579.80" y="385.90">I&apos;ll</text>
<text x="623.30" y="385.90">miss</text>
<text x="657.70" y="385.90">you;</text>
<text x="712.90" y="385.90">re</text>
<path class="stroke" stroke-width="1.2"
	stroke-dasharray="5,20"
	d="M732.90 382.00h5"/>
<use x="79.20" y="354.80" xlink:href="#tclef"/>
<abc type="c" row="127" col="0" x="65.20" y="324.80" width="28.00" height="46"/>
<use x="94.20" y="348.80" xlink:href="#ft0"/>
<abc type="K" row="127" col="0" x="89.20" y="332.80" width="16.50" height="32"/>
<defs>
<g id="ctsig">
	<use xlink:href="#csig"/>
	<path d="m5 8v-16" class="stroke"/>
</g>
</defs>
<use x="105.20" y="348.80" xlink:href="#ctsig"/>
<abc type="M" row="127" col="0" x="101.70" y="332.80" width="24.00" height="32"/>
<use x="138.90" y="348.80" xlink:href="#hd"/>
<path d="M135.40 348.80v21.00" class="stroke"/>
<abc type="N" row="127" col="0" x="121.70" y="342.80" width="41.90" height="31"/>
<use x="174.40" y="351.80" xlink:href="#hd"/>
<path d="M177.90 351.80v-21.00" class="stroke"/>
<abc type="N" row="127" col="1" x="159.60" y="326.80" width="30.80" height="31"/>
<use x="225.20" y="354.80" xlink:href="#Hd"/>
<path d="M228.70 354.80v-21.00" class="stroke"/>
<abc type="N" row="127" col="10" x="210.80" y="329.80" width="35.10" height="31"/>
<use x="277.80" y="351.80" xlink:href="#hd"/>
<path d="M281.30 351.80v-21.00" class="stroke"/>
<abc type="N" row="127" col="12" x="265.10" y="326.80" width="30.50" height="31"/>
<use x="315.10" y="348.80" xlink:href="#hd"/>
<path d="M318.60 348.80v-21.00" class="stroke"/>
<abc type="N" row="127" col="13" x="303.70" y="323.80" width="22.50" height="31"/>
<use x="360.50" y="345.80" xlink:href="#hd"/>
<path d="M357.00 345.80v21.00" class="stroke"/>
<abc type="N" row="127" col="19" x="347.30" y="339.80" width="32.10" height="31"/>
<use x="398.10" y="342.80" xlink:href="#Hd"/>
<path d="M394.60 342.80v21.00" class="stroke"/>
<abc type="N" row="127" col="20" x="383.80" y="336.80" width="34.70" height="31"/>
<use x="450.60" y="339.80" xlink:href="#hd"/>
<path d="M447.10 339.80v21.00" class="stroke"/>
<abc type="N" row="127" col="22" x="438.90" y="333.80" width="23.30" height="31"/>
<use x="499.00" y="336.80" xlink:href="#Hd"/>
<path d="M495.50 336.80v21.00" class="stroke"/>
<abc type="N" row="127" col="27" x="482.70" y="330.80" width="39.60" height="32"/>
<use x="551.70" y="336.80" xlink:href="#hd"/>
<path d="M548.20 336.80v21.00" class="stroke"/>
<abc type="N" row="127" col="29" x="538.50" y="330.80" width="32.10" height="32"/>
<use x="589.20" y="339.80" xlink:href="#hd"/>
<path d="M585.70 339.80v21.00" class="stroke"/>
<abc type="N" row="127" col="30" x="577.80" y="333.80" width="22.50" height="31"/>
<use x="636.00" y="342.80" xlink:href="#hd"/>
<path d="M632.50 342.80v21.00" class="stroke"/>
<abc type="N" row="127" col="36" x="621.30" y="336.80" width="35.90" height="31"/>
<use x="670.10" y="351.80" xlink:href="#Hd"/>
<path d="M673.60 351.80v-21.00" class="stroke"/>
<abc type="N" row="127" col="37" x="655.70" y="326.80" width="35.10" height="31"/>
<use x="722.60" y="342.80" xlink:href="#hd"/>
<path d="M719.10 342.80v21.00" class="stroke"/>
<abc type="N" row="127" col="39" x="710.90" y="336.80" width="23.30" height="31"/>
</g>
<g stroke-width="0.70" font-family="FreeSerif" font-size="13.00" font-weight="bold">
<path class="stroke" stroke-width="1"
	d="M244.70 437.10v-24.00"/>
<abc type="B" row="129" col="8" x="234.70" y="409.10" width="20.00" height="32"/>
<path class="stroke" stroke-width="1"
	d="M381.00 437.10v-24.00"/>
<abc type="B" row="129" col="17" x="371.00" y="409.10" width="20.00" height="32"/>
<path class="stroke" stroke-width="1"
	d="M457.60 437.10v-24.00"/>
<abc type="B" row="129" col="25" x="447.60" y="409.10" width="20.00" height="32"/>
<path class="stroke" stroke-width="1"
	d="M568.00 437.10v-24.00"/>
<abc type="B" row="129" col="31" x="558.00" y="409.10" width="17.00" height="32"/>
<path d="m67.20 437.10
	h500.80
	M67.20 431.10
	h500.80
	M67.20 425.10
	h500.80
	M67.20 419.10
	h500.80
	M67.20 413.10
	h500.80
	" class="stroke"/>
</g>
<g stroke-width="0.70" font-family="sans" font-size="12.00">
<text x="114.20" y="404.70">B♭</text>
<text x="254.20" y="404.70">Gm</text>
<text x="396.00" y="404.70">E♭</text>
<path class="stroke" stroke-width="1.2"
	stroke-dasharray="5,20"
	d="M96.45 458.60h5"/>
</g>
<g stroke-width="0.70" font-family="FreeSerif" font-size="13.00" font-weight="bold">
<text x="103.70" y="462.20">mem</text>
<path class="stroke" stroke-width="1.2"
	stroke-dasharray="5,23"
	d="M149.90 458.30h5"/>
<text x="167.00" y="462.20">ber</text>
<text x="207.30" y="462.20">I&apos;ll</text>
<text x="252.70" y="462.20">al</text>
<path class="stroke" stroke-width="1.2"
	stroke-dasharray="5,23"
	d="M281.75 458.30h5"/>
<text x="299.10" y="462.20">ways</text>
<text x="345.10" y="462.20">be</text>
<text x="389.00" y="462.20">true.</text>
<path class="stroke" stroke-width="0.8"
	d="M416.70 462.20h58.10"/>
<use x="79.20" y="431.10" xlink:href="#tclef"/>
<abc type="c" row="129" col="4" x="65.20" y="401.10" width="28.00" height="46"/>
<use x="94.20" y="425.10" xlink:href="#ft0"/>
<abc type="K" row="129" col="4" x="89.20" y="409.10" width="16.50" height="32"/>
<use x="120.10" y="419.10" xlink:href="#Hd"/>
<path d="M116.60 419.10v21.00" class="stroke"/>
<abc type="N" row="129" col="4" x="101.70" y="413.10" width="45.00" height="31"/>
<use x="176.70" y="419.10" xlink:href="#hd"/>
<path d="M173.20 419.10v21.00" class="stroke"/>
<abc type="N" row="129" col="6" x="165.00" y="413.10" width="28.30" height="31"/>
<use x="216.70" y="422.10" xlink:href="#hd"/>
<path d="M213.20 422.10v21.00" class="stroke"/>
<abc type="N" row="129" col="7" x="205.30" y="416.10" width="22.50" height="31"/>
<use x="262.10" y="425.10" xlink:href="#Hd"/>
<path d="M258.60 425.10v21.00" class="stroke"/>
<abc type="N" row="129" col="13" x="250.70" y="419.10" width="27.50" height="31"/>
<use x="313.00" y="431.10" xlink:href="#hd"/>
<path d="M316.50 431.10v-21.00" class="stroke"/>
<abc type="N" row="129" col="15" x="297.10" y="406.10" width="38.90" height="31"/>
<use x="353.00" y="434.10" xlink:href="#hd"/>
<path d="M356.50 434.10v-21.00" class="stroke"/>
<abc type="N" row="129" col="16" x="343.10" y="409.10" width="18.70" height="31"/>
<defs>
<path id="HD" class="fill" d="m-2.7 -1.4
	c1.5 -2.8 6.9 0 5.3 2.7
	-1.5 2.8 -6.9 0 -5.3 -2.7
	m8.3 1.4
	c0 -1.5 -2.2 -3 -5.6 -3
	-3.4 0 -5.6 1.5 -5.6 3
	0 1.5 2.2 3 5.6 3
	3.4 0 5.6 -1.5 5.6 -3"/>
</defs>
<use x="402.60" y="431.10" xlink:href="#HD"/>
<abc type="N" row="129" col="22" x="387.00" y="425.10" width="30.50" height="12"/>
<use x="471.80" y="431.10" xlink:href="#Hd"/>
<path d="M475.30 431.10v-21.00" class="stroke"/>
<abc type="N" row="129" col="26" x="464.80" y="406.10" width="14.00" height="31"/>
<defs>
<rect id="r2" class="fill"
	x="-3.5" y="-3" width="7" height="3"/>
</defs>
<use x="528.40" y="425.10" xlink:href="#r2"/>
<abc type="R" row="129" col="29" x="521.40" y="411.10" width="14.00" height="28"/>
<path class="fill"
	d="M405.10 431.10c9.29 5.64 53.86 5.64 63.15 -0.00
	v0.26c-11.18 7.37 -51.97 7.37 -63.15 -0.26"/>
</g>
</svg>
