<?xml version="1.0" standalone="no"?>
<!DOCTYPE svg PUBLIC "-//W3C//DTD SVG 1.1//EN"
	"http://www.w3.org/Graphics/SVG/1.1/DTD/svg11.dtd">
<svg xmlns="http://www.w3.org/2000/svg" version="1.1"
	xmlns:xlink="http://www.w3.org/1999/xlink"
	color="black"
	width="816.00px" height="1056.00px">
<style type="text/css">
.fill {fill: currentColor}
.stroke {stroke: currentColor; fill: none}
text{white-space: pre}
</style>
<title>sample4.abc page 2</title>
<!-- Creator: abcm2ps-8.14.5 -->
<!-- CreationDate: Mar 19, 2020 19:48 -->
<!-- CommandLine: -k 640 -v -A -O sample4_page_.svg sample4.abc -->
<g stroke-width="0.70">
<!-- title: Fantaisie -->
</g>
<g stroke-width="0.70" font-family="FreeSerif" font-size="20.00">
<text x="408.00" y="81.80" text-anchor="middle">Fantaisie</text>
</g>
<g stroke-width="0.70" font-family="FreeSerif" font-size="14.00" font-style="italic">
<text x="748.80" y="105.80" text-anchor="end">Camille Saint-Saëns</text>
</g>
<g stroke-width="0.70" font-family="FreeSerif" font-size="13.00" font-weight="bold">
<text x="97.24" y="326.70" text-anchor="middle">Pédale</text>
<text x="97.24" y="268.70" text-anchor="middle">Positif</text>
<text x="97.24" y="199.70" text-anchor="middle">Grand</text>
<text x="97.24" y="217.70" text-anchor="middle">Orgue</text>
<text x="97.24" y="150.70" text-anchor="middle">Récit</text>
<path class="stroke" stroke-width="1"
	d="M127.24 334.80v-200.00"/>
<path class="fill"
	d="M122.24 131.80
	c10.5 1 12 -4.5 12 -3.5c0 1 -3.5 5.5 -8.5 5.5
	v202.00
	c5 0 8.5 4.5 8.5 5.5c0 1 -1.5 -4.5 -12 -3.5"/>
<path class="stroke" stroke-width="1"
	d="M363.94 158.80v-24.00"/>
<abc type="B" row="86" col="2" x="353.94" y="130.80" width="20.00" height="32"/>
<path class="stroke" stroke-width="1"
	d="M363.94 216.80v-58.00"/>
<abc type="B" row="89" col="68" x="353.94" y="188.80" width="20.00" height="32"/>
<path class="stroke" stroke-width="1"
	d="M363.94 276.80v-60.00"/>
<abc type="B" row="95" col="4" x="353.94" y="248.80" width="20.00" height="32"/>
<path class="stroke" stroke-width="1"
	d="M363.94 334.80v-58.00"/>
<abc type="B" row="97" col="5" x="353.94" y="306.80" width="20.00" height="32"/>
<path class="stroke" stroke-width="1"
	d="M553.04 158.80v-24.00"/>
<abc type="B" row="86" col="5" x="543.04" y="130.80" width="20.00" height="32"/>
<path class="stroke" stroke-width="1"
	d="M553.04 216.80v-58.00"/>
<abc type="B" row="91" col="66" x="543.04" y="188.80" width="20.00" height="32"/>
<path class="stroke" stroke-width="1"
	d="M553.04 276.80v-60.00"/>
<abc type="B" row="95" col="7" x="543.04" y="248.80" width="20.00" height="32"/>
<path class="stroke" stroke-width="1"
	d="M553.04 334.80v-58.00"/>
<abc type="B" row="97" col="11" x="543.04" y="306.80" width="20.00" height="32"/>
<path class="stroke" stroke-width="1"
	d="M748.84 158.80v-24.00"/>
<abc type="B" row="86" col="8" x="738.84" y="130.80" width="17.00" height="32"/>
<path class="stroke" stroke-width="1"
	d="M748.84 216.80v-58.00"/>
<abc type="B" row="93" col="66" x="738.84" y="188.80" width="17.00" height="32"/>
<path class="stroke" stroke-width="1"
	d="M748.84 276.80v-60.00"/>
<abc type="B" row="95" col="10" x="738.84" y="248.80" width="17.00" height="32"/>
<path class="stroke" stroke-width="1"
	d="M748.84 334.80v-58.00"/>
<abc type="B" row="97" col="29" x="738.84" y="306.80" width="17.00" height="32"/>
<path d="m127.24 158.80
	h621.60
	M127.24 152.80
	h621.60
	M127.24 146.80
	h621.60
	M127.24 140.80
	h621.60
	M127.24 134.80
	h621.60
	" class="stroke"/>
<path d="m127.24 216.80
	h621.60
	M127.24 210.80
	h621.60
	M127.24 204.80
	h621.60
	M127.24 198.80
	h621.60
	M127.24 192.80
	h621.60
	" class="stroke"/>
<path d="m127.24 276.80
	h621.60
	M127.24 270.80
	h621.60
	M127.24 264.80
	h621.60
	M127.24 258.80
	h621.60
	M127.24 252.80
	h621.60
	" class="stroke"/>
<path d="m127.24 334.80
	h621.60
	M127.24 328.80
	h621.60
	M127.24 322.80
	h621.60
	M127.24 316.80
	h621.60
	M127.24 310.80
	h621.60
	" class="stroke"/>
<defs>
<path id="utclef" class="fill" d="m-50 -90
	c-72 -41 -72 -158 52 -188
	150 -10 220 188 90 256
	-114 52 -275 0 -293 -136
	-15 -181 93 -229 220 -334
	88 -87 79 -133 62 -210
	-51 33 -94 105 -89 186
	17 267 36 374 49 574
	6 96 -19 134 -77 135
	-80 1 -126 -93 -61 -133
	85 -41 133 101 31 105
	23 17 92 37 90 -92
	-10 -223 -39 -342 -50 -617
	0 -90 0 -162 96 -232
	56 72 63 230 22 289
	-74 106 -257 168 -255 316
	9 153 148 185 252 133
	86 -65 29 -192 -80 -176
	-71 12 -105 67 -59 124"/>
<use id="tclef" transform="translate(0,6) scale(0.045)"
	xlink:href="#utclef"/>
</defs>
<use x="139.24" y="152.80" xlink:href="#tclef"/>
<abc type="c" row="86" col="0" x="125.24" y="122.80" width="28.00" height="46"/>
<defs>
<path id="uflat" class="fill" d="
	m100 -746
	h32
	v734
	l-32 4
	m32 -332
	c46 -72 152 -90 208 -20
	100 110 -120 326 -208 348
	m0 -28
	c54 0 200 -206 130 -290
	-50 -60 -130 -4 -130 34"/>
<use id="ft0" transform="translate(-3.5,3.5) scale(0.018)"
	xlink:href="#uflat"/>
</defs>
<use x="154.24" y="146.80" xlink:href="#ft0"/>
<use x="159.74" y="137.80" xlink:href="#ft0"/>
<use x="165.24" y="149.80" xlink:href="#ft0"/>
<abc type="K" row="86" col="0" x="149.24" y="130.80" width="27.50" height="32"/>
<defs>
<path id="csig" class="fill" d="
	m6 -5.3
	c0.9 0 2.3 0.7 2.4 2.2
	-1.2 -2 -3.6 0.1 -1.6 1.7
	2 1 3.8 -3.5 -0.8 -4.7
	-2 -0.4 -6.4 1.3 -5.8 7
	0.4 6.4 7.9 6.8 9.1 0.7
	-2.3 5.6 -6.7 5.1 -6.8 0
	-0.5 -4.4 0.7 -7.5 3.5 -6.9"/>
</defs>
<use x="176.24" y="146.80" xlink:href="#csig"/>
<abc type="M" row="86" col="0" x="172.74" y="130.80" width="24.00" height="32"/>
<defs>
<rect id="r1" class="fill"
	x="-3.5" y="-6" width="7" height="3"/>
</defs>
<use x="272.64" y="146.80" xlink:href="#r1"/>
<abc type="R" row="86" col="0" x="264.64" y="132.80" width="16.00" height="28"/>
<use x="458.44" y="146.80" xlink:href="#r1"/>
<abc type="R" row="86" col="3" x="450.44" y="132.80" width="16.00" height="28"/>
<use x="650.94" y="146.80" xlink:href="#r1"/>
<abc type="R" row="86" col="6" x="642.94" y="132.80" width="16.00" height="28"/>
<use x="139.24" y="210.80" xlink:href="#tclef"/>
<abc type="c" row="88" col="0" x="125.24" y="180.80" width="28.00" height="46"/>
<use x="154.24" y="204.80" xlink:href="#ft0"/>
<use x="159.74" y="195.80" xlink:href="#ft0"/>
<use x="165.24" y="207.80" xlink:href="#ft0"/>
<abc type="K" row="86" col="0" x="149.24" y="188.80" width="27.50" height="32"/>
<use x="176.24" y="204.80" xlink:href="#csig"/>
<abc type="M" row="86" col="0" x="172.74" y="188.80" width="24.00" height="32"/>
<defs>
<path id="r4" class="fill" d="m-1 -8.5
	l3.6 5.1 -2.1 5.2 2.2 4.3
	c-2.6 -2.3 -5.1 0 -2.4 2.6
	-4.8 -3 -1.5 -6.9 1.4 -4.1
	l-3.1 -4.5 1.9 -5.1 -1.5 -3.5"/>
</defs>
<use x="200.74" y="204.80" xlink:href="#r4"/>
<abc type="R" row="88" col="0" x="194.24" y="190.80" width="13.00" height="28"/>
<abc type="b" row="88" col="2" x="229.44" y="248.80" width="6.00" height="6"/>
<path class="fill"
	d="M232.04 250.80l28.20 6.30v-3.20l-28.20 -6.30"/>
<defs>
<path id="hl" class="stroke" d="m-6 0h12"/>
</defs>
<use x="235.94" y="222.80" xlink:href="#hl"/>
<use x="235.94" y="228.80" xlink:href="#hl"/>
<defs>
<ellipse id="hd" rx="4.1" ry="2.9"
	transform="rotate(-20)" class="fill"/>
</defs>
<use x="235.94" y="216.80" xlink:href="#hd"/>
<path d="M232.44 216.80v33.00" class="stroke"/>
<use x="235.94" y="231.80" xlink:href="#hd"/>
<use x="235.94" y="225.80" xlink:href="#hd"/>
<abc type="N" row="88" col="2" x="229.44" y="210.80" width="13.00" height="44"/>
<use x="256.44" y="282.80" xlink:href="#hl"/>
<use x="256.44" y="288.80" xlink:href="#hl"/>
<use x="256.44" y="291.80" xlink:href="#hd"/>
<path d="M259.94 291.80v-37.00" class="stroke"/>
<use x="256.44" y="285.80" xlink:href="#hd"/>
<use x="256.44" y="276.80" xlink:href="#hd"/>
<abc type="N" row="88" col="20" x="249.94" y="252.80" width="13.00" height="45"/>
<abc type="e" row="88" col="20" x="249.94" y="291.80" width="6.00" height="6"/>
<abc type="b" row="89" col="12" x="272.14" y="245.80" width="6.00" height="6"/>
<path class="fill"
	d="M277.24 247.80l27.90 6.20v-3.20l-27.90 -6.20"/>
<use x="281.14" y="222.80" xlink:href="#hl"/>
<use x="281.14" y="228.80" xlink:href="#hl"/>
<use x="281.14" y="213.80" xlink:href="#hd"/>
<path d="M277.64 213.80v33.10" class="stroke"/>
<use x="281.14" y="228.80" xlink:href="#hd"/>
<use x="281.14" y="222.80" xlink:href="#hd"/>
<abc type="N" row="89" col="12" x="272.14" y="207.80" width="15.50" height="44"/>
<use x="301.34" y="282.80" xlink:href="#hl"/>
<use x="301.34" y="288.80" xlink:href="#hl"/>
<use x="301.34" y="288.80" xlink:href="#hd"/>
<path d="M304.84 288.80v-37.10" class="stroke"/>
<use x="301.34" y="282.80" xlink:href="#hd"/>
<use x="301.34" y="273.80" xlink:href="#hd"/>
<abc type="N" row="89" col="29" x="294.84" y="249.80" width="13.00" height="45"/>
<abc type="e" row="89" col="29" x="294.84" y="288.80" width="6.00" height="6"/>
<abc type="b" row="89" col="47" x="317.14" y="240.80" width="6.00" height="6"/>
<path class="fill"
	d="M322.34 243.10l27.90 5.60v-3.20l-27.90 -5.60"/>
<use x="326.14" y="222.80" xlink:href="#hl"/>
<use x="326.14" y="207.80" xlink:href="#hd"/>
<path d="M322.64 207.80v34.40" class="stroke"/>
<use x="326.14" y="222.80" xlink:href="#hd"/>
<use x="326.14" y="216.80" xlink:href="#hd"/>
<abc type="N" row="89" col="47" x="317.14" y="201.80" width="15.50" height="45"/>
<use x="346.34" y="282.80" xlink:href="#hl"/>
<use x="346.34" y="282.80" xlink:href="#hd"/>
<path d="M349.84 282.80v-36.40" class="stroke"/>
<use x="346.34" y="276.80" xlink:href="#hd"/>
<use x="346.34" y="267.80" xlink:href="#hd"/>
<abc type="N" row="89" col="63" x="339.84" y="244.80" width="13.00" height="44"/>
<abc type="e" row="89" col="63" x="339.84" y="282.80" width="6.00" height="6"/>
<abc type="b" row="90" col="11" x="371.44" y="245.80" width="6.00" height="6"/>
<path class="fill"
	d="M374.14 247.70l30.20 6.40v-3.20l-30.20 -6.40"/>
<use x="377.94" y="222.80" xlink:href="#hl"/>
<use x="377.94" y="228.80" xlink:href="#hl"/>
<use x="377.94" y="213.80" xlink:href="#hd"/>
<path d="M374.44 213.80v32.90" class="stroke"/>
<use x="377.94" y="228.80" xlink:href="#hd"/>
<use x="377.94" y="222.80" xlink:href="#hd"/>
<abc type="N" row="90" col="11" x="371.44" y="207.80" width="13.00" height="44"/>
<use x="400.44" y="282.80" xlink:href="#hl"/>
<use x="400.44" y="288.80" xlink:href="#hl"/>
<use x="400.44" y="288.80" xlink:href="#hd"/>
<path d="M403.94 288.80v-36.90" class="stroke"/>
<use x="400.44" y="282.80" xlink:href="#hd"/>
<use x="400.44" y="273.80" xlink:href="#hd"/>
<abc type="N" row="90" col="28" x="393.94" y="249.80" width="13.00" height="45"/>
<abc type="e" row="90" col="28" x="393.94" y="288.80" width="6.00" height="6"/>
<abc type="b" row="90" col="46" x="416.24" y="242.80" width="6.00" height="6"/>
<path class="fill"
	d="M421.34 244.80l27.90 6.20v-3.20l-27.90 -6.20"/>
<use x="425.24" y="222.80" xlink:href="#hl"/>
<use x="425.24" y="210.80" xlink:href="#hd"/>
<path d="M421.74 210.80v33.10" class="stroke"/>
<use x="425.24" y="225.80" xlink:href="#hd"/>
<use x="425.24" y="219.80" xlink:href="#hd"/>
<abc type="N" row="90" col="46" x="416.24" y="204.80" width="15.50" height="44"/>
<use x="445.44" y="282.80" xlink:href="#hl"/>
<use x="445.44" y="285.80" xlink:href="#hd"/>
<path d="M448.94 285.80v-37.10" class="stroke"/>
<use x="445.44" y="279.80" xlink:href="#hd"/>
<use x="445.44" y="270.80" xlink:href="#hd"/>
<abc type="N" row="90" col="63" x="438.94" y="246.80" width="13.00" height="45"/>
<abc type="e" row="90" col="63" x="438.94" y="285.80" width="6.00" height="6"/>
<abc type="b" row="91" col="12" x="461.24" y="240.80" width="6.00" height="6"/>
<path class="fill"
	d="M466.44 243.10l27.80 5.50v-3.20l-27.80 -5.50"/>
<use x="470.24" y="222.80" xlink:href="#hl"/>
<use x="470.24" y="207.80" xlink:href="#hd"/>
<path d="M466.74 207.80v34.40" class="stroke"/>
<use x="470.24" y="222.80" xlink:href="#hd"/>
<use x="470.24" y="216.80" xlink:href="#hd"/>
<abc type="N" row="91" col="12" x="461.24" y="201.80" width="15.50" height="45"/>
<use x="490.44" y="282.80" xlink:href="#hl"/>
<use x="490.44" y="282.80" xlink:href="#hd"/>
<path d="M493.94 282.80v-36.40" class="stroke"/>
<use x="490.44" y="276.80" xlink:href="#hd"/>
<use x="490.44" y="267.80" xlink:href="#hd"/>
<abc type="N" row="91" col="28" x="483.94" y="244.80" width="13.00" height="44"/>
<abc type="e" row="91" col="28" x="483.94" y="282.80" width="6.00" height="6"/>
<abc type="b" row="91" col="45" x="506.24" y="237.80" width="6.00" height="6"/>
<path class="fill"
	d="M511.44 239.30l27.80 4.30v-3.20l-27.80 -4.30"/>
<use x="515.24" y="201.80" xlink:href="#hd"/>
<path d="M511.74 201.80v36.50" class="stroke"/>
<use x="515.24" y="219.80" xlink:href="#hd"/>
<use x="515.24" y="207.80" xlink:href="#hd"/>
<abc type="N" row="91" col="45" x="506.24" y="195.80" width="15.50" height="48"/>
<use x="535.34" y="279.80" xlink:href="#hd"/>
<path d="M538.84 279.80v-38.50" class="stroke"/>
<use x="535.34" y="267.80" xlink:href="#hd"/>
<use x="535.34" y="261.80" xlink:href="#hd"/>
<abc type="N" row="91" col="61" x="528.84" y="239.80" width="13.00" height="46"/>
<abc type="e" row="91" col="61" x="528.84" y="279.80" width="6.00" height="6"/>
<abc type="b" row="92" col="11" x="560.54" y="237.80" width="6.00" height="6"/>
<path class="fill"
	d="M563.14 239.40l30.20 6.10v-3.20l-30.20 -6.10"/>
<use x="567.04" y="204.80" xlink:href="#hd"/>
<path d="M563.54 204.80v33.60" class="stroke"/>
<use x="567.04" y="216.80" xlink:href="#hd"/>
<use x="567.04" y="210.80" xlink:href="#hd"/>
<abc type="N" row="92" col="11" x="560.54" y="198.80" width="13.00" height="45"/>
<use x="589.54" y="276.80" xlink:href="#hd"/>
<path d="M593.04 276.80v-33.60" class="stroke"/>
<use x="589.54" y="270.80" xlink:href="#hd"/>
<use x="589.54" y="264.80" xlink:href="#hd"/>
<abc type="N" row="92" col="27" x="583.04" y="241.80" width="13.00" height="41"/>
<abc type="e" row="92" col="27" x="583.04" y="276.80" width="6.00" height="6"/>
<abc type="b" row="92" col="44" x="605.24" y="230.80" width="6.00" height="6"/>
<path class="fill"
	d="M610.44 232.50l30.10 4.90v-3.20l-30.10 -4.90"/>
<use x="614.24" y="195.80" xlink:href="#hd"/>
<path d="M610.74 195.80v35.70" class="stroke"/>
<use x="614.24" y="210.80" xlink:href="#hd"/>
<use x="614.24" y="204.80" xlink:href="#hd"/>
<abc type="N" row="92" col="44" x="605.24" y="189.80" width="15.50" height="47"/>
<use x="636.74" y="270.80" xlink:href="#hd"/>
<path d="M640.24 270.80v-35.70" class="stroke"/>
<use x="636.74" y="264.80" xlink:href="#hd"/>
<use x="636.74" y="255.80" xlink:href="#hd"/>
<abc type="N" row="92" col="60" x="630.24" y="232.80" width="13.00" height="44"/>
<abc type="e" row="92" col="60" x="630.24" y="270.80" width="6.00" height="6"/>
<abc type="b" row="93" col="12" x="652.54" y="237.80" width="6.00" height="6"/>
<path class="fill"
	d="M657.64 239.40l30.10 6.10v-3.20l-30.10 -6.10"/>
<use x="661.54" y="204.80" xlink:href="#hd"/>
<path d="M658.04 204.80v33.60" class="stroke"/>
<use x="661.54" y="216.80" xlink:href="#hd"/>
<use x="661.54" y="210.80" xlink:href="#hd"/>
<abc type="N" row="93" col="12" x="652.54" y="198.80" width="15.50" height="45"/>
<use x="683.84" y="276.80" xlink:href="#hd"/>
<path d="M687.34 276.80v-33.60" class="stroke"/>
<use x="683.84" y="270.80" xlink:href="#hd"/>
<use x="683.84" y="264.80" xlink:href="#hd"/>
<abc type="N" row="93" col="28" x="677.34" y="241.80" width="13.00" height="41"/>
<abc type="e" row="93" col="28" x="677.34" y="276.80" width="6.00" height="6"/>
<abc type="b" row="93" col="45" x="699.94" y="238.80" width="6.00" height="6"/>
<path class="fill"
	d="M705.14 241.00l29.90 6.70v-3.20l-29.90 -6.70"/>
<use x="708.94" y="207.80" xlink:href="#hd"/>
<path d="M705.44 207.80v32.30" class="stroke"/>
<use x="708.94" y="219.80" xlink:href="#hd"/>
<use x="708.94" y="213.80" xlink:href="#hd"/>
<abc type="N" row="93" col="45" x="699.94" y="201.80" width="15.50" height="43"/>
<use x="731.14" y="279.80" xlink:href="#hd"/>
<path d="M734.64 279.80v-34.30" class="stroke"/>
<use x="731.14" y="273.80" xlink:href="#hd"/>
<use x="731.14" y="267.80" xlink:href="#hd"/>
<abc type="N" row="93" col="61" x="724.64" y="243.80" width="13.00" height="42"/>
<abc type="e" row="93" col="61" x="724.64" y="279.80" width="6.00" height="6"/>
<use x="139.24" y="270.80" xlink:href="#tclef"/>
<abc type="c" row="95" col="0" x="125.24" y="240.80" width="28.00" height="46"/>
<use x="154.24" y="264.80" xlink:href="#ft0"/>
<use x="159.74" y="255.80" xlink:href="#ft0"/>
<use x="165.24" y="267.80" xlink:href="#ft0"/>
<abc type="K" row="86" col="0" x="149.24" y="248.80" width="27.50" height="32"/>
<use x="176.24" y="264.80" xlink:href="#csig"/>
<abc type="M" row="86" col="0" x="172.74" y="248.80" width="24.00" height="32"/>
<use x="200.74" y="264.80" xlink:href="#r4"/>
<abc type="R" row="95" col="0" x="194.24" y="250.80" width="13.00" height="28"/>
<abc type="R" row="95" col="2" x="228.94" y="256.80" width="22.00" height="14"/>
<abc type="R" row="95" col="5" x="450.44" y="252.80" width="16.00" height="14"/>
<abc type="R" row="95" col="8" x="642.94" y="252.80" width="16.00" height="14"/>
<defs>
<path id="ubclef" class="fill" d="m-200 -87
	c124 -35 222 -78 254 -236
	43 -228 -167 -246 -192 -103
	59 -80 157 22 92 78
	-62 47 -115 -22 -106 -88
	21 -141 270 -136 274 52
	-1 175 -106 264 -322 297
	m357 -250
	c0 -36 51 -34 51 0
	0 37 -51 36 -51 0
	m-2 -129
	c0 -36 51 -34 51 0
	0 38 -51 37 -51 0"/>
<use id="bclef" transform="translate(0,18) scale(0.045)"
	xlink:href="#ubclef"/>
</defs>
<use x="139.24" y="316.80" xlink:href="#bclef"/>
<abc type="c" row="97" col="0" x="125.24" y="306.80" width="28.00" height="31"/>
<use x="154.24" y="328.80" xlink:href="#ft0"/>
<use x="159.74" y="319.80" xlink:href="#ft0"/>
<use x="165.24" y="331.80" xlink:href="#ft0"/>
<abc type="K" row="86" col="0" x="149.24" y="306.80" width="27.50" height="32"/>
<use x="176.24" y="322.80" xlink:href="#csig"/>
<abc type="M" row="86" col="0" x="172.74" y="306.80" width="24.00" height="32"/>
<defs>
<path id="hl1" class="stroke" d="m-7 0h14"/>
</defs>
<use x="201.74" y="340.80" xlink:href="#hl1"/>
<defs>
<path id="HD" class="fill" d="m-2.7 -1.4
	c1.5 -2.8 6.9 0 5.3 2.7
	-1.5 2.8 -6.9 0 -5.3 -2.7
	m8.3 1.4
	c0 -1.5 -2.2 -3 -5.6 -3
	-3.4 0 -5.6 1.5 -5.6 3
	0 1.5 2.2 3 5.6 3
	3.4 0 5.6 -1.5 5.6 -3"/>
</defs>
<use x="201.74" y="340.80" xlink:href="#HD"/>
<abc type="N" row="97" col="0" x="192.74" y="334.80" width="16.00" height="20"/>
<use x="378.94" y="340.80" xlink:href="#hl1"/>
<use x="378.94" y="340.80" xlink:href="#HD"/>
<abc type="N" row="97" col="6" x="369.94" y="334.80" width="16.00" height="20"/>
<use x="567.04" y="340.80" xlink:href="#hl"/>
<use x="567.04" y="340.80" xlink:href="#hd"/>
<path d="M570.54 340.80v-21.00" class="stroke"/>
<abc type="N" row="97" col="12" x="560.54" y="315.80" width="13.00" height="39"/>
<use x="614.24" y="334.80" xlink:href="#hd"/>
<path d="M617.74 334.80v-21.00" class="stroke"/>
<abc type="N" row="97" col="16" x="607.74" y="309.80" width="13.00" height="31"/>
<use x="661.54" y="328.80" xlink:href="#hd"/>
<path d="M665.04 328.80v-21.00" class="stroke"/>
<abc type="N" row="97" col="20" x="655.04" y="303.80" width="13.00" height="31"/>
<use x="708.94" y="328.80" xlink:href="#hd"/>
<defs>
<path id="unat" class="fill" d="
	m96 -750
	h-32
	v716
	l32 -8
	182 -54
	v282
	h32
	v-706
	l-34 10
	-180 50
	v-290
	m0 592
	v-190
	l182 -52
	v188"/>
<use id="nt0" transform="translate(-3,5) scale(0.018)"
	xlink:href="#unat"/>
</defs>
<use x="699.94" y="328.80" xlink:href="#nt0"/>
<path d="M712.44 328.80v-21.00" class="stroke"/>
<abc type="N" row="97" col="24" x="693.44" y="303.80" width="22.00" height="34"/>
<path class="fill"
	d="M204.24 340.80c16.83 7.56 153.39 7.56 170.22 -0.00
	v0.37c-21.94 9.19 -148.28 9.19 -170.22 -0.37"/>
<path class="fill"
	d="M381.44 340.80c17.04 7.78 165.00 7.78 182.04 -0.00
	v0.38c-22.50 9.39 -159.54 9.39 -182.04 -0.38"/>
</g>
<g stroke-width="0.70" font-family="FreeSerif" font-size="13.00" font-weight="bold">
<!-- title: Special staves -->
</g>
<g stroke-width="0.70" font-family="FreeSerif" font-size="20.00">
<text x="408.00" y="401.80" text-anchor="middle">Special staves</text>
</g>
<g stroke-width="0.70" font-family="FreeSerif" font-size="20.00">
<path class="stroke" stroke-width="1"
	d="M67.20 593.80v-152.00"/>
<path class="fill"
	d="M62.20 438.80
	c10.5 1 12 -4.5 12 -3.5c0 1 -3.5 5.5 -8.5 5.5
	v108.00
	c5 0 8.5 4.5 8.5 5.5c0 1 -1.5 -4.5 -12 -3.5"/>
<path class="stroke" stroke-width="1"
	d="M307.00 465.80v-24.00"/>
<abc type="B" row="106" col="21" x="297.00" y="437.80" width="20.00" height="32"/>
<path class="stroke" stroke-width="1"
	d="M307.00 547.80v-82.00"/>
<abc type="B" row="112" col="44" x="297.00" y="519.80" width="20.00" height="32"/>
<path class="stroke" stroke-width="1"
	d="M307.00 593.80v-12.00"/>
<abc type="B" row="116" col="20" x="297.00" y="571.80" width="20.00" height="32"/>
<path class="stroke" stroke-width="1"
	d="M487.40 465.80v-24.00"/>
<abc type="B" row="106" col="38" x="477.40" y="437.80" width="17.00" height="32"/>
<path class="stroke" stroke-width="1"
	d="M487.40 547.80v-82.00"/>
<abc type="B" row="112" col="62" x="477.40" y="519.80" width="17.00" height="32"/>
<path class="stroke" stroke-width="1"
	d="M487.40 593.80v-12.00"/>
<abc type="B" row="116" col="33" x="477.40" y="571.80" width="17.00" height="32"/>
<path d="m67.20 465.80
	h420.20
	M67.20 459.80
	h420.20
	M67.20 453.80
	h420.20
	M67.20 447.80
	h420.20
	M67.20 441.80
	h420.20
	" class="stroke"/>
</g>
<g stroke-width="0.70" transform="scale(1.600)" font-family="FreeSerif" font-size="20.00">
<path d="m42.00 342.38
	h262.60
	M42.00 336.38
	h262.60
	M42.00 330.38
	h262.60
	M42.00 324.38
	h262.60
	M42.00 318.38
	h262.60
	M42.00 312.38
	h262.60
	" class="stroke"/>
</g>
<g stroke-width="0.70" font-family="FreeSerif" font-size="20.00">
<path d="m67.20 587.80
	h420.20
	" class="stroke"/>
</g>
<g stroke-width="0.70" transform="scale(1.600)" font-family="FreeSerif" font-size="20.00">
</g>
<g stroke-width="0.70" font-family="FreeSerif" font-size="20.00">
<use x="79.20" y="459.80" xlink:href="#tclef"/>
<abc type="c" row="106" col="0" x="65.20" y="429.80" width="28.00" height="46"/>
<use x="94.20" y="453.80" xlink:href="#ft0"/>
<use x="99.70" y="444.80" xlink:href="#ft0"/>
<use x="105.20" y="456.80" xlink:href="#ft0"/>
<abc type="K" row="106" col="0" x="89.20" y="437.80" width="27.50" height="32"/>
<g font-family="FreeSerif" font-size="16" font-weight="bold" font-style="normal"
	transform="translate(121.20,465.30) scale(1.2,1)">
	<text text-anchor="middle">8</text>
	<text y="-12" text-anchor="middle">9</text>
</g>
<abc type="M" row="106" col="0" x="112.70" y="437.80" width="24.00" height="32"/>
<use x="145.20" y="471.80" xlink:href="#hl"/>
<defs>
<path id="Hd" class="fill" d="m3 -1.6
	c-1 -1.8 -7 1.4 -6 3.2
	1 1.8 7 -1.4 6 -3.2
	m0.5 -0.3
	c2 3.8 -5 7.6 -7 3.8
	-2 -3.8 5 -7.6 7 -3.8"/>
</defs>
<use x="145.20" y="471.80" xlink:href="#Hd"/>
<circle class="fill" cx="154.90" cy="468.80" r="1.2"/>
<path d="M148.70 471.80v-50.00" class="stroke"/>
<use x="145.20" y="459.80" xlink:href="#Hd"/>
<circle class="fill" cx="154.90" cy="456.80" r="1.2"/>
<use x="145.20" y="450.80" xlink:href="#Hd"/>
<circle class="fill" cx="154.90" cy="450.80" r="1.2"/>
<use x="145.20" y="444.80" xlink:href="#Hd"/>
<circle class="fill" cx="154.90" cy="444.80" r="1.2"/>
<use x="145.20" y="438.80" xlink:href="#Hd"/>
<circle class="fill" cx="154.90" cy="438.80" r="1.2"/>
<abc type="N" row="106" col="0" x="138.20" y="417.80" width="23.00" height="60"/>
<use x="236.30" y="471.80" xlink:href="#hl"/>
<use x="236.30" y="471.80" xlink:href="#hd"/>
<circle class="fill" cx="244.00" cy="468.80" r="1.2"/>
<path d="M239.80 471.80v-50.00" class="stroke"/>
<use x="236.30" y="459.80" xlink:href="#hd"/>
<circle class="fill" cx="244.00" cy="456.80" r="1.2"/>
<use x="236.30" y="450.80" xlink:href="#hd"/>
<circle class="fill" cx="244.00" cy="450.80" r="1.2"/>
<use x="236.30" y="444.80" xlink:href="#hd"/>
<circle class="fill" cx="244.00" cy="444.80" r="1.2"/>
<use x="236.30" y="438.80" xlink:href="#hd"/>
<circle class="fill" cx="244.00" cy="438.80" r="1.2"/>
<abc type="N" row="106" col="8" x="228.30" y="417.80" width="22.00" height="65"/>
<use x="325.50" y="471.80" xlink:href="#hl"/>
<use x="325.50" y="471.80" xlink:href="#hd"/>
<circle class="fill" cx="333.20" cy="468.80" r="1.2"/>
<path d="M329.00 471.80v-50.00" class="stroke"/>
<use x="325.50" y="459.80" xlink:href="#hd"/>
<circle class="fill" cx="333.20" cy="456.80" r="1.2"/>
<use x="325.50" y="450.80" xlink:href="#hd"/>
<circle class="fill" cx="333.20" cy="450.80" r="1.2"/>
<use x="325.50" y="444.80" xlink:href="#hd"/>
<circle class="fill" cx="333.20" cy="444.80" r="1.2"/>
<use x="325.50" y="438.80" xlink:href="#hd"/>
<circle class="fill" cx="333.20" cy="438.80" r="1.2"/>
<abc type="N" row="106" col="22" x="319.00" y="417.80" width="20.50" height="65"/>
<use x="371.10" y="471.80" xlink:href="#hl"/>
<use x="371.10" y="471.80" xlink:href="#Hd"/>
<circle class="fill" cx="379.80" cy="468.80" r="1.2"/>
<path d="M374.60 471.80v-50.00" class="stroke"/>
<use x="371.10" y="459.80" xlink:href="#Hd"/>
<circle class="fill" cx="379.80" cy="456.80" r="1.2"/>
<use x="371.10" y="450.80" xlink:href="#Hd"/>
<circle class="fill" cx="379.80" cy="450.80" r="1.2"/>
<use x="371.10" y="444.80" xlink:href="#Hd"/>
<circle class="fill" cx="379.80" cy="444.80" r="1.2"/>
<use x="371.10" y="438.80" xlink:href="#Hd"/>
<circle class="fill" cx="379.80" cy="438.80" r="1.2"/>
<abc type="N" row="106" col="30" x="363.10" y="417.80" width="23.00" height="60"/>
<path class="fill"
	d="M239.80 471.80c11.39 5.98 70.89 5.98 82.28 -0.00
	v0.28c-13.86 7.70 -68.42 7.70 -82.28 -0.28"/>
<path class="fill"
	d="M239.80 459.80c11.39 5.98 70.89 5.98 82.28 -0.00
	v0.28c-13.86 7.70 -68.42 7.70 -82.28 -0.28"/>
<path class="fill"
	d="M239.80 450.80c11.39 -5.98 70.89 -5.98 82.28 -0.00
	v-0.28c-13.86 -7.70 -68.42 -7.70 -82.28 0.28"/>
<path class="fill"
	d="M239.80 444.80c11.39 -5.98 70.89 -5.98 82.28 -0.00
	v-0.28c-13.86 -7.70 -68.42 -7.70 -82.28 0.28"/>
<path class="fill"
	d="M239.80 438.80c11.39 -5.98 70.89 -5.98 82.28 -0.00
	v-0.28c-13.86 -7.70 -68.42 -7.70 -82.28 0.28"/>
<abc type="N" row="112" col="17" x="81.40" y="306.38" width="31.00" height="53"/>
<abc type="N" row="112" col="31" x="142.70" y="306.38" width="22.00" height="53"/>
<abc type="N" row="112" col="46" x="199.40" y="308.38" width="20.50" height="31"/>
<abc type="N" row="112" col="49" x="226.30" y="306.38" width="24.00" height="53"/>
</g>
<g stroke-width="0.70" transform="scale(1.600)" font-family="FreeSerif" font-size="20.00">
</g>
<g stroke-width="0.70" font-family="FreeSerif" font-size="20.00">
<defs>
<path id="pclef" d="m-2.7 9h5.4v-18h-5.4v18" class="stroke" stroke-width="1.4"/>
</defs>
<use x="79.20" y="587.80" xlink:href="#pclef"/>
<abc type="c" row="116" col="8" x="65.20" y="557.80" width="28.00" height="46"/>
<g font-family="FreeSerif" font-size="16" font-weight="bold" font-style="normal"
	transform="translate(121.20,599.30) scale(1.2,1)">
	<text text-anchor="middle">8</text>
	<text y="-12" text-anchor="middle">9</text>
</g>
<abc type="M" row="106" col="0" x="112.70" y="571.80" width="24.00" height="32"/>
<defs>
<use id="dsh0" transform="translate(-4,5) scale(0.018)"
	xlink:href="#udblesharp"/>
<path id="udblesharp" class="fill" d="
	m240 -282
	c40 -38 74 -68 158 -68
	v-96
	h-96
	c0 84 -30 118 -68 156
	-40 -38 -70 -72 -70 -156
	h-96
	v96
	c86 0 120 30 158 68
	-38 38 -72 68 -158 68
	v96
	h96
	c0 -84 30 -118 70 -156
	38 38 68 72 68 156
	h96
	v-96
	c-84 0 -118 -30 -158 -68"/>
<g id="pshhd">
	<use xlink:href="#dsh0"/>
</g>
</defs>
<use x="145.20" y="584.80" xlink:href="#pshhd"/>
<circle class="fill" cx="152.90" cy="584.80" r="1.2"/>
<path d="M148.70 584.80v-21.00" class="stroke"/>
<abc type="N" row="116" col="8" x="132.70" y="559.80" width="26.50" height="34"/>
<use x="190.70" y="584.80" xlink:href="#pshhd"/>
<circle class="fill" cx="198.40" cy="584.80" r="1.2"/>
<path d="M194.20 584.80v-21.00" class="stroke"/>
<abc type="N" row="116" col="11" x="175.20" y="559.80" width="29.50" height="34"/>
<abc type="b" row="116" col="14" x="220.80" y="587.80" width="6.00" height="6"/>
<path class="fill"
	d="M239.40 563.80l51.60 0.00v3.20l-51.60 -0.00"/>
<use x="236.30" y="584.80" xlink:href="#pshhd"/>
<path d="M239.80 584.80v-20.00" class="stroke"/>
<abc type="N" row="116" col="14" x="220.80" y="559.80" width="22.00" height="34"/>
<use x="261.80" y="584.80" xlink:href="#pshhd"/>
<path d="M265.30 584.80v-20.00" class="stroke"/>
<abc type="N" row="116" col="16" x="246.30" y="559.80" width="22.00" height="34"/>
<use x="287.20" y="584.80" xlink:href="#pshhd"/>
<path d="M290.70 584.80v-20.00" class="stroke"/>
<abc type="N" row="116" col="18" x="271.70" y="559.80" width="22.00" height="34"/>
<abc type="e" row="116" col="18" x="271.70" y="587.80" width="6.00" height="6"/>
<use x="325.50" y="584.80" xlink:href="#pshhd"/>
<circle class="fill" cx="333.20" cy="584.80" r="1.2"/>
<path d="M329.00 584.80v-21.00" class="stroke"/>
<abc type="N" row="116" col="21" x="313.00" y="559.80" width="26.50" height="34"/>
<use x="371.10" y="584.80" xlink:href="#pshhd"/>
<circle class="fill" cx="378.80" cy="584.80" r="1.2"/>
<path d="M374.60 584.80v-21.00" class="stroke"/>
<abc type="N" row="116" col="24" x="355.60" y="559.80" width="29.50" height="34"/>
<abc type="b" row="116" col="27" x="401.10" y="587.80" width="6.00" height="6"/>
<path class="fill"
	d="M419.80 563.80l51.60 0.00v3.20l-51.60 -0.00"/>
<use x="416.60" y="584.80" xlink:href="#pshhd"/>
<path d="M420.10 584.80v-20.00" class="stroke"/>
<abc type="N" row="116" col="27" x="401.10" y="559.80" width="22.00" height="34"/>
<use x="442.10" y="584.80" xlink:href="#pshhd"/>
<path d="M445.60 584.80v-20.00" class="stroke"/>
<abc type="N" row="116" col="29" x="426.60" y="559.80" width="22.00" height="34"/>
<use x="467.60" y="584.80" xlink:href="#pshhd"/>
<path d="M471.10 584.80v-20.00" class="stroke"/>
<abc type="N" row="116" col="31" x="452.10" y="559.80" width="22.00" height="34"/>
<abc type="e" row="116" col="31" x="452.10" y="587.80" width="6.00" height="6"/>
<use x="145.20" y="590.80" xlink:href="#hd"/>
<circle class="fill" cx="152.90" cy="590.80" r="1.2"/>
<path d="M141.70 590.80v21.00" class="stroke"/>
<abc type="N" row="118" col="8" x="138.70" y="584.80" width="20.50" height="31"/>
<use x="190.70" y="590.80" xlink:href="#hd"/>
<circle class="fill" cx="198.40" cy="590.80" r="1.2"/>
<path d="M187.20 590.80v21.00" class="stroke"/>
<abc type="N" row="118" col="10" x="184.20" y="584.80" width="20.50" height="31"/>
<use x="236.30" y="590.80" xlink:href="#hd"/>
<circle class="fill" cx="244.00" cy="590.80" r="1.2"/>
<path d="M232.80 590.80v21.00" class="stroke"/>
<abc type="N" row="118" col="12" x="229.80" y="584.80" width="20.50" height="31"/>
<use x="325.50" y="590.80" xlink:href="#Hd"/>
<circle class="fill" cx="334.20" cy="590.80" r="1.2"/>
<path d="M322.00 590.80v21.00" class="stroke"/>
<abc type="N" row="118" col="15" x="318.50" y="584.80" width="22.00" height="31"/>
<use x="416.60" y="590.80" xlink:href="#hd"/>
<circle class="fill" cx="424.30" cy="590.80" r="1.2"/>
<path d="M413.10 590.80v21.00" class="stroke"/>
<abc type="N" row="118" col="17" x="410.10" y="584.80" width="20.50" height="31"/>
</g>
<g stroke-width="1.00" transform="scale(1.600)" font-family="FreeSerif" font-size="20.00" style="color:#ffffff;">
<path d="m88.80 336.38
	h8.00
	" class="stroke"/>
</g>
<g stroke-width="1.00" transform="scale(1.600)" font-family="Helvetica" font-size="8.00" font-weight="bold">
<text x="90.80" y="339.38">3</text>
</g>
<g stroke-width="1.00" transform="scale(1.600)" font-family="Helvetica" font-size="8.00" font-weight="bold" style="color:#ffffff;">
<path d="m88.80 330.38
	h8.00
	" class="stroke"/>
</g>
<g stroke-width="1.00" transform="scale(1.600)" font-family="Helvetica" font-size="8.00" font-weight="bold">
<text x="90.80" y="333.38">5</text>
</g>
<g stroke-width="1.00" transform="scale(1.600)" font-family="Helvetica" font-size="8.00" font-weight="bold" style="color:#ffffff;">
<path d="m88.80 324.38
	h8.00
	" class="stroke"/>
</g>
<g stroke-width="1.00" transform="scale(1.600)" font-family="Helvetica" font-size="8.00" font-weight="bold">
<text x="90.80" y="327.38">5</text>
</g>
<g stroke-width="1.00" transform="scale(1.600)" font-family="Helvetica" font-size="8.00" font-weight="bold" style="color:#ffffff;">
<path d="m88.80 318.38
	h8.00
	" class="stroke"/>
</g>
<g stroke-width="1.00" transform="scale(1.600)" font-family="Helvetica" font-size="8.00" font-weight="bold">
<text x="90.80" y="321.38">4</text>
</g>
<g stroke-width="1.00" transform="scale(1.600)" font-family="Helvetica" font-size="8.00" font-weight="bold" style="color:#ffffff;">
<path d="m88.80 312.38
	h8.00
	" class="stroke"/>
</g>
<g stroke-width="1.00" transform="scale(1.600)" font-family="Helvetica" font-size="8.00" font-weight="bold">
<text x="90.80" y="315.38">3</text>
</g>
<g stroke-width="1.00" transform="scale(1.600)" font-family="Helvetica" font-size="8.00" font-weight="bold" style="color:#ffffff;">
<path d="m145.70 336.38
	h8.00
	" class="stroke"/>
</g>
<g stroke-width="1.00" transform="scale(1.600)" font-family="Helvetica" font-size="8.00" font-weight="bold">
<text x="147.70" y="339.38">3</text>
</g>
<g stroke-width="1.00" transform="scale(1.600)" font-family="Helvetica" font-size="8.00" font-weight="bold" style="color:#ffffff;">
<path d="m145.70 330.38
	h8.00
	" class="stroke"/>
</g>
<g stroke-width="1.00" transform="scale(1.600)" font-family="Helvetica" font-size="8.00" font-weight="bold">
<text x="147.70" y="333.38">5</text>
</g>
<g stroke-width="1.00" transform="scale(1.600)" font-family="Helvetica" font-size="8.00" font-weight="bold" style="color:#ffffff;">
<path d="m145.70 324.38
	h8.00
	" class="stroke"/>
</g>
<g stroke-width="1.00" transform="scale(1.600)" font-family="Helvetica" font-size="8.00" font-weight="bold">
<text x="147.70" y="327.38">5</text>
</g>
<g stroke-width="1.00" transform="scale(1.600)" font-family="Helvetica" font-size="8.00" font-weight="bold" style="color:#ffffff;">
<path d="m145.70 318.38
	h8.00
	" class="stroke"/>
</g>
<g stroke-width="1.00" transform="scale(1.600)" font-family="Helvetica" font-size="8.00" font-weight="bold">
<text x="147.70" y="321.38">4</text>
</g>
<g stroke-width="1.00" transform="scale(1.600)" font-family="Helvetica" font-size="8.00" font-weight="bold" style="color:#ffffff;">
<path d="m145.70 312.38
	h8.00
	" class="stroke"/>
</g>
<g stroke-width="1.00" transform="scale(1.600)" font-family="Helvetica" font-size="8.00" font-weight="bold">
<text x="147.70" y="315.38">3</text>
</g>
<g stroke-width="1.00" transform="scale(1.600)" font-family="Helvetica" font-size="8.00" font-weight="bold" style="color:#ffffff;">
<path d="m229.90 336.38
	h8.00
	" class="stroke"/>
</g>
<g stroke-width="1.00" transform="scale(1.600)" font-family="Helvetica" font-size="8.00" font-weight="bold">
<text x="231.90" y="339.38">3</text>
</g>
<g stroke-width="1.00" transform="scale(1.600)" font-family="Helvetica" font-size="8.00" font-weight="bold" style="color:#ffffff;">
<path d="m229.90 330.38
	h8.00
	" class="stroke"/>
</g>
<g stroke-width="1.00" transform="scale(1.600)" font-family="Helvetica" font-size="8.00" font-weight="bold">
<text x="231.90" y="333.38">5</text>
</g>
<g stroke-width="1.00" transform="scale(1.600)" font-family="Helvetica" font-size="8.00" font-weight="bold" style="color:#ffffff;">
<path d="m229.90 324.38
	h8.00
	" class="stroke"/>
</g>
<g stroke-width="1.00" transform="scale(1.600)" font-family="Helvetica" font-size="8.00" font-weight="bold">
<text x="231.90" y="327.38">5</text>
</g>
<g stroke-width="1.00" transform="scale(1.600)" font-family="Helvetica" font-size="8.00" font-weight="bold" style="color:#ffffff;">
<path d="m229.90 318.38
	h8.00
	" class="stroke"/>
</g>
<g stroke-width="1.00" transform="scale(1.600)" font-family="Helvetica" font-size="8.00" font-weight="bold">
<text x="231.90" y="321.38">4</text>
</g>
<g stroke-width="1.00" transform="scale(1.600)" font-family="Helvetica" font-size="8.00" font-weight="bold" style="color:#ffffff;">
<path d="m229.90 312.38
	h8.00
	" class="stroke"/>
</g>
<g stroke-width="1.00" transform="scale(1.600)" font-family="Helvetica" font-size="8.00" font-weight="bold">
<text x="231.90" y="315.38">3</text>
</g>
</svg>
