<?xml version="1.0" standalone="no"?>
<!DOCTYPE svg PUBLIC "-//W3C//DTD SVG 1.1//EN"
	"http://www.w3.org/Graphics/SVG/1.1/DTD/svg11.dtd">
<svg xmlns="http://www.w3.org/2000/svg" version="1.1"
	xmlns:xlink="http://www.w3.org/1999/xlink"
	color="black"
	width="816.00px" height="1056.00px">
<style type="text/css">
.fill {fill: currentColor}
.stroke {stroke: currentColor; fill: none}
text{white-space: pre}
</style>
<title>/home/gill/PycharmProjects/MusicRaft/share/abc/scaling_problem.abc page 1</title>
<!-- Creator: abcm2ps-8.14.5 -->
<!-- CreationDate: Feb 29, 2020 13:41 -->
<!-- CommandLine: -k 640 -v -A -O /home/gill/PycharmProjects/MusicRaft/share/abc/scaling_problem_page_.svg /home/gill/PycharmProjects/MusicRaft/share/abc/scaling_problem.abc -->
<g stroke-width="0.70">
<!-- title: Ajde Jano -->
</g>
<g stroke-width="0.70" font-family="FreeSerif" font-size="20.00">
<text x="408.00" y="81.80" text-anchor="middle">Ajde Jano</text>
</g>
<g stroke-width="0.70" transform="scale(0.747)" font-family="FreeSerif" font-size="20.00">
<defs>
<ellipse id="hd" rx="4.1" ry="2.9"
	transform="rotate(-20)" class="fill"/>
</defs>
<use x="177.97" y="152.23" xlink:href="#hd"/>
<path d="M181.47 152.23v-21.00" class="stroke"/>
</g>
<g stroke-width="0.70" transform="scale(1.067)" font-family="FreeSerif" font-size="15.00" font-weight="bold">
<text x="132.28" y="108.66">= 120</text>
<path class="stroke" stroke-width="1"
	d="M288.48 146.66v-24.00"/>
<abc type="B" row="8" col="8" x="278.48" y="118.66" width="17.00" height="32"/>
<path d="m62.98 146.66
	h225.50
	M62.98 140.66
	h225.50
	M62.98 134.66
	h225.50
	M62.98 128.66
	h225.50
	M62.98 122.66
	h225.50
	" class="stroke"/>
<defs>
<path id="utclef" class="fill" d="m-50 -90
	c-72 -41 -72 -158 52 -188
	150 -10 220 188 90 256
	-114 52 -275 0 -293 -136
	-15 -181 93 -229 220 -334
	88 -87 79 -133 62 -210
	-51 33 -94 105 -89 186
	17 267 36 374 49 574
	6 96 -19 134 -77 135
	-80 1 -126 -93 -61 -133
	85 -41 133 101 31 105
	23 17 92 37 90 -92
	-10 -223 -39 -342 -50 -617
	0 -90 0 -162 96 -232
	56 72 63 230 22 289
	-74 106 -257 168 -255 316
	9 153 148 185 252 133
	86 -65 29 -192 -80 -176
	-71 12 -105 67 -59 124"/>
<use id="tclef" transform="translate(0,6) scale(0.045)"
	xlink:href="#utclef"/>
</defs>
<use x="74.98" y="140.66" xlink:href="#tclef"/>
<abc type="c" row="8" col="0" x="60.98" y="110.66" width="28.00" height="46"/>
<defs>
<path id="uflat" class="fill" d="
	m100 -746
	h32
	v734
	l-32 4
	m32 -332
	c46 -72 152 -90 208 -20
	100 110 -120 326 -208 348
	m0 -28
	c54 0 200 -206 130 -290
	-50 -60 -130 -4 -130 34"/>
<use id="ft0" transform="translate(-3.5,3.5) scale(0.018)"
	xlink:href="#uflat"/>
</defs>
<use x="89.98" y="134.66" xlink:href="#ft0"/>
<abc type="K" row="8" col="0" x="84.98" y="118.66" width="16.50" height="32"/>
<g font-family="FreeSerif" font-size="16" font-weight="bold" font-style="normal"
	transform="translate(105.98,146.16) scale(1.2,1)">
	<text text-anchor="middle">8</text>
	<text y="-12" text-anchor="middle">7</text>
</g>
<abc type="M" row="8" col="0" x="97.48" y="118.66" width="24.00" height="32"/>
<use x="123.98" y="143.66" xlink:href="#hd"/>
<path d="M127.48 143.66v-21.00" class="stroke"/>
<abc type="N" row="8" col="0" x="117.48" y="118.66" width="13.00" height="31"/>
<use x="163.98" y="146.66" xlink:href="#hd"/>
<path d="M167.48 146.66v-21.00" class="stroke"/>
<path class="fill"
	d="M167.48 125.66c0.6 5.6 9.6 9 5.6 18.4
	1.6 -6 -1.3 -11.6 -5.6 -12.8
"/>
<abc type="N" row="8" col="2" x="157.48" y="121.66" width="17.50" height="31"/>
<abc type="b" row="8" col="4" x="185.78" y="149.66" width="6.00" height="6"/>
<path class="fill"
	d="M195.48 127.86l77.10 -7.30v3.20l-77.10 7.30"/>
<use x="192.28" y="149.66" xlink:href="#hd"/>
<path d="M195.78 149.66v-20.90" class="stroke"/>
<abc type="N" row="8" col="4" x="185.78" y="123.66" width="13.00" height="32"/>
<use x="217.78" y="146.66" xlink:href="#hd"/>
<path d="M221.28 146.66v-20.30" class="stroke"/>
<abc type="N" row="8" col="5" x="211.28" y="121.66" width="13.00" height="31"/>
<use x="243.18" y="143.66" xlink:href="#hd"/>
<path d="M246.68 143.66v-19.70" class="stroke"/>
<abc type="N" row="8" col="6" x="236.68" y="118.66" width="13.00" height="31"/>
<use x="268.68" y="140.66" xlink:href="#hd"/>
<path d="M272.18 140.66v-19.10" class="stroke"/>
<abc type="N" row="8" col="7" x="262.18" y="116.66" width="13.00" height="30"/>
<abc type="e" row="8" col="7" x="262.18" y="140.66" width="6.00" height="6"/>
</g>
</svg>
