<?xml version="1.0" standalone="no"?>
<!DOCTYPE svg PUBLIC "-//W3C//DTD SVG 1.1//EN"
	"http://www.w3.org/Graphics/SVG/1.1/DTD/svg11.dtd">
<svg xmlns="http://www.w3.org/2000/svg" version="1.1"
	xmlns:xlink="http://www.w3.org/1999/xlink"
	color="black"
	width="816.00px" height="1056.00px">
<style type="text/css">
.fill {fill: currentColor}
.stroke {stroke: currentColor; fill: none}
text{white-space: pre}
</style>
<title>/home/gill/PycharmProjects/MusicRaft/share/abc/Ajde_Jano.abc page 1</title>
<!-- Creator: abcm2ps-8.14.6 -->
<!-- CreationDate: Mar 16, 2020 00:29 -->
<!-- CommandLine: -k 640 -v -A -O /home/gill/PycharmProjects/MusicRaft/share/abc/Ajde_Jano_page_.svg /home/gill/PycharmProjects/MusicRaft/share/abc/Ajde_Jano.abc -->
<g stroke-width="0.70">
<!-- title: Ajde Jano -->
</g>
<g stroke-width="0.70" style="font:20.00px serif">
<text x="408.00" y="81.80" text-anchor="middle">Ajde Jano</text>
</g>
<g stroke-width="0.70" style="font:italic 14.00px serif">
<text x="748.80" y="105.80" text-anchor="end">Serbia</text>
</g>
<g stroke-width="0.70" transform="scale(0.700)" style="font:italic 14.00px serif">
<defs>
<ellipse id="hd" rx="4.1" ry="2.9"
	transform="rotate(-20)" class="fill"/>
</defs>
<use x="184.00" y="181.00" xlink:href="#hd"/>
<path d="M187.50 181.00v-21.00" class="stroke"/>
</g>
<g stroke-width="0.70" style="font:bold 15.00px serif">
<text x="136.50" y="128.80">= 120</text>
<path class="stroke" stroke-width="1"
	d="M300.40 176.80v-24.00"/>
<abc type="B" row="12" col="12" x="290.40" y="148.80" width="20.00" height="32"/>
<path class="stroke" stroke-width="1"
	d="M457.90 176.80v-24.00"/>
<abc type="B" row="12" col="25" x="447.90" y="148.80" width="20.00" height="32"/>
<path class="stroke" stroke-width="1"
	d="M644.90 176.80v-24.00"/>
<abc type="B" row="12" col="42" x="634.90" y="148.80" width="20.00" height="32"/>
<path class="stroke" stroke-width="1"
	d="M748.80 176.80v-24.00"/>
<abc type="B" row="12" col="55" x="738.80" y="148.80" width="20.00" height="32"/>
<path d="m67.20 176.80
	h681.60
	M67.20 170.80
	h681.60
	M67.20 164.80
	h681.60
	M67.20 158.80
	h681.60
	M67.20 152.80
	h681.60
	" class="stroke"/>
</g>
<g stroke-width="0.70" style="font:12.00px sans">
<text x="120.30" y="144.40">Dm</text>
<text x="307.30" y="144.40">Dm</text>
<text x="464.80" y="144.40">Dm</text>
<text x="651.80" y="144.40">Dm</text>
<defs>
<path id="utclef" class="fill" d="m-50 -90
	c-72 -41 -72 -158 52 -188
	150 -10 220 188 90 256
	-114 52 -275 0 -293 -136
	-15 -181 93 -229 220 -334
	88 -87 79 -133 62 -210
	-51 33 -94 105 -89 186
	17 267 36 374 49 574
	6 96 -19 134 -77 135
	-80 1 -126 -93 -61 -133
	85 -41 133 101 31 105
	23 17 92 37 90 -92
	-10 -223 -39 -342 -50 -617
	0 -90 0 -162 96 -232
	56 72 63 230 22 289
	-74 106 -257 168 -255 316
	9 153 148 185 252 133
	86 -65 29 -192 -80 -176
	-71 12 -105 67 -59 124"/>
<use id="tclef" transform="translate(0,6) scale(0.045)"
	xlink:href="#utclef"/>
</defs>
<use x="79.20" y="170.80" xlink:href="#tclef"/>
<abc type="c" row="12" col="4" x="65.20" y="140.80" width="28.00" height="46"/>
<defs>
<path id="uflat" class="fill" d="
	m100 -746
	h32
	v734
	l-32 4
	m32 -332
	c46 -72 152 -90 208 -20
	100 110 -120 326 -208 348
	m0 -28
	c54 0 200 -206 130 -290
	-50 -60 -130 -4 -130 34"/>
<use id="ft0" transform="translate(-3.5,3.5) scale(0.018)"
	xlink:href="#uflat"/>
</defs>
<use x="94.20" y="164.80" xlink:href="#ft0"/>
<abc type="K" row="12" col="4" x="89.20" y="148.80" width="16.50" height="32"/>
<g style="font:bold 16px serif"
	transform="translate(110.20,176.30) scale(1.2,1)">
	<text text-anchor="middle">8</text>
	<text y="-12" text-anchor="middle">7</text>
</g>
<abc type="M" row="12" col="4" x="101.70" y="148.80" width="24.00" height="32"/>
<use x="128.20" y="173.80" xlink:href="#hd"/>
<path d="M131.70 173.80v-21.00" class="stroke"/>
<abc type="N" row="12" col="4" x="121.70" y="148.80" width="13.00" height="31"/>
<use x="170.10" y="176.80" xlink:href="#hd"/>
<path d="M173.60 176.80v-21.00" class="stroke"/>
<path class="fill"
	d="M173.60 155.80c0.6 5.6 9.6 9 5.6 18.4
	1.6 -6 -1.3 -11.6 -5.6 -12.8
"/>
<abc type="N" row="12" col="6" x="163.60" y="151.80" width="17.50" height="31"/>
<abc type="b" row="12" col="8" x="193.20" y="179.80" width="6.00" height="6"/>
<path class="fill"
	d="M202.80 158.00l80.70 -7.40v3.20l-80.70 7.40"/>
<use x="199.70" y="179.80" xlink:href="#hd"/>
<path d="M203.20 179.80v-20.80" class="stroke"/>
<abc type="N" row="12" col="8" x="193.20" y="153.80" width="13.00" height="32"/>
<use x="226.30" y="176.80" xlink:href="#hd"/>
<path d="M229.80 176.80v-20.30" class="stroke"/>
<abc type="N" row="12" col="9" x="219.80" y="151.80" width="13.00" height="31"/>
<use x="253.00" y="173.80" xlink:href="#hd"/>
<path d="M256.50 173.80v-19.70" class="stroke"/>
<abc type="N" row="12" col="10" x="246.50" y="148.80" width="13.00" height="31"/>
<use x="279.70" y="170.80" xlink:href="#hd"/>
<path d="M283.20 170.80v-19.20" class="stroke"/>
<abc type="N" row="12" col="11" x="273.20" y="146.80" width="13.00" height="30"/>
<abc type="e" row="12" col="11" x="273.20" y="170.80" width="6.00" height="6"/>
<use x="315.20" y="173.80" xlink:href="#hd"/>
<path d="M318.70 173.80v-21.00" class="stroke"/>
<abc type="N" row="12" col="17" x="308.70" y="148.80" width="13.00" height="31"/>
<use x="357.10" y="176.80" xlink:href="#hd"/>
<path d="M360.60 176.80v-21.00" class="stroke"/>
<path class="fill"
	d="M360.60 155.80c0.6 5.6 9.6 9 5.6 18.4
	1.6 -6 -1.3 -11.6 -5.6 -12.8
"/>
<abc type="N" row="12" col="19" x="350.60" y="151.80" width="17.50" height="31"/>
<use x="386.70" y="173.80" xlink:href="#hd"/>
<path d="M390.20 173.80v-21.00" class="stroke"/>
<abc type="N" row="12" col="21" x="380.20" y="148.80" width="13.00" height="31"/>
<use x="428.60" y="179.80" xlink:href="#hd"/>
<path d="M432.10 179.80v-21.00" class="stroke"/>
<abc type="N" row="12" col="23" x="422.10" y="154.80" width="13.00" height="31"/>
<use x="472.70" y="173.80" xlink:href="#hd"/>
<path d="M476.20 173.80v-21.00" class="stroke"/>
<abc type="N" row="12" col="30" x="466.20" y="148.80" width="13.00" height="31"/>
<use x="514.50" y="176.80" xlink:href="#hd"/>
<path d="M518.00 176.80v-21.00" class="stroke"/>
<path class="fill"
	d="M518.00 155.80c0.6 5.6 9.6 9 5.6 18.4
	1.6 -6 -1.3 -11.6 -5.6 -12.8
"/>
<abc type="N" row="12" col="32" x="508.00" y="151.80" width="17.50" height="31"/>
<abc type="b" row="12" col="34" x="537.70" y="179.80" width="6.00" height="6"/>
<path class="fill"
	d="M547.30 158.00l80.70 -7.40v3.20l-80.70 7.40"/>
<use x="544.20" y="179.80" xlink:href="#hd"/>
<path d="M547.70 179.80v-20.80" class="stroke"/>
<abc type="N" row="12" col="34" x="537.70" y="153.80" width="13.00" height="32"/>
<use x="570.80" y="176.80" xlink:href="#hd"/>
<path d="M574.30 176.80v-20.30" class="stroke"/>
<abc type="N" row="12" col="35" x="564.30" y="151.80" width="13.00" height="31"/>
<use x="597.50" y="173.80" xlink:href="#hd"/>
<path d="M601.00 173.80v-19.70" class="stroke"/>
<abc type="N" row="12" col="36" x="591.00" y="148.80" width="13.00" height="31"/>
<use x="624.10" y="170.80" xlink:href="#hd"/>
<path d="M627.60 170.80v-19.20" class="stroke"/>
<abc type="N" row="12" col="37" x="617.60" y="146.80" width="13.00" height="30"/>
<abc type="e" row="12" col="37" x="617.60" y="170.80" width="6.00" height="6"/>
<use x="659.70" y="173.80" xlink:href="#hd"/>
<circle class="fill" cx="667.40" cy="173.80" r="1.2"/>
<path d="M663.20 173.80v-21.00" class="stroke"/>
<abc type="N" row="12" col="47" x="653.20" y="148.80" width="20.50" height="36"/>
<defs>
<path id="Hd" class="fill" d="m3 -1.6
	c-1 -1.8 -7 1.4 -6 3.2
	1 1.8 7 -1.4 6 -3.2
	m0.5 -0.3
	c2 3.8 -5 7.6 -7 3.8
	-2 -3.8 5 -7.6 7 -3.8"/>
</defs>
<use x="707.30" y="173.80" xlink:href="#Hd"/>
<path d="M710.80 173.80v-21.00" class="stroke"/>
<abc type="N" row="12" col="50" x="691.30" y="148.80" width="23.00" height="36"/>
<path class="fill"
	d="M663.20 173.80c6.39 5.23 34.27 5.23 40.66 -0.00
	v0.24c-7.61 6.99 -33.05 6.99 -40.66 -0.24"/>
</g>
<g stroke-width="0.70" style="font:12.00px sans">
<path class="stroke" stroke-width="1"
	d="M288.90 246.80v-24.00"/>
<abc type="B" row="13" col="12" x="278.90" y="218.80" width="20.00" height="32"/>
<path class="stroke" stroke-width="1"
	d="M468.80 246.80v-24.00"/>
<abc type="B" row="13" col="25" x="458.80" y="218.80" width="20.00" height="32"/>
<path class="stroke" stroke-width="1"
	d="M648.80 246.80v-24.00"/>
<abc type="B" row="13" col="42" x="638.80" y="218.80" width="20.00" height="32"/>
<path class="stroke" stroke-width="1"
	d="M748.80 246.80v-24.00"/>
<abc type="B" row="13" col="55" x="738.80" y="218.80" width="20.00" height="32"/>
<path d="m67.20 246.80
	h681.60
	M67.20 240.80
	h681.60
	M67.20 234.80
	h681.60
	M67.20 228.80
	h681.60
	M67.20 222.80
	h681.60
	" class="stroke"/>
<text x="104.30" y="213.40">Gm</text>
<text x="475.20" y="213.40">Gm</text>
<text x="544.00" y="213.40">Dm</text>
<text x="655.10" y="213.40">Dm</text>
<use x="79.20" y="240.80" xlink:href="#tclef"/>
<abc type="c" row="13" col="4" x="65.20" y="210.80" width="28.00" height="46"/>
<use x="94.20" y="234.80" xlink:href="#ft0"/>
<abc type="K" row="13" col="4" x="89.20" y="218.80" width="16.50" height="32"/>
<abc type="b" row="13" col="4" x="101.70" y="243.80" width="6.00" height="6"/>
<path class="fill"
	d="M115.40 222.30l52.00 -4.90v3.20l-52.00 4.90"/>
<use x="112.20" y="243.80" xlink:href="#hd"/>
<path d="M115.70 243.80v-20.60" class="stroke"/>
<abc type="N" row="13" col="4" x="101.70" y="217.80" width="17.00" height="32"/>
<use x="137.90" y="240.80" xlink:href="#hd"/>
<path d="M141.40 240.80v-20.00" class="stroke"/>
<abc type="N" row="13" col="5" x="131.40" y="215.80" width="13.00" height="31"/>
<use x="163.50" y="237.80" xlink:href="#hd"/>
<path d="M167.00 237.80v-19.40" class="stroke"/>
<abc type="N" row="13" col="6" x="157.00" y="213.80" width="13.00" height="30"/>
<abc type="e" row="13" col="6" x="157.00" y="237.80" width="6.00" height="6"/>
<abc type="b" row="13" col="8" x="185.50" y="237.80" width="6.00" height="6"/>
<path class="fill"
	d="M195.20 219.80l77.60 0.00v3.20l-77.60 -0.00"/>
<use x="192.00" y="237.80" xlink:href="#hd"/>
<path d="M195.50 237.80v-17.00" class="stroke"/>
<abc type="N" row="13" col="8" x="185.50" y="215.80" width="13.00" height="28"/>
<use x="217.70" y="240.80" xlink:href="#hd"/>
<path d="M221.20 240.80v-20.00" class="stroke"/>
<abc type="N" row="13" col="9" x="211.20" y="215.80" width="13.00" height="31"/>
<use x="243.30" y="240.80" xlink:href="#hd"/>
<path d="M246.80 240.80v-20.00" class="stroke"/>
<abc type="N" row="13" col="10" x="236.80" y="215.80" width="13.00" height="31"/>
<use x="269.00" y="243.80" xlink:href="#hd"/>
<path d="M272.50 243.80v-23.00" class="stroke"/>
<abc type="N" row="13" col="11" x="262.50" y="215.80" width="13.00" height="34"/>
<abc type="e" row="13" col="11" x="262.50" y="243.80" width="6.00" height="6"/>
<use x="303.20" y="240.80" xlink:href="#hd"/>
<path d="M306.70 240.80v-21.00" class="stroke"/>
<abc type="N" row="13" col="13" x="296.70" y="215.80" width="13.00" height="31"/>
<use x="343.40" y="243.80" xlink:href="#hd"/>
<path d="M346.90 243.80v-21.00" class="stroke"/>
<path class="fill"
	d="M346.90 222.80c0.6 5.6 9.6 9 5.6 18.4
	1.6 -6 -1.3 -11.6 -5.6 -12.8
"/>
<abc type="N" row="13" col="15" x="336.90" y="218.80" width="17.50" height="31"/>
<abc type="b" row="13" col="17" x="365.40" y="243.80" width="6.00" height="6"/>
<path class="fill"
	d="M375.10 225.80l77.60 0.00v3.20l-77.60 -0.00"/>
<use x="371.90" y="243.80" xlink:href="#hd"/>
<path d="M375.40 243.80v-17.00" class="stroke"/>
<abc type="N" row="13" col="17" x="365.40" y="221.80" width="13.00" height="28"/>
<use x="397.60" y="246.80" xlink:href="#hd"/>
<path d="M401.10 246.80v-20.00" class="stroke"/>
<abc type="N" row="13" col="18" x="391.10" y="221.80" width="13.00" height="31"/>
<use x="423.20" y="246.80" xlink:href="#hd"/>
<path d="M426.70 246.80v-20.00" class="stroke"/>
<abc type="N" row="13" col="19" x="416.70" y="221.80" width="13.00" height="31"/>
<use x="448.90" y="249.80" xlink:href="#hd"/>
<path d="M452.40 249.80v-23.00" class="stroke"/>
<abc type="N" row="13" col="20" x="442.40" y="221.80" width="13.00" height="34"/>
<abc type="e" row="13" col="20" x="442.40" y="249.80" width="6.00" height="6"/>
<use x="483.10" y="240.80" xlink:href="#hd"/>
<path d="M486.60 240.80v-21.00" class="stroke"/>
<abc type="N" row="13" col="30" x="476.60" y="215.80" width="13.00" height="31"/>
<use x="523.40" y="243.80" xlink:href="#hd"/>
<path d="M526.90 243.80v-21.00" class="stroke"/>
<path class="fill"
	d="M526.90 222.80c0.6 5.6 9.6 9 5.6 18.4
	1.6 -6 -1.3 -11.6 -5.6 -12.8
"/>
<abc type="N" row="13" col="32" x="516.90" y="218.80" width="17.50" height="31"/>
<abc type="b" row="13" col="38" x="545.40" y="243.80" width="6.00" height="6"/>
<path class="fill"
	d="M555.00 225.80l77.60 0.00v3.20l-77.60 -0.00"/>
<use x="551.90" y="243.80" xlink:href="#hd"/>
<path d="M555.40 243.80v-17.00" class="stroke"/>
<abc type="N" row="13" col="38" x="545.40" y="221.80" width="13.00" height="28"/>
<use x="577.50" y="246.80" xlink:href="#hd"/>
<path d="M581.00 246.80v-20.00" class="stroke"/>
<abc type="N" row="13" col="39" x="571.00" y="221.80" width="13.00" height="31"/>
<use x="603.20" y="249.80" xlink:href="#hd"/>
<path d="M606.70 249.80v-23.00" class="stroke"/>
<abc type="N" row="13" col="40" x="596.70" y="221.80" width="13.00" height="34"/>
<use x="628.80" y="246.80" xlink:href="#hd"/>
<path d="M632.30 246.80v-20.00" class="stroke"/>
<abc type="N" row="13" col="41" x="622.30" y="221.80" width="13.00" height="31"/>
<abc type="e" row="13" col="41" x="622.30" y="246.80" width="6.00" height="6"/>
<use x="663.00" y="243.80" xlink:href="#hd"/>
<circle class="fill" cx="670.70" cy="243.80" r="1.2"/>
<path d="M666.50 243.80v-21.00" class="stroke"/>
<abc type="N" row="13" col="47" x="656.50" y="218.80" width="20.50" height="36"/>
<use x="708.90" y="243.80" xlink:href="#Hd"/>
<path d="M712.40 243.80v-21.00" class="stroke"/>
<abc type="N" row="13" col="50" x="692.90" y="218.80" width="23.00" height="36"/>
<path class="fill"
	d="M666.50 243.80c6.12 5.20 32.74 5.20 38.86 -0.00
	v0.24c-7.29 6.96 -31.57 6.96 -38.86 -0.24"/>
</g>
<g stroke-width="0.70" style="font:12.00px sans">
<path class="stroke" stroke-width="1"
	d="M232.00 316.80v-24.00"/>
<abc type="B" row="14" col="12" x="222.00" y="288.80" width="20.00" height="32"/>
<path class="stroke" stroke-width="1"
	d="M356.70 316.80v-24.00"/>
<abc type="B" row="14" col="25" x="346.70" y="288.80" width="20.00" height="32"/>
<path class="stroke" stroke-width="1"
	d="M481.50 316.80v-24.00"/>
<abc type="B" row="14" col="42" x="471.50" y="288.80" width="20.00" height="32"/>
<path class="stroke" stroke-width="1"
	d="M606.30 316.80v-24.00"/>
<abc type="B" row="14" col="55" x="596.30" y="288.80" width="20.00" height="32"/>
<path class="stroke" stroke-width="1"
	d="M677.50 316.80v-24.00"/>
<abc type="B" row="14" col="66" x="667.50" y="288.80" width="20.00" height="32"/>
<path class="stroke" stroke-width="1"
	d="M748.80 316.80v-24.00"/>
<abc type="B" row="14" col="72" x="738.80" y="288.80" width="17.00" height="32"/>
<path d="m67.20 316.80
	h681.60
	M67.20 310.80
	h681.60
	M67.20 304.80
	h681.60
	M67.20 298.80
	h681.60
	M67.20 292.80
	h681.60
	" class="stroke"/>
<text x="104.30" y="283.40">Gm</text>
<text x="486.10" y="283.40">Am</text>
<text x="610.90" y="283.40">Dm</text>
<use x="79.20" y="310.80" xlink:href="#tclef"/>
<abc type="c" row="14" col="4" x="65.20" y="280.80" width="28.00" height="46"/>
<use x="94.20" y="304.80" xlink:href="#ft0"/>
<abc type="K" row="14" col="4" x="89.20" y="288.80" width="16.50" height="32"/>
<abc type="b" row="14" col="4" x="101.70" y="313.80" width="6.00" height="6"/>
<path class="fill"
	d="M115.40 292.10l35.30 -4.50v3.20l-35.30 4.50"/>
<use x="112.20" y="313.80" xlink:href="#hd"/>
<path d="M115.70 313.80v-20.80" class="stroke"/>
<abc type="N" row="14" col="4" x="101.70" y="287.80" width="17.00" height="32"/>
<use x="129.50" y="310.80" xlink:href="#hd"/>
<path d="M133.00 310.80v-20.00" class="stroke"/>
<abc type="N" row="14" col="5" x="123.00" y="285.80" width="13.00" height="31"/>
<use x="146.90" y="307.80" xlink:href="#hd"/>
<path d="M150.40 307.80v-19.20" class="stroke"/>
<abc type="N" row="14" col="6" x="140.40" y="283.80" width="13.00" height="30"/>
<abc type="e" row="14" col="6" x="140.40" y="307.80" width="6.00" height="6"/>
<abc type="b" row="14" col="8" x="159.50" y="307.80" width="6.00" height="6"/>
<path class="fill"
	d="M169.20 289.80l52.70 0.00v3.20l-52.70 -0.00"/>
<use x="166.00" y="307.80" xlink:href="#hd"/>
<path d="M169.50 307.80v-17.00" class="stroke"/>
<abc type="N" row="14" col="8" x="159.50" y="285.80" width="13.00" height="28"/>
<use x="183.30" y="310.80" xlink:href="#hd"/>
<path d="M186.80 310.80v-20.00" class="stroke"/>
<abc type="N" row="14" col="9" x="176.80" y="285.80" width="13.00" height="31"/>
<use x="200.70" y="310.80" xlink:href="#hd"/>
<path d="M204.20 310.80v-20.00" class="stroke"/>
<abc type="N" row="14" col="10" x="194.20" y="285.80" width="13.00" height="31"/>
<use x="218.00" y="313.80" xlink:href="#hd"/>
<path d="M221.50 313.80v-23.00" class="stroke"/>
<abc type="N" row="14" col="11" x="211.50" y="285.80" width="13.00" height="34"/>
<abc type="e" row="14" col="11" x="211.50" y="313.80" width="6.00" height="6"/>
<use x="244.50" y="310.80" xlink:href="#hd"/>
<path d="M248.00 310.80v-21.00" class="stroke"/>
<abc type="N" row="14" col="13" x="238.00" y="285.80" width="13.00" height="31"/>
<use x="271.20" y="313.80" xlink:href="#hd"/>
<path d="M274.70 313.80v-21.00" class="stroke"/>
<path class="fill"
	d="M274.70 292.80c0.6 5.6 9.6 9 5.6 18.4
	1.6 -6 -1.3 -11.6 -5.6 -12.8
"/>
<abc type="N" row="14" col="15" x="264.70" y="288.80" width="17.50" height="31"/>
<abc type="b" row="14" col="17" x="284.30" y="313.80" width="6.00" height="6"/>
<path class="fill"
	d="M293.90 295.80l52.70 0.00v3.20l-52.70 -0.00"/>
<use x="290.80" y="313.80" xlink:href="#hd"/>
<path d="M294.30 313.80v-17.00" class="stroke"/>
<abc type="N" row="14" col="17" x="284.30" y="291.80" width="13.00" height="28"/>
<use x="308.10" y="316.80" xlink:href="#hd"/>
<path d="M311.60 316.80v-20.00" class="stroke"/>
<abc type="N" row="14" col="18" x="301.60" y="291.80" width="13.00" height="31"/>
<use x="325.40" y="316.80" xlink:href="#hd"/>
<path d="M328.90 316.80v-20.00" class="stroke"/>
<abc type="N" row="14" col="19" x="318.90" y="291.80" width="13.00" height="31"/>
<use x="342.80" y="319.80" xlink:href="#hd"/>
<path d="M346.30 319.80v-23.00" class="stroke"/>
<abc type="N" row="14" col="20" x="336.30" y="291.80" width="13.00" height="34"/>
<abc type="e" row="14" col="20" x="336.30" y="319.80" width="6.00" height="6"/>
<use x="369.20" y="310.80" xlink:href="#hd"/>
<path d="M372.70 310.80v-21.00" class="stroke"/>
<abc type="N" row="14" col="26" x="362.70" y="285.80" width="13.00" height="31"/>
<use x="396.00" y="313.80" xlink:href="#hd"/>
<path d="M399.50 313.80v-21.00" class="stroke"/>
<path class="fill"
	d="M399.50 292.80c0.6 5.6 9.6 9 5.6 18.4
	1.6 -6 -1.3 -11.6 -5.6 -12.8
"/>
<abc type="N" row="14" col="28" x="389.50" y="288.80" width="17.50" height="31"/>
<abc type="b" row="14" col="30" x="409.10" y="313.80" width="6.00" height="6"/>
<path class="fill"
	d="M418.70 295.80l52.70 0.00v3.20l-52.70 -0.00"/>
<use x="415.60" y="313.80" xlink:href="#hd"/>
<path d="M419.10 313.80v-17.00" class="stroke"/>
<abc type="N" row="14" col="30" x="409.10" y="291.80" width="13.00" height="28"/>
<use x="432.90" y="316.80" xlink:href="#hd"/>
<path d="M436.40 316.80v-20.00" class="stroke"/>
<abc type="N" row="14" col="31" x="426.40" y="291.80" width="13.00" height="31"/>
<use x="450.20" y="319.80" xlink:href="#hd"/>
<path d="M453.70 319.80v-23.00" class="stroke"/>
<abc type="N" row="14" col="32" x="443.70" y="291.80" width="13.00" height="34"/>
<use x="467.50" y="316.80" xlink:href="#hd"/>
<path d="M471.00 316.80v-20.00" class="stroke"/>
<abc type="N" row="14" col="33" x="461.00" y="291.80" width="13.00" height="31"/>
<abc type="e" row="14" col="33" x="461.00" y="316.80" width="6.00" height="6"/>
<use x="494.00" y="313.80" xlink:href="#hd"/>
<path d="M497.50 313.80v-21.00" class="stroke"/>
<abc type="N" row="14" col="47" x="487.50" y="288.80" width="13.00" height="31"/>
<use x="520.80" y="316.80" xlink:href="#hd"/>
<path d="M524.30 316.80v-21.00" class="stroke"/>
<path class="fill"
	d="M524.30 295.80c0.6 5.6 9.6 9 5.6 18.4
	1.6 -6 -1.3 -11.6 -5.6 -12.8
"/>
<abc type="N" row="14" col="49" x="514.30" y="291.80" width="17.50" height="31"/>
<abc type="b" row="14" col="51" x="533.80" y="316.80" width="6.00" height="6"/>
<path class="fill"
	d="M543.50 298.60l52.70 0.00v3.20l-52.70 -0.00"/>
<use x="540.30" y="316.80" xlink:href="#hd"/>
<path d="M543.80 316.80v-17.20" class="stroke"/>
<abc type="N" row="14" col="51" x="533.80" y="294.80" width="13.00" height="28"/>
<use x="557.70" y="319.80" xlink:href="#hd"/>
<path d="M561.20 319.80v-20.20" class="stroke"/>
<abc type="N" row="14" col="52" x="551.20" y="294.80" width="13.00" height="31"/>
<use x="575.00" y="319.80" xlink:href="#hd"/>
<path d="M578.50 319.80v-20.20" class="stroke"/>
<abc type="N" row="14" col="53" x="568.50" y="294.80" width="13.00" height="31"/>
<defs>
<path id="hl" class="stroke" d="m-6 0h12"/>
</defs>
<use x="592.30" y="322.80" xlink:href="#hl"/>
<use x="592.30" y="322.80" xlink:href="#hd"/>
<path d="M595.80 322.80v-23.20" class="stroke"/>
<abc type="N" row="14" col="54" x="585.80" y="294.80" width="13.00" height="34"/>
<abc type="e" row="14" col="54" x="585.80" y="322.80" width="6.00" height="6"/>
<use x="618.80" y="319.80" xlink:href="#hd"/>
<circle class="fill" cx="626.50" cy="319.80" r="1.2"/>
<path d="M622.30 319.80v-21.00" class="stroke"/>
<abc type="N" row="14" col="60" x="612.30" y="294.80" width="20.50" height="36"/>
<use x="650.70" y="319.80" xlink:href="#Hd"/>
<path d="M654.20 319.80v-21.00" class="stroke"/>
<abc type="N" row="14" col="63" x="634.70" y="294.80" width="23.00" height="36"/>
<use x="690.00" y="319.80" xlink:href="#hd"/>
<circle class="fill" cx="697.70" cy="319.80" r="1.2"/>
<path d="M693.50 319.80v-21.00" class="stroke"/>
<abc type="N" row="14" col="67" x="683.50" y="294.80" width="20.50" height="36"/>
<use x="721.90" y="319.80" xlink:href="#Hd"/>
<path d="M725.40 319.80v-21.00" class="stroke"/>
<abc type="N" row="14" col="70" x="705.90" y="294.80" width="23.00" height="36"/>
<path class="fill"
	d="M622.30 319.80c3.92 4.95 20.97 4.95 24.89 -0.00
	v0.22c-4.67 6.72 -20.23 6.72 -24.89 -0.22"/>
<path class="fill"
	d="M654.20 319.80c5.10 5.08 27.26 5.08 32.36 -0.00
	v0.23c-6.07 6.85 -26.29 6.85 -32.36 -0.23"/>
<path class="fill"
	d="M693.50 319.80c3.92 4.95 20.97 4.95 24.89 -0.00
	v0.22c-4.67 6.72 -20.23 6.72 -24.89 -0.22"/>
</g>
</svg>
