<?xml version="1.0" standalone="no"?>
<!DOCTYPE svg PUBLIC "-//W3C//DTD SVG 1.1//EN"
	"http://www.w3.org/Graphics/SVG/1.1/DTD/svg11.dtd">
<svg xmlns="http://www.w3.org/2000/svg" version="1.1"
	xmlns:xlink="http://www.w3.org/1999/xlink"
	color="black"
	width="816.00px" height="1056.00px">
<style type="text/css">
.fill {fill: currentColor}
.stroke {stroke: currentColor; fill: none}
text{white-space: pre}
</style>
<title>sample5.abc page 2</title>
<!-- Creator: abcm2ps-8.14.5 -->
<!-- CreationDate: Mar 17, 2020 11:59 -->
<!-- CommandLine: -k 640 -v -A -O sample5_page_.svg sample5.abc -->
<g stroke-width="0.70">
<!-- title: Fugue II -->
</g>
<g stroke-width="0.70" font-family="FreeSerif" font-size="20.00">
<text x="408.00" y="81.80" text-anchor="middle">Fugue II</text>
</g>
<g stroke-width="0.70" font-family="FreeSerif" font-size="20.00">
<!-- subtitle: (extract from the well-tempered clavichord II) -->
</g>
<g stroke-width="0.70" font-family="FreeSerif" font-size="16.00">
<text x="408.00" y="101.60" text-anchor="middle">(extract from the well-tempered clavichord II)</text>
</g>
<g stroke-width="0.70" font-family="FreeSerif" font-size="14.00" font-style="italic">
<text x="748.80" y="124.80" text-anchor="end">J.S. Bach</text>
</g>
<g stroke-width="0.70" font-family="FreeSerif" font-size="14.00" font-style="italic">
<path class="stroke" stroke-width="1"
	d="M18.90 367.20v-105.00"/>
<defs>
<path id="brace" class="fill" d="m-2.5 101
	c-4.5 -4.6 -7.5 -12.2 -4.4 -26.8
	3.5 -14.3 3.2 -21.7 -2.1 -24.2
	7.4 2.4 7.3 14.2 3.5 29.5
	-2.7 9.5 -1.5 16.2 3 21.5
	M-2.5 1c-4.5 4.6 -7.5 12.2 -4.4 26.8
	c3.5 14.3 3.2 21.7 -2.1 24.2
	7.4 -2.4 7.3 -14.2 3.5 -29.5
	-2.7 -9.5 -1.5 -16.2 3 -21.5"/>
</defs>
<g transform="translate(18.90,262.20) scale(1,1.05)">
	<use xlink:href="#brace"/>
</g>
<path class="stroke" stroke-width="1"
	d="M304.30 173.00v-19.20"/>
<abc type="B" row="79" col="0" x="294.30" y="145.00" width="20.00" height="32"/>
<path class="stroke" stroke-width="1"
	d="M304.30 228.20v-55.20"/>
<abc type="B" row="81" col="0" x="294.30" y="200.20" width="20.00" height="32"/>
<path class="stroke" stroke-width="1"
	d="M304.30 286.20v-24.00"/>
<abc type="B" row="83" col="0" x="294.30" y="258.20" width="20.00" height="32"/>
<path class="stroke" stroke-width="1"
	d="M304.30 367.20v-81.00"/>
<abc type="B" row="87" col="0" x="294.30" y="339.20" width="20.00" height="32"/>
</g>
<g stroke-width="0.70" transform="scale(0.800)" font-family="FreeSerif" font-size="14.00" font-style="italic">
<path d="m380.42 216.25
	h229.00
	M380.42 210.25
	h229.00
	M380.42 204.25
	h229.00
	M380.42 198.25
	h229.00
	M380.42 192.25
	h229.00
	" class="stroke"/>
</g>
<g stroke-width="0.70" transform="scale(0.800)" font-family="FreeSerif" font-size="14.00" font-style="italic">
<path d="m380.42 285.25
	h229.00
	M380.42 279.25
	h229.00
	M380.42 273.25
	h229.00
	M380.42 267.25
	h229.00
	M380.42 261.25
	h229.00
	" class="stroke"/>
</g>
<g stroke-width="0.70" font-family="FreeSerif" font-size="14.00" font-style="italic">
<path class="stroke" stroke-width="1"
	d="M568.40 286.20v-24.00"/>
<abc type="B" row="90" col="4" x="558.40" y="258.20" width="20.00" height="32"/>
<path class="stroke" stroke-width="1"
	d="M568.40 367.20v-81.00"/>
<abc type="B" row="94" col="12" x="558.40" y="339.20" width="20.00" height="32"/>
<path class="stroke" stroke-width="1"
	d="M797.10 286.20v-24.00"/>
<abc type="B" row="90" col="27" x="787.10" y="258.20" width="17.00" height="32"/>
<path class="stroke" stroke-width="1"
	d="M797.10 367.20v-81.00"/>
<abc type="B" row="94" col="40" x="787.10" y="339.20" width="17.00" height="32"/>
<path d="m18.90 286.20
	h778.20
	M18.90 280.20
	h778.20
	M18.90 274.20
	h778.20
	M18.90 268.20
	h778.20
	M18.90 262.20
	h778.20
	" class="stroke"/>
<path d="m18.90 367.20
	h778.20
	M18.90 361.20
	h778.20
	M18.90 355.20
	h778.20
	M18.90 349.20
	h778.20
	M18.90 343.20
	h778.20
	" class="stroke"/>
<abc type="b" row="79" col="1" x="407.92" y="192.25" width="6.00" height="6"/>
</g>
<g stroke-width="0.70" transform="scale(0.800)" font-family="FreeSerif" font-size="14.00" font-style="italic">
<path class="fill"
	d="M419.12 172.95l33.90 6.40v3.20l-33.90 -6.40"/>
<defs>
<ellipse id="hd" rx="4.1" ry="2.9"
	transform="rotate(-20)" class="fill"/>
</defs>
<use x="416.02" y="192.25" xlink:href="#hd"/>
<path d="M419.52 192.25v-18.20" class="stroke"/>
<abc type="N" row="79" col="1" x="407.92" y="169.25" width="13.00" height="29"/>
<use x="449.02" y="204.25" xlink:href="#hd"/>
<path d="M452.52 204.25v-23.90" class="stroke"/>
<abc type="N" row="79" col="2" x="440.92" y="175.25" width="13.00" height="35"/>
<abc type="e" row="79" col="2" x="440.92" y="204.25" width="6.00" height="6"/>
<abc type="b" row="79" col="4" x="474.62" y="196.25" width="6.00" height="6"/>
<path class="fill"
	d="M497.12 174.05l52.00 3.00v3.20l-52.00 -3.00"/>
<path class="fill"
	d="M532.22 181.05l16.50 1.00v3.20l-16.50 -1.00"/>
<use x="494.02" y="195.25" xlink:href="#hd"/>
<defs>
<path id="uflat" class="fill" d="
	m100 -746
	h32
	v734
	l-32 4
	m32 -332
	c46 -72 152 -90 208 -20
	100 110 -120 326 -208 348
	m0 -28
	c54 0 200 -206 130 -290
	-50 -60 -130 -4 -130 34"/>
<use id="ft0" transform="translate(-3.5,3.5) scale(0.018)"
	xlink:href="#uflat"/>
</defs>
<use x="485.02" y="195.25" xlink:href="#ft0"/>
<path d="M497.52 195.25v-20.20" class="stroke"/>
<abc type="N" row="79" col="4" x="474.62" y="170.25" width="22.00" height="32"/>
<use x="528.72" y="198.25" xlink:href="#hd"/>
<use x="519.72" y="198.25" xlink:href="#ft0"/>
<path d="M532.22 198.25v-21.20" class="stroke"/>
<abc type="N" row="79" col="6" x="509.33" y="172.25" width="22.00" height="33"/>
<use x="545.22" y="201.25" xlink:href="#hd"/>
<path d="M548.72 201.25v-23.20" class="stroke"/>
<abc type="N" row="79" col="9" x="537.03" y="173.25" width="13.00" height="34"/>
<abc type="e" row="79" col="9" x="537.03" y="201.25" width="6.00" height="6"/>
<abc type="b" row="79" col="12" x="554.92" y="198.25" width="6.00" height="6"/>
<path class="fill"
	d="M566.12 178.95l39.80 6.90v3.20l-39.80 -6.90"/>
<use x="563.03" y="198.25" xlink:href="#hd"/>
<path d="M566.53 198.25v-18.20" class="stroke"/>
<abc type="N" row="79" col="12" x="554.92" y="175.25" width="13.00" height="29"/>
<use x="602.03" y="210.25" xlink:href="#hd"/>
<path d="M605.53 210.25v-23.40" class="stroke"/>
<abc type="N" row="79" col="13" x="593.83" y="182.25" width="13.00" height="34"/>
<abc type="e" row="79" col="13" x="593.83" y="210.25" width="6.00" height="6"/>
<abc type="b" row="81" col="1" x="400.42" y="279.25" width="6.00" height="6"/>
</g>
<g stroke-width="0.70" transform="scale(0.800)" font-family="FreeSerif" font-size="14.00" font-style="italic">
<path class="fill"
	d="M412.12 280.55l33.90 -5.50v-3.20l-33.90 5.50"/>
<use x="416.02" y="261.25" xlink:href="#hd"/>
<use x="407.02" y="261.25" xlink:href="#ft0"/>
<path d="M412.52 261.25v18.20" class="stroke"/>
<abc type="N" row="81" col="1" x="400.42" y="251.25" width="19.00" height="34"/>
<defs>
<path id="hl" class="stroke" d="m-6 0h12"/>
</defs>
<use x="449.02" y="255.25" xlink:href="#hl"/>
<use x="449.02" y="252.25" xlink:href="#hd"/>
<use x="440.02" y="252.25" xlink:href="#ft0"/>
<path d="M445.52 252.25v21.80" class="stroke"/>
<abc type="N" row="81" col="4" x="429.62" y="241.25" width="22.00" height="39"/>
<abc type="e" row="81" col="4" x="429.62" y="274.25" width="6.00" height="6"/>
<abc type="b" row="81" col="8" x="474.02" y="278.25" width="6.00" height="6"/>
<path class="fill"
	d="M490.12 279.45l52.00 0.00v-3.20l-52.00 -0.00"/>
<path class="fill"
	d="M490.52 274.45l51.20 0.00v-3.20l-51.20 -0.00"/>
<use x="494.02" y="255.25" xlink:href="#hl"/>
<use x="494.02" y="252.25" xlink:href="#hd"/>
<path d="M490.52 252.25v26.20" class="stroke"/>
<abc type="N" row="81" col="8" x="474.02" y="241.25" width="22.50" height="43"/>
<use x="510.52" y="255.25" xlink:href="#hl"/>
<use x="510.52" y="255.25" xlink:href="#hd"/>
<path d="M507.02 255.25v23.20" class="stroke"/>
<abc type="N" row="81" col="10" x="500.52" y="249.25" width="14.50" height="35"/>
<use x="528.72" y="255.25" xlink:href="#hl"/>
<use x="528.72" y="249.25" xlink:href="#hl"/>
<use x="528.72" y="246.25" xlink:href="#hd"/>
<path d="M525.22 246.25v32.20" class="stroke"/>
<abc type="N" row="81" col="12" x="518.72" y="240.25" width="14.50" height="44"/>
<use x="545.22" y="255.25" xlink:href="#hl"/>
<use x="545.22" y="249.25" xlink:href="#hl"/>
<use x="545.22" y="249.25" xlink:href="#hd"/>
<path d="M541.72 249.25v29.20" class="stroke"/>
<abc type="N" row="81" col="14" x="535.22" y="243.25" width="14.50" height="41"/>
<abc type="e" row="81" col="14" x="535.22" y="278.25" width="6.00" height="6"/>
<abc type="b" row="81" col="17" x="553.03" y="278.25" width="6.00" height="6"/>
<path class="fill"
	d="M559.12 279.45l39.80 0.00v-3.20l-39.80 -0.00"/>
<path class="fill"
	d="M559.53 274.45l16.50 0.00v-3.20l-16.50 -0.00"/>
<use x="563.03" y="255.25" xlink:href="#hl"/>
<use x="563.03" y="252.25" xlink:href="#hd"/>
<path d="M559.53 252.25v26.20" class="stroke"/>
<abc type="N" row="81" col="17" x="553.03" y="246.25" width="14.50" height="38"/>
<use x="579.53" y="255.25" xlink:href="#hl"/>
<use x="579.53" y="255.25" xlink:href="#hd"/>
<path d="M576.03 255.25v23.20" class="stroke"/>
<abc type="N" row="81" col="19" x="569.53" y="249.25" width="14.50" height="35"/>
<use x="602.03" y="255.25" xlink:href="#hl"/>
<use x="602.03" y="252.25" xlink:href="#hd"/>
<path d="M598.53 252.25v26.20" class="stroke"/>
<abc type="N" row="81" col="21" x="592.03" y="234.25" width="14.50" height="50"/>
<abc type="e" row="81" col="21" x="592.03" y="278.25" width="6.00" height="6"/>
<path class="fill"
	d="M453.42 252.25c5.71 -5.02 30.54 -5.02 36.25 -0.00
	v-0.23c-6.80 -6.79 -29.45 -6.79 -36.25 0.23"/>
<path class="fill"
	d="M606.33 252.25c7.21 -5.16 38.55 -5.16 45.76 -0.00
	v-0.24c-8.58 -6.92 -37.18 -6.92 -45.76 0.24"/>
</g>
<g stroke-width="0.70" font-family="FreeSerif" font-size="14.00" font-style="italic">
<defs>
<path id="utclef" class="fill" d="m-50 -90
	c-72 -41 -72 -158 52 -188
	150 -10 220 188 90 256
	-114 52 -275 0 -293 -136
	-15 -181 93 -229 220 -334
	88 -87 79 -133 62 -210
	-51 33 -94 105 -89 186
	17 267 36 374 49 574
	6 96 -19 134 -77 135
	-80 1 -126 -93 -61 -133
	85 -41 133 101 31 105
	23 17 92 37 90 -92
	-10 -223 -39 -342 -50 -617
	0 -90 0 -162 96 -232
	56 72 63 230 22 289
	-74 106 -257 168 -255 316
	9 153 148 185 252 133
	86 -65 29 -192 -80 -176
	-71 12 -105 67 -59 124"/>
<use id="tclef" transform="translate(0,6) scale(0.045)"
	xlink:href="#utclef"/>
</defs>
<use x="30.90" y="280.20" xlink:href="#tclef"/>
<abc type="c" row="72" col="0" x="16.90" y="250.20" width="28.00" height="46"/>
<use x="45.90" y="274.20" xlink:href="#ft0"/>
<use x="51.40" y="265.20" xlink:href="#ft0"/>
<use x="56.90" y="277.20" xlink:href="#ft0"/>
<abc type="K" row="72" col="0" x="40.90" y="258.20" width="27.50" height="32"/>
<abc type="b" row="72" col="0" x="64.40" y="259.20" width="6.00" height="6"/>
<path class="fill"
	d="M78.10 241.90l26.00 5.70v3.20l-26.00 -5.70"/>
<use x="74.90" y="259.20" xlink:href="#hd"/>
<path d="M78.40 259.20v-16.20" class="stroke"/>
<abc type="N" row="72" col="0" x="64.40" y="238.20" width="17.00" height="27"/>
<use x="100.20" y="271.20" xlink:href="#hd"/>
<path d="M103.70 271.20v-22.60" class="stroke"/>
<abc type="N" row="72" col="1" x="93.70" y="243.20" width="13.00" height="34"/>
<abc type="e" row="72" col="1" x="93.70" y="271.20" width="6.00" height="6"/>
<abc type="b" row="72" col="3" x="120.20" y="262.20" width="6.00" height="6"/>
<path class="fill"
	d="M129.80 240.90l44.00 3.00v3.20l-44.00 -3.00"/>
<path class="fill"
	d="M160.80 248.00l12.70 0.90v3.20l-12.70 -0.90"/>
<use x="126.70" y="262.20" xlink:href="#hd"/>
<path d="M130.20 262.20v-20.30" class="stroke"/>
<abc type="N" row="72" col="3" x="120.20" y="237.20" width="13.00" height="31"/>
<use x="157.30" y="265.20" xlink:href="#hd"/>
<path d="M160.80 265.20v-21.20" class="stroke"/>
<abc type="N" row="72" col="4" x="150.80" y="239.20" width="13.00" height="32"/>
<use x="170.00" y="268.20" xlink:href="#hd"/>
<path d="M173.50 268.20v-23.30" class="stroke"/>
<abc type="N" row="72" col="6" x="163.50" y="240.20" width="13.00" height="34"/>
<abc type="e" row="72" col="6" x="163.50" y="268.20" width="6.00" height="6"/>
<abc type="b" row="72" col="9" x="182.00" y="265.20" width="6.00" height="6"/>
<path class="fill"
	d="M191.70 243.00l46.90 0.00v3.20l-46.90 -0.00"/>
<path class="fill"
	d="M231.20 248.00l7.00 0.00v3.20l-7.00 -0.00"/>
<use x="188.50" y="265.20" xlink:href="#hd"/>
<circle class="fill" cx="196.20" cy="265.20" r="1.2"/>
<path d="M192.00 265.20v-21.20" class="stroke"/>
<abc type="N" row="72" col="9" x="182.00" y="239.20" width="20.50" height="32"/>
<use x="234.70" y="265.20" xlink:href="#hd"/>
<path d="M238.20 265.20v-21.20" class="stroke"/>
<abc type="N" row="72" col="11" x="228.20" y="239.20" width="13.00" height="32"/>
<abc type="e" row="72" col="11" x="228.20" y="265.20" width="6.00" height="6"/>
<abc type="b" row="72" col="13" x="242.00" y="268.20" width="6.00" height="6"/>
<path class="fill"
	d="M251.60 247.00l31.40 -2.60v3.20l-31.40 2.60"/>
<use x="248.50" y="268.20" xlink:href="#hd"/>
<path d="M252.00 268.20v-20.20" class="stroke"/>
<abc type="N" row="72" col="13" x="242.00" y="243.20" width="13.00" height="31"/>
<use x="279.10" y="265.20" xlink:href="#hd"/>
<defs>
<path id="unat" class="fill" d="
	m96 -750
	h-32
	v716
	l32 -8
	182 -54
	v282
	h32
	v-706
	l-34 10
	-180 50
	v-290
	m0 592
	v-190
	l182 -52
	v188"/>
<use id="nt0" transform="translate(-3,5) scale(0.018)"
	xlink:href="#unat"/>
</defs>
<use x="270.10" y="265.20" xlink:href="#nt0"/>
<path d="M282.60 265.20v-19.80" class="stroke"/>
<abc type="N" row="72" col="14" x="263.60" y="240.20" width="22.00" height="34"/>
<abc type="e" row="72" col="14" x="263.60" y="268.20" width="6.00" height="6"/>
<abc type="b" row="83" col="1" x="326.30" y="262.20" width="6.00" height="6"/>
<path class="fill"
	d="M336.00 242.90l27.10 6.40v3.20l-27.10 -6.40"/>
<use x="332.80" y="262.20" xlink:href="#hd"/>
<path d="M336.30 262.20v-18.20" class="stroke"/>
<abc type="N" row="83" col="1" x="326.30" y="239.20" width="13.00" height="29"/>
<use x="359.20" y="274.20" xlink:href="#hd"/>
<path d="M362.70 274.20v-23.90" class="stroke"/>
<abc type="N" row="83" col="2" x="352.70" y="245.20" width="13.00" height="35"/>
<abc type="e" row="83" col="2" x="352.70" y="274.20" width="6.00" height="6"/>
<abc type="b" row="83" col="4" x="379.70" y="266.20" width="6.00" height="6"/>
<path class="fill"
	d="M398.40 244.00l41.60 3.00v3.20l-41.60 -3.00"/>
<path class="fill"
	d="M426.50 251.00l13.20 1.00v3.20l-13.20 -1.00"/>
<use x="395.20" y="265.20" xlink:href="#hd"/>
<use x="386.20" y="265.20" xlink:href="#ft0"/>
<path d="M398.70 265.20v-20.20" class="stroke"/>
<abc type="N" row="83" col="4" x="379.70" y="240.20" width="22.00" height="32"/>
<use x="423.00" y="268.20" xlink:href="#hd"/>
<path d="M426.50 268.20v-21.20" class="stroke"/>
<abc type="N" row="83" col="6" x="416.50" y="242.20" width="13.00" height="32"/>
<use x="436.20" y="271.20" xlink:href="#hd"/>
<path d="M439.70 271.20v-23.20" class="stroke"/>
<abc type="N" row="83" col="8" x="429.70" y="243.20" width="13.00" height="34"/>
<abc type="e" row="83" col="8" x="429.70" y="271.20" width="6.00" height="6"/>
<abc type="b" row="83" col="11" x="443.90" y="268.20" width="6.00" height="6"/>
<path class="fill"
	d="M453.60 248.90l31.90 6.90v3.20l-31.90 -6.90"/>
<use x="450.40" y="268.20" xlink:href="#hd"/>
<path d="M453.90 268.20v-18.20" class="stroke"/>
<abc type="N" row="83" col="11" x="443.90" y="245.20" width="13.00" height="29"/>
<use x="481.60" y="280.20" xlink:href="#hd"/>
<path d="M485.10 280.20v-23.40" class="stroke"/>
<abc type="N" row="83" col="12" x="475.10" y="252.20" width="13.00" height="34"/>
<abc type="e" row="83" col="12" x="475.10" y="280.20" width="6.00" height="6"/>
<use x="503.00" y="265.20" xlink:href="#hd"/>
<path d="M506.50 265.20v-21.00" class="stroke"/>
<abc type="N" row="90" col="1" x="496.50" y="240.20" width="13.00" height="34"/>
<abc type="b" row="90" col="5" x="574.40" y="265.20" width="6.00" height="6"/>
<path class="fill"
	d="M584.00 243.00l29.90 0.00v3.20l-29.90 -0.00"/>
<path class="fill"
	d="M584.40 248.00l16.50 0.00v3.20l-16.50 -0.00"/>
<use x="580.90" y="265.20" xlink:href="#hd"/>
<path d="M584.40 265.20v-21.20" class="stroke"/>
<abc type="N" row="90" col="5" x="574.40" y="239.20" width="13.00" height="32"/>
<use x="597.40" y="265.20" xlink:href="#hd"/>
<path d="M600.90 265.20v-21.20" class="stroke"/>
<abc type="N" row="90" col="7" x="590.90" y="239.20" width="13.00" height="32"/>
<use x="610.00" y="268.20" xlink:href="#hd"/>
<path d="M613.50 268.20v-24.20" class="stroke"/>
<abc type="N" row="90" col="9" x="603.50" y="239.20" width="13.00" height="38"/>
<abc type="e" row="90" col="9" x="603.50" y="271.20" width="6.00" height="6"/>
<abc type="b" row="90" col="12" x="625.20" y="268.20" width="6.00" height="6"/>
<path class="fill"
	d="M644.40 246.00l31.40 4.40v3.20l-31.40 -4.40"/>
<path class="fill"
	d="M644.70 251.00l12.70 1.80v3.20l-12.70 -1.80"/>
<use x="641.20" y="268.20" xlink:href="#hd"/>
<path d="M644.70 268.20v-21.20" class="stroke"/>
<abc type="N" row="90" col="12" x="625.20" y="242.20" width="22.50" height="32"/>
<use x="653.90" y="271.20" xlink:href="#hd"/>
<path d="M657.40 271.20v-22.40" class="stroke"/>
<abc type="N" row="90" col="14" x="647.40" y="244.20" width="13.00" height="33"/>
<use x="671.90" y="274.20" xlink:href="#hd"/>
<use x="662.90" y="274.20" xlink:href="#nt0"/>
<path d="M675.40 274.20v-22.90" class="stroke"/>
<abc type="N" row="90" col="16" x="656.40" y="246.20" width="22.00" height="37"/>
<abc type="e" row="90" col="16" x="656.40" y="277.20" width="6.00" height="6"/>
<abc type="b" row="90" col="19" x="683.60" y="271.20" width="6.00" height="6"/>
<path class="fill"
	d="M693.20 247.70l26.00 -5.70v3.20l-26.00 5.70"/>
<use x="690.10" y="271.20" xlink:href="#hd"/>
<path d="M693.60 271.20v-22.60" class="stroke"/>
<abc type="N" row="90" col="19" x="683.60" y="243.20" width="13.00" height="34"/>
<use x="715.40" y="259.20" xlink:href="#hd"/>
<path d="M718.90 259.20v-16.20" class="stroke"/>
<abc type="N" row="90" col="20" x="708.90" y="238.20" width="13.00" height="27"/>
<abc type="e" row="90" col="20" x="708.90" y="259.20" width="6.00" height="6"/>
<abc type="b" row="90" col="22" x="740.10" y="268.20" width="6.00" height="6"/>
<path class="fill"
	d="M749.70 243.00l38.70 -3.00v3.20l-38.70 3.00"/>
<path class="fill"
	d="M775.40 246.00l12.70 -1.00v3.20l-12.70 1.00"/>
<use x="746.60" y="268.20" xlink:href="#hd"/>
<path d="M750.10 268.20v-24.30" class="stroke"/>
<abc type="N" row="90" col="22" x="740.10" y="239.20" width="13.00" height="35"/>
<use x="771.90" y="265.20" xlink:href="#hd"/>
<path d="M775.40 265.20v-23.20" class="stroke"/>
<abc type="N" row="90" col="23" x="765.40" y="237.20" width="13.00" height="34"/>
<use x="784.60" y="262.20" xlink:href="#hd"/>
<path d="M788.10 262.20v-21.20" class="stroke"/>
<abc type="N" row="90" col="25" x="778.10" y="236.20" width="13.00" height="32"/>
<abc type="e" row="90" col="25" x="778.10" y="262.20" width="6.00" height="6"/>
<path class="fill"
	d="M506.50 265.20c10.18 -5.78 60.68 -5.78 70.86 -0.00
	v-0.27c-12.30 -7.50 -58.56 -7.50 -70.86 0.27"/>
<path class="fill"
	d="M613.50 268.20c3.81 -4.94 20.37 -4.94 24.17 -0.00
	v-0.22c-4.53 -6.71 -19.64 -6.71 -24.17 0.22"/>
<abc type="b" row="74" col="0" x="68.40" y="297.20" width="6.00" height="6"/>
<path class="fill"
	d="M71.10 299.40l38.70 3.00v-3.20l-38.70 -3.00"/>
<path class="fill"
	d="M96.70 296.40l12.70 1.00v-3.20l-12.70 -1.00"/>
<use x="74.90" y="274.20" xlink:href="#hd"/>
<path d="M71.40 274.20v24.30" class="stroke"/>
<abc type="N" row="74" col="0" x="68.40" y="268.20" width="13.00" height="35"/>
<use x="100.20" y="277.20" xlink:href="#hd"/>
<use x="91.20" y="277.20" xlink:href="#ft0"/>
<path d="M96.70 277.20v23.20" class="stroke"/>
<abc type="N" row="74" col="1" x="84.70" y="267.20" width="22.00" height="38"/>
<use x="112.90" y="280.20" xlink:href="#hd"/>
<path d="M109.40 280.20v21.20" class="stroke"/>
<abc type="N" row="74" col="4" x="106.40" y="274.20" width="13.00" height="32"/>
<abc type="e" row="74" col="4" x="106.40" y="300.20" width="6.00" height="6"/>
<abc type="b" row="74" col="7" x="120.20" y="304.20" width="6.00" height="6"/>
<path class="fill"
	d="M122.80 306.20l31.40 5.10v-3.20l-31.40 -5.10"/>
<path class="fill"
	d="M123.20 301.30l19.70 3.20v-3.20l-19.70 -3.20"/>
<use x="126.70" y="271.20" xlink:href="#hd"/>
<path d="M123.20 271.20v34.10" class="stroke"/>
<abc type="N" row="74" col="7" x="120.20" y="265.20" width="13.00" height="45"/>
<use x="139.30" y="337.20" xlink:href="#hl"/>
<use x="139.30" y="337.20" xlink:href="#hd"/>
<path d="M142.80 337.20v-35.00" class="stroke"/>
<abc type="N" row="74" col="21" x="132.80" y="305.20" width="13.00" height="38"/>
<use x="157.30" y="280.20" xlink:href="#hd"/>
<path d="M153.80 280.20v30.00" class="stroke"/>
<abc type="N" row="74" col="35" x="148.30" y="271.20" width="15.50" height="44"/>
<abc type="e" row="74" col="35" x="148.30" y="309.20" width="6.00" height="6"/>
<abc type="b" row="74" col="38" x="172.50" y="300.20" width="6.00" height="6"/>
<path class="fill"
	d="M184.70 302.40l35.20 0.00v-3.20l-35.20 -0.00"/>
<path class="fill"
	d="M185.00 297.40l16.50 0.00v-3.20l-16.50 -0.00"/>
<use x="188.50" y="280.20" xlink:href="#hd"/>
<path d="M185.00 280.20v21.20" class="stroke"/>
<abc type="N" row="74" col="38" x="172.50" y="274.20" width="22.50" height="32"/>
<use x="205.00" y="280.20" xlink:href="#hd"/>
<path d="M201.50 280.20v21.20" class="stroke"/>
<abc type="N" row="74" col="40" x="198.50" y="274.20" width="13.00" height="32"/>
<use x="223.00" y="277.20" xlink:href="#hd"/>
<use x="214.00" y="277.20" xlink:href="#nt0"/>
<path d="M219.50 277.20v24.20" class="stroke"/>
<abc type="N" row="74" col="42" x="207.50" y="267.20" width="22.00" height="39"/>
<abc type="e" row="74" col="42" x="207.50" y="300.20" width="6.00" height="6"/>
<abc type="b" row="74" col="45" x="242.00" y="301.20" width="6.00" height="6"/>
<path class="fill"
	d="M244.60 302.90l44.00 6.60v-3.20l-44.00 -6.60"/>
<path class="fill"
	d="M252.00 299.00l-7.00 -1.00v-3.20l7.00 1.00"/>
<path class="fill"
	d="M281.30 303.40l7.00 1.00v-3.20l-7.00 -1.00"/>
<use x="248.50" y="274.20" xlink:href="#hd"/>
<path d="M245.00 274.20v27.80" class="stroke"/>
<abc type="N" row="74" col="45" x="242.00" y="268.20" width="13.00" height="39"/>
<use x="261.10" y="271.20" xlink:href="#hd"/>
<path d="M257.60 271.20v32.60" class="stroke"/>
<abc type="N" row="74" col="47" x="254.60" y="265.20" width="13.00" height="44"/>
<use x="291.80" y="289.20" xlink:href="#hd"/>
<path d="M288.30 289.20v19.20" class="stroke"/>
<abc type="N" row="74" col="48" x="285.30" y="283.20" width="13.00" height="30"/>
<abc type="e" row="74" col="48" x="285.30" y="307.20" width="6.00" height="6"/>
</g>
<g stroke-width="0.70" transform="scale(0.800)" font-family="FreeSerif" font-size="14.00" font-style="italic">
<defs>
<path id="r8e" class="fill" d="m 0 0
	c-1.5 1.5 -2.4 2 -3.6 2
	2.4 -2.8 -2.8 -4 -2.8 -1.2
	c0 2.7 4.3 2.4 5.9 0.6"/>
<g id="r16">
	<path d="m3.3 -4l-4 15.6" class="stroke"/>
	<use x="3.4" y="-4" xlink:href="#r8e"/>
	<use x="1.9" y="2" xlink:href="#r8e"/>
</g>
</defs>
<use x="416.02" y="204.25" xlink:href="#r16"/>
<abc type="R" row="85" col="1" x="407.92" y="194.25" width="13.00" height="24"/>
<abc type="b" row="85" col="3" x="425.02" y="223.25" width="6.00" height="6"/>
<path class="fill"
	d="M429.23 225.15l39.20 4.40v-3.20l-39.20 -4.40"/>
<path class="fill"
	d="M429.73 220.25l38.30 4.30v-3.20l-38.30 -4.30"/>
<use x="433.23" y="201.25" xlink:href="#hd"/>
<path d="M429.73 201.25v23.00" class="stroke"/>
<abc type="N" row="85" col="3" x="425.02" y="195.25" width="13.00" height="34"/>
<path d="M445.52 204.25v21.80" class="stroke"/>
<abc type="N" row="85" col="5" x="440.92" y="198.25" width="13.00" height="33"/>
<use x="471.52" y="207.25" xlink:href="#hd"/>
<use x="462.52" y="207.25" xlink:href="#ft0"/>
<path d="M468.02 207.25v21.30" class="stroke"/>
<abc type="N" row="85" col="7" x="452.12" y="197.25" width="22.00" height="36"/>
<abc type="e" row="85" col="7" x="452.12" y="227.25" width="6.00" height="6"/>
<abc type="b" row="85" col="11" x="485.92" y="229.25" width="6.00" height="6"/>
<path class="fill"
	d="M490.12 231.05l35.50 -2.50v-3.20l-35.50 2.50"/>
<use x="494.02" y="210.25" xlink:href="#hd"/>
<path d="M490.52 210.25v19.70" class="stroke"/>
<abc type="N" row="85" col="11" x="485.92" y="204.25" width="13.00" height="31"/>
<use x="528.72" y="207.25" xlink:href="#hd"/>
<use x="512.72" y="207.25" xlink:href="#nt0"/>
<path d="M525.22 207.25v20.30" class="stroke"/>
<abc type="N" row="85" col="12" x="500.62" y="197.25" width="29.00" height="35"/>
<abc type="e" row="85" col="12" x="500.62" y="226.25" width="6.00" height="6"/>
<abc type="b" row="85" col="15" x="554.92" y="224.25" width="6.00" height="6"/>
<path class="fill"
	d="M559.12 226.05l39.80 4.40v-3.20l-39.80 -4.40"/>
<use x="563.03" y="204.25" xlink:href="#hd"/>
<path d="M559.53 204.25v20.80" class="stroke"/>
<abc type="N" row="85" col="15" x="554.92" y="198.25" width="13.00" height="32"/>
<path d="M598.53 210.25v19.20" class="stroke"/>
<abc type="N" row="85" col="16" x="593.83" y="204.25" width="13.00" height="30"/>
<abc type="e" row="85" col="16" x="593.83" y="228.25" width="6.00" height="6"/>
<abc type="b" row="92" col="1" x="487.50" y="300.20" width="6.00" height="6"/>
</g>
<g stroke-width="0.70" font-family="FreeSerif" font-size="14.00" font-style="italic">
<path class="fill"
	d="M499.20 302.30l53.50 3.10v-3.20l-53.50 -3.10"/>
<path class="fill"
	d="M534.40 299.40l18.00 1.00v-3.20l-18.00 -1.00"/>
<use x="503.00" y="277.20" xlink:href="#hd"/>
<use x="494.00" y="277.20" xlink:href="#ft0"/>
<path d="M499.50 277.20v24.10" class="stroke"/>
<abc type="N" row="92" col="1" x="487.50" y="267.20" width="22.00" height="39"/>
<use x="537.90" y="280.20" xlink:href="#hd"/>
<path d="M534.40 280.20v23.20" class="stroke"/>
<abc type="N" row="92" col="3" x="531.40" y="274.20" width="13.00" height="34"/>
<use x="555.90" y="283.20" xlink:href="#hd"/>
<path d="M552.40 283.20v21.20" class="stroke"/>
<abc type="N" row="92" col="5" x="549.40" y="277.20" width="13.00" height="32"/>
<abc type="e" row="92" col="5" x="549.40" y="303.20" width="6.00" height="6"/>
<abc type="b" row="92" col="8" x="574.40" y="301.20" width="6.00" height="6"/>
<path class="fill"
	d="M577.00 303.40l42.50 2.70v-3.20l-42.50 -2.70"/>
<path class="fill"
	d="M612.20 300.60l7.00 0.40v-3.20l-7.00 -0.40"/>
<use x="580.90" y="280.20" xlink:href="#hd"/>
<circle class="fill" cx="588.60" cy="283.20" r="1.2"/>
<path d="M577.40 280.20v22.20" class="stroke"/>
<abc type="N" row="92" col="8" x="574.40" y="274.20" width="20.50" height="33"/>
<use x="622.70" y="283.20" xlink:href="#hd"/>
<path d="M619.20 283.20v21.80" class="stroke"/>
<abc type="N" row="92" col="10" x="616.20" y="277.20" width="13.00" height="33"/>
<abc type="e" row="92" col="10" x="616.20" y="304.20" width="6.00" height="6"/>
<abc type="b" row="92" col="12" x="634.70" y="306.20" width="6.00" height="6"/>
<path class="fill"
	d="M637.40 307.70l31.40 0.00v-3.20l-31.40 -0.00"/>
<use x="641.20" y="286.20" xlink:href="#hd"/>
<path d="M637.70 286.20v20.50" class="stroke"/>
<abc type="N" row="92" col="12" x="634.70" y="280.20" width="13.00" height="32"/>
<use x="671.90" y="289.20" xlink:href="#hd"/>
<path d="M668.40 289.20v17.50" class="stroke"/>
<abc type="N" row="92" col="13" x="665.40" y="283.20" width="13.00" height="29"/>
<abc type="e" row="92" col="13" x="665.40" y="306.20" width="6.00" height="6"/>
<abc type="b" row="92" col="15" x="683.60" y="307.20" width="6.00" height="6"/>
<path class="fill"
	d="M686.20 309.50l26.00 -8.60v-3.20l-26.00 8.60"/>
<use x="690.10" y="292.20" xlink:href="#hl"/>
<use x="690.10" y="292.20" xlink:href="#hd"/>
<path d="M686.60 292.20v16.20" class="stroke"/>
<abc type="N" row="92" col="15" x="683.60" y="286.20" width="13.00" height="27"/>
<use x="715.40" y="265.20" xlink:href="#hd"/>
<path d="M711.90 265.20v34.80" class="stroke"/>
<abc type="N" row="92" col="16" x="708.90" y="259.20" width="13.00" height="46"/>
<abc type="e" row="92" col="16" x="708.90" y="299.20" width="6.00" height="6"/>
<use x="746.60" y="277.20" xlink:href="#hd"/>
<path d="M743.10 277.20v21.00" class="stroke"/>
<abc type="N" row="92" col="17" x="740.10" y="271.20" width="13.00" height="31"/>
<path class="fill"
	d="M160.80 280.20c3.81 4.94 20.37 4.94 24.17 -0.00
	v0.22c-4.53 6.71 -19.64 6.71 -24.17 -0.22"/>
<defs>
<path id="ubclef" class="fill" d="m-200 -87
	c124 -35 222 -78 254 -236
	43 -228 -167 -246 -192 -103
	59 -80 157 22 92 78
	-62 47 -115 -22 -106 -88
	21 -141 270 -136 274 52
	-1 175 -106 264 -322 297
	m357 -250
	c0 -36 51 -34 51 0
	0 37 -51 36 -51 0
	m-2 -129
	c0 -36 51 -34 51 0
	0 38 -51 37 -51 0"/>
<use id="bclef" transform="translate(0,18) scale(0.045)"
	xlink:href="#ubclef"/>
</defs>
<use x="30.90" y="349.20" xlink:href="#bclef"/>
<abc type="c" row="76" col="0" x="16.90" y="339.20" width="28.00" height="31"/>
<use x="45.90" y="361.20" xlink:href="#ft0"/>
<use x="51.40" y="352.20" xlink:href="#ft0"/>
<use x="56.90" y="364.20" xlink:href="#ft0"/>
<abc type="K" row="72" col="0" x="40.90" y="339.20" width="27.50" height="32"/>
<abc type="b" row="76" col="0" x="64.40" y="363.20" width="6.00" height="6"/>
<path class="fill"
	d="M71.10 365.20l13.40 3.20v-3.20l-13.40 -3.20"/>
<path class="fill"
	d="M71.40 360.30l12.70 3.10v-3.20l-12.70 -3.10"/>
<use x="74.90" y="340.20" xlink:href="#hd"/>
<path d="M71.40 340.20v24.10" class="stroke"/>
<abc type="N" row="76" col="0" x="64.40" y="334.20" width="17.00" height="35"/>
<use x="87.60" y="346.20" xlink:href="#hd"/>
<path d="M84.10 346.20v21.20" class="stroke"/>
<abc type="N" row="76" col="3" x="81.10" y="340.20" width="13.00" height="32"/>
<abc type="e" row="76" col="3" x="81.10" y="366.20" width="6.00" height="6"/>
<abc type="b" row="76" col="7" x="93.70" y="360.20" width="6.00" height="6"/>
<path class="fill"
	d="M96.40 361.40l57.80 0.00v-3.20l-57.80 -0.00"/>
<use x="100.20" y="337.20" xlink:href="#hl"/>
<use x="100.20" y="337.20" xlink:href="#hd"/>
<path d="M96.70 337.20v23.20" class="stroke"/>
<abc type="N" row="76" col="7" x="93.70" y="331.20" width="13.00" height="35"/>
<use x="126.70" y="343.20" xlink:href="#hd"/>
<use x="117.70" y="343.20" xlink:href="#nt0"/>
<path d="M123.20 343.20v17.20" class="stroke"/>
<abc type="N" row="76" col="8" x="111.20" y="333.20" width="22.00" height="33"/>
<use x="157.30" y="340.20" xlink:href="#hd"/>
<use x="148.30" y="340.20" xlink:href="#nt0"/>
<path d="M153.80 340.20v20.20" class="stroke"/>
<abc type="N" row="76" col="11" x="141.80" y="330.20" width="22.00" height="36"/>
<abc type="e" row="76" col="11" x="141.80" y="360.20" width="6.00" height="6"/>
<abc type="b" row="76" col="15" x="182.00" y="360.20" width="6.00" height="6"/>
<path class="fill"
	d="M184.70 361.30l35.20 7.20v-3.20l-35.20 -7.20"/>
<use x="188.50" y="337.20" xlink:href="#hl"/>
<use x="188.50" y="337.20" xlink:href="#hd"/>
<path d="M185.00 337.20v23.10" class="stroke"/>
<abc type="N" row="76" col="15" x="182.00" y="331.20" width="13.00" height="35"/>
<use x="223.00" y="349.20" xlink:href="#hd"/>
<path d="M219.50 349.20v18.20" class="stroke"/>
<abc type="N" row="76" col="16" x="216.50" y="343.20" width="13.00" height="29"/>
<abc type="e" row="76" col="16" x="216.50" y="366.20" width="6.00" height="6"/>
<abc type="b" row="76" col="19" x="233.00" y="363.20" width="6.00" height="6"/>
<path class="fill"
	d="M244.60 365.40l44.00 3.00v-3.20l-44.00 -3.00"/>
<path class="fill"
	d="M275.60 362.50l12.70 0.90v-3.20l-12.70 -0.90"/>
<use x="248.50" y="340.20" xlink:href="#hd"/>
<use x="239.50" y="340.20" xlink:href="#ft0"/>
<path d="M245.00 340.20v24.30" class="stroke"/>
<abc type="N" row="76" col="19" x="233.00" y="330.20" width="22.00" height="39"/>
<use x="279.10" y="343.20" xlink:href="#hd"/>
<use x="270.10" y="343.20" xlink:href="#ft0"/>
<path d="M275.60 343.20v23.30" class="stroke"/>
<abc type="N" row="76" col="22" x="263.60" y="333.20" width="22.00" height="38"/>
<use x="291.80" y="346.20" xlink:href="#hd"/>
<path d="M288.30 346.20v21.20" class="stroke"/>
<abc type="N" row="76" col="26" x="285.30" y="340.20" width="13.00" height="32"/>
<abc type="e" row="76" col="26" x="285.30" y="366.20" width="6.00" height="6"/>
<abc type="b" row="87" col="1" x="320.30" y="361.20" width="6.00" height="6"/>
<path class="fill"
	d="M329.00 362.50l27.10 -5.50v-3.20l-27.10 5.50"/>
<use x="332.80" y="343.20" xlink:href="#hd"/>
<use x="323.80" y="343.20" xlink:href="#nt0"/>
<path d="M329.30 343.20v18.20" class="stroke"/>
<abc type="N" row="87" col="1" x="320.30" y="333.20" width="19.00" height="34"/>
<use x="359.20" y="337.20" xlink:href="#hl"/>
<use x="359.20" y="334.20" xlink:href="#hd"/>
<use x="350.20" y="334.20" xlink:href="#nt0"/>
<path d="M355.70 334.20v21.80" class="stroke"/>
<abc type="N" row="87" col="4" x="343.70" y="323.20" width="22.00" height="39"/>
<abc type="e" row="87" col="4" x="343.70" y="356.20" width="6.00" height="6"/>
<abc type="b" row="87" col="8" x="379.20" y="360.20" width="6.00" height="6"/>
<path class="fill"
	d="M391.40 361.40l41.60 0.00v-3.20l-41.60 -0.00"/>
<path class="fill"
	d="M391.70 356.40l40.90 0.00v-3.20l-40.90 -0.00"/>
<use x="395.20" y="337.20" xlink:href="#hl"/>
<use x="395.20" y="334.20" xlink:href="#hd"/>
<path d="M391.70 334.20v26.20" class="stroke"/>
<abc type="N" row="87" col="8" x="379.20" y="323.20" width="22.50" height="43"/>
<use x="408.40" y="337.20" xlink:href="#hl"/>
<use x="408.40" y="337.20" xlink:href="#hd"/>
<path d="M404.90 337.20v23.20" class="stroke"/>
<abc type="N" row="87" col="10" x="400.40" y="331.20" width="14.50" height="35"/>
<use x="423.00" y="337.20" xlink:href="#hl"/>
<use x="423.00" y="331.20" xlink:href="#hl"/>
<use x="423.00" y="328.20" xlink:href="#hd"/>
<path d="M419.50 328.20v32.20" class="stroke"/>
<abc type="N" row="87" col="12" x="415.00" y="322.20" width="14.50" height="44"/>
<use x="436.20" y="337.20" xlink:href="#hl"/>
<use x="436.20" y="331.20" xlink:href="#hl"/>
<use x="436.20" y="331.20" xlink:href="#hd"/>
<path d="M432.70 331.20v29.20" class="stroke"/>
<abc type="N" row="87" col="14" x="428.20" y="325.20" width="14.50" height="41"/>
<abc type="e" row="87" col="14" x="428.20" y="360.20" width="6.00" height="6"/>
<abc type="b" row="87" col="17" x="442.40" y="360.20" width="6.00" height="6"/>
<path class="fill"
	d="M446.60 361.40l31.90 0.00v-3.20l-31.90 -0.00"/>
<path class="fill"
	d="M446.90 356.40l13.20 0.00v-3.20l-13.20 -0.00"/>
<use x="450.40" y="337.20" xlink:href="#hl"/>
<use x="450.40" y="334.20" xlink:href="#hd"/>
<path d="M446.90 334.20v26.20" class="stroke"/>
<abc type="N" row="87" col="17" x="442.40" y="328.20" width="14.50" height="38"/>
<use x="463.60" y="337.20" xlink:href="#hl"/>
<use x="463.60" y="337.20" xlink:href="#hd"/>
<path d="M460.10 337.20v23.20" class="stroke"/>
<abc type="N" row="87" col="19" x="455.60" y="331.20" width="14.50" height="35"/>
<use x="481.60" y="337.20" xlink:href="#hl"/>
<use x="481.60" y="334.20" xlink:href="#hd"/>
<use x="472.60" y="334.20" xlink:href="#ft0"/>
<path d="M478.10 334.20v26.20" class="stroke"/>
<abc type="N" row="87" col="21" x="466.10" y="323.20" width="22.00" height="43"/>
<abc type="e" row="87" col="21" x="466.10" y="360.20" width="6.00" height="6"/>
<abc type="b" row="94" col="1" x="487.00" y="357.20" width="6.00" height="6"/>
<path class="fill"
	d="M499.20 358.60l53.50 6.90v-3.20l-53.50 -6.90"/>
<path class="fill"
	d="M499.50 353.60l52.90 6.80v-3.20l-52.90 -6.80"/>
<use x="503.00" y="337.20" xlink:href="#hl"/>
<use x="503.00" y="334.20" xlink:href="#hd"/>
<path d="M499.50 334.20v23.40" class="stroke"/>
<abc type="N" row="94" col="1" x="487.00" y="323.20" width="22.50" height="40"/>
<use x="525.20" y="337.20" xlink:href="#hl"/>
<use x="525.20" y="337.20" xlink:href="#hd"/>
<path d="M521.70 337.20v23.30" class="stroke"/>
<abc type="N" row="94" col="3" x="517.20" y="331.20" width="14.50" height="35"/>
<use x="537.90" y="340.20" xlink:href="#hd"/>
<path d="M534.40 340.20v21.90" class="stroke"/>
<abc type="N" row="94" col="5" x="531.40" y="334.20" width="13.00" height="34"/>
<use x="555.90" y="343.20" xlink:href="#hd"/>
<use x="546.90" y="343.20" xlink:href="#ft0"/>
<path d="M552.40 343.20v21.20" class="stroke"/>
<abc type="N" row="94" col="8" x="540.40" y="333.20" width="22.00" height="36"/>
<abc type="e" row="94" col="8" x="540.40" y="363.20" width="6.00" height="6"/>
<abc type="b" row="94" col="13" x="574.40" y="340.20" width="6.00" height="6"/>
<path class="fill"
	d="M584.00 319.00l91.70 0.00v3.20l-91.70 -0.00"/>
<use x="580.90" y="340.20" xlink:href="#hd"/>
<path d="M584.40 340.20v-20.20" class="stroke"/>
<abc type="N" row="94" col="13" x="574.40" y="315.20" width="13.00" height="31"/>
<use x="610.00" y="340.20" xlink:href="#hd"/>
<use x="601.00" y="340.20" xlink:href="#nt0"/>
<path d="M613.50 340.20v-20.20" class="stroke"/>
<abc type="N" row="94" col="15" x="594.50" y="315.20" width="22.00" height="34"/>
<use x="641.20" y="337.20" xlink:href="#hl"/>
<use x="641.20" y="337.20" xlink:href="#hd"/>
<path d="M644.70 337.20v-17.20" class="stroke"/>
<abc type="N" row="94" col="18" x="634.70" y="315.20" width="13.00" height="28"/>
<use x="671.90" y="337.20" xlink:href="#hl"/>
<use x="671.90" y="334.20" xlink:href="#hd"/>
<path d="M675.40 334.20v-14.20" class="stroke"/>
<abc type="N" row="94" col="19" x="663.90" y="315.20" width="14.50" height="25"/>
<abc type="e" row="94" col="19" x="663.90" y="334.20" width="6.00" height="6"/>
<abc type="b" row="94" col="21" x="683.60" y="346.20" width="6.00" height="6"/>
<path class="fill"
	d="M693.20 317.00l38.70 0.00v3.20l-38.70 -0.00"/>
<path class="fill"
	d="M693.60 322.00l38.00 0.00v3.20l-38.00 -0.00"/>
<use x="690.10" y="346.20" xlink:href="#hd"/>
<path d="M693.60 346.20v-28.20" class="stroke"/>
<abc type="N" row="94" col="21" x="683.60" y="313.20" width="13.00" height="39"/>
<use x="702.70" y="337.20" xlink:href="#hl"/>
<use x="702.70" y="337.20" xlink:href="#hd"/>
<path d="M706.20 337.20v-19.20" class="stroke"/>
<abc type="N" row="94" col="24" x="696.20" y="313.20" width="13.00" height="30"/>
<use x="715.40" y="340.20" xlink:href="#hd"/>
<path d="M718.90 340.20v-22.20" class="stroke"/>
<abc type="N" row="94" col="26" x="708.90" y="313.20" width="13.00" height="33"/>
<use x="728.10" y="337.20" xlink:href="#hl"/>
<use x="728.10" y="337.20" xlink:href="#hd"/>
<path d="M731.60 337.20v-19.20" class="stroke"/>
<abc type="N" row="94" col="29" x="721.60" y="313.20" width="13.00" height="33"/>
<abc type="e" row="94" col="29" x="721.60" y="340.20" width="6.00" height="6"/>
<abc type="b" row="94" col="33" x="730.60" y="337.20" width="6.00" height="6"/>
<path class="fill"
	d="M749.70 317.00l26.00 0.00v3.20l-26.00 -0.00"/>
<path class="fill"
	d="M750.10 322.00l12.70 0.00v3.20l-12.70 -0.00"/>
<use x="746.60" y="337.20" xlink:href="#hl"/>
<use x="746.60" y="337.20" xlink:href="#hd"/>
<path d="M750.10 337.20v-19.20" class="stroke"/>
<abc type="N" row="94" col="33" x="730.60" y="313.20" width="22.50" height="30"/>
<use x="759.30" y="340.20" xlink:href="#hd"/>
<path d="M762.80 340.20v-22.20" class="stroke"/>
<abc type="N" row="94" col="35" x="752.80" y="313.20" width="13.00" height="33"/>
<use x="771.90" y="337.20" xlink:href="#hl"/>
<use x="771.90" y="337.20" xlink:href="#hd"/>
<path d="M775.40 337.20v-19.20" class="stroke"/>
<abc type="N" row="94" col="38" x="765.40" y="313.20" width="13.00" height="33"/>
<abc type="e" row="94" col="38" x="765.40" y="340.20" width="6.00" height="6"/>
<path class="fill"
	d="M362.70 334.20c4.57 -5.02 24.43 -5.02 29.00 -0.00
	v-0.23c-5.44 -6.79 -23.56 -6.79 -29.00 0.23"/>
<path class="fill"
	d="M485.10 334.20c2.27 -4.76 12.15 -4.76 14.42 -0.00
	v-0.21c-2.70 -6.55 -11.71 -6.55 -14.42 0.21"/>
<path class="fill"
	d="M729.60 337.20c2.44 -4.78 13.06 -4.78 15.50 -0.00
	v-0.22c-2.91 -6.56 -12.59 -6.56 -15.50 0.22"/>
<path class="fill"
	d="M775.40 337.20c2.86 -4.83 15.31 -4.83 18.17 -0.00
	v-0.22c-3.41 -6.61 -14.77 -6.61 -18.17 0.22"/>
<use x="332.80" y="274.20" xlink:href="#r16"/>
<abc type="R" row="85" col="1" x="326.30" y="264.20" width="13.00" height="24"/>
<abc type="b" row="85" col="3" x="340.00" y="293.20" width="6.00" height="6"/>
<path class="fill"
	d="M342.70 295.10l31.40 4.40v-3.20l-31.40 -4.40"/>
<path class="fill"
	d="M343.00 290.20l30.70 4.30v-3.20l-30.70 -4.30"/>
<use x="346.50" y="271.20" xlink:href="#hd"/>
<path d="M343.00 271.20v23.00" class="stroke"/>
<abc type="N" row="85" col="3" x="340.00" y="265.20" width="13.00" height="34"/>
<path d="M355.70 274.20v21.80" class="stroke"/>
<abc type="N" row="85" col="5" x="352.70" y="268.20" width="13.00" height="33"/>
<use x="377.20" y="277.20" xlink:href="#hd"/>
<use x="368.20" y="277.20" xlink:href="#ft0"/>
<path d="M373.70 277.20v21.30" class="stroke"/>
<abc type="N" row="85" col="7" x="361.70" y="267.20" width="22.00" height="36"/>
<abc type="e" row="85" col="7" x="361.70" y="297.20" width="6.00" height="6"/>
<abc type="b" row="85" col="11" x="388.70" y="299.20" width="6.00" height="6"/>
<path class="fill"
	d="M391.40 301.00l28.40 -2.50v-3.20l-28.40 2.50"/>
<use x="395.20" y="280.20" xlink:href="#hd"/>
<path d="M391.70 280.20v19.70" class="stroke"/>
<abc type="N" row="85" col="11" x="388.70" y="274.20" width="13.00" height="31"/>
<use x="423.00" y="277.20" xlink:href="#hd"/>
<use x="414.00" y="277.20" xlink:href="#nt0"/>
<path d="M419.50 277.20v20.30" class="stroke"/>
<abc type="N" row="85" col="12" x="407.50" y="267.20" width="22.00" height="35"/>
<abc type="e" row="85" col="12" x="407.50" y="296.20" width="6.00" height="6"/>
<abc type="b" row="85" col="15" x="443.90" y="294.20" width="6.00" height="6"/>
<path class="fill"
	d="M446.60 296.00l31.90 4.40v-3.20l-31.90 -4.40"/>
<use x="450.40" y="274.20" xlink:href="#hd"/>
<path d="M446.90 274.20v20.80" class="stroke"/>
<abc type="N" row="85" col="15" x="443.90" y="268.20" width="13.00" height="32"/>
<path d="M478.10 280.20v19.20" class="stroke"/>
<abc type="N" row="85" col="16" x="475.10" y="274.20" width="13.00" height="30"/>
<abc type="e" row="85" col="16" x="475.10" y="298.20" width="6.00" height="6"/>
<abc type="R" row="96" col="1" x="505.50" y="337.20" width="13.00" height="24"/>
<defs>
<path id="r4" class="fill" d="m-1 -8.5
	l3.6 5.1 -2.1 5.2 2.2 4.3
	c-2.6 -2.3 -5.1 0 -2.4 2.6
	-4.8 -3 -1.5 -6.9 1.4 -4.1
	l-3.1 -4.5 1.9 -5.1 -1.5 -3.5"/>
</defs>
<use x="580.90" y="355.20" xlink:href="#r4"/>
<abc type="R" row="96" col="4" x="574.40" y="343.20" width="13.00" height="24"/>
<use x="641.20" y="346.20" xlink:href="#hd"/>
<path d="M637.70 346.20v21.00" class="stroke"/>
<abc type="N" row="96" col="6" x="634.70" y="340.20" width="13.00" height="31"/>
<use x="690.10" y="352.20" xlink:href="#hd"/>
<path d="M686.60 352.20v21.00" class="stroke"/>
<abc type="N" row="96" col="9" x="683.60" y="346.20" width="13.00" height="31"/>
<use x="746.60" y="349.20" xlink:href="#hd"/>
<path d="M743.10 349.20v21.00" class="stroke"/>
<abc type="N" row="96" col="12" x="740.10" y="343.20" width="13.00" height="31"/>
</g>
</svg>
