<?xml version="1.0" standalone="no"?>
<!DOCTYPE svg PUBLIC "-//W3C//DTD SVG 1.1//EN"
	"http://www.w3.org/Graphics/SVG/1.1/DTD/svg11.dtd">
<svg xmlns="http://www.w3.org/2000/svg" version="1.1"
	xmlns:xlink="http://www.w3.org/1999/xlink"
	color="black"
	width="793.80px" height="1122.66px">
<style type="text/css">
.fill {fill: currentColor}
.stroke {stroke: currentColor; fill: none}
text{white-space: pre}
</style>
<title>transposed.abc page 1</title>
<!-- Creator: abcm2ps-8.14.5 -->
<!-- CreationDate: Mar 18, 2020 16:26 -->
<!-- CommandLine: -k 640 -v -A -O transposed_page_.svg transposed.abc -->
<defs>

<path id="white_diamond_head" d="m-3 0l 3 3l 3 -3 l -3 -3 l -3 3"
 class="stroke" style="stroke-width:1.2"/>

<path id="black_diamond_head" d="m-3 0l 3 3l 3 -3 l -3 -3 l -3 3"
 class="fill"/>

<path id="x_head" d="m-4 -4l8 8m0 -8l-8 8"
 class="stroke" style="stroke-width:1.2"/>
<path id="rect1_head" d="m-3 -1.5l0 3l6 0 l0 -3l-3 0" class="fill"/>
<path id="rect2_head" d="m-3 -2l0 4l6 0 l0 -4l-4 0" class="fill"/>
<circle id="spot_head" r="2.5" class="fill"/>
<circle id="donut_head" r="3.5" stroke-width="1.5" class="stroke"/>
<circle id="spot_head_small" r="2.2" class="fill"/>
<circle id="donut_head_small" r="2.6" stroke-width="1.5" class="stroke"/>
</defs>

<g stroke-width="0.70" font-family="FreeSerif" font-size="16.00">
<text x="396.90" y="23.60" text-anchor="middle"> </text>
</g>
<g stroke-width="0.70" font-family="Times" font-size="12.00">
<text x="396.90" y="1107.10" text-anchor="middle">  ; page 1 </text>
<text x="396.90" y="1119.10" text-anchor="middle">&apos;transposed.abc&apos; Mar 18, 2020 16:26 ;For MEW by Larry Myerscough using abcm2ps-8.14.5</text>
</g>
<g stroke-width="0.70" transform="scale(1.013)" font-family="Times" font-size="12.00">
<!-- subtitle: some notes; hardly what you'd call a tune! -->
</g>
<g stroke-width="0.70" transform="scale(1.013)" font-family="FreeSerif" font-size="16.00">
<text x="396.04" y="85.37" text-anchor="middle">some notes; hardly what you&apos;d call a tune!</text>
</g>
<g stroke-width="0.70" transform="scale(0.709)" font-family="FreeSerif" font-size="16.00">
<defs>
<ellipse id="hd" rx="4.1" ry="2.9"
	transform="rotate(-20)" class="fill"/>
</defs>
<use x="211.34" y="147.81" xlink:href="#hd"/>
<path d="M214.84 147.81v-21.00" class="stroke"/>
</g>
<g stroke-width="0.70" transform="scale(1.013)" font-family="FreeSerif" font-size="15.00" font-weight="bold">
<text x="155.64" y="105.57">= 88</text>
<defs>
<g id="rdots" class="fill">
	<circle cx="0" cy="-9" r="1.2"/>
	<circle cx="0" cy="-15" r="1.2"/>
</g>
</defs>
<use x="146.34" y="143.57" xlink:href="#rdots"/>
<path class="stroke" stroke-width="1"
	d="M142.34 143.57v-24.00"/>
<path class="stroke" stroke-width="1"
	d="M139.34 143.57v-24.00"/>
<path class="stroke" stroke-width="3"
	d="M134.84 143.57v-24.00"/>
<abc type="B" row="10" col="0" x="126.34" y="115.57" width="31.00" height="32"/>
<path class="stroke" stroke-width="1"
	d="M276.34 143.57v-24.00"/>
<abc type="B" row="10" col="8" x="266.34" y="115.57" width="20.00" height="32"/>
<path class="stroke" stroke-width="1"
	d="M465.74 143.57v-24.00"/>
<abc type="B" row="10" col="17" x="455.74" y="115.57" width="20.00" height="32"/>
<path class="stroke" stroke-width="1"
	d="M717.04 143.57v-24.00"/>
<abc type="B" row="10" col="28" x="707.04" y="115.57" width="20.00" height="32"/>
<path d="m66.34 143.57
	h650.70
	M66.34 137.57
	h650.70
	M66.34 131.57
	h650.70
	M66.34 125.57
	h650.70
	M66.34 119.57
	h650.70
	" class="stroke"/>
<defs>
<path id="utclef" class="fill" d="m-50 -90
	c-72 -41 -72 -158 52 -188
	150 -10 220 188 90 256
	-114 52 -275 0 -293 -136
	-15 -181 93 -229 220 -334
	88 -87 79 -133 62 -210
	-51 33 -94 105 -89 186
	17 267 36 374 49 574
	6 96 -19 134 -77 135
	-80 1 -126 -93 -61 -133
	85 -41 133 101 31 105
	23 17 92 37 90 -92
	-10 -223 -39 -342 -50 -617
	0 -90 0 -162 96 -232
	56 72 63 230 22 289
	-74 106 -257 168 -255 316
	9 153 148 185 252 133
	86 -65 29 -192 -80 -176
	-71 12 -105 67 -59 124"/>
<use id="tclef" transform="translate(0,6) scale(0.045)"
	xlink:href="#utclef"/>
</defs>
<use x="78.34" y="137.57" xlink:href="#tclef"/>
<abc type="c" row="10" col="0" x="64.34" y="107.57" width="28.00" height="46"/>
<defs>
<path id="usharp" class="fill" d="
	m136 -702
	v890
	h32
	v-890
	m128 840
	h32
	v-888
	h-32
	m-232 286
	v116
	l338 -96
	v-116
	m-338 442
	v116
	l338 -98
	v-114"/>
<use id="sh0" transform="translate(-4,5) scale(0.018)"
	xlink:href="#usharp"/>
</defs>
<use x="93.34" y="119.57" xlink:href="#sh0"/>
<use x="98.84" y="128.57" xlink:href="#sh0"/>
<abc type="K" row="10" col="0" x="88.34" y="111.57" width="22.00" height="36"/>
<defs>
<path id="csig" class="fill" d="
	m6 -5.3
	c0.9 0 2.3 0.7 2.4 2.2
	-1.2 -2 -3.6 0.1 -1.6 1.7
	2 1 3.8 -3.5 -0.8 -4.7
	-2 -0.4 -6.4 1.3 -5.8 7
	0.4 6.4 7.9 6.8 9.1 0.7
	-2.3 5.6 -6.7 5.1 -6.8 0
	-0.5 -4.4 0.7 -7.5 3.5 -6.9"/>
</defs>
<use x="109.84" y="131.57" xlink:href="#csig"/>
<abc type="M" row="10" col="0" x="106.34" y="115.57" width="24.00" height="32"/>
<defs>
<path id="Hd" class="fill" d="m3 -1.6
	c-1 -1.8 -7 1.4 -6 3.2
	1 1.8 7 -1.4 6 -3.2
	m0.5 -0.3
	c2 3.8 -5 7.6 -7 3.8
	-2 -3.8 5 -7.6 7 -3.8"/>
</defs>
<use x="163.84" y="146.57" xlink:href="#Hd"/>
<path d="M167.34 146.57v-21.00" class="stroke"/>
<abc type="N" row="10" col="4" x="156.84" y="121.57" width="14.00" height="31"/>
<use x="230.04" y="143.57" xlink:href="#Hd"/>
<path d="M233.54 143.57v-21.00" class="stroke"/>
<abc type="N" row="10" col="6" x="223.04" y="118.57" width="14.00" height="31"/>
<use x="292.84" y="140.57" xlink:href="#hd"/>
<path d="M296.34 140.57v-21.00" class="stroke"/>
<abc type="N" row="10" col="9" x="286.34" y="115.57" width="13.00" height="31"/>
<use x="339.54" y="137.57" xlink:href="#hd"/>
<path d="M343.04 137.57v-21.00" class="stroke"/>
<abc type="N" row="10" col="11" x="333.04" y="112.57" width="13.00" height="31"/>
<use x="386.34" y="134.57" xlink:href="#hd"/>
<path d="M389.84 134.57v-21.00" class="stroke"/>
<abc type="N" row="10" col="13" x="379.84" y="109.57" width="13.00" height="31"/>
<use x="433.04" y="131.57" xlink:href="#hd"/>
<path d="M436.54 131.57v-21.00" class="stroke"/>
<abc type="N" row="10" col="15" x="426.54" y="106.57" width="13.00" height="31"/>
<abc type="b" row="10" col="18" x="475.84" y="146.57" width="6.00" height="6"/>
<path class="fill"
	d="M478.44 148.87l90.00 -7.50v-3.20l-90.00 7.50"/>
<use x="482.34" y="128.57" xlink:href="#hd"/>
<path d="M478.84 128.57v19.20" class="stroke"/>
<abc type="N" row="10" col="18" x="475.84" y="122.57" width="13.00" height="30"/>
<use x="512.04" y="125.57" xlink:href="#hd"/>
<path d="M508.54 125.57v19.70" class="stroke"/>
<abc type="N" row="10" col="19" x="505.54" y="119.57" width="13.00" height="31"/>
<use x="541.84" y="122.57" xlink:href="#hd"/>
<path d="M538.34 122.57v20.30" class="stroke"/>
<abc type="N" row="10" col="20" x="535.34" y="116.57" width="13.00" height="31"/>
<use x="571.54" y="119.57" xlink:href="#hd"/>
<path d="M568.04 119.57v20.80" class="stroke"/>
<abc type="N" row="10" col="21" x="565.04" y="113.57" width="13.00" height="32"/>
<abc type="e" row="10" col="21" x="565.04" y="139.57" width="6.00" height="6"/>
<abc type="b" row="10" col="23" x="598.14" y="133.57" width="6.00" height="6"/>
<path class="fill"
	d="M600.84 134.57l90.00 0.00v-3.20l-90.00 -0.00"/>
<use x="604.64" y="116.57" xlink:href="#hd"/>
<path d="M601.14 116.57v17.00" class="stroke"/>
<abc type="N" row="10" col="23" x="598.14" y="110.57" width="13.00" height="29"/>
<defs>
<path id="hl" class="stroke" d="m-6 0h12"/>
</defs>
<use x="634.44" y="113.57" xlink:href="#hl"/>
<use x="634.44" y="113.57" xlink:href="#hd"/>
<path d="M630.94 113.57v20.00" class="stroke"/>
<abc type="N" row="10" col="24" x="627.94" y="107.57" width="13.00" height="32"/>
<use x="664.14" y="113.57" xlink:href="#hl"/>
<use x="664.14" y="110.57" xlink:href="#hd"/>
<path d="M660.64 110.57v23.00" class="stroke"/>
<abc type="N" row="10" col="25" x="656.14" y="104.57" width="14.50" height="35"/>
<use x="693.94" y="113.57" xlink:href="#hl"/>
<use x="693.94" y="107.57" xlink:href="#hl"/>
<use x="693.94" y="107.57" xlink:href="#hd"/>
<path d="M690.44 107.57v26.00" class="stroke"/>
<abc type="N" row="10" col="26" x="685.94" y="101.57" width="14.50" height="38"/>
<abc type="e" row="10" col="26" x="685.94" y="133.57" width="6.00" height="6"/>
</g>
<g stroke-width="0.70" transform="scale(1.013)" font-family="FreeSerif" font-size="15.00" font-weight="bold">
<path class="stroke" stroke-width="3"
	d="M264.04 220.57v-24.00"/>
<path class="stroke" stroke-width="1"
	d="M259.54 220.57v-24.00"/>
<use x="255.54" y="220.57" xlink:href="#rdots"/>
<abc type="B" row="11" col="21" x="247.54" y="192.57" width="25.00" height="32"/>
<path d="m66.34 220.57
	h199.20
	M66.34 214.57
	h199.20
	M66.34 208.57
	h199.20
	M66.34 202.57
	h199.20
	M66.34 196.57
	h199.20
	" class="stroke"/>
<use x="78.34" y="214.57" xlink:href="#tclef"/>
<abc type="c" row="11" col="0" x="64.34" y="184.57" width="28.00" height="46"/>
<use x="93.34" y="196.57" xlink:href="#sh0"/>
<use x="98.84" y="205.57" xlink:href="#sh0"/>
<abc type="K" row="11" col="0" x="88.34" y="188.57" width="22.00" height="36"/>
<abc type="b" row="11" col="0" x="106.34" y="207.57" width="6.00" height="6"/>
<path class="fill"
	d="M113.04 208.77l65.70 0.00v-3.20l-65.70 -0.00"/>
<path class="fill"
	d="M113.34 203.77l65.00 0.00v-3.20l-65.00 -0.00"/>
<use x="116.84" y="190.57" xlink:href="#hl"/>
<use x="116.84" y="184.57" xlink:href="#hl"/>
<use x="116.84" y="181.57" xlink:href="#hd"/>
<path d="M113.34 181.57v26.20" class="stroke"/>
<abc type="N" row="11" col="0" x="106.34" y="175.57" width="17.00" height="38"/>
<use x="138.54" y="190.57" xlink:href="#hl"/>
<use x="138.54" y="184.57" xlink:href="#hl"/>
<use x="138.54" y="178.57" xlink:href="#hl"/>
<use x="138.54" y="178.57" xlink:href="#hd"/>
<path d="M135.04 178.57v29.20" class="stroke"/>
<abc type="N" row="11" col="4" x="130.54" y="172.57" width="14.50" height="41"/>
<use x="160.14" y="190.57" xlink:href="#hl"/>
<use x="160.14" y="184.57" xlink:href="#hl"/>
<use x="160.14" y="178.57" xlink:href="#hl"/>
<use x="160.14" y="175.57" xlink:href="#hd"/>
<path d="M156.64 175.57v32.20" class="stroke"/>
<abc type="N" row="11" col="8" x="152.14" y="169.57" width="14.50" height="44"/>
<use x="181.84" y="190.57" xlink:href="#hl"/>
<use x="181.84" y="184.57" xlink:href="#hl"/>
<use x="181.84" y="178.57" xlink:href="#hl"/>
<use x="181.84" y="172.57" xlink:href="#hl"/>
<use x="181.84" y="172.57" xlink:href="#hd"/>
<path d="M178.34 172.57v35.20" class="stroke"/>
<abc type="N" row="11" col="12" x="173.84" y="166.57" width="14.50" height="47"/>
<abc type="e" row="11" col="12" x="173.84" y="207.57" width="6.00" height="6"/>
<use x="203.54" y="226.57" xlink:href="#hl"/>
<use x="203.54" y="232.57" xlink:href="#hl"/>
<use x="203.54" y="238.57" xlink:href="#hl"/>
<use x="203.54" y="244.57" xlink:href="#hl"/>
<use x="203.54" y="244.57" xlink:href="#Hd"/>
<circle class="fill" cx="212.24" cy="241.57" r="1.2"/>
<path d="M207.04 244.57v-36.00" class="stroke"/>
<abc type="N" row="11" col="17" x="196.54" y="204.57" width="22.00" height="46"/>
</g>
</svg>
